<?xml version="1.0" standalone="no"?>
<!DOCTYPE svg PUBLIC "-//W3C//DTD SVG 1.1//EN" "http://www.w3.org/Graphics/SVG/1.1/DTD/svg11.dtd" >
<svg xmlns="http://www.w3.org/2000/svg" xmlns:xlink="http://www.w3.org/1999/xlink" version="1.1">
<metadata>
Created by FontForge 20190801 at Fri Apr 29 23:32:12 2022
 By www-data
Copyright 2015 The Public Sans Project Authors (https://github.com/uswds/public-sans)
</metadata>
<defs>
<font id="PublicSansMediumItalic" horiz-adv-x="0" >
  <font-face 
    font-family="PublicSansMediumItalic"
    font-weight="500"
    font-style="italic"
    font-stretch="normal"
    units-per-em="2000"
    panose-1="0 0 0 0 0 0 0 0 0 0"
    ascent="1600"
    descent="-400"
    x-height="1034"
    cap-height="1446"
    bbox="-392 -480 2319 2123"
    underline-thickness="140"
    underline-position="-440"
    slope="-8"
    unicode-range="U+000D-FB02"
  />
<missing-glyph horiz-adv-x="1623" 
d="M375 1652h918q36 0 36 -42v-1876q0 -56 -66 -56h-872q-31 0 -42.5 12t-11.5 36v1880q0 46 38 46zM1227 -114v1634q0 34 -31 34h-685zM439 1433v-1617q0 -19 9.5 -29.5t34.5 -10.5h671z" />
    <glyph glyph-name="fi" unicode="fi" horiz-adv-x="1268" 
d="M191 0l127 880h-201l24 154h199l23 157q18 124 90.5 189.5t195.5 65.5h198l-21 -148h-140q-59 0 -85 -32.5t-37 -99.5l-18 -132h233l-23 -154h-229l-128 -880h-208zM843 0l146 1034h202l-145 -1034h-203zM1013 1235l29 211h211l-29 -211h-211z" />
    <glyph glyph-name="fl" unicode="fl" horiz-adv-x="1374" 
d="M191 0l127 880h-201l24 154h199l23 157q18 124 90.5 189.5t195.5 65.5h198l-21 -148h-140q-59 0 -85 -32.5t-37 -99.5l-18 -132h233l-23 -154h-229l-128 -880h-208zM1106 -14q-89 0 -139.5 24t-72 64.5t-23.5 92t5 106.5l177 1213h208l-174 -1191q-10 -72 11.5 -110
t77.5 -43l50 -2l-19 -136q-27 -8 -53.5 -13t-47.5 -5z" />
    <glyph glyph-name=".notdef" horiz-adv-x="1623" 
d="M375 1652h918q36 0 36 -42v-1876q0 -56 -66 -56h-872q-31 0 -42.5 12t-11.5 36v1880q0 46 38 46zM1227 -114v1634q0 34 -31 34h-685zM439 1433v-1617q0 -19 9.5 -29.5t34.5 -10.5h671z" />
    <glyph glyph-name="uni0000" horiz-adv-x="53" 
 />
    <glyph glyph-name="uni0000" horiz-adv-x="53" 
 />
    <glyph glyph-name="nonmarkingreturn" horiz-adv-x="666" 
 />
    <glyph glyph-name="CR" unicode="&#xd;" horiz-adv-x="469" 
 />
    <glyph glyph-name="space" unicode=" " horiz-adv-x="476" 
 />
    <glyph glyph-name="exclam" unicode="!" horiz-adv-x="513" 
d="M161 389l96 1057h249l-208 -1057h-137zM51 0l37 255h241l-38 -255h-240z" />
    <glyph glyph-name="quotedbl" unicode="&#x22;" horiz-adv-x="873" 
d="M626 954l11 492h237l-134 -492h-114zM249 954l11 492h237l-134 -492h-114z" />
    <glyph glyph-name="numbersign" unicode="#" horiz-adv-x="1172" 
d="M780 -4l-125 18l217 1435l124 -14zM78 464v123h1004v-123h-1004zM366 -4l-124 18l217 1435l123 -14zM142 874v123h1004v-123h-1004z" />
    <glyph glyph-name="dollar" unicode="$" horiz-adv-x="1280" 
d="M582 -20q-227 0 -359.5 100t-128.5 300l220 11q12 -116 90 -174.5t204 -58.5q76 0 144.5 27.5t114.5 76.5t55 114q15 92 -30.5 144t-152.5 82l-225 62q-149 39 -226.5 129.5t-56.5 243.5q18 128 98 224t203 149.5t271 53.5q146 0 243.5 -57t142 -151.5t29.5 -206.5
l-213 -9q-1 80 -24.5 135t-73 83.5t-129.5 28.5q-78 0 -146.5 -26.5t-115 -77.5t-56.5 -124q-10 -74 32 -117t165 -83l216 -65q172 -50 233.5 -159t40.5 -256q-18 -118 -94 -208t-197.5 -140.5t-273.5 -50.5zM458 -204l38 259h188l-38 -259h-188zM700 1401l38 259h189
l-38 -259h-189z" />
    <glyph glyph-name="percent" unicode="%" horiz-adv-x="1699" 
d="M359 -8l-132 2l1144 1468h130zM442 644q-81 0 -142 41t-95 114t-34 169q0 74 23 160t70.5 163.5t121 127t172.5 49.5q80 0 140 -41t93.5 -114.5t33.5 -171.5q0 -80 -24.5 -167.5t-73 -162t-119.5 -121t-166 -46.5zM456 760q62 0 104.5 41.5t68 104.5t37 129.5t11.5 116.5
q0 93 -32 147t-105 54q-60 0 -102.5 -41.5t-68.5 -105t-38 -130t-12 -115.5q0 -92 32 -146.5t105 -54.5zM1192 -20q-81 0 -142 41t-95 114t-34 169q0 83 25.5 171t75 162.5t121.5 121t164 46.5q81 0 141 -41.5t93.5 -115t33.5 -169.5q0 -82 -24.5 -169t-73 -162t-120 -121.5
t-165.5 -46.5zM1206 97q61 0 103.5 41t68 104t37 129.5t11.5 116.5q0 93 -32 147t-105 54q-59 0 -101 -42t-68.5 -105t-38.5 -129.5t-12 -115.5q0 -91 31.5 -145.5t105.5 -54.5z" />
    <glyph glyph-name="ampersand" unicode="&#x26;" horiz-adv-x="1402" 
d="M438 -10q-140 0 -227.5 47.5t-123.5 131.5t-20 194q14 96 62 172.5t131.5 141.5t204.5 127q-44 59 -74.5 112.5t-43 109t-3.5 119.5q14 91 72 164t148 116t200 43q106 0 189.5 -38.5t127 -108t29.5 -163.5q-9 -54 -47 -117.5t-117 -132.5t-212 -140l224 -342q21 28 53 81
t63.5 125t48.5 158h211q-31 -99 -79 -184.5t-103.5 -161t-108.5 -145.5l201 -299h-242l-106 156q-120 -89 -236.5 -127.5t-221.5 -38.5zM511 159q72 0 153 34t147 92l-260 392q-100 -54 -171.5 -131t-78.5 -175q-8 -99 55.5 -155.5t154.5 -56.5zM660 883q98 56 153 101.5
t78.5 86t29.5 81.5q9 63 -13.5 102t-65 56.5t-92.5 16.5q-82 -1 -134 -51t-61 -118q-6 -45 5.5 -89.5t31.5 -82t39 -63.5z" />
    <glyph glyph-name="quotesingle" unicode="'" horiz-adv-x="496" 
d="M249 954l11 492h237l-134 -492h-114z" />
    <glyph glyph-name="parenleft" unicode="(" horiz-adv-x="610" 
d="M282 -258q-59 141 -97.5 277.5t-49.5 283.5t14 317q37 248 145.5 476.5t255.5 413.5h145q-124 -194 -220 -424t-131 -468q-32 -225 -9.5 -438t91.5 -438h-144z" />
    <glyph glyph-name="parenright" unicode=")" horiz-adv-x="621" 
d="M-74 -260q125 195 220.5 425t130.5 467q33 227 10 439t-92 437h145q58 -141 96.5 -277.5t49.5 -283.5t-14 -317q-36 -248 -144.5 -476t-256.5 -414h-145z" />
    <glyph glyph-name="asterisk" unicode="*" horiz-adv-x="830" 
d="M341 733l-122 85l193 238l-271 76l47 132l259 -107l-20 289h151l-20 -290l262 114l42 -131l-265 -82l189 -230l-124 -88l-158 259z" />
    <glyph glyph-name="plus" unicode="+" horiz-adv-x="1092" 
d="M433 285l128 886h158l-128 -886h-158zM139 645l24 163l848 1l-24 -163z" />
    <glyph glyph-name="comma" unicode="," horiz-adv-x="495" 
d="M-20 -259l144 254l-87 6l36 238h239l-30 -208l-214 -290h-88z" />
    <glyph glyph-name="hyphen" unicode="-" horiz-adv-x="741" 
d="M111 433l23 164l495 1l-23 -163z" />
    <glyph glyph-name="period" unicode="." horiz-adv-x="470" 
d="M34 0l39 258h240l-38 -258h-241z" />
    <glyph glyph-name="slash" unicode="/" horiz-adv-x="696" 
d="M-56 -66l698 1512h155l-698 -1512h-155z" />
    <glyph glyph-name="zero" unicode="0" horiz-adv-x="1202" 
d="M526 -22q-236 0 -345 187.5t-58 552.5q34 245 120 411.5t212 251.5t281 85q233 0 343 -189.5t58 -556.5q-51 -365 -213.5 -553.5t-397.5 -188.5zM552 160q141 0 229 130.5t130 428.5q43 304 -9.5 437.5t-191.5 133.5t-230.5 -134.5t-134.5 -436.5q-41 -297 13 -428
t194 -131z" />
    <glyph glyph-name="one" unicode="1" horiz-adv-x="808" 
d="M272 0l166 1132h-260l19 133q122 0 195.5 20.5t110.5 61t51 99.5h143l-211 -1446h-214z" />
    <glyph glyph-name="two" unicode="2" horiz-adv-x="1175" 
d="M47 0l17 121l9 64q18 129 83.5 218.5t157.5 153t192.5 114.5t191 102.5t152.5 116.5t75 157q15 104 -45 169t-178 65q-84 0 -152.5 -34t-116 -97t-68.5 -151h-206q20 129 92.5 235t194.5 169t289 63q145 0 243 -52.5t142.5 -146.5t26.5 -219q-18 -129 -82.5 -217
t-154.5 -149t-188.5 -109t-187.5 -97t-149.5 -111t-73.5 -154l-3 -25h723l-27 -186h-957z" />
    <glyph glyph-name="three" unicode="3" horiz-adv-x="1239" 
d="M520 -22q-150 1 -254 55.5t-152.5 154.5t-32.5 236h207q1 -131 73 -198.5t190 -67.5q97 0 172 31.5t122 87t57 129.5q12 80 -23 136t-103.5 85.5t-159.5 31.5l-127 3l25 178l120 4q86 2 157 34.5t116.5 85.5t54.5 117q8 58 -19 106t-86 76.5t-147 28.5q-72 0 -140 -28
t-118 -88.5t-67 -157.5h-206q21 145 102 244.5t200.5 151.5t255.5 52q148 0 255.5 -43t161 -127t35.5 -207q-15 -107 -90.5 -192.5t-216.5 -133.5q84 -25 144 -73.5t88 -120.5t14 -167q-14 -101 -66.5 -180t-135 -134t-186 -83t-220.5 -27z" />
    <glyph glyph-name="four" unicode="4" horiz-adv-x="1224" 
d="M660 0l52 356h-643l28 188l767 902h210l-130 -905h222l-27 -185h-224l-51 -356h-204zM294 541h444l91 633z" />
    <glyph glyph-name="five" unicode="5" horiz-adv-x="1257" 
d="M573 -22q-132 0 -236.5 46.5t-174 128t-93.5 188.5l187 85q25 -78 66.5 -139.5t105.5 -96t152 -34.5q140 0 237 83.5t117 226.5q12 89 -18.5 156t-92.5 104.5t-146 37.5q-51 0 -98 -9.5t-95.5 -37t-106.5 -81.5q-10 -4 -13.5 -4t-12.5 5l-157 62l167 747h848l-32 -181
h-667l-93 -435q79 60 160.5 86.5t173.5 26.5q130 0 229.5 -54t149 -158.5t27.5 -257.5q-20 -151 -99.5 -262t-204 -172t-280.5 -61z" />
    <glyph glyph-name="six" unicode="6" horiz-adv-x="1225" 
d="M560 -22q-167 0 -276 87.5t-152 249t-12 384.5q33 234 122 406.5t226 266.5t315 94q120 0 215 -46t148.5 -132.5t49.5 -209.5h-196q-13 100 -74 156.5t-164 56.5q-115 0 -201.5 -68.5t-139.5 -199.5t-67 -316q38 66 96 115.5t129.5 76.5t148.5 27q138 0 233.5 -55
t139.5 -157t24 -242q-19 -144 -96.5 -255.5t-198 -175t-270.5 -63.5zM580 150q79 0 146.5 39.5t113.5 110t58 162.5q14 93 -10 159t-81 101t-143 35q-71 0 -140.5 -34.5t-118 -90.5t-58.5 -122q-15 -107 8.5 -188t81.5 -126.5t143 -45.5z" />
    <glyph glyph-name="seven" unicode="7" horiz-adv-x="1171" 
d="M262 0q26 96 83.5 239t145 313.5t204.5 353.5t262 359h-761l27 181h988l-29 -181q-84 -101 -173 -230t-172.5 -270.5t-154.5 -282t-121.5 -265t-71.5 -217.5h-227z" />
    <glyph glyph-name="eight" unicode="8" horiz-adv-x="1265" 
d="M556 -22q-162 0 -275.5 51.5t-167.5 145t-36 219.5q12 84 63 160.5t121 129.5t140 67q-86 42 -135.5 121.5t-33.5 195.5q18 128 93 216.5t190 135t250 46.5q136 0 237.5 -46.5t151.5 -135t32 -216.5q-16 -116 -87 -195.5t-170 -121.5q66 -14 121.5 -67t85 -129.5
t17.5 -160.5q-17 -126 -97 -219.5t-208.5 -145t-291.5 -51.5zM580 147q144 0 238 68.5t109 181.5q11 75 -19 133.5t-95.5 92t-161.5 33.5q-95 0 -170 -33.5t-121 -92t-57 -133.5q-16 -113 59.5 -181.5t217.5 -68.5zM677 839q116 0 198.5 62t97.5 172q16 111 -49.5 175
t-180.5 64t-197.5 -64.5t-98.5 -174.5q-15 -110 50 -172t180 -62z" />
    <glyph glyph-name="nine" unicode="9" horiz-adv-x="1227" 
d="M497 -22q-119 0 -216 47.5t-152.5 134t-52.5 206.5h203q9 -95 71 -154t165 -59q115 0 207 62t152 193t78 338q-34 -70 -92 -122.5t-132 -82.5t-158 -30q-138 0 -236 56t-143 159.5t-25 247.5t96 255t195.5 174t269.5 63q166 0 275 -87t152 -248t11 -384
q-34 -248 -124 -419.5t-228 -260.5t-316 -89zM622 689q72 0 141.5 34t118 90.5t57.5 121.5q17 108 -7.5 189t-82 126.5t-142.5 45.5q-78 0 -144 -39.5t-110.5 -110t-57.5 -162.5q-19 -137 40 -216t187 -79z" />
    <glyph glyph-name="colon" unicode=":" horiz-adv-x="474" 
d="M142 741l38 256h241l-37 -256h-242zM35 6l38 255h241l-38 -255h-241z" />
    <glyph glyph-name="semicolon" unicode=";" horiz-adv-x="499" 
d="M-6 -292l155 292h-88l36 256h242l-33 -227l-225 -321h-87zM162 735l37 259h242l-38 -259h-241z" />
    <glyph glyph-name="less" unicode="&#x3c;" horiz-adv-x="1075" 
d="M911 259l-778 337l27 188l878 342l-27 -195l-624 -242l552 -238z" />
    <glyph glyph-name="equal" unicode="=" horiz-adv-x="1095" 
d="M169 838l24 162l848 1l-24 -162zM104 390l24 163l848 1l-24 -163z" />
    <glyph glyph-name="greater" unicode="&#x3e;" horiz-adv-x="1075" 
d="M86 259l30 192l621 238l-554 242l29 195l779 -342l-28 -188z" />
    <glyph glyph-name="question" unicode="?" horiz-adv-x="1008" 
d="M365 394q16 113 62.5 195.5t106 147.5t118.5 122t101.5 117t53.5 135q14 92 -41 145t-153 53q-59 0 -118.5 -25.5t-109 -69.5t-79.5 -100l-176 52q82 143 215 221.5t293 78.5q131 0 222 -45t133 -123t28 -177q-15 -101 -63.5 -174t-113 -133t-129.5 -119.5t-113.5 -131
t-62.5 -169.5h-174zM274 0l38 255h241l-38 -255h-241z" />
    <glyph glyph-name="at" unicode="@" horiz-adv-x="1593" 
d="M703 -220q-170 0 -295 57t-204 157t-109 232t-8 283q24 158 97.5 298.5t188.5 248.5t263 170t319 62q123 0 235 -36.5t196 -112t123.5 -194t15.5 -283.5q-22 -149 -85.5 -262.5t-154.5 -177.5t-196 -64q-76 0 -112.5 27.5t-45.5 72.5q-3 12 -7 12t-15 -11
q-49 -55 -117 -92t-156 -37q-73 0 -128.5 42.5t-80.5 120t-9 182.5q18 122 78.5 225t151.5 164.5t200 61.5q78 0 123 -32t70 -83q3 -4 7.5 -2.5t7.5 9.5l22 58h131l-133 -440q-24 -81 -10 -111.5t56 -30.5q54 0 107 41.5t94 121t57 193.5q21 140 -9.5 236.5t-97 156
t-155.5 86.5t-185 27q-150 0 -271.5 -51.5t-210.5 -141t-144.5 -206.5t-74.5 -248t5 -241.5t89.5 -191.5t171.5 -125t251 -44q86 0 148 17t114 45t105 62l56 -100q-88 -66 -208.5 -108.5t-260.5 -42.5zM694 274q58 0 111.5 36t94 95t57.5 128q21 80 9.5 135.5t-46 85
t-82.5 29.5q-62 0 -116 -40t-91.5 -106.5t-50.5 -148.5q-13 -94 15.5 -154t98.5 -60z" />
    <glyph glyph-name="A" unicode="A" horiz-adv-x="1378" 
d="M5 0l707 1446h230l286 -1446h-212l-72 379h-542l-185 -379h-212zM481 573h438l-121 663z" />
    <glyph glyph-name="B" unicode="B" horiz-adv-x="1304" 
d="M110 0l210 1446h461q257 0 373 -98t90 -282q-17 -112 -83.5 -193t-214.5 -135q80 -20 129.5 -55t74.5 -81.5t31 -101t-3 -113.5q-29 -196 -173.5 -291.5t-414.5 -95.5h-480zM347 174h267q157 0 248 58.5t107 173.5q12 83 -20.5 135t-97 77t-148.5 25h-289zM439 820h287
q50 0 101 11.5t95.5 37t75 68.5t39.5 106q17 118 -58 174t-209 56h-265z" />
    <glyph glyph-name="C" unicode="C" horiz-adv-x="1354" 
d="M633 -20q-178 0 -295.5 81t-170 234t-34.5 369q14 174 65.5 320.5t140.5 254.5t214.5 167.5t286.5 59.5q148 0 253.5 -62t161.5 -169.5t54 -243.5h-222q-3 82 -35 148.5t-92.5 105t-152.5 38.5q-104 0 -182.5 -47t-132.5 -132.5t-85.5 -199.5t-44.5 -248
q-24 -253 51 -373t241 -120q92 0 163.5 41.5t121.5 111t76 151.5h223q-25 -95 -74 -182.5t-123 -156.5t-175.5 -108.5t-232.5 -39.5z" />
    <glyph glyph-name="D" unicode="D" horiz-adv-x="1363" 
d="M112 0l205 1446q8 0 69 -0.5t138 -0.5q137 -1 255.5 -15.5t213.5 -50.5t162.5 -99t103.5 -159t36 -231q0 -100 -16 -204.5t-53.5 -204t-100 -186.5t-156 -153t-221 -104t-296.5 -38h-340zM352 180h118q157 0 271.5 53.5t188.5 149t110 223t36 276.5q0 142 -51 226
t-147.5 121t-234.5 37h-134z" />
    <glyph glyph-name="E" unicode="E" horiz-adv-x="1217" 
d="M110 0l211 1446h894l-29 -186h-682l-63 -439h607l-27 -183h-608l-65 -449l700 -1l-29 -188h-909z" />
    <glyph glyph-name="F" unicode="F" horiz-adv-x="1166" 
d="M111 0l210 1446h884l-28 -184h-670l-63 -447h594l-27 -182h-594l-92 -633h-214z" />
    <glyph glyph-name="G" unicode="G" horiz-adv-x="1434" 
d="M627 -20q-185 0 -306.5 88t-170 253.5t-14.5 397.5q35 234 134 401.5t248.5 256.5t335.5 89q147 0 255 -67.5t164 -176t44 -231.5h-222q-2 77 -35.5 142.5t-94 105.5t-144.5 40q-111 0 -204 -58t-159 -180.5t-95 -316.5q-21 -151 -7 -257t58 -171t109.5 -94.5
t145.5 -29.5q78 0 141.5 29t110.5 75t76.5 99.5t39.5 103.5l25 117h-320l23 154l539 -2l-109 -748h-152l30 212q-45 -59 -107 -112t-145.5 -86.5t-193.5 -33.5z" />
    <glyph glyph-name="H" unicode="H" horiz-adv-x="1489" 
d="M110 0l204 1446h211l-86 -606h702l85 606h211l-204 -1446h-210l92 654h-702l-92 -654h-211z" />
    <glyph glyph-name="I" unicode="I" horiz-adv-x="584" 
d="M111 0l209 1446h211l-209 -1446h-211z" />
    <glyph glyph-name="J" unicode="J" horiz-adv-x="770" 
d="M230 -20q-70 0 -134 16t-88 25l40 202q28 -10 63.5 -24.5t88.5 -14.5q94 0 136.5 54t59.5 179l150 1029h209l-158 -1088q-18 -122 -56.5 -206.5t-112.5 -128t-198 -43.5z" />
    <glyph glyph-name="K" unicode="K" horiz-adv-x="1340" 
d="M110 0l211 1446h218l-104 -725l684 725h245l-525 -562l360 -884h-234l-304 725l-268 -281l-64 -444h-219z" />
    <glyph glyph-name="L" unicode="L" horiz-adv-x="1120" 
d="M110 0l211 1446h213l-182 -1258h633l-28 -188h-847z" />
    <glyph glyph-name="M" unicode="M" horiz-adv-x="1734" 
d="M111 0l209 1446h298l216 -1150l553 1150h294l-209 -1446h-214l167 1152l-544 -1152h-182l-209 1143l-166 -1143h-213z" />
    <glyph glyph-name="N" unicode="N" horiz-adv-x="1483" 
d="M110 0l211 1446h204l540 -1078l155 1078h211l-212 -1446h-187l-552 1101l-159 -1101h-211z" />
    <glyph glyph-name="O" unicode="O" horiz-adv-x="1432" 
d="M639 -20q-190 0 -314 87.5t-173.5 252t-15.5 398.5q34 236 133.5 403t249.5 256t336 89t309 -88.5t173 -255t16 -402.5q-34 -234 -132 -399.5t-246.5 -253t-335.5 -87.5zM667 163q118 0 210.5 58t155 180.5t90.5 315.5q29 196 1.5 321.5t-103 185t-193.5 59.5
q-177 0 -298 -136t-164 -430q-28 -192 0.5 -314.5t105 -181t195.5 -58.5z" />
    <glyph glyph-name="P" unicode="P" horiz-adv-x="1243" 
d="M111 0l210 1446h479q149 0 257.5 -53t161.5 -156t31 -253q-22 -144 -98 -245.5t-193.5 -155t-263.5 -53.5h-293l-77 -530h-214zM426 705h290q86 0 157.5 36t118 101.5t59.5 153.5q18 134 -56 205.5t-205 71.5h-282z" />
    <glyph glyph-name="Q" unicode="Q" horiz-adv-x="1460" 
d="M1204 -243q-75 0 -149 17t-139.5 68.5t-113.5 154.5q-49 -8 -87 -12.5t-77 -4.5q-186 0 -310.5 86t-175 251.5t-15.5 402.5q34 237 133 403.5t248.5 254.5t336.5 88q186 0 309.5 -88t173.5 -254.5t16 -403.5q-31 -217 -115.5 -374.5t-231.5 -255.5q20 -75 81.5 -113.5
t142.5 -41.5zM666 163q180 0 298.5 132.5t159.5 422.5q29 193 2.5 318t-102.5 186t-197 61q-181 0 -299.5 -138t-161.5 -429q-41 -289 39.5 -421t260.5 -132z" />
    <glyph glyph-name="R" unicode="R" horiz-adv-x="1321" 
d="M110 0l210 1446h549q154 0 248.5 -49.5t131 -140.5t18.5 -215q-17 -117 -66 -195t-115.5 -127t-135.5 -77l172 -642h-219l-155 605h-340l-88 -605h-210zM433 778h286q93 0 164 29t114 85.5t55 138.5q17 120 -45 182t-182 62h-320z" />
    <glyph glyph-name="S" unicode="S" horiz-adv-x="1329" 
d="M598 -20q-100 0 -191.5 25.5t-162 76.5t-110 128.5t-37.5 181.5h222q5 -78 45.5 -131t107 -80t150.5 -27q91 0 167.5 26.5t126 76t58.5 119.5q9 63 -14.5 107t-73 73.5t-121.5 46.5l-253 62q-152 34 -228 126.5t-56 245.5q17 128 97 224t203 149.5t270 53.5
q161 0 268 -61.5t158 -159t41 -203.5h-218q4 92 -31.5 146t-98.5 77.5t-143 23.5q-77 0 -146 -26.5t-115.5 -77.5t-56.5 -124q-10 -74 31.5 -120t164.5 -79l247 -61q109 -24 171.5 -70.5t91 -105.5t33 -122.5t-3.5 -121.5q-15 -112 -92.5 -202.5t-205.5 -143.5t-295 -53z
" />
    <glyph glyph-name="T" unicode="T" horiz-adv-x="1155" 
d="M403 0l180 1251h-434l29 195h1060l-27 -195h-417l-182 -1251h-209z" />
    <glyph glyph-name="U" unicode="U" horiz-adv-x="1371" 
d="M624 -20q-187 0 -292 64t-139 187t-8 300l132 915h216l-136 -942q-17 -114 8 -189t88 -112.5t158 -37.5q143 0 237.5 83t119.5 256l135 942h212l-134 -932q-25 -169 -95.5 -288.5t-194 -182.5t-307.5 -63z" />
    <glyph glyph-name="V" unicode="V" horiz-adv-x="1298" 
d="M443 0l-267 1446h203l224 -1200l576 1200h204l-695 -1446h-245z" />
    <glyph glyph-name="W" unicode="W" horiz-adv-x="1834" 
d="M366 0l-189 1446h210l130 -1098l450 1098h158l137 -1098l450 1098h207l-614 -1446h-182l-132 1073l-447 -1073h-178z" />
    <glyph glyph-name="X" unicode="X" horiz-adv-x="1347" 
d="M5 0l571 737l-343 709h262l242 -526l394 526h228l-533 -685l370 -761h-263l-267 572l-429 -572h-232z" />
    <glyph glyph-name="Y" unicode="Y" horiz-adv-x="1198" 
d="M416 0l87 614l-349 832h227l257 -643l438 643h230l-592 -833l-90 -613h-208z" />
    <glyph glyph-name="Z" unicode="Z" horiz-adv-x="1254" 
d="M49 0l18 113l901 1149h-699l28 184h996l-16 -108l-912 -1152h740l-29 -186h-1027z" />
    <glyph glyph-name="bracketleft" unicode="[" horiz-adv-x="618" 
d="M54 -322l256 1768h381l-19 -131h-203l-219 -1505h203l-20 -132h-379z" />
    <glyph glyph-name="backslash" unicode="\" horiz-adv-x="682" 
d="M414 -66l-257 1512h154l259 -1512h-156z" />
    <glyph glyph-name="bracketright" unicode="]" horiz-adv-x="618" 
d="M-60 -322l19 132h203l218 1505h-202l19 131h379l-255 -1768h-381z" />
    <glyph glyph-name="asciicircum" unicode="^" horiz-adv-x="917" 
d="M628 253l-132 565l-296 -563h-153l393 727q24 45 57.5 61.5t62.5 2t42 -62.5l181 -730h-155z" />
    <glyph glyph-name="underscore" unicode="_" horiz-adv-x="1022" 
d="M14 -248l25 163l773 1l-25 -163z" />
    <glyph glyph-name="grave" unicode="`" horiz-adv-x="532" 
d="M456 1155l-270 291h229l197 -291h-156z" />
    <glyph glyph-name="a" unicode="a" horiz-adv-x="1078" 
d="M349 -20q-96 0 -165 36t-101 104t-19 164q25 172 154 257t386 90l158 5l12 75q13 93 -36 142t-142 48q-76 0 -145.5 -40t-100.5 -123h-180q19 94 81.5 165.5t159.5 111t218 39.5q134 0 216 -41t114.5 -115t17.5 -175l-105 -723h-177l9 184q-73 -118 -162 -161t-193 -43z
M436 129q45 0 92.5 17.5t88 48t68.5 68.5t34 78l24 171l-130 -3q-99 -1 -172 -22t-117 -65t-55 -117q-11 -83 36 -129.5t131 -46.5z" />
    <glyph glyph-name="b" unicode="b" horiz-adv-x="1169" 
d="M588 -20q-82 0 -137 23t-88 59t-50 76t-23 74l-52 -212h-157l200 1486h212l-81 -609q18 27 48.5 58t73.5 58t97.5 44t119.5 17q185 0 275 -136t55 -396q-33 -245 -158.5 -393.5t-334.5 -148.5zM569 141q111 0 194 92t110 296q23 176 -30.5 269t-176.5 93
q-133 0 -205 -93.5t-97 -268.5q-27 -207 21.5 -297.5t183.5 -90.5z" />
    <glyph glyph-name="c" unicode="c" horiz-adv-x="1052" 
d="M472 -20q-135 0 -230 61.5t-137 181t-17 290.5q23 161 95.5 283t186 190t258.5 68q112 0 192 -45.5t121.5 -126.5t37.5 -189h-182q0 51 -21.5 95t-64 70.5t-106.5 26.5q-118 0 -204.5 -91t-114.5 -279q-24 -172 30.5 -274t183.5 -102q65 0 115.5 28t84 72t47.5 91h178
q-26 -104 -91 -183t-158.5 -123t-203.5 -44z" />
    <glyph glyph-name="d" unicode="d" horiz-adv-x="1166" 
d="M435 -20q-195 0 -288 139.5t-58 402.5q32 242 153.5 387t319.5 145q65 0 115 -17t85.5 -44t58.5 -58t33 -58l82 609h213l-201 -1486h-157l5 212q-15 -34 -42.5 -74t-70.5 -76t-104 -59t-144 -23zM498 141q136 0 208.5 90.5t101.5 297.5q14 117 -1.5 198t-65.5 122.5
t-139 41.5q-112 0 -195 -85.5t-108 -276.5q-25 -188 26.5 -288t172.5 -100z" />
    <glyph glyph-name="e" unicode="e" horiz-adv-x="1099" 
d="M493 -20q-141 0 -238.5 63.5t-140 181.5t-18.5 281q23 161 95.5 284.5t185.5 193.5t259 70q144 0 233 -64t123 -179.5t11 -272.5l-10 -71h-693q-14 -93 4.5 -166.5t70.5 -116t139 -42.5t156.5 42t101.5 125h194q-33 -106 -107.5 -180t-170.5 -111.5t-195 -37.5zM319 606
h495q12 81 -5 147.5t-65.5 105t-131.5 38.5t-145 -43t-99.5 -110t-48.5 -138z" />
    <glyph glyph-name="f" unicode="f" horiz-adv-x="766" 
d="M191 0l127 880h-201l24 154h199l23 157q18 124 90.5 189.5t195.5 65.5h198l-21 -148h-140q-59 0 -85 -32.5t-37 -99.5l-18 -132h233l-23 -154h-229l-128 -880h-208z" />
    <glyph glyph-name="g" unicode="g" horiz-adv-x="1200" 
d="M464 -342q-247 0 -372 73.5t-108 203.5q8 53 37.5 90t67.5 61t69.5 38.5t42.5 21.5q-13 9 -36.5 25t-41 44.5t-11.5 72.5q7 47 56.5 87t147.5 61q-82 46 -122 126t-27 171q13 95 73.5 166.5t163 111t242.5 39.5q101 0 163.5 -24t110.5 -64q21 9 58 23.5t80 32t82.5 33.5
t64.5 26l-23 -188l-179 -38q21 -67 12 -136q-12 -88 -68 -161.5t-154.5 -117t-238.5 -43.5q-16 0 -38 1t-33 1q-91 0 -127.5 -16t-38.5 -39q0 -29 39.5 -42t127.5 -20q38 -3 92.5 -5.5t117.5 -7.5q166 -11 244 -88.5t61 -204.5q-19 -139 -152 -226.5t-383 -87.5zM502 -211
q133 0 206.5 42.5t84.5 124.5q7 54 -29 88.5t-121 39.5l-259 18q-39 2 -81.5 -18.5t-73 -57t-36.5 -82.5q-10 -74 65 -114.5t244 -40.5zM563 524q101 0 170.5 53t82.5 152q13 95 -37.5 145.5t-146.5 50.5q-101 0 -172 -57t-85 -158q-12 -88 37 -137t151 -49z" />
    <glyph glyph-name="h" unicode="h" horiz-adv-x="1140" 
d="M81 0l207 1486h208l-83 -595q45 62 124 108t197 46q96 0 169 -39t109.5 -109t23.5 -163l-102 -734h-211l97 697q12 83 -38.5 130t-138.5 47q-61 0 -116 -21.5t-93.5 -63t-46.5 -103.5l-96 -686h-210z" />
    <glyph glyph-name="i" unicode="i" horiz-adv-x="502" 
d="M77 0l146 1034h202l-145 -1034h-203zM247 1235l29 211h211l-29 -211h-211z" />
    <glyph glyph-name="j" unicode="j" horiz-adv-x="532" 
d="M-38 -332q-79 0 -100 12.5l-21 12.5l21 143l92 6q65 6 94.5 36t38.5 96l155 1060h209l-155 -1066q-22 -151 -98.5 -225.5t-235.5 -74.5zM269 1252l31 211h219l-31 -211h-219z" />
    <glyph glyph-name="k" unicode="k" horiz-adv-x="1097" 
d="M72 0l216 1486h210l-136 -945l501 493h234l-415 -399l283 -635h-216l-221 499l-202 -193l-44 -306h-210z" />
    <glyph glyph-name="l" unicode="l" horiz-adv-x="608" 
d="M340 -14q-89 0 -139.5 24t-72 64.5t-23.5 92t5 106.5l177 1213h208l-174 -1191q-10 -72 11.5 -110t77.5 -43l50 -2l-19 -136q-27 -8 -53.5 -13t-47.5 -5z" />
    <glyph glyph-name="m" unicode="m" horiz-adv-x="1685" 
d="M73 0l150 1034h203l-20 -141q51 66 130 113.5t194 47.5q80 0 155.5 -38.5t102.5 -121.5q60 75 147.5 117.5t177.5 42.5q53 0 106.5 -17.5t96 -58t61.5 -110t4 -173.5l-101 -695h-210l99 675q12 84 -8 130.5t-59.5 66t-87.5 19.5q-55 0 -105 -21t-85 -68t-47 -126
l-98 -676h-208l104 721q9 56 -14.5 93.5t-63.5 57t-82 19.5q-46 0 -96 -19.5t-87.5 -61t-46.5 -107.5l-104 -703h-208z" />
    <glyph glyph-name="n" unicode="n" horiz-adv-x="1129" 
d="M73 0l151 1034h203l-19 -141q34 42 79 77t105.5 56t138.5 21q94 0 166 -42.5t107.5 -124t18.5 -198.5l-100 -682h-210l96 660q16 103 -32.5 158.5t-134.5 55.5q-60 0 -116.5 -21t-95.5 -62t-47 -103l-101 -688h-209z" />
    <glyph glyph-name="o" unicode="o" horiz-adv-x="1097" 
d="M474 -20q-139 0 -234 62.5t-135.5 181.5t-16.5 288q22 163 93.5 285t184.5 189.5t259 67.5q140 0 234 -63.5t133.5 -185t15.5 -293.5q-22 -157 -92 -277t-181.5 -187.5t-260.5 -67.5zM500 145q83 0 145 46.5t102 131t55 195.5q14 103 0.5 187.5t-62 134.5t-139.5 50
q-85 0 -148 -45.5t-102.5 -129t-54.5 -197.5q-14 -101 -0.5 -186t63 -136t141.5 -51z" />
    <glyph glyph-name="p" unicode="p" horiz-adv-x="1164" 
d="M35 -322l183 1356h210l-20 -172q31 44 80 88.5t115.5 74t149.5 29.5q116 0 197.5 -56.5t116.5 -173t11 -295.5q-24 -180 -91.5 -302t-169 -184.5t-227.5 -62.5q-60 0 -106 18t-79.5 47.5t-55.5 64t-35 68.5l-67 -500h-212zM568 143q112 0 197 92.5t111 289.5
q22 169 -32 267.5t-177 98.5q-128 0 -207 -102.5t-100 -263.5q-14 -105 3.5 -191.5t68 -138.5t136.5 -52z" />
    <glyph glyph-name="q" unicode="q" horiz-adv-x="1165" 
d="M691 -322l67 500q-29 -45 -75.5 -90.5t-109.5 -76.5t-143 -31q-117 0 -203 57t-124.5 178.5t-12.5 313.5q22 168 85 285.5t159.5 178.5t221.5 61q62 0 110.5 -17t84.5 -45.5t60 -62t39 -67.5l25 172h210l-183 -1356h-211zM496 143q87 0 151.5 52t105 138.5t53.5 191.5
q22 161 -29.5 263.5t-180.5 102.5q-111 0 -196.5 -91t-109.5 -275q-24 -181 30 -281.5t176 -100.5z" />
    <glyph glyph-name="r" unicode="r" horiz-adv-x="768" 
d="M72 0l146 1034h202l-30 -212q35 76 87 127.5t115 78t131 26.5q19 0 36.5 -2.5t26.5 -8.5l-29 -206q-11 6 -30 8t-32 3q-88 6 -157 -16.5t-112 -75t-55 -134.5l-87 -622h-212z" />
    <glyph glyph-name="s" unicode="s" horiz-adv-x="994" 
d="M438 -20q-104 0 -190 34t-137 107t-51 187h188q4 -59 33.5 -97.5t76 -57t101.5 -18.5q93 0 155.5 35.5t72.5 109.5q8 53 -19 85t-92 47l-188 49q-120 30 -185 95.5t-49 183.5q13 91 66.5 162t146 111.5t221.5 40.5q168 0 260 -78t75 -226h-182q0 71 -46 111.5t-130 40.5
q-88 0 -148.5 -36.5t-70.5 -111.5q-7 -51 29.5 -80.5t115.5 -48.5l180 -49q70 -20 113 -52.5t64.5 -71.5t26.5 -81t-1 -79q-13 -98 -70.5 -167.5t-150.5 -107t-215 -37.5z" />
    <glyph glyph-name="t" unicode="t" horiz-adv-x="773" 
d="M450 -7q-112 0 -168.5 31t-72.5 89.5t-4 141.5l90 625h-160l23 154h165l81 304h168l-43 -303h222l-23 -155h-222l-88 -612q-11 -75 12.5 -95.5t81.5 -20.5h115l-20 -139q-20 -8 -58.5 -14t-98.5 -6z" />
    <glyph glyph-name="u" unicode="u" horiz-adv-x="1137" 
d="M434 -20q-74 1 -139 23t-112 66t-69 109t-10 151l98 705h212l-96 -682q-13 -93 33.5 -151t156.5 -58q101 0 169 55.5t83 162.5l95 673h210l-146 -1034h-163l5 200q-29 -81 -81 -129.5t-116 -70t-130 -20.5z" />
    <glyph glyph-name="v" unicode="v" horiz-adv-x="978" 
d="M325 0l-210 1034h194l135 -763h14l357 763h194l-511 -1034h-173z" />
    <glyph glyph-name="w" unicode="w" horiz-adv-x="1497" 
d="M278 0l-159 1034h191l104 -753h13l318 753h154l107 -751h13l314 751h191l-457 -1034h-188l-106 726l-309 -726h-186z" />
    <glyph glyph-name="x" unicode="x" horiz-adv-x="1098" 
d="M-18 0l457 538l-275 496h223l191 -343l287 343h225l-421 -496l301 -538h-224l-215 387l-324 -387h-225z" />
    <glyph glyph-name="y" unicode="y" horiz-adv-x="1042" 
d="M131 -330q-91 0 -124.5 14l-33.5 14l20 138l101 -2q77 -4 120 14t64.5 45t33.5 50l41 87l-238 1004h210l162 -764l382 764h205l-567 -1092q-58 -108 -118 -167t-123.5 -82t-134.5 -23z" />
    <glyph glyph-name="z" unicode="z" horiz-adv-x="941" 
d="M2 0l16 128l642 751h-499l22 155h753l-16 -128l-642 -751h539l-22 -155h-793z" />
    <glyph glyph-name="braceleft" unicode="{" horiz-adv-x="667" 
d="M376 -322q-74 0 -130 26t-84.5 74.5t-18.5 117.5l63 425q7 47 -10 89.5t-61 69.5t-118 27l19 121q113 1 171.5 54t71.5 140l59 411q10 68 52.5 115.5t106 72.5t134.5 25h109l-20 -131h-73q-50 0 -77 -12.5t-39 -36t-17 -54.5l-60 -418q-12 -73 -47.5 -120t-82.5 -71
t-94 -29q-11 -1 -12.5 -6t10.5 -7q45 -4 85.5 -25.5t62.5 -69.5t11 -129l-60 -421q-8 -55 13 -80.5t90 -25.5h72l-20 -132h-106z" />
    <glyph glyph-name="bar" unicode="|" horiz-adv-x="534" 
d="M66 -322l285 1974h160l-287 -1974h-158z" />
    <glyph glyph-name="braceright" unicode="}" horiz-adv-x="673" 
d="M-82 -322l20 132h74q50 0 77 12t39 35.5t16 54.5l61 418q12 73 47 120t82 71t95 29q11 2 12.5 7t-10.5 6q-45 4 -86 25.5t-62.5 69.5t-11.5 129l61 421q8 56 -13 81.5t-91 25.5h-72l20 131h106q74 0 130.5 -25.5t84.5 -74.5t18 -118l-63 -425q-6 -47 11 -89.5t60.5 -69
t117.5 -26.5l-19 -122q-112 -1 -170.5 -53.5t-71.5 -140.5l-60 -411q-10 -68 -52.5 -115.5t-105.5 -72.5t-134 -25h-110z" />
    <glyph glyph-name="asciitilde" unicode="~" horiz-adv-x="1121" 
d="M186 591l-44 117q68 61 137 104.5t158 43.5q55 0 97 -17t79 -38.5t74.5 -38t85.5 -16.5q70 0 122 36.5t90 83.5l44 -117q-47 -66 -119 -106t-156 -40q-57 0 -99.5 16.5t-78.5 38.5t-74 38.5t-87 16.5q-72 0 -127.5 -38t-101.5 -84z" />
    <glyph glyph-name="uni00A0" unicode="&#xa0;" horiz-adv-x="476" 
 />
    <glyph glyph-name="exclamdown" unicode="&#xa1;" horiz-adv-x="518" 
d="M16 -322l187 965h136l-73 -965h-250zM168 779l35 255h241l-35 -255h-241z" />
    <glyph glyph-name="cent" unicode="&#xa2;" horiz-adv-x="1092" 
d="M534 202q-140 0 -239 61.5t-142.5 181t-18.5 290.5q25 161 100 283t193 190t268 68q118 0 201 -45.5t125.5 -126.5t38.5 -189h-193q0 51 -21.5 95t-65 70.5t-110.5 26.5q-120 0 -208.5 -91t-116.5 -279q-25 -172 31 -274t188 -102q66 0 117.5 28t86 72t48.5 91h188
q-26 -104 -93.5 -183t-164.5 -123t-212 -44zM413 0l45 300h146l-44 -300h-147zM605 1146l44 300h146l-44 -300h-146z" />
    <glyph glyph-name="sterling" unicode="&#xa3;" horiz-adv-x="1198" 
d="M-39 0l26 182h70q72 0 129.5 60.5t76.5 194.5q8 50 11 106.5t3 141.5h-194l20 130h169v169q-4 115 34.5 204t106.5 151t154 94.5t176 32.5q95 0 171.5 -32t128 -88.5t71.5 -130.5l-193 -63q-22 69 -61 102.5t-114 33.5q-86 0 -151.5 -54.5t-80.5 -153.5
q-7 -53 -6.5 -121.5t9.5 -142.5h297l-19 -130h-281q-2 -70 -7 -120.5t-19 -103.5q-15 -78 -40.5 -131.5t-54.5 -88t-56 -58.5h307q95 0 154.5 36t103.5 126l173 -45q-67 -150 -178.5 -225.5t-266.5 -75.5h-669z" />
    <glyph glyph-name="currency" unicode="&#xa4;" horiz-adv-x="1067" 
d="M155 278l-79 103l135 121q-26 51 -34 105.5t1 119.5q9 59 31 111.5t57 97.5q7 10 7 16.5t-6 12.5l-88 111l110 101l100 -126q51 34 109 52.5t115 18.5q113 0 195 -63q13 -8 24 2l119 109l80 -101l-130 -118q24 -49 33.5 -105t0.5 -118q-8 -57 -31.5 -112.5t-60.5 -99.5
q-7 -13 -2 -20l92 -108l-111 -101l-95 118q-53 -34 -109.5 -53.5t-116.5 -19.5q-112 0 -195 61q-14 12 -27 -3zM524 486q65 0 121.5 33.5t94.5 88.5t48 120q9 64 -12.5 119t-68.5 89t-113 34t-123 -34t-95 -89t-47 -119q-10 -65 12 -120t69.5 -88.5t113.5 -33.5z" />
    <glyph glyph-name="yen" unicode="&#xa5;" horiz-adv-x="1196" 
d="M406 0l87 604l-358 842h272l254 -639l440 639h222l-586 -808l-93 -638h-238zM154 255l19 127l815 1l-19 -127zM197 553l19 128l817 2l-19 -129z" />
    <glyph glyph-name="brokenbar" unicode="&#xa6;" horiz-adv-x="534" 
d="M235 847l116 805h160l-117 -805h-159zM66 -322l116 806h158l-116 -806h-158z" />
    <glyph glyph-name="section" unicode="&#xa7;" horiz-adv-x="957" 
d="M394 -147q-99 0 -178.5 30.5t-133 83t-75.5 118.5l145 71q33 -66 96 -113.5t165 -47.5q86 0 146.5 34.5t69.5 99.5q7 47 -22.5 88.5t-124.5 83.5l-149 63q-130 56 -181.5 127.5t-37.5 172.5q14 93 74 159t145 102q-94 60 -119.5 122t-16.5 131q13 82 67.5 147t142 103
t199.5 38q90 0 160 -29.5t118 -77t70 -101.5l-145 -72q-36 56 -87 97t-129 41q-86 0 -139 -34.5t-62 -92.5q-5 -41 21 -77t92 -67l146 -64q143 -63 199.5 -139.5t39.5 -185.5q-13 -97 -69.5 -157t-131.5 -100q79 -51 113.5 -111t22.5 -143q-14 -87 -69.5 -154.5t-148 -106.5
t-213.5 -39zM533 485q43 -4 81.5 16t64 55.5t29.5 78.5q5 55 -21 96.5t-111 78.5l-91 40q-50 -4 -90.5 -26.5t-67 -57.5t-32.5 -73q-7 -50 19 -84.5t119 -76.5z" />
    <glyph glyph-name="dieresis" unicode="&#xa8;" horiz-adv-x="593" 
d="M476 1251l29 195h206l-29 -195h-206zM111 1251l29 195h206l-29 -195h-206z" />
    <glyph glyph-name="copyright" unicode="&#xa9;" horiz-adv-x="1570" 
d="M702 -20q-147 0 -267 57.5t-202.5 159.5t-117.5 237t-13 290q22 153 96.5 287.5t187 236.5t249 160t282.5 58q147 0 266.5 -58t202 -160t118.5 -236.5t13 -287.5q-23 -155 -97.5 -290t-187 -237t-248.5 -159.5t-282 -57.5zM755 312q-109 0 -184.5 52t-109.5 145.5
t-16 216.5q18 124 79.5 218.5t152.5 147.5t199 53q84 0 141.5 -34t93 -87t51.5 -112l-155 -29q-12 39 -30 70t-46 49t-68 18q-59 0 -108.5 -34t-84.5 -99t-48 -157q-20 -141 26 -217t138 -76q71 0 124.5 41.5t94.5 106.5l107 -37q-23 -40 -56.5 -81.5t-78.5 -76.5
t-101 -56.5t-121 -21.5zM722 115q119 0 228 43t198 122.5t149 192t80 251.5q20 138 -7 250t-93 192.5t-163 124t-216 43.5q-121 0 -230.5 -43.5t-198 -124t-147.5 -192.5t-79 -250q-28 -186 27 -322.5t172.5 -211.5t279.5 -75z" />
    <glyph glyph-name="ordfeminine" unicode="&#xaa;" horiz-adv-x="768" 
d="M333 793q-94 0 -139 49t-33 132q14 96 101 153.5t231 65.5l96 8l5 46q10 64 -21.5 89.5t-84.5 25.5q-44 0 -82 -19t-73 -73l-113 32q46 78 114 119.5t175 41.5q129 -1 178.5 -58t35.5 -156q-12 -81 -19.5 -136t-13.5 -103q-2 -14 -5 -38.5t-5 -51t-2 -47.5l1 -68h-133
l-4 80q-54 -47 -102 -69.5t-107 -22.5zM393 891q66 0 118 45q21 18 34.5 35t15.5 39l14 104l-77 -6q-92 -6 -143.5 -39t-58.5 -87q-6 -41 20.5 -66t76.5 -25z" />
    <glyph glyph-name="guillemotleft" unicode="&#xab;" horiz-adv-x="903" 
d="M617 137l-189 365l298 381h116l-235 -381l125 -365h-115zM272 137l-188 365l296 381h118l-235 -381l124 -365h-115z" />
    <glyph glyph-name="logicalnot" unicode="&#xac;" horiz-adv-x="1092" 
d="M139 645l25 163l848 1l-25 -163zM772 355l57 402h175l-59 -402h-173z" />
    <glyph glyph-name="uni00AD" unicode="&#xad;" horiz-adv-x="741" 
d="M111 433l23 164l495 1l-23 -163z" />
    <glyph glyph-name="registered" unicode="&#xae;" horiz-adv-x="1040" 
d="M517 536q-123 0 -214.5 62t-136 167.5t-25.5 234.5t93.5 235t184.5 168.5t234 62.5q121 0 212 -62.5t135.5 -168.5t25.5 -235t-93.5 -234.5t-184 -167.5t-231.5 -62zM532 635q101 0 184 45t137.5 127t70.5 193t-15 193.5t-100.5 128t-170.5 45.5q-103 0 -186.5 -45.5
t-137.5 -128t-70 -193.5q-24 -167 54.5 -266t233.5 -99zM377 767l68 461h201q74 0 111 -30t28 -89q-7 -51 -39 -80.5t-70 -43.5l55 -218h-100l-41 209h-91l-30 -209h-92zM509 1048h102q29 0 51.5 12t27.5 42q3 24 -12 39.5t-56 15.5h-97z" />
    <glyph glyph-name="macron" unicode="&#xaf;" horiz-adv-x="669" 
d="M133 1227l21 146h603l-22 -146h-602z" />
    <glyph glyph-name="degree" unicode="&#xb0;" horiz-adv-x="903" 
d="M517 1033q-88 0 -150.5 40.5t-91.5 113t-15 165.5q13 93 63 166t125 114t164 41q87 0 149.5 -41t91.5 -114t16 -166q-14 -93 -64 -165.5t-125 -113t-163 -40.5zM535 1162q77 0 130.5 52.5t64.5 135.5q13 83 -25.5 135t-117.5 52q-77 0 -130.5 -52t-65.5 -135
q-10 -83 28 -135.5t116 -52.5z" />
    <glyph glyph-name="plusminus" unicode="&#xb1;" horiz-adv-x="1096" 
d="M460 443l128 885h159l-130 -885h-157zM64 104l24 162l847 1l-23 -162zM166 803l24 162l848 2l-24 -163z" />
    <glyph glyph-name="uni00B2" unicode="&#xb2;" horiz-adv-x="718" 
d="M68 768l11 77l6 39q12 82 52.5 138t98.5 96t121.5 72t120.5 64.5t96 73.5t47 99q9 65 -29 106t-112 41q-79 0 -135.5 -47.5t-76.5 -130.5h-129q19 122 111.5 208t250.5 86q137 0 206.5 -72.5t52.5 -190.5q-11 -81 -51.5 -136.5t-97.5 -93.5t-119 -68.5t-117.5 -61
t-93.5 -70t-47 -97.5l-1 -15h454l-17 -117h-602z" />
    <glyph glyph-name="uni00B3" unicode="&#xb3;" horiz-adv-x="783" 
d="M384 754q-142 1 -216.5 76.5t-59.5 204.5h130q2 -82 46.5 -124.5t119.5 -42.5q91 0 151 43t70 112q10 76 -42.5 117t-137.5 43l-81 2l17 111l75 3q54 1 98.5 21.5t73.5 54t35 73.5q7 55 -35 94t-124 39q-45 0 -88 -18t-74.5 -55.5t-42.5 -99.5h-129q13 91 63.5 154
t126 95.5t161.5 32.5q93 0 160.5 -27t101 -79.5t22.5 -130.5q-10 -68 -57 -121t-136 -84q53 -16 90.5 -46.5t55.5 -75.5t9 -105q-12 -85 -66 -145t-136.5 -91.5t-180.5 -30.5z" />
    <glyph glyph-name="acute" unicode="&#xb4;" horiz-adv-x="450" 
d="M100 1155l236 291h234l-308 -291h-162z" />
    <glyph glyph-name="uni00B5" unicode="&#xb5;" horiz-adv-x="1150" 
d="M10 -330l203 1390h215l-103 -705q-6 -47 13 -85.5t57 -61t90 -22.5q73 0 143.5 45t133.5 120l101 709h218l-158 -1060h-208l23 164q-83 -69 -144 -102.5t-126 -38.5q-53 -4 -99.5 6.5t-84.5 41.5l-58 -401h-216z" />
    <glyph glyph-name="paragraph" unicode="&#xb6;" horiz-adv-x="1102" 
d="M383 -166l110 762q-116 5 -197.5 59t-118.5 146t-20 211q17 113 80.5 212.5t170 160.5t250.5 61h445l-18 -128h-117l-215 -1484h-135l216 1484h-100l-217 -1484h-134z" />
    <glyph glyph-name="periodcentered" unicode="&#xb7;" horiz-adv-x="469" 
d="M120 609l36 239h239l-36 -239h-239z" />
    <glyph glyph-name="cedilla" unicode="&#xb8;" horiz-adv-x="468" 
d="M87 -415q-54 0 -101 12t-85 39l45 83q23 -19 54.5 -33.5t73.5 -14.5q50 0 77.5 18.5t32.5 51.5q7 43 -26 64t-116 23q-11 0 -14 3t4 12l93 167h103l-61 -120q66 -2 101.5 -25t47 -56.5t7.5 -67.5q-8 -50 -42.5 -85t-85.5 -53t-108 -18z" />
    <glyph glyph-name="uni00B9" unicode="&#xb9;" horiz-adv-x="473" 
d="M210 760l103 712h-163l11 84q116 0 164.5 29t60.5 85h91l-133 -910h-134z" />
    <glyph glyph-name="ordmasculine" unicode="&#xba;" horiz-adv-x="760" 
d="M418 795q-136 0 -200 93.5t-44 238.5q15 101 62.5 177t119 118.5t158.5 42.5q133 0 199 -94t45 -244q-13 -97 -59.5 -172t-118 -117.5t-162.5 -42.5zM433 899q76 0 123 61t62 172q15 108 -14.5 168t-104.5 60t-121.5 -60t-62.5 -168q-16 -111 14 -172t104 -61z" />
    <glyph glyph-name="guillemotright" unicode="&#xbb;" horiz-adv-x="901" 
d="M404 137l232 365l-126 381h117l186 -381l-294 -365h-115zM60 137l230 365l-123 381h115l186 -381l-295 -365h-113z" />
    <glyph glyph-name="onequarter" unicode="&#xbc;" horiz-adv-x="1515" 
d="M210 552l103 712h-163l11 84q116 0 164.5 29t60.5 85h91l-133 -910h-134zM256 -8l-131 2l1143 1468h130zM1127 0l33 224h-406l18 119l482 567h133l-82 -569h140l-17 -117h-141l-32 -224h-128zM897 341h278l57 397z" />
    <glyph glyph-name="onehalf" unicode="&#xbd;" horiz-adv-x="1663" 
d="M210 552l103 712h-163l11 84q116 0 164.5 29t60.5 85h91l-133 -910h-134zM256 -8l-131 2l1143 1468h130zM936 0l11 77l6 39q11 82 52 138t99 96t121 72t120 64.5t96 73.5t47 99q9 65 -28.5 106t-111.5 41q-79 0 -135.5 -47.5t-76.5 -130.5h-130q19 122 111.5 208
t251.5 86q136 0 206 -72.5t53 -190.5q-12 -81 -52.5 -136.5t-97 -93.5t-118.5 -68.5t-117.5 -61t-94 -70t-46.5 -97.5l-2 -15h455l-17 -117h-602z" />
    <glyph glyph-name="threequarters" unicode="&#xbe;" horiz-adv-x="1755" 
d="M384 544q-142 1 -216.5 76.5t-59.5 204.5h130q2 -82 46.5 -124.5t119.5 -42.5q91 0 151 43t70 112q10 76 -42.5 117t-137.5 43l-81 2l17 111l75 3q54 1 98.5 21.5t73.5 54t35 73.5q7 55 -35 94t-124 39q-45 0 -88 -18t-74.5 -55.5t-42.5 -99.5h-129q13 91 63.5 154
t126 95.5t161.5 32.5q93 0 160.5 -27t101 -79.5t22.5 -130.5q-10 -68 -57 -121t-136 -84q53 -16 90.5 -46.5t55.5 -75.5t9 -105q-12 -85 -66 -145t-136.5 -91.5t-180.5 -30.5zM496 -8l-131 2l1143 1468h130zM1367 0l33 224h-406l18 119l482 567h133l-82 -569h140l-17 -117
h-141l-32 -224h-128zM1137 341h278l57 397z" />
    <glyph glyph-name="questiondown" unicode="&#xbf;" horiz-adv-x="1015" 
d="M381 -342q-140 0 -231 45.5t-131 124t-27 177.5q14 98 61 163.5t109.5 115t125 98t109 111t59.5 155.5h176q-14 -108 -58.5 -182.5t-102 -128t-114.5 -100t-98.5 -98.5t-51.5 -124q-11 -88 44 -141.5t154 -53.5q58 0 118 25t110 68t77 98l178 -52q-79 -142 -211.5 -221.5
t-295.5 -79.5zM441 779l35 255h242l-35 -255h-242z" />
    <glyph glyph-name="Agrave" unicode="&#xc0;" horiz-adv-x="1378" 
d="M5 0l707 1446h230l286 -1446h-212l-72 379h-542l-185 -379h-212zM481 573h438l-121 663zM765 1567l-270 291h229l197 -291h-156z" />
    <glyph glyph-name="Aacute" unicode="&#xc1;" horiz-adv-x="1378" 
d="M5 0l707 1446h230l286 -1446h-212l-72 379h-542l-185 -379h-212zM481 573h438l-121 663zM750 1567l236 291h234l-308 -291h-162z" />
    <glyph glyph-name="Acircumflex" unicode="&#xc2;" horiz-adv-x="1378" 
d="M5 0l707 1446h230l286 -1446h-212l-72 379h-542l-185 -379h-212zM481 573h438l-121 663zM496 1567l259 234h148l224 -234h-185l-120 133l-152 -133h-174z" />
    <glyph glyph-name="Atilde" unicode="&#xc3;" horiz-adv-x="1378" 
d="M5 0l707 1446h230l286 -1446h-212l-72 379h-542l-185 -379h-212zM481 573h438l-121 663zM593 1627l-20 112q39 34 80 57.5t99 23.5q49 0 90 -14t80.5 -28.5t82.5 -14.5q44 0 80.5 18.5t68.5 41.5l14 -129q-29 -21 -75.5 -41t-107.5 -20q-52 0 -89.5 13t-73.5 26.5
t-81 13.5q-47 0 -79.5 -16.5t-68.5 -42.5z" />
    <glyph glyph-name="Adieresis" unicode="&#xc4;" horiz-adv-x="1378" 
d="M5 0l707 1446h230l286 -1446h-212l-72 379h-542l-185 -379h-212zM481 573h438l-121 663zM936 1663l29 195h206l-29 -195h-206zM571 1663l29 195h206l-29 -195h-206z" />
    <glyph glyph-name="Aring" unicode="&#xc5;" horiz-adv-x="1378" 
d="M5 0l707 1446h230l286 -1446h-212l-72 379h-542l-185 -379h-212zM481 573h438l-121 663zM844 1561q-83 0 -132 61.5t-36 151.5q8 56 42 101.5t83.5 73t104.5 27.5q83 0 132.5 -60t36.5 -146q-8 -59 -41.5 -106.5t-83.5 -75t-106 -27.5zM858 1662q42 0 75 32.5t40 74.5
q6 46 -18.5 75t-66.5 29q-40 0 -74 -29t-42 -75q-6 -42 19.5 -74.5t66.5 -32.5z" />
    <glyph glyph-name="AE" unicode="&#xc6;" horiz-adv-x="1907" 
d="M-73 0l963 1446h1012l-27 -183h-655l-64 -443h586l-27 -181h-586l-65 -455h677l-26 -184h-917l56 384h-463l-252 -384h-212zM501 573h380l105 724z" />
    <glyph glyph-name="Ccedilla" unicode="&#xc7;" horiz-adv-x="1354" 
d="M553 -415q-54 0 -101 12t-85 39l45 83q23 -19 54.5 -33.5t73.5 -14.5q50 0 77.5 18.5t32.5 51.5q7 43 -26 64t-116 23q-11 0 -14 3t3 12l94 167h103l-62 -120q67 -2 102.5 -25t47 -56.5t7.5 -67.5q-8 -50 -42.5 -85t-85.5 -53t-108 -18zM633 -20q-178 0 -295.5 81
t-170 234t-34.5 369q14 174 65.5 320.5t140.5 254.5t214.5 167.5t286.5 59.5q148 0 253.5 -62t161.5 -169.5t54 -243.5h-222q-3 82 -35 148.5t-92.5 105t-152.5 38.5q-104 0 -182.5 -47t-132.5 -132.5t-85.5 -199.5t-44.5 -248q-24 -253 51 -373t241 -120q92 0 163.5 41.5
t121.5 111t76 151.5h223q-25 -95 -74 -182.5t-123 -156.5t-175.5 -108.5t-232.5 -39.5z" />
    <glyph glyph-name="Egrave" unicode="&#xc8;" horiz-adv-x="1217" 
d="M110 0l211 1446h894l-29 -186h-682l-63 -439h607l-27 -183h-608l-65 -449l700 -1l-29 -188h-909zM686 1567l-270 291h229l197 -291h-156z" />
    <glyph glyph-name="Eacute" unicode="&#xc9;" horiz-adv-x="1217" 
d="M110 0l211 1446h894l-29 -186h-682l-63 -439h607l-27 -183h-608l-65 -449l700 -1l-29 -188h-909zM670 1567l236 291h234l-308 -291h-162z" />
    <glyph glyph-name="Ecircumflex" unicode="&#xca;" horiz-adv-x="1217" 
d="M110 0l211 1446h894l-29 -186h-682l-63 -439h607l-27 -183h-608l-65 -449l700 -1l-29 -188h-909zM450 1567l259 234h148l224 -234h-185l-120 133l-152 -133h-174z" />
    <glyph glyph-name="Edieresis" unicode="&#xcb;" horiz-adv-x="1217" 
d="M110 0l211 1446h894l-29 -186h-682l-63 -439h607l-27 -183h-608l-65 -449l700 -1l-29 -188h-909zM857 1663l29 195h206l-29 -195h-206zM492 1663l29 195h206l-29 -195h-206z" />
    <glyph glyph-name="Igrave" unicode="&#xcc;" horiz-adv-x="584" 
d="M111 0l209 1446h211l-209 -1446h-211zM365 1567l-270 291h229l197 -291h-156z" />
    <glyph glyph-name="Iacute" unicode="&#xcd;" horiz-adv-x="584" 
d="M111 0l209 1446h211l-209 -1446h-211zM349 1567l236 291h234l-308 -291h-162z" />
    <glyph glyph-name="Icircumflex" unicode="&#xce;" horiz-adv-x="584" 
d="M111 0l209 1446h211l-209 -1446h-211zM129 1567l259 234h148l224 -234h-185l-120 133l-152 -133h-174z" />
    <glyph glyph-name="Idieresis" unicode="&#xcf;" horiz-adv-x="584" 
d="M111 0l209 1446h211l-209 -1446h-211zM536 1663l29 195h206l-29 -195h-206zM171 1663l29 195h206l-29 -195h-206z" />
    <glyph glyph-name="Eth" unicode="&#xd0;" horiz-adv-x="1444" 
d="M94 637l17 166h712l-17 -166h-712zM193 0l205 1446q8 0 69.5 -0.5t137.5 -0.5q137 -1 256 -15.5t213.5 -50.5t162 -99t103.5 -159t36 -231q0 -100 -16 -204.5t-53 -204t-100 -186.5t-156 -153t-221 -104t-297 -38h-340zM434 180h118q156 0 270.5 53.5t189 149t110.5 223
t36 276.5q0 142 -51 226t-148 121t-234 37h-135z" />
    <glyph glyph-name="Ntilde" unicode="&#xd1;" horiz-adv-x="1483" 
d="M110 0l211 1446h204l540 -1078l155 1078h211l-212 -1446h-187l-552 1101l-159 -1101h-211zM641 1627l-20 112q39 34 80 57.5t99 23.5q49 0 90 -14t80.5 -28.5t82.5 -14.5q44 0 80.5 18.5t68.5 41.5l14 -129q-29 -21 -75.5 -41t-107.5 -20q-52 0 -89.5 13t-73.5 26.5
t-81 13.5q-47 0 -79.5 -16.5t-68.5 -42.5z" />
    <glyph glyph-name="Ograve" unicode="&#xd2;" horiz-adv-x="1432" 
d="M639 -20q-190 0 -314 87.5t-173.5 252t-15.5 398.5q34 236 133.5 403t249.5 256t336 89t309 -88.5t173 -255t16 -402.5q-34 -234 -132 -399.5t-246.5 -253t-335.5 -87.5zM667 163q118 0 210.5 58t155 180.5t90.5 315.5q29 196 1.5 321.5t-103 185t-193.5 59.5
q-177 0 -298 -136t-164 -430q-28 -192 0.5 -314.5t105 -181t195.5 -58.5zM783 1567l-270 291h229l197 -291h-156z" />
    <glyph glyph-name="Oacute" unicode="&#xd3;" horiz-adv-x="1432" 
d="M639 -20q-190 0 -314 87.5t-173.5 252t-15.5 398.5q34 236 133.5 403t249.5 256t336 89t309 -88.5t173 -255t16 -402.5q-34 -234 -132 -399.5t-246.5 -253t-335.5 -87.5zM667 163q118 0 210.5 58t155 180.5t90.5 315.5q29 196 1.5 321.5t-103 185t-193.5 59.5
q-177 0 -298 -136t-164 -430q-28 -192 0.5 -314.5t105 -181t195.5 -58.5zM767 1567l236 291h234l-308 -291h-162z" />
    <glyph glyph-name="Ocircumflex" unicode="&#xd4;" horiz-adv-x="1432" 
d="M639 -20q-190 0 -314 87.5t-173.5 252t-15.5 398.5q34 236 133.5 403t249.5 256t336 89t309 -88.5t173 -255t16 -402.5q-34 -234 -132 -399.5t-246.5 -253t-335.5 -87.5zM667 163q118 0 210.5 58t155 180.5t90.5 315.5q29 196 1.5 321.5t-103 185t-193.5 59.5
q-177 0 -298 -136t-164 -430q-28 -192 0.5 -314.5t105 -181t195.5 -58.5zM546 1567l259 234h148l224 -234h-185l-120 133l-152 -133h-174z" />
    <glyph glyph-name="Otilde" unicode="&#xd5;" horiz-adv-x="1432" 
d="M639 -20q-190 0 -314 87.5t-173.5 252t-15.5 398.5q34 236 133.5 403t249.5 256t336 89t309 -88.5t173 -255t16 -402.5q-34 -234 -132 -399.5t-246.5 -253t-335.5 -87.5zM667 163q118 0 210.5 58t155 180.5t90.5 315.5q29 196 1.5 321.5t-103 185t-193.5 59.5
q-177 0 -298 -136t-164 -430q-28 -192 0.5 -314.5t105 -181t195.5 -58.5zM610 1627l-20 112q39 34 80 57.5t99 23.5q49 0 90 -14t80.5 -28.5t82.5 -14.5q44 0 80.5 18.5t68.5 41.5l14 -129q-29 -21 -75.5 -41t-107.5 -20q-52 0 -89.5 13t-73.5 26.5t-81 13.5
q-47 0 -79.5 -16.5t-68.5 -42.5z" />
    <glyph glyph-name="Odieresis" unicode="&#xd6;" horiz-adv-x="1432" 
d="M639 -20q-190 0 -314 87.5t-173.5 252t-15.5 398.5q34 236 133.5 403t249.5 256t336 89t309 -88.5t173 -255t16 -402.5q-34 -234 -132 -399.5t-246.5 -253t-335.5 -87.5zM667 163q118 0 210.5 58t155 180.5t90.5 315.5q29 196 1.5 321.5t-103 185t-193.5 59.5
q-177 0 -298 -136t-164 -430q-28 -192 0.5 -314.5t105 -181t195.5 -58.5zM954 1663l29 195h206l-29 -195h-206zM589 1663l29 195h206l-29 -195h-206z" />
    <glyph glyph-name="multiply" unicode="&#xd7;" horiz-adv-x="1065" 
d="M201 300l-93 116l813 740l95 -115zM794 300l-597 739l128 115l600 -738z" />
    <glyph glyph-name="Oslash" unicode="&#xd8;" horiz-adv-x="1457" 
d="M80 -27l-89 107l187 183q-36 88 -45 202t11 253q34 236 133 403t248.5 256t336.5 89q129 0 227 -42.5t164 -125.5l179 173l88 -105l-194 -190q36 -88 45 -203t-11 -253q-33 -234 -131 -399.5t-247.5 -253t-335.5 -87.5q-129 0 -227 41.5t-164 120.5zM675 160
q161 0 263 113.5t145 351.5q19 96 25 185t-2 172l-683 -687q70 -135 252 -135zM397 457l685 688q-33 73 -94.5 108t-151.5 35q-166 0 -271 -121t-150 -371q-16 -93 -20.5 -178t2.5 -161z" />
    <glyph glyph-name="Ugrave" unicode="&#xd9;" horiz-adv-x="1371" 
d="M624 -20q-187 0 -292 64t-139 187t-8 300l132 915h216l-136 -942q-17 -114 8 -189t88 -112.5t158 -37.5q143 0 237.5 83t119.5 256l135 942h212l-134 -932q-25 -169 -95.5 -288.5t-194 -182.5t-307.5 -63zM775 1567l-270 291h229l197 -291h-156z" />
    <glyph glyph-name="Uacute" unicode="&#xda;" horiz-adv-x="1371" 
d="M624 -20q-187 0 -292 64t-139 187t-8 300l132 915h216l-136 -942q-17 -114 8 -189t88 -112.5t158 -37.5q143 0 237.5 83t119.5 256l135 942h212l-134 -932q-25 -169 -95.5 -288.5t-194 -182.5t-307.5 -63zM759 1567l236 291h234l-308 -291h-162z" />
    <glyph glyph-name="Ucircumflex" unicode="&#xdb;" horiz-adv-x="1371" 
d="M624 -20q-187 0 -292 64t-139 187t-8 300l132 915h216l-136 -942q-17 -114 8 -189t88 -112.5t158 -37.5q143 0 237.5 83t119.5 256l135 942h212l-134 -932q-25 -169 -95.5 -288.5t-194 -182.5t-307.5 -63zM538 1567l259 234h148l224 -234h-185l-120 133l-152 -133h-174z
" />
    <glyph glyph-name="Udieresis" unicode="&#xdc;" horiz-adv-x="1371" 
d="M624 -20q-187 0 -292 64t-139 187t-8 300l132 915h216l-136 -942q-17 -114 8 -189t88 -112.5t158 -37.5q143 0 237.5 83t119.5 256l135 942h212l-134 -932q-25 -169 -95.5 -288.5t-194 -182.5t-307.5 -63zM946 1663l29 195h206l-29 -195h-206zM581 1663l29 195h206
l-29 -195h-206z" />
    <glyph glyph-name="Yacute" unicode="&#xdd;" horiz-adv-x="1198" 
d="M416 0l87 614l-349 832h227l257 -643l438 643h230l-592 -833l-90 -613h-208zM643 1569l236 291h234l-308 -291h-162z" />
    <glyph glyph-name="Thorn" unicode="&#xde;" horiz-adv-x="1279" 
d="M110 0l204 1446h215l-41 -291h302q153 0 263.5 -44t164.5 -135t34 -230q-20 -145 -99.5 -239t-202 -140.5t-271.5 -46.5h-309l-45 -320h-215zM396 503h309q80 0 150 24.5t117.5 78t59.5 140.5q12 80 -21.5 130t-98.5 73t-148 23h-302z" />
    <glyph glyph-name="germandbls" unicode="&#xdf;" horiz-adv-x="1124" 
d="M590 -20q-70 0 -134 19t-106 50l86 138q32 -23 69 -41.5t95 -18.5q90 0 152 46t74 132q9 63 -15 100.5t-68.5 62t-99.5 46.5q-47 21 -88 48.5t-63.5 72.5t-13.5 115q12 75 56 124.5t119 95.5q38 25 73 50t60.5 57t32.5 79q8 64 -29.5 103.5t-120.5 39.5q-97 0 -167 -66
t-86 -189l-147 -1044h-196l141 1005q15 93 52 173t98.5 140.5t146 94t193.5 33.5q118 0 187.5 -38t96 -102t15.5 -142q-10 -75 -45 -124.5t-91 -85t-129 -69.5q-52 -27 -73.5 -44t-26.5 -47q-4 -30 13 -43.5t63 -30.5q53 -24 110 -53.5t104 -72.5t71 -107.5t11 -160.5
q-16 -113 -75.5 -190t-148.5 -116.5t-196 -39.5z" />
    <glyph glyph-name="agrave" unicode="&#xe0;" horiz-adv-x="1111" 
d="M354 -20q-96 0 -165 36t-101 104t-19 164q25 172 154 257t386 90l158 5l12 75q13 93 -36 142t-142 48q-76 0 -145.5 -40t-100.5 -123h-180q19 94 81.5 165.5t159.5 111t218 39.5q134 0 216 -41t114.5 -115t17.5 -175l-105 -723h-177l9 184q-73 -118 -162 -161t-193 -43z
M441 129q45 0 92.5 17.5t88 48t68.5 68.5t34 78l24 171l-130 -3q-99 -1 -172 -22t-117 -65t-55 -117q-11 -83 36 -129.5t131 -46.5zM573 1155l-270 291h229l197 -291h-156z" />
    <glyph glyph-name="aacute" unicode="&#xe1;" horiz-adv-x="1106" 
d="M349 -20q-96 0 -165 36t-101 104t-19 164q25 172 154 257t386 90l158 5l12 75q13 93 -36 142t-142 48q-76 0 -145.5 -40t-100.5 -123h-180q19 94 81.5 165.5t159.5 111t218 39.5q134 0 216 -41t114.5 -115t17.5 -175l-105 -723h-177l9 184q-73 -118 -162 -161t-193 -43z
M436 129q45 0 92.5 17.5t88 48t68.5 68.5t34 78l24 171l-130 -3q-99 -1 -172 -22t-117 -65t-55 -117q-11 -83 36 -129.5t131 -46.5zM555 1155l236 291h234l-308 -291h-162z" />
    <glyph glyph-name="acircumflex" unicode="&#xe2;" horiz-adv-x="1106" 
d="M349 -20q-96 0 -165 36t-101 104t-19 164q25 172 154 257t386 90l158 5l12 75q13 93 -36 142t-142 48q-76 0 -145.5 -40t-100.5 -123h-180q19 94 81.5 165.5t159.5 111t218 39.5q134 0 216 -41t114.5 -115t17.5 -175l-105 -723h-177l9 184q-73 -118 -162 -161t-193 -43z
M436 129q45 0 92.5 17.5t88 48t68.5 68.5t34 78l24 171l-130 -3q-99 -1 -172 -22t-117 -65t-55 -117q-11 -83 36 -129.5t131 -46.5zM323 1155l259 234h148l224 -234h-185l-120 133l-152 -133h-174z" />
    <glyph glyph-name="atilde" unicode="&#xe3;" horiz-adv-x="1106" 
d="M349 -20q-96 0 -165 36t-101 104t-19 164q25 172 154 257t386 90l158 5l12 75q13 93 -36 142t-142 48q-76 0 -145.5 -40t-100.5 -123h-180q19 94 81.5 165.5t159.5 111t218 39.5q134 0 216 -41t114.5 -115t17.5 -175l-105 -723h-177l9 184q-73 -118 -162 -161t-193 -43z
M436 129q45 0 92.5 17.5t88 48t68.5 68.5t34 78l24 171l-130 -3q-99 -1 -172 -22t-117 -65t-55 -117q-11 -83 36 -129.5t131 -46.5zM388 1215l-20 112q39 34 80 57.5t99 23.5q49 0 90 -14t80.5 -28.5t82.5 -14.5q44 0 80.5 18.5t68.5 41.5l14 -129q-29 -21 -75.5 -41
t-107.5 -20q-52 0 -89.5 13t-73.5 26.5t-81 13.5q-47 0 -79.5 -16.5t-68.5 -42.5z" />
    <glyph glyph-name="adieresis" unicode="&#xe4;" horiz-adv-x="1106" 
d="M349 -20q-96 0 -165 36t-101 104t-19 164q25 172 154 257t386 90l158 5l12 75q13 93 -36 142t-142 48q-76 0 -145.5 -40t-100.5 -123h-180q19 94 81.5 165.5t159.5 111t218 39.5q134 0 216 -41t114.5 -115t17.5 -175l-105 -723h-177l9 184q-73 -118 -162 -161t-193 -43z
M436 129q45 0 92.5 17.5t88 48t68.5 68.5t34 78l24 171l-130 -3q-99 -1 -172 -22t-117 -65t-55 -117q-11 -83 36 -129.5t131 -46.5zM727 1248l29 195h206l-29 -195h-206zM362 1248l29 195h206l-29 -195h-206z" />
    <glyph glyph-name="aring" unicode="&#xe5;" horiz-adv-x="1106" 
d="M832 1499l-76 -139q51 -21 77.5 -69.5t16.5 -112.5q-12 -87 -76.5 -142.5t-146.5 -55.5t-129 57t-34 145q9 71 60 122.5t117 63.5l49 131h142zM753 1176q7 45 -17.5 75t-66.5 30q-40 0 -74.5 -30t-41.5 -75q-6 -42 20 -75t66 -33q42 0 75 33t39 75zM349 -20
q-96 0 -165 36t-101 104t-19 164q25 172 154 257t386 90l158 5l12 75q13 93 -36 142t-142 48q-76 0 -145.5 -40t-100.5 -123h-180q19 94 81.5 165.5t159.5 111t218 39.5q134 0 216 -41t114.5 -115t17.5 -175l-105 -723h-177l9 184q-73 -118 -162 -161t-193 -43zM436 129
q45 0 92.5 17.5t88 48t68.5 68.5t34 78l24 171l-130 -3q-99 -1 -172 -22t-117 -65t-55 -117q-11 -83 36 -129.5t131 -46.5z" />
    <glyph glyph-name="ae" unicode="&#xe6;" horiz-adv-x="1764" 
d="M350 -20q-95 0 -164.5 36t-102 104t-19.5 164q24 172 153.5 257.5t386.5 89.5l161 5l10 75q13 93 -35 142t-143 48q-76 0 -144 -40t-99 -123h-182q19 94 81 165.5t158 111t217 39.5q128 0 210 -45t110 -126q65 82 155 126.5t199 44.5q144 0 233 -64t123 -179.5t11 -272.5
l-10 -71h-694q-13 -93 5 -166.5t70.5 -116t138.5 -42.5q87 0 157 42t102 125h193q-33 -106 -107 -180t-170 -111.5t-195 -37.5q-139 0 -236 64t-137 183q-31 -76 -95 -131.5t-151.5 -85.5t-189.5 -30zM438 129q77 0 139 37.5t102 93t48 109.5l20 143l-132 -3
q-100 -1 -173.5 -22t-117.5 -65t-54 -117q-12 -83 36 -129.5t132 -46.5zM985 606h495q12 81 -5.5 147.5t-66 105t-130.5 38.5q-84 0 -145.5 -43t-99.5 -110t-48 -138z" />
    <glyph glyph-name="ccedilla" unicode="&#xe7;" horiz-adv-x="1052" 
d="M396 -415q-54 0 -101 12t-85 39l45 83q23 -19 54.5 -33.5t73.5 -14.5q50 0 77.5 18.5t32.5 51.5q7 43 -26 64t-116 23q-11 0 -14 3t3 12l94 167h103l-62 -120q67 -2 102.5 -25t47 -56.5t7.5 -67.5q-8 -50 -42.5 -85t-85.5 -53t-108 -18zM472 -20q-135 0 -230 61.5
t-137 181t-17 290.5q23 161 95.5 283t186 190t258.5 68q112 0 192 -45.5t121.5 -126.5t37.5 -189h-182q0 51 -21.5 95t-64 70.5t-106.5 26.5q-118 0 -204.5 -91t-114.5 -279q-24 -172 30.5 -274t183.5 -102q65 0 115.5 28t84 72t47.5 91h178q-26 -104 -91 -183t-158.5 -123
t-203.5 -44z" />
    <glyph glyph-name="egrave" unicode="&#xe8;" horiz-adv-x="1099" 
d="M493 -20q-141 0 -238.5 63.5t-140 181.5t-18.5 281q23 161 95.5 284.5t185.5 193.5t259 70q144 0 233 -64t123 -179.5t11 -272.5l-10 -71h-693q-14 -93 4.5 -166.5t70.5 -116t139 -42.5t156.5 42t101.5 125h194q-33 -106 -107.5 -180t-170.5 -111.5t-195 -37.5zM319 606
h495q12 81 -5 147.5t-65.5 105t-131.5 38.5t-145 -43t-99.5 -110t-48.5 -138zM572 1155l-270 291h229l197 -291h-156z" />
    <glyph glyph-name="eacute" unicode="&#xe9;" horiz-adv-x="1099" 
d="M493 -20q-141 0 -238.5 63.5t-140 181.5t-18.5 281q23 161 95.5 284.5t185.5 193.5t259 70q144 0 233 -64t123 -179.5t11 -272.5l-10 -71h-693q-14 -93 4.5 -166.5t70.5 -116t139 -42.5t156.5 42t101.5 125h194q-33 -106 -107.5 -180t-170.5 -111.5t-195 -37.5zM319 606
h495q12 81 -5 147.5t-65.5 105t-131.5 38.5t-145 -43t-99.5 -110t-48.5 -138zM556 1155l236 291h234l-308 -291h-162z" />
    <glyph glyph-name="ecircumflex" unicode="&#xea;" horiz-adv-x="1099" 
d="M493 -20q-141 0 -238.5 63.5t-140 181.5t-18.5 281q23 161 95.5 284.5t185.5 193.5t259 70q144 0 233 -64t123 -179.5t11 -272.5l-10 -71h-693q-14 -93 4.5 -166.5t70.5 -116t139 -42.5t156.5 42t101.5 125h194q-33 -106 -107.5 -180t-170.5 -111.5t-195 -37.5zM319 606
h495q12 81 -5 147.5t-65.5 105t-131.5 38.5t-145 -43t-99.5 -110t-48.5 -138zM336 1155l259 234h148l224 -234h-185l-120 133l-152 -133h-174z" />
    <glyph glyph-name="edieresis" unicode="&#xeb;" horiz-adv-x="1099" 
d="M493 -20q-141 0 -238.5 63.5t-140 181.5t-18.5 281q23 161 95.5 284.5t185.5 193.5t259 70q144 0 233 -64t123 -179.5t11 -272.5l-10 -71h-693q-14 -93 4.5 -166.5t70.5 -116t139 -42.5t156.5 42t101.5 125h194q-33 -106 -107.5 -180t-170.5 -111.5t-195 -37.5zM319 606
h495q12 81 -5 147.5t-65.5 105t-131.5 38.5t-145 -43t-99.5 -110t-48.5 -138zM743 1251l29 195h206l-29 -195h-206zM378 1251l29 195h206l-29 -195h-206z" />
    <glyph glyph-name="igrave" unicode="&#xec;" horiz-adv-x="506" 
d="M73 0l150 1034h211l-151 -1034h-210zM262 1155l-184 291h215l122 -290z" />
    <glyph glyph-name="iacute" unicode="&#xed;" horiz-adv-x="506" 
d="M73 0l150 1034h211l-151 -1034h-210zM422 1155l-160 1l175 290h225z" />
    <glyph glyph-name="icircumflex" unicode="&#xee;" horiz-adv-x="506" 
d="M73 0l150 1034h211l-151 -1034h-210zM32 1155l259 234h148l224 -234h-185l-120 133l-152 -133h-174z" />
    <glyph glyph-name="idieresis" unicode="&#xef;" horiz-adv-x="506" 
d="M73 0l150 1034h211l-151 -1034h-210zM439 1251l29 195h206l-29 -195h-206zM74 1251l29 195h206l-29 -195h-206z" />
    <glyph glyph-name="eth" unicode="&#xf0;" horiz-adv-x="1102" 
d="M489 -20q-128 0 -219.5 55.5t-139.5 155t-48 231.5q0 94 27.5 200.5t88.5 200.5t161.5 154t245.5 60q148 0 225 -80.5t95 -224.5l-128 157q-12 120 -61.5 225.5t-118.5 197.5t-142 168h183q105 -83 188 -200.5t131.5 -267.5t48.5 -331q0 -123 -28.5 -246.5t-91.5 -226.5
t-165.5 -165.5t-251.5 -62.5zM509 145q88 0 146.5 46.5t93.5 119t49.5 153.5t14.5 148q0 130 -55 197.5t-159 67.5q-87 0 -146 -44.5t-94 -114.5t-50.5 -148t-15.5 -147q0 -123 52 -200.5t164 -77.5zM403 1130l-18 104l671 194l16 -105z" />
    <glyph glyph-name="ntilde" unicode="&#xf1;" horiz-adv-x="1129" 
d="M73 0l151 1034h203l-19 -141q34 42 79 77t105.5 56t138.5 21q94 0 166 -42.5t107.5 -124t18.5 -198.5l-100 -682h-210l96 660q16 103 -32.5 158.5t-134.5 55.5q-60 0 -116.5 -21t-95.5 -62t-47 -103l-101 -688h-209zM425 1215l-20 112q39 34 80 57.5t99 23.5q49 0 90 -14
t80.5 -28.5t82.5 -14.5q44 0 80.5 18.5t68.5 41.5l14 -129q-29 -21 -75.5 -41t-107.5 -20q-52 0 -89.5 13t-73.5 26.5t-81 13.5q-47 0 -79.5 -16.5t-68.5 -42.5z" />
    <glyph glyph-name="ograve" unicode="&#xf2;" horiz-adv-x="1097" 
d="M474 -20q-139 0 -234 62.5t-135.5 181.5t-16.5 288q22 163 93.5 285t184.5 189.5t259 67.5q140 0 234 -63.5t133.5 -185t15.5 -293.5q-22 -157 -92 -277t-181.5 -187.5t-260.5 -67.5zM500 145q83 0 145 46.5t102 131t55 195.5q14 103 0.5 187.5t-62 134.5t-139.5 50
q-85 0 -148 -45.5t-102.5 -129t-54.5 -197.5q-14 -101 -0.5 -186t63 -136t141.5 -51zM542 1155l-270 291h229l197 -291h-156z" />
    <glyph glyph-name="oacute" unicode="&#xf3;" horiz-adv-x="1097" 
d="M474 -20q-139 0 -234 62.5t-135.5 181.5t-16.5 288q22 163 93.5 285t184.5 189.5t259 67.5q140 0 234 -63.5t133.5 -185t15.5 -293.5q-22 -157 -92 -277t-181.5 -187.5t-260.5 -67.5zM500 145q83 0 145 46.5t102 131t55 195.5q14 103 0.5 187.5t-62 134.5t-139.5 50
q-85 0 -148 -45.5t-102.5 -129t-54.5 -197.5q-14 -101 -0.5 -186t63 -136t141.5 -51zM526 1155l236 291h234l-308 -291h-162z" />
    <glyph glyph-name="ocircumflex" unicode="&#xf4;" horiz-adv-x="1097" 
d="M474 -20q-139 0 -234 62.5t-135.5 181.5t-16.5 288q22 163 93.5 285t184.5 189.5t259 67.5q140 0 234 -63.5t133.5 -185t15.5 -293.5q-22 -157 -92 -277t-181.5 -187.5t-260.5 -67.5zM500 145q83 0 145 46.5t102 131t55 195.5q14 103 0.5 187.5t-62 134.5t-139.5 50
q-85 0 -148 -45.5t-102.5 -129t-54.5 -197.5q-14 -101 -0.5 -186t63 -136t141.5 -51zM306 1155l259 234h148l224 -234h-185l-120 133l-152 -133h-174z" />
    <glyph glyph-name="otilde" unicode="&#xf5;" horiz-adv-x="1097" 
d="M474 -20q-139 0 -234 62.5t-135.5 181.5t-16.5 288q22 163 93.5 285t184.5 189.5t259 67.5q140 0 234 -63.5t133.5 -185t15.5 -293.5q-22 -157 -92 -277t-181.5 -187.5t-260.5 -67.5zM500 145q83 0 145 46.5t102 131t55 195.5q14 103 0.5 187.5t-62 134.5t-139.5 50
q-85 0 -148 -45.5t-102.5 -129t-54.5 -197.5q-14 -101 -0.5 -186t63 -136t141.5 -51zM370 1215l-20 112q39 34 80 57.5t99 23.5q49 0 90 -14t80.5 -28.5t82.5 -14.5q44 0 80.5 18.5t68.5 41.5l14 -129q-29 -21 -75.5 -41t-107.5 -20q-52 0 -89.5 13t-73.5 26.5t-81 13.5
q-47 0 -79.5 -16.5t-68.5 -42.5z" />
    <glyph glyph-name="odieresis" unicode="&#xf6;" horiz-adv-x="1097" 
d="M474 -20q-139 0 -234 62.5t-135.5 181.5t-16.5 288q22 163 93.5 285t184.5 189.5t259 67.5q140 0 234 -63.5t133.5 -185t15.5 -293.5q-22 -157 -92 -277t-181.5 -187.5t-260.5 -67.5zM500 145q83 0 145 46.5t102 131t55 195.5q14 103 0.5 187.5t-62 134.5t-139.5 50
q-85 0 -148 -45.5t-102.5 -129t-54.5 -197.5q-14 -101 -0.5 -186t63 -136t141.5 -51zM713 1251l29 195h206l-29 -195h-206zM348 1251l29 195h206l-29 -195h-206z" />
    <glyph glyph-name="divide" unicode="&#xf7;" horiz-adv-x="1092" 
d="M139 645l24 163l848 1l-24 -163zM383 243l36 242h243l-34 -242h-245zM491 970l34 242h245l-36 -242h-243z" />
    <glyph glyph-name="oslash" unicode="&#xf8;" horiz-adv-x="1078" 
d="M62 -12l-81 85l1010 970l80 -85zM439 -20q-139 0 -234 62.5t-135.5 181.5t-16.5 288q23 163 94 285t184.5 189.5t258.5 67.5q140 0 234 -63.5t133.5 -185t15.5 -293.5q-22 -157 -92 -277t-181.5 -187.5t-260.5 -67.5zM465 145q83 0 145.5 46.5t102.5 131t54 195.5
q14 103 0.5 187.5t-62 134.5t-139.5 50q-85 0 -148 -45.5t-102.5 -129t-54.5 -197.5q-14 -101 0 -186t63 -136t141 -51z" />
    <glyph glyph-name="ugrave" unicode="&#xf9;" horiz-adv-x="1137" 
d="M434 -20q-74 1 -139 23t-112 66t-69 109t-10 151l98 705h212l-96 -682q-13 -93 33.5 -151t156.5 -58q101 0 169 55.5t83 162.5l95 673h210l-146 -1034h-163l5 200q-29 -81 -81 -129.5t-116 -70t-130 -20.5zM572 1155l-270 291h229l197 -291h-156z" />
    <glyph glyph-name="uacute" unicode="&#xfa;" horiz-adv-x="1137" 
d="M434 -20q-74 1 -139 23t-112 66t-69 109t-10 151l98 705h212l-96 -682q-13 -93 33.5 -151t156.5 -58q101 0 169 55.5t83 162.5l95 673h210l-146 -1034h-163l5 200q-29 -81 -81 -129.5t-116 -70t-130 -20.5zM556 1155l236 291h234l-308 -291h-162z" />
    <glyph glyph-name="ucircumflex" unicode="&#xfb;" horiz-adv-x="1137" 
d="M434 -20q-74 1 -139 23t-112 66t-69 109t-10 151l98 705h212l-96 -682q-13 -93 33.5 -151t156.5 -58q101 0 169 55.5t83 162.5l95 673h210l-146 -1034h-163l5 200q-29 -81 -81 -129.5t-116 -70t-130 -20.5zM336 1155l259 234h148l224 -234h-185l-120 133l-152 -133h-174z
" />
    <glyph glyph-name="udieresis" unicode="&#xfc;" horiz-adv-x="1137" 
d="M434 -20q-74 1 -139 23t-112 66t-69 109t-10 151l98 705h212l-96 -682q-13 -93 33.5 -151t156.5 -58q101 0 169 55.5t83 162.5l95 673h210l-146 -1034h-163l5 200q-29 -81 -81 -129.5t-116 -70t-130 -20.5zM743 1251l29 195h206l-29 -195h-206zM378 1251l29 195h206
l-29 -195h-206z" />
    <glyph glyph-name="yacute" unicode="&#xfd;" horiz-adv-x="1042" 
d="M131 -330q-91 0 -124.5 14l-33.5 14l20 138l101 -2q77 -4 120 14t64.5 45t33.5 50l41 87l-238 1004h210l162 -764l382 764h205l-567 -1092q-58 -108 -118 -167t-123.5 -82t-134.5 -23zM514 1155l236 291h234l-308 -291h-162z" />
    <glyph glyph-name="thorn" unicode="&#xfe;" horiz-adv-x="1151" 
d="M28 -322l256 1768h210l-79 -551q30 30 74 67.5t106.5 64.5t148.5 27q112 0 193.5 -57.5t117 -174t9.5 -293.5q-25 -180 -96 -302t-173.5 -184.5t-223.5 -62.5q-81 0 -141 27t-102 72q-17 17 -23 14.5t-10 -26.5l-57 -389h-210zM524 125q80 0 146.5 44t113.5 133.5
t67 227.5q20 136 -3 219.5t-76.5 121t-126.5 37.5q-67 0 -123 -30.5t-91.5 -76.5t-43.5 -92l-66 -467q40 -52 88 -84.5t115 -32.5z" />
    <glyph glyph-name="ydieresis" unicode="&#xff;" horiz-adv-x="1042" 
d="M131 -330q-91 0 -124.5 14l-33.5 14l20 138l101 -2q77 -4 120 14t64.5 45t33.5 50l41 87l-238 1004h210l162 -764l382 764h205l-567 -1092q-58 -108 -118 -167t-123.5 -82t-134.5 -23zM701 1251l29 195h206l-29 -195h-206zM336 1251l29 195h206l-29 -195h-206z" />
    <glyph glyph-name="Amacron" unicode="&#x100;" horiz-adv-x="1378" 
d="M5 0l707 1446h230l286 -1446h-212l-72 379h-542l-185 -379h-212zM481 573h438l-121 663zM559 1639l21 146h603l-22 -146h-602z" />
    <glyph glyph-name="amacron" unicode="&#x101;" horiz-adv-x="1106" 
d="M349 -20q-96 0 -165 36t-101 104t-19 164q25 172 154 257t386 90l158 5l12 75q13 93 -36 142t-142 48q-76 0 -145.5 -40t-100.5 -123h-180q19 94 81.5 165.5t159.5 111t218 39.5q134 0 216 -41t114.5 -115t17.5 -175l-105 -723h-177l9 184q-73 -118 -162 -161t-193 -43z
M436 129q45 0 92.5 17.5t88 48t68.5 68.5t34 78l24 171l-130 -3q-99 -1 -172 -22t-117 -65t-55 -117q-11 -83 36 -129.5t131 -46.5zM352 1227l21 146h603l-22 -146h-602z" />
    <glyph glyph-name="Abreve" unicode="&#x102;" horiz-adv-x="1378" 
d="M5 0l707 1446h230l286 -1446h-212l-72 379h-542l-185 -379h-212zM481 573h438l-121 663zM842 1567q-77 0 -134.5 29.5t-91.5 80.5t-42 117h142q9 -22 25.5 -46.5t45 -41.5t73.5 -17q65 0 108 33.5t71 71.5h143q-28 -62 -77 -113.5t-116 -82.5t-147 -31z" />
    <glyph glyph-name="abreve" unicode="&#x103;" horiz-adv-x="1106" 
d="M349 -20q-96 0 -165 36t-101 104t-19 164q25 172 154 257t386 90l158 5l12 75q13 93 -36 142t-142 48q-76 0 -145.5 -40t-100.5 -123h-180q19 94 81.5 165.5t159.5 111t218 39.5q134 0 216 -41t114.5 -115t17.5 -175l-105 -723h-177l9 184q-73 -118 -162 -161t-193 -43z
M436 129q45 0 92.5 17.5t88 48t68.5 68.5t34 78l24 171l-130 -3q-99 -1 -172 -22t-117 -65t-55 -117q-11 -83 36 -129.5t131 -46.5zM635 1153q-77 0 -134.5 29.5t-91.5 80.5t-42 117h142q9 -22 25.5 -46.5t45 -41.5t73.5 -17q65 0 108 33.5t71 71.5h143q-28 -62 -77 -113.5
t-116 -82.5t-147 -31z" />
    <glyph glyph-name="Aogonek" unicode="&#x104;" horiz-adv-x="1378" 
d="M5 0l707 1446h230l286 -1446h-212l-72 379h-542l-185 -379h-212zM481 573h438l-121 663zM1026 -337q-95 0 -139 42t-33 118q8 58 54 105.5t164 85.5l150 -10q-105 -42 -151 -77.5t-54 -82.5q-3 -35 13 -53t59 -18q46 0 82.5 13t60.5 26l-16 -106q-27 -16 -79 -29.5
t-111 -13.5z" />
    <glyph glyph-name="aogonek" unicode="&#x105;" horiz-adv-x="1078" 
d="M349 -20q-96 0 -165 36t-101 104t-19 164q25 172 154 257t386 90l158 5l12 75q13 93 -36 142t-142 48q-76 0 -145.5 -40t-100.5 -123h-180q19 94 81.5 165.5t159.5 111t218 39.5q134 0 216 -41t114.5 -115t17.5 -175l-105 -723h-177l9 184q-73 -118 -162 -161t-193 -43z
M436 129q45 0 92.5 17.5t88 48t68.5 68.5t34 78l24 171l-130 -3q-99 -1 -172 -22t-117 -65t-55 -117q-11 -83 36 -129.5t131 -46.5zM665 -331q-95 0 -139 42t-33 118q8 58 54 105.5t164 85.5l150 -10q-105 -42 -151 -77.5t-54 -82.5q-3 -35 13 -53t59 -18q46 0 82.5 13
t60.5 26l-16 -106q-27 -16 -79 -29.5t-111 -13.5z" />
    <glyph glyph-name="Cacute" unicode="&#x106;" horiz-adv-x="1354" 
d="M633 -20q-178 0 -295.5 81t-170 234t-34.5 369q14 174 65.5 320.5t140.5 254.5t214.5 167.5t286.5 59.5q148 0 253.5 -62t161.5 -169.5t54 -243.5h-222q-3 82 -35 148.5t-92.5 105t-152.5 38.5q-104 0 -182.5 -47t-132.5 -132.5t-85.5 -199.5t-44.5 -248
q-24 -253 51 -373t241 -120q92 0 163.5 41.5t121.5 111t76 151.5h223q-25 -95 -74 -182.5t-123 -156.5t-175.5 -108.5t-232.5 -39.5zM759 1567l236 291h234l-308 -291h-162z" />
    <glyph glyph-name="cacute" unicode="&#x107;" horiz-adv-x="1042" 
d="M472 -20q-135 0 -230 61.5t-137 181t-17 290.5q23 161 95.5 283t186 190t258.5 68q112 0 192 -45.5t121.5 -126.5t37.5 -189h-182q0 51 -21.5 95t-64 70.5t-106.5 26.5q-118 0 -204.5 -91t-114.5 -279q-24 -172 30.5 -274t183.5 -102q65 0 115.5 28t84 72t47.5 91h178
q-26 -104 -91 -183t-158.5 -123t-203.5 -44zM538 1155l236 291h234l-308 -291h-162z" />
    <glyph glyph-name="Ccircumflex" unicode="&#x108;" horiz-adv-x="1354" 
d="M633 -20q-178 0 -295.5 81t-170 234t-34.5 369q14 174 65.5 320.5t140.5 254.5t214.5 167.5t286.5 59.5q148 0 253.5 -62t161.5 -169.5t54 -243.5h-222q-3 82 -35 148.5t-92.5 105t-152.5 38.5q-104 0 -182.5 -47t-132.5 -132.5t-85.5 -199.5t-44.5 -248
q-24 -253 51 -373t241 -120q92 0 163.5 41.5t121.5 111t76 151.5h223q-25 -95 -74 -182.5t-123 -156.5t-175.5 -108.5t-232.5 -39.5zM538 1567l259 234h148l224 -234h-185l-120 133l-152 -133h-174z" />
    <glyph glyph-name="ccircumflex" unicode="&#x109;" horiz-adv-x="1052" 
d="M472 -20q-135 0 -230 61.5t-137 181t-17 290.5q23 161 95.5 283t186 190t258.5 68q112 0 192 -45.5t121.5 -126.5t37.5 -189h-182q0 51 -21.5 95t-64 70.5t-106.5 26.5q-118 0 -204.5 -91t-114.5 -279q-24 -172 30.5 -274t183.5 -102q65 0 115.5 28t84 72t47.5 91h178
q-26 -104 -91 -183t-158.5 -123t-203.5 -44zM326 1155l259 234h148l224 -234h-185l-120 133l-152 -133h-174z" />
    <glyph glyph-name="Cdotaccent" unicode="&#x10a;" horiz-adv-x="1354" 
d="M633 -20q-178 0 -295.5 81t-170 234t-34.5 369q14 174 65.5 320.5t140.5 254.5t214.5 167.5t286.5 59.5q148 0 253.5 -62t161.5 -169.5t54 -243.5h-222q-3 82 -35 148.5t-92.5 105t-152.5 38.5q-104 0 -182.5 -47t-132.5 -132.5t-85.5 -199.5t-44.5 -248
q-24 -253 51 -373t241 -120q92 0 163.5 41.5t121.5 111t76 151.5h223q-25 -95 -74 -182.5t-123 -156.5t-175.5 -108.5t-232.5 -39.5zM765 1663l28 195h206l-28 -195h-206z" />
    <glyph glyph-name="cdotaccent" unicode="&#x10b;" horiz-adv-x="1052" 
d="M472 -20q-135 0 -230 61.5t-137 181t-17 290.5q23 161 95.5 283t186 190t258.5 68q112 0 192 -45.5t121.5 -126.5t37.5 -189h-182q0 51 -21.5 95t-64 70.5t-106.5 26.5q-118 0 -204.5 -91t-114.5 -279q-24 -172 30.5 -274t183.5 -102q65 0 115.5 28t84 72t47.5 91h178
q-26 -104 -91 -183t-158.5 -123t-203.5 -44zM552 1251l28 195h206l-28 -195h-206z" />
    <glyph glyph-name="Ccaron" unicode="&#x10c;" horiz-adv-x="1354" 
d="M633 -20q-178 0 -295.5 81t-170 234t-34.5 369q14 174 65.5 320.5t140.5 254.5t214.5 167.5t286.5 59.5q148 0 253.5 -62t161.5 -169.5t54 -243.5h-222q-3 82 -35 148.5t-92.5 105t-152.5 38.5q-104 0 -182.5 -47t-132.5 -132.5t-85.5 -199.5t-44.5 -248
q-24 -253 51 -373t241 -120q92 0 163.5 41.5t121.5 111t76 151.5h223q-25 -95 -74 -182.5t-123 -156.5t-175.5 -108.5t-232.5 -39.5zM777 1566l-210 236h175l123 -140l151 140h183l-272 -236h-150z" />
    <glyph glyph-name="ccaron" unicode="&#x10d;" horiz-adv-x="1052" 
d="M472 -20q-135 0 -230 61.5t-137 181t-17 290.5q23 161 95.5 283t186 190t258.5 68q112 0 192 -45.5t121.5 -126.5t37.5 -189h-182q0 51 -21.5 95t-64 70.5t-106.5 26.5q-118 0 -204.5 -91t-114.5 -279q-24 -172 30.5 -274t183.5 -102q65 0 115.5 28t84 72t47.5 91h178
q-26 -104 -91 -183t-158.5 -123t-203.5 -44zM565 1154l-210 236h175l123 -140l151 140h183l-272 -236h-150z" />
    <glyph glyph-name="Dcaron" unicode="&#x10e;" horiz-adv-x="1363" 
d="M112 0l205 1446q8 0 69 -0.5t138 -0.5q137 -1 255.5 -15.5t213.5 -50.5t162.5 -99t103.5 -159t36 -231q0 -100 -16 -204.5t-53.5 -204t-100 -186.5t-156 -153t-221 -104t-296.5 -38h-340zM352 180h118q157 0 271.5 53.5t188.5 149t110 223t36 276.5q0 142 -51 226
t-147.5 121t-234.5 37h-134zM850 1566l-210 236h175l123 -140l151 140h183l-272 -236h-150z" />
    <glyph glyph-name="dcaron" unicode="&#x10f;" horiz-adv-x="1144" 
d="M435 -20q-195 0 -288 139.5t-58 402.5q32 242 153.5 387t319.5 145q65 0 115 -17t85.5 -44t58.5 -58t33 -58l82 609h213l-201 -1486h-157l5 212q-15 -34 -42.5 -74t-70.5 -76t-104 -59t-144 -23zM498 141q136 0 208.5 90.5t101.5 297.5q14 117 -1.5 198t-65.5 122.5
t-139 41.5q-112 0 -195 -85.5t-108 -276.5q-25 -188 26.5 -288t172.5 -100zM1184 1085l101 189l-54 10l29 202h159l-30 -212l-105 -189h-100z" />
    <glyph glyph-name="Dcroat" unicode="&#x110;" horiz-adv-x="1444" 
d="M94 637l17 166h712l-17 -166h-712zM193 0l205 1446q8 0 69.5 -0.5t137.5 -0.5q137 -1 256 -15.5t213.5 -50.5t162 -99t103.5 -159t36 -231q0 -100 -16 -204.5t-53 -204t-100 -186.5t-156 -153t-221 -104t-297 -38h-340zM434 180h118q156 0 270.5 53.5t189 149t110.5 223
t36 276.5q0 142 -51 226t-148 121t-234 37h-135z" />
    <glyph glyph-name="dcroat" unicode="&#x111;" horiz-adv-x="1182" 
d="M582 1183l12 129h633l-12 -129h-633zM435 -20q-195 0 -288 139.5t-58 402.5q32 242 153.5 387t319.5 145q65 0 115 -17t85.5 -44t58.5 -58t33 -58l82 609h213l-201 -1486h-157l5 212q-15 -34 -42.5 -74t-70.5 -76t-104 -59t-144 -23zM498 141q136 0 208.5 90.5
t101.5 297.5q14 117 -1.5 198t-65.5 122.5t-139 41.5q-112 0 -195 -85.5t-108 -276.5q-25 -188 26.5 -288t172.5 -100z" />
    <glyph glyph-name="Emacron" unicode="&#x112;" horiz-adv-x="1217" 
d="M110 0l211 1446h894l-29 -186h-682l-63 -439h607l-27 -183h-608l-65 -449l700 -1l-29 -188h-909zM479 1639l21 146h603l-22 -146h-602z" />
    <glyph glyph-name="emacron" unicode="&#x113;" horiz-adv-x="1099" 
d="M493 -20q-141 0 -238.5 63.5t-140 181.5t-18.5 281q23 161 95.5 284.5t185.5 193.5t259 70q144 0 233 -64t123 -179.5t11 -272.5l-10 -71h-693q-14 -93 4.5 -166.5t70.5 -116t139 -42.5t156.5 42t101.5 125h194q-33 -106 -107.5 -180t-170.5 -111.5t-195 -37.5zM319 606
h495q12 81 -5 147.5t-65.5 105t-131.5 38.5t-145 -43t-99.5 -110t-48.5 -138zM366 1227l21 146h603l-22 -146h-602z" />
    <glyph glyph-name="Ebreve" unicode="&#x114;" horiz-adv-x="1217" 
d="M110 0l211 1446h894l-29 -186h-682l-63 -439h607l-27 -183h-608l-65 -449l700 -1l-29 -188h-909zM763 1567q-77 0 -134.5 29.5t-91.5 80.5t-42 117h142q9 -22 25.5 -46.5t45 -41.5t73.5 -17q65 0 108 33.5t71 71.5h143q-28 -62 -77 -113.5t-116 -82.5t-147 -31z" />
    <glyph glyph-name="ebreve" unicode="&#x115;" horiz-adv-x="1099" 
d="M493 -20q-141 0 -238.5 63.5t-140 181.5t-18.5 281q23 161 95.5 284.5t185.5 193.5t259 70q144 0 233 -64t123 -179.5t11 -272.5l-10 -71h-693q-14 -93 4.5 -166.5t70.5 -116t139 -42.5t156.5 42t101.5 125h194q-33 -106 -107.5 -180t-170.5 -111.5t-195 -37.5zM319 606
h495q12 81 -5 147.5t-65.5 105t-131.5 38.5t-145 -43t-99.5 -110t-48.5 -138zM649 1155q-77 0 -134.5 29.5t-91.5 80.5t-42 117h142q9 -22 25.5 -46.5t45 -41.5t73.5 -17q65 0 108 33.5t71 71.5h143q-28 -62 -77 -113.5t-116 -82.5t-147 -31z" />
    <glyph glyph-name="Edotaccent" unicode="&#x116;" horiz-adv-x="1217" 
d="M110 0l211 1446h894l-29 -186h-682l-63 -439h607l-27 -183h-608l-65 -449l700 -1l-29 -188h-909zM676 1663l28 195h206l-28 -195h-206z" />
    <glyph glyph-name="edotaccent" unicode="&#x117;" horiz-adv-x="1099" 
d="M493 -20q-141 0 -238.5 63.5t-140 181.5t-18.5 281q23 161 95.5 284.5t185.5 193.5t259 70q144 0 233 -64t123 -179.5t11 -272.5l-10 -71h-693q-14 -93 4.5 -166.5t70.5 -116t139 -42.5t156.5 42t101.5 125h194q-33 -106 -107.5 -180t-170.5 -111.5t-195 -37.5zM319 606
h495q12 81 -5 147.5t-65.5 105t-131.5 38.5t-145 -43t-99.5 -110t-48.5 -138zM562 1251l28 195h206l-28 -195h-206z" />
    <glyph glyph-name="Eogonek" unicode="&#x118;" horiz-adv-x="1217" 
d="M110 0l211 1446h894l-29 -186h-682l-63 -439h607l-27 -183h-608l-65 -449l700 -1l-29 -188h-909zM823 -335q-95 0 -139 42t-33 118q8 58 54 105.5t164 85.5l150 -10q-105 -42 -151 -77.5t-54 -82.5q-3 -35 13 -53t59 -18q46 0 82.5 13t60.5 26l-16 -106
q-27 -16 -79 -29.5t-111 -13.5z" />
    <glyph glyph-name="eogonek" unicode="&#x119;" horiz-adv-x="1099" 
d="M636 1054q144 0 233 -63.5t123 -179.5t11 -273l-10 -71h-693q-14 -93 4.5 -166.5t70.5 -116t139 -42.5t156.5 42t101.5 125h194q-33 -105 -99.5 -173t-157.5 -110q-85 -38 -133.5 -75t-55.5 -83q-4 -35 12.5 -53t58.5 -18q46 0 82.5 13t60.5 26l-16 -107
q-26 -15 -78.5 -28.5t-111.5 -13.5q-95 0 -139 42t-33 118q5 38 34 74t65 61q-129 8 -218 73t-127 180t-14 271q23 161 95.5 284.5t185.5 193.5t259 70zM319 606h495q12 81 -5 147.5t-65.5 105t-131.5 38.5t-145 -43t-99.5 -110t-48.5 -138z" />
    <glyph glyph-name="Ecaron" unicode="&#x11a;" horiz-adv-x="1217" 
d="M110 0l211 1446h894l-29 -186h-682l-63 -439h607l-27 -183h-608l-65 -449l700 -1l-29 -188h-909zM689 1566l-210 236h175l123 -140l151 140h183l-272 -236h-150z" />
    <glyph glyph-name="ecaron" unicode="&#x11b;" horiz-adv-x="1089" 
d="M493 -20q-141 0 -238.5 63.5t-140 181.5t-18.5 281q23 161 95.5 284.5t185.5 193.5t259 70q144 0 233 -64t123 -179.5t11 -272.5l-10 -71h-693q-14 -93 4.5 -166.5t70.5 -116t139 -42.5t156.5 42t101.5 125h194q-33 -106 -107.5 -180t-170.5 -111.5t-195 -37.5zM319 606
h495q12 81 -5 147.5t-65.5 105t-131.5 38.5t-145 -43t-99.5 -110t-48.5 -138zM571 1154l-210 236h175l123 -140l151 140h183l-272 -236h-150z" />
    <glyph glyph-name="Gcircumflex" unicode="&#x11c;" horiz-adv-x="1434" 
d="M627 -20q-185 0 -306.5 88t-170 253.5t-14.5 397.5q35 234 134 401.5t248.5 256.5t335.5 89q147 0 255 -67.5t164 -176t44 -231.5h-222q-2 77 -35.5 142.5t-94 105.5t-144.5 40q-111 0 -204 -58t-159 -180.5t-95 -316.5q-21 -151 -7 -257t58 -171t109.5 -94.5
t145.5 -29.5q78 0 141.5 29t110.5 75t76.5 99.5t39.5 103.5l25 117h-320l23 154l539 -2l-109 -748h-152l30 212q-45 -59 -107 -112t-145.5 -86.5t-193.5 -33.5zM538 1567l259 234h148l224 -234h-185l-120 133l-152 -133h-174z" />
    <glyph glyph-name="gcircumflex" unicode="&#x11d;" horiz-adv-x="1200" 
d="M464 -342q-247 0 -372 73.5t-108 203.5q8 53 37.5 90t67.5 61t69.5 38.5t42.5 21.5q-13 9 -36.5 25t-41 44.5t-11.5 72.5q7 47 56.5 87t147.5 61q-82 46 -122 126t-27 171q13 95 73.5 166.5t163 111t242.5 39.5q101 0 163.5 -24t110.5 -64q21 9 58 23.5t80 32t82.5 33.5
t64.5 26l-23 -188l-179 -38q21 -67 12 -136q-12 -88 -68 -161.5t-154.5 -117t-238.5 -43.5q-16 0 -38 1t-33 1q-91 0 -127.5 -16t-38.5 -39q0 -29 39.5 -42t127.5 -20q38 -3 92.5 -5.5t117.5 -7.5q166 -11 244 -88.5t61 -204.5q-19 -139 -152 -226.5t-383 -87.5zM502 -211
q133 0 206.5 42.5t84.5 124.5q7 54 -29 88.5t-121 39.5l-259 18q-39 2 -81.5 -18.5t-73 -57t-36.5 -82.5q-10 -74 65 -114.5t244 -40.5zM563 524q101 0 170.5 53t82.5 152q13 95 -37.5 145.5t-146.5 50.5q-101 0 -172 -57t-85 -158q-12 -88 37 -137t151 -49zM367 1155
l259 234h148l224 -234h-185l-120 133l-152 -133h-174z" />
    <glyph glyph-name="Gbreve" unicode="&#x11e;" horiz-adv-x="1434" 
d="M627 -20q-185 0 -306.5 88t-170 253.5t-14.5 397.5q35 234 134 401.5t248.5 256.5t335.5 89q147 0 255 -67.5t164 -176t44 -231.5h-222q-2 77 -35.5 142.5t-94 105.5t-144.5 40q-111 0 -204 -58t-159 -180.5t-95 -316.5q-21 -151 -7 -257t58 -171t109.5 -94.5
t145.5 -29.5q78 0 141.5 29t110.5 75t76.5 99.5t39.5 103.5l25 117h-320l23 154l539 -2l-109 -748h-152l30 212q-45 -59 -107 -112t-145.5 -86.5t-193.5 -33.5zM851 1567q-77 0 -134.5 29.5t-91.5 80.5t-42 117h142q9 -22 25.5 -46.5t45 -41.5t73.5 -17q65 0 108 33.5
t71 71.5h143q-28 -62 -77 -113.5t-116 -82.5t-147 -31z" />
    <glyph glyph-name="gbreve" unicode="&#x11f;" horiz-adv-x="1200" 
d="M464 -342q-247 0 -372 73.5t-108 203.5q8 53 37.5 90t67.5 61t69.5 38.5t42.5 21.5q-13 9 -36.5 25t-41 44.5t-11.5 72.5q7 47 56.5 87t147.5 61q-82 46 -122 126t-27 171q13 95 73.5 166.5t163 111t242.5 39.5q101 0 163.5 -24t110.5 -64q21 9 58 23.5t80 32t82.5 33.5
t64.5 26l-23 -188l-179 -38q21 -67 12 -136q-12 -88 -68 -161.5t-154.5 -117t-238.5 -43.5q-16 0 -38 1t-33 1q-91 0 -127.5 -16t-38.5 -39q0 -29 39.5 -42t127.5 -20q38 -3 92.5 -5.5t117.5 -7.5q166 -11 244 -88.5t61 -204.5q-19 -139 -152 -226.5t-383 -87.5zM502 -211
q133 0 206.5 42.5t84.5 124.5q7 54 -29 88.5t-121 39.5l-259 18q-39 2 -81.5 -18.5t-73 -57t-36.5 -82.5q-10 -74 65 -114.5t244 -40.5zM563 524q101 0 170.5 53t82.5 152q13 95 -37.5 145.5t-146.5 50.5q-101 0 -172 -57t-85 -158q-12 -88 37 -137t151 -49zM680 1155
q-77 0 -134.5 29.5t-91.5 80.5t-42 117h142q9 -22 25.5 -46.5t45 -41.5t73.5 -17q65 0 108 33.5t71 71.5h143q-28 -62 -77 -113.5t-116 -82.5t-147 -31z" />
    <glyph glyph-name="Gdotaccent" unicode="&#x120;" horiz-adv-x="1434" 
d="M627 -20q-185 0 -306.5 88t-170 253.5t-14.5 397.5q35 234 134 401.5t248.5 256.5t335.5 89q147 0 255 -67.5t164 -176t44 -231.5h-222q-2 77 -35.5 142.5t-94 105.5t-144.5 40q-111 0 -204 -58t-159 -180.5t-95 -316.5q-21 -151 -7 -257t58 -171t109.5 -94.5
t145.5 -29.5q78 0 141.5 29t110.5 75t76.5 99.5t39.5 103.5l25 117h-320l23 154l539 -2l-109 -748h-152l30 212q-45 -59 -107 -112t-145.5 -86.5t-193.5 -33.5zM765 1663l28 195h206l-28 -195h-206z" />
    <glyph glyph-name="gdotaccent" unicode="&#x121;" horiz-adv-x="1200" 
d="M464 -342q-247 0 -372 73.5t-108 203.5q8 53 37.5 90t67.5 61t69.5 38.5t42.5 21.5q-13 9 -36.5 25t-41 44.5t-11.5 72.5q7 47 56.5 87t147.5 61q-82 46 -122 126t-27 171q13 95 73.5 166.5t163 111t242.5 39.5q101 0 163.5 -24t110.5 -64q21 9 58 23.5t80 32t82.5 33.5
t64.5 26l-23 -188l-179 -38q21 -67 12 -136q-12 -88 -68 -161.5t-154.5 -117t-238.5 -43.5q-16 0 -38 1t-33 1q-91 0 -127.5 -16t-38.5 -39q0 -29 39.5 -42t127.5 -20q38 -3 92.5 -5.5t117.5 -7.5q166 -11 244 -88.5t61 -204.5q-19 -139 -152 -226.5t-383 -87.5zM502 -211
q133 0 206.5 42.5t84.5 124.5q7 54 -29 88.5t-121 39.5l-259 18q-39 2 -81.5 -18.5t-73 -57t-36.5 -82.5q-10 -74 65 -114.5t244 -40.5zM563 524q101 0 170.5 53t82.5 152q13 95 -37.5 145.5t-146.5 50.5q-101 0 -172 -57t-85 -158q-12 -88 37 -137t151 -49zM594 1251
l28 195h206l-28 -195h-206z" />
    <glyph glyph-name="uni0122" unicode="&#x122;" horiz-adv-x="1434" 
d="M627 -20q-185 0 -306.5 88t-170 253.5t-14.5 397.5q35 234 134 401.5t248.5 256.5t335.5 89q147 0 255 -67.5t164 -176t44 -231.5h-222q-2 77 -35.5 142.5t-94 105.5t-144.5 40q-111 0 -204 -58t-159 -180.5t-95 -316.5q-21 -151 -7 -257t58 -171t109.5 -94.5
t145.5 -29.5q78 0 141.5 29t110.5 75t76.5 99.5t39.5 103.5l25 117h-320l23 154l539 -2l-109 -748h-152l30 212q-45 -59 -107 -112t-145.5 -86.5t-193.5 -33.5zM449 -397l99 131l-64 7l23 163h199l-20 -137l-156 -164h-81z" />
    <glyph glyph-name="uni0123" unicode="&#x123;" horiz-adv-x="1200" 
d="M464 -342q-247 0 -372 73.5t-108 203.5q8 53 37.5 90t67.5 61t69.5 38.5t42.5 21.5q-13 9 -36.5 25t-41 44.5t-11.5 72.5q7 47 56.5 87t147.5 61q-82 46 -122 126t-27 171q13 95 73.5 166.5t163 111t242.5 39.5q101 0 163.5 -24t110.5 -64q21 9 58 23.5t80 32t82.5 33.5
t64.5 26l-23 -188l-179 -38q21 -67 12 -136q-12 -88 -68 -161.5t-154.5 -117t-238.5 -43.5q-16 0 -38 1t-33 1q-91 0 -127.5 -16t-38.5 -39q0 -29 39.5 -42t127.5 -20q38 -3 92.5 -5.5t117.5 -7.5q166 -11 244 -88.5t61 -204.5q-19 -139 -152 -226.5t-383 -87.5zM502 -211
q133 0 206.5 42.5t84.5 124.5q7 54 -29 88.5t-121 39.5l-259 18q-39 2 -81.5 -18.5t-73 -57t-36.5 -82.5q-10 -74 65 -114.5t244 -40.5zM563 524q101 0 170.5 53t82.5 152q13 95 -37.5 145.5t-146.5 50.5q-101 0 -172 -57t-85 -158q-12 -88 37 -137t151 -49zM592 1155
l27 190l118 147h92l-117 -158h79l-26 -179h-173z" />
    <glyph glyph-name="Hcircumflex" unicode="&#x124;" horiz-adv-x="1489" 
d="M110 0l204 1446h211l-86 -606h702l85 606h211l-204 -1446h-210l92 654h-702l-92 -654h-211zM585 1567l259 234h148l224 -234h-185l-120 133l-152 -133h-174z" />
    <glyph glyph-name="hcircumflex" unicode="&#x125;" horiz-adv-x="1140" 
d="M81 0l207 1486h208l-83 -595q45 62 124 108t197 46q96 0 169 -39t109.5 -109t23.5 -163l-102 -734h-211l97 697q12 83 -38.5 130t-138.5 47q-61 0 -116 -21.5t-93.5 -63t-46.5 -103.5l-96 -686h-210zM97 1567l259 234h148l224 -234h-185l-120 133l-152 -133h-174z" />
    <glyph glyph-name="Hbar" unicode="&#x126;" horiz-adv-x="1573" 
d="M112 1108l20 132h1514l-20 -132h-1514zM164 0l204 1446h211l-86 -606h702l85 606h211l-204 -1446h-210l92 654h-702l-92 -654h-211z" />
    <glyph glyph-name="hbar" unicode="&#x127;" horiz-adv-x="1240" 
d="M135 1183l17 129h633l-17 -129h-633zM181 0l207 1486h208l-83 -595q45 62 124 108t197 46q96 0 169 -39t109.5 -109t23.5 -163l-102 -734h-211l97 697q12 83 -38.5 130t-138.5 47q-61 0 -116 -21.5t-93.5 -63t-46.5 -103.5l-96 -686h-210z" />
    <glyph glyph-name="Itilde" unicode="&#x128;" horiz-adv-x="584" 
d="M111 0l209 1446h211l-209 -1446h-211zM193 1627l-20 112q39 34 80 57.5t99 23.5q49 0 90 -14t80.5 -28.5t82.5 -14.5q44 0 80.5 18.5t68.5 41.5l14 -129q-29 -21 -75.5 -41t-107.5 -20q-52 0 -89.5 13t-73.5 26.5t-81 13.5q-47 0 -79.5 -16.5t-68.5 -42.5z" />
    <glyph glyph-name="itilde" unicode="&#x129;" horiz-adv-x="506" 
d="M73 0l150 1034h211l-151 -1034h-210zM96 1215l-20 112q39 34 80 57.5t99 23.5q49 0 90 -14t80.5 -28.5t82.5 -14.5q44 0 80.5 18.5t68.5 41.5l14 -129q-29 -21 -75.5 -41t-107.5 -20q-52 0 -89.5 13t-73.5 26.5t-81 13.5q-47 0 -79.5 -16.5t-68.5 -42.5z" />
    <glyph glyph-name="Imacron" unicode="&#x12a;" horiz-adv-x="584" 
d="M111 0l209 1446h211l-209 -1446h-211zM159 1639l21 146h603l-22 -146h-602z" />
    <glyph glyph-name="imacron" unicode="&#x12b;" horiz-adv-x="506" 
d="M73 0l150 1034h211l-151 -1034h-210zM62 1227l21 146h603l-22 -146h-602z" />
    <glyph glyph-name="Ibreve" unicode="&#x12c;" horiz-adv-x="584" 
d="M111 0l209 1446h211l-209 -1446h-211zM442 1567q-77 0 -134.5 29.5t-91.5 80.5t-42 117h142q9 -22 25.5 -46.5t45 -41.5t73.5 -17q65 0 108 33.5t71 71.5h143q-28 -62 -77 -113.5t-116 -82.5t-147 -31z" />
    <glyph glyph-name="ibreve" unicode="&#x12d;" horiz-adv-x="506" 
d="M73 0l150 1034h211l-151 -1034h-210zM345 1155q-77 0 -134.5 29.5t-91.5 80.5t-42 117h142q9 -22 25.5 -46.5t45 -41.5t73.5 -17q65 0 108 33.5t71 71.5h143q-28 -62 -77 -113.5t-116 -82.5t-147 -31z" />
    <glyph glyph-name="Iogonek" unicode="&#x12e;" horiz-adv-x="584" 
d="M111 0l209 1446h211l-209 -1446h-211zM124 -340q-95 0 -139 42t-33 118q8 58 54 105.5t164 85.5l150 -10q-105 -42 -151 -77.5t-54 -82.5q-3 -35 13 -53t59 -18q46 0 82.5 13t60.5 26l-16 -106q-27 -16 -79 -29.5t-111 -13.5z" />
    <glyph glyph-name="iogonek" unicode="&#x12f;" horiz-adv-x="502" 
d="M77 0l146 1034h202l-145 -1034h-203zM247 1235l29 211h211l-29 -211h-211zM82 -333q-95 0 -139 42t-33 118q8 58 54 105.5t164 85.5l150 -10q-105 -42 -151 -77.5t-54 -82.5q-3 -35 13 -53t59 -18q46 0 82.5 13t60.5 26l-16 -106q-27 -16 -79 -29.5t-111 -13.5z" />
    <glyph glyph-name="Idotaccent" unicode="&#x130;" horiz-adv-x="584" 
d="M111 0l209 1446h211l-209 -1446h-211zM355 1663l28 195h206l-28 -195h-206z" />
    <glyph glyph-name="dotlessi" unicode="&#x131;" horiz-adv-x="506" 
d="M73 0l150 1034h211l-151 -1034h-210z" />
    <glyph glyph-name="Jcircumflex" unicode="&#x134;" horiz-adv-x="770" 
d="M230 -20q-70 0 -134 16t-88 25l40 202q28 -10 63.5 -24.5t88.5 -14.5q94 0 136.5 54t59.5 179l150 1029h209l-158 -1088q-18 -122 -56.5 -206.5t-112.5 -128t-198 -43.5zM347 1567l259 234h148l224 -234h-185l-120 133l-152 -133h-174z" />
    <glyph glyph-name="jcircumflex" unicode="&#x135;" horiz-adv-x="513" 
d="M-38 -332q-79 0 -100 9t-21 16l21 143l92 6q65 6 95.5 36t39.5 96l154 1060h209l-154 -1066q-22 -151 -99.5 -225.5t-236.5 -74.5zM43 1155l259 234h148l224 -234h-185l-120 133l-152 -133h-174z" />
    <glyph glyph-name="uni0136" unicode="&#x136;" horiz-adv-x="1340" 
d="M110 0l211 1446h218l-104 -725l684 725h245l-525 -562l360 -884h-234l-304 725l-268 -281l-64 -444h-219zM421 -397l99 131l-64 7l23 163h199l-20 -137l-156 -164h-81z" />
    <glyph glyph-name="uni0137" unicode="&#x137;" horiz-adv-x="1097" 
d="M72 0l216 1486h210l-136 -945l501 493h234l-415 -399l283 -635h-216l-221 499l-202 -193l-44 -306h-210zM302 -397l99 131l-64 7l23 163h199l-20 -137l-156 -164h-81z" />
    <glyph glyph-name="kgreenlandic" unicode="&#x138;" horiz-adv-x="1120" 
d="M72 0l152 1034h209l-73 -511l529 511h222l-386 -358l267 -676h-242l-192 518l-232 -212l-43 -306h-211z" />
    <glyph glyph-name="Lacute" unicode="&#x139;" horiz-adv-x="1120" 
d="M110 0l211 1446h213l-182 -1258h633l-28 -188h-847zM346 1567l236 291h234l-308 -291h-162z" />
    <glyph glyph-name="lacute" unicode="&#x13a;" horiz-adv-x="618" 
d="M340 -14q-89 0 -139.5 24t-72 64.5t-23.5 92t5 106.5l177 1213h208l-174 -1191q-10 -72 11.5 -110t77.5 -43l50 -2l-19 -136q-27 -8 -53.5 -13t-47.5 -5zM319 1648l236 291h234l-308 -291h-162z" />
    <glyph glyph-name="uni013B" unicode="&#x13b;" horiz-adv-x="1120" 
d="M110 0l211 1446h213l-182 -1258h633l-28 -188h-847zM352 -397l99 131l-64 7l23 163h199l-20 -137l-156 -164h-81z" />
    <glyph glyph-name="uni013C" unicode="&#x13c;" horiz-adv-x="608" 
d="M340 -14q-89 0 -139.5 24t-72 64.5t-23.5 92t5 106.5l177 1213h208l-174 -1191q-10 -72 11.5 -110t77.5 -43l50 -2l-19 -136q-27 -8 -53.5 -13t-47.5 -5zM13 -396l99 131l-64 7l23 163h199l-20 -137l-156 -164h-81z" />
    <glyph glyph-name="Lcaron" unicode="&#x13d;" horiz-adv-x="1120" 
d="M110 0l211 1446h213l-182 -1258h633l-28 -188h-847zM791 1045l101 189l-54 10l29 202h159l-30 -212l-105 -189h-100z" />
    <glyph glyph-name="lcaron" unicode="&#x13e;" horiz-adv-x="608" 
d="M340 -14q-89 0 -139.5 24t-72 64.5t-23.5 92t5 106.5l177 1213h208l-174 -1191q-10 -72 11.5 -110t77.5 -43l50 -2l-19 -136q-27 -8 -53.5 -13t-47.5 -5zM544 1085l101 189l-54 10l29 202h159l-30 -212l-105 -189h-100z" />
    <glyph glyph-name="Ldot" unicode="&#x13f;" horiz-adv-x="1160" 
d="M110 0l211 1446h213l-182 -1258h633l-28 -188h-847zM784 673l36 239h239l-36 -239h-239z" />
    <glyph glyph-name="ldot" unicode="&#x140;" horiz-adv-x="752" 
d="M340 -14q-89 0 -139.5 24t-72 64.5t-23.5 92t5 106.5l177 1213h208l-174 -1191q-10 -72 11.5 -110t77.5 -43l50 -2l-19 -136q-27 -8 -53.5 -13t-47.5 -5zM522 673l36 239h239l-36 -239h-239z" />
    <glyph glyph-name="Lslash" unicode="&#x141;" horiz-adv-x="1169" 
d="M70 592v182l705 184v-173zM158 0l212 1446h213l-183 -1258h634l-28 -188h-848z" />
    <glyph glyph-name="lslash" unicode="&#x142;" horiz-adv-x="763" 
d="M74 351v192l623 444v-182zM454 -14q-89 0 -139.5 24t-72 64.5t-23.5 92t5 106.5l177 1213h207l-174 -1191q-10 -72 12 -110t78 -43l50 -2l-20 -136q-26 -8 -53 -13t-47 -5z" />
    <glyph glyph-name="Nacute" unicode="&#x143;" horiz-adv-x="1483" 
d="M110 0l211 1446h204l540 -1078l155 1078h211l-212 -1446h-187l-552 1101l-159 -1101h-211zM798 1567l236 291h234l-308 -291h-162z" />
    <glyph glyph-name="nacute" unicode="&#x144;" horiz-adv-x="1129" 
d="M73 0l151 1034h203l-19 -141q34 42 79 77t105.5 56t138.5 21q94 0 166 -42.5t107.5 -124t18.5 -198.5l-100 -682h-210l96 660q16 103 -32.5 158.5t-134.5 55.5q-60 0 -116.5 -21t-95.5 -62t-47 -103l-101 -688h-209zM581 1155l236 291h234l-308 -291h-162z" />
    <glyph glyph-name="uni0145" unicode="&#x145;" horiz-adv-x="1483" 
d="M110 0l211 1446h204l540 -1078l155 1078h211l-212 -1446h-187l-552 1101l-159 -1101h-211zM467 -397l99 131l-64 7l23 163h199l-20 -137l-156 -164h-81z" />
    <glyph glyph-name="uni0146" unicode="&#x146;" horiz-adv-x="1129" 
d="M73 0l151 1034h203l-19 -141q34 42 79 77t105.5 56t138.5 21q94 0 166 -42.5t107.5 -124t18.5 -198.5l-100 -682h-210l96 660q16 103 -32.5 158.5t-134.5 55.5q-60 0 -116.5 -21t-95.5 -62t-47 -103l-101 -688h-209zM327 -397l99 131l-64 7l23 163h199l-20 -137
l-156 -164h-81z" />
    <glyph glyph-name="Ncaron" unicode="&#x147;" horiz-adv-x="1483" 
d="M110 0l211 1446h204l540 -1078l155 1078h211l-212 -1446h-187l-552 1101l-159 -1101h-211zM816 1566l-210 236h175l123 -140l151 140h183l-272 -236h-150z" />
    <glyph glyph-name="ncaron" unicode="&#x148;" horiz-adv-x="1129" 
d="M73 0l151 1034h203l-19 -141q34 42 79 77t105.5 56t138.5 21q94 0 166 -42.5t107.5 -124t18.5 -198.5l-100 -682h-210l96 660q16 103 -32.5 158.5t-134.5 55.5q-60 0 -116.5 -21t-95.5 -62t-47 -103l-101 -688h-209zM600 1154l-210 236h175l123 -140l151 140h183
l-272 -236h-150z" />
    <glyph glyph-name="Eng" unicode="&#x14a;" horiz-adv-x="1483" 
d="M837 -480q-70 0 -133.5 16t-87.5 25l38 198q26 -10 65 -22.5t88 -12.5q87 0 131.5 46.5t61.5 158.5l15 103l-535 1069l-159 -1101h-211l211 1446h204l540 -1078l155 1078h211l-226 -1547q-19 -130 -60 -214t-115 -124.5t-193 -40.5z" />
    <glyph glyph-name="eng" unicode="&#x14b;" horiz-adv-x="1109" 
d="M571 -332q-74 0 -91 7.5t-16 14.5l21 145l76 3q59 5 89.5 35t39.5 98l103 736q12 83 -20 134t-123 51q-66 0 -135 -39t-139 -108l-104 -745h-200l150 1034h189l-22 -159q73 63 133 102t116 58t114 19q134 0 199.5 -82.5t45.5 -217.5l-109 -774q-13 -98 -55.5 -168
t-108.5 -107t-153 -37z" />
    <glyph glyph-name="Omacron" unicode="&#x14c;" horiz-adv-x="1432" 
d="M639 -20q-190 0 -314 87.5t-173.5 252t-15.5 398.5q34 236 133.5 403t249.5 256t336 89t309 -88.5t173 -255t16 -402.5q-34 -234 -132 -399.5t-246.5 -253t-335.5 -87.5zM667 163q118 0 210.5 58t155 180.5t90.5 315.5q29 196 1.5 321.5t-103 185t-193.5 59.5
q-177 0 -298 -136t-164 -430q-28 -192 0.5 -314.5t105 -181t195.5 -58.5zM576 1639l21 146h603l-22 -146h-602z" />
    <glyph glyph-name="omacron" unicode="&#x14d;" horiz-adv-x="1097" 
d="M474 -20q-139 0 -234 62.5t-135.5 181.5t-16.5 288q22 163 93.5 285t184.5 189.5t259 67.5q140 0 234 -63.5t133.5 -185t15.5 -293.5q-22 -157 -92 -277t-181.5 -187.5t-260.5 -67.5zM500 145q83 0 145 46.5t102 131t55 195.5q14 103 0.5 187.5t-62 134.5t-139.5 50
q-85 0 -148 -45.5t-102.5 -129t-54.5 -197.5q-14 -101 -0.5 -186t63 -136t141.5 -51zM335 1227l21 146h603l-22 -146h-602z" />
    <glyph glyph-name="Obreve" unicode="&#x14e;" horiz-adv-x="1432" 
d="M639 -20q-190 0 -314 87.5t-173.5 252t-15.5 398.5q34 236 133.5 403t249.5 256t336 89t309 -88.5t173 -255t16 -402.5q-34 -234 -132 -399.5t-246.5 -253t-335.5 -87.5zM667 163q118 0 210.5 58t155 180.5t90.5 315.5q29 196 1.5 321.5t-103 185t-193.5 59.5
q-177 0 -298 -136t-164 -430q-28 -192 0.5 -314.5t105 -181t195.5 -58.5zM860 1567q-77 0 -134.5 29.5t-91.5 80.5t-42 117h142q9 -22 25.5 -46.5t45 -41.5t73.5 -17q65 0 108 33.5t71 71.5h143q-28 -62 -77 -113.5t-116 -82.5t-147 -31z" />
    <glyph glyph-name="obreve" unicode="&#x14f;" horiz-adv-x="1097" 
d="M474 -20q-139 0 -234 62.5t-135.5 181.5t-16.5 288q22 163 93.5 285t184.5 189.5t259 67.5q140 0 234 -63.5t133.5 -185t15.5 -293.5q-22 -157 -92 -277t-181.5 -187.5t-260.5 -67.5zM500 145q83 0 145 46.5t102 131t55 195.5q14 103 0.5 187.5t-62 134.5t-139.5 50
q-85 0 -148 -45.5t-102.5 -129t-54.5 -197.5q-14 -101 -0.5 -186t63 -136t141.5 -51zM619 1155q-77 0 -134.5 29.5t-91.5 80.5t-42 117h142q9 -22 25.5 -46.5t45 -41.5t73.5 -17q65 0 108 33.5t71 71.5h143q-28 -62 -77 -113.5t-116 -82.5t-147 -31z" />
    <glyph glyph-name="Ohungarumlaut" unicode="&#x150;" horiz-adv-x="1432" 
d="M639 -20q-190 0 -314 87.5t-173.5 252t-15.5 398.5q34 236 133.5 403t249.5 256t336 89t309 -88.5t173 -255t16 -402.5q-34 -234 -132 -399.5t-246.5 -253t-335.5 -87.5zM667 163q118 0 210.5 58t155 180.5t90.5 315.5q29 196 1.5 321.5t-103 185t-193.5 59.5
q-177 0 -298 -136t-164 -430q-28 -192 0.5 -314.5t105 -181t195.5 -58.5zM925 1567l191 291h210l-246 -291h-155zM635 1567l150 291h205l-201 -291h-154z" />
    <glyph glyph-name="ohungarumlaut" unicode="&#x151;" horiz-adv-x="1048" 
d="M474 -20q-139 0 -234 62.5t-135.5 181.5t-16.5 288q22 163 93.5 285t184.5 189.5t259 67.5q140 0 234 -63.5t133.5 -185t15.5 -293.5q-22 -157 -92 -277t-181.5 -187.5t-260.5 -67.5zM500 145q83 0 145 46.5t102 131t55 195.5q14 103 0.5 187.5t-62 134.5t-139.5 50
q-85 0 -148 -45.5t-102.5 -129t-54.5 -197.5q-14 -101 -0.5 -186t63 -136t141.5 -51zM676 1155l191 291h210l-246 -291h-155zM386 1155l150 291h205l-201 -291h-154z" />
    <glyph glyph-name="OE" unicode="&#x152;" horiz-adv-x="2151" 
d="M2150 1446l-29 -186h-682l-63 -439h607l-27 -183h-608l-65 -449l700 -1l-29 -188h-909l28 201q-80 -108 -190 -164.5t-244 -56.5q-190 0 -314 87.5t-173.5 252t-15.5 398.5q34 236 133.5 403t249.5 256t336 89q134 0 228.5 -57t143.5 -167l29 204h894zM667 163
q118 0 210.5 58t155 180.5t90.5 315.5q29 196 1.5 321.5t-103 185t-193.5 59.5q-177 0 -298 -136t-164 -430q-28 -192 0.5 -314.5t105 -181t195.5 -58.5z" />
    <glyph glyph-name="oe" unicode="&#x153;" horiz-adv-x="1812" 
d="M1349 1054q144 0 233 -63.5t123 -179.5t11 -273l-10 -71h-693q-14 -93 4.5 -166.5t70.5 -116t138 -42.5q88 0 157.5 42t101.5 125h194q-33 -106 -107.5 -180t-170.5 -111.5t-195 -37.5q-123 0 -211.5 53.5t-131.5 155.5q-65 -98 -162.5 -153.5t-226.5 -55.5
q-139 0 -234 62.5t-135.5 181.5t-16.5 288q22 163 93.5 285t184.5 189.5t259 67.5q122 0 208 -54t125 -162q68 103 167 159.5t224 56.5zM500 145q83 0 145 46.5t102 131t55 195.5q14 103 0.5 187.5t-62 134.5t-139.5 50q-85 0 -148 -45.5t-102.5 -129t-54.5 -197.5
q-14 -101 -0.5 -186t63 -136t141.5 -51zM1032 606h495q12 81 -5 147.5t-65.5 105t-131.5 38.5t-145 -43t-99.5 -110t-48.5 -138z" />
    <glyph glyph-name="Racute" unicode="&#x154;" horiz-adv-x="1321" 
d="M110 0l210 1446h549q154 0 248.5 -49.5t131 -140.5t18.5 -215q-17 -117 -66 -195t-115.5 -127t-135.5 -77l172 -642h-219l-155 605h-340l-88 -605h-210zM433 778h286q93 0 164 29t114 85.5t55 138.5q17 120 -45 182t-182 62h-320zM704 1567l236 291h234l-308 -291h-162z
" />
    <glyph glyph-name="racute" unicode="&#x155;" horiz-adv-x="763" 
d="M72 0l146 1034h202l-30 -212q35 76 87 127.5t115 78t131 26.5q19 0 36.5 -2.5t26.5 -8.5l-29 -206q-11 6 -30 8t-32 3q-88 6 -157 -16.5t-112 -75t-55 -134.5l-87 -622h-212zM433 1155l236 291h234l-308 -291h-162z" />
    <glyph glyph-name="uni0156" unicode="&#x156;" horiz-adv-x="1321" 
d="M110 0l210 1446h549q154 0 248.5 -49.5t131 -140.5t18.5 -215q-17 -117 -66 -195t-115.5 -127t-135.5 -77l172 -642h-219l-155 605h-340l-88 -605h-210zM433 778h286q93 0 164 29t114 85.5t55 138.5q17 120 -45 182t-182 62h-320zM415 -397l99 131l-64 7l23 163h199
l-20 -137l-156 -164h-81z" />
    <glyph glyph-name="uni0157" unicode="&#x157;" horiz-adv-x="768" 
d="M72 0l146 1034h202l-30 -212q35 76 87 127.5t115 78t131 26.5q19 0 36.5 -2.5t26.5 -8.5l-29 -206q-11 6 -30 8t-32 3q-88 6 -157 -16.5t-112 -75t-55 -134.5l-87 -622h-212zM-3 -397l99 131l-64 7l23 163h199l-20 -137l-156 -164h-81z" />
    <glyph glyph-name="Rcaron" unicode="&#x158;" horiz-adv-x="1321" 
d="M110 0l210 1446h549q154 0 248.5 -49.5t131 -140.5t18.5 -215q-17 -117 -66 -195t-115.5 -127t-135.5 -77l172 -642h-219l-155 605h-340l-88 -605h-210zM433 778h286q93 0 164 29t114 85.5t55 138.5q17 120 -45 182t-182 62h-320zM723 1566l-210 236h175l123 -140
l151 140h183l-272 -236h-150z" />
    <glyph glyph-name="rcaron" unicode="&#x159;" horiz-adv-x="768" 
d="M72 0l146 1034h202l-30 -212q35 76 87 127.5t115 78t131 26.5q19 0 36.5 -2.5t26.5 -8.5l-29 -206q-11 6 -30 8t-32 3q-88 6 -157 -16.5t-112 -75t-55 -134.5l-87 -622h-212zM408 1154l-210 236h175l123 -140l151 140h183l-272 -236h-150z" />
    <glyph glyph-name="Sacute" unicode="&#x15a;" horiz-adv-x="1329" 
d="M598 -20q-100 0 -191.5 25.5t-162 76.5t-110 128.5t-37.5 181.5h222q5 -78 45.5 -131t107 -80t150.5 -27q91 0 167.5 26.5t126 76t58.5 119.5q9 63 -14.5 107t-73 73.5t-121.5 46.5l-253 62q-152 34 -228 126.5t-56 245.5q17 128 97 224t203 149.5t270 53.5
q161 0 268 -61.5t158 -159t41 -203.5h-218q4 92 -31.5 146t-98.5 77.5t-143 23.5q-77 0 -146 -26.5t-115.5 -77.5t-56.5 -124q-10 -74 31.5 -120t164.5 -79l247 -61q109 -24 171.5 -70.5t91 -105.5t33 -122.5t-3.5 -121.5q-15 -112 -92.5 -202.5t-205.5 -143.5t-295 -53z
M719 1567l236 291h234l-308 -291h-162z" />
    <glyph glyph-name="sacute" unicode="&#x15b;" horiz-adv-x="1008" 
d="M438 -20q-104 0 -190 34t-137 107t-51 187h188q4 -59 33.5 -97.5t76 -57t101.5 -18.5q93 0 155.5 35.5t72.5 109.5q8 53 -19 85t-92 47l-188 49q-120 30 -185 95.5t-49 183.5q13 91 66.5 162t146 111.5t221.5 40.5q168 0 260 -78t75 -226h-182q0 71 -46 111.5t-130 40.5
q-88 0 -148.5 -36.5t-70.5 -111.5q-7 -51 29.5 -80.5t115.5 -48.5l180 -49q70 -20 113 -52.5t64.5 -71.5t26.5 -81t-1 -79q-13 -98 -70.5 -167.5t-150.5 -107t-215 -37.5zM531 1155l236 291h234l-308 -291h-162z" />
    <glyph glyph-name="Scircumflex" unicode="&#x15c;" horiz-adv-x="1329" 
d="M598 -20q-100 0 -191.5 25.5t-162 76.5t-110 128.5t-37.5 181.5h222q5 -78 45.5 -131t107 -80t150.5 -27q91 0 167.5 26.5t126 76t58.5 119.5q9 63 -14.5 107t-73 73.5t-121.5 46.5l-253 62q-152 34 -228 126.5t-56 245.5q17 128 97 224t203 149.5t270 53.5
q161 0 268 -61.5t158 -159t41 -203.5h-218q4 92 -31.5 146t-98.5 77.5t-143 23.5q-77 0 -146 -26.5t-115.5 -77.5t-56.5 -124q-10 -74 31.5 -120t164.5 -79l247 -61q109 -24 171.5 -70.5t91 -105.5t33 -122.5t-3.5 -121.5q-15 -112 -92.5 -202.5t-205.5 -143.5t-295 -53z
M499 1567l259 234h148l224 -234h-185l-120 133l-152 -133h-174z" />
    <glyph glyph-name="scircumflex" unicode="&#x15d;" horiz-adv-x="994" 
d="M438 -20q-104 0 -190 34t-137 107t-51 187h188q4 -59 33.5 -97.5t76 -57t101.5 -18.5q93 0 155.5 35.5t72.5 109.5q8 53 -19 85t-92 47l-188 49q-120 30 -185 95.5t-49 183.5q13 91 66.5 162t146 111.5t221.5 40.5q168 0 260 -78t75 -226h-182q0 71 -46 111.5t-130 40.5
q-88 0 -148.5 -36.5t-70.5 -111.5q-7 -51 29.5 -80.5t115.5 -48.5l180 -49q70 -20 113 -52.5t64.5 -71.5t26.5 -81t-1 -79q-13 -98 -70.5 -167.5t-150.5 -107t-215 -37.5zM287 1155l259 234h148l224 -234h-185l-120 133l-152 -133h-174z" />
    <glyph glyph-name="Scedilla" unicode="&#x15e;" horiz-adv-x="1329" 
d="M498 -415q-54 0 -101 12t-85 39l45 83q23 -19 54.5 -33.5t73.5 -14.5q50 0 77.5 18.5t32.5 51.5q7 43 -26 64t-116 23q-10 0 -13 3t3 12l93 167h103l-61 -120q66 -2 101.5 -25t47 -56.5t7.5 -67.5q-7 -50 -42 -85t-86 -53t-108 -18zM598 -20q-100 0 -191.5 25.5
t-162 76.5t-110 128.5t-37.5 181.5h222q5 -78 45.5 -131t107 -80t150.5 -27q91 0 167.5 26.5t126 76t58.5 119.5q9 63 -14.5 107t-73 73.5t-121.5 46.5l-253 62q-152 34 -228 126.5t-56 245.5q17 128 97 224t203 149.5t270 53.5q161 0 268 -61.5t158 -159t41 -203.5h-218
q4 92 -31.5 146t-98.5 77.5t-143 23.5q-77 0 -146 -26.5t-115.5 -77.5t-56.5 -124q-10 -74 31.5 -120t164.5 -79l247 -61q109 -24 171.5 -70.5t91 -105.5t33 -122.5t-3.5 -121.5q-15 -112 -92.5 -202.5t-205.5 -143.5t-295 -53z" />
    <glyph glyph-name="scedilla" unicode="&#x15f;" horiz-adv-x="994" 
d="M357 -415q-54 0 -101 12t-85 39l45 83q23 -19 54.5 -33.5t73.5 -14.5q50 0 77.5 18.5t32.5 51.5q7 43 -26 64t-116 23q-11 0 -13.5 3t3.5 12l93 167h103l-61 -120q66 -2 101.5 -25t47 -56.5t7.5 -67.5q-7 -50 -42 -85t-86 -53t-108 -18zM438 -20q-104 0 -190 34t-137 107
t-51 187h188q4 -59 33.5 -97.5t76 -57t101.5 -18.5q93 0 155.5 35.5t72.5 109.5q8 53 -19 85t-92 47l-188 49q-120 30 -185 95.5t-49 183.5q13 91 66.5 162t146 111.5t221.5 40.5q168 0 260 -78t75 -226h-182q0 71 -46 111.5t-130 40.5q-88 0 -148.5 -36.5t-70.5 -111.5
q-7 -51 29.5 -80.5t115.5 -48.5l180 -49q70 -20 113 -52.5t64.5 -71.5t26.5 -81t-1 -79q-13 -98 -70.5 -167.5t-150.5 -107t-215 -37.5z" />
    <glyph glyph-name="Scaron" unicode="&#x160;" horiz-adv-x="1329" 
d="M598 -20q-100 0 -191.5 25.5t-162 76.5t-110 128.5t-37.5 181.5h222q5 -78 45.5 -131t107 -80t150.5 -27q91 0 167.5 26.5t126 76t58.5 119.5q9 63 -14.5 107t-73 73.5t-121.5 46.5l-253 62q-152 34 -228 126.5t-56 245.5q17 128 97 224t203 149.5t270 53.5
q161 0 268 -61.5t158 -159t41 -203.5h-218q4 92 -31.5 146t-98.5 77.5t-143 23.5q-77 0 -146 -26.5t-115.5 -77.5t-56.5 -124q-10 -74 31.5 -120t164.5 -79l247 -61q109 -24 171.5 -70.5t91 -105.5t33 -122.5t-3.5 -121.5q-15 -112 -92.5 -202.5t-205.5 -143.5t-295 -53z
M738 1566l-210 236h175l123 -140l151 140h183l-272 -236h-150z" />
    <glyph glyph-name="scaron" unicode="&#x161;" horiz-adv-x="984" 
d="M438 -20q-104 0 -190 34t-137 107t-51 187h188q4 -59 33.5 -97.5t76 -57t101.5 -18.5q93 0 155.5 35.5t72.5 109.5q8 53 -19 85t-92 47l-188 49q-120 30 -185 95.5t-49 183.5q13 91 66.5 162t146 111.5t221.5 40.5q168 0 260 -78t75 -226h-182q0 71 -46 111.5t-130 40.5
q-88 0 -148.5 -36.5t-70.5 -111.5q-7 -51 29.5 -80.5t115.5 -48.5l180 -49q70 -20 113 -52.5t64.5 -71.5t26.5 -81t-1 -79q-13 -98 -70.5 -167.5t-150.5 -107t-215 -37.5zM555 1154l-210 236h175l123 -140l151 140h183l-272 -236h-150z" />
    <glyph glyph-name="uni0162" unicode="&#x162;" horiz-adv-x="1155" 
d="M436 -413q-54 0 -101 12t-85 39l44 83q24 -19 55 -33t74 -14q50 0 77.5 18.5t32.5 51.5q7 42 -26 63t-116 23q-11 0 -14 3t3 12l94 167h103l-62 -119q67 -3 102.5 -26t47 -56.5t7.5 -67.5q-8 -50 -42.5 -85t-85.5 -53t-108 -18zM403 0l180 1251h-434l29 195h1060
l-27 -195h-417l-182 -1251h-209z" />
    <glyph glyph-name="uni0163" unicode="&#x163;" horiz-adv-x="773" 
d="M301 -408q-54 0 -101 12t-85 40l44 83q24 -19 55 -33.5t74 -14.5q50 0 77.5 18.5t32.5 51.5q7 42 -26 63.5t-116 22.5q-11 0 -14 3.5t3 11.5l93 168h104l-62 -120q67 -3 102 -25.5t47 -56t8 -67.5q-8 -50 -42.5 -85t-85.5 -53.5t-108 -18.5zM450 -7q-112 0 -168.5 31
t-72.5 89.5t-4 141.5l90 625h-160l23 154h165l81 304h168l-43 -303h222l-23 -155h-222l-88 -612q-11 -75 12.5 -95.5t81.5 -20.5h115l-20 -139q-20 -8 -58.5 -14t-98.5 -6z" />
    <glyph glyph-name="Tcaron" unicode="&#x164;" horiz-adv-x="1155" 
d="M403 0l180 1251h-434l29 195h1060l-27 -195h-417l-182 -1251h-209zM668 1566l-210 236h175l123 -140l151 140h183l-272 -236h-150z" />
    <glyph glyph-name="tcaron" unicode="&#x165;" horiz-adv-x="803" 
d="M450 -7q-112 0 -168.5 31t-72.5 89.5t-4 141.5l90 625h-160l23 154h165l81 304h168l-43 -303h222l-23 -155h-222l-88 -612q-11 -75 12.5 -95.5t81.5 -20.5h115l-20 -139q-20 -8 -58.5 -14t-98.5 -6zM626 1129l101 189l-54 10l29 202h159l-30 -212l-105 -189h-100z" />
    <glyph glyph-name="Tbar" unicode="&#x166;" horiz-adv-x="1155" 
d="M201 635l24 166h775l-23 -166h-776zM403 0l180 1251h-434l29 195h1060l-27 -195h-417l-182 -1251h-209z" />
    <glyph glyph-name="tbar" unicode="&#x167;" horiz-adv-x="768" 
d="M100 504l19 130h567l-19 -130h-567zM460 -7q-111 0 -168 31t-72.5 89.5t-4.5 141.5l91 625h-161l24 154h165l81 304h168l-44 -303h222l-23 -155h-222l-87 -612q-11 -75 12.5 -95.5t81.5 -20.5h115l-20 -139q-20 -8 -58.5 -14t-99.5 -6z" />
    <glyph glyph-name="Utilde" unicode="&#x168;" horiz-adv-x="1371" 
d="M624 -20q-187 0 -292 64t-139 187t-8 300l132 915h216l-136 -942q-17 -114 8 -189t88 -112.5t158 -37.5q143 0 237.5 83t119.5 256l135 942h212l-134 -932q-25 -169 -95.5 -288.5t-194 -182.5t-307.5 -63zM602 1627l-20 112q39 34 80 57.5t99 23.5q49 0 90 -14
t80.5 -28.5t82.5 -14.5q44 0 80.5 18.5t68.5 41.5l14 -129q-29 -21 -75.5 -41t-107.5 -20q-52 0 -89.5 13t-73.5 26.5t-81 13.5q-47 0 -79.5 -16.5t-68.5 -42.5z" />
    <glyph glyph-name="utilde" unicode="&#x169;" horiz-adv-x="1137" 
d="M434 -20q-74 1 -139 23t-112 66t-69 109t-10 151l98 705h212l-96 -682q-13 -93 33.5 -151t156.5 -58q101 0 169 55.5t83 162.5l95 673h210l-146 -1034h-163l5 200q-29 -81 -81 -129.5t-116 -70t-130 -20.5zM400 1215l-20 112q39 34 80 57.5t99 23.5q49 0 90 -14
t80.5 -28.5t82.5 -14.5q44 0 80.5 18.5t68.5 41.5l14 -129q-29 -21 -75.5 -41t-107.5 -20q-52 0 -89.5 13t-73.5 26.5t-81 13.5q-47 0 -79.5 -16.5t-68.5 -42.5z" />
    <glyph glyph-name="Umacron" unicode="&#x16a;" horiz-adv-x="1371" 
d="M624 -20q-187 0 -292 64t-139 187t-8 300l132 915h216l-136 -942q-17 -114 8 -189t88 -112.5t158 -37.5q143 0 237.5 83t119.5 256l135 942h212l-134 -932q-25 -169 -95.5 -288.5t-194 -182.5t-307.5 -63zM568 1639l21 146h603l-22 -146h-602z" />
    <glyph glyph-name="umacron" unicode="&#x16b;" horiz-adv-x="1137" 
d="M434 -20q-74 1 -139 23t-112 66t-69 109t-10 151l98 705h212l-96 -682q-13 -93 33.5 -151t156.5 -58q101 0 169 55.5t83 162.5l95 673h210l-146 -1034h-163l5 200q-29 -81 -81 -129.5t-116 -70t-130 -20.5zM365 1227l21 146h603l-22 -146h-602z" />
    <glyph glyph-name="Ubreve" unicode="&#x16c;" horiz-adv-x="1371" 
d="M624 -20q-187 0 -292 64t-139 187t-8 300l132 915h216l-136 -942q-17 -114 8 -189t88 -112.5t158 -37.5q143 0 237.5 83t119.5 256l135 942h212l-134 -932q-25 -169 -95.5 -288.5t-194 -182.5t-307.5 -63zM852 1567q-77 0 -134.5 29.5t-91.5 80.5t-42 117h142
q9 -22 25.5 -46.5t45 -41.5t73.5 -17q65 0 108 33.5t71 71.5h143q-28 -62 -77 -113.5t-116 -82.5t-147 -31z" />
    <glyph glyph-name="ubreve" unicode="&#x16d;" horiz-adv-x="1137" 
d="M434 -20q-74 1 -139 23t-112 66t-69 109t-10 151l98 705h212l-96 -682q-13 -93 33.5 -151t156.5 -58q101 0 169 55.5t83 162.5l95 673h210l-146 -1034h-163l5 200q-29 -81 -81 -129.5t-116 -70t-130 -20.5zM649 1155q-77 0 -134.5 29.5t-91.5 80.5t-42 117h142
q9 -22 25.5 -46.5t45 -41.5t73.5 -17q65 0 108 33.5t71 71.5h143q-28 -62 -77 -113.5t-116 -82.5t-147 -31z" />
    <glyph glyph-name="Uring" unicode="&#x16e;" horiz-adv-x="1371" 
d="M624 -20q-187 0 -292 64t-139 187t-8 300l132 915h216l-136 -942q-17 -114 8 -189t88 -112.5t158 -37.5q143 0 237.5 83t119.5 256l135 942h212l-134 -932q-25 -169 -95.5 -288.5t-194 -182.5t-307.5 -63zM853 1561q-83 0 -132 61.5t-36 151.5q8 56 42 101.5t83.5 73
t104.5 27.5q83 0 132.5 -60t36.5 -146q-8 -59 -41.5 -106.5t-83.5 -75t-106 -27.5zM867 1662q42 0 75 32.5t40 74.5q6 46 -18.5 75t-66.5 29q-40 0 -74 -29t-42 -75q-6 -42 19.5 -74.5t66.5 -32.5z" />
    <glyph glyph-name="uring" unicode="&#x16f;" horiz-adv-x="1137" 
d="M434 -20q-74 1 -139 23t-112 66t-69 109t-10 151l98 705h212l-96 -682q-13 -93 33.5 -151t156.5 -58q101 0 169 55.5t83 162.5l95 673h210l-146 -1034h-163l5 200q-29 -81 -81 -129.5t-116 -70t-130 -20.5zM650 1149q-83 0 -132 61.5t-36 151.5q8 56 42 101.5t83.5 73
t104.5 27.5q83 0 132.5 -60t36.5 -146q-8 -59 -41.5 -106.5t-83.5 -75t-106 -27.5zM664 1250q42 0 75 32.5t40 74.5q6 46 -18.5 75t-66.5 29q-40 0 -74 -29t-42 -75q-6 -42 19.5 -74.5t66.5 -32.5z" />
    <glyph glyph-name="Uhungarumlaut" unicode="&#x170;" horiz-adv-x="1349" 
d="M624 -20q-187 0 -292 64t-139 187t-8 300l132 915h216l-136 -942q-17 -114 8 -189t88 -112.5t158 -37.5q143 0 237.5 83t119.5 256l135 942h212l-134 -932q-25 -169 -95.5 -288.5t-194 -182.5t-307.5 -63zM915 1567l191 291h210l-246 -291h-155zM625 1567l150 291h205
l-201 -291h-154z" />
    <glyph glyph-name="uhungarumlaut" unicode="&#x171;" horiz-adv-x="1074" 
d="M434 -20q-74 1 -139 23t-112 66t-69 109t-10 151l98 705h212l-96 -682q-13 -93 33.5 -151t156.5 -58q101 0 169 55.5t83 162.5l95 673h210l-146 -1034h-163l5 200q-29 -81 -81 -129.5t-116 -70t-130 -20.5zM722 1155l191 291h210l-246 -291h-155zM432 1155l150 291h205
l-201 -291h-154z" />
    <glyph glyph-name="Uogonek" unicode="&#x172;" horiz-adv-x="1371" 
d="M581 -345q-95 0 -139 42t-33 118q8 58 54 105.5t164 85.5l150 -11q-104 -41 -150.5 -77t-54.5 -82q-3 -35 13.5 -53t58.5 -18q46 0 82.5 13t60.5 26l-16 -107q-27 -15 -79 -28.5t-111 -13.5zM624 -20q-187 0 -292 64t-139 187t-8 300l132 915h216l-136 -942
q-17 -114 8 -189t88 -112.5t158 -37.5q143 0 237.5 83t119.5 256l135 942h212l-134 -932q-25 -169 -95.5 -288.5t-194 -182.5t-307.5 -63z" />
    <glyph glyph-name="uogonek" unicode="&#x173;" horiz-adv-x="1137" 
d="M434 -20q-74 1 -139 23t-112 66t-69 109t-10 151l98 705h212l-96 -682q-13 -93 33.5 -151t156.5 -58q101 0 169 55.5t83 162.5l95 673h210l-146 -1034h-163l5 200q-29 -81 -81 -129.5t-116 -70t-130 -20.5zM721 -334q-95 0 -139 42t-33 118q8 58 54 105.5t164 85.5
l150 -10q-105 -42 -151 -77.5t-54 -82.5q-3 -35 13 -53t59 -18q46 0 82.5 13t60.5 26l-16 -106q-27 -16 -79 -29.5t-111 -13.5z" />
    <glyph glyph-name="Wcircumflex" unicode="&#x174;" horiz-adv-x="1834" 
d="M366 0l-189 1446h210l130 -1098l450 1098h158l137 -1098l450 1098h207l-614 -1446h-182l-132 1073l-447 -1073h-178zM749 1567l259 234h148l224 -234h-185l-120 133l-152 -133h-174z" />
    <glyph glyph-name="wcircumflex" unicode="&#x175;" horiz-adv-x="1497" 
d="M278 0l-159 1034h191l104 -753h13l318 753h154l107 -751h13l314 751h191l-457 -1034h-188l-106 726l-309 -726h-186zM531 1155l259 234h148l224 -234h-185l-120 133l-152 -133h-174z" />
    <glyph glyph-name="Ycircumflex" unicode="&#x176;" horiz-adv-x="1198" 
d="M416 0l87 614l-349 832h227l257 -643l438 643h230l-592 -833l-90 -613h-208zM423 1569l259 234h148l224 -234h-185l-120 133l-152 -133h-174z" />
    <glyph glyph-name="ycircumflex" unicode="&#x177;" horiz-adv-x="1042" 
d="M131 -330q-91 0 -124.5 14l-33.5 14l20 138l101 -2q77 -4 120 14t64.5 45t33.5 50l41 87l-238 1004h210l162 -764l382 764h205l-567 -1092q-58 -108 -118 -167t-123.5 -82t-134.5 -23zM293 1155l259 234h148l224 -234h-185l-120 133l-152 -133h-174z" />
    <glyph glyph-name="Ydieresis" unicode="&#x178;" horiz-adv-x="1198" 
d="M416 0l87 614l-349 832h227l257 -643l438 643h230l-592 -833l-90 -613h-208zM830 1665l29 195h206l-29 -195h-206zM465 1665l29 195h206l-29 -195h-206z" />
    <glyph glyph-name="Zacute" unicode="&#x179;" horiz-adv-x="1254" 
d="M49 0l18 113l901 1149h-699l28 184h996l-16 -108l-912 -1152h740l-29 -186h-1027zM725 1567l236 291h234l-308 -291h-162z" />
    <glyph glyph-name="zacute" unicode="&#x17a;" horiz-adv-x="993" 
d="M2 0l16 128l642 751h-499l22 155h753l-16 -128l-642 -751h539l-22 -155h-793zM538 1155l236 291h234l-308 -291h-162z" />
    <glyph glyph-name="Zdotaccent" unicode="&#x17b;" horiz-adv-x="1254" 
d="M49 0l18 113l901 1149h-699l28 184h996l-16 -108l-912 -1152h740l-29 -186h-1027zM731 1663l28 195h206l-28 -195h-206z" />
    <glyph glyph-name="zdotaccent" unicode="&#x17c;" horiz-adv-x="941" 
d="M2 0l16 128l642 751h-499l22 155h753l-16 -128l-642 -751h539l-22 -155h-793zM493 1251l28 195h206l-28 -195h-206z" />
    <glyph glyph-name="Zcaron" unicode="&#x17d;" horiz-adv-x="1254" 
d="M49 0l18 113l901 1149h-699l28 184h996l-16 -108l-912 -1152h740l-29 -186h-1027zM744 1566l-210 236h175l123 -140l151 140h183l-272 -236h-150z" />
    <glyph glyph-name="zcaron" unicode="&#x17e;" horiz-adv-x="970" 
d="M2 0l16 128l642 751h-499l22 155h753l-16 -128l-642 -751h539l-22 -155h-793zM563 1154l-210 236h175l123 -140l151 140h183l-272 -236h-150z" />
    <glyph glyph-name="uni018F" unicode="&#x18f;" horiz-adv-x="1437" 
d="M643 -20q-182 0 -307.5 85.5t-176.5 262.5t-13 452h971q32 229 -44.5 355.5t-253.5 126.5q-88 0 -160 -28.5t-125.5 -74.5t-85.5 -100t-39 -104h-240q12 84 67 173.5t145.5 166t210 124t260.5 47.5q191 0 315.5 -87t174.5 -251.5t17 -397.5q-34 -250 -134.5 -416.5
t-249.5 -250t-332 -83.5zM671 173q118 0 205 57.5t141.5 157t73.5 226.5l-711 1q-17 -128 8.5 -228t96.5 -157t186 -57z" />
    <glyph glyph-name="florin" unicode="&#x192;" horiz-adv-x="910" 
d="M-234 -334l43 149l112 1q63 1 98 33.5t60 117.5l284 913h-159l49 154h160l48 157q40 124 125.5 189.5t203.5 65.5h199l-47 -148h-134q-48 0 -89.5 -38t-61.5 -98l-40 -128h235l-49 -154h-229l-296 -951q-39 -123 -123.5 -193t-208.5 -70h-180z" />
    <glyph glyph-name="Ohorn" unicode="&#x1a0;" horiz-adv-x="1556" 
d="M639 -20q-190 0 -314 87.5t-173.5 252t-15.5 398.5q34 236 133.5 403t249.5 256t336 89q136 0 239 -48t169 -139q53 -1 88.5 12.5t59 56.5t41.5 132h151q-15 -107 -48.5 -177t-88.5 -106t-140 -41q31 -86 38.5 -195t-11.5 -241q-34 -234 -132 -399.5t-246.5 -253
t-335.5 -87.5zM667 163q118 0 210.5 58t155 180.5t90.5 315.5q29 196 1.5 321.5t-103 185t-193.5 59.5q-177 0 -298 -136t-164 -430q-28 -192 0.5 -314.5t105 -181t195.5 -58.5z" />
    <glyph glyph-name="ohorn" unicode="&#x1a1;" horiz-adv-x="1198" 
d="M474 -20q-139 0 -234 62.5t-135.5 181.5t-16.5 288q22 163 93.5 285t184.5 189.5t259 67.5q104 0 183 -36t129 -103q61 4 95 45.5t56 152.5h151q-22 -149 -79 -228t-166 -92q17 -56 21 -126t-7 -155q-22 -157 -92 -277t-181.5 -187.5t-260.5 -67.5zM500 145
q83 0 145 46.5t102 131t55 195.5q14 103 0.5 187.5t-62 134.5t-139.5 50q-85 0 -148 -45.5t-102.5 -129t-54.5 -197.5q-14 -101 -0.5 -186t63 -136t141.5 -51z" />
    <glyph glyph-name="Uhorn" unicode="&#x1af;" horiz-adv-x="1594" 
d="M624 -20q-187 0 -292 64t-138.5 187t-8.5 300l132 915h216l-136 -942q-17 -114 8 -189t88 -112.5t158 -37.5q143 0 237.5 83t119.5 256l135 942h212l-24 -167q44 2 73.5 18.5t50.5 59.5t37 122h151q-17 -116 -55.5 -189.5t-104.5 -106t-170 -27.5l-92 -642
q-25 -169 -95.5 -288.5t-194 -182.5t-307.5 -63z" />
    <glyph glyph-name="uhorn" unicode="&#x1b0;" horiz-adv-x="1289" 
d="M435 -20q-75 1 -140 23t-112 66t-69 109t-10 151l99 705h212l-96 -682q-14 -93 33 -151t157 -58q101 0 169 55.5t83 162.5l95 673h209l-17 -122q45 2 75.5 18.5t51.5 59t37 123.5h152q-18 -117 -56 -190.5t-105 -106t-172 -26.5l-111 -790h-164l5 200
q-29 -81 -80.5 -129.5t-115.5 -70t-130 -20.5z" />
    <glyph glyph-name="uni01D4" unicode="&#x1d4;" horiz-adv-x="1137" 
d="M434 -20q-74 1 -139 23t-112 66t-69 109t-10 151l98 705h212l-96 -682q-13 -93 33.5 -151t156.5 -58q101 0 169 55.5t83 162.5l95 673h210l-146 -1034h-163l5 200q-29 -81 -81 -129.5t-116 -70t-130 -20.5zM575 1154l-210 236h175l123 -140l151 140h183l-272 -236h-150z
" />
    <glyph glyph-name="uni01EA" unicode="&#x1ea;" horiz-adv-x="1432" 
d="M623 -337q-94 0 -138.5 42.5t-33.5 117.5q9 59 55 106.5t163 84.5l150 -10q-104 -41 -150 -77t-54 -82q-4 -35 12.5 -53t59.5 -18q45 0 81.5 13t61.5 26l-16 -107q-27 -15 -79.5 -29t-111.5 -14zM639 -20q-190 0 -314 87.5t-173.5 252t-15.5 398.5q34 236 133.5 403
t249.5 256t336 89t309 -88.5t173 -255t16 -402.5q-34 -234 -132 -399.5t-246.5 -253t-335.5 -87.5zM667 163q118 0 210.5 58t155 180.5t90.5 315.5q29 196 1.5 321.5t-103 185t-193.5 59.5q-177 0 -298 -136t-164 -430q-28 -192 0.5 -314.5t105 -181t195.5 -58.5z" />
    <glyph glyph-name="uni01EB" unicode="&#x1eb;" horiz-adv-x="1097" 
d="M414 -335q-94 0 -138.5 42t-33.5 117q9 59 55 106.5t163 84.5l150 -10q-104 -41 -150 -77t-54 -82q-4 -35 12.5 -53t59.5 -18q45 0 81.5 13t61.5 26l-16 -107q-27 -15 -79.5 -28.5t-111.5 -13.5zM474 -20q-139 0 -234 62.5t-135.5 181.5t-16.5 288q22 163 93.5 285
t184.5 189.5t259 67.5q140 0 234 -63.5t133.5 -185t15.5 -293.5q-22 -157 -92 -277t-181.5 -187.5t-260.5 -67.5zM500 145q83 0 145 46.5t102 131t55 195.5q14 103 0.5 187.5t-62 134.5t-139.5 50q-85 0 -148 -45.5t-102.5 -129t-54.5 -197.5q-14 -101 -0.5 -186t63 -136
t141.5 -51z" />
    <glyph glyph-name="Aringacute" unicode="&#x1fa;" horiz-adv-x="1378" 
d="M1033 1911l-76 -139q51 -21 77.5 -69.5t16.5 -112.5q-12 -87 -76.5 -142.5t-146.5 -55.5t-129 57t-34 145q9 71 60 122.5t117 63.5l50 131h141zM954 1588q7 45 -17.5 75t-66.5 30q-40 0 -74.5 -30t-41.5 -75q-6 -42 20 -75t66 -33q42 0 75 33t39 75zM5 0l707 1446h230
l286 -1446h-212l-72 379h-542l-185 -379h-212zM481 573h438l-121 663z" />
    <glyph glyph-name="aringacute" unicode="&#x1fb;" horiz-adv-x="1078" 
d="M832 1499l-76 -139q51 -21 77.5 -69.5t16.5 -112.5q-12 -87 -76.5 -142.5t-146.5 -55.5t-129 57t-34 145q9 71 60 122.5t117 63.5l49 131h142zM753 1176q7 45 -17.5 75t-66.5 30q-40 0 -74.5 -30t-41.5 -75q-6 -42 20 -75t66 -33q42 0 75 33t39 75zM349 -20
q-96 0 -165 36t-101 104t-19 164q25 172 154 257t386 90l158 5l12 75q13 93 -36 142t-142 48q-76 0 -145.5 -40t-100.5 -123h-180q19 94 81.5 165.5t159.5 111t218 39.5q134 0 216 -41t114.5 -115t17.5 -175l-105 -723h-177l9 184q-73 -118 -162 -161t-193 -43zM436 129
q45 0 92.5 17.5t88 48t68.5 68.5t34 78l24 171l-130 -3q-99 -1 -172 -22t-117 -65t-55 -117q-11 -83 36 -129.5t131 -46.5z" />
    <glyph glyph-name="AEacute" unicode="&#x1fc;" horiz-adv-x="1907" 
d="M-73 0l963 1446h1012l-27 -183h-655l-64 -443h586l-27 -181h-586l-65 -455h677l-26 -184h-917l56 384h-463l-252 -384h-212zM501 573h380l105 724zM1298 1567l236 291h234l-308 -291h-162z" />
    <glyph glyph-name="aeacute" unicode="&#x1fd;" horiz-adv-x="1764" 
d="M350 -20q-95 0 -164.5 36t-102 104t-19.5 164q24 172 153.5 257.5t386.5 89.5l161 5l10 75q13 93 -35 142t-143 48q-76 0 -144 -40t-99 -123h-182q19 94 81 165.5t158 111t217 39.5q128 0 210 -45t110 -126q65 82 155 126.5t199 44.5q144 0 233 -64t123 -179.5t11 -272.5
l-10 -71h-694q-13 -93 5 -166.5t70.5 -116t138.5 -42.5q87 0 157 42t102 125h193q-33 -106 -107 -180t-170 -111.5t-195 -37.5q-139 0 -236 64t-137 183q-31 -76 -95 -131.5t-151.5 -85.5t-189.5 -30zM438 129q77 0 139 37.5t102 93t48 109.5l20 143l-132 -3
q-100 -1 -173.5 -22t-117.5 -65t-54 -117q-12 -83 36 -129.5t132 -46.5zM985 606h495q12 81 -5.5 147.5t-66 105t-130.5 38.5q-84 0 -145.5 -43t-99.5 -110t-48 -138zM884 1155l236 291h234l-308 -291h-162z" />
    <glyph glyph-name="Oslashacute" unicode="&#x1fe;" horiz-adv-x="1457" 
d="M80 -27l-89 107l187 183q-36 88 -45 202t11 253q34 236 133 403t248.5 256t336.5 89q129 0 227 -42.5t164 -125.5l179 173l88 -105l-194 -190q36 -88 45 -203t-11 -253q-33 -234 -131 -399.5t-247.5 -253t-335.5 -87.5q-129 0 -227 41.5t-164 120.5zM675 160
q161 0 263 113.5t145 351.5q19 96 25 185t-2 172l-683 -687q70 -135 252 -135zM397 457l685 688q-33 73 -94.5 108t-151.5 35q-166 0 -271 -121t-150 -371q-16 -93 -20.5 -178t2.5 -161zM781 1567l236 291h234l-308 -291h-162z" />
    <glyph glyph-name="oslashacute" unicode="&#x1ff;" horiz-adv-x="1078" 
d="M62 -12l-81 85l1010 970l80 -85zM439 -20q-139 0 -234 62.5t-135.5 181.5t-16.5 288q23 163 94 285t184.5 189.5t258.5 67.5q140 0 234 -63.5t133.5 -185t15.5 -293.5q-22 -157 -92 -277t-181.5 -187.5t-260.5 -67.5zM465 145q83 0 145.5 46.5t102.5 131t54 195.5
q14 103 0.5 187.5t-62 134.5t-139.5 50q-85 0 -148 -45.5t-102.5 -129t-54.5 -197.5q-14 -101 0 -186t63 -136t141 -51zM449 1155l236 291h234l-308 -291h-162z" />
    <glyph glyph-name="uni0200" unicode="&#x200;" horiz-adv-x="1378" 
d="M5 0l707 1446h230l286 -1446h-212l-72 379h-542l-185 -379h-212zM481 573h438l-121 663zM602 1567l-246 291h210l191 -291h-155zM893 1567l-201 291h205l151 -291h-155z" />
    <glyph glyph-name="uni0201" unicode="&#x201;" horiz-adv-x="1173" 
d="M416 -20q-96 0 -165 36t-101 104t-19 164q25 172 154 257t386 90l158 5l12 75q13 93 -36 142t-142 48q-76 0 -145.5 -40t-100.5 -123h-180q19 94 81.5 165.5t159.5 111t218 39.5q134 0 216 -41t114.5 -115t17.5 -175l-105 -723h-177l9 184q-73 -118 -162 -161t-193 -43z
M503 129q45 0 92.5 17.5t88 48t68.5 68.5t34 78l24 171l-130 -3q-99 -1 -172 -22t-117 -65t-55 -117q-11 -83 36 -129.5t131 -46.5zM481 1155l-246 291h210l191 -291h-155zM772 1155l-201 291h205l151 -291h-155z" />
    <glyph glyph-name="uni0202" unicode="&#x202;" horiz-adv-x="1378" 
d="M5 0l707 1446h230l286 -1446h-212l-72 379h-542l-185 -379h-212zM481 573h438l-121 663zM541 1581q27 66 75 117t113.5 80.5t142.5 29.5q80 0 138 -31t93 -82.5t45 -113.5h-142q-17 38 -51 71.5t-98 33.5q-46 0 -79.5 -17t-56.5 -41.5t-39 -46.5h-141z" />
    <glyph glyph-name="uni0203" unicode="&#x203;" horiz-adv-x="1106" 
d="M349 -20q-96 0 -165 36t-101 104t-19 164q25 172 154 257t386 90l158 5l12 75q13 93 -36 142t-142 48q-76 0 -145.5 -40t-100.5 -123h-180q19 94 81.5 165.5t159.5 111t218 39.5q134 0 216 -41t114.5 -115t17.5 -175l-105 -723h-177l9 184q-73 -118 -162 -161t-193 -43z
M436 129q45 0 92.5 17.5t88 48t68.5 68.5t34 78l24 171l-130 -3q-99 -1 -172 -22t-117 -65t-55 -117q-11 -83 36 -129.5t131 -46.5zM335 1169q27 66 75 117t113.5 80.5t142.5 29.5q80 0 138 -31t93 -82.5t45 -113.5h-142q-17 38 -51 71.5t-98 33.5q-46 0 -79.5 -17
t-56.5 -41.5t-39 -46.5h-141z" />
    <glyph glyph-name="uni0204" unicode="&#x204;" horiz-adv-x="1217" 
d="M110 0l211 1446h894l-29 -186h-682l-63 -439h607l-27 -183h-608l-65 -449l700 -1l-29 -188h-909zM523 1567l-246 291h210l191 -291h-155zM814 1567l-201 291h205l151 -291h-155z" />
    <glyph glyph-name="uni0205" unicode="&#x205;" horiz-adv-x="1099" 
d="M493 -20q-141 0 -238.5 63.5t-140 181.5t-18.5 281q23 161 95.5 284.5t185.5 193.5t259 70q144 0 233 -64t123 -179.5t11 -272.5l-10 -71h-693q-14 -93 4.5 -166.5t70.5 -116t139 -42.5t156.5 42t101.5 125h194q-33 -106 -107.5 -180t-170.5 -111.5t-195 -37.5zM319 606
h495q12 81 -5 147.5t-65.5 105t-131.5 38.5t-145 -43t-99.5 -110t-48.5 -138zM409 1155l-246 291h210l191 -291h-155zM700 1155l-201 291h205l151 -291h-155z" />
    <glyph glyph-name="uni0206" unicode="&#x206;" horiz-adv-x="1217" 
d="M110 0l211 1446h894l-29 -186h-682l-63 -439h607l-27 -183h-608l-65 -449l700 -1l-29 -188h-909zM462 1581q27 66 75 117t113.5 80.5t142.5 29.5q80 0 138 -31t93 -82.5t45 -113.5h-142q-17 38 -51 71.5t-98 33.5q-46 0 -79.5 -17t-56.5 -41.5t-39 -46.5h-141z" />
    <glyph glyph-name="uni0207" unicode="&#x207;" horiz-adv-x="1099" 
d="M493 -20q-141 0 -238.5 63.5t-140 181.5t-18.5 281q23 161 95.5 284.5t185.5 193.5t259 70q144 0 233 -64t123 -179.5t11 -272.5l-10 -71h-693q-14 -93 4.5 -166.5t70.5 -116t139 -42.5t156.5 42t101.5 125h194q-33 -106 -107.5 -180t-170.5 -111.5t-195 -37.5zM319 606
h495q12 81 -5 147.5t-65.5 105t-131.5 38.5t-145 -43t-99.5 -110t-48.5 -138zM348 1169q27 66 75 117t113.5 80.5t142.5 29.5q80 0 138 -31t93 -82.5t45 -113.5h-142q-17 38 -51 71.5t-98 33.5q-46 0 -79.5 -17t-56.5 -41.5t-39 -46.5h-141z" />
    <glyph glyph-name="uni0208" unicode="&#x208;" horiz-adv-x="584" 
d="M111 0l209 1446h211l-209 -1446h-211zM202 1567l-246 291h210l191 -291h-155zM493 1567l-201 291h205l151 -291h-155z" />
    <glyph glyph-name="uni0209" unicode="&#x209;" horiz-adv-x="506" 
d="M73 0l150 1034h211l-151 -1034h-210zM105 1155l-246 291h210l191 -291h-155zM396 1155l-201 291h205l151 -291h-155z" />
    <glyph glyph-name="uni020A" unicode="&#x20a;" horiz-adv-x="584" 
d="M111 0l209 1446h211l-209 -1446h-211zM141 1581q27 66 75 117t113.5 80.5t142.5 29.5q80 0 138 -31t93 -82.5t45 -113.5h-142q-17 38 -51 71.5t-98 33.5q-46 0 -79.5 -17t-56.5 -41.5t-39 -46.5h-141z" />
    <glyph glyph-name="uni020B" unicode="&#x20b;" horiz-adv-x="506" 
d="M73 0l150 1034h211l-151 -1034h-210zM44 1169q27 66 75 117t113.5 80.5t142.5 29.5q80 0 138 -31t93 -82.5t45 -113.5h-142q-17 38 -51 71.5t-98 33.5q-46 0 -79.5 -17t-56.5 -41.5t-39 -46.5h-141z" />
    <glyph glyph-name="uni020C" unicode="&#x20c;" horiz-adv-x="1432" 
d="M639 -20q-190 0 -314 87.5t-173.5 252t-15.5 398.5q34 236 133.5 403t249.5 256t336 89t309 -88.5t173 -255t16 -402.5q-34 -234 -132 -399.5t-246.5 -253t-335.5 -87.5zM667 163q118 0 210.5 58t155 180.5t90.5 315.5q29 196 1.5 321.5t-103 185t-193.5 59.5
q-177 0 -298 -136t-164 -430q-28 -192 0.5 -314.5t105 -181t195.5 -58.5zM620 1567l-246 291h210l191 -291h-155zM911 1567l-201 291h205l151 -291h-155z" />
    <glyph glyph-name="uni020D" unicode="&#x20d;" horiz-adv-x="1097" 
d="M474 -20q-139 0 -234 62.5t-135.5 181.5t-16.5 288q22 163 93.5 285t184.5 189.5t259 67.5q140 0 234 -63.5t133.5 -185t15.5 -293.5q-22 -157 -92 -277t-181.5 -187.5t-260.5 -67.5zM500 145q83 0 145 46.5t102 131t55 195.5q14 103 0.5 187.5t-62 134.5t-139.5 50
q-85 0 -148 -45.5t-102.5 -129t-54.5 -197.5q-14 -101 -0.5 -186t63 -136t141.5 -51zM379 1155l-246 291h210l191 -291h-155zM670 1155l-201 291h205l151 -291h-155z" />
    <glyph glyph-name="uni020E" unicode="&#x20e;" horiz-adv-x="1432" 
d="M639 -20q-190 0 -314 87.5t-173.5 252t-15.5 398.5q34 236 133.5 403t249.5 256t336 89t309 -88.5t173 -255t16 -402.5q-34 -234 -132 -399.5t-246.5 -253t-335.5 -87.5zM667 163q118 0 210.5 58t155 180.5t90.5 315.5q29 196 1.5 321.5t-103 185t-193.5 59.5
q-177 0 -298 -136t-164 -430q-28 -192 0.5 -314.5t105 -181t195.5 -58.5zM559 1581q27 66 75 117t113.5 80.5t142.5 29.5q80 0 138 -31t93 -82.5t45 -113.5h-142q-17 38 -51 71.5t-98 33.5q-46 0 -79.5 -17t-56.5 -41.5t-39 -46.5h-141z" />
    <glyph glyph-name="uni020F" unicode="&#x20f;" horiz-adv-x="1097" 
d="M474 -20q-139 0 -234 62.5t-135.5 181.5t-16.5 288q22 163 93.5 285t184.5 189.5t259 67.5q140 0 234 -63.5t133.5 -185t15.5 -293.5q-22 -157 -92 -277t-181.5 -187.5t-260.5 -67.5zM500 145q83 0 145 46.5t102 131t55 195.5q14 103 0.5 187.5t-62 134.5t-139.5 50
q-85 0 -148 -45.5t-102.5 -129t-54.5 -197.5q-14 -101 -0.5 -186t63 -136t141.5 -51zM318 1169q27 66 75 117t113.5 80.5t142.5 29.5q80 0 138 -31t93 -82.5t45 -113.5h-142q-17 38 -51 71.5t-98 33.5q-46 0 -79.5 -17t-56.5 -41.5t-39 -46.5h-141z" />
    <glyph glyph-name="uni0210" unicode="&#x210;" horiz-adv-x="1321" 
d="M110 0l210 1446h549q154 0 248.5 -49.5t131 -140.5t18.5 -215q-17 -117 -66 -195t-115.5 -127t-135.5 -77l172 -642h-219l-155 605h-340l-88 -605h-210zM433 778h286q93 0 164 29t114 85.5t55 138.5q17 120 -45 182t-182 62h-320zM557 1567l-246 291h210l191 -291h-155z
M848 1567l-201 291h205l151 -291h-155z" />
    <glyph glyph-name="uni0211" unicode="&#x211;" horiz-adv-x="768" 
d="M72 0l146 1034h202l-30 -212q35 76 87 127.5t115 78t131 26.5q19 0 36.5 -2.5t26.5 -8.5l-29 -206q-11 6 -30 8t-32 3q-88 6 -157 -16.5t-112 -75t-55 -134.5l-87 -622h-212zM242 1155l-246 291h210l191 -291h-155zM533 1155l-201 291h205l151 -291h-155z" />
    <glyph glyph-name="uni0212" unicode="&#x212;" horiz-adv-x="1321" 
d="M110 0l210 1446h549q154 0 248.5 -49.5t131 -140.5t18.5 -215q-17 -117 -66 -195t-115.5 -127t-135.5 -77l172 -642h-219l-155 605h-340l-88 -605h-210zM433 778h286q93 0 164 29t114 85.5t55 138.5q17 120 -45 182t-182 62h-320zM422 1581q27 66 75 117t113.5 80.5
t142.5 29.5q80 0 138 -31t93 -82.5t45 -113.5h-142q-17 38 -51 71.5t-98 33.5q-46 0 -79.5 -17t-56.5 -41.5t-39 -46.5h-141z" />
    <glyph glyph-name="uni0213" unicode="&#x213;" horiz-adv-x="768" 
d="M72 0l146 1034h202l-30 -212q35 76 87 127.5t115 78t131 26.5q19 0 36.5 -2.5t26.5 -8.5l-29 -206q-11 6 -30 8t-32 3q-88 6 -157 -16.5t-112 -75t-55 -134.5l-87 -622h-212zM181 1169q27 66 75 117t113.5 80.5t142.5 29.5q80 0 138 -31t93 -82.5t45 -113.5h-142
q-17 38 -51 71.5t-98 33.5q-46 0 -79.5 -17t-56.5 -41.5t-39 -46.5h-141z" />
    <glyph glyph-name="uni0214" unicode="&#x214;" horiz-adv-x="1371" 
d="M624 -20q-187 0 -292 64t-139 187t-8 300l132 915h216l-136 -942q-17 -114 8 -189t88 -112.5t158 -37.5q143 0 237.5 83t119.5 256l135 942h212l-134 -932q-25 -169 -95.5 -288.5t-194 -182.5t-307.5 -63zM612 1567l-246 291h210l191 -291h-155zM903 1567l-201 291h205
l151 -291h-155z" />
    <glyph glyph-name="uni0215" unicode="&#x215;" horiz-adv-x="1137" 
d="M434 -20q-74 1 -139 23t-112 66t-69 109t-10 151l98 705h212l-96 -682q-13 -93 33.5 -151t156.5 -58q101 0 169 55.5t83 162.5l95 673h210l-146 -1034h-163l5 200q-29 -81 -81 -129.5t-116 -70t-130 -20.5zM409 1155l-246 291h210l191 -291h-155zM700 1155l-201 291h205
l151 -291h-155z" />
    <glyph glyph-name="uni0216" unicode="&#x216;" horiz-adv-x="1371" 
d="M624 -20q-187 0 -292 64t-139 187t-8 300l132 915h216l-136 -942q-17 -114 8 -189t88 -112.5t158 -37.5q143 0 237.5 83t119.5 256l135 942h212l-134 -932q-25 -169 -95.5 -288.5t-194 -182.5t-307.5 -63zM551 1581q27 66 75 117t113.5 80.5t142.5 29.5q80 0 138 -31
t93 -82.5t45 -113.5h-142q-17 38 -51 71.5t-98 33.5q-46 0 -79.5 -17t-56.5 -41.5t-39 -46.5h-141z" />
    <glyph glyph-name="uni0217" unicode="&#x217;" horiz-adv-x="1137" 
d="M434 -20q-74 1 -139 23t-112 66t-69 109t-10 151l98 705h212l-96 -682q-13 -93 33.5 -151t156.5 -58q101 0 169 55.5t83 162.5l95 673h210l-146 -1034h-163l5 200q-29 -81 -81 -129.5t-116 -70t-130 -20.5zM348 1169q27 66 75 117t113.5 80.5t142.5 29.5q80 0 138 -31
t93 -82.5t45 -113.5h-142q-17 38 -51 71.5t-98 33.5q-46 0 -79.5 -17t-56.5 -41.5t-39 -46.5h-141z" />
    <glyph glyph-name="uni0218" unicode="&#x218;" horiz-adv-x="1329" 
d="M598 -20q-100 0 -191.5 25.5t-162 76.5t-110 128.5t-37.5 181.5h222q5 -78 45.5 -131t107 -80t150.5 -27q91 0 167.5 26.5t126 76t58.5 119.5q9 63 -14.5 107t-73 73.5t-121.5 46.5l-253 62q-152 34 -228 126.5t-56 245.5q17 128 97 224t203 149.5t270 53.5
q161 0 268 -61.5t158 -159t41 -203.5h-218q4 92 -31.5 146t-98.5 77.5t-143 23.5q-77 0 -146 -26.5t-115.5 -77.5t-56.5 -124q-10 -74 31.5 -120t164.5 -79l247 -61q109 -24 171.5 -70.5t91 -105.5t33 -122.5t-3.5 -121.5q-15 -112 -92.5 -202.5t-205.5 -143.5t-295 -53z
M408 -397l99 131l-64 7l23 163h199l-20 -137l-156 -164h-81z" />
    <glyph glyph-name="uni0219" unicode="&#x219;" horiz-adv-x="994" 
d="M438 -20q-104 0 -190 34t-137 107t-51 187h188q4 -59 33.5 -97.5t76 -57t101.5 -18.5q93 0 155.5 35.5t72.5 109.5q8 53 -19 85t-92 47l-188 49q-120 30 -185 95.5t-49 183.5q13 91 66.5 162t146 111.5t221.5 40.5q168 0 260 -78t75 -226h-182q0 71 -46 111.5t-130 40.5
q-88 0 -148.5 -36.5t-70.5 -111.5q-7 -51 29.5 -80.5t115.5 -48.5l180 -49q70 -20 113 -52.5t64.5 -71.5t26.5 -81t-1 -79q-13 -98 -70.5 -167.5t-150.5 -107t-215 -37.5zM267 -397l99 131l-64 7l23 163h199l-20 -137l-156 -164h-81z" />
    <glyph glyph-name="uni021A" unicode="&#x21a;" horiz-adv-x="1155" 
d="M403 0l180 1251h-434l29 195h1060l-27 -195h-417l-182 -1251h-209zM345 -395l99 131l-64 7l23 163h199l-20 -137l-156 -164h-81z" />
    <glyph glyph-name="uni021B" unicode="&#x21b;" horiz-adv-x="773" 
d="M450 -7q-112 0 -168.5 31t-72.5 89.5t-4 141.5l90 625h-160l23 154h165l81 304h168l-43 -303h222l-23 -155h-222l-88 -612q-11 -75 12.5 -95.5t81.5 -20.5h115l-20 -139q-20 -8 -58.5 -14t-98.5 -6zM210 -389l99 131l-64 7l23 163h199l-20 -137l-156 -164h-81z" />
    <glyph glyph-name="uni0237" unicode="&#x237;" horiz-adv-x="524" 
d="M-38 -332q-79 0 -100 9t-21 16l21 143l92 6q65 6 95.5 36t39.5 96l154 1060h209l-154 -1066q-22 -151 -99.5 -225.5t-236.5 -74.5z" />
    <glyph glyph-name="uni0259" unicode="&#x259;" horiz-adv-x="1099" 
d="M462 -20q-142 0 -232 64t-123.5 179.5t-11.5 272.5l11 71h693q15 93 -3.5 166.5t-71 116t-139.5 42.5t-156.5 -42t-102.5 -125h-193q33 107 107.5 180.5t170.5 111t194 37.5q142 0 239.5 -63t140 -181t18.5 -282q-23 -161 -95.5 -284.5t-185.5 -193.5t-260 -70zM486 137
q84 0 146.5 43t99.5 110t47 139h-494q-12 -82 5 -148t65.5 -105t130.5 -39z" />
    <glyph glyph-name="uni02BB" unicode="&#x2bb;" horiz-adv-x="452" 
d="M163 966l31 208q9 57 35.5 107.5t66 87.5t85.5 54.5t91 7.5l-12 -74l-18 -2q-38 -3 -76 -42t-46 -91l-2 -14l119 -8l-34 -234h-240z" />
    <glyph glyph-name="uni02BC" unicode="&#x2bc;" horiz-adv-x="510" 
d="M164 969l22 75l17 1q38 4 80 43t57 90l5 14l-114 8l68 235h231l-61 -208q-16 -57 -49 -108t-76.5 -88t-90.5 -54.5t-89 -7.5z" />
    <glyph glyph-name="circumflex" unicode="&#x2c6;" horiz-adv-x="655" 
d="M102 1155l259 234h148l224 -234h-185l-120 133l-152 -133h-174z" />
    <glyph glyph-name="caron" unicode="&#x2c7;" horiz-adv-x="665" 
d="M346 1154l-210 236h175l123 -140l151 140h183l-272 -236h-150z" />
    <glyph glyph-name="breve" unicode="&#x2d8;" horiz-adv-x="653" 
d="M413 1155q-77 0 -134.5 29.5t-91.5 80.5t-42 117h142q9 -22 25.5 -46.5t45 -41.5t73.5 -17q65 0 108 33.5t71 71.5h143q-28 -62 -77 -113.5t-116 -82.5t-147 -31z" />
    <glyph glyph-name="dotaccent" unicode="&#x2d9;" horiz-adv-x="228" 
d="M114 1251l28 195h206l-28 -195h-206z" />
    <glyph glyph-name="ring" unicode="&#x2da;" horiz-adv-x="464" 
d="M314 1139q-83 0 -132 61.5t-36 151.5q8 56 42 101.5t83.5 73t104.5 27.5q83 0 132.5 -60t36.5 -146q-8 -59 -41.5 -106.5t-83.5 -75t-106 -27.5zM328 1240q42 0 75 32.5t40 74.5q6 46 -18.5 75t-66.5 29q-40 0 -74 -29t-42 -75q-6 -42 19.5 -74.5t66.5 -32.5z" />
    <glyph glyph-name="ogonek" unicode="&#x2db;" horiz-adv-x="445" 
d="M104 -333q-95 0 -139 42t-33 118q8 58 54 105.5t164 85.5l150 -10q-105 -42 -151 -77.5t-54 -82.5q-3 -35 13 -53t59 -18q46 0 82.5 13t60.5 26l-16 -106q-27 -16 -79 -29.5t-111 -13.5z" />
    <glyph glyph-name="tilde" unicode="&#x2dc;" horiz-adv-x="703" 
d="M182 1215l-20 112q39 34 80 57.5t99 23.5q49 0 90 -14t80.5 -28.5t82.5 -14.5q44 0 80.5 18.5t68.5 41.5l14 -129q-29 -21 -75.5 -41t-107.5 -20q-52 0 -89.5 13t-73.5 26.5t-81 13.5q-47 0 -79.5 -16.5t-68.5 -42.5z" />
    <glyph glyph-name="hungarumlaut" unicode="&#x2dd;" horiz-adv-x="671" 
d="M391 1155l191 291h210l-246 -291h-155zM101 1155l150 291h205l-201 -291h-154z" />
    <glyph glyph-name="gravecomb" unicode="&#x300;" 
d="M456 1155l-270 291h229l197 -291h-156z" />
    <glyph glyph-name="acutecomb" unicode="&#x301;" 
d="M100 1155l236 291h234l-308 -291h-162z" />
    <glyph glyph-name="uni0302" unicode="&#x302;" 
d="M102 1155l259 234h148l224 -234h-185l-120 133l-152 -133h-174z" />
    <glyph glyph-name="tildecomb" unicode="&#x303;" 
d="M182 1215l-20 112q39 34 80 57.5t99 23.5q49 0 90 -14t80.5 -28.5t82.5 -14.5q44 0 80.5 18.5t68.5 41.5l14 -129q-29 -21 -75.5 -41t-107.5 -20q-52 0 -89.5 13t-73.5 26.5t-81 13.5q-47 0 -79.5 -16.5t-68.5 -42.5z" />
    <glyph glyph-name="uni0304" unicode="&#x304;" 
d="M133 1227l21 146h603l-22 -146h-602z" />
    <glyph glyph-name="uni0306" unicode="&#x306;" 
d="M413 1155q-77 0 -134.5 29.5t-91.5 80.5t-42 117h142q9 -22 25.5 -46.5t45 -41.5t73.5 -17q65 0 108 33.5t71 71.5h143q-28 -62 -77 -113.5t-116 -82.5t-147 -31z" />
    <glyph glyph-name="uni0307" unicode="&#x307;" 
d="M114 1251l28 195h206l-28 -195h-206z" />
    <glyph glyph-name="uni0308" unicode="&#x308;" 
d="M476 1251l29 195h206l-29 -195h-206zM111 1251l29 195h206l-29 -195h-206z" />
    <glyph glyph-name="hookabovecomb" unicode="&#x309;" 
d="M743 1146l-42 91q43 27 63.5 62.5t5.5 69.5q-13 32 -52.5 32t-80.5 -26l-43 90q91 55 169 43.5t109 -76.5q37 -78 3 -154t-132 -132z" />
    <glyph glyph-name="uni030A" unicode="&#x30a;" 
d="M314 1139q-83 0 -132 61.5t-36 151.5q8 56 42 101.5t83.5 73t104.5 27.5q83 0 132.5 -60t36.5 -146q-8 -59 -41.5 -106.5t-83.5 -75t-106 -27.5zM328 1240q42 0 75 32.5t40 74.5q6 46 -18.5 75t-66.5 29q-40 0 -74 -29t-42 -75q-6 -42 19.5 -74.5t66.5 -32.5z" />
    <glyph glyph-name="uni030B" unicode="&#x30b;" 
d="M391 1155l191 291h210l-246 -291h-155zM101 1155l150 291h205l-201 -291h-154z" />
    <glyph glyph-name="uni030C" unicode="&#x30c;" 
d="M346 1154l-210 236h175l123 -140l151 140h183l-272 -236h-150z" />
    <glyph glyph-name="uni030F" unicode="&#x30f;" 
d="M387 1155l-246 291h210l191 -291h-155zM678 1155l-201 291h205l151 -291h-155z" />
    <glyph glyph-name="uni0311" unicode="&#x311;" 
d="M104 1169q27 66 75 117t113.5 80.5t142.5 29.5q80 0 138 -31t93 -82.5t45 -113.5h-142q-17 38 -51 71.5t-98 33.5q-46 0 -79.5 -17t-56.5 -41.5t-39 -46.5h-141z" />
    <glyph glyph-name="uni0312" unicode="&#x312;" 
d="M547 1155l27 190l118 147h92l-117 -158h79l-26 -179h-173z" />
    <glyph glyph-name="uni031B" unicode="&#x31b;" 
d="M59 936l18 124q45 -1 77 3.5t54.5 23.5t39.5 59t31 110h155q-19 -125 -61 -200.5t-118 -104.5t-196 -15z" />
    <glyph glyph-name="dotbelowcomb" unicode="&#x323;" 
d="M-114 -369l28 194h206l-28 -194h-206z" />
    <glyph glyph-name="uni0326" unicode="&#x326;" 
d="M-127 -397l99 131l-64 7l23 163h199l-20 -137l-156 -164h-81z" />
    <glyph glyph-name="uni0327" unicode="&#x327;" 
d="M87 -415q-54 0 -101 12t-85 39l45 83q23 -19 54.5 -33.5t73.5 -14.5q50 0 77.5 18.5t32.5 51.5q7 43 -26 64t-116 23q-11 0 -14 3t4 12l93 167h103l-61 -120q66 -2 101.5 -25t47 -56.5t7.5 -67.5q-8 -50 -42.5 -85t-85.5 -53t-108 -18z" />
    <glyph glyph-name="uni0328" unicode="&#x328;" 
d="M104 -333q-95 0 -139 42t-33 118q8 58 54 105.5t164 85.5l150 -10q-105 -42 -151 -77.5t-54 -82.5q-3 -35 13 -53t59 -18q46 0 82.5 13t60.5 26l-16 -106q-27 -16 -79 -29.5t-111 -13.5z" />
    <glyph glyph-name="pi" unicode="&#x3c0;" horiz-adv-x="1332" 
d="M143 0q27 83 52.5 186t48 217t37 230.5t18.5 226.5q2 20 -15 20h-175l15 154h1215l-15 -154h-216l-47 -880h-207l46 880h-395q-4 -116 -20 -240.5t-39 -244t-50.5 -222t-55.5 -173.5h-197z" />
    <glyph glyph-name="uni1E0C" unicode="&#x1e0c;" horiz-adv-x="1363" 
d="M112 0l205 1446q8 0 69 -0.5t138 -0.5q137 -1 255.5 -15.5t213.5 -50.5t162.5 -99t103.5 -159t36 -231q0 -100 -16 -204.5t-53.5 -204t-100 -186.5t-156 -153t-221 -104t-296.5 -38h-340zM352 180h118q157 0 271.5 53.5t188.5 149t110 223t36 276.5q0 142 -51 226
t-147.5 121t-234.5 37h-134zM358 -369l28 194h206l-28 -194h-206z" />
    <glyph glyph-name="uni1E0D" unicode="&#x1e0d;" horiz-adv-x="1166" 
d="M435 -20q-195 0 -288 139.5t-58 402.5q32 242 153.5 387t319.5 145q65 0 115 -17t85.5 -44t58.5 -58t33 -58l82 609h213l-201 -1486h-157l5 212q-15 -34 -42.5 -74t-70.5 -76t-104 -59t-144 -23zM498 141q136 0 208.5 90.5t101.5 297.5q14 117 -1.5 198t-65.5 122.5
t-139 41.5q-112 0 -195 -85.5t-108 -276.5q-25 -188 26.5 -288t172.5 -100zM340 -369l28 194h206l-28 -194h-206z" />
    <glyph glyph-name="uni1E24" unicode="&#x1e24;" horiz-adv-x="1489" 
d="M110 0l204 1446h211l-86 -606h702l85 606h211l-204 -1446h-210l92 654h-702l-92 -654h-211zM518 -369l28 194h206l-28 -194h-206z" />
    <glyph glyph-name="uni1E25" unicode="&#x1e25;" horiz-adv-x="1140" 
d="M81 0l207 1486h208l-83 -595q45 62 124 108t197 46q96 0 169 -39t109.5 -109t23.5 -163l-102 -734h-211l97 697q12 83 -38.5 130t-138.5 47q-61 0 -116 -21.5t-93.5 -63t-46.5 -103.5l-96 -686h-210zM363 -369l28 194h206l-28 -194h-206z" />
    <glyph glyph-name="uni1E44" unicode="&#x1e44;" horiz-adv-x="1483" 
d="M110 0l211 1446h204l540 -1078l155 1078h211l-212 -1446h-187l-552 1101l-159 -1101h-211zM804 1663l28 195h206l-28 -195h-206z" />
    <glyph glyph-name="uni1E45" unicode="&#x1e45;" horiz-adv-x="1129" 
d="M73 0l151 1034h203l-19 -141q34 42 79 77t105.5 56t138.5 21q94 0 166 -42.5t107.5 -124t18.5 -198.5l-100 -682h-210l96 660q16 103 -32.5 158.5t-134.5 55.5q-60 0 -116.5 -21t-95.5 -62t-47 -103l-101 -688h-209zM587 1251l28 195h206l-28 -195h-206z" />
    <glyph glyph-name="uni1E5A" unicode="&#x1e5a;" horiz-adv-x="1321" 
d="M110 0l210 1446h549q154 0 248.5 -49.5t131 -140.5t18.5 -215q-17 -117 -66 -195t-115.5 -127t-135.5 -77l172 -642h-219l-155 605h-340l-88 -605h-210zM433 778h286q93 0 164 29t114 85.5t55 138.5q17 120 -45 182t-182 62h-320zM433 -369l28 194h206l-28 -194h-206z
" />
    <glyph glyph-name="uni1E5B" unicode="&#x1e5b;" horiz-adv-x="768" 
d="M72 0l146 1034h202l-30 -212q35 76 87 127.5t115 78t131 26.5q19 0 36.5 -2.5t26.5 -8.5l-29 -206q-11 6 -30 8t-32 3q-88 6 -157 -16.5t-112 -75t-55 -134.5l-87 -622h-212zM15 -369l28 194h206l-28 -194h-206z" />
    <glyph glyph-name="uni1E62" unicode="&#x1e62;" horiz-adv-x="1329" 
d="M598 -20q-100 0 -191.5 25.5t-162 76.5t-110 128.5t-37.5 181.5h222q5 -78 45.5 -131t107 -80t150.5 -27q91 0 167.5 26.5t126 76t58.5 119.5q9 63 -14.5 107t-73 73.5t-121.5 46.5l-253 62q-152 34 -228 126.5t-56 245.5q17 128 97 224t203 149.5t270 53.5
q161 0 268 -61.5t158 -159t41 -203.5h-218q4 92 -31.5 146t-98.5 77.5t-143 23.5q-77 0 -146 -26.5t-115.5 -77.5t-56.5 -124q-10 -74 31.5 -120t164.5 -79l247 -61q109 -24 171.5 -70.5t91 -105.5t33 -122.5t-3.5 -121.5q-15 -112 -92.5 -202.5t-205.5 -143.5t-295 -53z
M425 -369l28 194h206l-28 -194h-206z" />
    <glyph glyph-name="uni1E63" unicode="&#x1e63;" horiz-adv-x="994" 
d="M438 -20q-104 0 -190 34t-137 107t-51 187h188q4 -59 33.5 -97.5t76 -57t101.5 -18.5q93 0 155.5 35.5t72.5 109.5q8 53 -19 85t-92 47l-188 49q-120 30 -185 95.5t-49 183.5q13 91 66.5 162t146 111.5t221.5 40.5q168 0 260 -78t75 -226h-182q0 71 -46 111.5t-130 40.5
q-88 0 -148.5 -36.5t-70.5 -111.5q-7 -51 29.5 -80.5t115.5 -48.5l180 -49q70 -20 113 -52.5t64.5 -71.5t26.5 -81t-1 -79q-13 -98 -70.5 -167.5t-150.5 -107t-215 -37.5zM284 -369l28 194h206l-28 -194h-206z" />
    <glyph glyph-name="uni1E6C" unicode="&#x1e6c;" horiz-adv-x="1155" 
d="M403 0l180 1251h-434l29 195h1060l-27 -195h-417l-182 -1251h-209zM363 -367l28 194h206l-28 -194h-206z" />
    <glyph glyph-name="uni1E6D" unicode="&#x1e6d;" horiz-adv-x="773" 
d="M450 -7q-112 0 -168.5 31t-72.5 89.5t-4 141.5l90 625h-160l23 154h165l81 304h168l-43 -303h222l-23 -155h-222l-88 -612q-11 -75 12.5 -95.5t81.5 -20.5h115l-20 -139q-20 -8 -58.5 -14t-98.5 -6zM228 -361l28 194h206l-28 -194h-206z" />
    <glyph glyph-name="Wgrave" unicode="&#x1e80;" horiz-adv-x="1834" 
d="M366 0l-189 1446h210l130 -1098l450 1098h158l137 -1098l450 1098h207l-614 -1446h-182l-132 1073l-447 -1073h-178zM985 1567l-270 291h229l197 -291h-156z" />
    <glyph glyph-name="wgrave" unicode="&#x1e81;" horiz-adv-x="1497" 
d="M278 0l-159 1034h191l104 -753h13l318 753h154l107 -751h13l314 751h191l-457 -1034h-188l-106 726l-309 -726h-186zM767 1155l-270 291h229l197 -291h-156z" />
    <glyph glyph-name="Wacute" unicode="&#x1e82;" horiz-adv-x="1834" 
d="M366 0l-189 1446h210l130 -1098l450 1098h158l137 -1098l450 1098h207l-614 -1446h-182l-132 1073l-447 -1073h-178zM969 1567l236 291h234l-308 -291h-162z" />
    <glyph glyph-name="wacute" unicode="&#x1e83;" horiz-adv-x="1497" 
d="M278 0l-159 1034h191l104 -753h13l318 753h154l107 -751h13l314 751h191l-457 -1034h-188l-106 726l-309 -726h-186zM751 1155l236 291h234l-308 -291h-162z" />
    <glyph glyph-name="Wdieresis" unicode="&#x1e84;" horiz-adv-x="1834" 
d="M366 0l-189 1446h210l130 -1098l450 1098h158l137 -1098l450 1098h207l-614 -1446h-182l-132 1073l-447 -1073h-178zM1156 1663l29 195h206l-29 -195h-206zM791 1663l29 195h206l-29 -195h-206z" />
    <glyph glyph-name="wdieresis" unicode="&#x1e85;" horiz-adv-x="1497" 
d="M278 0l-159 1034h191l104 -753h13l318 753h154l107 -751h13l314 751h191l-457 -1034h-188l-106 726l-309 -726h-186zM938 1251l29 195h206l-29 -195h-206zM573 1251l29 195h206l-29 -195h-206z" />
    <glyph glyph-name="uni1E92" unicode="&#x1e92;" horiz-adv-x="1254" 
d="M49 0l18 113l901 1149h-699l28 184h996l-16 -108l-912 -1152h740l-29 -186h-1027zM425 -369l28 194h206l-28 -194h-206z" />
    <glyph glyph-name="uni1E93" unicode="&#x1e93;" horiz-adv-x="941" 
d="M2 0l16 128l642 751h-499l22 155h753l-16 -128l-642 -751h539l-22 -155h-793zM227 -369l28 194h206l-28 -194h-206z" />
    <glyph glyph-name="uni1EA0" unicode="&#x1ea0;" horiz-adv-x="1378" 
d="M5 0l707 1446h230l286 -1446h-212l-72 379h-542l-185 -379h-212zM481 573h438l-121 663zM462 -369l28 194h206l-28 -194h-206z" />
    <glyph glyph-name="uni1EA1" unicode="&#x1ea1;" horiz-adv-x="1106" 
d="M349 -20q-96 0 -165 36t-101 104t-19 164q25 172 154 257t386 90l158 5l12 75q13 93 -36 142t-142 48q-76 0 -145.5 -40t-100.5 -123h-180q19 94 81.5 165.5t159.5 111t218 39.5q134 0 216 -41t114.5 -115t17.5 -175l-105 -723h-177l9 184q-73 -118 -162 -161t-193 -43z
M436 129q45 0 92.5 17.5t88 48t68.5 68.5t34 78l24 171l-130 -3q-99 -1 -172 -22t-117 -65t-55 -117q-11 -83 36 -129.5t131 -46.5zM307 -369l28 194h206l-28 -194h-206z" />
    <glyph glyph-name="uni1EA2" unicode="&#x1ea2;" horiz-adv-x="1378" 
d="M5 0l707 1446h230l286 -1446h-212l-72 379h-542l-185 -379h-212zM481 573h438l-121 663zM904 1543l-42 91q43 27 63.5 62.5t5.5 69.5q-13 32 -52.5 32t-80.5 -26l-43 90q91 55 169 43.5t109 -76.5q37 -78 3 -154t-132 -132z" />
    <glyph glyph-name="uni1EA3" unicode="&#x1ea3;" horiz-adv-x="1106" 
d="M349 -20q-96 0 -165 36t-101 104t-19 164q25 172 154 257t386 90l158 5l12 75q13 93 -36 142t-142 48q-76 0 -145.5 -40t-100.5 -123h-180q19 94 81.5 165.5t159.5 111t218 39.5q134 0 216 -41t114.5 -115t17.5 -175l-105 -723h-177l9 184q-73 -118 -162 -161t-193 -43z
M436 129q45 0 92.5 17.5t88 48t68.5 68.5t34 78l24 171l-130 -3q-99 -1 -172 -22t-117 -65t-55 -117q-11 -83 36 -129.5t131 -46.5zM698 1132l-42 91q43 27 63.5 62.5t5.5 69.5q-13 32 -52.5 32t-80.5 -26l-43 90q91 55 169 43.5t109 -76.5q37 -78 3 -154t-132 -132z" />
    <glyph glyph-name="uni1EA4" unicode="&#x1ea4;" horiz-adv-x="1378" 
d="M5 0l707 1446h230l286 -1446h-212l-72 379h-542l-185 -379h-212zM481 573h438l-121 663zM534 1567l259 234h148l224 -234h-185l-120 133l-152 -133h-174zM1061 1784l123 228h190l-188 -228h-125z" />
    <glyph glyph-name="uni1EA5" unicode="&#x1ea5;" horiz-adv-x="1085" 
d="M349 -20q-96 0 -165 36t-101 104t-19 164q25 172 154 257t386 90l158 5l12 75q13 93 -36 142t-142 48q-76 0 -145.5 -40t-100.5 -123h-180q19 94 81.5 165.5t159.5 111t218 39.5q134 0 216 -41t114.5 -115t17.5 -175l-105 -723h-177l9 184q-73 -118 -162 -161t-193 -43z
M436 129q45 0 92.5 17.5t88 48t68.5 68.5t34 78l24 171l-130 -3q-99 -1 -172 -22t-117 -65t-55 -117q-11 -83 36 -129.5t131 -46.5zM337 1155l259 234h148l224 -234h-185l-120 133l-152 -133h-174zM864 1372l123 228h190l-188 -228h-125z" />
    <glyph glyph-name="uni1EA6" unicode="&#x1ea6;" horiz-adv-x="1378" 
d="M5 0l707 1446h230l286 -1446h-212l-72 379h-542l-185 -379h-212zM481 573h438l-121 663zM531 1567l259 234h148l224 -234h-185l-120 133l-152 -133h-174zM1124 1780l-146 228h183l84 -228h-121z" />
    <glyph glyph-name="uni1EA7" unicode="&#x1ea7;" horiz-adv-x="1091" 
d="M349 -20q-96 0 -165 36t-101 104t-19 164q25 172 154 257t386 90l158 5l12 75q13 93 -36 142t-142 48q-76 0 -145.5 -40t-100.5 -123h-180q19 94 81.5 165.5t159.5 111t218 39.5q134 0 216 -41t114.5 -115t17.5 -175l-105 -723h-177l9 184q-73 -118 -162 -161t-193 -43z
M436 129q45 0 92.5 17.5t88 48t68.5 68.5t34 78l24 171l-130 -3q-99 -1 -172 -22t-117 -65t-55 -117q-11 -83 36 -129.5t131 -46.5zM324 1155l259 234h148l224 -234h-185l-120 133l-152 -133h-174zM917 1368l-146 228h183l84 -228h-121z" />
    <glyph glyph-name="uni1EA8" unicode="&#x1ea8;" horiz-adv-x="1378" 
d="M5 0l707 1446h230l286 -1446h-212l-72 379h-542l-185 -379h-212zM481 573h438l-121 663zM519 1567l259 234h148l224 -234h-185l-120 133l-152 -133h-174zM1085 1708l-43 90q43 27 63.5 62.5t6.5 69.5q-14 32 -53 32t-81 -26l-43 90q92 55 169.5 43.5t108.5 -76.5
q38 -78 3.5 -154t-131.5 -131z" />
    <glyph glyph-name="uni1EA9" unicode="&#x1ea9;" horiz-adv-x="1103" 
d="M349 -20q-96 0 -165 36t-101 104t-19 164q25 172 154 257t386 90l158 5l12 75q13 93 -36 142t-142 48q-76 0 -145.5 -40t-100.5 -123h-180q19 94 81.5 165.5t159.5 111t218 39.5q134 0 216 -41t114.5 -115t17.5 -175l-105 -723h-177l9 184q-73 -118 -162 -161t-193 -43z
M436 129q45 0 92.5 17.5t88 48t68.5 68.5t34 78l24 171l-130 -3q-99 -1 -172 -22t-117 -65t-55 -117q-11 -83 36 -129.5t131 -46.5zM322 1155l259 234h148l224 -234h-185l-120 133l-152 -133h-174zM888 1296l-43 90q43 27 63.5 62.5t6.5 69.5q-14 32 -53 32t-81 -26l-43 90
q92 55 169.5 43.5t108.5 -76.5q38 -78 3.5 -154t-131.5 -131z" />
    <glyph glyph-name="uni1EAA" unicode="&#x1eaa;" horiz-adv-x="1378" 
d="M5 0l707 1446h230l286 -1446h-212l-72 379h-542l-185 -379h-212zM481 573h438l-121 663zM543 1567l259 234h148l224 -234h-185l-120 133l-152 -133h-174zM616 1904l-20 112q38 34 79 57.5t100 23.5q48 0 89.5 -14t81 -28.5t81.5 -14.5q45 0 81.5 18.5t68.5 41.5l14 -129
q-29 -21 -75.5 -41t-108.5 -20q-51 0 -88.5 13t-73.5 26.5t-81 13.5q-48 0 -80 -16.5t-68 -42.5z" />
    <glyph glyph-name="uni1EAB" unicode="&#x1eab;" horiz-adv-x="1106" 
d="M349 -20q-96 0 -165 36t-101 104t-19 164q25 172 154 257t386 90l158 5l12 75q13 93 -36 142t-142 48q-76 0 -145.5 -40t-100.5 -123h-180q19 94 81.5 165.5t159.5 111t218 39.5q134 0 216 -41t114.5 -115t17.5 -175l-105 -723h-177l9 184q-73 -118 -162 -161t-193 -43z
M436 129q45 0 92.5 17.5t88 48t68.5 68.5t34 78l24 171l-130 -3q-99 -1 -172 -22t-117 -65t-55 -117q-11 -83 36 -129.5t131 -46.5zM336 1155l259 234h148l224 -234h-185l-120 133l-152 -133h-174zM409 1492l-20 112q38 34 79 57.5t100 23.5q48 0 89.5 -14t81 -28.5
t81.5 -14.5q45 0 81.5 18.5t68.5 41.5l14 -129q-29 -21 -75.5 -41t-108.5 -20q-51 0 -88.5 13t-73.5 26.5t-81 13.5q-48 0 -80 -16.5t-68 -42.5z" />
    <glyph glyph-name="uni1EAC" unicode="&#x1eac;" horiz-adv-x="1378" 
d="M5 0l707 1446h230l286 -1446h-212l-72 379h-542l-185 -379h-212zM481 573h438l-121 663zM462 -369l28 194h206l-28 -194h-206zM529 1567l259 234h148l224 -234h-185l-120 133l-152 -133h-174z" />
    <glyph glyph-name="uni1EAD" unicode="&#x1ead;" horiz-adv-x="1106" 
d="M349 -20q-96 0 -165 36t-101 104t-19 164q25 172 154 257t386 90l158 5l12 75q13 93 -36 142t-142 48q-76 0 -145.5 -40t-100.5 -123h-180q19 94 81.5 165.5t159.5 111t218 39.5q134 0 216 -41t114.5 -115t17.5 -175l-105 -723h-177l9 184q-73 -118 -162 -161t-193 -43z
M436 129q45 0 92.5 17.5t88 48t68.5 68.5t34 78l24 171l-130 -3q-99 -1 -172 -22t-117 -65t-55 -117q-11 -83 36 -129.5t131 -46.5zM307 -369l28 194h206l-28 -194h-206zM323 1155l259 234h148l224 -234h-185l-120 133l-152 -133h-174z" />
    <glyph glyph-name="uni1EAE" unicode="&#x1eae;" horiz-adv-x="1378" 
d="M5 0l707 1446h230l286 -1446h-212l-72 379h-542l-185 -379h-212zM481 573h438l-121 663zM884 1567q-77 0 -134.5 29.5t-91.5 80.5t-42 117h142q9 -22 25.5 -46.5t45 -41.5t73.5 -17q65 0 108 33.5t71 71.5h143q-28 -62 -77 -113.5t-116 -82.5t-147 -31zM854 1850l122 228
h190l-188 -228h-124z" />
    <glyph glyph-name="uni1EAF" unicode="&#x1eaf;" horiz-adv-x="1106" 
d="M349 -20q-96 0 -165 36t-101 104t-19 164q25 172 154 257t386 90l158 5l12 75q13 93 -36 142t-142 48q-76 0 -145.5 -40t-100.5 -123h-180q19 94 81.5 165.5t159.5 111t218 39.5q134 0 216 -41t114.5 -115t17.5 -175l-105 -723h-177l9 184q-73 -118 -162 -161t-193 -43z
M436 129q45 0 92.5 17.5t88 48t68.5 68.5t34 78l24 171l-130 -3q-99 -1 -172 -22t-117 -65t-55 -117q-11 -83 36 -129.5t131 -46.5zM679 1155q-77 0 -134.5 29.5t-91.5 80.5t-42 117h142q9 -22 25.5 -46.5t45 -41.5t73.5 -17q65 0 108 33.5t71 71.5h143q-28 -62 -77 -113.5
t-116 -82.5t-147 -31zM649 1438l122 228h190l-188 -228h-124z" />
    <glyph glyph-name="uni1EB0" unicode="&#x1eb0;" horiz-adv-x="1378" 
d="M5 0l707 1446h230l286 -1446h-212l-72 379h-542l-185 -379h-212zM481 573h438l-121 663zM881 1567q-77 0 -134.5 29.5t-91.5 80.5t-42 117h142q9 -22 25.5 -46.5t45 -41.5t73.5 -17q65 0 108 33.5t71 71.5h143q-28 -62 -77 -113.5t-116 -82.5t-147 -31zM860 1850
l-147 228h183l84 -228h-120z" />
    <glyph glyph-name="uni1EB1" unicode="&#x1eb1;" horiz-adv-x="1106" 
d="M349 -20q-96 0 -165 36t-101 104t-19 164q25 172 154 257t386 90l158 5l12 75q13 93 -36 142t-142 48q-76 0 -145.5 -40t-100.5 -123h-180q19 94 81.5 165.5t159.5 111t218 39.5q134 0 216 -41t114.5 -115t17.5 -175l-105 -723h-177l9 184q-73 -118 -162 -161t-193 -43z
M436 129q45 0 92.5 17.5t88 48t68.5 68.5t34 78l24 171l-130 -3q-99 -1 -172 -22t-117 -65t-55 -117q-11 -83 36 -129.5t131 -46.5zM675 1155q-77 0 -134.5 29.5t-91.5 80.5t-42 117h142q9 -22 25.5 -46.5t45 -41.5t73.5 -17q65 0 108 33.5t71 71.5h143q-28 -62 -77 -113.5
t-116 -82.5t-147 -31zM654 1438l-147 228h183l84 -228h-120z" />
    <glyph glyph-name="uni1EB2" unicode="&#x1eb2;" horiz-adv-x="1378" 
d="M5 0l707 1446h230l286 -1446h-212l-72 379h-542l-185 -379h-212zM481 573h438l-121 663zM844 1567q-77 0 -134.5 29.5t-91.5 80.5t-42 117h142q9 -22 25.5 -46.5t45 -41.5t73.5 -17q65 0 108 33.5t71 71.5h143q-28 -62 -77 -113.5t-116 -82.5t-147 -31zM885 1759l-43 91
q44 26 64 61.5t6 69.5q-14 32 -53 32t-81 -26l-43 90q76 46 144 46q98 0 134 -79q38 -78 3.5 -153.5t-131.5 -131.5z" />
    <glyph glyph-name="uni1EB3" unicode="&#x1eb3;" horiz-adv-x="1106" 
d="M349 -20q-96 0 -165 36t-101 104t-19 164q25 172 154 257t386 90l158 5l12 75q13 93 -36 142t-142 48q-76 0 -145.5 -40t-100.5 -123h-180q19 94 81.5 165.5t159.5 111t218 39.5q134 0 216 -41t114.5 -115t17.5 -175l-105 -723h-177l9 184q-73 -118 -162 -161t-193 -43z
M436 129q45 0 92.5 17.5t88 48t68.5 68.5t34 78l24 171l-130 -3q-99 -1 -172 -22t-117 -65t-55 -117q-11 -83 36 -129.5t131 -46.5zM656 1155q-77 0 -134.5 29.5t-91.5 80.5t-42 117h142q9 -22 25.5 -46.5t45 -41.5t73.5 -17q65 0 108 33.5t71 71.5h143q-28 -62 -77 -113.5
t-116 -82.5t-147 -31zM697 1347l-43 91q44 26 64 61.5t6 69.5q-14 32 -53 32t-81 -26l-43 90q76 46 144 46q98 0 134 -79q38 -78 3.5 -153.5t-131.5 -131.5z" />
    <glyph glyph-name="uni1EB4" unicode="&#x1eb4;" horiz-adv-x="1378" 
d="M5 0l707 1446h230l286 -1446h-212l-72 379h-542l-185 -379h-212zM481 573h438l-121 663zM880 1567q-78 0 -135.5 29.5t-91.5 80.5t-41 117h141q10 -22 26 -46.5t44.5 -41.5t74.5 -17q64 0 107.5 33.5t71.5 71.5h142q-27 -62 -76.5 -113.5t-116.5 -82.5t-146 -31z
M627 1909l-20 111q38 35 79 58.5t100 23.5q48 0 89.5 -14.5t81 -28.5t81.5 -14q45 0 81.5 18.5t68.5 40.5l14 -128q-29 -21 -75.5 -41.5t-108.5 -20.5q-51 0 -88.5 13.5t-73.5 26.5t-81 13q-48 0 -80 -16t-68 -42z" />
    <glyph glyph-name="uni1EB5" unicode="&#x1eb5;" horiz-adv-x="1106" 
d="M349 -20q-96 0 -165 36t-101 104t-19 164q25 172 154 257t386 90l158 5l12 75q13 93 -36 142t-142 48q-76 0 -145.5 -40t-100.5 -123h-180q19 94 81.5 165.5t159.5 111t218 39.5q134 0 216 -41t114.5 -115t17.5 -175l-105 -723h-177l9 184q-73 -118 -162 -161t-193 -43z
M436 129q45 0 92.5 17.5t88 48t68.5 68.5t34 78l24 171l-130 -3q-99 -1 -172 -22t-117 -65t-55 -117q-11 -83 36 -129.5t131 -46.5zM671 1155q-78 0 -135.5 29.5t-91.5 80.5t-41 117h141q10 -22 26 -46.5t44.5 -41.5t74.5 -17q64 0 107.5 33.5t71.5 71.5h142
q-27 -62 -76.5 -113.5t-116.5 -82.5t-146 -31zM418 1497l-20 111q38 35 79 58.5t100 23.5q48 0 89.5 -14.5t81 -28.5t81.5 -14q45 0 81.5 18.5t68.5 40.5l14 -128q-29 -21 -75.5 -41.5t-108.5 -20.5q-51 0 -88.5 13.5t-73.5 26.5t-81 13q-48 0 -80 -16t-68 -42z" />
    <glyph glyph-name="uni1EB6" unicode="&#x1eb6;" horiz-adv-x="1378" 
d="M5 0l707 1446h230l286 -1446h-212l-72 379h-542l-185 -379h-212zM481 573h438l-121 663zM462 -369l28 194h206l-28 -194h-206zM842 1567q-77 0 -134.5 29.5t-91.5 80.5t-42 117h142q9 -22 25.5 -46.5t45 -41.5t73.5 -17q65 0 108 33.5t71 71.5h143q-28 -62 -77 -113.5
t-116 -82.5t-147 -31z" />
    <glyph glyph-name="uni1EB7" unicode="&#x1eb7;" horiz-adv-x="1078" 
d="M349 -20q-96 0 -165 36t-101 104t-19 164q25 172 154 257t386 90l158 5l12 75q13 93 -36 142t-142 48q-76 0 -145.5 -40t-100.5 -123h-180q19 94 81.5 165.5t159.5 111t218 39.5q134 0 216 -41t114.5 -115t17.5 -175l-105 -723h-177l9 184q-73 -118 -162 -161t-193 -43z
M436 129q45 0 92.5 17.5t88 48t68.5 68.5t34 78l24 171l-130 -3q-99 -1 -172 -22t-117 -65t-55 -117q-11 -83 36 -129.5t131 -46.5zM307 -369l28 194h206l-28 -194h-206zM635 1153q-77 0 -134.5 29.5t-91.5 80.5t-42 117h142q9 -22 25.5 -46.5t45 -41.5t73.5 -17
q65 0 108 33.5t71 71.5h143q-28 -62 -77 -113.5t-116 -82.5t-147 -31z" />
    <glyph glyph-name="uni1EB8" unicode="&#x1eb8;" horiz-adv-x="1217" 
d="M110 0l211 1446h894l-29 -186h-682l-63 -439h607l-27 -183h-608l-65 -449l700 -1l-29 -188h-909zM414 -369l28 194h206l-28 -194h-206z" />
    <glyph glyph-name="uni1EB9" unicode="&#x1eb9;" horiz-adv-x="1099" 
d="M493 -20q-141 0 -238.5 63.5t-140 181.5t-18.5 281q23 161 95.5 284.5t185.5 193.5t259 70q144 0 233 -64t123 -179.5t11 -272.5l-10 -71h-693q-14 -93 4.5 -166.5t70.5 -116t139 -42.5t156.5 42t101.5 125h194q-33 -106 -107.5 -180t-170.5 -111.5t-195 -37.5zM319 606
h495q12 81 -5 147.5t-65.5 105t-131.5 38.5t-145 -43t-99.5 -110t-48.5 -138zM337 -369l28 194h206l-28 -194h-206z" />
    <glyph glyph-name="uni1EBA" unicode="&#x1eba;" horiz-adv-x="1217" 
d="M110 0l211 1446h894l-29 -186h-682l-63 -439h607l-27 -183h-608l-65 -449l700 -1l-29 -188h-909zM825 1543l-42 91q43 27 63.5 62.5t5.5 69.5q-13 32 -52.5 32t-80.5 -26l-43 90q91 55 169 43.5t109 -76.5q37 -78 3 -154t-132 -132z" />
    <glyph glyph-name="uni1EBB" unicode="&#x1ebb;" horiz-adv-x="1099" 
d="M493 -20q-141 0 -238.5 63.5t-140 181.5t-18.5 281q23 161 95.5 284.5t185.5 193.5t259 70q144 0 233 -64t123 -179.5t11 -272.5l-10 -71h-693q-14 -93 4.5 -166.5t70.5 -116t139 -42.5t156.5 42t101.5 125h194q-33 -106 -107.5 -180t-170.5 -111.5t-195 -37.5zM319 606
h495q12 81 -5 147.5t-65.5 105t-131.5 38.5t-145 -43t-99.5 -110t-48.5 -138zM711 1131l-42 91q43 27 63.5 62.5t5.5 69.5q-13 32 -52.5 32t-80.5 -26l-43 90q91 55 169 43.5t109 -76.5q37 -78 3 -154t-132 -132z" />
    <glyph glyph-name="uni1EBC" unicode="&#x1ebc;" horiz-adv-x="1217" 
d="M110 0l211 1446h894l-29 -186h-682l-63 -439h607l-27 -183h-608l-65 -449l700 -1l-29 -188h-909zM514 1627l-20 112q39 34 80 57.5t99 23.5q49 0 90 -14t80.5 -28.5t82.5 -14.5q44 0 80.5 18.5t68.5 41.5l14 -129q-29 -21 -75.5 -41t-107.5 -20q-52 0 -89.5 13
t-73.5 26.5t-81 13.5q-47 0 -79.5 -16.5t-68.5 -42.5z" />
    <glyph glyph-name="uni1EBD" unicode="&#x1ebd;" horiz-adv-x="1099" 
d="M493 -20q-141 0 -238.5 63.5t-140 181.5t-18.5 281q23 161 95.5 284.5t185.5 193.5t259 70q144 0 233 -64t123 -179.5t11 -272.5l-10 -71h-693q-14 -93 4.5 -166.5t70.5 -116t139 -42.5t156.5 42t101.5 125h194q-33 -106 -107.5 -180t-170.5 -111.5t-195 -37.5zM319 606
h495q12 81 -5 147.5t-65.5 105t-131.5 38.5t-145 -43t-99.5 -110t-48.5 -138zM400 1215l-20 112q39 34 80 57.5t99 23.5q49 0 90 -14t80.5 -28.5t82.5 -14.5q44 0 80.5 18.5t68.5 41.5l14 -129q-29 -21 -75.5 -41t-107.5 -20q-52 0 -89.5 13t-73.5 26.5t-81 13.5
q-47 0 -79.5 -16.5t-68.5 -42.5z" />
    <glyph glyph-name="uni1EBE" unicode="&#x1ebe;" horiz-adv-x="1217" 
d="M110 0l211 1446h894l-29 -186h-682l-63 -439h607l-27 -183h-608l-65 -449l700 -1l-29 -188h-909zM455 1567l259 234h148l224 -234h-185l-120 133l-152 -133h-174zM982 1784l123 228h190l-188 -228h-125z" />
    <glyph glyph-name="uni1EBF" unicode="&#x1ebf;" horiz-adv-x="1099" 
d="M493 -20q-141 0 -238.5 63.5t-140 181.5t-18.5 281q23 161 95.5 284.5t185.5 193.5t259 70q144 0 233 -64t123 -179.5t11 -272.5l-10 -71h-693q-14 -93 4.5 -166.5t70.5 -116t139 -42.5t156.5 42t101.5 125h194q-33 -106 -107.5 -180t-170.5 -111.5t-195 -37.5zM319 606
h495q12 81 -5 147.5t-65.5 105t-131.5 38.5t-145 -43t-99.5 -110t-48.5 -138zM341 1155l259 234h148l224 -234h-185l-120 133l-152 -133h-174zM868 1372l123 228h190l-188 -228h-125z" />
    <glyph glyph-name="uni1EC0" unicode="&#x1ec0;" horiz-adv-x="1217" 
d="M110 0l211 1446h894l-29 -186h-682l-63 -439h607l-27 -183h-608l-65 -449l700 -1l-29 -188h-909zM451 1567l259 234h148l224 -234h-185l-120 133l-152 -133h-174zM1044 1780l-146 228h183l84 -228h-121z" />
    <glyph glyph-name="uni1EC1" unicode="&#x1ec1;" horiz-adv-x="1079" 
d="M493 -20q-141 0 -238.5 63.5t-140 181.5t-18.5 281q23 161 95.5 284.5t185.5 193.5t259 70q144 0 233 -64t123 -179.5t11 -272.5l-10 -71h-693q-14 -93 4.5 -166.5t70.5 -116t139 -42.5t156.5 42t101.5 125h194q-33 -106 -107.5 -180t-170.5 -111.5t-195 -37.5zM319 606
h495q12 81 -5 147.5t-65.5 105t-131.5 38.5t-145 -43t-99.5 -110t-48.5 -138zM326 1155l259 234h148l224 -234h-185l-120 133l-152 -133h-174zM919 1368l-146 228h183l84 -228h-121z" />
    <glyph glyph-name="uni1EC2" unicode="&#x1ec2;" horiz-adv-x="1217" 
d="M110 0l211 1446h894l-29 -186h-682l-63 -439h607l-27 -183h-608l-65 -449l700 -1l-29 -188h-909zM440 1567l259 234h148l224 -234h-185l-120 133l-152 -133h-174zM1006 1708l-43 90q43 27 63.5 62.5t6.5 69.5q-14 32 -53 32t-81 -26l-43 90q92 55 169.5 43.5t108.5 -76.5
q38 -78 3.5 -154t-131.5 -131z" />
    <glyph glyph-name="uni1EC3" unicode="&#x1ec3;" horiz-adv-x="1099" 
d="M493 -20q-141 0 -238.5 63.5t-140 181.5t-18.5 281q23 161 95.5 284.5t185.5 193.5t259 70q144 0 233 -64t123 -179.5t11 -272.5l-10 -71h-693q-14 -93 4.5 -166.5t70.5 -116t139 -42.5t156.5 42t101.5 125h194q-33 -106 -107.5 -180t-170.5 -111.5t-195 -37.5zM319 606
h495q12 81 -5 147.5t-65.5 105t-131.5 38.5t-145 -43t-99.5 -110t-48.5 -138zM326 1155l259 234h148l224 -234h-185l-120 133l-152 -133h-174zM892 1296l-43 90q43 27 63.5 62.5t6.5 69.5q-14 32 -53 32t-81 -26l-43 90q92 55 169.5 43.5t108.5 -76.5q38 -78 3.5 -154
t-131.5 -131z" />
    <glyph glyph-name="uni1EC4" unicode="&#x1ec4;" horiz-adv-x="1217" 
d="M110 0l211 1446h894l-29 -186h-682l-63 -439h607l-27 -183h-608l-65 -449l700 -1l-29 -188h-909zM464 1567l259 234h148l224 -234h-185l-120 133l-152 -133h-174zM537 1904l-20 112q38 34 79 57.5t100 23.5q48 0 89.5 -14t81 -28.5t81.5 -14.5q45 0 81.5 18.5t68.5 41.5
l14 -129q-29 -21 -75.5 -41t-108.5 -20q-51 0 -88.5 13t-73.5 26.5t-81 13.5q-48 0 -80 -16.5t-68 -42.5z" />
    <glyph glyph-name="uni1EC5" unicode="&#x1ec5;" horiz-adv-x="1099" 
d="M493 -20q-141 0 -238.5 63.5t-140 181.5t-18.5 281q23 161 95.5 284.5t185.5 193.5t259 70q144 0 233 -64t123 -179.5t11 -272.5l-10 -71h-693q-14 -93 4.5 -166.5t70.5 -116t139 -42.5t156.5 42t101.5 125h194q-33 -106 -107.5 -180t-170.5 -111.5t-195 -37.5zM319 606
h495q12 81 -5 147.5t-65.5 105t-131.5 38.5t-145 -43t-99.5 -110t-48.5 -138zM350 1155l259 234h148l224 -234h-185l-120 133l-152 -133h-174zM423 1492l-20 112q38 34 79 57.5t100 23.5q48 0 89.5 -14t81 -28.5t81.5 -14.5q45 0 81.5 18.5t68.5 41.5l14 -129
q-29 -21 -75.5 -41t-108.5 -20q-51 0 -88.5 13t-73.5 26.5t-81 13.5q-48 0 -80 -16.5t-68 -42.5z" />
    <glyph glyph-name="uni1EC6" unicode="&#x1ec6;" horiz-adv-x="1217" 
d="M110 0l211 1446h894l-29 -186h-682l-63 -439h607l-27 -183h-608l-65 -449l700 -1l-29 -188h-909zM414 -369l28 194h206l-28 -194h-206zM450 1567l259 234h148l224 -234h-185l-120 133l-152 -133h-174z" />
    <glyph glyph-name="uni1EC7" unicode="&#x1ec7;" horiz-adv-x="1099" 
d="M493 -20q-141 0 -238.5 63.5t-140 181.5t-18.5 281q23 161 95.5 284.5t185.5 193.5t259 70q144 0 233 -64t123 -179.5t11 -272.5l-10 -71h-693q-14 -93 4.5 -166.5t70.5 -116t139 -42.5t156.5 42t101.5 125h194q-33 -106 -107.5 -180t-170.5 -111.5t-195 -37.5zM319 606
h495q12 81 -5 147.5t-65.5 105t-131.5 38.5t-145 -43t-99.5 -110t-48.5 -138zM337 -369l28 194h206l-28 -194h-206zM336 1155l259 234h148l224 -234h-185l-120 133l-152 -133h-174z" />
    <glyph glyph-name="uni1EC8" unicode="&#x1ec8;" horiz-adv-x="584" 
d="M111 0l209 1446h211l-209 -1446h-211zM504 1543l-42 91q43 27 63.5 62.5t5.5 69.5q-13 32 -52.5 32t-80.5 -26l-43 90q91 55 169 43.5t109 -76.5q37 -78 3 -154t-132 -132z" />
    <glyph glyph-name="uni1EC9" unicode="&#x1ec9;" horiz-adv-x="500" 
d="M73 0l150 1034h211l-151 -1034h-210zM410 1131l-42 91q43 27 63.5 62.5t5.5 69.5q-13 32 -52.5 32t-80.5 -26l-43 90q91 55 169 43.5t109 -76.5q37 -78 3 -154t-132 -132z" />
    <glyph glyph-name="uni1ECA" unicode="&#x1eca;" horiz-adv-x="584" 
d="M111 0l209 1446h211l-209 -1446h-211zM71 -369l28 194h206l-28 -194h-206z" />
    <glyph glyph-name="uni1ECB" unicode="&#x1ecb;" horiz-adv-x="504" 
d="M77 0l146 1034h202l-145 -1034h-203zM247 1235l29 211h211l-29 -211h-211zM24 -369l28 194h206l-28 -194h-206z" />
    <glyph glyph-name="uni1ECC" unicode="&#x1ecc;" horiz-adv-x="1432" 
d="M639 -20q-190 0 -314 87.5t-173.5 252t-15.5 398.5q34 236 133.5 403t249.5 256t336 89t309 -88.5t173 -255t16 -402.5q-34 -234 -132 -399.5t-246.5 -253t-335.5 -87.5zM667 163q118 0 210.5 58t155 180.5t90.5 315.5q29 196 1.5 321.5t-103 185t-193.5 59.5
q-177 0 -298 -136t-164 -430q-28 -192 0.5 -314.5t105 -181t195.5 -58.5zM489 -369l28 194h206l-28 -194h-206z" />
    <glyph glyph-name="uni1ECD" unicode="&#x1ecd;" horiz-adv-x="1097" 
d="M474 -20q-139 0 -234 62.5t-135.5 181.5t-16.5 288q22 163 93.5 285t184.5 189.5t259 67.5q140 0 234 -63.5t133.5 -185t15.5 -293.5q-22 -157 -92 -277t-181.5 -187.5t-260.5 -67.5zM500 145q83 0 145 46.5t102 131t55 195.5q14 103 0.5 187.5t-62 134.5t-139.5 50
q-85 0 -148 -45.5t-102.5 -129t-54.5 -197.5q-14 -101 -0.5 -186t63 -136t141.5 -51zM303 -369l28 194h206l-28 -194h-206z" />
    <glyph glyph-name="uni1ECE" unicode="&#x1ece;" horiz-adv-x="1432" 
d="M639 -20q-190 0 -314 87.5t-173.5 252t-15.5 398.5q34 236 133.5 403t249.5 256t336 89t309 -88.5t173 -255t16 -402.5q-34 -234 -132 -399.5t-246.5 -253t-335.5 -87.5zM667 163q118 0 210.5 58t155 180.5t90.5 315.5q29 196 1.5 321.5t-103 185t-193.5 59.5
q-177 0 -298 -136t-164 -430q-28 -192 0.5 -314.5t105 -181t195.5 -58.5zM922 1543l-42 91q43 27 63.5 62.5t5.5 69.5q-13 32 -52.5 32t-80.5 -26l-43 90q91 55 169 43.5t109 -76.5q37 -78 3 -154t-132 -132z" />
    <glyph glyph-name="uni1ECF" unicode="&#x1ecf;" horiz-adv-x="1097" 
d="M474 -20q-139 0 -234 62.5t-135.5 181.5t-16.5 288q22 163 93.5 285t184.5 189.5t259 67.5q140 0 234 -63.5t133.5 -185t15.5 -293.5q-22 -157 -92 -277t-181.5 -187.5t-260.5 -67.5zM500 145q83 0 145 46.5t102 131t55 195.5q14 103 0.5 187.5t-62 134.5t-139.5 50
q-85 0 -148 -45.5t-102.5 -129t-54.5 -197.5q-14 -101 -0.5 -186t63 -136t141.5 -51zM681 1131l-42 91q43 27 63.5 62.5t5.5 69.5q-13 32 -52.5 32t-80.5 -26l-43 90q91 55 169 43.5t109 -76.5q37 -78 3 -154t-132 -132z" />
    <glyph glyph-name="uni1ED0" unicode="&#x1ed0;" horiz-adv-x="1432" 
d="M639 -20q-190 0 -314 87.5t-173.5 252t-15.5 398.5q34 236 133.5 403t249.5 256t336 89t309 -88.5t173 -255t16 -402.5q-34 -234 -132 -399.5t-246.5 -253t-335.5 -87.5zM667 163q118 0 210.5 58t155 180.5t90.5 315.5q29 196 1.5 321.5t-103 185t-193.5 59.5
q-177 0 -298 -136t-164 -430q-28 -192 0.5 -314.5t105 -181t195.5 -58.5zM551 1567l259 234h148l224 -234h-185l-120 133l-152 -133h-174zM1078 1784l123 228h190l-188 -228h-125z" />
    <glyph glyph-name="uni1ED1" unicode="&#x1ed1;" horiz-adv-x="1056" 
d="M474 -20q-139 0 -234 62.5t-135.5 181.5t-16.5 288q22 163 93.5 285t184.5 189.5t259 67.5q140 0 234 -63.5t133.5 -185t15.5 -293.5q-22 -157 -92 -277t-181.5 -187.5t-260.5 -67.5zM500 145q83 0 145 46.5t102 131t55 195.5q14 103 0.5 187.5t-62 134.5t-139.5 50
q-85 0 -148 -45.5t-102.5 -129t-54.5 -197.5q-14 -101 -0.5 -186t63 -136t141.5 -51zM302 1155l259 234h148l224 -234h-185l-120 133l-152 -133h-174zM829 1372l123 228h190l-188 -228h-125z" />
    <glyph glyph-name="uni1ED2" unicode="&#x1ed2;" horiz-adv-x="1432" 
d="M639 -20q-190 0 -314 87.5t-173.5 252t-15.5 398.5q34 236 133.5 403t249.5 256t336 89t309 -88.5t173 -255t16 -402.5q-34 -234 -132 -399.5t-246.5 -253t-335.5 -87.5zM667 163q118 0 210.5 58t155 180.5t90.5 315.5q29 196 1.5 321.5t-103 185t-193.5 59.5
q-177 0 -298 -136t-164 -430q-28 -192 0.5 -314.5t105 -181t195.5 -58.5zM548 1567l259 234h148l224 -234h-185l-120 133l-152 -133h-174zM1141 1780l-146 228h183l84 -228h-121z" />
    <glyph glyph-name="uni1ED3" unicode="&#x1ed3;" horiz-adv-x="1097" 
d="M474 -20q-139 0 -234 62.5t-135.5 181.5t-16.5 288q22 163 93.5 285t184.5 189.5t259 67.5q140 0 234 -63.5t133.5 -185t15.5 -293.5q-22 -157 -92 -277t-181.5 -187.5t-260.5 -67.5zM500 145q83 0 145 46.5t102 131t55 195.5q14 103 0.5 187.5t-62 134.5t-139.5 50
q-85 0 -148 -45.5t-102.5 -129t-54.5 -197.5q-14 -101 -0.5 -186t63 -136t141.5 -51zM307 1155l259 234h148l224 -234h-185l-120 133l-152 -133h-174zM900 1368l-146 228h183l84 -228h-121z" />
    <glyph glyph-name="uni1ED4" unicode="&#x1ed4;" horiz-adv-x="1432" 
d="M639 -20q-190 0 -314 87.5t-173.5 252t-15.5 398.5q34 236 133.5 403t249.5 256t336 89t309 -88.5t173 -255t16 -402.5q-34 -234 -132 -399.5t-246.5 -253t-335.5 -87.5zM667 163q118 0 210.5 58t155 180.5t90.5 315.5q29 196 1.5 321.5t-103 185t-193.5 59.5
q-177 0 -298 -136t-164 -430q-28 -192 0.5 -314.5t105 -181t195.5 -58.5zM537 1567l259 234h148l224 -234h-185l-120 133l-152 -133h-174zM1103 1708l-43 90q43 27 63.5 62.5t6.5 69.5q-14 32 -53 32t-81 -26l-43 90q92 55 169.5 43.5t108.5 -76.5q38 -78 3.5 -154
t-131.5 -131z" />
    <glyph glyph-name="uni1ED5" unicode="&#x1ed5;" horiz-adv-x="1097" 
d="M474 -20q-139 0 -234 62.5t-135.5 181.5t-16.5 288q22 163 93.5 285t184.5 189.5t259 67.5q140 0 234 -63.5t133.5 -185t15.5 -293.5q-22 -157 -92 -277t-181.5 -187.5t-260.5 -67.5zM500 145q83 0 145 46.5t102 131t55 195.5q14 103 0.5 187.5t-62 134.5t-139.5 50
q-85 0 -148 -45.5t-102.5 -129t-54.5 -197.5q-14 -101 -0.5 -186t63 -136t141.5 -51zM296 1155l259 234h148l224 -234h-185l-120 133l-152 -133h-174zM862 1296l-43 90q43 27 63.5 62.5t6.5 69.5q-14 32 -53 32t-81 -26l-43 90q92 55 169.5 43.5t108.5 -76.5
q38 -78 3.5 -154t-131.5 -131z" />
    <glyph glyph-name="uni1ED6" unicode="&#x1ed6;" horiz-adv-x="1432" 
d="M639 -20q-190 0 -314 87.5t-173.5 252t-15.5 398.5q34 236 133.5 403t249.5 256t336 89t309 -88.5t173 -255t16 -402.5q-34 -234 -132 -399.5t-246.5 -253t-335.5 -87.5zM667 163q118 0 210.5 58t155 180.5t90.5 315.5q29 196 1.5 321.5t-103 185t-193.5 59.5
q-177 0 -298 -136t-164 -430q-28 -192 0.5 -314.5t105 -181t195.5 -58.5zM561 1567l259 234h148l224 -234h-185l-120 133l-152 -133h-174zM634 1904l-20 112q38 34 79 57.5t100 23.5q48 0 89.5 -14t81 -28.5t81.5 -14.5q45 0 81.5 18.5t68.5 41.5l14 -129q-29 -21 -75.5 -41
t-108.5 -20q-51 0 -88.5 13t-73.5 26.5t-81 13.5q-48 0 -80 -16.5t-68 -42.5z" />
    <glyph glyph-name="uni1ED7" unicode="&#x1ed7;" horiz-adv-x="1097" 
d="M474 -20q-139 0 -234 62.5t-135.5 181.5t-16.5 288q22 163 93.5 285t184.5 189.5t259 67.5q140 0 234 -63.5t133.5 -185t15.5 -293.5q-22 -157 -92 -277t-181.5 -187.5t-260.5 -67.5zM500 145q83 0 145 46.5t102 131t55 195.5q14 103 0.5 187.5t-62 134.5t-139.5 50
q-85 0 -148 -45.5t-102.5 -129t-54.5 -197.5q-14 -101 -0.5 -186t63 -136t141.5 -51zM320 1155l259 234h148l224 -234h-185l-120 133l-152 -133h-174zM393 1492l-20 112q38 34 79 57.5t100 23.5q48 0 89.5 -14t81 -28.5t81.5 -14.5q45 0 81.5 18.5t68.5 41.5l14 -129
q-29 -21 -75.5 -41t-108.5 -20q-51 0 -88.5 13t-73.5 26.5t-81 13.5q-48 0 -80 -16.5t-68 -42.5z" />
    <glyph glyph-name="uni1ED8" unicode="&#x1ed8;" horiz-adv-x="1432" 
d="M639 -20q-190 0 -314 87.5t-173.5 252t-15.5 398.5q34 236 133.5 403t249.5 256t336 89t309 -88.5t173 -255t16 -402.5q-34 -234 -132 -399.5t-246.5 -253t-335.5 -87.5zM667 163q118 0 210.5 58t155 180.5t90.5 315.5q29 196 1.5 321.5t-103 185t-193.5 59.5
q-177 0 -298 -136t-164 -430q-28 -192 0.5 -314.5t105 -181t195.5 -58.5zM489 -369l28 194h206l-28 -194h-206zM546 1567l259 234h148l224 -234h-185l-120 133l-152 -133h-174z" />
    <glyph glyph-name="uni1ED9" unicode="&#x1ed9;" horiz-adv-x="1097" 
d="M474 -20q-139 0 -234 62.5t-135.5 181.5t-16.5 288q22 163 93.5 285t184.5 189.5t259 67.5q140 0 234 -63.5t133.5 -185t15.5 -293.5q-22 -157 -92 -277t-181.5 -187.5t-260.5 -67.5zM500 145q83 0 145 46.5t102 131t55 195.5q14 103 0.5 187.5t-62 134.5t-139.5 50
q-85 0 -148 -45.5t-102.5 -129t-54.5 -197.5q-14 -101 -0.5 -186t63 -136t141.5 -51zM303 -369l28 194h206l-28 -194h-206zM306 1155l259 234h148l224 -234h-185l-120 133l-152 -133h-174z" />
    <glyph glyph-name="uni1EDA" unicode="&#x1eda;" horiz-adv-x="1556" 
d="M639 -20q-190 0 -314 87.5t-173.5 252t-15.5 398.5q34 236 133.5 403t249.5 256t336 89q136 0 239 -48t169 -139q53 -1 88.5 12.5t59 56.5t41.5 132h151q-15 -107 -48.5 -177t-88.5 -106t-140 -41q31 -86 38.5 -195t-11.5 -241q-34 -234 -132 -399.5t-246.5 -253
t-335.5 -87.5zM667 163q118 0 210.5 58t155 180.5t90.5 315.5q29 196 1.5 321.5t-103 185t-193.5 59.5q-177 0 -298 -136t-164 -430q-28 -192 0.5 -314.5t105 -181t195.5 -58.5zM767 1567l236 291h234l-308 -291h-162z" />
    <glyph glyph-name="uni1EDB" unicode="&#x1edb;" horiz-adv-x="1198" 
d="M550 1155l236 291h234l-308 -291h-162zM474 -20q-139 0 -234 62.5t-135.5 181.5t-16.5 288q22 163 93.5 285t184.5 189.5t259 67.5q104 0 183 -36t129 -103q61 4 95 45.5t56 152.5h151q-22 -149 -79 -228t-166 -92q17 -56 21 -126t-7 -155q-22 -157 -92 -277
t-181.5 -187.5t-260.5 -67.5zM500 145q83 0 145 46.5t102 131t55 195.5q14 103 0.5 187.5t-62 134.5t-139.5 50q-85 0 -148 -45.5t-102.5 -129t-54.5 -197.5q-14 -101 -0.5 -186t63 -136t141.5 -51z" />
    <glyph glyph-name="uni1EDC" unicode="&#x1edc;" horiz-adv-x="1556" 
d="M639 -20q-190 0 -314 87.5t-173.5 252t-15.5 398.5q34 236 133.5 403t249.5 256t336 89q136 0 239 -48t169 -139q53 -1 88.5 12.5t59 56.5t41.5 132h151q-15 -107 -48.5 -177t-88.5 -106t-140 -41q31 -86 38.5 -195t-11.5 -241q-34 -234 -132 -399.5t-246.5 -253
t-335.5 -87.5zM667 163q118 0 210.5 58t155 180.5t90.5 315.5q29 196 1.5 321.5t-103 185t-193.5 59.5q-177 0 -298 -136t-164 -430q-28 -192 0.5 -314.5t105 -181t195.5 -58.5zM783 1567l-270 291h229l197 -291h-156z" />
    <glyph glyph-name="uni1EDD" unicode="&#x1edd;" horiz-adv-x="1218" 
d="M569 1155l-270 291h229l197 -291h-156zM494 -20q-139 0 -234 62.5t-135.5 181.5t-16.5 288q22 163 93.5 285t184.5 189.5t259 67.5q104 0 183 -36t129 -103q61 4 95 45.5t56 152.5h151q-22 -149 -79 -228t-166 -92q17 -56 21 -126t-7 -155q-22 -157 -92 -277
t-181.5 -187.5t-260.5 -67.5zM520 145q83 0 145 46.5t102 131t55 195.5q14 103 0.5 187.5t-62 134.5t-139.5 50q-85 0 -148 -45.5t-102.5 -129t-54.5 -197.5q-14 -101 -0.5 -186t63 -136t141.5 -51z" />
    <glyph glyph-name="uni1EDE" unicode="&#x1ede;" horiz-adv-x="1556" 
d="M639 -20q-190 0 -314 87.5t-173.5 252t-15.5 398.5q34 236 133.5 403t249.5 256t336 89q136 0 239 -48t169 -139q53 -1 88.5 12.5t59 56.5t41.5 132h151q-15 -107 -48.5 -177t-88.5 -106t-140 -41q31 -86 38.5 -195t-11.5 -241q-34 -234 -132 -399.5t-246.5 -253
t-335.5 -87.5zM667 163q118 0 210.5 58t155 180.5t90.5 315.5q29 196 1.5 321.5t-103 185t-193.5 59.5q-177 0 -298 -136t-164 -430q-28 -192 0.5 -314.5t105 -181t195.5 -58.5zM922 1543l-42 91q43 27 63.5 62.5t5.5 69.5q-13 32 -52.5 32t-80.5 -26l-43 90q91 55 169 43.5
t109 -76.5q37 -78 3 -154t-132 -132z" />
    <glyph glyph-name="uni1EDF" unicode="&#x1edf;" horiz-adv-x="1198" 
d="M693 1131l-42 91q43 27 63.5 62.5t5.5 69.5q-13 32 -52.5 32t-80.5 -26l-43 90q91 55 169 43.5t109 -76.5q37 -78 3 -154t-132 -132zM474 -20q-139 0 -234 62.5t-135.5 181.5t-16.5 288q22 163 93.5 285t184.5 189.5t259 67.5q104 0 183 -36t129 -103q61 4 95 45.5
t56 152.5h151q-22 -149 -79 -228t-166 -92q17 -56 21 -126t-7 -155q-22 -157 -92 -277t-181.5 -187.5t-260.5 -67.5zM500 145q83 0 145 46.5t102 131t55 195.5q14 103 0.5 187.5t-62 134.5t-139.5 50q-85 0 -148 -45.5t-102.5 -129t-54.5 -197.5q-14 -101 -0.5 -186t63 -136
t141.5 -51z" />
    <glyph glyph-name="uni1EE0" unicode="&#x1ee0;" horiz-adv-x="1556" 
d="M639 -20q-190 0 -314 87.5t-173.5 252t-15.5 398.5q34 236 133.5 403t249.5 256t336 89q136 0 239 -48t169 -139q53 -1 88.5 12.5t59 56.5t41.5 132h151q-15 -107 -48.5 -177t-88.5 -106t-140 -41q31 -86 38.5 -195t-11.5 -241q-34 -234 -132 -399.5t-246.5 -253
t-335.5 -87.5zM667 163q118 0 210.5 58t155 180.5t90.5 315.5q29 196 1.5 321.5t-103 185t-193.5 59.5q-177 0 -298 -136t-164 -430q-28 -192 0.5 -314.5t105 -181t195.5 -58.5zM610 1627l-20 112q39 34 80 57.5t99 23.5q49 0 90 -14t80.5 -28.5t82.5 -14.5q44 0 80.5 18.5
t68.5 41.5l14 -129q-29 -21 -75.5 -41t-107.5 -20q-52 0 -89.5 13t-73.5 26.5t-81 13.5q-47 0 -79.5 -16.5t-68.5 -42.5z" />
    <glyph glyph-name="uni1EE1" unicode="&#x1ee1;" horiz-adv-x="1198" 
d="M383 1215l-20 112q39 34 80 57.5t99 23.5q49 0 90 -14t80.5 -28.5t82.5 -14.5q44 0 80.5 18.5t68.5 41.5l14 -129q-29 -21 -75.5 -41t-107.5 -20q-52 0 -89.5 13t-73.5 26.5t-81 13.5q-47 0 -79.5 -16.5t-68.5 -42.5zM474 -20q-139 0 -234 62.5t-135.5 181.5t-16.5 288
q22 163 93.5 285t184.5 189.5t259 67.5q104 0 183 -36t129 -103q61 4 95 45.5t56 152.5h151q-22 -149 -79 -228t-166 -92q17 -56 21 -126t-7 -155q-22 -157 -92 -277t-181.5 -187.5t-260.5 -67.5zM500 145q83 0 145 46.5t102 131t55 195.5q14 103 0.5 187.5t-62 134.5
t-139.5 50q-85 0 -148 -45.5t-102.5 -129t-54.5 -197.5q-14 -101 -0.5 -186t63 -136t141.5 -51z" />
    <glyph glyph-name="uni1EE2" unicode="&#x1ee2;" horiz-adv-x="1556" 
d="M639 -20q-190 0 -314 87.5t-173.5 252t-15.5 398.5q34 236 133.5 403t249.5 256t336 89q136 0 239 -48t169 -139q53 -1 88.5 12.5t59 56.5t41.5 132h151q-15 -107 -48.5 -177t-88.5 -106t-140 -41q31 -86 38.5 -195t-11.5 -241q-34 -234 -132 -399.5t-246.5 -253
t-335.5 -87.5zM667 163q118 0 210.5 58t155 180.5t90.5 315.5q29 196 1.5 321.5t-103 185t-193.5 59.5q-177 0 -298 -136t-164 -430q-28 -192 0.5 -314.5t105 -181t195.5 -58.5zM489 -369l28 194h206l-28 -194h-206z" />
    <glyph glyph-name="uni1EE3" unicode="&#x1ee3;" horiz-adv-x="1198" 
d="M300 -369l28 194h206l-28 -194h-206zM474 -20q-139 0 -234 62.5t-135.5 181.5t-16.5 288q22 163 93.5 285t184.5 189.5t259 67.5q104 0 183 -36t129 -103q61 4 95 45.5t56 152.5h151q-22 -149 -79 -228t-166 -92q17 -56 21 -126t-7 -155q-22 -157 -92 -277t-181.5 -187.5
t-260.5 -67.5zM500 145q83 0 145 46.5t102 131t55 195.5q14 103 0.5 187.5t-62 134.5t-139.5 50q-85 0 -148 -45.5t-102.5 -129t-54.5 -197.5q-14 -101 -0.5 -186t63 -136t141.5 -51z" />
    <glyph glyph-name="uni1EE4" unicode="&#x1ee4;" horiz-adv-x="1371" 
d="M624 -20q-187 0 -292 64t-139 187t-8 300l132 915h216l-136 -942q-17 -114 8 -189t88 -112.5t158 -37.5q143 0 237.5 83t119.5 256l135 942h212l-134 -932q-25 -169 -95.5 -288.5t-194 -182.5t-307.5 -63zM469 -367l28 194h206l-28 -194h-206z" />
    <glyph glyph-name="uni1EE5" unicode="&#x1ee5;" horiz-adv-x="1137" 
d="M434 -20q-74 1 -139 23t-112 66t-69 109t-10 151l98 705h212l-96 -682q-13 -93 33.5 -151t156.5 -58q101 0 169 55.5t83 162.5l95 673h210l-146 -1034h-163l5 200q-29 -81 -81 -129.5t-116 -70t-130 -20.5zM330 -369l28 194h206l-28 -194h-206z" />
    <glyph glyph-name="uni1EE6" unicode="&#x1ee6;" horiz-adv-x="1371" 
d="M624 -20q-187 0 -292 64t-139 187t-8 300l132 915h216l-136 -942q-17 -114 8 -189t88 -112.5t158 -37.5q143 0 237.5 83t119.5 256l135 942h212l-134 -932q-25 -169 -95.5 -288.5t-194 -182.5t-307.5 -63zM914 1543l-42 91q43 27 63.5 62.5t5.5 69.5q-13 32 -52.5 32
t-80.5 -26l-43 90q91 55 169 43.5t109 -76.5q37 -78 3 -154t-132 -132z" />
    <glyph glyph-name="uni1EE7" unicode="&#x1ee7;" horiz-adv-x="1137" 
d="M434 -20q-74 1 -139 23t-112 66t-69 109t-10 151l98 705h212l-96 -682q-13 -93 33.5 -151t156.5 -58q101 0 169 55.5t83 162.5l95 673h210l-146 -1034h-163l5 200q-29 -81 -81 -129.5t-116 -70t-130 -20.5zM711 1131l-42 91q43 27 63.5 62.5t5.5 69.5q-13 32 -52.5 32
t-80.5 -26l-43 90q91 55 169 43.5t109 -76.5q37 -78 3 -154t-132 -132z" />
    <glyph glyph-name="uni1EE8" unicode="&#x1ee8;" horiz-adv-x="1591" 
d="M1265 1160l18 119q44 -1 77 4.5t56.5 25t41 60t31.5 110.5h151q-19 -125 -61 -200t-118 -104t-196 -15zM624 -20q-187 0 -292 64t-139 187t-8 300l132 915h216l-136 -942q-17 -114 8 -189t88 -112.5t158 -37.5q143 0 237.5 83t119.5 256l135 942h212l-134 -932
q-25 -169 -95.5 -288.5t-194 -182.5t-307.5 -63zM768 1567l236 291h234l-309 -291h-161z" />
    <glyph glyph-name="uni1EE9" unicode="&#x1ee9;" horiz-adv-x="1281" 
d="M980 794l18 119q44 -1 77 4.5t56.5 25t41 60t31.5 110.5h151q-19 -125 -61 -200t-117.5 -104t-196.5 -15zM435 -20q-75 1 -140 23t-112 66t-69 109t-10 151l99 705h212l-96 -682q-14 -93 33 -151t157 -58q101 0 169 55.5t83 162.5l95 673h209l-145 -1034h-164l5 200
q-29 -81 -80.5 -129.5t-115.5 -70t-130 -20.5zM566 1155l237 291h233l-308 -291h-162z" />
    <glyph glyph-name="uni1EEA" unicode="&#x1eea;" horiz-adv-x="1591" 
d="M1265 1160l18 119q44 -1 77 4.5t56.5 25t41 60t31.5 110.5h151q-19 -125 -61 -200t-118 -104t-196 -15zM624 -20q-187 0 -292 64t-139 187t-8 300l132 915h216l-136 -942q-17 -114 8 -189t88 -112.5t158 -37.5q143 0 237.5 83t119.5 256l135 942h212l-134 -932
q-25 -169 -95.5 -288.5t-194 -182.5t-307.5 -63zM771 1567l-269 291h228l197 -291h-156z" />
    <glyph glyph-name="uni1EEB" unicode="&#x1eeb;" horiz-adv-x="1302" 
d="M590 1155l-270 291h229l197 -291h-156zM448 -20q-75 1 -140 23t-112 66t-69 109t-10 151l99 705h212l-96 -682q-14 -93 33 -151t157 -58q101 0 169 55.5t83 162.5l95 673h209l-17 -122q45 2 75.5 18.5t51.5 59t37 123.5h152q-18 -117 -56 -190.5t-105 -106t-172 -26.5
l-111 -790h-164l5 200q-29 -81 -80.5 -129.5t-115.5 -70t-130 -20.5z" />
    <glyph glyph-name="uni1EEC" unicode="&#x1eec;" horiz-adv-x="1591" 
d="M1265 1160l18 119q44 -1 77 4.5t56.5 25t41 60t31.5 110.5h151q-19 -125 -61 -200t-118 -104t-196 -15zM624 -20q-187 0 -292 64t-139 187t-8 300l132 915h216l-136 -942q-17 -114 8 -189t88 -112.5t158 -37.5q143 0 237.5 83t119.5 256l135 942h212l-134 -932
q-25 -169 -95.5 -288.5t-194 -182.5t-307.5 -63zM910 1544l-43 91q44 27 64 62t6 69q-14 33 -53 33t-81 -26l-43 90q92 55 170 43.5t108 -77.5q38 -77 3.5 -153t-131.5 -132z" />
    <glyph glyph-name="uni1EED" unicode="&#x1eed;" horiz-adv-x="1289" 
d="M722 1131l-42 91q43 27 63.5 62.5t5.5 69.5q-13 32 -52.5 32t-80.5 -26l-43 90q91 55 169 43.5t109 -76.5q37 -78 3 -154t-132 -132zM435 -20q-75 1 -140 23t-112 66t-69 109t-10 151l99 705h212l-96 -682q-14 -93 33 -151t157 -58q101 0 169 55.5t83 162.5l95 673h209
l-17 -122q45 2 75.5 18.5t51.5 59t37 123.5h152q-18 -117 -56 -190.5t-105 -106t-172 -26.5l-111 -790h-164l5 200q-29 -81 -80.5 -129.5t-115.5 -70t-130 -20.5z" />
    <glyph glyph-name="uni1EEE" unicode="&#x1eee;" horiz-adv-x="1586" 
d="M1265 1160l18 119q44 -1 77 4.5t56.5 25t41 60t31.5 110.5h151q-19 -125 -61 -200t-118 -104t-196 -15zM624 -20q-187 0 -292 64t-139 187t-8 300l132 915h216l-136 -942q-17 -114 8 -189t88 -112.5t158 -37.5q143 0 237.5 83t119.5 256l135 942h212l-134 -932
q-25 -169 -95.5 -288.5t-194 -182.5t-307.5 -63zM601 1627l-21 112q39 34 80 57.5t100 23.5q48 0 89.5 -14t80.5 -28.5t82 -14.5q45 0 81.5 18.5t67.5 41.5l15 -129q-30 -21 -76.5 -41t-107.5 -20q-51 0 -88.5 13t-73.5 26.5t-81 13.5q-48 0 -80 -16.5t-68 -42.5z" />
    <glyph glyph-name="uni1EEF" unicode="&#x1eef;" horiz-adv-x="1289" 
d="M410 1215l-20 112q39 34 80 57.5t99 23.5q49 0 90 -14t80.5 -28.5t82.5 -14.5q44 0 80.5 18.5t68.5 41.5l14 -129q-29 -21 -75.5 -41t-107.5 -20q-52 0 -89.5 13t-73.5 26.5t-81 13.5q-47 0 -79.5 -16.5t-68.5 -42.5zM435 -20q-75 1 -140 23t-112 66t-69 109t-10 151
l99 705h212l-96 -682q-14 -93 33 -151t157 -58q101 0 169 55.5t83 162.5l95 673h209l-17 -122q45 2 75.5 18.5t51.5 59t37 123.5h152q-18 -117 -56 -190.5t-105 -106t-172 -26.5l-111 -790h-164l5 200q-29 -81 -80.5 -129.5t-115.5 -70t-130 -20.5z" />
    <glyph glyph-name="uni1EF0" unicode="&#x1ef0;" horiz-adv-x="1591" 
d="M1265 1160l18 119q44 -1 77 4.5t56.5 25t41 60t31.5 110.5h151q-19 -125 -61 -200t-118 -104t-196 -15zM624 -20q-187 0 -292 64t-139 187t-8 300l132 915h216l-136 -942q-17 -114 8 -189t88 -112.5t158 -37.5q143 0 237.5 83t119.5 256l135 942h212l-134 -932
q-25 -169 -95.5 -288.5t-194 -182.5t-307.5 -63zM456 -367l28 195h207l-29 -195h-206z" />
    <glyph glyph-name="uni1EF1" unicode="&#x1ef1;" horiz-adv-x="1289" 
d="M331 -369l28 194h206l-28 -194h-206zM435 -20q-75 1 -140 23t-112 66t-69 109t-10 151l99 705h212l-96 -682q-14 -93 33 -151t157 -58q101 0 169 55.5t83 162.5l95 673h209l-17 -122q45 2 75.5 18.5t51.5 59t37 123.5h152q-18 -117 -56 -190.5t-105 -106t-172 -26.5
l-111 -790h-164l5 200q-29 -81 -80.5 -129.5t-115.5 -70t-130 -20.5z" />
    <glyph glyph-name="Ygrave" unicode="&#x1ef2;" horiz-adv-x="1198" 
d="M416 0l87 614l-349 832h227l257 -643l438 643h230l-592 -833l-90 -613h-208zM659 1569l-270 291h229l197 -291h-156z" />
    <glyph glyph-name="ygrave" unicode="&#x1ef3;" horiz-adv-x="1042" 
d="M131 -330q-91 0 -124.5 14l-33.5 14l20 138l101 -2q77 -4 120 14t64.5 45t33.5 50l41 87l-238 1004h210l162 -764l382 764h205l-567 -1092q-58 -108 -118 -167t-123.5 -82t-134.5 -23zM530 1155l-270 291h229l197 -291h-156z" />
    <glyph glyph-name="uni1EF4" unicode="&#x1ef4;" horiz-adv-x="1198" 
d="M416 0l87 614l-349 832h227l257 -643l438 643h230l-592 -833l-90 -613h-208zM366 -369l28 194h206l-28 -194h-206z" />
    <glyph glyph-name="uni1EF5" unicode="&#x1ef5;" horiz-adv-x="1042" 
d="M131 -330q-91 0 -124.5 14l-33.5 14l20 138l101 -2q77 -4 120 14t64.5 45t33.5 50l41 87l-238 1004h210l162 -764l382 764h205l-567 -1092q-58 -108 -118 -167t-123.5 -82t-134.5 -23zM583 -350l28 194h206l-28 -194h-206z" />
    <glyph glyph-name="uni1EF6" unicode="&#x1ef6;" horiz-adv-x="1198" 
d="M416 0l87 614l-349 832h227l257 -643l438 643h230l-592 -833l-90 -613h-208zM798 1546l-42 91q43 27 63.5 62.5t5.5 69.5q-13 32 -52.5 32t-80.5 -26l-43 90q91 55 169 43.5t109 -76.5q37 -78 3 -154t-132 -132z" />
    <glyph glyph-name="uni1EF7" unicode="&#x1ef7;" horiz-adv-x="1042" 
d="M131 -330q-91 0 -124.5 14l-33.5 14l20 138l101 -2q77 -4 120 14t64.5 45t33.5 50l41 87l-238 1004h210l162 -764l382 764h205l-567 -1092q-58 -108 -118 -167t-123.5 -82t-134.5 -23zM669 1131l-42 91q43 27 63.5 62.5t5.5 69.5q-13 32 -52.5 32t-80.5 -26l-43 90
q91 55 169 43.5t109 -76.5q37 -78 3 -154t-132 -132z" />
    <glyph glyph-name="uni1EF8" unicode="&#x1ef8;" horiz-adv-x="1198" 
d="M416 0l87 614l-349 832h227l257 -643l438 643h230l-592 -833l-90 -613h-208zM487 1629l-20 112q39 34 80 57.5t99 23.5q49 0 90 -14t80.5 -28.5t82.5 -14.5q44 0 80.5 18.5t68.5 41.5l14 -129q-29 -21 -75.5 -41t-107.5 -20q-52 0 -89.5 13t-73.5 26.5t-81 13.5
q-47 0 -79.5 -16.5t-68.5 -42.5z" />
    <glyph glyph-name="uni1EF9" unicode="&#x1ef9;" horiz-adv-x="1042" 
d="M131 -330q-91 0 -124.5 14l-33.5 14l20 138l101 -2q77 -4 120 14t64.5 45t33.5 50l41 87l-238 1004h210l162 -764l382 764h205l-567 -1092q-58 -108 -118 -167t-123.5 -82t-134.5 -23zM357 1215l-20 112q39 34 80 57.5t99 23.5q49 0 90 -14t80.5 -28.5t82.5 -14.5
q44 0 80.5 18.5t68.5 41.5l14 -129q-29 -21 -75.5 -41t-107.5 -20q-52 0 -89.5 13t-73.5 26.5t-81 13.5q-47 0 -79.5 -16.5t-68.5 -42.5z" />
    <glyph glyph-name="endash" unicode="&#x2013;" horiz-adv-x="1094" 
d="M109 418l24 164l848 1l-24 -164z" />
    <glyph glyph-name="emdash" unicode="&#x2014;" horiz-adv-x="2252" 
d="M354 418l23 164l1516 1l-23 -164z" />
    <glyph glyph-name="quoteleft" unicode="&#x2018;" horiz-adv-x="493" 
d="M163 981l31 208l219 292h92l-148 -256l88 -7l-35 -237h-247z" />
    <glyph glyph-name="quoteright" unicode="&#x2019;" horiz-adv-x="481" 
d="M161 949l148 255l-89 6l36 236h247l-31 -207l-220 -290h-91z" />
    <glyph glyph-name="quotesinglbase" unicode="&#x201a;" horiz-adv-x="509" 
d="M-20 -257l148 254l-90 6l35 238h253l-30 -208l-222 -290h-94z" />
    <glyph glyph-name="quotedblleft" unicode="&#x201c;" horiz-adv-x="877" 
d="M547 978l31 209l220 292h91l-148 -257l88 -6l-35 -238h-247zM163 978l31 209l219 292h92l-148 -257l88 -6l-35 -238h-247z" />
    <glyph glyph-name="quotedblright" unicode="&#x201d;" horiz-adv-x="857" 
d="M537 949l148 255l-89 6l36 236h247l-31 -207l-220 -290h-91zM161 949l148 255l-89 6l36 236h247l-31 -207l-220 -290h-91z" />
    <glyph glyph-name="quotedblbase" unicode="&#x201e;" horiz-adv-x="897" 
d="M368 -257l148 254l-90 6l35 238h253l-30 -208l-222 -290h-94zM-20 -257l148 254l-90 6l35 238h253l-30 -208l-222 -290h-94z" />
    <glyph glyph-name="dagger" unicode="&#x2020;" horiz-adv-x="913" 
d="M224 -322l202 1116l-351 -31l28 195l335 -28l41 516h214l-110 -516l344 28l-30 -195l-343 31l-119 -1116h-211z" />
    <glyph glyph-name="daggerdbl" unicode="&#x2021;" horiz-adv-x="916" 
d="M226 -322l107 499l-345 -28l30 196l340 -31l67 462l-349 -31l27 195l336 -28l44 534h212l-111 -534l343 28l-29 -195l-341 31l-66 -462l351 31l-30 -196l-336 28l-36 -499h-214z" />
    <glyph glyph-name="bullet" unicode="&#x2022;" horiz-adv-x="658" 
d="M353 524q-59 0 -106.5 28.5t-76 77t-28.5 106.5t28.5 105.5t76 76t106.5 28.5q58 0 106 -28.5t76.5 -76t28.5 -105.5t-28.5 -106.5t-76.5 -77t-106 -28.5z" />
    <glyph glyph-name="ellipsis" unicode="&#x2026;" horiz-adv-x="1600" 
d="M1164 0l39 258h240l-38 -258h-241zM34 0l39 258h240l-38 -258h-241zM599 0l39 258h240l-38 -258h-241z" />
    <glyph glyph-name="perthousand" unicode="&#x2030;" horiz-adv-x="2442" 
d="M359 -8l-132 2l1144 1468h130zM442 644q-81 0 -142 41t-95 114t-34 169q0 74 23 160t70.5 163.5t121 127t172.5 49.5q80 0 140 -41t93.5 -114.5t33.5 -171.5q0 -80 -24.5 -167.5t-73 -162t-119.5 -121t-166 -46.5zM456 760q62 0 104.5 41.5t68 104.5t37 129.5t11.5 116.5
q0 93 -32 147t-105 54q-60 0 -102.5 -41.5t-68.5 -105t-38 -130t-12 -115.5q0 -92 32 -146.5t105 -54.5zM1192 -20q-81 0 -142 41t-95 114t-34 169q0 83 25.5 171t75 162.5t121.5 121t164 46.5q81 0 141 -41.5t93.5 -115t33.5 -169.5q0 -82 -24.5 -169t-73 -162t-120 -121.5
t-165.5 -46.5zM1206 97q61 0 103.5 41t68 104t37 129.5t11.5 116.5q0 93 -32 147t-105 54q-59 0 -101 -42t-68.5 -105t-38.5 -129.5t-12 -115.5q0 -91 31.5 -145.5t105.5 -54.5zM1936 -20q-81 0 -142 41t-94.5 114t-33.5 169q0 83 25.5 171t75 162.5t121 121t163.5 46.5
q81 0 141 -41.5t93.5 -115t33.5 -169.5q0 -81 -24.5 -168.5t-73 -162.5t-120 -121.5t-165.5 -46.5zM1950 97q62 0 104.5 41.5t67.5 104.5t36.5 130t11.5 117q0 92 -32 145.5t-104 53.5q-60 0 -102 -41.5t-68 -104.5t-38 -129.5t-12 -115.5q0 -92 31 -146.5t105 -54.5z" />
    <glyph glyph-name="guilsinglleft" unicode="&#x2039;" horiz-adv-x="558" 
d="M272 137l-188 365l298 381h116l-235 -381l125 -365h-116z" />
    <glyph glyph-name="guilsinglright" unicode="&#x203a;" horiz-adv-x="557" 
d="M61 137l231 365l-125 381h116l186 -381l-296 -365h-112z" />
    <glyph glyph-name="fraction" unicode="&#x2044;" horiz-adv-x="424" 
d="M-261 -8l-131 2l1143 1468h130z" />
    <glyph glyph-name="uni2070" unicode="&#x2070;" horiz-adv-x="742" 
d="M377 752q-148 0 -217 118t-36 347q32 232 135.5 351.5t249.5 119.5q147 0 216 -119t36 -350q-32 -230 -134.5 -348.5t-249.5 -118.5zM393 867q89 0 144.5 82t81.5 270q27 190 -6 274.5t-120 84.5t-145 -85t-85 -274q-26 -188 8 -270t122 -82z" />
    <glyph glyph-name="uni2074" unicode="&#x2074;" horiz-adv-x="763" 
d="M453 760l33 224h-405l18 119l482 567h132l-81 -569h139l-17 -117h-141l-32 -224h-128zM223 1101h279l57 397z" />
    <glyph glyph-name="uni2075" unicode="&#x2075;" horiz-adv-x="777" 
d="M406 746q-123 0 -208.5 64t-107.5 164l117 54q23 -74 72 -122t132 -48q89 0 149.5 53t72.5 142q12 84 -35 135.5t-126 51.5q-48 0 -91 -14.5t-98 -65.5q-6 -3 -8.5 -3t-7.5 4l-99 38l105 471h534l-21 -115h-419l-59 -273q50 38 101.5 54.5t109.5 16.5q81 0 143.5 -34
t94 -99.5t17.5 -161.5q-20 -142 -120 -227t-248 -85z" />
    <glyph glyph-name="uni2076" unicode="&#x2076;" horiz-adv-x="756" 
d="M399 756q-158 0 -232.5 121.5t-44.5 332.5q31 221 140 351.5t277 130.5q76 0 135.5 -29t93.5 -83t31 -131h-123q-8 61 -46.5 97t-103.5 36q-108 0 -176 -95.5t-80 -272.5q35 63 99 100.5t136 37.5q130 0 199 -76.5t51 -208.5q-12 -90 -61 -160.5t-124.5 -110.5
t-170.5 -40zM412 864q74 0 131 55t69 142q13 88 -27 136.5t-121 48.5q-44 0 -88 -21.5t-74 -57t-36 -76.5q-16 -101 24.5 -164t121.5 -63z" />
    <glyph glyph-name="uni2077" unicode="&#x2077;" horiz-adv-x="692" 
d="M203 760q22 81 78.5 211.5t146 283.5t212.5 300h-479l17 115h622l-19 -115q-66 -79 -135.5 -184.5t-132 -218.5t-107 -216t-61.5 -176h-142z" />
    <glyph glyph-name="uni2078" unicode="&#x2078;" horiz-adv-x="801" 
d="M406 754q-153 0 -235.5 71.5t-65.5 190.5q7 53 39.5 101t76.5 81.5t88 41.5q-54 27 -85.5 76.5t-21.5 123.5q18 120 113 185t223 65t204.5 -65t59.5 -185q-10 -74 -54.5 -123.5t-106.5 -76.5q42 -8 76.5 -41.5t53.5 -81.5t11 -101q-16 -119 -119 -190.5t-257 -71.5z
M421 860q91 0 150 43t69 115q10 71 -36.5 116.5t-137.5 45.5q-89 0 -149 -45.5t-70 -116.5q-10 -72 37.5 -115t136.5 -43zM482 1296q74 0 125.5 39t60.5 108q10 69 -30.5 109.5t-113.5 40.5q-72 0 -124.5 -40.5t-61.5 -109.5q-10 -69 31 -108t113 -39z" />
    <glyph glyph-name="uni2079" unicode="&#x2079;" horiz-adv-x="732" 
d="M359 756q-75 0 -136 30t-95.5 85t-32.5 129h128q5 -60 44 -97t103 -37q108 0 183 89t93 284q-33 -66 -97 -107t-144 -41q-130 0 -201.5 77.5t-53.5 213.5q13 91 60.5 161t123 109.5t170.5 39.5q156 0 231 -121t44 -331q-32 -233 -142 -358.5t-278 -125.5zM438 1203
q45 0 89 21.5t74.5 57t35.5 76.5q15 102 -25 164.5t-121 62.5q-74 0 -129 -54t-67 -142q-12 -86 25 -136t118 -50z" />
    <glyph glyph-name="colonmonetary" unicode="&#x20a1;" horiz-adv-x="1354" 
d="M633 -20q-178 0 -295.5 81t-170 234t-34.5 369q14 174 65.5 320.5t140.5 254.5t214.5 167.5t286.5 59.5q148 0 253.5 -62t161.5 -169.5t54 -243.5h-222q-3 82 -35 148.5t-92.5 105t-152.5 38.5q-104 0 -182.5 -47t-132.5 -132.5t-85.5 -199.5t-44.5 -248
q-24 -253 51 -373t241 -120q92 0 163.5 41.5t121.5 111t76 151.5h223q-25 -95 -74 -182.5t-123 -156.5t-175.5 -108.5t-232.5 -39.5zM413 -122l320 1682h109l-320 -1682h-109zM634 -122l320 1682h109l-320 -1682h-109z" />
    <glyph glyph-name="franc" unicode="&#x20a3;" horiz-adv-x="1180" 
d="M79 0l210 1446h928l-29 -183h-688l-67 -465h557l-27 -179h-555l-90 -619h-239zM-57 258l19 128l714 2l-19 -129z" />
    <glyph glyph-name="lira" unicode="&#x20a4;" horiz-adv-x="1198" 
d="M-39 0l26 182h70q65 -1 120 55t79 176q4 15 6 32t5 40q1 12 -15 12h-200l18 128h200l-1 165h-176l19 129h157l3 65q2 174 69.5 280t174 154t227.5 48q85 0 162.5 -30.5t133.5 -86.5t76 -134l-194 -63q-18 60 -57 98t-118 38q-86 0 -151.5 -54.5t-80.5 -153.5
q-2 -22 -2.5 -59.5t-0.5 -82.5q0 -19 18 -19l284 1l-19 -129l-283 -1l-1 -165l261 1l-20 -128h-259q-9 -54 -30 -111.5t-53 -110.5t-75 -92h310q91 0 153.5 36t104.5 126l173 -45q-65 -148 -181 -224.5t-264 -76.5h-669z" />
    <glyph glyph-name="uni20A6" unicode="&#x20a6;" horiz-adv-x="1569" 
d="M69 0l412 1446h199l356 -1078l302 1078h207l-412 -1446h-184l-364 1101l-310 -1101h-206zM12 495l17 119l1537 1l-17 -118zM67 876l18 118l1537 1l-18 -118z" />
    <glyph glyph-name="uni20A9" unicode="&#x20a9;" horiz-adv-x="2050" 
d="M372 0l29 1446h206l-35 -1098l583 1098h154l-29 -1098l583 1098h202l-795 -1446h-177l29 1073l-576 -1073h-174zM48 674l19 128l1989 1l-18 -128zM95 978l19 127l1990 2l-19 -128z" />
    <glyph glyph-name="dong" unicode="&#x20ab;" horiz-adv-x="994" 
d="M373 248q-94 0 -162 48t-98 143.5t-9 237.5q19 136 80 237.5t147.5 157.5t185.5 56q73 0 117 -24.5t79 -63.5q12 -11 18 -8.5t8 19.5l58 394h178l-172 -1181h-174l17 114q-27 -26 -63.5 -56.5t-88 -52t-121.5 -21.5zM53 0l15 114h719l-17 -114h-717zM457 375
q52 0 97 24.5t73.5 62.5t33.5 78l53 367q-32 43 -70.5 66.5t-92.5 23.5q-92 0 -164 -77.5t-94 -238.5q-16 -108 2 -176t60.5 -99t101.5 -31zM523 1218l16 106h534l-16 -106h-534z" />
    <glyph glyph-name="Euro" unicode="&#x20ac;" horiz-adv-x="1180" 
d="M645 -20q-177 0 -294.5 92t-165 260t-14.5 397t128.5 394t238 254t317.5 89q114 0 205.5 -43.5t149.5 -119.5l-162 -125q-38 45 -85 77.5t-116 32.5q-166 0 -277.5 -137t-154.5 -425q-27 -189 -1 -312.5t98.5 -185t186.5 -61.5q46 0 92 15.5t87 40t73 52.5l94 -131
q-79 -71 -183 -117.5t-217 -46.5zM-16 501l19 128l773 1l-19 -128zM32 822l18 127l773 1l-19 -127z" />
    <glyph glyph-name="uni20B9" unicode="&#x20b9;" horiz-adv-x="1156" 
d="M602 0l-131 662h-424l24 163h378q155 0 236.5 60t101.5 197q18 121 -42 179t-194 58h-408l18 127h440q231 0 346 -95t88 -274q-15 -106 -64 -180.5t-116.5 -121.5t-138.5 -71q-15 -5 -9 -24l155 -680h-260zM102 1023l17 119l1081 1l-19 -119zM146 1327l17 119l1080 1
l-17 -118z" />
    <glyph glyph-name="uni20BA" unicode="&#x20ba;" horiz-adv-x="1137" 
d="M160 0l210 1446h239l-182 -1262h82q121 2 223 83.5t187 251.5l183 -43q-49 -105 -115 -192t-152 -151t-192 -98.5t-235 -34.5h-248zM71 386l-25 129l731 262l27 -128zM100 705l-25 129l733 262l27 -127z" />
    <glyph glyph-name="uni2113" unicode="&#x2113;" horiz-adv-x="1016" 
d="M474 -15q-157 0 -229.5 90t-68.5 267l-106 -74l-41 126l167 117l70 490q34 240 151 352.5t271 112.5q104 0 163.5 -44t80 -119.5t6.5 -169.5q-15 -107 -65.5 -201.5t-126 -179.5t-164 -163.5t-178.5 -152.5q-25 -161 2 -225t115 -64q72 0 138.5 39t143.5 132l73 -83
q-27 -46 -64.5 -91t-85.5 -81t-111 -57t-141 -21zM426 637q57 47 117 106t113.5 128t91 146t49.5 159q10 72 -14 110.5t-84 38.5q-79 0 -137 -77.5t-86 -279.5z" />
    <glyph glyph-name="uni2116" unicode="&#x2116;" horiz-adv-x="2243" 
d="M110 0l211 1446h204l540 -1078l155 1078h211l-212 -1446h-187l-552 1101l-159 -1101h-211zM1901 795q-136 0 -200 93.5t-44 238.5q15 101 62.5 177t119 118.5t158.5 42.5q133 0 199 -94t45 -244q-13 -97 -59.5 -172t-118 -117.5t-162.5 -42.5zM1916 899q76 0 123 61
t62 172q15 108 -14.5 168t-104.5 60t-121.5 -60t-62.5 -168q-16 -111 14 -172t104 -61z" />
    <glyph glyph-name="uni2117" unicode="&#x2117;" horiz-adv-x="1570" 
d="M702 -20q-147 0 -267 57.5t-202.5 159.5t-117.5 237t-13 290q22 153 96.5 287.5t187 236.5t249 160t282.5 58q147 0 266.5 -58t202 -160t118.5 -236.5t13 -287.5q-23 -155 -97.5 -290t-187 -237t-248.5 -159.5t-282 -57.5zM722 115q119 0 228 43t198 122.5t149 192
t80 251.5q20 138 -7 250t-93 192.5t-163 124t-216 43.5q-121 0 -230.5 -43.5t-198 -124t-147.5 -192.5t-79 -250q-28 -186 27 -322.5t172.5 -211.5t279.5 -75zM495 333l113 775h304q79 0 139.5 -24t90.5 -74.5t18 -130.5q-19 -124 -102.5 -187t-201.5 -63h-175l-43 -296
h-143zM697 740h161q58 0 101.5 32t53.5 98q10 72 -27.5 98.5t-97.5 26.5h-153z" />
    <glyph glyph-name="uni2120" unicode="&#x2120;" horiz-adv-x="1952" 
d="M924 0l131 904h186l135 -719l346 719h184l-131 -904h-134l104 720l-340 -720h-113l-131 714l-103 -714h-134zM354 -13q-84 0 -155.5 28.5t-115 85.5t-42.5 144h139q5 -73 58 -111t131 -38q85 0 148.5 37t71.5 102q8 59 -28 92.5t-102 49.5l-159 39q-95 21 -142.5 79
t-34.5 153q11 81 61 141t126.5 93t168.5 33q101 0 167.5 -39t98.5 -99.5t26 -126.5h-136q3 57 -19.5 91t-62 49t-88.5 15t-92 -17t-72.5 -48.5t-35.5 -77.5q-6 -47 20 -75.5t103 -48.5l154 -39q68 -15 107.5 -44t57 -66t20.5 -76.5t-2 -76.5q-9 -69 -58 -125.5t-129 -90
t-184 -33.5z" />
    <glyph glyph-name="trademark" unicode="&#x2122;" horiz-adv-x="1812" 
d="M784 0l131 904h186l135 -719l346 719h184l-131 -904h-134l104 720l-340 -720h-113l-131 714l-103 -714h-134zM232 0l113 782h-272l19 122h662l-17 -122h-261l-113 -782h-131z" />
    <glyph glyph-name="uni2126" unicode="&#x2126;" horiz-adv-x="1474" 
d="M77 0l29 191h286q-21 20 -56 56.5t-73 90t-68.5 125t-44 162t2.5 200.5q19 130 78 251.5t154 218t220.5 153t276.5 56.5q155 0 263 -58.5t172 -156.5t86.5 -218t4.5 -244q-15 -99 -46 -181.5t-82 -156t-125.5 -146.5t-175.5 -152h293l-29 -191h-520l26 173
q52 35 115 89.5t124 130.5t108 177t66 229q16 112 4.5 207t-50 165.5t-104 110t-157.5 39.5t-169.5 -39t-137.5 -109.5t-100.5 -166.5t-56.5 -211q-20 -136 1 -246t79.5 -202.5t152.5 -173.5l-26 -173h-521z" />
    <glyph glyph-name="uni2153" unicode="&#x2153;" horiz-adv-x="1692" 
d="M210 552l103 712h-163l11 84q116 0 164.5 29t60.5 85h91l-133 -910h-134zM256 -8l-131 2l1143 1468h130zM1211 -20q-142 1 -216.5 76.5t-59.5 204.5h130q2 -82 46.5 -124.5t119.5 -42.5q91 0 151 43t70 112q10 76 -42.5 117t-137.5 43l-81 2l17 111l75 3q54 1 98.5 21.5
t73.5 54t35 73.5q7 55 -35 94t-124 39q-45 0 -88 -18t-74.5 -55.5t-42.5 -99.5h-129q13 91 63.5 154t126 95.5t161.5 32.5q93 0 160.5 -27t101 -79.5t22.5 -130.5q-10 -68 -57 -121t-136 -84q53 -16 90.5 -46.5t55.5 -75.5t9 -105q-12 -85 -66 -145t-136.5 -91.5
t-180.5 -30.5z" />
    <glyph glyph-name="uni2154" unicode="&#x2154;" horiz-adv-x="1987" 
d="M68 558l11 77l6 39q12 82 52.5 138t98.5 96t121.5 72t120.5 64.5t96 73.5t47 99q9 65 -29 106t-112 41q-79 0 -135.5 -47.5t-76.5 -130.5h-129q19 122 111.5 208t250.5 86q137 0 206.5 -72.5t52.5 -190.5q-11 -81 -51.5 -136.5t-97.5 -93.5t-119 -68.5t-117.5 -61
t-93.5 -70t-47 -97.5l-1 -15h454l-17 -117h-602zM551 -8l-131 2l1143 1468h130zM1506 -20q-142 1 -216.5 76.5t-59.5 204.5h130q2 -82 46.5 -124.5t119.5 -42.5q91 0 151 43t70 112q10 76 -42.5 117t-137.5 43l-81 2l17 111l75 3q54 1 98.5 21.5t73.5 54t35 73.5
q7 55 -35 94t-124 39q-45 0 -88 -18t-74.5 -55.5t-42.5 -99.5h-129q13 91 63.5 154t126 95.5t161.5 32.5q93 0 160.5 -27t101 -79.5t22.5 -130.5q-10 -68 -57 -121t-136 -84q53 -16 90.5 -46.5t55.5 -75.5t9 -105q-12 -85 -66 -145t-136.5 -91.5t-180.5 -30.5z" />
    <glyph glyph-name="oneeighth" unicode="&#x215b;" horiz-adv-x="1708" 
d="M210 552l103 712h-163l11 84q116 0 164.5 29t60.5 85h91l-133 -910h-134zM256 -8l-131 2l1143 1468h130zM1233 -22q-153 0 -235.5 71.5t-66.5 190.5q8 53 40 101t76.5 81.5t88.5 41.5q-55 27 -86 76.5t-21 123.5q17 120 112.5 185t222.5 65q129 0 205.5 -65t59.5 -185
q-10 -74 -55 -123.5t-107 -76.5q42 -8 77 -41.5t53.5 -81.5t11.5 -101q-17 -119 -119.5 -190.5t-256.5 -71.5zM1248 84q91 0 150 43t68 115q11 71 -36 116.5t-138 45.5q-89 0 -148.5 -45.5t-70.5 -116.5q-10 -72 37.5 -115t137.5 -43zM1309 520q73 0 124.5 39t61.5 108
t-30.5 109.5t-114.5 40.5q-71 0 -123.5 -40.5t-61.5 -109.5q-11 -69 30.5 -108t113.5 -39z" />
    <glyph glyph-name="threeeighths" unicode="&#x215c;" horiz-adv-x="1948" 
d="M384 544q-142 1 -216.5 76.5t-59.5 204.5h130q2 -82 46.5 -124.5t119.5 -42.5q91 0 151 43t70 112q10 76 -42.5 117t-137.5 43l-81 2l17 111l75 3q54 1 98.5 21.5t73.5 54t35 73.5q7 55 -35 94t-124 39q-45 0 -88 -18t-74.5 -55.5t-42.5 -99.5h-129q13 91 63.5 154
t126 95.5t161.5 32.5q93 0 160.5 -27t101 -79.5t22.5 -130.5q-10 -68 -57 -121t-136 -84q53 -16 90.5 -46.5t55.5 -75.5t9 -105q-12 -85 -66 -145t-136.5 -91.5t-180.5 -30.5zM496 -8l-131 2l1143 1468h130zM1473 -22q-153 0 -235.5 71.5t-66.5 190.5q8 53 40 101t76.5 81.5
t88.5 41.5q-55 27 -86 76.5t-21 123.5q17 120 112.5 185t222.5 65q129 0 205.5 -65t59.5 -185q-10 -74 -55 -123.5t-107 -76.5q42 -8 77 -41.5t53.5 -81.5t11.5 -101q-17 -119 -119.5 -190.5t-256.5 -71.5zM1488 84q91 0 150 43t68 115q11 71 -36 116.5t-138 45.5
q-89 0 -148.5 -45.5t-70.5 -116.5q-10 -72 37.5 -115t137.5 -43zM1549 520q73 0 124.5 39t61.5 108t-30.5 109.5t-114.5 40.5q-71 0 -123.5 -40.5t-61.5 -109.5q-11 -69 30.5 -108t113.5 -39z" />
    <glyph glyph-name="fiveeighths" unicode="&#x215d;" horiz-adv-x="1939" 
d="M406 538q-123 0 -208.5 64t-107.5 164l117 54q23 -74 72 -122t132 -48q89 0 149.5 53t72.5 142q12 84 -35 135.5t-126 51.5q-48 0 -91 -14.5t-98 -65.5q-6 -3 -8.5 -3t-7.5 4l-99 38l105 471h534l-21 -115h-419l-59 -273q50 38 101.5 54.5t109.5 16.5q81 0 143.5 -34
t94 -99.5t17.5 -161.5q-20 -142 -120 -227t-248 -85zM487 -8l-131 2l1143 1468h130zM1464 -22q-153 0 -235.5 71.5t-66.5 190.5q8 53 40 101t76.5 81.5t88.5 41.5q-55 27 -86 76.5t-21 123.5q17 120 112.5 185t222.5 65q129 0 205.5 -65t59.5 -185q-10 -74 -55 -123.5
t-107 -76.5q42 -8 77 -41.5t53.5 -81.5t11.5 -101q-17 -119 -119.5 -190.5t-256.5 -71.5zM1479 84q91 0 150 43t68 115q11 71 -36 116.5t-138 45.5q-89 0 -148.5 -45.5t-70.5 -116.5q-10 -72 37.5 -115t137.5 -43zM1540 520q73 0 124.5 39t61.5 108t-30.5 109.5t-114.5 40.5
q-71 0 -123.5 -40.5t-61.5 -109.5q-11 -69 30.5 -108t113.5 -39z" />
    <glyph glyph-name="seveneighths" unicode="&#x215e;" horiz-adv-x="1767" 
d="M203 550q22 81 78.5 211.5t146 283.5t212.5 300h-479l17 115h622l-19 -115q-66 -79 -135.5 -184.5t-132 -218.5t-107 -216t-61.5 -176h-142zM315 -8l-131 2l1143 1468h130zM1292 -22q-153 0 -235.5 71.5t-66.5 190.5q8 53 40 101t76.5 81.5t88.5 41.5q-55 27 -86 76.5
t-21 123.5q17 120 112.5 185t222.5 65q129 0 205.5 -65t59.5 -185q-10 -74 -55 -123.5t-107 -76.5q42 -8 77 -41.5t53.5 -81.5t11.5 -101q-17 -119 -119.5 -190.5t-256.5 -71.5zM1307 84q91 0 150 43t68 115q11 71 -36 116.5t-138 45.5q-89 0 -148.5 -45.5t-70.5 -116.5
q-10 -72 37.5 -115t137.5 -43zM1368 520q73 0 124.5 39t61.5 108t-30.5 109.5t-114.5 40.5q-71 0 -123.5 -40.5t-61.5 -109.5q-11 -69 30.5 -108t113.5 -39z" />
    <glyph glyph-name="partialdiff" unicode="&#x2202;" horiz-adv-x="1145" 
d="M468 -20q-139 0 -232 62t-133 167.5t-20 237.5q19 131 87 232.5t177.5 158.5t251.5 57q100 0 154 -27.5t107 -68.5q17 -12 22 -7t7 15q15 107 5 197t-46.5 155.5t-102 101.5t-161.5 36q-94 0 -158.5 -29.5t-119.5 -64.5l-42 130q35 33 95.5 63.5t136.5 50t158 19.5
q159 0 266.5 -81.5t150 -246.5t6.5 -415q-34 -231 -115.5 -397.5t-206 -256t-287.5 -89.5zM480 144h2q79 0 149 50t123 140t82 210q7 30 7 43.5t-8 26.5q-29 50 -95.5 87.5t-145.5 37.5q-78 0 -143 -39.5t-108.5 -108t-56.5 -154.5q-12 -86 10.5 -152t70.5 -103.5t113 -37.5
z" />
    <glyph glyph-name="emptyset" unicode="&#x2205;" horiz-adv-x="1130" 
d="M143 269l-67 84l957 809l64 -84zM529 299q-113 0 -197.5 58t-125.5 155.5t-24 215.5q13 88 56 165.5t108 136.5t144.5 92t162.5 33q113 0 198 -58t126 -155t24 -214q-17 -118 -87 -215.5t-171.5 -155.5t-213.5 -58zM546 410q83 0 158 43t126 115t64 160q13 86 -18 158
t-93 115t-146 43q-83 0 -158 -43t-125 -115t-63 -158q-13 -88 17 -160t92 -115t146 -43z" />
    <glyph glyph-name="uni2206" unicode="&#x2206;" horiz-adv-x="1385" 
d="M-37 0l875 1446l439 -1446h-1314zM298 186h705l-229 832z" />
    <glyph glyph-name="product" unicode="&#x220f;" horiz-adv-x="1281" 
d="M139 0l183 1264h-182l27 182h1201l-27 -182h-184l-184 -1264h-218l183 1264h-397l-183 -1264h-219z" />
    <glyph glyph-name="summation" unicode="&#x2211;" horiz-adv-x="1041" 
d="M-17 0l19 137l489 583l-297 575l22 151h869l-27 -178h-581l279 -527l-469 -555h649l-27 -186h-926z" />
    <glyph glyph-name="minus" unicode="&#x2212;" horiz-adv-x="1092" 
d="M139 645l24 163l848 1l-24 -163z" />
    <glyph glyph-name="uni2215" unicode="&#x2215;" horiz-adv-x="1158" 
d="M155 -8l-134 2l1045 1468h131z" />
    <glyph glyph-name="uni2219" unicode="&#x2219;" horiz-adv-x="645" 
d="M326 602q-51 0 -82.5 39t-22.5 93q7 55 50 93.5t96 38.5q52 0 83 -38.5t23 -93.5q-7 -54 -50 -93t-97 -39z" />
    <glyph glyph-name="radical" unicode="&#x221a;" horiz-adv-x="1244" 
d="M406 -322l-178 878l-155 -59l-27 131l333 120l163 -856l683 1759h179l-779 -1973h-219z" />
    <glyph glyph-name="infinity" unicode="&#x221e;" horiz-adv-x="1444" 
d="M351 204q-81 0 -143 41t-93 115.5t-16 175.5q14 100 67 175t132 116.5t173 41.5q70 0 115.5 -22t79.5 -60t68 -86q13 -15 20.5 -15t23.5 15q37 37 82 76t103 65.5t131 26.5q84 0 145.5 -39t90 -111t14.5 -171l-1 -3q-16 -108 -70.5 -184.5t-131 -116.5t-160.5 -40
q-70 0 -116.5 24.5t-81 66.5t-68.5 92q-8 12 -14 13.5t-19 -13.5q-14 -14 -43 -43.5t-71.5 -62t-96.5 -55t-120 -22.5zM384 352h6q42 0 84.5 22.5t78.5 55t61 62.5q21 26 22 38.5t-13 42.5q-35 72 -78.5 113t-107.5 41q-72 0 -125.5 -51.5t-65.5 -133.5q-12 -84 29 -137
t109 -53zM1015 352q50 0 88.5 28t62 71.5t29.5 88.5q11 74 -23.5 130.5t-107.5 56.5h-2q-66 0 -124 -48t-107 -99q-20 -23 -19.5 -42.5t8.5 -33.5q36 -67 72.5 -99.5t68.5 -42.5t54 -10z" />
    <glyph glyph-name="integral" unicode="&#x222b;" horiz-adv-x="867" 
d="M111 -343q-75 0 -119.5 13t-86.5 41l76 185q35 -22 67 -33.5t76 -11.5q60 0 107.5 48.5t64.5 167.5q21 145 33 297t20.5 303.5t19 296t29.5 273.5q32 216 133 325t255 109q77 0 123 -13t85 -42l-75 -184q-35 21 -67 33t-78 12q-63 0 -110.5 -49t-64.5 -164
q-21 -146 -33 -298t-20.5 -303t-19.5 -294t-29 -271q-21 -147 -74.5 -245t-132.5 -147t-179 -49z" />
    <glyph glyph-name="approxequal" unicode="&#x2248;" horiz-adv-x="1127" 
d="M217 752l-44 117q68 61 137 104.5t157 43.5q55 0 97 -17t79 -38t75 -38t85 -17q71 0 123 36.5t89 83.5l45 -118q-48 -65 -120 -105t-156 -40q-54 0 -96 16.5t-78.5 38t-75.5 38t-88 16.5q-72 0 -127.5 -37.5t-101.5 -83.5zM159 348l-45 118q69 61 137.5 104t157.5 43
q55 0 97 -16.5t79 -38t75 -38.5t84 -17q71 0 123 37t89 83l45 -117q-47 -64 -119 -104.5t-157 -40.5q-57 0 -99 16.5t-78 38t-74 38t-87 16.5q-73 0 -128 -38t-100 -84z" />
    <glyph glyph-name="notequal" unicode="&#x2260;" horiz-adv-x="1095" 
d="M243 104l539 1167h121l-534 -1167h-126zM169 838l24 162l848 1l-24 -162zM104 390l24 163l848 1l-24 -163z" />
    <glyph glyph-name="lessequal" unicode="&#x2264;" horiz-adv-x="1093" 
d="M949 441l-777 339l27 188l878 341l-29 -195l-622 -241l551 -239zM63 99l24 162l848 -1l-25 -162z" />
    <glyph glyph-name="greaterequal" unicode="&#x2265;" horiz-adv-x="1095" 
d="M124 441l27 193l623 239l-553 241l29 195l778 -341l-27 -188zM63 98l24 162l848 1l-24 -162z" />
    <glyph glyph-name="lozenge" unicode="&#x25ca;" horiz-adv-x="979" 
d="M342 0l-212 723l432 723h154l214 -719l-434 -727h-154zM449 162l308 561l-146 559l-306 -552z" />
    <glyph glyph-name="i.loclTRK" horiz-adv-x="506" 
d="M73 0l150 1034h211l-151 -1034h-210zM258 1251l28 195h206l-28 -195h-206z" />
    </font>
</defs>
</svg>
