<?xml version="1.0" standalone="no"?>
<!DOCTYPE svg PUBLIC "-//W3C//DTD SVG 1.1//EN" "http://www.w3.org/Graphics/SVG/1.1/DTD/svg11.dtd" >
<svg xmlns="http://www.w3.org/2000/svg" xmlns:xlink="http://www.w3.org/1999/xlink" version="1.1">
<metadata>
Created by FontForge 20190801 at Fri Apr 29 23:32:12 2022
 By www-data
Copyright 2015 The Public Sans Project Authors (https://github.com/uswds/public-sans)
</metadata>
<defs>
<font id="PublicSansLightItalic" horiz-adv-x="0" >
  <font-face 
    font-family="PublicSansLightItalic"
    font-weight="300"
    font-style="italic"
    font-stretch="normal"
    units-per-em="2000"
    panose-1="0 0 0 0 0 0 0 0 0 0"
    ascent="1600"
    descent="-400"
    x-height="1034"
    cap-height="1446"
    bbox="-381 -480 2269 2080"
    underline-thickness="140"
    underline-position="-440"
    slope="-8"
    unicode-range="U+000D-FB02"
  />
<missing-glyph horiz-adv-x="1655" 
d="M391 1652h918q36 0 36 -42v-1876q0 -56 -66 -56h-872q-31 0 -42.5 12t-11.5 36v1880q0 46 38 46zM1243 -114v1634q0 34 -30 34h-686zM455 1433v-1617q0 -19 9.5 -29.5t34.5 -10.5h671z" />
    <glyph glyph-name="fi" unicode="fi" horiz-adv-x="1236" 
d="M216 0l131 917h-213l19 117h210l24 164q17 122 82.5 185t182.5 63h173l-16 -114h-148q-62 0 -89.5 -35.5t-38.5 -106.5l-22 -156h246l-18 -117h-242l-131 -917h-150zM849 0l146 1034h147l-145 -1034h-148zM1024 1274l23 172h159l-24 -172h-158z" />
    <glyph glyph-name="fl" unicode="fl" horiz-adv-x="1333" 
d="M216 0l131 917h-213l19 117h210l24 164q17 122 82.5 185t182.5 63h173l-16 -114h-148q-62 0 -89.5 -35.5t-38.5 -106.5l-22 -156h246l-18 -117h-242l-131 -917h-150zM1072 -11q-71 0 -113 21.5t-61.5 59.5t-22.5 87t5 103l176 1226h150l-175 -1213q-12 -85 12.5 -124.5
t73.5 -42.5l53 -1l-14 -102q-23 -7 -46 -10.5t-38 -3.5z" />
    <glyph glyph-name=".notdef" horiz-adv-x="1655" 
d="M391 1652h918q36 0 36 -42v-1876q0 -56 -66 -56h-872q-31 0 -42.5 12t-11.5 36v1880q0 46 38 46zM1243 -114v1634q0 34 -30 34h-686zM455 1433v-1617q0 -19 9.5 -29.5t34.5 -10.5h671z" />
    <glyph glyph-name="uni0000" horiz-adv-x="54" 
 />
    <glyph glyph-name="uni0000" horiz-adv-x="54" 
 />
    <glyph glyph-name="nonmarkingreturn" horiz-adv-x="666" 
 />
    <glyph glyph-name="CR" unicode="&#xd;" horiz-adv-x="465" 
 />
    <glyph glyph-name="space" unicode=" " horiz-adv-x="495" 
 />
    <glyph glyph-name="exclam" unicode="!" horiz-adv-x="479" 
d="M159 346l117 1100h183l-197 -1100h-103zM67 0l30 212h186l-31 -212h-185z" />
    <glyph glyph-name="quotedbl" unicode="&#x22;" horiz-adv-x="812" 
d="M592 1005l14 441h194l-116 -441h-92zM260 1005l14 441h194l-116 -441h-92z" />
    <glyph glyph-name="numbersign" unicode="#" horiz-adv-x="1155" 
d="M760 -3l-103 15l219 1437l102 -12zM86 474v103h975v-103h-975zM353 -3l-102 15l219 1437l102 -12zM150 884v103h975v-103h-975z" />
    <glyph glyph-name="dollar" unicode="$" horiz-adv-x="1242" 
d="M560 -20q-207 0 -332 97t-125 284l159 13q14 -129 99 -192.5t219 -63.5q82 0 159 30.5t130.5 86t63.5 130.5q16 100 -30 161.5t-160 97.5l-227 69q-143 43 -218 128t-55 228q17 122 91 215.5t189.5 146.5t257.5 53q136 0 226.5 -56t131.5 -147.5t30 -198.5l-153 -12
q-2 92 -31 154t-84.5 93t-140.5 31q-78 0 -154.5 -29.5t-131 -88.5t-66.5 -148q-12 -82 35 -130t181 -95l216 -71q162 -52 218.5 -157.5t37.5 -240.5q-16 -113 -89.5 -200.5t-189 -137.5t-257.5 -50zM458 -214l37 258h143l-37 -258h-143zM702 1407l37 258h144l-37 -258h-144
z" />
    <glyph glyph-name="percent" unicode="%" horiz-adv-x="1664" 
d="M340 -8l-106 1l1127 1469h104zM438 642q-78 0 -136.5 38.5t-91 110t-32.5 168.5q0 81 22.5 169.5t68.5 165.5t117 125.5t167 48.5q78 0 135.5 -38.5t89.5 -110t32 -169.5q0 -83 -23 -172t-69.5 -165.5t-116 -123.5t-163.5 -47zM448 733q68 0 115.5 43t76.5 109t43 137
t14 127q0 104 -37 166.5t-121 62.5q-66 0 -113 -43t-77.5 -109t-44.5 -137t-14 -126q0 -104 36.5 -167t121.5 -63zM1165 -20q-77 0 -135.5 39t-91 110t-32.5 169q0 86 24 175.5t71.5 165t117.5 122t162 46.5q78 0 135.5 -39t89.5 -110t32 -168q0 -84 -23 -173t-69 -165.5
t-116 -124t-165 -47.5zM1176 72q67 0 114.5 42.5t77 108.5t43.5 137t14 128q0 104 -37 166t-122 62q-65 0 -112 -43t-77.5 -109t-44.5 -136.5t-14 -125.5q0 -104 36.5 -167t121.5 -63z" />
    <glyph glyph-name="ampersand" unicode="&#x26;" horiz-adv-x="1307" 
d="M413 -10q-129 0 -212 47.5t-118 131.5t-20 195q14 93 59.5 169.5t125.5 141.5t196 126q-46 60 -76 117t-42 115.5t-2 122.5q13 87 66 158t135 112.5t183 41.5q95 0 172 -37.5t117.5 -106t26.5 -162.5q-7 -47 -40.5 -109.5t-114 -135t-226.5 -149.5l260 -399
q23 26 59 81.5t70.5 135.5t52.5 181h147q-26 -107 -67.5 -193.5t-92.5 -160t-106 -140.5l180 -273h-176l-112 166q-115 -92 -226.5 -134t-218.5 -42zM463 118q84 0 172 40.5t160 105.5l-287 439q-112 -61 -189.5 -146t-89.5 -192q-12 -112 57 -179.5t177 -67.5zM587 860
q114 64 176.5 115t88.5 95.5t33 89.5q10 72 -16 115t-73.5 62t-100.5 18q-93 -1 -150.5 -58t-67.5 -133q-8 -54 6 -106.5t37 -94.5t41 -66z" />
    <glyph glyph-name="quotesingle" unicode="'" horiz-adv-x="480" 
d="M260 1005l14 441h194l-116 -441h-92z" />
    <glyph glyph-name="parenleft" unicode="(" horiz-adv-x="570" 
d="M290 -236q-57 140 -94 277t-47 284t14 317q36 247 144 476t252 414h102q-122 -194 -218.5 -424.5t-129.5 -467.5q-32 -225 -10.5 -439t88.5 -437h-101z" />
    <glyph glyph-name="parenright" unicode=")" horiz-adv-x="585" 
d="M-63 -239q123 194 218.5 424.5t129.5 467.5q33 225 11 438.5t-89 437.5h101q57 -141 94 -278t46.5 -284t-13.5 -316q-36 -247 -143.5 -476t-252.5 -414h-102z" />
    <glyph glyph-name="asterisk" unicode="*" horiz-adv-x="744" 
d="M312 796l-98 67l185 231l-255 73l37 102l243 -96l-17 273h122l-16 -273l246 105l33 -102l-249 -81l179 -221l-98 -71l-153 247z" />
    <glyph glyph-name="plus" unicode="+" horiz-adv-x="1044" 
d="M433 307l119 841h120l-120 -841h-119zM146 664l18 124l793 2l-18 -125z" />
    <glyph glyph-name="comma" unicode="," horiz-adv-x="452" 
d="M-22 -243l139 240l-78 4l29 204h202l-25 -177l-191 -271h-76z" />
    <glyph glyph-name="hyphen" unicode="-" horiz-adv-x="717" 
d="M116 453l17 127l468 1l-17 -127z" />
    <glyph glyph-name="period" unicode="." horiz-adv-x="419" 
d="M40 0l31 214h186l-32 -214h-185z" />
    <glyph glyph-name="slash" unicode="/" horiz-adv-x="652" 
d="M-57 -88l688 1534h122l-689 -1534h-121z" />
    <glyph glyph-name="zero" unicode="0" horiz-adv-x="1153" 
d="M501 -22q-219 0 -322 185t-52 554q35 249 118 415.5t202 250t264 83.5q217 0 321 -187t52 -559q-52 -370 -208.5 -556t-374.5 -186zM522 117q152 0 251 142t144 461q46 323 -15 466.5t-211 143.5t-252.5 -144.5t-148.5 -465.5q-44 -318 18.5 -460.5t213.5 -142.5z" />
    <glyph glyph-name="one" unicode="1" horiz-adv-x="778" 
d="M286 0l168 1169h-267l15 110q123 0 192.5 17.5t102 55t43.5 94.5h109l-208 -1446h-155z" />
    <glyph glyph-name="two" unicode="2" horiz-adv-x="1121" 
d="M53 0l15 105l8 55q18 130 83 219.5t156 154.5t191.5 118t190.5 108.5t153 127.5t77 174q16 118 -51 190.5t-197 72.5q-94 0 -168.5 -38.5t-123.5 -107t-69 -159.5h-152q20 122 89 223t183 162t267 61q134 0 225.5 -50.5t132.5 -141.5t24 -212q-18 -130 -82.5 -219
t-155 -152t-189 -114t-188 -105t-151 -124t-75.5 -173l-5 -33h726l-20 -142h-894z" />
    <glyph glyph-name="three" unicode="3" horiz-adv-x="1187" 
d="M496 -22q-135 2 -233 55t-146 148.5t-34 225.5h154q0 -137 76.5 -214t208.5 -77q105 0 187 35.5t134 98.5t63 146q14 94 -25.5 158t-117 97t-178.5 34l-121 2l19 137l117 2q94 1 174 38.5t132 97.5t61 131q9 62 -19 116.5t-91.5 88.5t-162.5 34q-75 0 -149.5 -32.5
t-129.5 -99t-72 -169.5h-152q19 136 95.5 233.5t188.5 149.5t238 52q139 0 239 -44t148 -126.5t32 -198.5q-15 -107 -93 -195t-217 -137q90 -27 150 -78.5t86.5 -124.5t12.5 -166q-13 -96 -62 -174t-126.5 -133t-175.5 -83.5t-211 -27.5z" />
    <glyph glyph-name="four" unicode="4" horiz-adv-x="1179" 
d="M664 0l54 383h-642l22 149l766 914h155l-130 -922h228l-21 -141h-229l-54 -383h-149zM244 524h491l101 709z" />
    <glyph glyph-name="five" unicode="5" horiz-adv-x="1206" 
d="M544 -22q-125 0 -223.5 48t-162.5 133.5t-81 198.5l143 49q21 -87 64 -153t111 -103.5t160 -37.5q150 0 255.5 94.5t128.5 261.5q15 103 -18.5 179t-100.5 117.5t-153 41.5q-59 0 -111.5 -11t-106.5 -44t-116 -99q-5 -2 -7 -2t-7 3l-129 35l167 757h801l-23 -138h-664
l-107 -499q76 72 164 103t186 31q120 0 216 -53t144.5 -157.5t27.5 -258.5q-21 -150 -97.5 -261.5t-194.5 -173t-266 -61.5z" />
    <glyph glyph-name="six" unicode="6" horiz-adv-x="1171" 
d="M533 -22q-155 0 -257.5 86.5t-142 248.5t-8.5 389q33 231 117 403t214 266.5t302 94.5q110 0 197 -43.5t137.5 -125t50.5 -196.5h-144q-13 105 -79.5 168.5t-178.5 63.5q-126 0 -221 -76t-154.5 -225t-80.5 -368q37 80 98 141t139 95t162 34q134 0 226.5 -55.5
t134.5 -159t22 -247.5q-20 -146 -92.5 -257t-185.5 -174t-256 -63zM552 112q88 0 162 44t123.5 124t63.5 185q15 104 -8.5 179.5t-85 116.5t-161.5 41q-79 0 -156 -39.5t-131 -106t-66 -147.5q-17 -115 9.5 -204.5t90.5 -141t159 -51.5z" />
    <glyph glyph-name="seven" unicode="7" horiz-adv-x="1130" 
d="M263 0q32 102 94.5 251t152.5 325.5t207 364t258 367.5h-769l21 138h939l-22 -138q-89 -111 -181 -249t-177.5 -286.5t-158 -292t-124.5 -268t-76 -212.5h-164z" />
    <glyph glyph-name="eight" unicode="8" horiz-adv-x="1225" 
d="M536 -22q-155 0 -263 51t-158.5 143.5t-33.5 216.5q12 84 63.5 162t123 133t143.5 69q-91 42 -141 122.5t-33 199.5q18 125 90 212.5t181 133t237 45.5q129 0 225 -45.5t143 -133t29 -212.5q-16 -119 -87.5 -199.5t-174.5 -122.5q68 -14 124.5 -69t86 -133t17.5 -162
q-17 -124 -93.5 -216.5t-199.5 -143.5t-279 -51zM554 108q160 0 266 76.5t124 203.5q12 84 -22 149.5t-107.5 103t-180.5 37.5q-105 0 -189 -37.5t-136 -103t-65 -149.5q-17 -127 67.5 -203.5t242.5 -76.5zM654 822q132 0 223.5 67.5t108.5 190.5q18 122 -55 193t-204 71
q-130 0 -222 -71.5t-109 -192.5q-17 -123 55.5 -190.5t202.5 -67.5z" />
    <glyph glyph-name="nine" unicode="9" horiz-adv-x="1176" 
d="M471 -22q-110 0 -199 44t-141.5 125t-54.5 195h149q10 -103 79 -166.5t181 -63.5q127 0 226 71.5t163.5 220.5t87.5 381q-34 -83 -95.5 -145.5t-140.5 -98t-168 -35.5q-133 0 -227 55.5t-136.5 160t-21.5 250.5t91.5 257.5t183 174t256.5 62.5q155 0 256.5 -86t141 -248
t7.5 -390q-33 -238 -118.5 -409.5t-217 -263t-302.5 -91.5zM589 642q81 0 158 39.5t131 106.5t65 148q18 115 -9 204.5t-90.5 141.5t-158.5 52q-87 0 -160 -44.5t-122 -124.5t-64 -185q-22 -154 40 -246t210 -92z" />
    <glyph glyph-name="colon" unicode=":" horiz-adv-x="422" 
d="M152 775l31 213h186l-31 -213h-186zM41 6l31 212h186l-31 -212h-186z" />
    <glyph glyph-name="semicolon" unicode=";" horiz-adv-x="453" 
d="M1 -279l143 279h-72l30 212h186l-27 -187l-193 -304h-67zM175 772l30 215h187l-31 -215h-186z" />
    <glyph glyph-name="less" unicode="&#x3c;" horiz-adv-x="1029" 
d="M869 297l-729 322l21 148l823 328l-21 -153l-628 -249l555 -247z" />
    <glyph glyph-name="equal" unicode="=" horiz-adv-x="1046" 
d="M175 858l18 124l793 2l-18 -125zM112 418l18 124l793 2l-18 -125z" />
    <glyph glyph-name="greater" unicode="&#x3e;" horiz-adv-x="1028" 
d="M96 297l23 149l625 247l-557 249l23 153l729 -328l-22 -148z" />
    <glyph glyph-name="question" unicode="?" horiz-adv-x="982" 
d="M367 350q16 115 64 200t110 152.5t123.5 129t106.5 128.5t57 152q16 106 -45.5 167.5t-175.5 61.5q-64 0 -129 -26.5t-118.5 -72t-82.5 -100.5l-130 46q78 130 205 204t274 74q125 0 210.5 -44.5t125 -123t24.5 -181.5t-64 -179t-114 -140t-130.5 -128t-115 -140.5
t-64.5 -179.5h-131zM291 0l31 212h184l-31 -212h-184z" />
    <glyph glyph-name="at" unicode="@" horiz-adv-x="1577" 
d="M700 -220q-167 0 -289.5 57t-199.5 157t-106.5 232t-7.5 283q23 158 95.5 298.5t185.5 248.5t257 170t309 62q119 0 228.5 -36.5t191.5 -112t120.5 -193.5t15.5 -283q-22 -149 -85 -263t-152 -178t-190 -64q-70 0 -106 26t-43 79q-2 13 -6 13.5t-15 -10.5
q-49 -58 -116 -97t-158 -39q-69 0 -121.5 42.5t-76.5 120t-9 182.5q18 124 77.5 226.5t148 163.5t191.5 61q76 0 123.5 -34.5t71.5 -90.5q1 -4 5.5 -3t7.5 9l26 69h107l-133 -448q-26 -88 -11.5 -122t62.5 -34q60 0 118 45.5t101.5 130.5t59.5 203q21 143 -10.5 243.5
t-99 163t-157 91.5t-185.5 29q-146 0 -268 -53.5t-213.5 -146t-149.5 -214t-78 -257.5q-18 -129 5.5 -241t88.5 -197t172.5 -132t258.5 -47q84 0 145 17t113 46t105 64l48 -86q-93 -69 -208.5 -110t-243.5 -41zM672 249q60 0 117 38.5t101.5 101.5t64.5 138
q25 93 12.5 155.5t-50 94t-87.5 31.5q-69 0 -126.5 -44t-97 -117.5t-53.5 -163.5q-15 -107 15.5 -170.5t103.5 -63.5z" />
    <glyph glyph-name="A" unicode="A" horiz-adv-x="1347" 
d="M21 0l700 1446h175l284 -1446h-155l-79 412h-571l-200 -412h-154zM437 560h488l-137 730z" />
    <glyph glyph-name="B" unicode="B" horiz-adv-x="1274" 
d="M126 0l208 1446h422q243 0 357 -97.5t87 -281.5q-17 -116 -85.5 -198.5t-217.5 -132.5q76 -17 126.5 -49.5t78 -78t35.5 -102t-2 -121.5q-28 -194 -172 -289.5t-399 -95.5h-438zM297 135h279q181 0 286 62.5t124 196.5q13 97 -25 156.5t-112.5 86t-170.5 26.5h-305z
M391 800h302q55 0 113.5 11.5t110 40t87.5 78t47 123.5q20 135 -66.5 197.5t-241.5 62.5h-278z" />
    <glyph glyph-name="C" unicode="C" horiz-adv-x="1310" 
d="M614 -20q-176 0 -289.5 82t-160 240t-22.5 386q18 178 70 321.5t137 245.5t202 156.5t264 54.5q141 0 241.5 -61.5t153 -165.5t50.5 -229h-163q-4 87 -38.5 159t-100.5 115t-166 43q-108 0 -191 -45t-143 -129t-97 -202.5t-53 -266.5q-32 -288 49.5 -426t272.5 -138
q101 0 178.5 44.5t131.5 118t81 160.5h163q-22 -89 -70 -172.5t-120 -149t-167 -103.5t-213 -38z" />
    <glyph glyph-name="D" unicode="D" horiz-adv-x="1322" 
d="M128 0l204 1446q5 0 69 -0.5t142 -0.5q134 -1 244 -18.5t195.5 -56t144 -101t89 -154t30.5 -214.5q0 -111 -17 -220t-55 -210t-101.5 -186.5t-156.5 -149t-218.5 -99.5t-289.5 -36h-280zM304 138h114q180 0 307.5 56.5t207.5 158t117.5 239t37.5 300.5q0 157 -57.5 248
t-166 129.5t-263.5 38.5h-130z" />
    <glyph glyph-name="E" unicode="E" horiz-adv-x="1188" 
d="M126 0l208 1446h838l-21 -140h-687l-72 -506h623l-19 -140h-624l-74 -516l708 -1l-22 -143h-858z" />
    <glyph glyph-name="F" unicode="F" horiz-adv-x="1131" 
d="M127 0l207 1446h827l-20 -139h-671l-72 -509h607l-19 -139h-608l-95 -659h-156z" />
    <glyph glyph-name="G" unicode="G" horiz-adv-x="1394" 
d="M609 -20q-178 0 -293.5 86.5t-160.5 251.5t-11 402t128 404t236 254.5t320 87.5q132 0 233.5 -64.5t156.5 -168.5t46 -223h-162q-1 83 -38 154.5t-103.5 115.5t-156.5 44q-123 0 -225 -64.5t-172.5 -198t-100.5 -338.5q-22 -158 -8 -272t60 -186.5t117.5 -107
t162.5 -34.5q90 0 162.5 34.5t125 89.5t84.5 118.5t43 121.5l24 139h-343l17 118l499 -1l-106 -743h-118l33 229q-46 -66 -110 -122.5t-148.5 -91.5t-191.5 -35z" />
    <glyph glyph-name="H" unicode="H" horiz-adv-x="1470" 
d="M127 0l203 1446h151l-88 -626h770l87 626h151l-203 -1446h-151l95 679h-769l-95 -679h-151z" />
    <glyph glyph-name="I" unicode="I" horiz-adv-x="554" 
d="M127 0l207 1446h151l-206 -1446h-152z" />
    <glyph glyph-name="J" unicode="J" horiz-adv-x="747" 
d="M235 -20q-73 0 -133 20t-77 29l36 152q28 -12 64 -30.5t96 -18.5q92 0 134 54.5t60 184.5l155 1075h149l-160 -1121q-16 -109 -50.5 -186.5t-100 -118t-173.5 -40.5z" />
    <glyph glyph-name="K" unicode="K" horiz-adv-x="1291" 
d="M126 0l208 1446h156l-109 -771l744 771h182l-540 -565l372 -881h-174l-330 763l-285 -296l-66 -467h-158z" />
    <glyph glyph-name="L" unicode="L" horiz-adv-x="1109" 
d="M126 0l208 1446h155l-186 -1301h653l-21 -145h-809z" />
    <glyph glyph-name="M" unicode="M" horiz-adv-x="1679" 
d="M127 0l207 1446h205l254 -1239l616 1239h201l-206 -1446h-157l170 1186l-579 -1186h-149l-238 1174l-168 -1174h-156z" />
    <glyph glyph-name="N" unicode="N" horiz-adv-x="1435" 
d="M126 0l208 1446h141l575 -1169l166 1169h152l-209 -1446h-133l-580 1180l-169 -1180h-151z" />
    <glyph glyph-name="O" unicode="O" horiz-adv-x="1388" 
d="M618 -20q-181 0 -298.5 86t-164 250.5t-12.5 400.5q35 240 129.5 407t237.5 254.5t322 87.5q178 0 294.5 -87t163 -253.5t12.5 -405.5q-34 -237 -127.5 -402t-235.5 -251.5t-321 -86.5zM640 120q131 0 232 64t168 196.5t96 338.5q30 207 0.5 342t-112 200.5t-213.5 65.5
q-196 0 -326 -149t-175 -459q-29 -205 1 -337.5t114 -197t215 -64.5z" />
    <glyph glyph-name="P" unicode="P" horiz-adv-x="1211" 
d="M127 0l207 1446h450q144 0 249.5 -51.5t156.5 -152t30 -248.5q-22 -145 -97.5 -246.5t-191 -154.5t-257.5 -53h-313l-78 -540h-156zM379 677h313q98 0 179 39t133.5 112t67.5 175q20 154 -63.5 231t-236.5 77h-302z" />
    <glyph glyph-name="Q" unicode="Q" horiz-adv-x="1418" 
d="M1152 -241q-62 0 -131.5 18t-133 69.5t-105.5 152.5q-47 -9 -86.5 -14t-77.5 -5q-177 0 -295 84.5t-166 249.5t-13 406q34 240 128.5 406.5t237 253t321.5 86.5t296 -86.5t163.5 -253t12.5 -406.5q-32 -230 -120.5 -394t-247.5 -259q26 -87 90 -127.5t147 -44.5zM639 120
q197 0 326 145t172 454q30 203 1.5 338t-111.5 202.5t-216 67.5q-201 0 -329 -152t-172 -459q-43 -307 44 -451.5t285 -144.5z" />
    <glyph glyph-name="R" unicode="R" horiz-adv-x="1288" 
d="M126 0l208 1446h514q143 0 234 -45.5t128 -131.5t20 -208q-17 -118 -69 -196.5t-120.5 -125t-137.5 -69.5l174 -670h-160l-163 641h-385l-92 -641h-151zM388 775h307q108 0 188 29.5t128 90.5t61 155q19 135 -48.5 199.5t-206.5 64.5h-352z" />
    <glyph glyph-name="S" unicode="S" horiz-adv-x="1291" 
d="M579 -20q-96 0 -181.5 25t-151.5 74.5t-103.5 123.5t-37.5 173h161q7 -87 52 -145.5t117.5 -88t161.5 -29.5q102 0 185 31t136 88t63 133q9 69 -11.5 120t-69 85.5t-124.5 54.5l-265 70q-147 36 -220 123.5t-54 230.5q16 122 90 215.5t190 146.5t256 53
q156 0 256.5 -60.5t146 -155.5t34.5 -198h-160q5 104 -35 165t-109 87t-152 26q-78 0 -155 -29.5t-132 -88.5t-67 -148q-11 -82 35.5 -133.5t180.5 -89.5l256 -69q95 -23 151.5 -66t84 -98.5t33 -116.5t-2.5 -121q-14 -107 -85 -195t-191.5 -140.5t-282.5 -52.5z" />
    <glyph glyph-name="T" unicode="T" horiz-adv-x="1117" 
d="M420 0l185 1301h-443l20 145h1013l-20 -145h-419l-186 -1301h-150z" />
    <glyph glyph-name="U" unicode="U" horiz-adv-x="1331" 
d="M607 -20q-171 0 -269.5 59.5t-131.5 177.5t-8 291l134 938h157l-138 -967q-18 -120 8 -200t93.5 -120t174.5 -40q161 0 260.5 89t125.5 271l137 967h151l-136 -960q-23 -164 -90.5 -277t-183 -171t-284.5 -58z" />
    <glyph glyph-name="V" unicode="V" horiz-adv-x="1245" 
d="M449 0l-268 1446h150l236 -1270l609 1270h149l-691 -1446h-185z" />
    <glyph glyph-name="W" unicode="W" horiz-adv-x="1795" 
d="M363 0l-181 1446h155l139 -1205l490 1205h121l146 -1205l490 1205h152l-602 -1446h-147l-141 1169l-479 -1169h-143z" />
    <glyph glyph-name="X" unicode="X" horiz-adv-x="1304" 
d="M21 0l568 739l-341 707h190l268 -570l431 570h170l-535 -693l366 -753h-191l-290 612l-464 -612h-172z" />
    <glyph glyph-name="Y" unicode="Y" horiz-adv-x="1118" 
d="M410 0l87 619l-340 827h164l274 -686l463 686h166l-575 -829l-89 -617h-150z" />
    <glyph glyph-name="Z" unicode="Z" horiz-adv-x="1203" 
d="M60 0l14 91l928 1217h-726l20 138h937l-12 -87l-937 -1219h760l-22 -140h-962z" />
    <glyph glyph-name="bracketleft" unicode="[" horiz-adv-x="574" 
d="M72 -322l251 1768h331l-15 -106h-196l-223 -1556h195l-15 -106h-328z" />
    <glyph glyph-name="backslash" unicode="\" horiz-adv-x="644" 
d="M406 -88l-247 1534h121l249 -1534h-123z" />
    <glyph glyph-name="bracketright" unicode="]" horiz-adv-x="573" 
d="M-68 -322l16 106h195l224 1556h-196l16 106h328l-252 -1768h-331z" />
    <glyph glyph-name="asciicircum" unicode="^" horiz-adv-x="896" 
d="M631 260l-137 604l-312 -601h-122l378 719q23 45 52.5 61.5t55 2t37.5 -62.5l174 -723h-126z" />
    <glyph glyph-name="underscore" unicode="_" horiz-adv-x="974" 
d="M21 -226l19 126l720 2l-20 -127z" />
    <glyph glyph-name="grave" unicode="`" horiz-adv-x="476" 
d="M441 1155l-240 291h175l180 -291h-115z" />
    <glyph glyph-name="a" unicode="a" horiz-adv-x="1052" 
d="M350 -20q-95 0 -161.5 35.5t-97 101.5t-18.5 159q25 172 148 255t371 90l185 6l13 86q15 106 -41.5 164t-162.5 57q-87 0 -163 -47t-106 -140h-137q18 85 75.5 155t148 111t207.5 41q120 0 198 -41t110.5 -115.5t17.5 -177.5l-103 -720h-130l16 191q-76 -123 -171 -167
t-199 -44zM409 97q51 0 105.5 20t102 55t80 78t38.5 88l26 184l-152 -3q-122 -2 -203.5 -26t-126 -73.5t-56.5 -129.5q-12 -91 40 -142t146 -51z" />
    <glyph glyph-name="b" unicode="b" horiz-adv-x="1146" 
d="M565 -20q-88 0 -145.5 25.5t-90.5 63.5t-48 77t-20 66l-44 -212h-118l197 1486h153l-82 -622q14 23 42.5 55t72.5 63t103 51.5t133 20.5q183 0 274 -134t57 -399q-32 -244 -154.5 -392.5t-329.5 -148.5zM558 104q125 0 217 103t121 324q25 186 -33.5 292t-200.5 106
q-155 0 -234 -105.5t-106 -292.5q-29 -226 24.5 -326.5t211.5 -100.5z" />
    <glyph glyph-name="c" unicode="c" horiz-adv-x="1037" 
d="M464 -20q-131 0 -222 60t-130 179t-15 295q24 161 92 282.5t176.5 189.5t252.5 68q101 0 177.5 -40t119.5 -114.5t43 -179.5h-138q-1 58 -27 104.5t-74.5 73.5t-118.5 27q-132 0 -229 -100.5t-127 -309.5q-27 -187 33 -299.5t208 -112.5q69 0 126 27.5t96 74t55 102.5
h136q-29 -102 -93.5 -175.5t-152.5 -112.5t-188 -39z" />
    <glyph glyph-name="d" unicode="d" horiz-adv-x="1142" 
d="M438 -20q-189 0 -282 136.5t-58 404.5q32 241 152 387t320 146q74 0 127.5 -20.5t89 -51.5t56 -63t28.5 -55l83 622h153l-198 -1486h-118l12 212q-11 -27 -36.5 -66t-68.5 -77t-107 -63.5t-153 -25.5zM479 104q158 0 238 100.5t110 326.5q15 125 -2 214t-73 136.5
t-160 47.5q-128 0 -220 -96t-119 -302q-26 -200 30 -313.5t196 -113.5z" />
    <glyph glyph-name="e" unicode="e" horiz-adv-x="1078" 
d="M484 -20q-135 0 -228 62.5t-133.5 180.5t-16.5 284q24 165 93.5 288.5t178 191t248.5 67.5q135 0 220 -61.5t117.5 -175.5t9.5 -272l-9 -64h-708q-15 -104 5 -189t79 -136t160 -51q99 0 177 49.5t109 140.5h144q-33 -104 -103 -174t-160 -105.5t-183 -35.5zM272 592h561
q15 96 -4 173t-74 122t-148 45q-99 0 -169.5 -50.5t-112 -128.5t-53.5 -161z" />
    <glyph glyph-name="f" unicode="f" horiz-adv-x="756" 
d="M216 0l131 917h-213l19 117h210l24 164q17 122 82.5 185t182.5 63h173l-16 -114h-148q-62 0 -89.5 -35.5t-38.5 -106.5l-22 -156h246l-18 -117h-242l-131 -917h-150z" />
    <glyph glyph-name="g" unicode="g" horiz-adv-x="1178" 
d="M446 -342q-224 0 -342.5 72.5t-100.5 210.5q8 55 37 94.5t65.5 66.5t68 43.5t42.5 24.5q-14 10 -34.5 25t-35 39.5t-8.5 63.5q5 44 51 82t134 60q-77 45 -115 120.5t-26 167.5q13 96 69 169t153 113t233 40q96 0 157.5 -24t110.5 -68q16 7 50.5 21t75 31t77 32t54.5 23
l-20 -157l-178 -39q26 -73 17 -152q-12 -90 -65.5 -162t-146.5 -113.5t-226 -41.5q-11 0 -26 0.5t-23 0.5q-114 -2 -159 -24t-48 -49q-2 -31 38 -44.5t139 -21.5q39 -3 93 -6t119 -8q148 -9 221.5 -81.5t56.5 -198.5q-18 -138 -144 -224t-364 -86zM479 -235q142 0 227 48.5
t98 145.5q8 64 -31 105t-132 47l-283 19q-34 3 -79.5 -20.5t-81 -65t-42.5 -95.5q-11 -85 67.5 -134.5t256.5 -49.5zM553 506q114 0 191.5 55.5t91.5 165.5q15 109 -45 164.5t-171 55.5q-115 0 -194 -59t-94 -172q-14 -101 44 -155.5t177 -54.5z" />
    <glyph glyph-name="h" unicode="h" horiz-adv-x="1114" 
d="M99 0l201 1486h148l-81 -599q45 66 129 114t202 48q96 0 168 -38t108 -106t23 -157l-100 -748h-152l96 714q14 96 -42 150.5t-158 54.5q-71 0 -135 -24.5t-107.5 -72.5t-53.5 -121l-95 -701h-151z" />
    <glyph glyph-name="i" unicode="i" horiz-adv-x="480" 
d="M93 0l146 1034h147l-145 -1034h-148zM268 1274l23 172h159l-24 -172h-158z" />
    <glyph glyph-name="j" unicode="j" horiz-adv-x="496" 
d="M-49 -332q-80 0 -98.5 11l-18.5 11l15 104l102 4q67 5 99.5 38t42.5 111l156 1087h151l-157 -1095q-20 -138 -84 -204.5t-208 -66.5zM280 1283l24 172h163l-24 -172h-163z" />
    <glyph glyph-name="k" unicode="k" horiz-adv-x="1065" 
d="M87 0l214 1486h150l-141 -993l556 541h177l-406 -389l283 -645h-163l-235 539l-240 -229l-44 -310h-151z" />
    <glyph glyph-name="l" unicode="l" horiz-adv-x="577" 
d="M316 -11q-71 0 -113 21.5t-61.5 59.5t-22.5 87t5 103l176 1226h150l-175 -1213q-12 -85 12.5 -124.5t73.5 -42.5l53 -1l-14 -102q-23 -7 -46 -10.5t-38 -3.5z" />
    <glyph glyph-name="m" unicode="m" horiz-adv-x="1632" 
d="M88 0l148 1034h144l-21 -146q48 67 124.5 116.5t189.5 49.5q81 0 157 -41t100 -124q58 77 143.5 121t177.5 44q51 0 103.5 -16t95 -56t61.5 -112t2 -185l-98 -685h-149l96 673q14 101 -7.5 156.5t-66 77t-97.5 21.5q-56 0 -112.5 -21.5t-98.5 -72t-56 -139.5l-99 -695
h-149l104 735q10 64 -16 107t-70.5 64.5t-91.5 21.5q-52 0 -108.5 -22t-99.5 -70t-54 -125l-102 -711h-150z" />
    <glyph glyph-name="n" unicode="n" horiz-adv-x="1100" 
d="M88 0l148 1034h144l-18 -146q32 45 79.5 81.5t110.5 58.5t141 22q95 0 166 -42t104.5 -125t15.5 -206l-97 -677h-151l96 664q18 124 -35 189.5t-154 65.5q-71 0 -135.5 -24t-109 -72t-54.5 -121l-101 -702h-150z" />
    <glyph glyph-name="o" unicode="o" horiz-adv-x="1074" 
d="M466 -20q-133 0 -224 60.5t-129.5 179.5t-15.5 293q22 162 89 284t175 189.5t251 67.5q133 0 222.5 -61.5t127.5 -182t14 -297.5q-21 -158 -87 -278t-172 -187.5t-251 -67.5zM485 106q90 0 160.5 48t117.5 140t64 223q15 118 -2.5 211t-73.5 146.5t-157 53.5
q-92 0 -163.5 -47.5t-117.5 -139.5t-64 -224q-16 -118 2 -210.5t75 -146.5t159 -54z" />
    <glyph glyph-name="p" unicode="p" horiz-adv-x="1140" 
d="M53 -322l180 1356h150l-21 -189q26 41 72 90t115.5 84t164.5 35q119 0 201.5 -56t118 -172t11.5 -294q-23 -174 -87.5 -297.5t-165 -189t-232.5 -65.5q-69 0 -119 21t-83.5 55t-53 70.5t-30.5 69.5l-68 -518h-153zM552 105q128 0 222 103t122 318q24 184 -34.5 293.5
t-201.5 109.5q-142 0 -231 -111t-112 -292q-16 -118 4.5 -213.5t78 -151.5t152.5 -56z" />
    <glyph glyph-name="q" unicode="q" horiz-adv-x="1143" 
d="M712 -322l68 518q-24 -43 -69.5 -93t-112.5 -86.5t-160 -36.5q-119 0 -204.5 58.5t-122.5 180.5t-11 313q21 163 82.5 280t159 179.5t227.5 62.5q71 0 122.5 -20.5t86.5 -53t56 -68.5t33 -67l27 189h150l-179 -1356h-153zM480 105q96 0 168 56t117.5 151.5t60.5 213.5
q24 181 -35 292t-202 111q-128 0 -221.5 -99.5t-120.5 -303.5q-26 -194 32.5 -307.5t200.5 -113.5z" />
    <glyph glyph-name="r" unicode="r" horiz-adv-x="741" 
d="M87 0l146 1034h144l-26 -187q35 73 85.5 118.5t110 67t117.5 21.5q24 0 46 -3.5t34 -11.5l-21 -152q-15 8 -39.5 11t-40.5 3q-69 4 -135.5 -17.5t-114 -75t-60.5 -144.5l-94 -664h-152z" />
    <glyph glyph-name="s" unicode="s" horiz-adv-x="961" 
d="M423 -20q-102 0 -183 33.5t-127 103t-45 177.5h141q3 -62 32.5 -105t80 -65.5t118.5 -22.5q103 0 172 42.5t82 130.5q8 61 -19 98t-92 54l-201 57q-111 31 -170.5 93.5t-44.5 174.5q12 89 61.5 157t136 107t207.5 39q154 0 239.5 -73t69.5 -218h-137q2 79 -46 125.5
t-143 46.5q-99 0 -166.5 -43t-79.5 -133q-9 -60 29 -93.5t116 -55.5l196 -57q62 -18 100.5 -47.5t58.5 -66t25 -77.5t-1 -79q-13 -93 -65 -161t-139 -105t-206 -37z" />
    <glyph glyph-name="t" unicode="t" horiz-adv-x="737" 
d="M427 -4q-95 0 -143.5 28t-61.5 83t-2 138l96 672h-158l18 117h160l72 298h120l-42 -297h221l-18 -118h-221l-94 -660q-12 -89 14 -113t94 -24h100l-16 -108q-18 -7 -54 -11.5t-85 -4.5z" />
    <glyph glyph-name="u" unicode="u" horiz-adv-x="1110" 
d="M444 -20q-78 1 -143 23.5t-110.5 67t-65 111t-7.5 154.5l98 698h152l-97 -684q-15 -109 37.5 -176.5t180.5 -67.5q114 0 192 63.5t96 192.5l95 672h151l-146 -1034h-121l11 196q-27 -74 -76 -122t-112.5 -71.5t-134.5 -22.5z" />
    <glyph glyph-name="v" unicode="v" horiz-adv-x="949" 
d="M325 0l-199 1034h145l146 -841h18l392 841h142l-495 -1034h-149z" />
    <glyph glyph-name="w" unicode="w" horiz-adv-x="1468" 
d="M280 0l-148 1034h142l111 -836h17l348 836h116l120 -834h16l340 834h141l-436 -1034h-159l-116 801l-332 -801h-160z" />
    <glyph glyph-name="x" unicode="x" horiz-adv-x="1060" 
d="M-3 0l450 537l-272 497h166l210 -383l317 383h167l-416 -497l298 -537h-167l-234 424l-352 -424h-167z" />
    <glyph glyph-name="y" unicode="y" horiz-adv-x="1000" 
d="M115 -330q-82 0 -110 11.5l-28 11.5l15 102l101 -1q69 -2 111 15.5t65.5 45.5t37.5 56l53 109l-234 1014h154l180 -832l414 832h147l-574 -1131q-47 -90 -99.5 -140.5t-110 -71.5t-122.5 -21z" />
    <glyph glyph-name="z" unicode="z" horiz-adv-x="913" 
d="M9 0l13 103l682 814h-527l16 117h707l-13 -102l-681 -814h571l-17 -118h-751z" />
    <glyph glyph-name="braceleft" unicode="{" horiz-adv-x="597" 
d="M342 -322q-73 0 -122 25t-71 70.5t-13 106.5l64 439q6 47 -10.5 92t-59.5 74t-115 29l16 102q109 2 168 59.5t72 145.5l62 429q8 60 43.5 104t91.5 68t125 24h84l-15 -106h-65q-46 0 -72.5 -11.5t-40 -34.5t-17.5 -56l-62 -433q-12 -76 -45 -126t-78 -75.5t-93 -30.5
q-10 -1 -12 -6.5t10 -7.5q46 -4 84 -27.5t57 -73t9 -130.5l-62 -437q-8 -55 12.5 -81t89.5 -26h62l-15 -106h-82z" />
    <glyph glyph-name="bar" unicode="|" horiz-adv-x="524" 
d="M82 -322l282 1974h121l-283 -1974h-120z" />
    <glyph glyph-name="braceright" unicode="}" horiz-adv-x="608" 
d="M-76 -322l15 106h65q46 0 73 11.5t40 34.5t17 57l62 433q12 75 45 125t78 76t93 31q11 2 12.5 7t-10.5 6q-46 4 -84 27.5t-57 73t-9 130.5l62 437q9 56 -12 81.5t-90 25.5h-62l15 106h82q73 0 122.5 -25t71 -70.5t12.5 -105.5l-64 -440q-6 -47 11 -91.5t59.5 -74
t114.5 -29.5l-16 -102q-109 -1 -168 -58.5t-72 -145.5l-62 -429q-8 -61 -43.5 -105t-91.5 -68t-125 -24h-84z" />
    <glyph glyph-name="asciitilde" unicode="~" horiz-adv-x="1062" 
d="M176 618l-31 94q56 50 117.5 87.5t144.5 37.5q52 0 93 -15.5t78 -35t75.5 -34.5t86.5 -15q71 0 119 32.5t81 70.5l31 -96q-36 -49 -99.5 -84t-147.5 -35q-56 0 -97 15t-76 35t-72.5 35t-86.5 15q-70 0 -123 -33.5t-93 -73.5z" />
    <glyph glyph-name="uni00A0" unicode="&#xa0;" horiz-adv-x="495" 
 />
    <glyph glyph-name="exclamdown" unicode="&#xa1;" horiz-adv-x="483" 
d="M37 -322l174 1009h102l-93 -1009h-183zM187 823l29 211h185l-29 -211h-185z" />
    <glyph glyph-name="cent" unicode="&#xa2;" horiz-adv-x="1047" 
d="M510 202q-133 0 -226.5 60t-133.5 179t-15 295q24 161 93.5 282.5t181 189.5t257.5 68q105 0 183 -40t121.5 -114.5t43.5 -179.5h-144q-1 58 -27 104.5t-75.5 73.5t-119.5 27q-133 0 -231.5 -100.5t-128.5 -309.5q-27 -187 33.5 -299.5t209.5 -112.5q71 0 128 27.5
t96.5 74t56.5 102.5h141q-29 -102 -94.5 -175.5t-156 -112.5t-193.5 -39zM409 0l40 273h114l-39 -273h-115zM598 1174l39 272h115l-39 -272h-115z" />
    <glyph glyph-name="sterling" unicode="&#xa3;" horiz-adv-x="1145" 
d="M-45 0l20 137h72q72 0 132 70t82 222q8 52 11.5 113t2.5 149h-190l16 106h172l-7 161q-7 119 28 212.5t99.5 160t148 101t171.5 34.5q87 0 157.5 -30t118 -81t62.5 -113l-141 -52q-22 68 -67.5 103t-131.5 35q-99 0 -176.5 -62t-95.5 -175q-7 -61 -6 -139.5t12 -153.5
h309l-16 -106h-295q0 -71 -3.5 -125t-14.5 -109q-16 -94 -44 -157t-58 -102t-53 -60h343q97 0 161.5 36t109.5 127l125 -38q-62 -132 -165.5 -198t-243.5 -66h-645z" />
    <glyph glyph-name="currency" unicode="&#xa4;" horiz-adv-x="1014" 
d="M156 312l-63 85l125 114q-25 48 -32.5 101.5t0.5 115.5q8 57 30 107.5t55 93.5q7 9 6.5 15t-4.5 11l-82 106l88 81l93 -119q47 34 102 52t110 18q106 0 181 -62q13 -8 23 2l117 107l63 -82l-126 -117q24 -46 33.5 -100t0.5 -113q-7 -55 -29 -107t-57 -94q-9 -15 -2 -23
l87 -104l-89 -82l-92 115q-49 -34 -103 -53.5t-111 -19.5q-106 0 -183 61q-13 11 -25 -2zM500 485q64 0 120 34t93.5 89t47.5 120q9 64 -12.5 119t-68 89.5t-111.5 34.5t-121 -34.5t-94 -89.5t-47 -119q-9 -65 12.5 -120t68 -89t112.5 -34z" />
    <glyph glyph-name="yen" unicode="&#xa5;" horiz-adv-x="1130" 
d="M409 0l86 605l-349 841h196l272 -684l470 684h162l-574 -808l-92 -638h-171zM161 278l15 104l748 2l-16 -105zM202 566l15 105l748 1l-15 -105z" />
    <glyph glyph-name="brokenbar" unicode="&#xa6;" horiz-adv-x="524" 
d="M250 854l114 798h121l-115 -798h-120zM82 -322l114 798h119l-113 -798h-120z" />
    <glyph glyph-name="section" unicode="&#xa7;" horiz-adv-x="922" 
d="M383 -140q-88 0 -163 29.5t-127.5 81.5t-74.5 120l110 58q33 -75 102 -125t171 -50q94 0 160.5 39.5t77.5 113.5q8 53 -24.5 100t-137.5 94l-155 68q-119 52 -164.5 122t-32.5 164q14 92 77 158.5t149 100.5q-103 64 -129.5 127t-17.5 133q12 77 64 138.5t134.5 97.5
t186.5 36q83 0 148 -28t110.5 -73.5t69.5 -97.5l-111 -59q-37 60 -91 102t-134 42q-100 0 -161 -40t-71 -106q-6 -45 21 -87.5t110 -81.5l148 -68q136 -62 188 -139.5t36 -178.5q-13 -100 -72.5 -159t-134.5 -96q79 -51 115 -111.5t25 -143.5q-13 -81 -66 -144.5t-139 -100
t-197 -36.5zM513 462q48 -4 91.5 18.5t73 61.5t35.5 87q7 63 -18 110t-117 89l-100 45q-53 -5 -100 -31t-78 -65.5t-37 -82.5q-8 -56 19 -94.5t124 -84.5z" />
    <glyph glyph-name="dieresis" unicode="&#xa8;" horiz-adv-x="485" 
d="M423 1283l23 163h156l-23 -163h-156zM115 1283l23 163h156l-23 -163h-156z" />
    <glyph glyph-name="copyright" unicode="&#xa9;" horiz-adv-x="1534" 
d="M688 -20q-145 0 -263.5 57.5t-199.5 159.5t-116 237t-12 290q21 153 94.5 287.5t184 236.5t245.5 160t279 58t262 -58t199.5 -160t116.5 -236.5t13 -287.5q-23 -155 -96.5 -290t-184 -237t-245 -159.5t-277.5 -57.5zM740 311q-106 0 -178.5 52.5t-104.5 146t-14 217.5
q17 124 76.5 218.5t147.5 148t192 53.5q76 0 129.5 -29.5t89 -78t56.5 -104.5l-119 -35q-17 44 -39.5 76t-54 49.5t-71.5 17.5q-67 0 -123.5 -38t-95.5 -108t-53 -166q-21 -147 31.5 -231.5t154.5 -84.5q72 0 131.5 43.5t101.5 111.5l84 -37q-27 -43 -62 -83t-78.5 -71
t-94 -49.5t-106.5 -18.5zM705 94q119 0 230 44.5t203.5 127t155 198.5t82.5 260q21 142 -8 258t-98 199.5t-168 128.5t-218 45q-121 0 -233.5 -45t-204 -128.5t-153 -199.5t-82.5 -258q-27 -192 31 -333.5t179 -219t284 -77.5z" />
    <glyph glyph-name="ordfeminine" unicode="&#xaa;" horiz-adv-x="773" 
d="M345 792q-94 0 -140 48t-34 132q14 94 97.5 149t226.5 67l112 10l6 48q10 69 -24 99.5t-98 30.5q-50 0 -91 -20.5t-81 -77.5l-88 29q44 74 112.5 114.5t165.5 40.5q120 -1 169.5 -59t35.5 -159q-12 -80 -19.5 -136t-13.5 -95q-2 -17 -4.5 -40t-4 -47.5t-2.5 -46.5v-75
h-105l-3 89q-55 -52 -106 -76.5t-111 -24.5zM389 874q73 0 133 53q25 21 40.5 41.5t17.5 44.5l15 109l-90 -8q-106 -7 -162.5 -43t-64.5 -94q-6 -47 24.5 -75t86.5 -28z" />
    <glyph glyph-name="guillemotleft" unicode="&#xab;" horiz-adv-x="845" 
d="M598 144l-200 358l306 375h89l-251 -375l143 -358h-87zM272 144l-199 358l305 375h89l-251 -375l143 -358h-87z" />
    <glyph glyph-name="logicalnot" unicode="&#xac;" horiz-adv-x="1045" 
d="M146 664l19 124l793 2l-19 -125zM771 382l52 372h130l-55 -372h-127z" />
    <glyph glyph-name="uni00AD" unicode="&#xad;" horiz-adv-x="717" 
d="M116 453l17 127l468 1l-17 -127z" />
    <glyph glyph-name="registered" unicode="&#xae;" horiz-adv-x="1012" 
d="M506 536q-122 0 -212 62t-133.5 167.5t-24.5 234.5q18 129 91.5 235t181.5 168.5t231 62.5q119 0 208.5 -62.5t133.5 -168.5t25 -235q-18 -129 -92 -234.5t-181.5 -167.5t-227.5 -62zM518 622q103 0 188.5 46.5t142 131.5t73.5 200q16 115 -16 200.5t-104 133t-175 47.5
q-105 0 -191 -47.5t-142 -133t-72 -200.5q-25 -173 57 -275.5t239 -102.5zM373 767l67 461h193q70 0 104 -29t26 -87q-7 -54 -40 -82.5t-70 -41.5l53 -221h-82l-43 214h-102l-31 -214h-75zM487 1046h109q32 0 57.5 12.5t30.5 46.5q3 24 -12 42t-64 18h-103z" />
    <glyph glyph-name="macron" unicode="&#xaf;" horiz-adv-x="592" 
d="M129 1243l17 115h538l-17 -115h-538z" />
    <glyph glyph-name="degree" unicode="&#xb0;" horiz-adv-x="883" 
d="M513 1057q-84 0 -143.5 39t-86.5 108.5t-14 159.5t60 160t118 110t156 40q83 0 142 -40t87 -110t15 -160t-60.5 -159.5t-119 -108.5t-154.5 -39zM526 1161q83 0 139.5 56t68.5 145q14 89 -26.5 145t-125.5 56q-81 0 -138 -56t-70 -145q-11 -89 29.5 -145t122.5 -56z" />
    <glyph glyph-name="plusminus" unicode="&#xb1;" horiz-adv-x="1047" 
d="M457 456l119 841h120l-121 -841h-118zM71 129l18 124l793 2l-18 -124zM170 812l18 125l793 1l-18 -124z" />
    <glyph glyph-name="uni00B2" unicode="&#xb2;" horiz-adv-x="682" 
d="M71 768l10 66l5 34q12 83 52.5 139t98 96.5t120.5 74.5t120 69t96 80t48 109q10 74 -32 119.5t-124 45.5q-89 0 -149 -53t-78 -138h-96q19 114 106.5 197t233.5 83q126 0 191 -70t49 -184q-12 -82 -52.5 -138t-97.5 -95.5t-119 -72t-118 -66t-94.5 -78t-48.5 -108.5
l-2 -21h457l-14 -89h-562z" />
    <glyph glyph-name="uni00B3" unicode="&#xb3;" horiz-adv-x="749" 
d="M368 754q-128 2 -200.5 74.5t-59.5 195.5h97q0 -86 48 -134.5t131 -48.5q99 0 165 49t77 127q13 89 -47 135t-155 47l-77 1l13 86l73 1q60 1 109.5 24.5t82.5 62t40 81.5q8 59 -35.5 105t-137.5 46q-47 0 -94 -20.5t-81.5 -62t-44.5 -107.5h-96q12 86 60 147.5t118.5 94
t149.5 32.5q88 0 151 -27.5t93 -79t20 -125.5q-10 -68 -59 -122.5t-136 -86.5q56 -17 94 -49t54.5 -78t8.5 -105q-12 -81 -62 -140.5t-127.5 -91.5t-172.5 -31z" />
    <glyph glyph-name="acute" unicode="&#xb4;" horiz-adv-x="394" 
d="M100 1155l233 291h182l-292 -291h-123z" />
    <glyph glyph-name="uni00B5" unicode="&#xb5;" horiz-adv-x="1116" 
d="M24 -330l199 1390h155l-107 -740q-7 -51 14 -94.5t63.5 -69.5t99.5 -26q80 0 161.5 50.5t161.5 135.5l105 744h156l-154 -1060h-148l23 164q-102 -82 -172.5 -119t-145.5 -40q-60 -3 -110 12t-89 56l-58 -403h-154z" />
    <glyph glyph-name="paragraph" unicode="&#xb6;" horiz-adv-x="1048" 
d="M394 -166l109 760q-122 3 -203 59.5t-115.5 149.5t-18.5 205q16 111 78 211.5t166.5 163.5t246.5 63h379l-14 -99h-113l-217 -1513h-103l216 1513h-90l-218 -1513h-103z" />
    <glyph glyph-name="periodcentered" unicode="&#xb7;" horiz-adv-x="433" 
d="M128 628l30 202h200l-31 -202h-199z" />
    <glyph glyph-name="cedilla" unicode="&#xb8;" horiz-adv-x="418" 
d="M61 -408q-49 0 -89.5 12t-73.5 37l38 72q20 -19 47.5 -32.5t70.5 -13.5q53 0 80.5 20t32.5 56q7 44 -25 65.5t-109 23.5q-9 0 -11.5 3t2.5 9l91 166h86l-63 -121q62 -4 94 -26t42.5 -54t6.5 -65q-8 -50 -40 -83.5t-79.5 -51t-100.5 -17.5z" />
    <glyph glyph-name="uni00B9" unicode="&#xb9;" horiz-adv-x="449" 
d="M218 760l105 735h-168l9 69q116 0 159.5 26t53.5 80h69l-131 -910h-97z" />
    <glyph glyph-name="ordmasculine" unicode="&#xba;" horiz-adv-x="765" 
d="M420 795q-135 0 -195.5 93.5t-40.5 238.5q14 101 60 177t116 118.5t156 42.5q131 0 194.5 -94t42.5 -244q-13 -97 -57.5 -172t-114.5 -117.5t-161 -42.5zM433 882q85 0 139 67t70 183q15 112 -19.5 178t-119.5 66t-138 -66t-69 -178q-17 -116 17.5 -183t119.5 -67z" />
    <glyph glyph-name="guillemotright" unicode="&#xbb;" horiz-adv-x="842" 
d="M377 144l247 358l-145 375h88l198 -375l-302 -358h-86zM52 144l245 358l-142 375h86l198 -375l-302 -358h-85z" />
    <glyph glyph-name="onequarter" unicode="&#xbc;" horiz-adv-x="1440" 
d="M218 552l105 735h-168l9 69q116 0 159.5 26t53.5 80h69l-131 -910h-97zM216 -8l-105 1l1127 1469h103zM1082 0l35 241h-404l14 94l481 575h98l-82 -580h143l-13 -89h-144l-34 -241h-94zM818 330h309l64 445z" />
    <glyph glyph-name="onehalf" unicode="&#xbd;" horiz-adv-x="1594" 
d="M218 552l105 735h-168l9 69q116 0 159.5 26t53.5 80h69l-131 -910h-97zM216 -8l-105 1l1127 1469h103zM906 0l10 66l5 34q12 83 52 139t98 96.5t120.5 74.5t119.5 69t96.5 80t48.5 109q10 74 -32 119.5t-124 45.5q-89 0 -149 -53t-78 -138h-96q19 114 106.5 197t233.5 83
q126 0 191 -70t48 -184q-11 -82 -51.5 -138t-97.5 -95.5t-119 -72t-118 -66t-94.5 -78t-48.5 -108.5l-2 -21h456l-13 -89h-562z" />
    <glyph glyph-name="threequarters" unicode="&#xbe;" horiz-adv-x="1674" 
d="M368 544q-128 2 -200.5 74.5t-59.5 195.5h97q0 -86 48 -134.5t131 -48.5q99 0 165 49t77 127q13 89 -47 135t-155 47l-77 1l13 86l73 1q60 1 109.5 24.5t82.5 62t40 81.5q8 59 -35.5 105t-137.5 46q-47 0 -94 -20.5t-81.5 -62t-44.5 -107.5h-96q12 86 60 147.5t118.5 94
t149.5 32.5q88 0 151 -27.5t93 -79t20 -125.5q-10 -68 -59 -122.5t-136 -86.5q56 -17 94 -49t54.5 -78t8.5 -105q-12 -81 -62 -140.5t-127.5 -91.5t-172.5 -31zM450 -8l-105 1l1127 1469h103zM1316 0l35 241h-404l14 94l481 575h98l-82 -580h143l-13 -89h-144l-34 -241h-94z
M1052 330h309l64 445z" />
    <glyph glyph-name="questiondown" unicode="&#xbf;" horiz-adv-x="976" 
d="M357 -342q-130 0 -216.5 45t-125 124t-24.5 182q13 99 60.5 165.5t110.5 118t126.5 103.5t110.5 121t61 172h133q-15 -116 -61 -193.5t-106 -133.5t-119.5 -105t-102.5 -105.5t-54 -136.5q-14 -105 48 -167t177 -62q63 0 129 26.5t119.5 71.5t80.5 100l132 -47
q-76 -130 -203 -204.5t-276 -74.5zM451 823l29 211h186l-28 -211h-187z" />
    <glyph glyph-name="Agrave" unicode="&#xc0;" horiz-adv-x="1347" 
d="M21 0l700 1446h175l284 -1446h-155l-79 412h-571l-200 -412h-154zM437 560h488l-137 730zM771 1567l-240 291h175l180 -291h-115z" />
    <glyph glyph-name="Aacute" unicode="&#xc1;" horiz-adv-x="1347" 
d="M21 0l700 1446h175l284 -1446h-155l-79 412h-571l-200 -412h-154zM437 560h488l-137 730zM745 1567l233 291h182l-292 -291h-123z" />
    <glyph glyph-name="Acircumflex" unicode="&#xc2;" horiz-adv-x="1347" 
d="M21 0l700 1446h175l284 -1446h-155l-79 412h-571l-200 -412h-154zM437 560h488l-137 730zM521 1567l253 215h110l209 -215h-153l-120 127l-155 -127h-144z" />
    <glyph glyph-name="Atilde" unicode="&#xc3;" horiz-adv-x="1347" 
d="M21 0l700 1446h175l284 -1446h-155l-79 412h-571l-200 -412h-154zM437 560h488l-137 730zM597 1642l-18 89q36 32 73 52.5t89 20.5q44 0 81 -13.5t73.5 -27t77.5 -13.5t72 15.5t61 36.5l16 -102q-26 -18 -66.5 -36.5t-98.5 -18.5q-49 0 -83.5 12.5t-66.5 25.5t-73 13
q-47 0 -77 -16.5t-60 -37.5z" />
    <glyph glyph-name="Adieresis" unicode="&#xc4;" horiz-adv-x="1347" 
d="M21 0l700 1446h175l284 -1446h-155l-79 412h-571l-200 -412h-154zM437 560h488l-137 730zM920 1695l23 163h156l-23 -163h-156zM612 1695l23 163h156l-23 -163h-156z" />
    <glyph glyph-name="Aring" unicode="&#xc5;" horiz-adv-x="1347" 
d="M21 0l700 1446h175l284 -1446h-155l-79 412h-571l-200 -412h-154zM437 560h488l-137 730zM826 1571q-79 0 -126 59.5t-34 147.5q7 54 39.5 98.5t80 71t99.5 26.5q80 0 127.5 -58t34.5 -142q-7 -58 -39.5 -103.5t-80 -72.5t-101.5 -27zM838 1662q43 0 77 33.5t41 77.5
q6 48 -18.5 78.5t-68.5 30.5q-40 0 -75 -30.5t-42 -78.5q-7 -44 19 -77.5t67 -33.5z" />
    <glyph glyph-name="AE" unicode="&#xc6;" horiz-adv-x="1813" 
d="M-73 0l963 1446h905l-20 -138h-648l-72 -509h591l-19 -137h-593l-74 -523h672l-20 -139h-844l61 418h-471l-277 -418h-154zM440 560h408l110 768z" />
    <glyph glyph-name="Ccedilla" unicode="&#xc7;" horiz-adv-x="1310" 
d="M525 -408q-49 0 -89.5 12t-73.5 37l38 72q21 -19 48.5 -32.5t69.5 -13.5q53 0 80.5 20t32.5 56q8 44 -24.5 65.5t-109.5 23.5q-9 0 -11 3t2 9l91 166h86l-63 -121q62 -4 94 -26t42.5 -54t6.5 -65q-7 -50 -39.5 -83.5t-80 -51t-100.5 -17.5zM614 -20q-176 0 -289.5 82
t-160 240t-22.5 386q18 178 70 321.5t137 245.5t202 156.5t264 54.5q141 0 241.5 -61.5t153 -165.5t50.5 -229h-163q-4 87 -38.5 159t-100.5 115t-166 43q-108 0 -191 -45t-143 -129t-97 -202.5t-53 -266.5q-32 -288 49.5 -426t272.5 -138q101 0 178.5 44.5t131.5 118
t81 160.5h163q-22 -89 -70 -172.5t-120 -149t-167 -103.5t-213 -38z" />
    <glyph glyph-name="Egrave" unicode="&#xc8;" horiz-adv-x="1188" 
d="M126 0l208 1446h838l-21 -140h-687l-72 -506h623l-19 -140h-624l-74 -516l708 -1l-22 -143h-858zM696 1567l-240 291h175l180 -291h-115z" />
    <glyph glyph-name="Eacute" unicode="&#xc9;" horiz-adv-x="1188" 
d="M126 0l208 1446h838l-21 -140h-687l-72 -506h623l-19 -140h-624l-74 -516l708 -1l-22 -143h-858zM671 1567l233 291h182l-292 -291h-123z" />
    <glyph glyph-name="Ecircumflex" unicode="&#xca;" horiz-adv-x="1188" 
d="M126 0l208 1446h838l-21 -140h-687l-72 -506h623l-19 -140h-624l-74 -516l708 -1l-22 -143h-858zM465 1567l253 215h110l209 -215h-153l-120 127l-155 -127h-144z" />
    <glyph glyph-name="Edieresis" unicode="&#xcb;" horiz-adv-x="1188" 
d="M126 0l208 1446h838l-21 -140h-687l-72 -506h623l-19 -140h-624l-74 -516l708 -1l-22 -143h-858zM845 1695l23 163h156l-23 -163h-156zM537 1695l23 163h156l-23 -163h-156z" />
    <glyph glyph-name="Igrave" unicode="&#xcc;" horiz-adv-x="554" 
d="M127 0l207 1446h151l-206 -1446h-152zM373 1567l-240 291h175l180 -291h-115z" />
    <glyph glyph-name="Iacute" unicode="&#xcd;" horiz-adv-x="554" 
d="M127 0l207 1446h151l-206 -1446h-152zM348 1567l233 291h182l-292 -291h-123z" />
    <glyph glyph-name="Icircumflex" unicode="&#xce;" horiz-adv-x="554" 
d="M127 0l207 1446h151l-206 -1446h-152zM142 1567l253 215h110l209 -215h-153l-120 127l-155 -127h-144z" />
    <glyph glyph-name="Idieresis" unicode="&#xcf;" horiz-adv-x="554" 
d="M127 0l207 1446h151l-206 -1446h-152zM522 1695l23 163h156l-23 -163h-156zM214 1695l23 163h156l-23 -163h-156z" />
    <glyph glyph-name="Eth" unicode="&#xd0;" horiz-adv-x="1381" 
d="M99 659l10 130h663l-10 -130h-663zM188 0l203 1446q6 0 70 -0.5t142 -0.5q133 -1 243.5 -18.5t196 -56t144 -101t89 -154t30.5 -214.5q0 -111 -17 -220t-55.5 -210t-101.5 -186.5t-156 -149t-219 -99.5t-290 -36h-279zM364 138h114q180 0 307.5 56.5t207.5 158t117.5 239
t37.5 300.5q0 157 -57.5 248t-166.5 129.5t-263 38.5h-130z" />
    <glyph glyph-name="Ntilde" unicode="&#xd1;" horiz-adv-x="1435" 
d="M126 0l208 1446h141l575 -1169l166 1169h152l-209 -1446h-133l-580 1180l-169 -1180h-151zM639 1642l-18 89q36 32 73 52.5t89 20.5q44 0 81 -13.5t73.5 -27t77.5 -13.5t72 15.5t61 36.5l16 -102q-26 -18 -66.5 -36.5t-98.5 -18.5q-49 0 -83.5 12.5t-66.5 25.5t-73 13
q-47 0 -77 -16.5t-60 -37.5z" />
    <glyph glyph-name="Ograve" unicode="&#xd2;" horiz-adv-x="1388" 
d="M618 -20q-181 0 -298.5 86t-164 250.5t-12.5 400.5q35 240 129.5 407t237.5 254.5t322 87.5q178 0 294.5 -87t163 -253.5t12.5 -405.5q-34 -237 -127.5 -402t-235.5 -251.5t-321 -86.5zM640 120q131 0 232 64t168 196.5t96 338.5q30 207 0.5 342t-112 200.5t-213.5 65.5
q-196 0 -326 -149t-175 -459q-29 -205 1 -337.5t114 -197t215 -64.5zM789 1567l-240 291h175l180 -291h-115z" />
    <glyph glyph-name="Oacute" unicode="&#xd3;" horiz-adv-x="1388" 
d="M618 -20q-181 0 -298.5 86t-164 250.5t-12.5 400.5q35 240 129.5 407t237.5 254.5t322 87.5q178 0 294.5 -87t163 -253.5t12.5 -405.5q-34 -237 -127.5 -402t-235.5 -251.5t-321 -86.5zM640 120q131 0 232 64t168 196.5t96 338.5q30 207 0.5 342t-112 200.5t-213.5 65.5
q-196 0 -326 -149t-175 -459q-29 -205 1 -337.5t114 -197t215 -64.5zM763 1567l233 291h182l-292 -291h-123z" />
    <glyph glyph-name="Ocircumflex" unicode="&#xd4;" horiz-adv-x="1388" 
d="M618 -20q-181 0 -298.5 86t-164 250.5t-12.5 400.5q35 240 129.5 407t237.5 254.5t322 87.5q178 0 294.5 -87t163 -253.5t12.5 -405.5q-34 -237 -127.5 -402t-235.5 -251.5t-321 -86.5zM640 120q131 0 232 64t168 196.5t96 338.5q30 207 0.5 342t-112 200.5t-213.5 65.5
q-196 0 -326 -149t-175 -459q-29 -205 1 -337.5t114 -197t215 -64.5zM557 1567l253 215h110l209 -215h-153l-120 127l-155 -127h-144z" />
    <glyph glyph-name="Otilde" unicode="&#xd5;" horiz-adv-x="1388" 
d="M618 -20q-181 0 -298.5 86t-164 250.5t-12.5 400.5q35 240 129.5 407t237.5 254.5t322 87.5q178 0 294.5 -87t163 -253.5t12.5 -405.5q-34 -237 -127.5 -402t-235.5 -251.5t-321 -86.5zM640 120q131 0 232 64t168 196.5t96 338.5q30 207 0.5 342t-112 200.5t-213.5 65.5
q-196 0 -326 -149t-175 -459q-29 -205 1 -337.5t114 -197t215 -64.5zM614 1642l-18 89q36 32 73 52.5t89 20.5q44 0 81 -13.5t73.5 -27t77.5 -13.5t72 15.5t61 36.5l16 -102q-26 -18 -66.5 -36.5t-98.5 -18.5q-49 0 -83.5 12.5t-66.5 25.5t-73 13q-47 0 -77 -16.5t-60 -37.5
z" />
    <glyph glyph-name="Odieresis" unicode="&#xd6;" horiz-adv-x="1388" 
d="M618 -20q-181 0 -298.5 86t-164 250.5t-12.5 400.5q35 240 129.5 407t237.5 254.5t322 87.5q178 0 294.5 -87t163 -253.5t12.5 -405.5q-34 -237 -127.5 -402t-235.5 -251.5t-321 -86.5zM640 120q131 0 232 64t168 196.5t96 338.5q30 207 0.5 342t-112 200.5t-213.5 65.5
q-196 0 -326 -149t-175 -459q-29 -205 1 -337.5t114 -197t215 -64.5zM937 1695l23 163h156l-23 -163h-156zM629 1695l23 163h156l-23 -163h-156z" />
    <glyph glyph-name="multiply" unicode="&#xd7;" horiz-adv-x="1015" 
d="M183 323l-72 90l779 719l72 -88zM773 323l-573 718l98 88l574 -716z" />
    <glyph glyph-name="Oslash" unicode="&#xd8;" horiz-adv-x="1410" 
d="M71 -26l-75 88l188 191q-36 89 -44.5 205.5t11.5 258.5q34 240 128.5 407t237.5 254.5t321 87.5q127 0 222.5 -44t157.5 -129l176 178l75 -87l-192 -196q36 -89 44.5 -207t-12.5 -261q-33 -237 -126.5 -402t-236 -251.5t-321.5 -86.5q-127 0 -222.5 43t-156.5 126z
M648 119q188 0 303.5 134t159.5 413q19 110 21.5 204.5t-11.5 176.5l-752 -781q80 -147 279 -147zM339 396l753 781q-38 77 -106.5 114t-167.5 37q-189 0 -308 -139.5t-165 -424.5q-16 -108 -18 -199.5t12 -168.5z" />
    <glyph glyph-name="Ugrave" unicode="&#xd9;" horiz-adv-x="1331" 
d="M607 -20q-171 0 -269.5 59.5t-131.5 177.5t-8 291l134 938h157l-138 -967q-18 -120 8 -200t93.5 -120t174.5 -40q161 0 260.5 89t125.5 271l137 967h151l-136 -960q-23 -164 -90.5 -277t-183 -171t-284.5 -58zM781 1567l-240 291h175l180 -291h-115z" />
    <glyph glyph-name="Uacute" unicode="&#xda;" horiz-adv-x="1331" 
d="M607 -20q-171 0 -269.5 59.5t-131.5 177.5t-8 291l134 938h157l-138 -967q-18 -120 8 -200t93.5 -120t174.5 -40q161 0 260.5 89t125.5 271l137 967h151l-136 -960q-23 -164 -90.5 -277t-183 -171t-284.5 -58zM755 1567l233 291h182l-292 -291h-123z" />
    <glyph glyph-name="Ucircumflex" unicode="&#xdb;" horiz-adv-x="1331" 
d="M607 -20q-171 0 -269.5 59.5t-131.5 177.5t-8 291l134 938h157l-138 -967q-18 -120 8 -200t93.5 -120t174.5 -40q161 0 260.5 89t125.5 271l137 967h151l-136 -960q-23 -164 -90.5 -277t-183 -171t-284.5 -58zM549 1567l253 215h110l209 -215h-153l-120 127l-155 -127
h-144z" />
    <glyph glyph-name="Udieresis" unicode="&#xdc;" horiz-adv-x="1331" 
d="M607 -20q-171 0 -269.5 59.5t-131.5 177.5t-8 291l134 938h157l-138 -967q-18 -120 8 -200t93.5 -120t174.5 -40q161 0 260.5 89t125.5 271l137 967h151l-136 -960q-23 -164 -90.5 -277t-183 -171t-284.5 -58zM929 1695l23 163h156l-23 -163h-156zM621 1695l23 163h156
l-23 -163h-156z" />
    <glyph glyph-name="Yacute" unicode="&#xdd;" horiz-adv-x="1118" 
d="M410 0l87 619l-340 827h164l274 -686l463 686h166l-575 -829l-89 -617h-150zM622 1570l233 291h182l-292 -291h-123z" />
    <glyph glyph-name="Thorn" unicode="&#xde;" horiz-adv-x="1234" 
d="M127 0l203 1446h157l-42 -302h315q148 0 255.5 -41.5t160 -128.5t32.5 -222q-20 -146 -97 -238t-195 -135.5t-261 -43.5h-324l-47 -335h-157zM350 474h325q95 0 175 27.5t133 88.5t67 162q13 92 -24 147.5t-112 80.5t-174 25h-315z" />
    <glyph glyph-name="germandbls" unicode="&#xdf;" horiz-adv-x="1088" 
d="M562 -20q-66 0 -133 19t-110 51l71 108q37 -25 76 -43.5t101 -18.5q105 0 176 54t85 154q11 74 -17 118t-78 71t-109 50q-44 17 -86 41t-65.5 65.5t-14.5 110.5q11 75 58 123.5t134 97.5q40 23 78 47t65.5 58t35.5 87q9 72 -33 114.5t-134 42.5q-107 0 -186 -71.5
t-97 -214.5l-148 -1044h-143l143 1018q14 94 51.5 172.5t96.5 136t138 88.5t177 31q112 0 174.5 -38.5t84.5 -101t12 -132.5q-10 -76 -46 -124.5t-89.5 -81t-117.5 -63.5q-68 -37 -96 -58.5t-34 -60.5q-5 -38 16.5 -54.5t80.5 -37.5q48 -21 103 -47t101.5 -66.5t71 -103.5
t11.5 -158q-16 -111 -74 -186.5t-144 -114t-186 -38.5z" />
    <glyph glyph-name="agrave" unicode="&#xe0;" horiz-adv-x="1089" 
d="M353 -20q-95 0 -161.5 35.5t-97 101.5t-18.5 159q25 172 148 255t371 90l185 6l13 86q15 106 -41.5 164t-162.5 57q-87 0 -163 -47t-106 -140h-137q18 85 75.5 155t148 111t207.5 41q120 0 198 -41t110.5 -115.5t17.5 -177.5l-103 -720h-130l16 191q-76 -123 -171 -167
t-199 -44zM412 97q51 0 105.5 20t102 55t80 78t38.5 88l26 184l-152 -3q-122 -2 -203.5 -26t-126 -73.5t-56.5 -129.5q-12 -91 40 -142t146 -51zM579 1155l-240 291h175l180 -291h-115z" />
    <glyph glyph-name="aacute" unicode="&#xe1;" horiz-adv-x="1086" 
d="M350 -20q-95 0 -161.5 35.5t-97 101.5t-18.5 159q25 172 148 255t371 90l185 6l13 86q15 106 -41.5 164t-162.5 57q-87 0 -163 -47t-106 -140h-137q18 85 75.5 155t148 111t207.5 41q120 0 198 -41t110.5 -115.5t17.5 -177.5l-103 -720h-130l16 191q-76 -123 -171 -167
t-199 -44zM409 97q51 0 105.5 20t102 55t80 78t38.5 88l26 184l-152 -3q-122 -2 -203.5 -26t-126 -73.5t-56.5 -129.5q-12 -91 40 -142t146 -51zM561 1155l233 291h182l-292 -291h-123z" />
    <glyph glyph-name="acircumflex" unicode="&#xe2;" horiz-adv-x="1086" 
d="M350 -20q-95 0 -161.5 35.5t-97 101.5t-18.5 159q25 172 148 255t371 90l185 6l13 86q15 106 -41.5 164t-162.5 57q-87 0 -163 -47t-106 -140h-137q18 85 75.5 155t148 111t207.5 41q120 0 198 -41t110.5 -115.5t17.5 -177.5l-103 -720h-130l16 191q-76 -123 -171 -167
t-199 -44zM409 97q51 0 105.5 20t102 55t80 78t38.5 88l26 184l-152 -3q-122 -2 -203.5 -26t-126 -73.5t-56.5 -129.5q-12 -91 40 -142t146 -51zM340 1155l253 215h110l209 -215h-153l-120 127l-155 -127h-144z" />
    <glyph glyph-name="atilde" unicode="&#xe3;" horiz-adv-x="1086" 
d="M350 -20q-95 0 -161.5 35.5t-97 101.5t-18.5 159q25 172 148 255t371 90l185 6l13 86q15 106 -41.5 164t-162.5 57q-87 0 -163 -47t-106 -140h-137q18 85 75.5 155t148 111t207.5 41q120 0 198 -41t110.5 -115.5t17.5 -177.5l-103 -720h-130l16 191q-76 -123 -171 -167
t-199 -44zM409 97q51 0 105.5 20t102 55t80 78t38.5 88l26 184l-152 -3q-122 -2 -203.5 -26t-126 -73.5t-56.5 -129.5q-12 -91 40 -142t146 -51zM398 1230l-18 89q36 32 73 52.5t89 20.5q44 0 81 -13.5t73.5 -27t77.5 -13.5t72 15.5t61 36.5l16 -102q-26 -18 -66.5 -36.5
t-98.5 -18.5q-49 0 -83.5 12.5t-66.5 25.5t-73 13q-47 0 -77 -16.5t-60 -37.5z" />
    <glyph glyph-name="adieresis" unicode="&#xe4;" horiz-adv-x="1086" 
d="M350 -20q-95 0 -161.5 35.5t-97 101.5t-18.5 159q25 172 148 255t371 90l185 6l13 86q15 106 -41.5 164t-162.5 57q-87 0 -163 -47t-106 -140h-137q18 85 75.5 155t148 111t207.5 41q120 0 198 -41t110.5 -115.5t17.5 -177.5l-103 -720h-130l16 191q-76 -123 -171 -167
t-199 -44zM409 97q51 0 105.5 20t102 55t80 78t38.5 88l26 184l-152 -3q-122 -2 -203.5 -26t-126 -73.5t-56.5 -129.5q-12 -91 40 -142t146 -51zM716 1282l23 163h156l-23 -163h-156zM408 1282l23 163h156l-23 -163h-156z" />
    <glyph glyph-name="aring" unicode="&#xe5;" horiz-adv-x="1086" 
d="M803 1498l-73 -136q51 -20 78 -69t18 -113q-12 -86 -74.5 -142t-142.5 -56q-79 0 -124 57.5t-33 144.5q9 72 61.5 124t120.5 62l47 128h122zM737 1177q7 48 -18 79t-68 31q-41 0 -76.5 -31t-41.5 -79q-6 -43 20 -77t67 -34q43 0 76.5 34t40.5 77zM350 -20
q-95 0 -161.5 35.5t-97 101.5t-18.5 159q25 172 148 255t371 90l185 6l13 86q15 106 -41.5 164t-162.5 57q-87 0 -163 -47t-106 -140h-137q18 85 75.5 155t148 111t207.5 41q120 0 198 -41t110.5 -115.5t17.5 -177.5l-103 -720h-130l16 191q-76 -123 -171 -167t-199 -44z
M409 97q51 0 105.5 20t102 55t80 78t38.5 88l26 184l-152 -3q-122 -2 -203.5 -26t-126 -73.5t-56.5 -129.5q-12 -91 40 -142t146 -51z" />
    <glyph glyph-name="ae" unicode="&#xe6;" horiz-adv-x="1747" 
d="M351 -20q-95 0 -162 35.5t-98 101.5t-18 159q25 172 148 255.5t373 89.5l187 6l12 86q14 106 -41.5 164t-161.5 57q-89 0 -163 -47t-104 -140h-137q17 85 73.5 155t146.5 111t207 41q128 0 208.5 -53t101.5 -147q65 96 159.5 148t211.5 52q136 0 221 -61.5t117.5 -175.5
t9.5 -272l-9 -64h-708q-15 -104 4.5 -189t79 -136t160.5 -51q99 0 177 49.5t109 140.5h144q-33 -104 -103 -174t-160 -105.5t-183 -35.5q-139 0 -234 69t-129 197q-29 -81 -96 -141t-156.5 -92.5t-186.5 -32.5zM411 97q90 0 162 44t117.5 108.5t54.5 125.5l21 147l-156 -3
q-122 -2 -204 -26t-126.5 -73.5t-55.5 -129.5q-13 -91 39.5 -142t147.5 -51zM941 592h561q14 96 -5 173t-73.5 122t-148.5 45q-98 0 -168.5 -50.5t-112.5 -128.5t-53 -161z" />
    <glyph glyph-name="ccedilla" unicode="&#xe7;" horiz-adv-x="1037" 
d="M382 -408q-49 0 -90 12t-73 37l37 72q21 -19 48.5 -32.5t69.5 -13.5q53 0 80.5 20t33.5 56q7 44 -25.5 65.5t-109.5 23.5q-9 0 -11 3t3 9l91 166h85l-62 -121q61 -4 93.5 -26t42.5 -54t6 -65q-7 -50 -39.5 -83.5t-79.5 -51t-100 -17.5zM464 -20q-131 0 -222 60t-130 179
t-15 295q24 161 92 282.5t176.5 189.5t252.5 68q101 0 177.5 -40t119.5 -114.5t43 -179.5h-138q-1 58 -27 104.5t-74.5 73.5t-118.5 27q-132 0 -229 -100.5t-127 -309.5q-27 -187 33 -299.5t208 -112.5q69 0 126 27.5t96 74t55 102.5h136q-29 -102 -93.5 -175.5
t-152.5 -112.5t-188 -39z" />
    <glyph glyph-name="egrave" unicode="&#xe8;" horiz-adv-x="1078" 
d="M484 -20q-135 0 -228 62.5t-133.5 180.5t-16.5 284q24 165 93.5 288.5t178 191t248.5 67.5q135 0 220 -61.5t117.5 -175.5t9.5 -272l-9 -64h-708q-15 -104 5 -189t79 -136t160 -51q99 0 177 49.5t109 140.5h144q-33 -104 -103 -174t-160 -105.5t-183 -35.5zM272 592h561
q15 96 -4 173t-74 122t-148 45q-99 0 -169.5 -50.5t-112 -128.5t-53.5 -161zM586 1155l-240 291h175l180 -291h-115z" />
    <glyph glyph-name="eacute" unicode="&#xe9;" horiz-adv-x="1078" 
d="M484 -20q-135 0 -228 62.5t-133.5 180.5t-16.5 284q24 165 93.5 288.5t178 191t248.5 67.5q135 0 220 -61.5t117.5 -175.5t9.5 -272l-9 -64h-708q-15 -104 5 -189t79 -136t160 -51q99 0 177 49.5t109 140.5h144q-33 -104 -103 -174t-160 -105.5t-183 -35.5zM272 592h561
q15 96 -4 173t-74 122t-148 45q-99 0 -169.5 -50.5t-112 -128.5t-53.5 -161zM560 1155l233 291h182l-292 -291h-123z" />
    <glyph glyph-name="ecircumflex" unicode="&#xea;" horiz-adv-x="1078" 
d="M484 -20q-135 0 -228 62.5t-133.5 180.5t-16.5 284q24 165 93.5 288.5t178 191t248.5 67.5q135 0 220 -61.5t117.5 -175.5t9.5 -272l-9 -64h-708q-15 -104 5 -189t79 -136t160 -51q99 0 177 49.5t109 140.5h144q-33 -104 -103 -174t-160 -105.5t-183 -35.5zM272 592h561
q15 96 -4 173t-74 122t-148 45q-99 0 -169.5 -50.5t-112 -128.5t-53.5 -161zM355 1155l253 215h110l209 -215h-153l-120 127l-155 -127h-144z" />
    <glyph glyph-name="edieresis" unicode="&#xeb;" horiz-adv-x="1078" 
d="M484 -20q-135 0 -228 62.5t-133.5 180.5t-16.5 284q24 165 93.5 288.5t178 191t248.5 67.5q135 0 220 -61.5t117.5 -175.5t9.5 -272l-9 -64h-708q-15 -104 5 -189t79 -136t160 -51q99 0 177 49.5t109 140.5h144q-33 -104 -103 -174t-160 -105.5t-183 -35.5zM272 592h561
q15 96 -4 173t-74 122t-148 45q-99 0 -169.5 -50.5t-112 -128.5t-53.5 -161zM735 1283l23 163h156l-23 -163h-156zM427 1283l23 163h156l-23 -163h-156z" />
    <glyph glyph-name="igrave" unicode="&#xec;" horiz-adv-x="475" 
d="M88 0l148 1034h152l-149 -1034h-151zM262 1155l-164 291h166l111 -290z" />
    <glyph glyph-name="iacute" unicode="&#xed;" horiz-adv-x="475" 
d="M88 0l148 1034h152l-149 -1034h-151zM386 1155l-119 1l171 290h177z" />
    <glyph glyph-name="icircumflex" unicode="&#xee;" horiz-adv-x="475" 
d="M88 0l148 1034h152l-149 -1034h-151zM43 1155l253 215h110l209 -215h-153l-120 127l-155 -127h-144z" />
    <glyph glyph-name="idieresis" unicode="&#xef;" horiz-adv-x="475" 
d="M88 0l148 1034h152l-149 -1034h-151zM423 1283l23 163h156l-23 -163h-156zM115 1283l23 163h156l-23 -163h-156z" />
    <glyph glyph-name="eth" unicode="&#xf0;" horiz-adv-x="1079" 
d="M478 -20q-124 0 -210.5 54.5t-131.5 152.5t-45 227q0 99 26.5 208.5t86 205t157 156t238.5 60.5q149 0 226.5 -82.5t101.5 -226.5l-105 149q-16 132 -71.5 242t-127 199t-136.5 155h146q100 -82 181 -196t129.5 -264t48.5 -341q0 -120 -26 -243t-85.5 -226t-158.5 -166.5
t-244 -63.5zM494 106q99 0 165.5 51t105.5 131t55.5 169t16.5 165q0 147 -63 222.5t-182 75.5q-99 0 -165.5 -48.5t-106.5 -125t-57.5 -163t-17.5 -163.5q0 -137 59.5 -225.5t189.5 -88.5zM411 1149l-15 88l633 185l13 -88z" />
    <glyph glyph-name="ntilde" unicode="&#xf1;" horiz-adv-x="1100" 
d="M88 0l148 1034h144l-18 -146q32 45 79.5 81.5t110.5 58.5t141 22q95 0 166 -42t104.5 -125t15.5 -206l-97 -677h-151l96 664q18 124 -35 189.5t-154 65.5q-71 0 -135.5 -24t-109 -72t-54.5 -121l-101 -702h-150zM436 1230l-18 89q36 32 73 52.5t89 20.5q44 0 81 -13.5
t73.5 -27t77.5 -13.5t72 15.5t61 36.5l16 -102q-26 -18 -66.5 -36.5t-98.5 -18.5q-49 0 -83.5 12.5t-66.5 25.5t-73 13q-47 0 -77 -16.5t-60 -37.5z" />
    <glyph glyph-name="ograve" unicode="&#xf2;" horiz-adv-x="1074" 
d="M466 -20q-133 0 -224 60.5t-129.5 179.5t-15.5 293q22 162 89 284t175 189.5t251 67.5q133 0 222.5 -61.5t127.5 -182t14 -297.5q-21 -158 -87 -278t-172 -187.5t-251 -67.5zM485 106q90 0 160.5 48t117.5 140t64 223q15 118 -2.5 211t-73.5 146.5t-157 53.5
q-92 0 -163.5 -47.5t-117.5 -139.5t-64 -224q-16 -118 2 -210.5t75 -146.5t159 -54zM548 1155l-240 291h175l180 -291h-115z" />
    <glyph glyph-name="oacute" unicode="&#xf3;" horiz-adv-x="1074" 
d="M466 -20q-133 0 -224 60.5t-129.5 179.5t-15.5 293q22 162 89 284t175 189.5t251 67.5q133 0 222.5 -61.5t127.5 -182t14 -297.5q-21 -158 -87 -278t-172 -187.5t-251 -67.5zM485 106q90 0 160.5 48t117.5 140t64 223q15 118 -2.5 211t-73.5 146.5t-157 53.5
q-92 0 -163.5 -47.5t-117.5 -139.5t-64 -224q-16 -118 2 -210.5t75 -146.5t159 -54zM522 1155l233 291h182l-292 -291h-123z" />
    <glyph glyph-name="ocircumflex" unicode="&#xf4;" horiz-adv-x="1074" 
d="M466 -20q-133 0 -224 60.5t-129.5 179.5t-15.5 293q22 162 89 284t175 189.5t251 67.5q133 0 222.5 -61.5t127.5 -182t14 -297.5q-21 -158 -87 -278t-172 -187.5t-251 -67.5zM485 106q90 0 160.5 48t117.5 140t64 223q15 118 -2.5 211t-73.5 146.5t-157 53.5
q-92 0 -163.5 -47.5t-117.5 -139.5t-64 -224q-16 -118 2 -210.5t75 -146.5t159 -54zM317 1155l253 215h110l209 -215h-153l-120 127l-155 -127h-144z" />
    <glyph glyph-name="otilde" unicode="&#xf5;" horiz-adv-x="1074" 
d="M466 -20q-133 0 -224 60.5t-129.5 179.5t-15.5 293q22 162 89 284t175 189.5t251 67.5q133 0 222.5 -61.5t127.5 -182t14 -297.5q-21 -158 -87 -278t-172 -187.5t-251 -67.5zM485 106q90 0 160.5 48t117.5 140t64 223q15 118 -2.5 211t-73.5 146.5t-157 53.5
q-92 0 -163.5 -47.5t-117.5 -139.5t-64 -224q-16 -118 2 -210.5t75 -146.5t159 -54zM374 1230l-18 89q36 32 73 52.5t89 20.5q44 0 81 -13.5t73.5 -27t77.5 -13.5t72 15.5t61 36.5l16 -102q-26 -18 -66.5 -36.5t-98.5 -18.5q-49 0 -83.5 12.5t-66.5 25.5t-73 13
q-47 0 -77 -16.5t-60 -37.5z" />
    <glyph glyph-name="odieresis" unicode="&#xf6;" horiz-adv-x="1074" 
d="M466 -20q-133 0 -224 60.5t-129.5 179.5t-15.5 293q22 162 89 284t175 189.5t251 67.5q133 0 222.5 -61.5t127.5 -182t14 -297.5q-21 -158 -87 -278t-172 -187.5t-251 -67.5zM485 106q90 0 160.5 48t117.5 140t64 223q15 118 -2.5 211t-73.5 146.5t-157 53.5
q-92 0 -163.5 -47.5t-117.5 -139.5t-64 -224q-16 -118 2 -210.5t75 -146.5t159 -54zM697 1283l23 163h156l-23 -163h-156zM389 1283l23 163h156l-23 -163h-156z" />
    <glyph glyph-name="divide" unicode="&#xf7;" horiz-adv-x="1044" 
d="M146 664l18 124l793 2l-18 -125zM387 285l30 204h202l-29 -204h-203zM486 966l29 204h203l-30 -204h-202z" />
    <glyph glyph-name="oslash" unicode="&#xf8;" horiz-adv-x="1040" 
d="M43 -10l-69 73l1008 978l69 -73zM413 -20q-132 0 -223 60.5t-130 179.5t-15 293q22 162 88.5 284t174.5 189.5t252 67.5q133 0 222.5 -61.5t127.5 -182t14 -297.5q-22 -158 -87.5 -278t-171.5 -187.5t-252 -67.5zM433 106q90 0 160.5 48t117 140t63.5 223
q16 118 -1.5 211t-73.5 146.5t-157 53.5q-92 0 -163.5 -47.5t-118 -139.5t-64.5 -224q-15 -118 2.5 -210.5t75 -146.5t159.5 -54z" />
    <glyph glyph-name="ugrave" unicode="&#xf9;" horiz-adv-x="1110" 
d="M444 -20q-78 1 -143 23.5t-110.5 67t-65 111t-7.5 154.5l98 698h152l-97 -684q-15 -109 37.5 -176.5t180.5 -67.5q114 0 192 63.5t96 192.5l95 672h151l-146 -1034h-121l11 196q-27 -74 -76 -122t-112.5 -71.5t-134.5 -22.5zM582 1155l-240 291h175l180 -291h-115z" />
    <glyph glyph-name="uacute" unicode="&#xfa;" horiz-adv-x="1110" 
d="M444 -20q-78 1 -143 23.5t-110.5 67t-65 111t-7.5 154.5l98 698h152l-97 -684q-15 -109 37.5 -176.5t180.5 -67.5q114 0 192 63.5t96 192.5l95 672h151l-146 -1034h-121l11 196q-27 -74 -76 -122t-112.5 -71.5t-134.5 -22.5zM557 1155l233 291h182l-292 -291h-123z" />
    <glyph glyph-name="ucircumflex" unicode="&#xfb;" horiz-adv-x="1110" 
d="M444 -20q-78 1 -143 23.5t-110.5 67t-65 111t-7.5 154.5l98 698h152l-97 -684q-15 -109 37.5 -176.5t180.5 -67.5q114 0 192 63.5t96 192.5l95 672h151l-146 -1034h-121l11 196q-27 -74 -76 -122t-112.5 -71.5t-134.5 -22.5zM351 1155l253 215h110l209 -215h-153
l-120 127l-155 -127h-144z" />
    <glyph glyph-name="udieresis" unicode="&#xfc;" horiz-adv-x="1110" 
d="M444 -20q-78 1 -143 23.5t-110.5 67t-65 111t-7.5 154.5l98 698h152l-97 -684q-15 -109 37.5 -176.5t180.5 -67.5q114 0 192 63.5t96 192.5l95 672h151l-146 -1034h-121l11 196q-27 -74 -76 -122t-112.5 -71.5t-134.5 -22.5zM731 1283l23 163h156l-23 -163h-156z
M423 1283l23 163h156l-23 -163h-156z" />
    <glyph glyph-name="yacute" unicode="&#xfd;" horiz-adv-x="1000" 
d="M115 -330q-82 0 -110 11.5l-28 11.5l15 102l101 -1q69 -2 111 15.5t65.5 45.5t37.5 56l53 109l-234 1014h154l180 -832l414 832h147l-574 -1131q-47 -90 -99.5 -140.5t-110 -71.5t-122.5 -21zM511 1155l233 291h182l-292 -291h-123z" />
    <glyph glyph-name="thorn" unicode="&#xfe;" horiz-adv-x="1121" 
d="M43 -322l253 1768h149l-78 -557q24 25 66.5 64.5t108 70t157.5 30.5q113 0 195.5 -57.5t119.5 -173t12 -291.5q-24 -174 -94.5 -297t-175 -189t-229.5 -66q-86 0 -147 29.5t-100 69.5q-15 15 -21 12t-9 -25l-55 -388h-152zM503 95q90 0 166 49.5t129 146t74 238.5
q20 145 -8 235t-89 132t-142 42q-76 0 -139.5 -36t-103.5 -88.5t-49 -103.5l-67 -485q46 -59 101 -94.5t128 -35.5z" />
    <glyph glyph-name="ydieresis" unicode="&#xff;" horiz-adv-x="1000" 
d="M115 -330q-82 0 -110 11.5l-28 11.5l15 102l101 -1q69 -2 111 15.5t65.5 45.5t37.5 56l53 109l-234 1014h154l180 -832l414 832h147l-574 -1131q-47 -90 -99.5 -140.5t-110 -71.5t-122.5 -21zM686 1283l23 163h156l-23 -163h-156zM378 1283l23 163h156l-23 -163h-156z
" />
    <glyph glyph-name="Amacron" unicode="&#x100;" horiz-adv-x="1347" 
d="M21 0l700 1446h175l284 -1446h-155l-79 412h-571l-200 -412h-154zM437 560h488l-137 730zM572 1655l17 115h538l-17 -115h-538z" />
    <glyph glyph-name="amacron" unicode="&#x101;" horiz-adv-x="1086" 
d="M350 -20q-95 0 -161.5 35.5t-97 101.5t-18.5 159q25 172 148 255t371 90l185 6l13 86q15 106 -41.5 164t-162.5 57q-87 0 -163 -47t-106 -140h-137q18 85 75.5 155t148 111t207.5 41q120 0 198 -41t110.5 -115.5t17.5 -177.5l-103 -720h-130l16 191q-76 -123 -171 -167
t-199 -44zM409 97q51 0 105.5 20t102 55t80 78t38.5 88l26 184l-152 -3q-122 -2 -203.5 -26t-126 -73.5t-56.5 -129.5q-12 -91 40 -142t146 -51zM372 1243l17 115h538l-17 -115h-538z" />
    <glyph glyph-name="Abreve" unicode="&#x102;" horiz-adv-x="1347" 
d="M21 0l700 1446h175l284 -1446h-155l-79 412h-571l-200 -412h-154zM437 560h488l-137 730zM822 1567q-75 0 -126.5 29t-80.5 75.5t-34 101.5h118q8 -19 22.5 -43t42 -41.5t74.5 -17.5q63 0 104.5 34.5t66.5 67.5h120q-21 -50 -64 -97t-104.5 -78t-138.5 -31z" />
    <glyph glyph-name="abreve" unicode="&#x103;" horiz-adv-x="1086" 
d="M350 -20q-95 0 -161.5 35.5t-97 101.5t-18.5 159q25 172 148 255t371 90l185 6l13 86q15 106 -41.5 164t-162.5 57q-87 0 -163 -47t-106 -140h-137q18 85 75.5 155t148 111t207.5 41q120 0 198 -41t110.5 -115.5t17.5 -177.5l-103 -720h-130l16 191q-76 -123 -171 -167
t-199 -44zM409 97q51 0 105.5 20t102 55t80 78t38.5 88l26 184l-152 -3q-122 -2 -203.5 -26t-126 -73.5t-56.5 -129.5q-12 -91 40 -142t146 -51zM621 1152q-75 0 -126.5 29t-80.5 75.5t-34 101.5h118q8 -19 22.5 -43t42 -41.5t74.5 -17.5q63 0 104.5 34.5t66.5 67.5h120
q-21 -50 -64 -97t-104.5 -78t-138.5 -31z" />
    <glyph glyph-name="Aogonek" unicode="&#x104;" horiz-adv-x="1347" 
d="M21 0l700 1446h175l284 -1446h-155l-79 412h-571l-200 -412h-154zM437 560h488l-137 730zM999 -333q-91 0 -130.5 42.5t-29.5 114.5q9 61 56.5 109t165.5 85l111 -14q-101 -43 -149.5 -81t-56.5 -89q-4 -37 14.5 -56t66.5 -19q46 0 83 12t57 23l-14 -88
q-25 -14 -72.5 -26.5t-101.5 -12.5z" />
    <glyph glyph-name="aogonek" unicode="&#x105;" horiz-adv-x="1051" 
d="M350 -20q-95 0 -161.5 35.5t-97 101.5t-18.5 159q25 172 148 255t371 90l185 6l13 86q15 106 -41.5 164t-162.5 57q-87 0 -163 -47t-106 -140h-137q18 85 75.5 155t148 111t207.5 41q120 0 198 -41t110.5 -115.5t17.5 -177.5l-103 -720h-130l16 191q-76 -123 -171 -167
t-199 -44zM409 97q51 0 105.5 20t102 55t80 78t38.5 88l26 184l-152 -3q-122 -2 -203.5 -26t-126 -73.5t-56.5 -129.5q-12 -91 40 -142t146 -51zM655 -328q-91 0 -130.5 42.5t-29.5 114.5q9 61 56.5 109t165.5 85l111 -14q-101 -43 -149.5 -81t-56.5 -89q-4 -37 14.5 -56
t66.5 -19q46 0 83 12t57 23l-14 -88q-25 -14 -72.5 -26.5t-101.5 -12.5z" />
    <glyph glyph-name="Cacute" unicode="&#x106;" horiz-adv-x="1310" 
d="M614 -20q-176 0 -289.5 82t-160 240t-22.5 386q18 178 70 321.5t137 245.5t202 156.5t264 54.5q141 0 241.5 -61.5t153 -165.5t50.5 -229h-163q-4 87 -38.5 159t-100.5 115t-166 43q-108 0 -191 -45t-143 -129t-97 -202.5t-53 -266.5q-32 -288 49.5 -426t272.5 -138
q101 0 178.5 44.5t131.5 118t81 160.5h163q-22 -89 -70 -172.5t-120 -149t-167 -103.5t-213 -38zM749 1567l233 291h182l-292 -291h-123z" />
    <glyph glyph-name="cacute" unicode="&#x107;" horiz-adv-x="1032" 
d="M464 -20q-131 0 -222 60t-130 179t-15 295q24 161 92 282.5t176.5 189.5t252.5 68q101 0 177.5 -40t119.5 -114.5t43 -179.5h-138q-1 58 -27 104.5t-74.5 73.5t-118.5 27q-132 0 -229 -100.5t-127 -309.5q-27 -187 33 -299.5t208 -112.5q69 0 126 27.5t96 74t55 102.5
h136q-29 -102 -93.5 -175.5t-152.5 -112.5t-188 -39zM545 1155l233 291h182l-292 -291h-123z" />
    <glyph glyph-name="Ccircumflex" unicode="&#x108;" horiz-adv-x="1310" 
d="M614 -20q-176 0 -289.5 82t-160 240t-22.5 386q18 178 70 321.5t137 245.5t202 156.5t264 54.5q141 0 241.5 -61.5t153 -165.5t50.5 -229h-163q-4 87 -38.5 159t-100.5 115t-166 43q-108 0 -191 -45t-143 -129t-97 -202.5t-53 -266.5q-32 -288 49.5 -426t272.5 -138
q101 0 178.5 44.5t131.5 118t81 160.5h163q-22 -89 -70 -172.5t-120 -149t-167 -103.5t-213 -38zM543 1567l253 215h110l209 -215h-153l-120 127l-155 -127h-144z" />
    <glyph glyph-name="ccircumflex" unicode="&#x109;" horiz-adv-x="1037" 
d="M464 -20q-131 0 -222 60t-130 179t-15 295q24 161 92 282.5t176.5 189.5t252.5 68q101 0 177.5 -40t119.5 -114.5t43 -179.5h-138q-1 58 -27 104.5t-74.5 73.5t-118.5 27q-132 0 -229 -100.5t-127 -309.5q-27 -187 33 -299.5t208 -112.5q69 0 126 27.5t96 74t55 102.5
h136q-29 -102 -93.5 -175.5t-152.5 -112.5t-188 -39zM345 1155l253 215h110l209 -215h-153l-120 127l-155 -127h-144z" />
    <glyph glyph-name="Cdotaccent" unicode="&#x10a;" horiz-adv-x="1310" 
d="M614 -20q-176 0 -289.5 82t-160 240t-22.5 386q18 178 70 321.5t137 245.5t202 156.5t264 54.5q141 0 241.5 -61.5t153 -165.5t50.5 -229h-163q-4 87 -38.5 159t-100.5 115t-166 43q-108 0 -191 -45t-143 -129t-97 -202.5t-53 -266.5q-32 -288 49.5 -426t272.5 -138
q101 0 178.5 44.5t131.5 118t81 160.5h163q-22 -89 -70 -172.5t-120 -149t-167 -103.5t-213 -38zM770 1695l23 163h155l-23 -163h-155z" />
    <glyph glyph-name="cdotaccent" unicode="&#x10b;" horiz-adv-x="1037" 
d="M464 -20q-131 0 -222 60t-130 179t-15 295q24 161 92 282.5t176.5 189.5t252.5 68q101 0 177.5 -40t119.5 -114.5t43 -179.5h-138q-1 58 -27 104.5t-74.5 73.5t-118.5 27q-132 0 -229 -100.5t-127 -309.5q-27 -187 33 -299.5t208 -112.5q69 0 126 27.5t96 74t55 102.5
h136q-29 -102 -93.5 -175.5t-152.5 -112.5t-188 -39zM572 1283l23 163h155l-23 -163h-155z" />
    <glyph glyph-name="Ccaron" unicode="&#x10c;" horiz-adv-x="1310" 
d="M614 -20q-176 0 -289.5 82t-160 240t-22.5 386q18 178 70 321.5t137 245.5t202 156.5t264 54.5q141 0 241.5 -61.5t153 -165.5t50.5 -229h-163q-4 87 -38.5 159t-100.5 115t-166 43q-108 0 -191 -45t-143 -129t-97 -202.5t-53 -266.5q-32 -288 49.5 -426t272.5 -138
q101 0 178.5 44.5t131.5 118t81 160.5h163q-22 -89 -70 -172.5t-120 -149t-167 -103.5t-213 -38zM774 1566l-204 216h146l124 -131l152 131h152l-259 -216h-111z" />
    <glyph glyph-name="ccaron" unicode="&#x10d;" horiz-adv-x="1037" 
d="M464 -20q-131 0 -222 60t-130 179t-15 295q24 161 92 282.5t176.5 189.5t252.5 68q101 0 177.5 -40t119.5 -114.5t43 -179.5h-138q-1 58 -27 104.5t-74.5 73.5t-118.5 27q-132 0 -229 -100.5t-127 -309.5q-27 -187 33 -299.5t208 -112.5q69 0 126 27.5t96 74t55 102.5
h136q-29 -102 -93.5 -175.5t-152.5 -112.5t-188 -39zM575 1154l-204 216h146l124 -131l152 131h152l-259 -216h-111z" />
    <glyph glyph-name="Dcaron" unicode="&#x10e;" horiz-adv-x="1322" 
d="M128 0l204 1446q5 0 69 -0.5t142 -0.5q134 -1 244 -18.5t195.5 -56t144 -101t89 -154t30.5 -214.5q0 -111 -17 -220t-55 -210t-101.5 -186.5t-156.5 -149t-218.5 -99.5t-289.5 -36h-280zM304 138h114q180 0 307.5 56.5t207.5 158t117.5 239t37.5 300.5q0 157 -57.5 248
t-166 129.5t-263.5 38.5h-130zM846 1566l-204 216h146l124 -131l152 131h152l-259 -216h-111z" />
    <glyph glyph-name="dcaron" unicode="&#x10f;" horiz-adv-x="1113" 
d="M438 -20q-189 0 -282 136.5t-58 404.5q32 241 152 387t320 146q74 0 127.5 -20.5t89 -51.5t56 -63t28.5 -55l83 622h153l-198 -1486h-118l12 212q-11 -27 -36.5 -66t-68.5 -77t-107 -63.5t-153 -25.5zM479 104q158 0 238 100.5t110 326.5q15 125 -2 214t-73 136.5
t-160 47.5q-128 0 -220 -96t-119 -302q-26 -200 30 -313.5t196 -113.5zM1143 1111l96 179l-45 10l26 186h132l-27 -195l-98 -180h-84z" />
    <glyph glyph-name="Dcroat" unicode="&#x110;" horiz-adv-x="1381" 
d="M99 659l10 130h663l-10 -130h-663zM188 0l203 1446q6 0 70 -0.5t142 -0.5q133 -1 243.5 -18.5t196 -56t144 -101t89 -154t30.5 -214.5q0 -111 -17 -220t-55.5 -210t-101.5 -186.5t-156 -149t-219 -99.5t-290 -36h-279zM364 138h114q180 0 307.5 56.5t207.5 158t117.5 239
t37.5 300.5q0 157 -57.5 248t-166.5 129.5t-263 38.5h-130z" />
    <glyph glyph-name="dcroat" unicode="&#x111;" horiz-adv-x="1143" 
d="M576 1200l7 103h603l-7 -103h-603zM438 -20q-189 0 -282 136.5t-58 404.5q32 241 152 387t320 146q74 0 127.5 -20.5t89 -51.5t56 -63t28.5 -55l83 622h153l-198 -1486h-118l12 212q-11 -27 -36.5 -66t-68.5 -77t-107 -63.5t-153 -25.5zM479 104q158 0 238 100.5
t110 326.5q15 125 -2 214t-73 136.5t-160 47.5q-128 0 -220 -96t-119 -302q-26 -200 30 -313.5t196 -113.5z" />
    <glyph glyph-name="Emacron" unicode="&#x112;" horiz-adv-x="1188" 
d="M126 0l208 1446h838l-21 -140h-687l-72 -506h623l-19 -140h-624l-74 -516l708 -1l-22 -143h-858zM498 1655l17 115h538l-17 -115h-538z" />
    <glyph glyph-name="emacron" unicode="&#x113;" horiz-adv-x="1078" 
d="M484 -20q-135 0 -228 62.5t-133.5 180.5t-16.5 284q24 165 93.5 288.5t178 191t248.5 67.5q135 0 220 -61.5t117.5 -175.5t9.5 -272l-9 -64h-708q-15 -104 5 -189t79 -136t160 -51q99 0 177 49.5t109 140.5h144q-33 -104 -103 -174t-160 -105.5t-183 -35.5zM272 592h561
q15 96 -4 173t-74 122t-148 45q-99 0 -169.5 -50.5t-112 -128.5t-53.5 -161zM387 1243l17 115h538l-17 -115h-538z" />
    <glyph glyph-name="Ebreve" unicode="&#x114;" horiz-adv-x="1188" 
d="M126 0l208 1446h838l-21 -140h-687l-72 -506h623l-19 -140h-624l-74 -516l708 -1l-22 -143h-858zM748 1567q-75 0 -126.5 29t-80.5 75.5t-34 101.5h118q8 -19 22.5 -43t42 -41.5t74.5 -17.5q63 0 104.5 34.5t66.5 67.5h120q-21 -50 -64 -97t-104.5 -78t-138.5 -31z" />
    <glyph glyph-name="ebreve" unicode="&#x115;" horiz-adv-x="1078" 
d="M484 -20q-135 0 -228 62.5t-133.5 180.5t-16.5 284q24 165 93.5 288.5t178 191t248.5 67.5q135 0 220 -61.5t117.5 -175.5t9.5 -272l-9 -64h-708q-15 -104 5 -189t79 -136t160 -51q99 0 177 49.5t109 140.5h144q-33 -104 -103 -174t-160 -105.5t-183 -35.5zM272 592h561
q15 96 -4 173t-74 122t-148 45q-99 0 -169.5 -50.5t-112 -128.5t-53.5 -161zM637 1155q-75 0 -126.5 29t-80.5 75.5t-34 101.5h118q8 -19 22.5 -43t42 -41.5t74.5 -17.5q63 0 104.5 34.5t66.5 67.5h120q-21 -50 -64 -97t-104.5 -78t-138.5 -31z" />
    <glyph glyph-name="Edotaccent" unicode="&#x116;" horiz-adv-x="1188" 
d="M126 0l208 1446h838l-21 -140h-687l-72 -506h623l-19 -140h-624l-74 -516l708 -1l-22 -143h-858zM692 1695l23 163h155l-23 -163h-155z" />
    <glyph glyph-name="edotaccent" unicode="&#x117;" horiz-adv-x="1078" 
d="M484 -20q-135 0 -228 62.5t-133.5 180.5t-16.5 284q24 165 93.5 288.5t178 191t248.5 67.5q135 0 220 -61.5t117.5 -175.5t9.5 -272l-9 -64h-708q-15 -104 5 -189t79 -136t160 -51q99 0 177 49.5t109 140.5h144q-33 -104 -103 -174t-160 -105.5t-183 -35.5zM272 592h561
q15 96 -4 173t-74 122t-148 45q-99 0 -169.5 -50.5t-112 -128.5t-53.5 -161zM582 1283l23 163h155l-23 -163h-155z" />
    <glyph glyph-name="Eogonek" unicode="&#x118;" horiz-adv-x="1188" 
d="M126 0l208 1446h838l-21 -140h-687l-72 -506h623l-19 -140h-624l-74 -516l708 -1l-22 -143h-858zM812 -334q-91 0 -130.5 42.5t-29.5 114.5q9 61 56.5 109t165.5 85l111 -14q-101 -43 -149.5 -81t-56.5 -89q-4 -37 14.5 -56t66.5 -19q46 0 83 12t57 23l-14 -88
q-25 -14 -72.5 -26.5t-101.5 -12.5z" />
    <glyph glyph-name="eogonek" unicode="&#x119;" horiz-adv-x="1078" 
d="M626 1054q135 0 219.5 -61.5t117 -175.5t10.5 -272l-9 -64h-708q-15 -104 5 -189t79 -136t160 -51q99 0 177 49.5t109 140.5h144q-32 -101 -96.5 -167.5t-149.5 -105.5q-90 -40 -139.5 -79.5t-57.5 -89.5q-4 -37 14 -56.5t66 -19.5q47 0 84 12.5t56 22.5l-13 -87
q-25 -14 -73 -26.5t-101 -12.5q-91 0 -130.5 42.5t-29.5 113.5q6 41 36 78.5t63 60.5q-126 6 -214 69.5t-125 179.5t-14 277q24 165 93.5 288.5t178 191t248.5 67.5zM272 592h561q15 96 -4 173t-74 122t-148 45q-99 0 -169.5 -50.5t-112 -128.5t-53.5 -161z" />
    <glyph glyph-name="Ecaron" unicode="&#x11a;" horiz-adv-x="1188" 
d="M126 0l208 1446h838l-21 -140h-687l-72 -506h623l-19 -140h-624l-74 -516l708 -1l-22 -143h-858zM696 1566l-204 216h146l124 -131l152 131h152l-259 -216h-111z" />
    <glyph glyph-name="ecaron" unicode="&#x11b;" horiz-adv-x="1072" 
d="M484 -20q-135 0 -228 62.5t-133.5 180.5t-16.5 284q24 165 93.5 288.5t178 191t248.5 67.5q135 0 220 -61.5t117.5 -175.5t9.5 -272l-9 -64h-708q-15 -104 5 -189t79 -136t160 -51q99 0 177 49.5t109 140.5h144q-33 -104 -103 -174t-160 -105.5t-183 -35.5zM272 592h561
q15 96 -4 173t-74 122t-148 45q-99 0 -169.5 -50.5t-112 -128.5t-53.5 -161zM583 1154l-204 216h146l124 -131l152 131h152l-259 -216h-111z" />
    <glyph glyph-name="Gcircumflex" unicode="&#x11c;" horiz-adv-x="1394" 
d="M609 -20q-178 0 -293.5 86.5t-160.5 251.5t-11 402t128 404t236 254.5t320 87.5q132 0 233.5 -64.5t156.5 -168.5t46 -223h-162q-1 83 -38 154.5t-103.5 115.5t-156.5 44q-123 0 -225 -64.5t-172.5 -198t-100.5 -338.5q-22 -158 -8 -272t60 -186.5t117.5 -107
t162.5 -34.5q90 0 162.5 34.5t125 89.5t84.5 118.5t43 121.5l24 139h-343l17 118l499 -1l-106 -743h-118l33 229q-46 -66 -110 -122.5t-148.5 -91.5t-191.5 -35zM542 1567l253 215h110l209 -215h-153l-120 127l-155 -127h-144z" />
    <glyph glyph-name="gcircumflex" unicode="&#x11d;" horiz-adv-x="1178" 
d="M446 -342q-224 0 -342.5 72.5t-100.5 210.5q8 55 37 94.5t65.5 66.5t68 43.5t42.5 24.5q-14 10 -34.5 25t-35 39.5t-8.5 63.5q5 44 51 82t134 60q-77 45 -115 120.5t-26 167.5q13 96 69 169t153 113t233 40q96 0 157.5 -24t110.5 -68q16 7 50.5 21t75 31t77 32t54.5 23
l-20 -157l-178 -39q26 -73 17 -152q-12 -90 -65.5 -162t-146.5 -113.5t-226 -41.5q-11 0 -26 0.5t-23 0.5q-114 -2 -159 -24t-48 -49q-2 -31 38 -44.5t139 -21.5q39 -3 93 -6t119 -8q148 -9 221.5 -81.5t56.5 -198.5q-18 -138 -144 -224t-364 -86zM479 -235q142 0 227 48.5
t98 145.5q8 64 -31 105t-132 47l-283 19q-34 3 -79.5 -20.5t-81 -65t-42.5 -95.5q-11 -85 67.5 -134.5t256.5 -49.5zM553 506q114 0 191.5 55.5t91.5 165.5q15 109 -45 164.5t-171 55.5q-115 0 -194 -59t-94 -172q-14 -101 44 -155.5t177 -54.5zM361 1155l253 215h110
l209 -215h-153l-120 127l-155 -127h-144z" />
    <glyph glyph-name="Gbreve" unicode="&#x11e;" horiz-adv-x="1394" 
d="M609 -20q-178 0 -293.5 86.5t-160.5 251.5t-11 402t128 404t236 254.5t320 87.5q132 0 233.5 -64.5t156.5 -168.5t46 -223h-162q-1 83 -38 154.5t-103.5 115.5t-156.5 44q-123 0 -225 -64.5t-172.5 -198t-100.5 -338.5q-22 -158 -8 -272t60 -186.5t117.5 -107
t162.5 -34.5q90 0 162.5 34.5t125 89.5t84.5 118.5t43 121.5l24 139h-343l17 118l499 -1l-106 -743h-118l33 229q-46 -66 -110 -122.5t-148.5 -91.5t-191.5 -35zM824 1567q-75 0 -126.5 29t-80.5 75.5t-34 101.5h118q8 -19 22.5 -43t42 -41.5t74.5 -17.5q63 0 104.5 34.5
t66.5 67.5h120q-21 -50 -64 -97t-104.5 -78t-138.5 -31z" />
    <glyph glyph-name="gbreve" unicode="&#x11f;" horiz-adv-x="1178" 
d="M446 -342q-224 0 -342.5 72.5t-100.5 210.5q8 55 37 94.5t65.5 66.5t68 43.5t42.5 24.5q-14 10 -34.5 25t-35 39.5t-8.5 63.5q5 44 51 82t134 60q-77 45 -115 120.5t-26 167.5q13 96 69 169t153 113t233 40q96 0 157.5 -24t110.5 -68q16 7 50.5 21t75 31t77 32t54.5 23
l-20 -157l-178 -39q26 -73 17 -152q-12 -90 -65.5 -162t-146.5 -113.5t-226 -41.5q-11 0 -26 0.5t-23 0.5q-114 -2 -159 -24t-48 -49q-2 -31 38 -44.5t139 -21.5q39 -3 93 -6t119 -8q148 -9 221.5 -81.5t56.5 -198.5q-18 -138 -144 -224t-364 -86zM479 -235q142 0 227 48.5
t98 145.5q8 64 -31 105t-132 47l-283 19q-34 3 -79.5 -20.5t-81 -65t-42.5 -95.5q-11 -85 67.5 -134.5t256.5 -49.5zM553 506q114 0 191.5 55.5t91.5 165.5q15 109 -45 164.5t-171 55.5q-115 0 -194 -59t-94 -172q-14 -101 44 -155.5t177 -54.5zM644 1155q-75 0 -126.5 29
t-80.5 75.5t-34 101.5h118q8 -19 22.5 -43t42 -41.5t74.5 -17.5q63 0 104.5 34.5t66.5 67.5h120q-21 -50 -64 -97t-104.5 -78t-138.5 -31z" />
    <glyph glyph-name="Gdotaccent" unicode="&#x120;" horiz-adv-x="1394" 
d="M609 -20q-178 0 -293.5 86.5t-160.5 251.5t-11 402t128 404t236 254.5t320 87.5q132 0 233.5 -64.5t156.5 -168.5t46 -223h-162q-1 83 -38 154.5t-103.5 115.5t-156.5 44q-123 0 -225 -64.5t-172.5 -198t-100.5 -338.5q-22 -158 -8 -272t60 -186.5t117.5 -107
t162.5 -34.5q90 0 162.5 34.5t125 89.5t84.5 118.5t43 121.5l24 139h-343l17 118l499 -1l-106 -743h-118l33 229q-46 -66 -110 -122.5t-148.5 -91.5t-191.5 -35zM769 1695l23 163h155l-23 -163h-155z" />
    <glyph glyph-name="gdotaccent" unicode="&#x121;" horiz-adv-x="1178" 
d="M446 -342q-224 0 -342.5 72.5t-100.5 210.5q8 55 37 94.5t65.5 66.5t68 43.5t42.5 24.5q-14 10 -34.5 25t-35 39.5t-8.5 63.5q5 44 51 82t134 60q-77 45 -115 120.5t-26 167.5q13 96 69 169t153 113t233 40q96 0 157.5 -24t110.5 -68q16 7 50.5 21t75 31t77 32t54.5 23
l-20 -157l-178 -39q26 -73 17 -152q-12 -90 -65.5 -162t-146.5 -113.5t-226 -41.5q-11 0 -26 0.5t-23 0.5q-114 -2 -159 -24t-48 -49q-2 -31 38 -44.5t139 -21.5q39 -3 93 -6t119 -8q148 -9 221.5 -81.5t56.5 -198.5q-18 -138 -144 -224t-364 -86zM479 -235q142 0 227 48.5
t98 145.5q8 64 -31 105t-132 47l-283 19q-34 3 -79.5 -20.5t-81 -65t-42.5 -95.5q-11 -85 67.5 -134.5t256.5 -49.5zM553 506q114 0 191.5 55.5t91.5 165.5q15 109 -45 164.5t-171 55.5q-115 0 -194 -59t-94 -172q-14 -101 44 -155.5t177 -54.5zM589 1283l23 163h155
l-23 -163h-155z" />
    <glyph glyph-name="uni0122" unicode="&#x122;" horiz-adv-x="1394" 
d="M609 -20q-178 0 -293.5 86.5t-160.5 251.5t-11 402t128 404t236 254.5t320 87.5q132 0 233.5 -64.5t156.5 -168.5t46 -223h-162q-1 83 -38 154.5t-103.5 115.5t-156.5 44q-123 0 -225 -64.5t-172.5 -198t-100.5 -338.5q-22 -158 -8 -272t60 -186.5t117.5 -107
t162.5 -34.5q90 0 162.5 34.5t125 89.5t84.5 118.5t43 121.5l24 139h-343l17 118l499 -1l-106 -743h-118l33 229q-46 -66 -110 -122.5t-148.5 -91.5t-191.5 -35zM447 -364l91 118l-54 3l20 145h163l-18 -122l-136 -144h-66z" />
    <glyph glyph-name="uni0123" unicode="&#x123;" horiz-adv-x="1178" 
d="M446 -342q-224 0 -342.5 72.5t-100.5 210.5q8 55 37 94.5t65.5 66.5t68 43.5t42.5 24.5q-14 10 -34.5 25t-35 39.5t-8.5 63.5q5 44 51 82t134 60q-77 45 -115 120.5t-26 167.5q13 96 69 169t153 113t233 40q96 0 157.5 -24t110.5 -68q16 7 50.5 21t75 31t77 32t54.5 23
l-20 -157l-178 -39q26 -73 17 -152q-12 -90 -65.5 -162t-146.5 -113.5t-226 -41.5q-11 0 -26 0.5t-23 0.5q-114 -2 -159 -24t-48 -49q-2 -31 38 -44.5t139 -21.5q39 -3 93 -6t119 -8q148 -9 221.5 -81.5t56.5 -198.5q-18 -138 -144 -224t-364 -86zM479 -235q142 0 227 48.5
t98 145.5q8 64 -31 105t-132 47l-283 19q-34 3 -79.5 -20.5t-81 -65t-42.5 -95.5q-11 -85 67.5 -134.5t256.5 -49.5zM553 506q114 0 191.5 55.5t91.5 165.5q15 109 -45 164.5t-171 55.5q-115 0 -194 -59t-94 -172q-14 -101 44 -155.5t177 -54.5zM571 1155l25 182l105 139h80
l-103 -149h65l-25 -172h-147z" />
    <glyph glyph-name="Hcircumflex" unicode="&#x124;" horiz-adv-x="1470" 
d="M127 0l203 1446h151l-88 -626h770l87 626h151l-203 -1446h-151l95 679h-769l-95 -679h-151zM605 1567l253 215h110l209 -215h-153l-120 127l-155 -127h-144z" />
    <glyph glyph-name="hcircumflex" unicode="&#x125;" horiz-adv-x="1114" 
d="M99 0l201 1486h148l-81 -599q45 66 129 114t202 48q96 0 168 -38t108 -106t23 -157l-100 -748h-152l96 714q14 96 -42 150.5t-158 54.5q-71 0 -135 -24.5t-107.5 -72.5t-53.5 -121l-95 -701h-151zM113 1567l253 215h110l209 -215h-153l-120 127l-155 -127h-144z" />
    <glyph glyph-name="Hbar" unicode="&#x126;" horiz-adv-x="1538" 
d="M109 1117l17 109h1487l-17 -109h-1487zM175 0l203 1446h151l-88 -626h770l87 626h151l-203 -1446h-151l95 679h-769l-95 -679h-151z" />
    <glyph glyph-name="hbar" unicode="&#x127;" horiz-adv-x="1214" 
d="M138 1200l13 103h603l-13 -103h-603zM199 0l201 1486h148l-81 -599q45 66 129 114t202 48q96 0 168 -38t108 -106t23 -157l-100 -748h-152l96 714q14 96 -42 150.5t-158 54.5q-71 0 -135 -24.5t-107.5 -72.5t-53.5 -121l-95 -701h-151z" />
    <glyph glyph-name="Itilde" unicode="&#x128;" horiz-adv-x="554" 
d="M127 0l207 1446h151l-206 -1446h-152zM199 1642l-18 89q36 32 73 52.5t89 20.5q44 0 81 -13.5t73.5 -27t77.5 -13.5t72 15.5t61 36.5l16 -102q-26 -18 -66.5 -36.5t-98.5 -18.5q-49 0 -83.5 12.5t-66.5 25.5t-73 13q-47 0 -77 -16.5t-60 -37.5z" />
    <glyph glyph-name="itilde" unicode="&#x129;" horiz-adv-x="475" 
d="M88 0l148 1034h152l-149 -1034h-151zM100 1230l-18 89q36 32 73 52.5t89 20.5q44 0 81 -13.5t73.5 -27t77.5 -13.5t72 15.5t61 36.5l16 -102q-26 -18 -66.5 -36.5t-98.5 -18.5q-49 0 -83.5 12.5t-66.5 25.5t-73 13q-47 0 -77 -16.5t-60 -37.5z" />
    <glyph glyph-name="Imacron" unicode="&#x12a;" horiz-adv-x="554" 
d="M127 0l207 1446h151l-206 -1446h-152zM175 1655l17 115h538l-17 -115h-538z" />
    <glyph glyph-name="imacron" unicode="&#x12b;" horiz-adv-x="475" 
d="M88 0l148 1034h152l-149 -1034h-151zM76 1243l17 115h538l-17 -115h-538z" />
    <glyph glyph-name="Ibreve" unicode="&#x12c;" horiz-adv-x="554" 
d="M127 0l207 1446h151l-206 -1446h-152zM425 1567q-75 0 -126.5 29t-80.5 75.5t-34 101.5h118q8 -19 22.5 -43t42 -41.5t74.5 -17.5q63 0 104.5 34.5t66.5 67.5h120q-21 -50 -64 -97t-104.5 -78t-138.5 -31z" />
    <glyph glyph-name="ibreve" unicode="&#x12d;" horiz-adv-x="475" 
d="M88 0l148 1034h152l-149 -1034h-151zM326 1155q-75 0 -126.5 29t-80.5 75.5t-34 101.5h118q8 -19 22.5 -43t42 -41.5t74.5 -17.5q63 0 104.5 34.5t66.5 67.5h120q-21 -50 -64 -97t-104.5 -78t-138.5 -31z" />
    <glyph glyph-name="Iogonek" unicode="&#x12e;" horiz-adv-x="554" 
d="M127 0l207 1446h151l-206 -1446h-152zM105 -337q-91 0 -130.5 42.5t-29.5 114.5q9 61 56.5 109t165.5 85l111 -14q-101 -43 -149.5 -81t-56.5 -89q-4 -37 14.5 -56t66.5 -19q46 0 83 12t57 23l-14 -88q-25 -14 -72.5 -26.5t-101.5 -12.5z" />
    <glyph glyph-name="iogonek" unicode="&#x12f;" horiz-adv-x="480" 
d="M93 0l146 1034h147l-145 -1034h-148zM268 1274l23 172h159l-24 -172h-158zM62 -330q-91 0 -130.5 42.5t-29.5 114.5q9 61 56.5 109t165.5 85l111 -14q-101 -43 -149.5 -81t-56.5 -89q-4 -37 14.5 -56t66.5 -19q46 0 83 12t57 23l-14 -88q-25 -14 -72.5 -26.5
t-101.5 -12.5z" />
    <glyph glyph-name="Idotaccent" unicode="&#x130;" horiz-adv-x="554" 
d="M127 0l207 1446h151l-206 -1446h-152zM369 1695l23 163h155l-23 -163h-155z" />
    <glyph glyph-name="dotlessi" unicode="&#x131;" horiz-adv-x="475" 
d="M88 0l148 1034h152l-149 -1034h-151z" />
    <glyph glyph-name="Jcircumflex" unicode="&#x134;" horiz-adv-x="747" 
d="M235 -20q-73 0 -133 20t-77 29l36 152q28 -12 64 -30.5t96 -18.5q92 0 134 54.5t60 184.5l155 1075h149l-160 -1121q-16 -109 -50.5 -186.5t-100 -118t-173.5 -40.5zM373 1567l253 215h110l209 -215h-153l-120 127l-155 -127h-144z" />
    <glyph glyph-name="jcircumflex" unicode="&#x135;" horiz-adv-x="473" 
d="M-47 -332q-81 0 -100.5 6.5t-18.5 15.5l15 104l102 4q68 5 100.5 38t43.5 111l156 1087h150l-156 -1095q-20 -138 -85 -204.5t-207 -66.5zM50 1155l253 215h110l209 -215h-153l-120 127l-155 -127h-144z" />
    <glyph glyph-name="uni0136" unicode="&#x136;" horiz-adv-x="1291" 
d="M126 0l208 1446h156l-109 -771l744 771h182l-540 -565l372 -881h-174l-330 763l-285 -296l-66 -467h-158zM425 -364l91 118l-54 3l20 145h163l-18 -122l-136 -144h-66z" />
    <glyph glyph-name="uni0137" unicode="&#x137;" horiz-adv-x="1065" 
d="M87 0l214 1486h150l-141 -993l556 541h177l-406 -389l283 -645h-163l-235 539l-240 -229l-44 -310h-151zM304 -364l91 118l-54 3l20 145h163l-18 -122l-136 -144h-66z" />
    <glyph glyph-name="kgreenlandic" unicode="&#x138;" horiz-adv-x="1078" 
d="M87 0l150 1034h150l-78 -552l572 552h170l-389 -365l273 -669h-178l-218 550l-257 -240l-43 -310h-152z" />
    <glyph glyph-name="Lacute" unicode="&#x139;" horiz-adv-x="1109" 
d="M126 0l208 1446h155l-186 -1301h653l-21 -145h-809zM347 1567l233 291h182l-292 -291h-123z" />
    <glyph glyph-name="lacute" unicode="&#x13a;" horiz-adv-x="583" 
d="M316 -11q-71 0 -113 21.5t-61.5 59.5t-22.5 87t5 103l176 1226h150l-175 -1213q-12 -85 12.5 -124.5t73.5 -42.5l53 -1l-14 -102q-23 -7 -46 -10.5t-38 -3.5zM314 1647l233 291h182l-292 -291h-123z" />
    <glyph glyph-name="uni013B" unicode="&#x13b;" horiz-adv-x="1109" 
d="M126 0l208 1446h155l-186 -1301h653l-21 -145h-809zM368 -364l91 118l-54 3l20 145h163l-18 -122l-136 -144h-66z" />
    <glyph glyph-name="uni013C" unicode="&#x13c;" horiz-adv-x="577" 
d="M316 -11q-71 0 -113 21.5t-61.5 59.5t-22.5 87t5 103l176 1226h150l-175 -1213q-12 -85 12.5 -124.5t73.5 -42.5l53 -1l-14 -102q-23 -7 -46 -10.5t-38 -3.5zM31 -362l91 118l-54 3l20 145h163l-18 -122l-136 -144h-66z" />
    <glyph glyph-name="Lcaron" unicode="&#x13d;" horiz-adv-x="1109" 
d="M126 0l208 1446h155l-186 -1301h653l-21 -145h-809zM776 1071l96 179l-45 10l26 186h132l-27 -195l-98 -180h-84z" />
    <glyph glyph-name="lcaron" unicode="&#x13e;" horiz-adv-x="577" 
d="M316 -11q-71 0 -113 21.5t-61.5 59.5t-22.5 87t5 103l176 1226h150l-175 -1213q-12 -85 12.5 -124.5t73.5 -42.5l53 -1l-14 -102q-23 -7 -46 -10.5t-38 -3.5zM504 1111l96 179l-45 10l26 186h132l-27 -195l-98 -180h-84z" />
    <glyph glyph-name="Ldot" unicode="&#x13f;" horiz-adv-x="1141" 
d="M126 0l208 1446h155l-186 -1301h653l-21 -145h-809zM782 684l30 202h200l-31 -202h-199z" />
    <glyph glyph-name="ldot" unicode="&#x140;" horiz-adv-x="676" 
d="M316 -11q-71 0 -113 21.5t-61.5 59.5t-22.5 87t5 103l176 1226h150l-175 -1213q-12 -85 12.5 -124.5t73.5 -42.5l53 -1l-14 -102q-23 -7 -46 -10.5t-38 -3.5zM489 684l30 202h200l-31 -202h-199z" />
    <glyph glyph-name="Lslash" unicode="&#x141;" horiz-adv-x="1144" 
d="M77 610v137l649 167v-129zM161 0l209 1446h155l-187 -1301h654l-22 -145h-809z" />
    <glyph glyph-name="lslash" unicode="&#x142;" horiz-adv-x="703" 
d="M67 346v149l554 439v-141zM409 -11q-71 0 -113 21.5t-61.5 59.5t-22 87t4.5 103l176 1226h150l-175 -1213q-11 -85 13.5 -124.5t72.5 -42.5l54 -1l-15 -102q-23 -7 -45.5 -10.5t-38.5 -3.5z" />
    <glyph glyph-name="Nacute" unicode="&#x143;" horiz-adv-x="1435" 
d="M126 0l208 1446h141l575 -1169l166 1169h152l-209 -1446h-133l-580 1180l-169 -1180h-151zM787 1567l233 291h182l-292 -291h-123z" />
    <glyph glyph-name="nacute" unicode="&#x144;" horiz-adv-x="1100" 
d="M88 0l148 1034h144l-18 -146q32 45 79.5 81.5t110.5 58.5t141 22q95 0 166 -42t104.5 -125t15.5 -206l-97 -677h-151l96 664q18 124 -35 189.5t-154 65.5q-71 0 -135.5 -24t-109 -72t-54.5 -121l-101 -702h-150zM585 1155l233 291h182l-292 -291h-123z" />
    <glyph glyph-name="uni0145" unicode="&#x145;" horiz-adv-x="1435" 
d="M126 0l208 1446h141l575 -1169l166 1169h152l-209 -1446h-133l-580 1180l-169 -1180h-151zM457 -364l91 118l-54 3l20 145h163l-18 -122l-136 -144h-66z" />
    <glyph glyph-name="uni0146" unicode="&#x146;" horiz-adv-x="1100" 
d="M88 0l148 1034h144l-18 -146q32 45 79.5 81.5t110.5 58.5t141 22q95 0 166 -42t104.5 -125t15.5 -206l-97 -677h-151l96 664q18 124 -35 189.5t-154 65.5q-71 0 -135.5 -24t-109 -72t-54.5 -121l-101 -702h-150zM335 -364l91 118l-54 3l20 145h163l-18 -122l-136 -144
h-66z" />
    <glyph glyph-name="Ncaron" unicode="&#x147;" horiz-adv-x="1435" 
d="M126 0l208 1446h141l575 -1169l166 1169h152l-209 -1446h-133l-580 1180l-169 -1180h-151zM812 1566l-204 216h146l124 -131l152 131h152l-259 -216h-111z" />
    <glyph glyph-name="ncaron" unicode="&#x148;" horiz-adv-x="1100" 
d="M88 0l148 1034h144l-18 -146q32 45 79.5 81.5t110.5 58.5t141 22q95 0 166 -42t104.5 -125t15.5 -206l-97 -677h-151l96 664q18 124 -35 189.5t-154 65.5q-71 0 -135.5 -24t-109 -72t-54.5 -121l-101 -702h-150zM610 1154l-204 216h146l124 -131l152 131h152l-259 -216
h-111z" />
    <glyph glyph-name="Eng" unicode="&#x14a;" horiz-adv-x="1435" 
d="M816 -480q-74 0 -133 20t-77 29l34 146q25 -12 66 -27.5t96 -15.5q87 0 131 50t61 172l19 130l-567 1156l-169 -1180h-151l208 1446h141l575 -1169l166 1169h152l-228 -1581q-17 -113 -52.5 -190t-101 -116t-170.5 -39z" />
    <glyph glyph-name="eng" unicode="&#x14b;" horiz-adv-x="1097" 
d="M574 -332q-72 0 -89 5.5t-16 14.5l15 104l87 3q64 3 97.5 37t44.5 113l108 769q14 97 -21.5 156.5t-142.5 59.5q-74 0 -154 -43.5t-163 -119.5l-107 -767h-146l149 1034h136l-22 -157q81 65 143 104t117 56t114 17q135 0 200.5 -81.5t46.5 -213.5l-114 -805
q-12 -90 -48.5 -154t-95.5 -98t-139 -34z" />
    <glyph glyph-name="Omacron" unicode="&#x14c;" horiz-adv-x="1388" 
d="M618 -20q-181 0 -298.5 86t-164 250.5t-12.5 400.5q35 240 129.5 407t237.5 254.5t322 87.5q178 0 294.5 -87t163 -253.5t12.5 -405.5q-34 -237 -127.5 -402t-235.5 -251.5t-321 -86.5zM640 120q131 0 232 64t168 196.5t96 338.5q30 207 0.5 342t-112 200.5t-213.5 65.5
q-196 0 -326 -149t-175 -459q-29 -205 1 -337.5t114 -197t215 -64.5zM590 1655l17 115h538l-17 -115h-538z" />
    <glyph glyph-name="omacron" unicode="&#x14d;" horiz-adv-x="1074" 
d="M466 -20q-133 0 -224 60.5t-129.5 179.5t-15.5 293q22 162 89 284t175 189.5t251 67.5q133 0 222.5 -61.5t127.5 -182t14 -297.5q-21 -158 -87 -278t-172 -187.5t-251 -67.5zM485 106q90 0 160.5 48t117.5 140t64 223q15 118 -2.5 211t-73.5 146.5t-157 53.5
q-92 0 -163.5 -47.5t-117.5 -139.5t-64 -224q-16 -118 2 -210.5t75 -146.5t159 -54zM349 1243l17 115h538l-17 -115h-538z" />
    <glyph glyph-name="Obreve" unicode="&#x14e;" horiz-adv-x="1388" 
d="M618 -20q-181 0 -298.5 86t-164 250.5t-12.5 400.5q35 240 129.5 407t237.5 254.5t322 87.5q178 0 294.5 -87t163 -253.5t12.5 -405.5q-34 -237 -127.5 -402t-235.5 -251.5t-321 -86.5zM640 120q131 0 232 64t168 196.5t96 338.5q30 207 0.5 342t-112 200.5t-213.5 65.5
q-196 0 -326 -149t-175 -459q-29 -205 1 -337.5t114 -197t215 -64.5zM840 1567q-75 0 -126.5 29t-80.5 75.5t-34 101.5h118q8 -19 22.5 -43t42 -41.5t74.5 -17.5q63 0 104.5 34.5t66.5 67.5h120q-21 -50 -64 -97t-104.5 -78t-138.5 -31z" />
    <glyph glyph-name="obreve" unicode="&#x14f;" horiz-adv-x="1074" 
d="M466 -20q-133 0 -224 60.5t-129.5 179.5t-15.5 293q22 162 89 284t175 189.5t251 67.5q133 0 222.5 -61.5t127.5 -182t14 -297.5q-21 -158 -87 -278t-172 -187.5t-251 -67.5zM485 106q90 0 160.5 48t117.5 140t64 223q15 118 -2.5 211t-73.5 146.5t-157 53.5
q-92 0 -163.5 -47.5t-117.5 -139.5t-64 -224q-16 -118 2 -210.5t75 -146.5t159 -54zM599 1155q-75 0 -126.5 29t-80.5 75.5t-34 101.5h118q8 -19 22.5 -43t42 -41.5t74.5 -17.5q63 0 104.5 34.5t66.5 67.5h120q-21 -50 -64 -97t-104.5 -78t-138.5 -31z" />
    <glyph glyph-name="Ohungarumlaut" unicode="&#x150;" horiz-adv-x="1388" 
d="M618 -20q-181 0 -298.5 86t-164 250.5t-12.5 400.5q35 240 129.5 407t237.5 254.5t322 87.5q178 0 294.5 -87t163 -253.5t12.5 -405.5q-34 -237 -127.5 -402t-235.5 -251.5t-321 -86.5zM640 120q131 0 232 64t168 196.5t96 338.5q30 207 0.5 342t-112 200.5t-213.5 65.5
q-196 0 -326 -149t-175 -459q-29 -205 1 -337.5t114 -197t215 -64.5zM904 1567l183 291h167l-232 -291h-118zM657 1567l145 291h165l-193 -291h-117z" />
    <glyph glyph-name="ohungarumlaut" unicode="&#x151;" horiz-adv-x="1046" 
d="M466 -20q-133 0 -224 60.5t-129.5 179.5t-15.5 293q22 162 89 284t175 189.5t251 67.5q133 0 222.5 -61.5t127.5 -182t14 -297.5q-21 -158 -87 -278t-172 -187.5t-251 -67.5zM485 106q90 0 160.5 48t117.5 140t64 223q15 118 -2.5 211t-73.5 146.5t-157 53.5
q-92 0 -163.5 -47.5t-117.5 -139.5t-64 -224q-16 -118 2 -210.5t75 -146.5t159 -54zM658 1155l183 291h167l-232 -291h-118zM411 1155l145 291h165l-193 -291h-117z" />
    <glyph glyph-name="OE" unicode="&#x152;" horiz-adv-x="2118" 
d="M2102 1446l-21 -140h-687l-72 -506h623l-19 -140h-624l-74 -516l708 -1l-22 -143h-858l36 254q-82 -134 -203 -204t-271 -70q-181 0 -298.5 86t-164 250.5t-12.5 400.5q35 240 129.5 407t237.5 254.5t322 87.5q150 0 251 -70.5t145 -207.5l36 258h838zM640 120
q131 0 232 64t168 196.5t96 338.5q30 207 0.5 342t-112 200.5t-213.5 65.5q-196 0 -326 -149t-175 -459q-29 -205 1 -337.5t114 -197t215 -64.5z" />
    <glyph glyph-name="oe" unicode="&#x153;" horiz-adv-x="1804" 
d="M1352 1054q135 0 219.5 -61.5t117 -175.5t11.5 -272l-9 -64h-709q-15 -104 5 -189t79 -136t160 -51q99 0 177 49.5t110 140.5h144q-33 -104 -103.5 -174t-160.5 -105.5t-183 -35.5q-128 0 -218 62t-127 179q-62 -113 -162 -177t-237 -64q-133 0 -224 60.5t-129.5 179.5
t-15.5 293q22 162 89 284t175 189.5t251 67.5q128 0 215.5 -61.5t120.5 -187.5q66 119 169 184t235 65zM485 106q90 0 160.5 48t117.5 140t64 223q15 118 -2.5 211t-73.5 146.5t-157 53.5q-92 0 -163.5 -47.5t-117.5 -139.5t-64 -224q-16 -118 2 -210.5t75 -146.5t159 -54z
M998 592h562q14 96 -5 173t-74 122t-148 45q-98 0 -168.5 -50.5t-112.5 -128.5t-54 -161z" />
    <glyph glyph-name="Racute" unicode="&#x154;" horiz-adv-x="1288" 
d="M126 0l208 1446h514q143 0 234 -45.5t128 -131.5t20 -208q-17 -118 -69 -196.5t-120.5 -125t-137.5 -69.5l174 -670h-160l-163 641h-385l-92 -641h-151zM388 775h307q108 0 188 29.5t128 90.5t61 155q19 135 -48.5 199.5t-206.5 64.5h-352zM699 1567l233 291h182
l-292 -291h-123z" />
    <glyph glyph-name="racute" unicode="&#x155;" horiz-adv-x="729" 
d="M87 0l146 1034h144l-26 -187q35 73 85.5 118.5t110 67t117.5 21.5q24 0 46 -3.5t34 -11.5l-21 -152q-15 8 -39.5 11t-40.5 3q-69 4 -135.5 -17.5t-114 -75t-60.5 -144.5l-94 -664h-152zM430 1155l233 291h182l-292 -291h-123z" />
    <glyph glyph-name="uni0156" unicode="&#x156;" horiz-adv-x="1288" 
d="M126 0l208 1446h514q143 0 234 -45.5t128 -131.5t20 -208q-17 -118 -69 -196.5t-120.5 -125t-137.5 -69.5l174 -670h-160l-163 641h-385l-92 -641h-151zM388 775h307q108 0 188 29.5t128 90.5t61 155q19 135 -48.5 199.5t-206.5 64.5h-352zM417 -364l91 118l-54 3l20 145
h163l-18 -122l-136 -144h-66z" />
    <glyph glyph-name="uni0157" unicode="&#x157;" horiz-adv-x="741" 
d="M87 0l146 1034h144l-26 -187q35 73 85.5 118.5t110 67t117.5 21.5q24 0 46 -3.5t34 -11.5l-21 -152q-15 8 -39.5 11t-40.5 3q-69 4 -135.5 -17.5t-114 -75t-60.5 -144.5l-94 -664h-152zM1 -364l91 118l-54 3l20 145h163l-18 -122l-136 -144h-66z" />
    <glyph glyph-name="Rcaron" unicode="&#x158;" horiz-adv-x="1288" 
d="M126 0l208 1446h514q143 0 234 -45.5t128 -131.5t20 -208q-17 -118 -69 -196.5t-120.5 -125t-137.5 -69.5l174 -670h-160l-163 641h-385l-92 -641h-151zM388 775h307q108 0 188 29.5t128 90.5t61 155q19 135 -48.5 199.5t-206.5 64.5h-352zM724 1566l-204 216h146
l124 -131l152 131h152l-259 -216h-111z" />
    <glyph glyph-name="rcaron" unicode="&#x159;" horiz-adv-x="741" 
d="M87 0l146 1034h144l-26 -187q35 73 85.5 118.5t110 67t117.5 21.5q24 0 46 -3.5t34 -11.5l-21 -152q-15 8 -39.5 11t-40.5 3q-69 4 -135.5 -17.5t-114 -75t-60.5 -144.5l-94 -664h-152zM400 1154l-204 216h146l124 -131l152 131h152l-259 -216h-111z" />
    <glyph glyph-name="Sacute" unicode="&#x15a;" horiz-adv-x="1291" 
d="M579 -20q-96 0 -181.5 25t-151.5 74.5t-103.5 123.5t-37.5 173h161q7 -87 52 -145.5t117.5 -88t161.5 -29.5q102 0 185 31t136 88t63 133q9 69 -11.5 120t-69 85.5t-124.5 54.5l-265 70q-147 36 -220 123.5t-54 230.5q16 122 90 215.5t190 146.5t256 53
q156 0 256.5 -60.5t146 -155.5t34.5 -198h-160q5 104 -35 165t-109 87t-152 26q-78 0 -155 -29.5t-132 -88.5t-67 -148q-11 -82 35.5 -133.5t180.5 -89.5l256 -69q95 -23 151.5 -66t84 -98.5t33 -116.5t-2.5 -121q-14 -107 -85 -195t-191.5 -140.5t-282.5 -52.5zM710 1567
l233 291h182l-292 -291h-123z" />
    <glyph glyph-name="sacute" unicode="&#x15b;" horiz-adv-x="969" 
d="M423 -20q-102 0 -183 33.5t-127 103t-45 177.5h141q3 -62 32.5 -105t80 -65.5t118.5 -22.5q103 0 172 42.5t82 130.5q8 61 -19 98t-92 54l-201 57q-111 31 -170.5 93.5t-44.5 174.5q12 89 61.5 157t136 107t207.5 39q154 0 239.5 -73t69.5 -218h-137q2 79 -46 125.5
t-143 46.5q-99 0 -166.5 -43t-79.5 -133q-9 -60 29 -93.5t116 -55.5l196 -57q62 -18 100.5 -47.5t58.5 -66t25 -77.5t-1 -79q-13 -93 -65 -161t-139 -105t-206 -37zM519 1155l233 291h182l-292 -291h-123z" />
    <glyph glyph-name="Scircumflex" unicode="&#x15c;" horiz-adv-x="1291" 
d="M579 -20q-96 0 -181.5 25t-151.5 74.5t-103.5 123.5t-37.5 173h161q7 -87 52 -145.5t117.5 -88t161.5 -29.5q102 0 185 31t136 88t63 133q9 69 -11.5 120t-69 85.5t-124.5 54.5l-265 70q-147 36 -220 123.5t-54 230.5q16 122 90 215.5t190 146.5t256 53
q156 0 256.5 -60.5t146 -155.5t34.5 -198h-160q5 104 -35 165t-109 87t-152 26q-78 0 -155 -29.5t-132 -88.5t-67 -148q-11 -82 35.5 -133.5t180.5 -89.5l256 -69q95 -23 151.5 -66t84 -98.5t33 -116.5t-2.5 -121q-14 -107 -85 -195t-191.5 -140.5t-282.5 -52.5zM504 1567
l253 215h110l209 -215h-153l-120 127l-155 -127h-144z" />
    <glyph glyph-name="scircumflex" unicode="&#x15d;" horiz-adv-x="961" 
d="M423 -20q-102 0 -183 33.5t-127 103t-45 177.5h141q3 -62 32.5 -105t80 -65.5t118.5 -22.5q103 0 172 42.5t82 130.5q8 61 -19 98t-92 54l-201 57q-111 31 -170.5 93.5t-44.5 174.5q12 89 61.5 157t136 107t207.5 39q154 0 239.5 -73t69.5 -218h-137q2 79 -46 125.5
t-143 46.5q-99 0 -166.5 -43t-79.5 -133q-9 -60 29 -93.5t116 -55.5l196 -57q62 -18 100.5 -47.5t58.5 -66t25 -77.5t-1 -79q-13 -93 -65 -161t-139 -105t-206 -37zM301 1155l253 215h110l209 -215h-153l-120 127l-155 -127h-144z" />
    <glyph glyph-name="Scedilla" unicode="&#x15e;" horiz-adv-x="1291" 
d="M467 -408q-49 0 -90 12t-73 37l37 72q21 -19 48.5 -32.5t69.5 -13.5q53 0 80.5 20t33.5 56q7 44 -25.5 65.5t-109.5 23.5q-9 0 -11 3t3 9l91 166h85l-62 -121q61 -4 93.5 -26t42.5 -54t6 -65q-7 -50 -39.5 -83.5t-79.5 -51t-100 -17.5zM579 -20q-96 0 -181.5 25
t-151.5 74.5t-103.5 123.5t-37.5 173h161q7 -87 52 -145.5t117.5 -88t161.5 -29.5q102 0 185 31t136 88t63 133q9 69 -11.5 120t-69 85.5t-124.5 54.5l-265 70q-147 36 -220 123.5t-54 230.5q16 122 90 215.5t190 146.5t256 53q156 0 256.5 -60.5t146 -155.5t34.5 -198h-160
q5 104 -35 165t-109 87t-152 26q-78 0 -155 -29.5t-132 -88.5t-67 -148q-11 -82 35.5 -133.5t180.5 -89.5l256 -69q95 -23 151.5 -66t84 -98.5t33 -116.5t-2.5 -121q-14 -107 -85 -195t-191.5 -140.5t-282.5 -52.5z" />
    <glyph glyph-name="scedilla" unicode="&#x15f;" horiz-adv-x="961" 
d="M336 -408q-49 0 -89.5 12t-73.5 37l37 72q21 -19 48.5 -32.5t69.5 -13.5q53 0 80.5 20t33.5 56q7 44 -25.5 65.5t-109.5 23.5q-9 0 -11 3t3 9l91 166h85l-62 -121q61 -4 93.5 -26t43 -54t5.5 -65q-7 -50 -39 -83.5t-79.5 -51t-100.5 -17.5zM423 -20q-102 0 -183 33.5
t-127 103t-45 177.5h141q3 -62 32.5 -105t80 -65.5t118.5 -22.5q103 0 172 42.5t82 130.5q8 61 -19 98t-92 54l-201 57q-111 31 -170.5 93.5t-44.5 174.5q12 89 61.5 157t136 107t207.5 39q154 0 239.5 -73t69.5 -218h-137q2 79 -46 125.5t-143 46.5q-99 0 -166.5 -43
t-79.5 -133q-9 -60 29 -93.5t116 -55.5l196 -57q62 -18 100.5 -47.5t58.5 -66t25 -77.5t-1 -79q-13 -93 -65 -161t-139 -105t-206 -37z" />
    <glyph glyph-name="Scaron" unicode="&#x160;" horiz-adv-x="1291" 
d="M579 -20q-96 0 -181.5 25t-151.5 74.5t-103.5 123.5t-37.5 173h161q7 -87 52 -145.5t117.5 -88t161.5 -29.5q102 0 185 31t136 88t63 133q9 69 -11.5 120t-69 85.5t-124.5 54.5l-265 70q-147 36 -220 123.5t-54 230.5q16 122 90 215.5t190 146.5t256 53
q156 0 256.5 -60.5t146 -155.5t34.5 -198h-160q5 104 -35 165t-109 87t-152 26q-78 0 -155 -29.5t-132 -88.5t-67 -148q-11 -82 35.5 -133.5t180.5 -89.5l256 -69q95 -23 151.5 -66t84 -98.5t33 -116.5t-2.5 -121q-14 -107 -85 -195t-191.5 -140.5t-282.5 -52.5zM735 1566
l-204 216h146l124 -131l152 131h152l-259 -216h-111z" />
    <glyph glyph-name="scaron" unicode="&#x161;" horiz-adv-x="956" 
d="M423 -20q-102 0 -183 33.5t-127 103t-45 177.5h141q3 -62 32.5 -105t80 -65.5t118.5 -22.5q103 0 172 42.5t82 130.5q8 61 -19 98t-92 54l-201 57q-111 31 -170.5 93.5t-44.5 174.5q12 89 61.5 157t136 107t207.5 39q154 0 239.5 -73t69.5 -218h-137q2 79 -46 125.5
t-143 46.5q-99 0 -166.5 -43t-79.5 -133q-9 -60 29 -93.5t116 -55.5l196 -57q62 -18 100.5 -47.5t58.5 -66t25 -77.5t-1 -79q-13 -93 -65 -161t-139 -105t-206 -37zM548 1154l-204 216h146l124 -131l152 131h152l-259 -216h-111z" />
    <glyph glyph-name="uni0162" unicode="&#x162;" horiz-adv-x="1117" 
d="M412 -405q-49 0 -89.5 12t-73.5 37l38 72q20 -19 47.5 -32.5t70.5 -13.5q53 0 80.5 20t32.5 56q7 44 -25 65.5t-109 23.5q-9 0 -11.5 3t2.5 9l91 166h86l-63 -121q62 -4 94 -26t42.5 -54t6.5 -65q-8 -50 -40 -83.5t-79.5 -51t-100.5 -17.5zM420 0l185 1301h-443l20 145
h1013l-20 -145h-419l-186 -1301h-150z" />
    <glyph glyph-name="uni0163" unicode="&#x163;" horiz-adv-x="737" 
d="M278 -403q-49 0 -89.5 12t-73.5 37l38 71q21 -19 48.5 -32.5t69.5 -13.5q53 0 80.5 20t32.5 56q8 44 -24.5 65.5t-109.5 24.5q-9 0 -11 2.5t2 9.5l91 166h86l-63 -122q62 -4 94 -26t42.5 -54t6.5 -64q-7 -50 -39.5 -84t-80 -51t-100.5 -17zM427 -4q-95 0 -143.5 28
t-61.5 83t-2 138l96 672h-158l18 117h160l72 298h120l-42 -297h221l-18 -118h-221l-94 -660q-12 -89 14 -113t94 -24h100l-16 -108q-18 -7 -54 -11.5t-85 -4.5z" />
    <glyph glyph-name="Tcaron" unicode="&#x164;" horiz-adv-x="1117" 
d="M420 0l185 1301h-443l20 145h1013l-20 -145h-419l-186 -1301h-150zM671 1566l-204 216h146l124 -131l152 131h152l-259 -216h-111z" />
    <glyph glyph-name="tcaron" unicode="&#x165;" horiz-adv-x="754" 
d="M427 -4q-95 0 -143.5 28t-61.5 83t-2 138l96 672h-158l18 117h160l72 298h120l-42 -297h221l-18 -118h-221l-94 -660q-12 -89 14 -113t94 -24h100l-16 -108q-18 -7 -54 -11.5t-85 -4.5zM598 1136l96 179l-45 10l26 186h132l-27 -195l-98 -180h-84z" />
    <glyph glyph-name="Tbar" unicode="&#x166;" horiz-adv-x="1117" 
d="M203 664l17 130h749l-17 -130h-749zM420 0l185 1301h-443l20 145h1013l-20 -145h-419l-186 -1301h-150z" />
    <glyph glyph-name="tbar" unicode="&#x167;" horiz-adv-x="715" 
d="M117 522l15 104h515l-15 -104h-515zM438 -4q-95 0 -143.5 28t-61.5 83t-2 138l96 672h-159l19 117h159l73 298h119l-42 -297h222l-18 -118h-221l-94 -660q-12 -89 13.5 -113t94.5 -24h100l-16 -108q-18 -7 -54 -11.5t-85 -4.5z" />
    <glyph glyph-name="Utilde" unicode="&#x168;" horiz-adv-x="1331" 
d="M607 -20q-171 0 -269.5 59.5t-131.5 177.5t-8 291l134 938h157l-138 -967q-18 -120 8 -200t93.5 -120t174.5 -40q161 0 260.5 89t125.5 271l137 967h151l-136 -960q-23 -164 -90.5 -277t-183 -171t-284.5 -58zM606 1642l-18 89q36 32 73 52.5t89 20.5q44 0 81 -13.5
t73.5 -27t77.5 -13.5t72 15.5t61 36.5l16 -102q-26 -18 -66.5 -36.5t-98.5 -18.5q-49 0 -83.5 12.5t-66.5 25.5t-73 13q-47 0 -77 -16.5t-60 -37.5z" />
    <glyph glyph-name="utilde" unicode="&#x169;" horiz-adv-x="1110" 
d="M444 -20q-78 1 -143 23.5t-110.5 67t-65 111t-7.5 154.5l98 698h152l-97 -684q-15 -109 37.5 -176.5t180.5 -67.5q114 0 192 63.5t96 192.5l95 672h151l-146 -1034h-121l11 196q-27 -74 -76 -122t-112.5 -71.5t-134.5 -22.5zM408 1230l-18 89q36 32 73 52.5t89 20.5
q44 0 81 -13.5t73.5 -27t77.5 -13.5t72 15.5t61 36.5l16 -102q-26 -18 -66.5 -36.5t-98.5 -18.5q-49 0 -83.5 12.5t-66.5 25.5t-73 13q-47 0 -77 -16.5t-60 -37.5z" />
    <glyph glyph-name="Umacron" unicode="&#x16a;" horiz-adv-x="1331" 
d="M607 -20q-171 0 -269.5 59.5t-131.5 177.5t-8 291l134 938h157l-138 -967q-18 -120 8 -200t93.5 -120t174.5 -40q161 0 260.5 89t125.5 271l137 967h151l-136 -960q-23 -164 -90.5 -277t-183 -171t-284.5 -58zM582 1655l17 115h538l-17 -115h-538z" />
    <glyph glyph-name="umacron" unicode="&#x16b;" horiz-adv-x="1110" 
d="M444 -20q-78 1 -143 23.5t-110.5 67t-65 111t-7.5 154.5l98 698h152l-97 -684q-15 -109 37.5 -176.5t180.5 -67.5q114 0 192 63.5t96 192.5l95 672h151l-146 -1034h-121l11 196q-27 -74 -76 -122t-112.5 -71.5t-134.5 -22.5zM384 1243l17 115h538l-17 -115h-538z" />
    <glyph glyph-name="Ubreve" unicode="&#x16c;" horiz-adv-x="1331" 
d="M607 -20q-171 0 -269.5 59.5t-131.5 177.5t-8 291l134 938h157l-138 -967q-18 -120 8 -200t93.5 -120t174.5 -40q161 0 260.5 89t125.5 271l137 967h151l-136 -960q-23 -164 -90.5 -277t-183 -171t-284.5 -58zM832 1567q-75 0 -126.5 29t-80.5 75.5t-34 101.5h118
q8 -19 22.5 -43t42 -41.5t74.5 -17.5q63 0 104.5 34.5t66.5 67.5h120q-21 -50 -64 -97t-104.5 -78t-138.5 -31z" />
    <glyph glyph-name="ubreve" unicode="&#x16d;" horiz-adv-x="1110" 
d="M444 -20q-78 1 -143 23.5t-110.5 67t-65 111t-7.5 154.5l98 698h152l-97 -684q-15 -109 37.5 -176.5t180.5 -67.5q114 0 192 63.5t96 192.5l95 672h151l-146 -1034h-121l11 196q-27 -74 -76 -122t-112.5 -71.5t-134.5 -22.5zM634 1155q-75 0 -126.5 29t-80.5 75.5
t-34 101.5h118q8 -19 22.5 -43t42 -41.5t74.5 -17.5q63 0 104.5 34.5t66.5 67.5h120q-21 -50 -64 -97t-104.5 -78t-138.5 -31z" />
    <glyph glyph-name="Uring" unicode="&#x16e;" horiz-adv-x="1331" 
d="M607 -20q-171 0 -269.5 59.5t-131.5 177.5t-8 291l134 938h157l-138 -967q-18 -120 8 -200t93.5 -120t174.5 -40q161 0 260.5 89t125.5 271l137 967h151l-136 -960q-23 -164 -90.5 -277t-183 -171t-284.5 -58zM835 1571q-79 0 -126 59.5t-34 147.5q7 54 39.5 98.5t80 71
t99.5 26.5q80 0 127.5 -58t34.5 -142q-7 -58 -39.5 -103.5t-80 -72.5t-101.5 -27zM847 1662q43 0 77 33.5t41 77.5q6 48 -18.5 78.5t-68.5 30.5q-40 0 -75 -30.5t-42 -78.5q-7 -44 19 -77.5t67 -33.5z" />
    <glyph glyph-name="uring" unicode="&#x16f;" horiz-adv-x="1110" 
d="M444 -20q-78 1 -143 23.5t-110.5 67t-65 111t-7.5 154.5l98 698h152l-97 -684q-15 -109 37.5 -176.5t180.5 -67.5q114 0 192 63.5t96 192.5l95 672h151l-146 -1034h-121l11 196q-27 -74 -76 -122t-112.5 -71.5t-134.5 -22.5zM637 1159q-79 0 -126 59.5t-34 147.5
q7 54 39.5 98.5t80 71t99.5 26.5q80 0 127.5 -58t34.5 -142q-7 -58 -39.5 -103.5t-80 -72.5t-101.5 -27zM649 1250q43 0 77 33.5t41 77.5q6 48 -18.5 78.5t-68.5 30.5q-40 0 -75 -30.5t-42 -78.5q-7 -44 19 -77.5t67 -33.5z" />
    <glyph glyph-name="Uhungarumlaut" unicode="&#x170;" horiz-adv-x="1318" 
d="M607 -20q-171 0 -269.5 59.5t-131.5 177.5t-8 291l134 938h157l-138 -967q-18 -120 8 -200t93.5 -120t174.5 -40q161 0 260.5 89t125.5 271l137 967h151l-136 -960q-23 -164 -90.5 -277t-183 -171t-284.5 -58zM894 1567l183 291h167l-232 -291h-118zM647 1567l145 291
h165l-193 -291h-117z" />
    <glyph glyph-name="uhungarumlaut" unicode="&#x171;" horiz-adv-x="1052" 
d="M444 -20q-78 1 -143 23.5t-110.5 67t-65 111t-7.5 154.5l98 698h152l-97 -684q-15 -109 37.5 -176.5t180.5 -67.5q114 0 192 63.5t96 192.5l95 672h151l-146 -1034h-121l11 196q-27 -74 -76 -122t-112.5 -71.5t-134.5 -22.5zM701 1155l183 291h167l-232 -291h-118z
M454 1155l145 291h165l-193 -291h-117z" />
    <glyph glyph-name="Uogonek" unicode="&#x172;" horiz-adv-x="1331" 
d="M582 -340q-91 0 -130 42.5t-29 113.5q8 61 56 109t165 85l112 -13q-101 -43 -149.5 -81t-56.5 -89q-4 -37 14 -56.5t66 -19.5q46 0 83.5 12.5t56.5 22.5l-13 -87q-25 -14 -73 -26.5t-102 -12.5zM607 -20q-171 0 -269.5 59.5t-131.5 177.5t-8 291l134 938h157l-138 -967
q-18 -120 8 -200t93.5 -120t174.5 -40q161 0 260.5 89t125.5 271l137 967h151l-136 -960q-23 -164 -90.5 -277t-183 -171t-284.5 -58z" />
    <glyph glyph-name="uogonek" unicode="&#x173;" horiz-adv-x="1110" 
d="M444 -20q-78 1 -143 23.5t-110.5 67t-65 111t-7.5 154.5l98 698h152l-97 -684q-15 -109 37.5 -176.5t180.5 -67.5q114 0 192 63.5t96 192.5l95 672h151l-146 -1034h-121l11 196q-27 -74 -76 -122t-112.5 -71.5t-134.5 -22.5zM704 -332q-91 0 -130.5 42.5t-29.5 114.5
q9 61 56.5 109t165.5 85l111 -14q-101 -43 -149.5 -81t-56.5 -89q-4 -37 14.5 -56t66.5 -19q46 0 83 12t57 23l-14 -88q-25 -14 -72.5 -26.5t-101.5 -12.5z" />
    <glyph glyph-name="Wcircumflex" unicode="&#x174;" horiz-adv-x="1795" 
d="M363 0l-181 1446h155l139 -1205l490 1205h121l146 -1205l490 1205h152l-602 -1446h-147l-141 1169l-479 -1169h-143zM759 1567l253 215h110l209 -215h-153l-120 127l-155 -127h-144z" />
    <glyph glyph-name="wcircumflex" unicode="&#x175;" horiz-adv-x="1468" 
d="M280 0l-148 1034h142l111 -836h17l348 836h116l120 -834h16l340 834h141l-436 -1034h-159l-116 801l-332 -801h-160zM546 1155l253 215h110l209 -215h-153l-120 127l-155 -127h-144z" />
    <glyph glyph-name="Ycircumflex" unicode="&#x176;" horiz-adv-x="1118" 
d="M410 0l87 619l-340 827h164l274 -686l463 686h166l-575 -829l-89 -617h-150zM417 1570l253 215h110l209 -215h-153l-120 127l-155 -127h-144z" />
    <glyph glyph-name="ycircumflex" unicode="&#x177;" horiz-adv-x="1000" 
d="M115 -330q-82 0 -110 11.5l-28 11.5l15 102l101 -1q69 -2 111 15.5t65.5 45.5t37.5 56l53 109l-234 1014h154l180 -832l414 832h147l-574 -1131q-47 -90 -99.5 -140.5t-110 -71.5t-122.5 -21zM306 1155l253 215h110l209 -215h-153l-120 127l-155 -127h-144z" />
    <glyph glyph-name="Ydieresis" unicode="&#x178;" horiz-adv-x="1118" 
d="M410 0l87 619l-340 827h164l274 -686l463 686h166l-575 -829l-89 -617h-150zM797 1698l23 163h156l-23 -163h-156zM489 1698l23 163h156l-23 -163h-156z" />
    <glyph glyph-name="Zacute" unicode="&#x179;" horiz-adv-x="1203" 
d="M60 0l14 91l928 1217h-726l20 138h937l-12 -87l-937 -1219h760l-22 -140h-962zM706 1567l233 291h182l-292 -291h-123z" />
    <glyph glyph-name="zacute" unicode="&#x17a;" horiz-adv-x="943" 
d="M9 0l13 103l682 814h-527l16 117h707l-13 -102l-681 -814h571l-17 -118h-751zM520 1155l233 291h182l-292 -291h-123z" />
    <glyph glyph-name="Zdotaccent" unicode="&#x17b;" horiz-adv-x="1203" 
d="M60 0l14 91l928 1217h-726l20 138h937l-12 -87l-937 -1219h760l-22 -140h-962zM728 1695l23 163h155l-23 -163h-155z" />
    <glyph glyph-name="zdotaccent" unicode="&#x17c;" horiz-adv-x="913" 
d="M9 0l13 103l682 814h-527l16 117h707l-13 -102l-681 -814h571l-17 -118h-751zM512 1283l23 163h155l-23 -163h-155z" />
    <glyph glyph-name="Zcaron" unicode="&#x17d;" horiz-adv-x="1203" 
d="M60 0l14 91l928 1217h-726l20 138h937l-12 -87l-937 -1219h760l-22 -140h-962zM731 1566l-204 216h146l124 -131l152 131h152l-259 -216h-111z" />
    <glyph glyph-name="zcaron" unicode="&#x17e;" horiz-adv-x="930" 
d="M9 0l13 103l682 814h-527l16 117h707l-13 -102l-681 -814h571l-17 -118h-751zM549 1154l-204 216h146l124 -131l152 131h152l-259 -216h-111z" />
    <glyph glyph-name="uni018F" unicode="&#x18f;" horiz-adv-x="1394" 
d="M624 -20q-177 0 -296 85.5t-166 259.5t-10 439h984q37 261 -46.5 405.5t-280.5 144.5q-99 0 -179.5 -33t-139.5 -86t-94 -114.5t-43 -118.5h-175q11 83 64 171t140 163.5t201 122.5t249 47q182 0 299.5 -88t163.5 -253.5t13 -398.5q-34 -246 -129 -412t-237 -250
t-318 -84zM644 127q133 0 230.5 66t158.5 181t83 260h-798q-20 -146 9 -261t108.5 -180.5t208.5 -65.5z" />
    <glyph glyph-name="florin" unicode="&#x192;" horiz-adv-x="825" 
d="M-279 -333l32 113l109 2q67 1 105 36.5t64 124.5l299 974h-156l36 117h158l48 164q40 122 119 185t189 63h172l-35 -114h-139q-52 0 -96 -40.5t-65 -107.5l-47 -150h248l-37 -117h-244l-304 -992q-37 -122 -114.5 -190t-194.5 -68h-147z" />
    <glyph glyph-name="Ohorn" unicode="&#x1a0;" horiz-adv-x="1497" 
d="M618 -20q-181 0 -298.5 86t-164 250.5t-12.5 400.5q35 240 129.5 407t237.5 254.5t322 87.5q131 0 228.5 -47t159.5 -137q52 -1 86.5 13.5t57 56.5t37.5 124h124q-14 -97 -45 -161.5t-82 -98t-126 -37.5q34 -88 42 -203t-12 -256q-34 -237 -127.5 -402t-235.5 -251.5
t-321 -86.5zM640 120q131 0 232 64t168 196.5t96 338.5q30 207 0.5 342t-112 200.5t-213.5 65.5q-196 0 -326 -149t-175 -459q-29 -205 1 -337.5t114 -197t215 -64.5z" />
    <glyph glyph-name="ohorn" unicode="&#x1a1;" horiz-adv-x="1147" 
d="M466 -20q-133 0 -224 60.5t-129.5 179.5t-15.5 293q22 162 89 284t175 189.5t251 67.5q98 0 173 -33.5t123 -99.5q66 2 102 42.5t56 150.5h124q-21 -139 -76.5 -212t-155.5 -83q20 -59 25.5 -135.5t-7.5 -170.5q-21 -158 -87 -278t-172 -187.5t-251 -67.5zM485 106
q90 0 160.5 48t117.5 140t64 223q15 118 -2.5 211t-73.5 146.5t-157 53.5q-92 0 -163.5 -47.5t-117.5 -139.5t-64 -224q-16 -118 2 -210.5t75 -146.5t159 -54z" />
    <glyph glyph-name="Uhorn" unicode="&#x1af;" horiz-adv-x="1521" 
d="M607 -20q-171 0 -269.5 59.5t-131.5 177.5t-8 291l134 938h157l-138 -967q-18 -120 8 -200t93.5 -120t174.5 -40q161 0 260.5 89t125.5 271l137 967h151l-23 -164q43 2 72.5 19t49 58.5t33.5 115.5h124q-15 -105 -50.5 -172t-94.5 -97.5t-149 -26.5l-98 -693
q-23 -164 -90.5 -277t-183 -171t-284.5 -58z" />
    <glyph glyph-name="uhorn" unicode="&#x1b0;" horiz-adv-x="1213" 
d="M444 -20q-78 1 -143 23.5t-110.5 67t-65 111t-6.5 154.5l97 698h153l-97 -684q-16 -109 37 -176.5t180 -67.5q115 0 193 63.5t96 192.5l95 672h151l-17 -114q45 1 75.5 18.5t50.5 58.5t34 117h124q-15 -106 -50.5 -173.5t-96 -97.5t-151.5 -25l-115 -818h-122l12 196
q-28 -74 -76.5 -122t-112 -71.5t-135.5 -22.5z" />
    <glyph glyph-name="uni01D4" unicode="&#x1d4;" horiz-adv-x="1110" 
d="M444 -20q-78 1 -143 23.5t-110.5 67t-65 111t-7.5 154.5l98 698h152l-97 -684q-15 -109 37.5 -176.5t180.5 -67.5q114 0 192 63.5t96 192.5l95 672h151l-146 -1034h-121l11 196q-27 -74 -76 -122t-112.5 -71.5t-134.5 -22.5zM582 1154l-204 216h146l124 -131l152 131h152
l-259 -216h-111z" />
    <glyph glyph-name="uni01EA" unicode="&#x1ea;" horiz-adv-x="1388" 
d="M610 -335q-91 0 -130.5 42.5t-29.5 113.5q9 61 56.5 109t164.5 85l112 -13q-101 -43 -149.5 -81t-56.5 -89q-4 -37 14 -56.5t66 -19.5q47 0 84 12.5t56 22.5l-13 -87q-25 -14 -73 -26.5t-101 -12.5zM618 -20q-181 0 -298.5 86t-164 250.5t-12.5 400.5q35 240 129.5 407
t237.5 254.5t322 87.5q178 0 294.5 -87t163 -253.5t12.5 -405.5q-34 -237 -127.5 -402t-235.5 -251.5t-321 -86.5zM640 120q131 0 232 64t168 196.5t96 338.5q30 207 0.5 342t-112 200.5t-213.5 65.5q-196 0 -326 -149t-175 -459q-29 -205 1 -337.5t114 -197t215 -64.5z" />
    <glyph glyph-name="uni01EB" unicode="&#x1eb;" horiz-adv-x="1074" 
d="M407 -334q-91 0 -130.5 42.5t-29.5 114.5q9 61 56.5 109t164.5 85l112 -14q-101 -43 -149.5 -81t-56.5 -89q-4 -37 14 -56t66 -19q47 0 84 12t56 23l-13 -88q-25 -14 -73 -26.5t-101 -12.5zM466 -20q-133 0 -224 60.5t-129.5 179.5t-15.5 293q22 162 89 284t175 189.5
t251 67.5q133 0 222.5 -61.5t127.5 -182t14 -297.5q-21 -158 -87 -278t-172 -187.5t-251 -67.5zM485 106q90 0 160.5 48t117.5 140t64 223q15 118 -2.5 211t-73.5 146.5t-157 53.5q-92 0 -163.5 -47.5t-117.5 -139.5t-64 -224q-16 -118 2 -210.5t75 -146.5t159 -54z" />
    <glyph glyph-name="Aringacute" unicode="&#x1fa;" horiz-adv-x="1347" 
d="M1003 1910l-73 -136q51 -20 78 -69t18 -113q-13 -86 -75 -142t-142 -56q-79 0 -124 57.5t-33 144.5q9 72 61.5 124t119.5 62l48 128h122zM937 1589q7 48 -18 79t-68 31q-41 0 -76.5 -31t-42.5 -79q-6 -43 20.5 -77t67.5 -34q43 0 76.5 34t40.5 77zM21 0l700 1446h175
l284 -1446h-155l-79 412h-571l-200 -412h-154zM437 560h488l-137 730z" />
    <glyph glyph-name="aringacute" unicode="&#x1fb;" horiz-adv-x="1052" 
d="M803 1498l-73 -136q51 -20 78 -69t18 -113q-12 -86 -74.5 -142t-142.5 -56q-79 0 -124 57.5t-33 144.5q9 72 61.5 124t120.5 62l47 128h122zM737 1177q7 48 -18 79t-68 31q-41 0 -76.5 -31t-41.5 -79q-6 -43 20 -77t67 -34q43 0 76.5 34t40.5 77zM350 -20
q-95 0 -161.5 35.5t-97 101.5t-18.5 159q25 172 148 255t371 90l185 6l13 86q15 106 -41.5 164t-162.5 57q-87 0 -163 -47t-106 -140h-137q18 85 75.5 155t148 111t207.5 41q120 0 198 -41t110.5 -115.5t17.5 -177.5l-103 -720h-130l16 191q-76 -123 -171 -167t-199 -44z
M409 97q51 0 105.5 20t102 55t80 78t38.5 88l26 184l-152 -3q-122 -2 -203.5 -26t-126 -73.5t-56.5 -129.5q-12 -91 40 -142t146 -51z" />
    <glyph glyph-name="AEacute" unicode="&#x1fc;" horiz-adv-x="1813" 
d="M-73 0l963 1446h905l-20 -138h-648l-72 -509h591l-19 -137h-593l-74 -523h672l-20 -139h-844l61 418h-471l-277 -418h-154zM440 560h408l110 768zM1265 1567l233 291h182l-292 -291h-123z" />
    <glyph glyph-name="aeacute" unicode="&#x1fd;" horiz-adv-x="1747" 
d="M351 -20q-95 0 -162 35.5t-98 101.5t-18 159q25 172 148 255.5t373 89.5l187 6l12 86q14 106 -41.5 164t-161.5 57q-89 0 -163 -47t-104 -140h-137q17 85 73.5 155t146.5 111t207 41q128 0 208.5 -53t101.5 -147q65 96 159.5 148t211.5 52q136 0 221 -61.5t117.5 -175.5
t9.5 -272l-9 -64h-708q-15 -104 4.5 -189t79 -136t160.5 -51q99 0 177 49.5t109 140.5h144q-33 -104 -103 -174t-160 -105.5t-183 -35.5q-139 0 -234 69t-129 197q-29 -81 -96 -141t-156.5 -92.5t-186.5 -32.5zM411 97q90 0 162 44t117.5 108.5t54.5 125.5l21 147l-156 -3
q-122 -2 -204 -26t-126.5 -73.5t-55.5 -129.5q-13 -91 39.5 -142t147.5 -51zM941 592h561q14 96 -5 173t-73.5 122t-148.5 45q-98 0 -168.5 -50.5t-112.5 -128.5t-53 -161zM892 1155l233 291h182l-292 -291h-123z" />
    <glyph glyph-name="Oslashacute" unicode="&#x1fe;" horiz-adv-x="1410" 
d="M71 -26l-75 88l188 191q-36 89 -44.5 205.5t11.5 258.5q34 240 128.5 407t237.5 254.5t321 87.5q127 0 222.5 -44t157.5 -129l176 178l75 -87l-192 -196q36 -89 44.5 -207t-12.5 -261q-33 -237 -126.5 -402t-236 -251.5t-321.5 -86.5q-127 0 -222.5 43t-156.5 126z
M648 119q188 0 303.5 134t159.5 413q19 110 21.5 204.5t-11.5 176.5l-752 -781q80 -147 279 -147zM339 396l753 781q-38 77 -106.5 114t-167.5 37q-189 0 -308 -139.5t-165 -424.5q-16 -108 -18 -199.5t12 -168.5zM772 1567l233 291h182l-292 -291h-123z" />
    <glyph glyph-name="oslashacute" unicode="&#x1ff;" horiz-adv-x="1040" 
d="M43 -10l-69 73l1008 978l69 -73zM413 -20q-132 0 -223 60.5t-130 179.5t-15 293q22 162 88.5 284t174.5 189.5t252 67.5q133 0 222.5 -61.5t127.5 -182t14 -297.5q-22 -158 -87.5 -278t-171.5 -187.5t-252 -67.5zM433 106q90 0 160.5 48t117 140t63.5 223
q16 118 -1.5 211t-73.5 146.5t-157 53.5q-92 0 -163.5 -47.5t-118 -139.5t-64.5 -224q-15 -118 2.5 -210.5t75 -146.5t159.5 -54zM451 1155l233 291h182l-292 -291h-123z" />
    <glyph glyph-name="uni0200" unicode="&#x200;" horiz-adv-x="1347" 
d="M21 0l700 1446h175l284 -1446h-155l-79 412h-571l-200 -412h-154zM437 560h488l-137 730zM623 1567l-232 291h167l183 -291h-118zM871 1567l-193 291h165l145 -291h-117z" />
    <glyph glyph-name="uni0201" unicode="&#x201;" horiz-adv-x="1125" 
d="M388 -20q-95 0 -161.5 35.5t-97 101.5t-18.5 159q25 172 148 255t371 90l185 6l13 86q15 106 -41.5 164t-162.5 57q-87 0 -163 -47t-106 -140h-137q18 85 75.5 155t148 111t207.5 41q120 0 198 -41t110.5 -115.5t17.5 -177.5l-103 -720h-130l16 191q-76 -123 -171 -167
t-199 -44zM447 97q51 0 105.5 20t102 55t80 78t38.5 88l26 184l-152 -3q-122 -2 -203.5 -26t-126 -73.5t-56.5 -129.5q-12 -91 40 -142t146 -51zM480 1155l-232 291h167l183 -291h-118zM728 1155l-193 291h165l145 -291h-117z" />
    <glyph glyph-name="uni0202" unicode="&#x202;" horiz-adv-x="1347" 
d="M21 0l700 1446h175l284 -1446h-155l-79 412h-571l-200 -412h-154zM437 560h488l-137 730zM543 1585q22 55 64 102t101.5 75.5t134.5 28.5q76 0 129 -30.5t83 -78t37 -97.5h-120q-15 35 -47 69t-96 34q-46 0 -78.5 -18t-54 -42t-34.5 -43h-119z" />
    <glyph glyph-name="uni0203" unicode="&#x203;" horiz-adv-x="1086" 
d="M350 -20q-95 0 -161.5 35.5t-97 101.5t-18.5 159q25 172 148 255t371 90l185 6l13 86q15 106 -41.5 164t-162.5 57q-87 0 -163 -47t-106 -140h-137q18 85 75.5 155t148 111t207.5 41q120 0 198 -41t110.5 -115.5t17.5 -177.5l-103 -720h-130l16 191q-76 -123 -171 -167
t-199 -44zM409 97q51 0 105.5 20t102 55t80 78t38.5 88l26 184l-152 -3q-122 -2 -203.5 -26t-126 -73.5t-56.5 -129.5q-12 -91 40 -142t146 -51zM343 1173q22 55 64 102t101.5 75.5t134.5 28.5q76 0 129 -30.5t83 -78t37 -97.5h-120q-15 35 -47 69t-96 34q-46 0 -78.5 -18
t-54 -42t-34.5 -43h-119z" />
    <glyph glyph-name="uni0204" unicode="&#x204;" horiz-adv-x="1188" 
d="M126 0l208 1446h838l-21 -140h-687l-72 -506h623l-19 -140h-624l-74 -516l708 -1l-22 -143h-858zM548 1567l-232 291h167l183 -291h-118zM796 1567l-193 291h165l145 -291h-117z" />
    <glyph glyph-name="uni0205" unicode="&#x205;" horiz-adv-x="1078" 
d="M484 -20q-135 0 -228 62.5t-133.5 180.5t-16.5 284q24 165 93.5 288.5t178 191t248.5 67.5q135 0 220 -61.5t117.5 -175.5t9.5 -272l-9 -64h-708q-15 -104 5 -189t79 -136t160 -51q99 0 177 49.5t109 140.5h144q-33 -104 -103 -174t-160 -105.5t-183 -35.5zM272 592h561
q15 96 -4 173t-74 122t-148 45q-99 0 -169.5 -50.5t-112 -128.5t-53.5 -161zM438 1155l-232 291h167l183 -291h-118zM686 1155l-193 291h165l145 -291h-117z" />
    <glyph glyph-name="uni0206" unicode="&#x206;" horiz-adv-x="1188" 
d="M126 0l208 1446h838l-21 -140h-687l-72 -506h623l-19 -140h-624l-74 -516l708 -1l-22 -143h-858zM469 1585q22 55 64 102t101.5 75.5t134.5 28.5q76 0 129 -30.5t83 -78t37 -97.5h-120q-15 35 -47 69t-96 34q-46 0 -78.5 -18t-54 -42t-34.5 -43h-119z" />
    <glyph glyph-name="uni0207" unicode="&#x207;" horiz-adv-x="1078" 
d="M484 -20q-135 0 -228 62.5t-133.5 180.5t-16.5 284q24 165 93.5 288.5t178 191t248.5 67.5q135 0 220 -61.5t117.5 -175.5t9.5 -272l-9 -64h-708q-15 -104 5 -189t79 -136t160 -51q99 0 177 49.5t109 140.5h144q-33 -104 -103 -174t-160 -105.5t-183 -35.5zM272 592h561
q15 96 -4 173t-74 122t-148 45q-99 0 -169.5 -50.5t-112 -128.5t-53.5 -161zM358 1173q22 55 64 102t101.5 75.5t134.5 28.5q76 0 129 -30.5t83 -78t37 -97.5h-120q-15 35 -47 69t-96 34q-46 0 -78.5 -18t-54 -42t-34.5 -43h-119z" />
    <glyph glyph-name="uni0208" unicode="&#x208;" horiz-adv-x="554" 
d="M127 0l207 1446h151l-206 -1446h-152zM225 1567l-232 291h167l183 -291h-118zM473 1567l-193 291h165l145 -291h-117z" />
    <glyph glyph-name="uni0209" unicode="&#x209;" horiz-adv-x="475" 
d="M88 0l148 1034h152l-149 -1034h-151zM127 1155l-232 291h167l183 -291h-118zM375 1155l-193 291h165l145 -291h-117z" />
    <glyph glyph-name="uni020A" unicode="&#x20a;" horiz-adv-x="554" 
d="M127 0l207 1446h151l-206 -1446h-152zM146 1585q22 55 64 102t101.5 75.5t134.5 28.5q76 0 129 -30.5t83 -78t37 -97.5h-120q-15 35 -47 69t-96 34q-46 0 -78.5 -18t-54 -42t-34.5 -43h-119z" />
    <glyph glyph-name="uni020B" unicode="&#x20b;" horiz-adv-x="475" 
d="M88 0l148 1034h152l-149 -1034h-151zM47 1173q22 55 64 102t101.5 75.5t134.5 28.5q76 0 129 -30.5t83 -78t37 -97.5h-120q-15 35 -47 69t-96 34q-46 0 -78.5 -18t-54 -42t-34.5 -43h-119z" />
    <glyph glyph-name="uni020C" unicode="&#x20c;" horiz-adv-x="1388" 
d="M618 -20q-181 0 -298.5 86t-164 250.5t-12.5 400.5q35 240 129.5 407t237.5 254.5t322 87.5q178 0 294.5 -87t163 -253.5t12.5 -405.5q-34 -237 -127.5 -402t-235.5 -251.5t-321 -86.5zM640 120q131 0 232 64t168 196.5t96 338.5q30 207 0.5 342t-112 200.5t-213.5 65.5
q-196 0 -326 -149t-175 -459q-29 -205 1 -337.5t114 -197t215 -64.5zM641 1567l-232 291h167l183 -291h-118zM889 1567l-193 291h165l145 -291h-117z" />
    <glyph glyph-name="uni020D" unicode="&#x20d;" horiz-adv-x="1074" 
d="M466 -20q-133 0 -224 60.5t-129.5 179.5t-15.5 293q22 162 89 284t175 189.5t251 67.5q133 0 222.5 -61.5t127.5 -182t14 -297.5q-21 -158 -87 -278t-172 -187.5t-251 -67.5zM485 106q90 0 160.5 48t117.5 140t64 223q15 118 -2.5 211t-73.5 146.5t-157 53.5
q-92 0 -163.5 -47.5t-117.5 -139.5t-64 -224q-16 -118 2 -210.5t75 -146.5t159 -54zM400 1155l-232 291h167l183 -291h-118zM648 1155l-193 291h165l145 -291h-117z" />
    <glyph glyph-name="uni020E" unicode="&#x20e;" horiz-adv-x="1388" 
d="M618 -20q-181 0 -298.5 86t-164 250.5t-12.5 400.5q35 240 129.5 407t237.5 254.5t322 87.5q178 0 294.5 -87t163 -253.5t12.5 -405.5q-34 -237 -127.5 -402t-235.5 -251.5t-321 -86.5zM640 120q131 0 232 64t168 196.5t96 338.5q30 207 0.5 342t-112 200.5t-213.5 65.5
q-196 0 -326 -149t-175 -459q-29 -205 1 -337.5t114 -197t215 -64.5zM561 1585q22 55 64 102t101.5 75.5t134.5 28.5q76 0 129 -30.5t83 -78t37 -97.5h-120q-15 35 -47 69t-96 34q-46 0 -78.5 -18t-54 -42t-34.5 -43h-119z" />
    <glyph glyph-name="uni020F" unicode="&#x20f;" horiz-adv-x="1074" 
d="M466 -20q-133 0 -224 60.5t-129.5 179.5t-15.5 293q22 162 89 284t175 189.5t251 67.5q133 0 222.5 -61.5t127.5 -182t14 -297.5q-21 -158 -87 -278t-172 -187.5t-251 -67.5zM485 106q90 0 160.5 48t117.5 140t64 223q15 118 -2.5 211t-73.5 146.5t-157 53.5
q-92 0 -163.5 -47.5t-117.5 -139.5t-64 -224q-16 -118 2 -210.5t75 -146.5t159 -54zM321 1173q22 55 64 102t101.5 75.5t134.5 28.5q76 0 129 -30.5t83 -78t37 -97.5h-120q-15 35 -47 69t-96 34q-46 0 -78.5 -18t-54 -42t-34.5 -43h-119z" />
    <glyph glyph-name="uni0210" unicode="&#x210;" horiz-adv-x="1288" 
d="M126 0l208 1446h514q143 0 234 -45.5t128 -131.5t20 -208q-17 -118 -69 -196.5t-120.5 -125t-137.5 -69.5l174 -670h-160l-163 641h-385l-92 -641h-151zM388 775h307q108 0 188 29.5t128 90.5t61 155q19 135 -48.5 199.5t-206.5 64.5h-352zM576 1567l-232 291h167
l183 -291h-118zM824 1567l-193 291h165l145 -291h-117z" />
    <glyph glyph-name="uni0211" unicode="&#x211;" horiz-adv-x="741" 
d="M87 0l146 1034h144l-26 -187q35 73 85.5 118.5t110 67t117.5 21.5q24 0 46 -3.5t34 -11.5l-21 -152q-15 8 -39.5 11t-40.5 3q-69 4 -135.5 -17.5t-114 -75t-60.5 -144.5l-94 -664h-152zM253 1155l-232 291h167l183 -291h-118zM501 1155l-193 291h165l145 -291h-117z" />
    <glyph glyph-name="uni0212" unicode="&#x212;" horiz-adv-x="1288" 
d="M126 0l208 1446h514q143 0 234 -45.5t128 -131.5t20 -208q-17 -118 -69 -196.5t-120.5 -125t-137.5 -69.5l174 -670h-160l-163 641h-385l-92 -641h-151zM388 775h307q108 0 188 29.5t128 90.5t61 155q19 135 -48.5 199.5t-206.5 64.5h-352zM455 1585q22 55 64 102
t101.5 75.5t134.5 28.5q76 0 129 -30.5t83 -78t37 -97.5h-120q-15 35 -47 69t-96 34q-46 0 -78.5 -18t-54 -42t-34.5 -43h-119z" />
    <glyph glyph-name="uni0213" unicode="&#x213;" horiz-adv-x="741" 
d="M87 0l146 1034h144l-26 -187q35 73 85.5 118.5t110 67t117.5 21.5q24 0 46 -3.5t34 -11.5l-21 -152q-15 8 -39.5 11t-40.5 3q-69 4 -135.5 -17.5t-114 -75t-60.5 -144.5l-94 -664h-152zM173 1173q22 55 64 102t101.5 75.5t134.5 28.5q76 0 129 -30.5t83 -78t37 -97.5
h-120q-15 35 -47 69t-96 34q-46 0 -78.5 -18t-54 -42t-34.5 -43h-119z" />
    <glyph glyph-name="uni0214" unicode="&#x214;" horiz-adv-x="1331" 
d="M607 -20q-171 0 -269.5 59.5t-131.5 177.5t-8 291l134 938h157l-138 -967q-18 -120 8 -200t93.5 -120t174.5 -40q161 0 260.5 89t125.5 271l137 967h151l-136 -960q-23 -164 -90.5 -277t-183 -171t-284.5 -58zM633 1567l-232 291h167l183 -291h-118zM881 1567l-193 291
h165l145 -291h-117z" />
    <glyph glyph-name="uni0215" unicode="&#x215;" horiz-adv-x="1110" 
d="M444 -20q-78 1 -143 23.5t-110.5 67t-65 111t-7.5 154.5l98 698h152l-97 -684q-15 -109 37.5 -176.5t180.5 -67.5q114 0 192 63.5t96 192.5l95 672h151l-146 -1034h-121l11 196q-27 -74 -76 -122t-112.5 -71.5t-134.5 -22.5zM434 1155l-232 291h167l183 -291h-118z
M682 1155l-193 291h165l145 -291h-117z" />
    <glyph glyph-name="uni0216" unicode="&#x216;" horiz-adv-x="1331" 
d="M607 -20q-171 0 -269.5 59.5t-131.5 177.5t-8 291l134 938h157l-138 -967q-18 -120 8 -200t93.5 -120t174.5 -40q161 0 260.5 89t125.5 271l137 967h151l-136 -960q-23 -164 -90.5 -277t-183 -171t-284.5 -58zM553 1585q22 55 64 102t101.5 75.5t134.5 28.5
q76 0 129 -30.5t83 -78t37 -97.5h-120q-15 35 -47 69t-96 34q-46 0 -78.5 -18t-54 -42t-34.5 -43h-119z" />
    <glyph glyph-name="uni0217" unicode="&#x217;" horiz-adv-x="1110" 
d="M444 -20q-78 1 -143 23.5t-110.5 67t-65 111t-7.5 154.5l98 698h152l-97 -684q-15 -109 37.5 -176.5t180.5 -67.5q114 0 192 63.5t96 192.5l95 672h151l-146 -1034h-121l11 196q-27 -74 -76 -122t-112.5 -71.5t-134.5 -22.5zM355 1173q22 55 64 102t101.5 75.5
t134.5 28.5q76 0 129 -30.5t83 -78t37 -97.5h-120q-15 35 -47 69t-96 34q-46 0 -78.5 -18t-54 -42t-34.5 -43h-119z" />
    <glyph glyph-name="uni0218" unicode="&#x218;" horiz-adv-x="1291" 
d="M579 -20q-96 0 -181.5 25t-151.5 74.5t-103.5 123.5t-37.5 173h161q7 -87 52 -145.5t117.5 -88t161.5 -29.5q102 0 185 31t136 88t63 133q9 69 -11.5 120t-69 85.5t-124.5 54.5l-265 70q-147 36 -220 123.5t-54 230.5q16 122 90 215.5t190 146.5t256 53
q156 0 256.5 -60.5t146 -155.5t34.5 -198h-160q5 104 -35 165t-109 87t-152 26q-78 0 -155 -29.5t-132 -88.5t-67 -148q-11 -82 35.5 -133.5t180.5 -89.5l256 -69q95 -23 151.5 -66t84 -98.5t33 -116.5t-2.5 -121q-14 -107 -85 -195t-191.5 -140.5t-282.5 -52.5zM404 -364
l91 118l-54 3l20 145h163l-18 -122l-136 -144h-66z" />
    <glyph glyph-name="uni0219" unicode="&#x219;" horiz-adv-x="961" 
d="M423 -20q-102 0 -183 33.5t-127 103t-45 177.5h141q3 -62 32.5 -105t80 -65.5t118.5 -22.5q103 0 172 42.5t82 130.5q8 61 -19 98t-92 54l-201 57q-111 31 -170.5 93.5t-44.5 174.5q12 89 61.5 157t136 107t207.5 39q154 0 239.5 -73t69.5 -218h-137q2 79 -46 125.5
t-143 46.5q-99 0 -166.5 -43t-79.5 -133q-9 -60 29 -93.5t116 -55.5l196 -57q62 -18 100.5 -47.5t58.5 -66t25 -77.5t-1 -79q-13 -93 -65 -161t-139 -105t-206 -37zM274 -364l91 118l-54 3l20 145h163l-18 -122l-136 -144h-66z" />
    <glyph glyph-name="uni021A" unicode="&#x21a;" horiz-adv-x="1117" 
d="M420 0l185 1301h-443l20 145h1013l-20 -145h-419l-186 -1301h-150zM350 -361l91 118l-54 3l20 145h163l-18 -122l-136 -144h-66z" />
    <glyph glyph-name="uni021B" unicode="&#x21b;" horiz-adv-x="737" 
d="M427 -4q-95 0 -143.5 28t-61.5 83t-2 138l96 672h-158l18 117h160l72 298h120l-42 -297h221l-18 -118h-221l-94 -660q-12 -89 14 -113t94 -24h100l-16 -108q-18 -7 -54 -11.5t-85 -4.5zM216 -359l91 118l-54 3l20 145h163l-18 -122l-136 -144h-66z" />
    <glyph glyph-name="uni0237" unicode="&#x237;" horiz-adv-x="488" 
d="M-47 -332q-81 0 -100.5 6.5t-18.5 15.5l15 104l102 4q68 5 100.5 38t43.5 111l156 1087h150l-156 -1095q-20 -138 -85 -204.5t-207 -66.5z" />
    <glyph glyph-name="uni0259" unicode="&#x259;" horiz-adv-x="1078" 
d="M452 -20q-134 0 -219.5 62t-118 176t-9.5 271l9 65h708q16 103 -4 188.5t-79 136t-161 50.5q-99 0 -176.5 -49t-109.5 -141h-144q33 105 103 175t160 105t183 35q135 0 228.5 -62.5t133.5 -180.5t16 -284q-24 -165 -93 -288t-177.5 -191t-249.5 -68zM471 103
q99 0 170 50.5t112.5 128.5t52.5 160h-561q-14 -96 4.5 -173t73.5 -121.5t148 -44.5z" />
    <glyph glyph-name="uni02BB" unicode="&#x2bb;" horiz-adv-x="410" 
d="M169 1010l27 178q7 54 31.5 100.5t58.5 79.5t72.5 49t73.5 8l-10 -66l-14 -1q-36 -2 -70 -42.5t-40 -88.5l-3 -12l105 -4l-29 -201h-202z" />
    <glyph glyph-name="uni02BC" unicode="&#x2bc;" horiz-adv-x="457" 
d="M170 1013l19 65l14 1q34 2 71.5 42.5t51.5 89.5l4 11l-99 5l57 201h192l-51 -178q-15 -54 -44.5 -100.5t-67 -80t-76 -49.5t-71.5 -7z" />
    <glyph glyph-name="circumflex" unicode="&#x2c6;" horiz-adv-x="588" 
d="M98 1155l253 215h110l209 -215h-153l-120 127l-155 -127h-144z" />
    <glyph glyph-name="caron" unicode="&#x2c7;" horiz-adv-x="595" 
d="M332 1154l-204 216h146l124 -131l152 131h152l-259 -216h-111z" />
    <glyph glyph-name="breve" unicode="&#x2d8;" horiz-adv-x="583" 
d="M378 1155q-75 0 -126.5 29t-80.5 75.5t-34 101.5h118q8 -19 22.5 -43t42 -41.5t74.5 -17.5q63 0 104.5 34.5t66.5 67.5h120q-21 -50 -64 -97t-104.5 -78t-138.5 -31z" />
    <glyph glyph-name="dotaccent" unicode="&#x2d9;" horiz-adv-x="177" 
d="M119 1283l23 163h155l-23 -163h-155z" />
    <glyph glyph-name="ring" unicode="&#x2da;" horiz-adv-x="434" 
d="M303 1153q-79 0 -126 59.5t-34 147.5q7 54 39.5 98.5t80 71t99.5 26.5q80 0 127.5 -58t34.5 -142q-7 -58 -39.5 -103.5t-80 -72.5t-101.5 -27zM315 1244q43 0 77 33.5t41 77.5q6 48 -18.5 78.5t-68.5 30.5q-40 0 -75 -30.5t-42 -78.5q-7 -44 19 -77.5t67 -33.5z" />
    <glyph glyph-name="ogonek" unicode="&#x2db;" horiz-adv-x="404" 
d="M87 -331q-91 0 -130.5 42.5t-29.5 114.5q9 61 56.5 109t165.5 85l111 -14q-101 -43 -149.5 -81t-56.5 -89q-4 -37 14.5 -56t66.5 -19q46 0 83 12t57 23l-14 -88q-25 -14 -72.5 -26.5t-101.5 -12.5z" />
    <glyph glyph-name="tilde" unicode="&#x2dc;" horiz-adv-x="619" 
d="M165 1230l-18 89q36 32 73 52.5t89 20.5q44 0 81 -13.5t73.5 -27t77.5 -13.5t72 15.5t61 36.5l16 -102q-26 -18 -66.5 -36.5t-98.5 -18.5q-49 0 -83.5 12.5t-66.5 25.5t-73 13q-47 0 -77 -16.5t-60 -37.5z" />
    <glyph glyph-name="hungarumlaut" unicode="&#x2dd;" horiz-adv-x="577" 
d="M348 1155l183 291h167l-232 -291h-118zM101 1155l145 291h165l-193 -291h-117z" />
    <glyph glyph-name="gravecomb" unicode="&#x300;" 
d="M441 1155l-240 291h175l180 -291h-115z" />
    <glyph glyph-name="acutecomb" unicode="&#x301;" 
d="M100 1155l233 291h182l-292 -291h-123z" />
    <glyph glyph-name="uni0302" unicode="&#x302;" 
d="M98 1155l253 215h110l209 -215h-153l-120 127l-155 -127h-144z" />
    <glyph glyph-name="tildecomb" unicode="&#x303;" 
d="M165 1230l-18 89q36 32 73 52.5t89 20.5q44 0 81 -13.5t73.5 -27t77.5 -13.5t72 15.5t61 36.5l16 -102q-26 -18 -66.5 -36.5t-98.5 -18.5q-49 0 -83.5 12.5t-66.5 25.5t-73 13q-47 0 -77 -16.5t-60 -37.5z" />
    <glyph glyph-name="uni0304" unicode="&#x304;" 
d="M129 1243l17 115h538l-17 -115h-538z" />
    <glyph glyph-name="uni0306" unicode="&#x306;" 
d="M378 1155q-75 0 -126.5 29t-80.5 75.5t-34 101.5h118q8 -19 22.5 -43t42 -41.5t74.5 -17.5q63 0 104.5 34.5t66.5 67.5h120q-21 -50 -64 -97t-104.5 -78t-138.5 -31z" />
    <glyph glyph-name="uni0307" unicode="&#x307;" 
d="M119 1283l23 163h155l-23 -163h-155z" />
    <glyph glyph-name="uni0308" unicode="&#x308;" 
d="M423 1283l23 163h156l-23 -163h-156zM115 1283l23 163h156l-23 -163h-156z" />
    <glyph glyph-name="hookabovecomb" unicode="&#x309;" 
d="M742 1151l-37 77q45 28 67 65t8 71t-54.5 32.5t-84.5 -28.5l-36 78q86 53 158.5 43.5t101.5 -71.5q35 -73 0.5 -144t-123.5 -123z" />
    <glyph glyph-name="uni030A" unicode="&#x30a;" 
d="M303 1153q-79 0 -126 59.5t-34 147.5q7 54 39.5 98.5t80 71t99.5 26.5q80 0 127.5 -58t34.5 -142q-7 -58 -39.5 -103.5t-80 -72.5t-101.5 -27zM315 1244q43 0 77 33.5t41 77.5q6 48 -18.5 78.5t-68.5 30.5q-40 0 -75 -30.5t-42 -78.5q-7 -44 19 -77.5t67 -33.5z" />
    <glyph glyph-name="uni030B" unicode="&#x30b;" 
d="M348 1155l183 291h167l-232 -291h-118zM101 1155l145 291h165l-193 -291h-117z" />
    <glyph glyph-name="uni030C" unicode="&#x30c;" 
d="M332 1154l-204 216h146l124 -131l152 131h152l-259 -216h-111z" />
    <glyph glyph-name="uni030F" unicode="&#x30f;" 
d="M373 1155l-232 291h167l183 -291h-118zM621 1155l-193 291h165l145 -291h-117z" />
    <glyph glyph-name="uni0311" unicode="&#x311;" 
d="M98 1173q22 55 64 102t101.5 75.5t134.5 28.5q76 0 129 -30.5t83 -78t37 -97.5h-120q-15 35 -47 69t-96 34q-46 0 -78.5 -18t-54 -42t-34.5 -43h-119z" />
    <glyph glyph-name="uni0312" unicode="&#x312;" 
d="M545 1155l25 182l105 139h80l-103 -149h65l-25 -172h-147z" />
    <glyph glyph-name="uni031B" unicode="&#x31b;" 
d="M62 955l15 106q42 -1 72 4.5t51 25t36.5 57t27.5 100.5h129q-17 -112 -56 -181t-106 -96.5t-169 -15.5z" />
    <glyph glyph-name="dotbelowcomb" unicode="&#x323;" 
d="M-111 -348l23 163h155l-23 -163h-155z" />
    <glyph glyph-name="uni0326" unicode="&#x326;" 
d="M-125 -364l91 118l-54 3l20 145h163l-18 -122l-136 -144h-66z" />
    <glyph glyph-name="uni0327" unicode="&#x327;" 
d="M61 -408q-49 0 -89.5 12t-73.5 37l38 72q20 -19 47.5 -32.5t70.5 -13.5q53 0 80.5 20t32.5 56q7 44 -25 65.5t-109 23.5q-9 0 -11.5 3t2.5 9l91 166h86l-63 -121q62 -4 94 -26t42.5 -54t6.5 -65q-8 -50 -40 -83.5t-79.5 -51t-100.5 -17.5z" />
    <glyph glyph-name="uni0328" unicode="&#x328;" 
d="M87 -331q-91 0 -130.5 42.5t-29.5 114.5q9 61 56.5 109t165.5 85l111 -14q-101 -43 -149.5 -81t-56.5 -89q-4 -37 14.5 -56t66.5 -19q46 0 83 12t57 23l-14 -88q-25 -14 -72.5 -26.5t-101.5 -12.5z" />
    <glyph glyph-name="pi" unicode="&#x3c0;" horiz-adv-x="1317" 
d="M184 0q25 83 48.5 186.5t43 221t31.5 241.5t15 248q0 20 -16 20h-187l9 117h1194l-9 -117h-235l-27 -917h-152l26 917h-455q-2 -130 -15.5 -262.5t-33.5 -255t-44.5 -225.5t-51.5 -174h-141z" />
    <glyph glyph-name="uni1E0C" unicode="&#x1e0c;" horiz-adv-x="1322" 
d="M128 0l204 1446q5 0 69 -0.5t142 -0.5q134 -1 244 -18.5t195.5 -56t144 -101t89 -154t30.5 -214.5q0 -111 -17 -220t-55 -210t-101.5 -186.5t-156.5 -149t-218.5 -99.5t-289.5 -36h-280zM304 138h114q180 0 307.5 56.5t207.5 158t117.5 239t37.5 300.5q0 157 -57.5 248
t-166 129.5t-263.5 38.5h-130zM382 -348l23 163h155l-23 -163h-155z" />
    <glyph glyph-name="uni1E0D" unicode="&#x1e0d;" horiz-adv-x="1142" 
d="M438 -20q-189 0 -282 136.5t-58 404.5q32 241 152 387t320 146q74 0 127.5 -20.5t89 -51.5t56 -63t28.5 -55l83 622h153l-198 -1486h-118l12 212q-11 -27 -36.5 -66t-68.5 -77t-107 -63.5t-153 -25.5zM479 104q158 0 238 100.5t110 326.5q15 125 -2 214t-73 136.5
t-160 47.5q-128 0 -220 -96t-119 -302q-26 -200 30 -313.5t196 -113.5zM349 -348l23 163h155l-23 -163h-155z" />
    <glyph glyph-name="uni1E24" unicode="&#x1e24;" horiz-adv-x="1470" 
d="M127 0l203 1446h151l-88 -626h770l87 626h151l-203 -1446h-151l95 679h-769l-95 -679h-151zM539 -348l23 163h155l-23 -163h-155z" />
    <glyph glyph-name="uni1E25" unicode="&#x1e25;" horiz-adv-x="1114" 
d="M99 0l201 1486h148l-81 -599q45 66 129 114t202 48q96 0 168 -38t108 -106t23 -157l-100 -748h-152l96 714q14 96 -42 150.5t-158 54.5q-71 0 -135 -24.5t-107.5 -72.5t-53.5 -121l-95 -701h-151zM384 -348l23 163h155l-23 -163h-155z" />
    <glyph glyph-name="uni1E44" unicode="&#x1e44;" horiz-adv-x="1435" 
d="M126 0l208 1446h141l575 -1169l166 1169h152l-209 -1446h-133l-580 1180l-169 -1180h-151zM809 1695l23 163h155l-23 -163h-155z" />
    <glyph glyph-name="uni1E45" unicode="&#x1e45;" horiz-adv-x="1100" 
d="M88 0l148 1034h144l-18 -146q32 45 79.5 81.5t110.5 58.5t141 22q95 0 166 -42t104.5 -125t15.5 -206l-97 -677h-151l96 664q18 124 -35 189.5t-154 65.5q-71 0 -135.5 -24t-109 -72t-54.5 -121l-101 -702h-150zM606 1283l23 163h155l-23 -163h-155z" />
    <glyph glyph-name="uni1E5A" unicode="&#x1e5a;" horiz-adv-x="1288" 
d="M126 0l208 1446h514q143 0 234 -45.5t128 -131.5t20 -208q-17 -118 -69 -196.5t-120.5 -125t-137.5 -69.5l174 -670h-160l-163 641h-385l-92 -641h-151zM388 775h307q108 0 188 29.5t128 90.5t61 155q19 135 -48.5 199.5t-206.5 64.5h-352zM443 -348l23 163h155l-23 -163
h-155z" />
    <glyph glyph-name="uni1E5B" unicode="&#x1e5b;" horiz-adv-x="741" 
d="M87 0l146 1034h144l-26 -187q35 73 85.5 118.5t110 67t117.5 21.5q24 0 46 -3.5t34 -11.5l-21 -152q-15 8 -39.5 11t-40.5 3q-69 4 -135.5 -17.5t-114 -75t-60.5 -144.5l-94 -664h-152zM28 -348l23 163h155l-23 -163h-155z" />
    <glyph glyph-name="uni1E62" unicode="&#x1e62;" horiz-adv-x="1291" 
d="M579 -20q-96 0 -181.5 25t-151.5 74.5t-103.5 123.5t-37.5 173h161q7 -87 52 -145.5t117.5 -88t161.5 -29.5q102 0 185 31t136 88t63 133q9 69 -11.5 120t-69 85.5t-124.5 54.5l-265 70q-147 36 -220 123.5t-54 230.5q16 122 90 215.5t190 146.5t256 53
q156 0 256.5 -60.5t146 -155.5t34.5 -198h-160q5 104 -35 165t-109 87t-152 26q-78 0 -155 -29.5t-132 -88.5t-67 -148q-11 -82 35.5 -133.5t180.5 -89.5l256 -69q95 -23 151.5 -66t84 -98.5t33 -116.5t-2.5 -121q-14 -107 -85 -195t-191.5 -140.5t-282.5 -52.5zM431 -348
l23 163h155l-23 -163h-155z" />
    <glyph glyph-name="uni1E63" unicode="&#x1e63;" horiz-adv-x="961" 
d="M423 -20q-102 0 -183 33.5t-127 103t-45 177.5h141q3 -62 32.5 -105t80 -65.5t118.5 -22.5q103 0 172 42.5t82 130.5q8 61 -19 98t-92 54l-201 57q-111 31 -170.5 93.5t-44.5 174.5q12 89 61.5 157t136 107t207.5 39q154 0 239.5 -73t69.5 -218h-137q2 79 -46 125.5
t-143 46.5q-99 0 -166.5 -43t-79.5 -133q-9 -60 29 -93.5t116 -55.5l196 -57q62 -18 100.5 -47.5t58.5 -66t25 -77.5t-1 -79q-13 -93 -65 -161t-139 -105t-206 -37zM300 -348l23 163h155l-23 -163h-155z" />
    <glyph glyph-name="uni1E6C" unicode="&#x1e6c;" horiz-adv-x="1117" 
d="M420 0l185 1301h-443l20 145h1013l-20 -145h-419l-186 -1301h-150zM376 -345l23 163h155l-23 -163h-155z" />
    <glyph glyph-name="uni1E6D" unicode="&#x1e6d;" horiz-adv-x="737" 
d="M427 -4q-95 0 -143.5 28t-61.5 83t-2 138l96 672h-158l18 117h160l72 298h120l-42 -297h221l-18 -118h-221l-94 -660q-12 -89 14 -113t94 -24h100l-16 -108q-18 -7 -54 -11.5t-85 -4.5zM243 -343l23 163h155l-23 -163h-155z" />
    <glyph glyph-name="Wgrave" unicode="&#x1e80;" horiz-adv-x="1795" 
d="M363 0l-181 1446h155l139 -1205l490 1205h121l146 -1205l490 1205h152l-602 -1446h-147l-141 1169l-479 -1169h-143zM990 1567l-240 291h175l180 -291h-115z" />
    <glyph glyph-name="wgrave" unicode="&#x1e81;" horiz-adv-x="1468" 
d="M280 0l-148 1034h142l111 -836h17l348 836h116l120 -834h16l340 834h141l-436 -1034h-159l-116 801l-332 -801h-160zM777 1155l-240 291h175l180 -291h-115z" />
    <glyph glyph-name="Wacute" unicode="&#x1e82;" horiz-adv-x="1795" 
d="M363 0l-181 1446h155l139 -1205l490 1205h121l146 -1205l490 1205h152l-602 -1446h-147l-141 1169l-479 -1169h-143zM965 1567l233 291h182l-292 -291h-123z" />
    <glyph glyph-name="wacute" unicode="&#x1e83;" horiz-adv-x="1468" 
d="M280 0l-148 1034h142l111 -836h17l348 836h116l120 -834h16l340 834h141l-436 -1034h-159l-116 801l-332 -801h-160zM752 1155l233 291h182l-292 -291h-123z" />
    <glyph glyph-name="Wdieresis" unicode="&#x1e84;" horiz-adv-x="1795" 
d="M363 0l-181 1446h155l139 -1205l490 1205h121l146 -1205l490 1205h152l-602 -1446h-147l-141 1169l-479 -1169h-143zM1139 1695l23 163h156l-23 -163h-156zM831 1695l23 163h156l-23 -163h-156z" />
    <glyph glyph-name="wdieresis" unicode="&#x1e85;" horiz-adv-x="1468" 
d="M280 0l-148 1034h142l111 -836h17l348 836h116l120 -834h16l340 834h141l-436 -1034h-159l-116 801l-332 -801h-160zM926 1283l23 163h156l-23 -163h-156zM618 1283l23 163h156l-23 -163h-156z" />
    <glyph glyph-name="uni1E92" unicode="&#x1e92;" horiz-adv-x="1203" 
d="M60 0l14 91l928 1217h-726l20 138h937l-12 -87l-937 -1219h760l-22 -140h-962zM434 -348l23 163h155l-23 -163h-155z" />
    <glyph glyph-name="uni1E93" unicode="&#x1e93;" horiz-adv-x="913" 
d="M9 0l13 103l682 814h-527l16 117h707l-13 -102l-681 -814h571l-17 -118h-751zM245 -348l23 163h155l-23 -163h-155z" />
    <glyph glyph-name="uni1EA0" unicode="&#x1ea0;" horiz-adv-x="1347" 
d="M21 0l700 1446h175l284 -1446h-155l-79 412h-571l-200 -412h-154zM437 560h488l-137 730zM474 -348l23 163h155l-23 -163h-155z" />
    <glyph glyph-name="uni1EA1" unicode="&#x1ea1;" horiz-adv-x="1086" 
d="M350 -20q-95 0 -161.5 35.5t-97 101.5t-18.5 159q25 172 148 255t371 90l185 6l13 86q15 106 -41.5 164t-162.5 57q-87 0 -163 -47t-106 -140h-137q18 85 75.5 155t148 111t207.5 41q120 0 198 -41t110.5 -115.5t17.5 -177.5l-103 -720h-130l16 191q-76 -123 -171 -167
t-199 -44zM409 97q51 0 105.5 20t102 55t80 78t38.5 88l26 184l-152 -3q-122 -2 -203.5 -26t-126 -73.5t-56.5 -129.5q-12 -91 40 -142t146 -51zM328 -348l23 163h155l-23 -163h-155z" />
    <glyph glyph-name="uni1EA2" unicode="&#x1ea2;" horiz-adv-x="1347" 
d="M21 0l700 1446h175l284 -1446h-155l-79 412h-571l-200 -412h-154zM437 560h488l-137 730zM880 1544l-37 77q45 28 67 65t8 71t-54.5 32.5t-84.5 -28.5l-36 78q86 53 158.5 43.5t101.5 -71.5q35 -73 0.5 -144t-123.5 -123z" />
    <glyph glyph-name="uni1EA3" unicode="&#x1ea3;" horiz-adv-x="1086" 
d="M350 -20q-95 0 -161.5 35.5t-97 101.5t-18.5 159q25 172 148 255t371 90l185 6l13 86q15 106 -41.5 164t-162.5 57q-87 0 -163 -47t-106 -140h-137q18 85 75.5 155t148 111t207.5 41q120 0 198 -41t110.5 -115.5t17.5 -177.5l-103 -720h-130l16 191q-76 -123 -171 -167
t-199 -44zM409 97q51 0 105.5 20t102 55t80 78t38.5 88l26 184l-152 -3q-122 -2 -203.5 -26t-126 -73.5t-56.5 -129.5q-12 -91 40 -142t146 -51zM680 1132l-37 77q45 28 67 65t8 71t-54.5 32.5t-84.5 -28.5l-36 78q86 53 158.5 43.5t101.5 -71.5q35 -73 0.5 -144
t-123.5 -123z" />
    <glyph glyph-name="uni1EA4" unicode="&#x1ea4;" horiz-adv-x="1347" 
d="M21 0l700 1446h175l284 -1446h-155l-79 412h-571l-200 -412h-154zM437 560h488l-137 730zM548 1567l253 215h110l209 -215h-153l-120 127l-155 -127h-144zM1020 1760l117 217h160l-174 -217h-103z" />
    <glyph glyph-name="uni1EA5" unicode="&#x1ea5;" horiz-adv-x="1061" 
d="M350 -20q-95 0 -161.5 35.5t-97 101.5t-18.5 159q25 172 148 255t371 90l185 6l13 86q15 106 -41.5 164t-162.5 57q-87 0 -163 -47t-106 -140h-137q18 85 75.5 155t148 111t207.5 41q120 0 198 -41t110.5 -115.5t17.5 -177.5l-103 -720h-130l16 191q-76 -123 -171 -167
t-199 -44zM409 97q51 0 105.5 20t102 55t80 78t38.5 88l26 184l-152 -3q-122 -2 -203.5 -26t-126 -73.5t-56.5 -129.5q-12 -91 40 -142t146 -51zM353 1155l253 215h110l209 -215h-153l-120 127l-155 -127h-144zM825 1348l117 217h160l-174 -217h-103z" />
    <glyph glyph-name="uni1EA6" unicode="&#x1ea6;" horiz-adv-x="1347" 
d="M21 0l700 1446h175l284 -1446h-155l-79 412h-571l-200 -412h-154zM437 560h488l-137 730zM543 1567l253 215h110l209 -215h-153l-120 127l-155 -127h-144zM1077 1757l-141 217h155l87 -217h-101z" />
    <glyph glyph-name="uni1EA7" unicode="&#x1ea7;" horiz-adv-x="1078" 
d="M350 -20q-95 0 -161.5 35.5t-97 101.5t-18.5 159q25 172 148 255t371 90l185 6l13 86q15 106 -41.5 164t-162.5 57q-87 0 -163 -47t-106 -140h-137q18 85 75.5 155t148 111t207.5 41q120 0 198 -41t110.5 -115.5t17.5 -177.5l-103 -720h-130l16 191q-76 -123 -171 -167
t-199 -44zM409 97q51 0 105.5 20t102 55t80 78t38.5 88l26 184l-152 -3q-122 -2 -203.5 -26t-126 -73.5t-56.5 -129.5q-12 -91 40 -142t146 -51zM343 1155l253 215h110l209 -215h-153l-120 127l-155 -127h-144zM877 1345l-141 217h155l87 -217h-101z" />
    <glyph glyph-name="uni1EA8" unicode="&#x1ea8;" horiz-adv-x="1347" 
d="M21 0l700 1446h175l284 -1446h-155l-79 412h-571l-200 -412h-154zM437 560h488l-137 730zM528 1567l253 215h110l209 -215h-153l-120 127l-155 -127h-144zM1034 1688l-36 78q45 28 67 65t8 71q-15 33 -55 32t-84 -29l-37 78q87 53 159 43.5t101 -70.5q35 -73 0.5 -144
t-123.5 -124z" />
    <glyph glyph-name="uni1EA9" unicode="&#x1ea9;" horiz-adv-x="1085" 
d="M350 -20q-95 0 -161.5 35.5t-97 101.5t-18.5 159q25 172 148 255t371 90l185 6l13 86q15 106 -41.5 164t-162.5 57q-87 0 -163 -47t-106 -140h-137q18 85 75.5 155t148 111t207.5 41q120 0 198 -41t110.5 -115.5t17.5 -177.5l-103 -720h-130l16 191q-76 -123 -171 -167
t-199 -44zM409 97q51 0 105.5 20t102 55t80 78t38.5 88l26 184l-152 -3q-122 -2 -203.5 -26t-126 -73.5t-56.5 -129.5q-12 -91 40 -142t146 -51zM334 1155l253 215h110l209 -215h-153l-120 127l-155 -127h-144zM840 1276l-36 78q45 28 67 65t8 71q-15 33 -55 32t-84 -29
l-37 78q87 53 159 43.5t101 -70.5q35 -73 0.5 -144t-123.5 -124z" />
    <glyph glyph-name="uni1EAA" unicode="&#x1eaa;" horiz-adv-x="1347" 
d="M21 0l700 1446h175l284 -1446h-155l-79 412h-571l-200 -412h-154zM437 560h488l-137 730zM548 1567l254 215h109l210 -215h-154l-119 127l-156 -127h-144zM622 1892l-17 89q35 32 72 52.5t89 20.5q45 0 82 -13.5t73 -27t78 -13.5q40 0 71 15.5t61 36.5l16 -102
q-26 -18 -66.5 -36.5t-98.5 -18.5q-49 0 -83 12.5t-66 25.5t-74 13q-46 0 -76 -16.5t-61 -37.5z" />
    <glyph glyph-name="uni1EAB" unicode="&#x1eab;" horiz-adv-x="1086" 
d="M350 -20q-95 0 -161.5 35.5t-97 101.5t-18.5 159q25 172 148 255t371 90l185 6l13 86q15 106 -41.5 164t-162.5 57q-87 0 -163 -47t-106 -140h-137q18 85 75.5 155t148 111t207.5 41q120 0 198 -41t110.5 -115.5t17.5 -177.5l-103 -720h-130l16 191q-76 -123 -171 -167
t-199 -44zM409 97q51 0 105.5 20t102 55t80 78t38.5 88l26 184l-152 -3q-122 -2 -203.5 -26t-126 -73.5t-56.5 -129.5q-12 -91 40 -142t146 -51zM348 1155l254 215h109l210 -215h-154l-119 127l-156 -127h-144zM422 1480l-17 89q35 32 72 52.5t89 20.5q45 0 82 -13.5t73 -27
t78 -13.5q40 0 71 15.5t61 36.5l16 -102q-26 -18 -66.5 -36.5t-98.5 -18.5q-49 0 -83 12.5t-66 25.5t-74 13q-46 0 -76 -16.5t-61 -37.5z" />
    <glyph glyph-name="uni1EAC" unicode="&#x1eac;" horiz-adv-x="1347" 
d="M21 0l700 1446h175l284 -1446h-155l-79 412h-571l-200 -412h-154zM437 560h488l-137 730zM474 -348l23 163h155l-23 -163h-155zM540 1567l253 215h110l209 -215h-153l-120 127l-155 -127h-144z" />
    <glyph glyph-name="uni1EAD" unicode="&#x1ead;" horiz-adv-x="1086" 
d="M350 -20q-95 0 -161.5 35.5t-97 101.5t-18.5 159q25 172 148 255t371 90l185 6l13 86q15 106 -41.5 164t-162.5 57q-87 0 -163 -47t-106 -140h-137q18 85 75.5 155t148 111t207.5 41q120 0 198 -41t110.5 -115.5t17.5 -177.5l-103 -720h-130l16 191q-76 -123 -171 -167
t-199 -44zM409 97q51 0 105.5 20t102 55t80 78t38.5 88l26 184l-152 -3q-122 -2 -203.5 -26t-126 -73.5t-56.5 -129.5q-12 -91 40 -142t146 -51zM328 -348l23 163h155l-23 -163h-155zM340 1155l253 215h110l209 -215h-153l-120 127l-155 -127h-144z" />
    <glyph glyph-name="uni1EAE" unicode="&#x1eae;" horiz-adv-x="1347" 
d="M21 0l700 1446h175l284 -1446h-155l-79 412h-571l-200 -412h-154zM437 560h488l-137 730zM856 1567q-75 0 -126.5 29t-80.5 75.5t-34 101.5h118q8 -19 22.5 -43t42 -41.5t74.5 -17.5q63 0 104.5 34.5t66.5 67.5h120q-21 -50 -64 -97t-104.5 -78t-138.5 -31zM831 1809
l117 217h160l-174 -217h-103z" />
    <glyph glyph-name="uni1EAF" unicode="&#x1eaf;" horiz-adv-x="1086" 
d="M350 -20q-95 0 -161.5 35.5t-97 101.5t-18.5 159q25 172 148 255t371 90l185 6l13 86q15 106 -41.5 164t-162.5 57q-87 0 -163 -47t-106 -140h-137q18 85 75.5 155t148 111t207.5 41q120 0 198 -41t110.5 -115.5t17.5 -177.5l-103 -720h-130l16 191q-76 -123 -171 -167
t-199 -44zM409 97q51 0 105.5 20t102 55t80 78t38.5 88l26 184l-152 -3q-122 -2 -203.5 -26t-126 -73.5t-56.5 -129.5q-12 -91 40 -142t146 -51zM657 1155q-75 0 -126.5 29t-80.5 75.5t-34 101.5h118q8 -19 22.5 -43t42 -41.5t74.5 -17.5q63 0 104.5 34.5t66.5 67.5h120
q-21 -50 -64 -97t-104.5 -78t-138.5 -31zM632 1397l117 217h160l-174 -217h-103z" />
    <glyph glyph-name="uni1EB0" unicode="&#x1eb0;" horiz-adv-x="1347" 
d="M21 0l700 1446h175l284 -1446h-155l-79 412h-571l-200 -412h-154zM437 560h488l-137 730zM852 1567q-75 0 -126.5 29t-80.5 75.5t-34 101.5h118q8 -19 22.5 -43t42 -41.5t74.5 -17.5q63 0 104.5 34.5t66.5 67.5h120q-21 -50 -64 -97t-104.5 -78t-138.5 -31zM842 1810
l-141 217h155l86 -217h-100z" />
    <glyph glyph-name="uni1EB1" unicode="&#x1eb1;" horiz-adv-x="1086" 
d="M350 -20q-95 0 -161.5 35.5t-97 101.5t-18.5 159q25 172 148 255t371 90l185 6l13 86q15 106 -41.5 164t-162.5 57q-87 0 -163 -47t-106 -140h-137q18 85 75.5 155t148 111t207.5 41q120 0 198 -41t110.5 -115.5t17.5 -177.5l-103 -720h-130l16 191q-76 -123 -171 -167
t-199 -44zM409 97q51 0 105.5 20t102 55t80 78t38.5 88l26 184l-152 -3q-122 -2 -203.5 -26t-126 -73.5t-56.5 -129.5q-12 -91 40 -142t146 -51zM652 1155q-75 0 -126.5 29t-80.5 75.5t-34 101.5h118q8 -19 22.5 -43t42 -41.5t74.5 -17.5q63 0 104.5 34.5t66.5 67.5h120
q-21 -50 -64 -97t-104.5 -78t-138.5 -31zM642 1398l-141 217h155l86 -217h-100z" />
    <glyph glyph-name="uni1EB2" unicode="&#x1eb2;" horiz-adv-x="1347" 
d="M21 0l700 1446h175l284 -1446h-155l-79 412h-571l-200 -412h-154zM437 560h488l-137 730zM816 1567q-75 0 -126.5 29t-80.5 75.5t-34 101.5h118q8 -19 22.5 -43t42 -41.5t74.5 -17.5q63 0 104.5 34.5t66.5 67.5h120q-21 -50 -64 -97t-104.5 -78t-138.5 -31zM845 1741
l-37 77q45 28 67 65t8 71t-54.5 32.5t-84.5 -28.5l-36 78q73 44 138 44q88 0 122 -72q35 -73 0.5 -144t-123.5 -123z" />
    <glyph glyph-name="uni1EB3" unicode="&#x1eb3;" horiz-adv-x="1086" 
d="M350 -20q-95 0 -161.5 35.5t-97 101.5t-18.5 159q25 172 148 255t371 90l185 6l13 86q15 106 -41.5 164t-162.5 57q-87 0 -163 -47t-106 -140h-137q18 85 75.5 155t148 111t207.5 41q120 0 198 -41t110.5 -115.5t17.5 -177.5l-103 -720h-130l16 191q-76 -123 -171 -167
t-199 -44zM409 97q51 0 105.5 20t102 55t80 78t38.5 88l26 184l-152 -3q-122 -2 -203.5 -26t-126 -73.5t-56.5 -129.5q-12 -91 40 -142t146 -51zM627 1155q-75 0 -126.5 29t-80.5 75.5t-34 101.5h118q8 -19 22.5 -43t42 -41.5t74.5 -17.5q63 0 104.5 34.5t66.5 67.5h120
q-21 -50 -64 -97t-104.5 -78t-138.5 -31zM656 1329l-37 77q45 28 67 65t8 71t-54.5 32.5t-84.5 -28.5l-36 78q73 44 138 44q88 0 122 -72q35 -73 0.5 -144t-123.5 -123z" />
    <glyph glyph-name="uni1EB4" unicode="&#x1eb4;" horiz-adv-x="1347" 
d="M21 0l700 1446h175l284 -1446h-155l-79 412h-571l-200 -412h-154zM437 560h488l-137 730zM849 1567q-75 0 -126.5 29t-80.5 75.5t-34 101.5h118q8 -19 22.5 -43t42 -41.5t74.5 -17.5q63 0 104.5 34.5t66.5 67.5h120q-21 -50 -64 -97t-104.5 -78t-138.5 -31zM623 1898
l-17 89q35 32 72 52.5t89 20.5q45 0 82 -13.5t73 -27t78 -13.5q40 0 71 15.5t61 36.5l16 -102q-26 -18 -66.5 -36.5t-98.5 -18.5q-49 0 -83 12.5t-66 25.5t-74 13q-46 0 -76 -16.5t-61 -37.5z" />
    <glyph glyph-name="uni1EB5" unicode="&#x1eb5;" horiz-adv-x="1086" 
d="M350 -20q-95 0 -161.5 35.5t-97 101.5t-18.5 159q25 172 148 255t371 90l185 6l13 86q15 106 -41.5 164t-162.5 57q-87 0 -163 -47t-106 -140h-137q18 85 75.5 155t148 111t207.5 41q120 0 198 -41t110.5 -115.5t17.5 -177.5l-103 -720h-130l16 191q-76 -123 -171 -167
t-199 -44zM409 97q51 0 105.5 20t102 55t80 78t38.5 88l26 184l-152 -3q-122 -2 -203.5 -26t-126 -73.5t-56.5 -129.5q-12 -91 40 -142t146 -51zM646 1155q-75 0 -126.5 29t-80.5 75.5t-34 101.5h118q8 -19 22.5 -43t42 -41.5t74.5 -17.5q63 0 104.5 34.5t66.5 67.5h120
q-21 -50 -64 -97t-104.5 -78t-138.5 -31zM420 1486l-17 89q35 32 72 52.5t89 20.5q45 0 82 -13.5t73 -27t78 -13.5q40 0 71 15.5t61 36.5l16 -102q-26 -18 -66.5 -36.5t-98.5 -18.5q-49 0 -83 12.5t-66 25.5t-74 13q-46 0 -76 -16.5t-61 -37.5z" />
    <glyph glyph-name="uni1EB6" unicode="&#x1eb6;" horiz-adv-x="1347" 
d="M21 0l700 1446h175l284 -1446h-155l-79 412h-571l-200 -412h-154zM437 560h488l-137 730zM474 -348l23 163h155l-23 -163h-155zM822 1567q-75 0 -126.5 29t-80.5 75.5t-34 101.5h118q8 -19 22.5 -43t42 -41.5t74.5 -17.5q63 0 104.5 34.5t66.5 67.5h120q-21 -50 -64 -97
t-104.5 -78t-138.5 -31z" />
    <glyph glyph-name="uni1EB7" unicode="&#x1eb7;" horiz-adv-x="1052" 
d="M350 -20q-95 0 -161.5 35.5t-97 101.5t-18.5 159q25 172 148 255t371 90l185 6l13 86q15 106 -41.5 164t-162.5 57q-87 0 -163 -47t-106 -140h-137q18 85 75.5 155t148 111t207.5 41q120 0 198 -41t110.5 -115.5t17.5 -177.5l-103 -720h-130l16 191q-76 -123 -171 -167
t-199 -44zM409 97q51 0 105.5 20t102 55t80 78t38.5 88l26 184l-152 -3q-122 -2 -203.5 -26t-126 -73.5t-56.5 -129.5q-12 -91 40 -142t146 -51zM328 -348l23 163h155l-23 -163h-155zM621 1152q-75 0 -126.5 29t-80.5 75.5t-34 101.5h118q8 -19 22.5 -43t42 -41.5
t74.5 -17.5q63 0 104.5 34.5t66.5 67.5h120q-21 -50 -64 -97t-104.5 -78t-138.5 -31z" />
    <glyph glyph-name="uni1EB8" unicode="&#x1eb8;" horiz-adv-x="1188" 
d="M126 0l208 1446h838l-21 -140h-687l-72 -506h623l-19 -140h-624l-74 -516l708 -1l-22 -143h-858zM435 -348l23 163h155l-23 -163h-155z" />
    <glyph glyph-name="uni1EB9" unicode="&#x1eb9;" horiz-adv-x="1078" 
d="M484 -20q-135 0 -228 62.5t-133.5 180.5t-16.5 284q24 165 93.5 288.5t178 191t248.5 67.5q135 0 220 -61.5t117.5 -175.5t9.5 -272l-9 -64h-708q-15 -104 5 -189t79 -136t160 -51q99 0 177 49.5t109 140.5h144q-33 -104 -103 -174t-160 -105.5t-183 -35.5zM272 592h561
q15 96 -4 173t-74 122t-148 45q-99 0 -169.5 -50.5t-112 -128.5t-53.5 -161zM357 -348l23 163h155l-23 -163h-155z" />
    <glyph glyph-name="uni1EBA" unicode="&#x1eba;" horiz-adv-x="1188" 
d="M126 0l208 1446h838l-21 -140h-687l-72 -506h623l-19 -140h-624l-74 -516l708 -1l-22 -143h-858zM805 1544l-37 77q45 28 67 65t8 71t-54.5 32.5t-84.5 -28.5l-36 78q86 53 158.5 43.5t101.5 -71.5q35 -73 0.5 -144t-123.5 -123z" />
    <glyph glyph-name="uni1EBB" unicode="&#x1ebb;" horiz-adv-x="1078" 
d="M484 -20q-135 0 -228 62.5t-133.5 180.5t-16.5 284q24 165 93.5 288.5t178 191t248.5 67.5q135 0 220 -61.5t117.5 -175.5t9.5 -272l-9 -64h-708q-15 -104 5 -189t79 -136t160 -51q99 0 177 49.5t109 140.5h144q-33 -104 -103 -174t-160 -105.5t-183 -35.5zM272 592h561
q15 96 -4 173t-74 122t-148 45q-99 0 -169.5 -50.5t-112 -128.5t-53.5 -161zM695 1132l-37 77q45 28 67 65t8 71t-54.5 32.5t-84.5 -28.5l-36 78q86 53 158.5 43.5t101.5 -71.5q35 -73 0.5 -144t-123.5 -123z" />
    <glyph glyph-name="uni1EBC" unicode="&#x1ebc;" horiz-adv-x="1188" 
d="M126 0l208 1446h838l-21 -140h-687l-72 -506h623l-19 -140h-624l-74 -516l708 -1l-22 -143h-858zM522 1642l-18 89q36 32 73 52.5t89 20.5q44 0 81 -13.5t73.5 -27t77.5 -13.5t72 15.5t61 36.5l16 -102q-26 -18 -66.5 -36.5t-98.5 -18.5q-49 0 -83.5 12.5t-66.5 25.5
t-73 13q-47 0 -77 -16.5t-60 -37.5z" />
    <glyph glyph-name="uni1EBD" unicode="&#x1ebd;" horiz-adv-x="1078" 
d="M484 -20q-135 0 -228 62.5t-133.5 180.5t-16.5 284q24 165 93.5 288.5t178 191t248.5 67.5q135 0 220 -61.5t117.5 -175.5t9.5 -272l-9 -64h-708q-15 -104 5 -189t79 -136t160 -51q99 0 177 49.5t109 140.5h144q-33 -104 -103 -174t-160 -105.5t-183 -35.5zM272 592h561
q15 96 -4 173t-74 122t-148 45q-99 0 -169.5 -50.5t-112 -128.5t-53.5 -161zM412 1230l-18 89q36 32 73 52.5t89 20.5q44 0 81 -13.5t73.5 -27t77.5 -13.5t72 15.5t61 36.5l16 -102q-26 -18 -66.5 -36.5t-98.5 -18.5q-49 0 -83.5 12.5t-66.5 25.5t-73 13q-47 0 -77 -16.5
t-60 -37.5z" />
    <glyph glyph-name="uni1EBE" unicode="&#x1ebe;" horiz-adv-x="1188" 
d="M126 0l208 1446h838l-21 -140h-687l-72 -506h623l-19 -140h-624l-74 -516l708 -1l-22 -143h-858zM473 1567l253 215h110l209 -215h-153l-120 127l-155 -127h-144zM945 1760l117 217h160l-174 -217h-103z" />
    <glyph glyph-name="uni1EBF" unicode="&#x1ebf;" horiz-adv-x="1078" 
d="M484 -20q-135 0 -228 62.5t-133.5 180.5t-16.5 284q24 165 93.5 288.5t178 191t248.5 67.5q135 0 220 -61.5t117.5 -175.5t9.5 -272l-9 -64h-708q-15 -104 5 -189t79 -136t160 -51q99 0 177 49.5t109 140.5h144q-33 -104 -103 -174t-160 -105.5t-183 -35.5zM272 592h561
q15 96 -4 173t-74 122t-148 45q-99 0 -169.5 -50.5t-112 -128.5t-53.5 -161zM363 1155l253 215h110l209 -215h-153l-120 127l-155 -127h-144zM835 1348l117 217h160l-174 -217h-103z" />
    <glyph glyph-name="uni1EC0" unicode="&#x1ec0;" horiz-adv-x="1188" 
d="M126 0l208 1446h838l-21 -140h-687l-72 -506h623l-19 -140h-624l-74 -516l708 -1l-22 -143h-858zM469 1567l253 215h110l209 -215h-153l-120 127l-155 -127h-144zM1003 1757l-141 217h155l87 -217h-101z" />
    <glyph glyph-name="uni1EC1" unicode="&#x1ec1;" horiz-adv-x="1067" 
d="M484 -20q-135 0 -228 62.5t-133.5 180.5t-16.5 284q24 165 93.5 288.5t178 191t248.5 67.5q135 0 220 -61.5t117.5 -175.5t9.5 -272l-9 -64h-708q-15 -104 5 -189t79 -136t160 -51q99 0 177 49.5t109 140.5h144q-33 -104 -103 -174t-160 -105.5t-183 -35.5zM272 592h561
q15 96 -4 173t-74 122t-148 45q-99 0 -169.5 -50.5t-112 -128.5t-53.5 -161zM352 1155l253 215h110l209 -215h-153l-120 127l-155 -127h-144zM886 1345l-141 217h155l87 -217h-101z" />
    <glyph glyph-name="uni1EC2" unicode="&#x1ec2;" horiz-adv-x="1188" 
d="M126 0l208 1446h838l-21 -140h-687l-72 -506h623l-19 -140h-624l-74 -516l708 -1l-22 -143h-858zM454 1567l253 215h110l209 -215h-153l-120 127l-155 -127h-144zM960 1688l-36 78q45 28 67 65t8 71q-15 33 -55 32t-84 -29l-37 78q87 53 159 43.5t101 -70.5
q35 -73 0.5 -144t-123.5 -124z" />
    <glyph glyph-name="uni1EC3" unicode="&#x1ec3;" horiz-adv-x="1078" 
d="M484 -20q-135 0 -228 62.5t-133.5 180.5t-16.5 284q24 165 93.5 288.5t178 191t248.5 67.5q135 0 220 -61.5t117.5 -175.5t9.5 -272l-9 -64h-708q-15 -104 5 -189t79 -136t160 -51q99 0 177 49.5t109 140.5h144q-33 -104 -103 -174t-160 -105.5t-183 -35.5zM272 592h561
q15 96 -4 173t-74 122t-148 45q-99 0 -169.5 -50.5t-112 -128.5t-53.5 -161zM343 1155l253 215h110l209 -215h-153l-120 127l-155 -127h-144zM849 1276l-36 78q45 28 67 65t8 71q-15 33 -55 32t-84 -29l-37 78q87 53 159 43.5t101 -70.5q35 -73 0.5 -144t-123.5 -124z" />
    <glyph glyph-name="uni1EC4" unicode="&#x1ec4;" horiz-adv-x="1188" 
d="M126 0l208 1446h838l-21 -140h-687l-72 -506h623l-19 -140h-624l-74 -516l708 -1l-22 -143h-858zM474 1567l254 215h109l210 -215h-154l-119 127l-156 -127h-144zM548 1892l-17 89q35 32 72 52.5t89 20.5q45 0 82 -13.5t73 -27t78 -13.5q40 0 71 15.5t61 36.5l16 -102
q-26 -18 -66.5 -36.5t-98.5 -18.5q-49 0 -83 12.5t-66 25.5t-74 13q-46 0 -76 -16.5t-61 -37.5z" />
    <glyph glyph-name="uni1EC5" unicode="&#x1ec5;" horiz-adv-x="1078" 
d="M484 -20q-135 0 -228 62.5t-133.5 180.5t-16.5 284q24 165 93.5 288.5t178 191t248.5 67.5q135 0 220 -61.5t117.5 -175.5t9.5 -272l-9 -64h-708q-15 -104 5 -189t79 -136t160 -51q99 0 177 49.5t109 140.5h144q-33 -104 -103 -174t-160 -105.5t-183 -35.5zM272 592h561
q15 96 -4 173t-74 122t-148 45q-99 0 -169.5 -50.5t-112 -128.5t-53.5 -161zM363 1155l254 215h109l210 -215h-154l-119 127l-156 -127h-144zM437 1480l-17 89q35 32 72 52.5t89 20.5q45 0 82 -13.5t73 -27t78 -13.5q40 0 71 15.5t61 36.5l16 -102q-26 -18 -66.5 -36.5
t-98.5 -18.5q-49 0 -83 12.5t-66 25.5t-74 13q-46 0 -76 -16.5t-61 -37.5z" />
    <glyph glyph-name="uni1EC6" unicode="&#x1ec6;" horiz-adv-x="1188" 
d="M126 0l208 1446h838l-21 -140h-687l-72 -506h623l-19 -140h-624l-74 -516l708 -1l-22 -143h-858zM435 -348l23 163h155l-23 -163h-155zM465 1567l253 215h110l209 -215h-153l-120 127l-155 -127h-144z" />
    <glyph glyph-name="uni1EC7" unicode="&#x1ec7;" horiz-adv-x="1078" 
d="M484 -20q-135 0 -228 62.5t-133.5 180.5t-16.5 284q24 165 93.5 288.5t178 191t248.5 67.5q135 0 220 -61.5t117.5 -175.5t9.5 -272l-9 -64h-708q-15 -104 5 -189t79 -136t160 -51q99 0 177 49.5t109 140.5h144q-33 -104 -103 -174t-160 -105.5t-183 -35.5zM272 592h561
q15 96 -4 173t-74 122t-148 45q-99 0 -169.5 -50.5t-112 -128.5t-53.5 -161zM357 -348l23 163h155l-23 -163h-155zM355 1155l253 215h110l209 -215h-153l-120 127l-155 -127h-144z" />
    <glyph glyph-name="uni1EC8" unicode="&#x1ec8;" horiz-adv-x="554" 
d="M127 0l207 1446h151l-206 -1446h-152zM482 1544l-37 77q45 28 67 65t8 71t-54.5 32.5t-84.5 -28.5l-36 78q86 53 158.5 43.5t101.5 -71.5q35 -73 0.5 -144t-123.5 -123z" />
    <glyph glyph-name="uni1EC9" unicode="&#x1ec9;" horiz-adv-x="471" 
d="M88 0l148 1034h152l-149 -1034h-151zM385 1132l-37 77q45 28 67 65t8 71t-54.5 32.5t-84.5 -28.5l-36 78q86 53 158.5 43.5t101.5 -71.5q35 -73 0.5 -144t-123.5 -123z" />
    <glyph glyph-name="uni1ECA" unicode="&#x1eca;" horiz-adv-x="554" 
d="M127 0l207 1446h151l-206 -1446h-152zM83 -348l23 163h155l-23 -163h-155z" />
    <glyph glyph-name="uni1ECB" unicode="&#x1ecb;" horiz-adv-x="481" 
d="M93 0l146 1034h147l-145 -1034h-148zM268 1274l23 172h159l-24 -172h-158zM42 -348l23 163h155l-23 -163h-155z" />
    <glyph glyph-name="uni1ECC" unicode="&#x1ecc;" horiz-adv-x="1388" 
d="M618 -20q-181 0 -298.5 86t-164 250.5t-12.5 400.5q35 240 129.5 407t237.5 254.5t322 87.5q178 0 294.5 -87t163 -253.5t12.5 -405.5q-34 -237 -127.5 -402t-235.5 -251.5t-321 -86.5zM640 120q131 0 232 64t168 196.5t96 338.5q30 207 0.5 342t-112 200.5t-213.5 65.5
q-196 0 -326 -149t-175 -459q-29 -205 1 -337.5t114 -197t215 -64.5zM498 -348l23 163h155l-23 -163h-155z" />
    <glyph glyph-name="uni1ECD" unicode="&#x1ecd;" horiz-adv-x="1074" 
d="M466 -20q-133 0 -224 60.5t-129.5 179.5t-15.5 293q22 162 89 284t175 189.5t251 67.5q133 0 222.5 -61.5t127.5 -182t14 -297.5q-21 -158 -87 -278t-172 -187.5t-251 -67.5zM485 106q90 0 160.5 48t117.5 140t64 223q15 118 -2.5 211t-73.5 146.5t-157 53.5
q-92 0 -163.5 -47.5t-117.5 -139.5t-64 -224q-16 -118 2 -210.5t75 -146.5t159 -54zM318 -348l23 163h155l-23 -163h-155z" />
    <glyph glyph-name="uni1ECE" unicode="&#x1ece;" horiz-adv-x="1388" 
d="M618 -20q-181 0 -298.5 86t-164 250.5t-12.5 400.5q35 240 129.5 407t237.5 254.5t322 87.5q178 0 294.5 -87t163 -253.5t12.5 -405.5q-34 -237 -127.5 -402t-235.5 -251.5t-321 -86.5zM640 120q131 0 232 64t168 196.5t96 338.5q30 207 0.5 342t-112 200.5t-213.5 65.5
q-196 0 -326 -149t-175 -459q-29 -205 1 -337.5t114 -197t215 -64.5zM897 1544l-37 77q45 28 67 65t8 71t-54.5 32.5t-84.5 -28.5l-36 78q86 53 158.5 43.5t101.5 -71.5q35 -73 0.5 -144t-123.5 -123z" />
    <glyph glyph-name="uni1ECF" unicode="&#x1ecf;" horiz-adv-x="1074" 
d="M466 -20q-133 0 -224 60.5t-129.5 179.5t-15.5 293q22 162 89 284t175 189.5t251 67.5q133 0 222.5 -61.5t127.5 -182t14 -297.5q-21 -158 -87 -278t-172 -187.5t-251 -67.5zM485 106q90 0 160.5 48t117.5 140t64 223q15 118 -2.5 211t-73.5 146.5t-157 53.5
q-92 0 -163.5 -47.5t-117.5 -139.5t-64 -224q-16 -118 2 -210.5t75 -146.5t159 -54zM657 1132l-37 77q45 28 67 65t8 71t-54.5 32.5t-84.5 -28.5l-36 78q86 53 158.5 43.5t101.5 -71.5q35 -73 0.5 -144t-123.5 -123z" />
    <glyph glyph-name="uni1ED0" unicode="&#x1ed0;" horiz-adv-x="1388" 
d="M618 -20q-181 0 -298.5 86t-164 250.5t-12.5 400.5q35 240 129.5 407t237.5 254.5t322 87.5q178 0 294.5 -87t163 -253.5t12.5 -405.5q-34 -237 -127.5 -402t-235.5 -251.5t-321 -86.5zM640 120q131 0 232 64t168 196.5t96 338.5q30 207 0.5 342t-112 200.5t-213.5 65.5
q-196 0 -326 -149t-175 -459q-29 -205 1 -337.5t114 -197t215 -64.5zM565 1567l253 215h110l209 -215h-153l-120 127l-155 -127h-144zM1037 1760l117 217h160l-174 -217h-103z" />
    <glyph glyph-name="uni1ED1" unicode="&#x1ed1;" horiz-adv-x="1051" 
d="M466 -20q-133 0 -224 60.5t-129.5 179.5t-15.5 293q22 162 89 284t175 189.5t251 67.5q133 0 222.5 -61.5t127.5 -182t14 -297.5q-21 -158 -87 -278t-172 -187.5t-251 -67.5zM485 106q90 0 160.5 48t117.5 140t64 223q15 118 -2.5 211t-73.5 146.5t-157 53.5
q-92 0 -163.5 -47.5t-117.5 -139.5t-64 -224q-16 -118 2 -210.5t75 -146.5t159 -54zM320 1155l253 215h110l209 -215h-153l-120 127l-155 -127h-144zM792 1348l117 217h160l-174 -217h-103z" />
    <glyph glyph-name="uni1ED2" unicode="&#x1ed2;" horiz-adv-x="1388" 
d="M618 -20q-181 0 -298.5 86t-164 250.5t-12.5 400.5q35 240 129.5 407t237.5 254.5t322 87.5q178 0 294.5 -87t163 -253.5t12.5 -405.5q-34 -237 -127.5 -402t-235.5 -251.5t-321 -86.5zM640 120q131 0 232 64t168 196.5t96 338.5q30 207 0.5 342t-112 200.5t-213.5 65.5
q-196 0 -326 -149t-175 -459q-29 -205 1 -337.5t114 -197t215 -64.5zM561 1567l253 215h110l209 -215h-153l-120 127l-155 -127h-144zM1095 1757l-141 217h155l87 -217h-101z" />
    <glyph glyph-name="uni1ED3" unicode="&#x1ed3;" horiz-adv-x="1074" 
d="M466 -20q-133 0 -224 60.5t-129.5 179.5t-15.5 293q22 162 89 284t175 189.5t251 67.5q133 0 222.5 -61.5t127.5 -182t14 -297.5q-21 -158 -87 -278t-172 -187.5t-251 -67.5zM485 106q90 0 160.5 48t117.5 140t64 223q15 118 -2.5 211t-73.5 146.5t-157 53.5
q-92 0 -163.5 -47.5t-117.5 -139.5t-64 -224q-16 -118 2 -210.5t75 -146.5t159 -54zM320 1155l253 215h110l209 -215h-153l-120 127l-155 -127h-144zM854 1345l-141 217h155l87 -217h-101z" />
    <glyph glyph-name="uni1ED4" unicode="&#x1ed4;" horiz-adv-x="1388" 
d="M618 -20q-181 0 -298.5 86t-164 250.5t-12.5 400.5q35 240 129.5 407t237.5 254.5t322 87.5q178 0 294.5 -87t163 -253.5t12.5 -405.5q-34 -237 -127.5 -402t-235.5 -251.5t-321 -86.5zM640 120q131 0 232 64t168 196.5t96 338.5q30 207 0.5 342t-112 200.5t-213.5 65.5
q-196 0 -326 -149t-175 -459q-29 -205 1 -337.5t114 -197t215 -64.5zM546 1567l253 215h110l209 -215h-153l-120 127l-155 -127h-144zM1052 1688l-36 78q45 28 67 65t8 71q-15 33 -55 32t-84 -29l-37 78q87 53 159 43.5t101 -70.5q35 -73 0.5 -144t-123.5 -124z" />
    <glyph glyph-name="uni1ED5" unicode="&#x1ed5;" horiz-adv-x="1074" 
d="M466 -20q-133 0 -224 60.5t-129.5 179.5t-15.5 293q22 162 89 284t175 189.5t251 67.5q133 0 222.5 -61.5t127.5 -182t14 -297.5q-21 -158 -87 -278t-172 -187.5t-251 -67.5zM485 106q90 0 160.5 48t117.5 140t64 223q15 118 -2.5 211t-73.5 146.5t-157 53.5
q-92 0 -163.5 -47.5t-117.5 -139.5t-64 -224q-16 -118 2 -210.5t75 -146.5t159 -54zM305 1155l253 215h110l209 -215h-153l-120 127l-155 -127h-144zM811 1276l-36 78q45 28 67 65t8 71q-15 33 -55 32t-84 -29l-37 78q87 53 159 43.5t101 -70.5q35 -73 0.5 -144t-123.5 -124
z" />
    <glyph glyph-name="uni1ED6" unicode="&#x1ed6;" horiz-adv-x="1388" 
d="M618 -20q-181 0 -298.5 86t-164 250.5t-12.5 400.5q35 240 129.5 407t237.5 254.5t322 87.5q178 0 294.5 -87t163 -253.5t12.5 -405.5q-34 -237 -127.5 -402t-235.5 -251.5t-321 -86.5zM640 120q131 0 232 64t168 196.5t96 338.5q30 207 0.5 342t-112 200.5t-213.5 65.5
q-196 0 -326 -149t-175 -459q-29 -205 1 -337.5t114 -197t215 -64.5zM566 1567l254 215h109l210 -215h-154l-119 127l-156 -127h-144zM640 1892l-17 89q35 32 72 52.5t89 20.5q45 0 82 -13.5t73 -27t78 -13.5q40 0 71 15.5t61 36.5l16 -102q-26 -18 -66.5 -36.5t-98.5 -18.5
q-49 0 -83 12.5t-66 25.5t-74 13q-46 0 -76 -16.5t-61 -37.5z" />
    <glyph glyph-name="uni1ED7" unicode="&#x1ed7;" horiz-adv-x="1074" 
d="M466 -20q-133 0 -224 60.5t-129.5 179.5t-15.5 293q22 162 89 284t175 189.5t251 67.5q133 0 222.5 -61.5t127.5 -182t14 -297.5q-21 -158 -87 -278t-172 -187.5t-251 -67.5zM485 106q90 0 160.5 48t117.5 140t64 223q15 118 -2.5 211t-73.5 146.5t-157 53.5
q-92 0 -163.5 -47.5t-117.5 -139.5t-64 -224q-16 -118 2 -210.5t75 -146.5t159 -54zM325 1155l254 215h109l210 -215h-154l-119 127l-156 -127h-144zM399 1480l-17 89q35 32 72 52.5t89 20.5q45 0 82 -13.5t73 -27t78 -13.5q40 0 71 15.5t61 36.5l16 -102
q-26 -18 -66.5 -36.5t-98.5 -18.5q-49 0 -83 12.5t-66 25.5t-74 13q-46 0 -76 -16.5t-61 -37.5z" />
    <glyph glyph-name="uni1ED8" unicode="&#x1ed8;" horiz-adv-x="1388" 
d="M618 -20q-181 0 -298.5 86t-164 250.5t-12.5 400.5q35 240 129.5 407t237.5 254.5t322 87.5q178 0 294.5 -87t163 -253.5t12.5 -405.5q-34 -237 -127.5 -402t-235.5 -251.5t-321 -86.5zM640 120q131 0 232 64t168 196.5t96 338.5q30 207 0.5 342t-112 200.5t-213.5 65.5
q-196 0 -326 -149t-175 -459q-29 -205 1 -337.5t114 -197t215 -64.5zM498 -348l23 163h155l-23 -163h-155zM557 1567l253 215h110l209 -215h-153l-120 127l-155 -127h-144z" />
    <glyph glyph-name="uni1ED9" unicode="&#x1ed9;" horiz-adv-x="1074" 
d="M466 -20q-133 0 -224 60.5t-129.5 179.5t-15.5 293q22 162 89 284t175 189.5t251 67.5q133 0 222.5 -61.5t127.5 -182t14 -297.5q-21 -158 -87 -278t-172 -187.5t-251 -67.5zM485 106q90 0 160.5 48t117.5 140t64 223q15 118 -2.5 211t-73.5 146.5t-157 53.5
q-92 0 -163.5 -47.5t-117.5 -139.5t-64 -224q-16 -118 2 -210.5t75 -146.5t159 -54zM318 -348l23 163h155l-23 -163h-155zM317 1155l253 215h110l209 -215h-153l-120 127l-155 -127h-144z" />
    <glyph glyph-name="uni1EDA" unicode="&#x1eda;" horiz-adv-x="1497" 
d="M618 -20q-181 0 -298.5 86t-164 250.5t-12.5 400.5q35 240 129.5 407t237.5 254.5t322 87.5q131 0 228.5 -47t159.5 -137q52 -1 86.5 13.5t57 56.5t37.5 124h124q-14 -97 -45 -161.5t-82 -98t-126 -37.5q34 -88 42 -203t-12 -256q-34 -237 -127.5 -402t-235.5 -251.5
t-321 -86.5zM640 120q131 0 232 64t168 196.5t96 338.5q30 207 0.5 342t-112 200.5t-213.5 65.5q-196 0 -326 -149t-175 -459q-29 -205 1 -337.5t114 -197t215 -64.5zM763 1567l233 291h182l-292 -291h-123z" />
    <glyph glyph-name="uni1EDB" unicode="&#x1edb;" horiz-adv-x="1147" 
d="M561 1155l233 291h182l-292 -291h-123zM466 -20q-133 0 -224 60.5t-129.5 179.5t-15.5 293q22 162 89 284t175 189.5t251 67.5q98 0 173 -33.5t123 -99.5q66 2 102 42.5t56 150.5h124q-21 -139 -76.5 -212t-155.5 -83q20 -59 25.5 -135.5t-7.5 -170.5q-21 -158 -87 -278
t-172 -187.5t-251 -67.5zM485 106q90 0 160.5 48t117.5 140t64 223q15 118 -2.5 211t-73.5 146.5t-157 53.5q-92 0 -163.5 -47.5t-117.5 -139.5t-64 -224q-16 -118 2 -210.5t75 -146.5t159 -54z" />
    <glyph glyph-name="uni1EDC" unicode="&#x1edc;" horiz-adv-x="1497" 
d="M618 -20q-181 0 -298.5 86t-164 250.5t-12.5 400.5q35 240 129.5 407t237.5 254.5t322 87.5q131 0 228.5 -47t159.5 -137q52 -1 86.5 13.5t57 56.5t37.5 124h124q-14 -97 -45 -161.5t-82 -98t-126 -37.5q34 -88 42 -203t-12 -256q-34 -237 -127.5 -402t-235.5 -251.5
t-321 -86.5zM640 120q131 0 232 64t168 196.5t96 338.5q30 207 0.5 342t-112 200.5t-213.5 65.5q-196 0 -326 -149t-175 -459q-29 -205 1 -337.5t114 -197t215 -64.5zM789 1567l-240 291h175l180 -291h-115z" />
    <glyph glyph-name="uni1EDD" unicode="&#x1edd;" horiz-adv-x="1159" 
d="M575 1155l-240 291h175l180 -291h-115zM477 -20q-133 0 -224 60.5t-129.5 179.5t-15.5 293q22 162 89 284t175 189.5t251 67.5q98 0 173 -33.5t123 -99.5q66 2 102 42.5t56 150.5h124q-21 -139 -76.5 -212t-155.5 -83q20 -59 25.5 -135.5t-7.5 -170.5q-21 -158 -87 -278
t-172 -187.5t-251 -67.5zM496 106q90 0 160.5 48t117.5 140t64 223q15 118 -2.5 211t-73.5 146.5t-157 53.5q-92 0 -163.5 -47.5t-117.5 -139.5t-64 -224q-16 -118 2 -210.5t75 -146.5t159 -54z" />
    <glyph glyph-name="uni1EDE" unicode="&#x1ede;" horiz-adv-x="1497" 
d="M618 -20q-181 0 -298.5 86t-164 250.5t-12.5 400.5q35 240 129.5 407t237.5 254.5t322 87.5q131 0 228.5 -47t159.5 -137q52 -1 86.5 13.5t57 56.5t37.5 124h124q-14 -97 -45 -161.5t-82 -98t-126 -37.5q34 -88 42 -203t-12 -256q-34 -237 -127.5 -402t-235.5 -251.5
t-321 -86.5zM640 120q131 0 232 64t168 196.5t96 338.5q30 207 0.5 342t-112 200.5t-213.5 65.5q-196 0 -326 -149t-175 -459q-29 -205 1 -337.5t114 -197t215 -64.5zM897 1544l-37 77q45 28 67 65t8 71t-54.5 32.5t-84.5 -28.5l-36 78q86 53 158.5 43.5t101.5 -71.5
q35 -73 0.5 -144t-123.5 -123z" />
    <glyph glyph-name="uni1EDF" unicode="&#x1edf;" horiz-adv-x="1147" 
d="M679 1132l-37 77q45 28 67 65t8 71t-54.5 32.5t-84.5 -28.5l-36 78q86 53 158.5 43.5t101.5 -71.5q35 -73 0.5 -144t-123.5 -123zM466 -20q-133 0 -224 60.5t-129.5 179.5t-15.5 293q22 162 89 284t175 189.5t251 67.5q98 0 173 -33.5t123 -99.5q66 2 102 42.5t56 150.5
h124q-21 -139 -76.5 -212t-155.5 -83q20 -59 25.5 -135.5t-7.5 -170.5q-21 -158 -87 -278t-172 -187.5t-251 -67.5zM485 106q90 0 160.5 48t117.5 140t64 223q15 118 -2.5 211t-73.5 146.5t-157 53.5q-92 0 -163.5 -47.5t-117.5 -139.5t-64 -224q-16 -118 2 -210.5
t75 -146.5t159 -54z" />
    <glyph glyph-name="uni1EE0" unicode="&#x1ee0;" horiz-adv-x="1497" 
d="M618 -20q-181 0 -298.5 86t-164 250.5t-12.5 400.5q35 240 129.5 407t237.5 254.5t322 87.5q131 0 228.5 -47t159.5 -137q52 -1 86.5 13.5t57 56.5t37.5 124h124q-14 -97 -45 -161.5t-82 -98t-126 -37.5q34 -88 42 -203t-12 -256q-34 -237 -127.5 -402t-235.5 -251.5
t-321 -86.5zM640 120q131 0 232 64t168 196.5t96 338.5q30 207 0.5 342t-112 200.5t-213.5 65.5q-196 0 -326 -149t-175 -459q-29 -205 1 -337.5t114 -197t215 -64.5zM614 1642l-18 89q36 32 73 52.5t89 20.5q44 0 81 -13.5t73.5 -27t77.5 -13.5t72 15.5t61 36.5l16 -102
q-26 -18 -66.5 -36.5t-98.5 -18.5q-49 0 -83.5 12.5t-66.5 25.5t-73 13q-47 0 -77 -16.5t-60 -37.5z" />
    <glyph glyph-name="uni1EE1" unicode="&#x1ee1;" horiz-adv-x="1147" 
d="M397 1230l-18 89q36 32 73 52.5t89 20.5q44 0 81 -13.5t73.5 -27t77.5 -13.5t72 15.5t61 36.5l16 -102q-26 -18 -66.5 -36.5t-98.5 -18.5q-49 0 -83.5 12.5t-66.5 25.5t-73 13q-47 0 -77 -16.5t-60 -37.5zM466 -20q-133 0 -224 60.5t-129.5 179.5t-15.5 293
q22 162 89 284t175 189.5t251 67.5q98 0 173 -33.5t123 -99.5q66 2 102 42.5t56 150.5h124q-21 -139 -76.5 -212t-155.5 -83q20 -59 25.5 -135.5t-7.5 -170.5q-21 -158 -87 -278t-172 -187.5t-251 -67.5zM485 106q90 0 160.5 48t117.5 140t64 223q15 118 -2.5 211
t-73.5 146.5t-157 53.5q-92 0 -163.5 -47.5t-117.5 -139.5t-64 -224q-16 -118 2 -210.5t75 -146.5t159 -54z" />
    <glyph glyph-name="uni1EE2" unicode="&#x1ee2;" horiz-adv-x="1497" 
d="M618 -20q-181 0 -298.5 86t-164 250.5t-12.5 400.5q35 240 129.5 407t237.5 254.5t322 87.5q131 0 228.5 -47t159.5 -137q52 -1 86.5 13.5t57 56.5t37.5 124h124q-14 -97 -45 -161.5t-82 -98t-126 -37.5q34 -88 42 -203t-12 -256q-34 -237 -127.5 -402t-235.5 -251.5
t-321 -86.5zM640 120q131 0 232 64t168 196.5t96 338.5q30 207 0.5 342t-112 200.5t-213.5 65.5q-196 0 -326 -149t-175 -459q-29 -205 1 -337.5t114 -197t215 -64.5zM498 -348l23 163h155l-23 -163h-155z" />
    <glyph glyph-name="uni1EE3" unicode="&#x1ee3;" horiz-adv-x="1147" 
d="M325 -348l23 163h155l-23 -163h-155zM466 -20q-133 0 -224 60.5t-129.5 179.5t-15.5 293q22 162 89 284t175 189.5t251 67.5q98 0 173 -33.5t123 -99.5q66 2 102 42.5t56 150.5h124q-21 -139 -76.5 -212t-155.5 -83q20 -59 25.5 -135.5t-7.5 -170.5q-21 -158 -87 -278
t-172 -187.5t-251 -67.5zM485 106q90 0 160.5 48t117.5 140t64 223q15 118 -2.5 211t-73.5 146.5t-157 53.5q-92 0 -163.5 -47.5t-117.5 -139.5t-64 -224q-16 -118 2 -210.5t75 -146.5t159 -54z" />
    <glyph glyph-name="uni1EE4" unicode="&#x1ee4;" horiz-adv-x="1331" 
d="M607 -20q-171 0 -269.5 59.5t-131.5 177.5t-8 291l134 938h157l-138 -967q-18 -120 8 -200t93.5 -120t174.5 -40q161 0 260.5 89t125.5 271l137 967h151l-136 -960q-23 -164 -90.5 -277t-183 -171t-284.5 -58zM481 -345l23 163h155l-23 -163h-155z" />
    <glyph glyph-name="uni1EE5" unicode="&#x1ee5;" horiz-adv-x="1110" 
d="M444 -20q-78 1 -143 23.5t-110.5 67t-65 111t-7.5 154.5l98 698h152l-97 -684q-15 -109 37.5 -176.5t180.5 -67.5q114 0 192 63.5t96 192.5l95 672h151l-146 -1034h-121l11 196q-27 -74 -76 -122t-112.5 -71.5t-134.5 -22.5zM346 -348l23 163h155l-23 -163h-155z" />
    <glyph glyph-name="uni1EE6" unicode="&#x1ee6;" horiz-adv-x="1331" 
d="M607 -20q-171 0 -269.5 59.5t-131.5 177.5t-8 291l134 938h157l-138 -967q-18 -120 8 -200t93.5 -120t174.5 -40q161 0 260.5 89t125.5 271l137 967h151l-136 -960q-23 -164 -90.5 -277t-183 -171t-284.5 -58zM889 1544l-37 77q45 28 67 65t8 71t-54.5 32.5t-84.5 -28.5
l-36 78q86 53 158.5 43.5t101.5 -71.5q35 -73 0.5 -144t-123.5 -123z" />
    <glyph glyph-name="uni1EE7" unicode="&#x1ee7;" horiz-adv-x="1110" 
d="M444 -20q-78 1 -143 23.5t-110.5 67t-65 111t-7.5 154.5l98 698h152l-97 -684q-15 -109 37.5 -176.5t180.5 -67.5q114 0 192 63.5t96 192.5l95 672h151l-146 -1034h-121l11 196q-27 -74 -76 -122t-112.5 -71.5t-134.5 -22.5zM691 1132l-37 77q45 28 67 65t8 71
t-54.5 32.5t-84.5 -28.5l-36 78q86 53 158.5 43.5t101.5 -71.5q35 -73 0.5 -144t-123.5 -123z" />
    <glyph glyph-name="uni1EE8" unicode="&#x1ee8;" horiz-adv-x="1520" 
d="M1224 1182l15 99q42 -1 73 6t53.5 27t38.5 58.5t28 102.5h123q-16 -112 -55 -181t-106 -96.5t-170 -15.5zM607 -20q-171 0 -269.5 59.5t-131.5 177.5t-8 291l134 938h157l-138 -967q-18 -120 8 -200t93.5 -120t174.5 -40q161 0 260.5 89t125.5 271l137 967h151l-136 -960
q-23 -164 -90.5 -277t-183 -171t-284.5 -58zM768 1567l233 291h182l-292 -291h-123z" />
    <glyph glyph-name="uni1EE9" unicode="&#x1ee9;" horiz-adv-x="1201" 
d="M949 821l15 99q41 -1 72.5 5.5t53.5 27t38 59t28 102.5h124q-17 -112 -55.5 -181t-106 -96.5t-169.5 -15.5zM444 -20q-78 1 -143 23.5t-110 67t-65 111t-7 154.5l97 698h153l-97 -684q-16 -109 37 -176.5t180 -67.5q115 0 193 63.5t96 192.5l95 672h151l-146 -1034h-122
l12 196q-28 -74 -76.5 -122t-112 -71.5t-135.5 -22.5zM570 1155l233 291h182l-292 -291h-123z" />
    <glyph glyph-name="uni1EEA" unicode="&#x1eea;" horiz-adv-x="1520" 
d="M1224 1182l15 99q42 -1 73 6t53.5 27t38.5 58.5t28 102.5h123q-16 -112 -55 -181t-106 -96.5t-170 -15.5zM607 -20q-171 0 -269.5 59.5t-131.5 177.5t-8 291l134 938h157l-138 -967q-18 -120 8 -200t93.5 -120t174.5 -40q161 0 260.5 89t125.5 271l137 967h151l-136 -960
q-23 -164 -90.5 -277t-183 -171t-284.5 -58zM779 1567l-240 291h175l180 -291h-115z" />
    <glyph glyph-name="uni1EEB" unicode="&#x1eeb;" horiz-adv-x="1220" 
d="M593 1155l-240 291h175l180 -291h-115zM451 -20q-78 1 -143 23.5t-110.5 67t-65 111t-6.5 154.5l97 698h153l-97 -684q-16 -109 37 -176.5t180 -67.5q115 0 193 63.5t96 192.5l95 672h151l-17 -114q45 1 75.5 18.5t50.5 58.5t34 117h124q-15 -106 -50.5 -173.5t-96 -97.5
t-151.5 -25l-115 -818h-122l12 196q-28 -74 -76.5 -122t-112 -71.5t-135.5 -22.5z" />
    <glyph glyph-name="uni1EEC" unicode="&#x1eec;" horiz-adv-x="1520" 
d="M1224 1182l15 99q42 -1 73 6t53.5 27t38.5 58.5t28 102.5h123q-16 -112 -55 -181t-106 -96.5t-170 -15.5zM607 -20q-171 0 -269.5 59.5t-131.5 177.5t-8 291l134 938h157l-138 -967q-18 -120 8 -200t93.5 -120t174.5 -40q161 0 260.5 89t125.5 271l137 967h151l-136 -960
q-23 -164 -90.5 -277t-183 -171t-284.5 -58zM887 1544l-37 77q45 29 67 65.5t8 70.5t-54.5 33t-84.5 -29l-36 78q86 53 158.5 43.5t101.5 -71.5q35 -72 0.5 -143.5t-123.5 -123.5z" />
    <glyph glyph-name="uni1EED" unicode="&#x1eed;" horiz-adv-x="1213" 
d="M702 1132l-37 77q45 28 67 65t8 71t-54.5 32.5t-84.5 -28.5l-36 78q86 53 158.5 43.5t101.5 -71.5q35 -73 0.5 -144t-123.5 -123zM444 -20q-78 1 -143 23.5t-110.5 67t-65 111t-6.5 154.5l97 698h153l-97 -684q-16 -109 37 -176.5t180 -67.5q115 0 193 63.5t96 192.5
l95 672h151l-17 -114q45 1 75.5 18.5t50.5 58.5t34 117h124q-15 -106 -50.5 -173.5t-96 -97.5t-151.5 -25l-115 -818h-122l12 196q-28 -74 -76.5 -122t-112 -71.5t-135.5 -22.5z" />
    <glyph glyph-name="uni1EEE" unicode="&#x1eee;" horiz-adv-x="1517" 
d="M1224 1182l15 99q42 -1 73 6t53.5 27t38.5 58.5t28 102.5h123q-16 -112 -55 -181t-106 -96.5t-170 -15.5zM607 -20q-171 0 -269.5 59.5t-131.5 177.5t-8 291l134 938h157l-138 -967q-18 -120 8 -200t93.5 -120t174.5 -40q161 0 260.5 89t125.5 271l137 967h151l-136 -960
q-23 -164 -90.5 -277t-183 -171t-284.5 -58zM605 1642l-17 89q35 32 72 52.5t89 20.5q45 0 82 -13.5t73 -27t78 -13.5q40 0 71 15.5t61 36.5l16 -102q-26 -18 -66.5 -36.5t-98.5 -18.5q-49 0 -83 12.5t-66 25.5t-74 13q-46 0 -76 -16.5t-61 -37.5z" />
    <glyph glyph-name="uni1EEF" unicode="&#x1eef;" horiz-adv-x="1213" 
d="M419 1230l-18 89q36 32 73 52.5t89 20.5q44 0 81 -13.5t73.5 -27t77.5 -13.5t72 15.5t61 36.5l16 -102q-26 -18 -66.5 -36.5t-98.5 -18.5q-49 0 -83.5 12.5t-66.5 25.5t-73 13q-47 0 -77 -16.5t-60 -37.5zM444 -20q-78 1 -143 23.5t-110.5 67t-65 111t-6.5 154.5l97 698
h153l-97 -684q-16 -109 37 -176.5t180 -67.5q115 0 193 63.5t96 192.5l95 672h151l-17 -114q45 1 75.5 18.5t50.5 58.5t34 117h124q-15 -106 -50.5 -173.5t-96 -97.5t-151.5 -25l-115 -818h-122l12 196q-28 -74 -76.5 -122t-112 -71.5t-135.5 -22.5z" />
    <glyph glyph-name="uni1EF0" unicode="&#x1ef0;" horiz-adv-x="1520" 
d="M1224 1182l15 99q42 -1 73 6t53.5 27t38.5 58.5t28 102.5h123q-16 -112 -55 -181t-106 -96.5t-170 -15.5zM607 -20q-171 0 -269.5 59.5t-131.5 177.5t-8 291l134 938h157l-138 -967q-18 -120 8 -200t93.5 -120t174.5 -40q161 0 260.5 89t125.5 271l137 967h151l-136 -960
q-23 -164 -90.5 -277t-183 -171t-284.5 -58zM472 -345l23 163h155l-23 -163h-155z" />
    <glyph glyph-name="uni1EF1" unicode="&#x1ef1;" horiz-adv-x="1213" 
d="M349 -348l23 163h155l-23 -163h-155zM444 -20q-78 1 -143 23.5t-110.5 67t-65 111t-6.5 154.5l97 698h153l-97 -684q-16 -109 37 -176.5t180 -67.5q115 0 193 63.5t96 192.5l95 672h151l-17 -114q45 1 75.5 18.5t50.5 58.5t34 117h124q-15 -106 -50.5 -173.5t-96 -97.5
t-151.5 -25l-115 -818h-122l12 196q-28 -74 -76.5 -122t-112 -71.5t-135.5 -22.5z" />
    <glyph glyph-name="Ygrave" unicode="&#x1ef2;" horiz-adv-x="1118" 
d="M410 0l87 619l-340 827h164l274 -686l463 686h166l-575 -829l-89 -617h-150zM648 1570l-240 291h175l180 -291h-115z" />
    <glyph glyph-name="ygrave" unicode="&#x1ef3;" horiz-adv-x="1000" 
d="M115 -330q-82 0 -110 11.5l-28 11.5l15 102l101 -1q69 -2 111 15.5t65.5 45.5t37.5 56l53 109l-234 1014h154l180 -832l414 832h147l-574 -1131q-47 -90 -99.5 -140.5t-110 -71.5t-122.5 -21zM537 1155l-240 291h175l180 -291h-115z" />
    <glyph glyph-name="uni1EF4" unicode="&#x1ef4;" horiz-adv-x="1118" 
d="M410 0l87 619l-340 827h164l274 -686l463 686h166l-575 -829l-89 -617h-150zM359 -348l23 163h155l-23 -163h-155z" />
    <glyph glyph-name="uni1EF5" unicode="&#x1ef5;" horiz-adv-x="1000" 
d="M115 -330q-82 0 -110 11.5l-28 11.5l15 102l101 -1q69 -2 111 15.5t65.5 45.5t37.5 56l53 109l-234 1014h154l180 -832l414 832h147l-574 -1131q-47 -90 -99.5 -140.5t-110 -71.5t-122.5 -21zM573 -344l23 163h155l-23 -163h-155z" />
    <glyph glyph-name="uni1EF6" unicode="&#x1ef6;" horiz-adv-x="1118" 
d="M410 0l87 619l-340 827h164l274 -686l463 686h166l-575 -829l-89 -617h-150zM757 1547l-37 77q45 28 67 65t8 71t-54.5 32.5t-84.5 -28.5l-36 78q86 53 158.5 43.5t101.5 -71.5q35 -73 0.5 -144t-123.5 -123z" />
    <glyph glyph-name="uni1EF7" unicode="&#x1ef7;" horiz-adv-x="1000" 
d="M115 -330q-82 0 -110 11.5l-28 11.5l15 102l101 -1q69 -2 111 15.5t65.5 45.5t37.5 56l53 109l-234 1014h154l180 -832l414 832h147l-574 -1131q-47 -90 -99.5 -140.5t-110 -71.5t-122.5 -21zM646 1132l-37 77q45 28 67 65t8 71t-54.5 32.5t-84.5 -28.5l-36 78
q86 53 158.5 43.5t101.5 -71.5q35 -73 0.5 -144t-123.5 -123z" />
    <glyph glyph-name="uni1EF8" unicode="&#x1ef8;" horiz-adv-x="1118" 
d="M410 0l87 619l-340 827h164l274 -686l463 686h166l-575 -829l-89 -617h-150zM474 1645l-18 89q36 32 73 52.5t89 20.5q44 0 81 -13.5t73.5 -27t77.5 -13.5t72 15.5t61 36.5l16 -102q-26 -18 -66.5 -36.5t-98.5 -18.5q-49 0 -83.5 12.5t-66.5 25.5t-73 13q-47 0 -77 -16.5
t-60 -37.5z" />
    <glyph glyph-name="uni1EF9" unicode="&#x1ef9;" horiz-adv-x="1000" 
d="M115 -330q-82 0 -110 11.5l-28 11.5l15 102l101 -1q69 -2 111 15.5t65.5 45.5t37.5 56l53 109l-234 1014h154l180 -832l414 832h147l-574 -1131q-47 -90 -99.5 -140.5t-110 -71.5t-122.5 -21zM363 1230l-18 89q36 32 73 52.5t89 20.5q44 0 81 -13.5t73.5 -27t77.5 -13.5
t72 15.5t61 36.5l16 -102q-26 -18 -66.5 -36.5t-98.5 -18.5q-49 0 -83.5 12.5t-66.5 25.5t-73 13q-47 0 -77 -16.5t-60 -37.5z" />
    <glyph glyph-name="endash" unicode="&#x2013;" horiz-adv-x="1043" 
d="M114 439l18 127l793 1l-18 -127z" />
    <glyph glyph-name="emdash" unicode="&#x2014;" horiz-adv-x="2217" 
d="M363 439l18 127l1470 1l-18 -127z" />
    <glyph glyph-name="quoteleft" unicode="&#x2018;" horiz-adv-x="466" 
d="M188 1045l26 177l199 272h80l-143 -242l80 -4l-30 -203h-212z" />
    <glyph glyph-name="quoteright" unicode="&#x2019;" horiz-adv-x="447" 
d="M168 999l143 241l-80 4l29 202h213l-26 -176l-200 -271h-79z" />
    <glyph glyph-name="quotesinglbase" unicode="&#x201a;" horiz-adv-x="460" 
d="M-22 -242l139 240l-79 4l29 204h211l-25 -177l-195 -271h-80z" />
    <glyph glyph-name="quotedblleft" unicode="&#x201c;" horiz-adv-x="814" 
d="M533 1029l26 178l200 274h79l-143 -245l80 -3l-29 -204h-213zM186 1029l26 178l200 274h79l-143 -245l80 -3l-29 -204h-213z" />
    <glyph glyph-name="quotedblright" unicode="&#x201d;" horiz-adv-x="784" 
d="M504 999l143 241l-80 4l29 202h213l-26 -176l-200 -271h-79zM168 999l143 241l-80 4l29 202h213l-26 -176l-200 -271h-79z" />
    <glyph glyph-name="quotedblbase" unicode="&#x201e;" horiz-adv-x="807" 
d="M325 -242l139 240l-79 4l29 204h211l-25 -177l-195 -271h-80zM-22 -242l139 240l-79 4l29 204h211l-25 -177l-195 -271h-80z" />
    <glyph glyph-name="dagger" unicode="&#x2020;" horiz-adv-x="833" 
d="M214 -322l191 1131l-344 -23l22 151l331 -20l52 529h163l-101 -529l337 20l-23 -151l-338 23l-129 -1131h-161z" />
    <glyph glyph-name="daggerdbl" unicode="&#x2021;" horiz-adv-x="835" 
d="M215 -322l99 520l-339 -20l23 152l337 -24l70 492l-343 -22l21 150l332 -20l53 540h163l-102 -540l336 20l-22 -150l-337 22l-69 -492l343 24l-23 -152l-330 20l-49 -520h-163z" />
    <glyph glyph-name="bullet" unicode="&#x2022;" horiz-adv-x="617" 
d="M335 554q-50 0 -90.5 24.5t-65 66t-24.5 91.5t24.5 91t65 65t90.5 24t91.5 -24t65.5 -65t24 -91t-24 -91.5t-65.5 -66t-91.5 -24.5z" />
    <glyph glyph-name="ellipsis" unicode="&#x2026;" horiz-adv-x="1459" 
d="M1080 0l31 214h186l-32 -214h-185zM40 0l31 214h186l-32 -214h-185zM560 0l31 214h186l-32 -214h-185z" />
    <glyph glyph-name="perthousand" unicode="&#x2030;" horiz-adv-x="2395" 
d="M340 -8l-106 1l1127 1469h104zM438 642q-78 0 -136.5 38.5t-91 110t-32.5 168.5q0 81 22.5 169.5t68.5 165.5t117 125.5t167 48.5q78 0 135.5 -38.5t89.5 -110t32 -169.5q0 -83 -23 -172t-69.5 -165.5t-116 -123.5t-163.5 -47zM448 733q68 0 115.5 43t76.5 109t43 137
t14 127q0 104 -37 166.5t-121 62.5q-66 0 -113 -43t-77.5 -109t-44.5 -137t-14 -126q0 -104 36.5 -167t121.5 -63zM1165 -20q-77 0 -135.5 39t-91 110t-32.5 169q0 86 24 175.5t71.5 165t117.5 122t162 46.5q78 0 135.5 -39t89.5 -110t32 -168q0 -84 -23 -173t-69 -165.5
t-116 -124t-165 -47.5zM1176 72q67 0 114.5 42.5t77 108.5t43.5 137t14 128q0 104 -37 166t-122 62q-65 0 -112 -43t-77.5 -109t-44.5 -136.5t-14 -125.5q0 -104 36.5 -167t121.5 -63zM1897 -20q-78 0 -136.5 39t-90.5 110t-32 169q0 86 23.5 175.5t71 165t117.5 122
t162 46.5q78 0 135.5 -39t89.5 -110t32 -168q0 -83 -23 -172.5t-69 -166t-116 -124t-164 -47.5zM1907 72q68 0 115.5 43t76.5 109t43 137t14 128q0 103 -37 165t-121 62q-66 0 -113 -42.5t-77 -108.5t-44 -136.5t-14 -125.5q0 -104 36 -167.5t121 -63.5z" />
    <glyph glyph-name="guilsinglleft" unicode="&#x2039;" horiz-adv-x="519" 
d="M272 144l-199 358l307 375h87l-251 -375l144 -358h-88z" />
    <glyph glyph-name="guilsinglright" unicode="&#x203a;" horiz-adv-x="518" 
d="M53 144l246 358l-144 375h88l198 -375l-304 -358h-84z" />
    <glyph glyph-name="fraction" unicode="&#x2044;" horiz-adv-x="401" 
d="M-276 -8l-105 1l1127 1469h103z" />
    <glyph glyph-name="uni2070" unicode="&#x2070;" horiz-adv-x="709" 
d="M360 752q-138 0 -203 116.5t-32 348.5q33 235 132 353t235 118q137 0 202 -117.5t33 -351.5q-34 -233 -132 -350t-235 -117zM373 840q96 0 158.5 89t90.5 290q29 203 -9.5 293.5t-132.5 90.5t-159 -91t-94 -293q-28 -200 11.5 -289.5t134.5 -89.5z" />
    <glyph glyph-name="uni2074" unicode="&#x2074;" horiz-adv-x="735" 
d="M455 760l35 241h-405l14 94l482 575h98l-82 -580h143l-13 -89h-145l-33 -241h-94zM191 1090h309l63 445z" />
    <glyph glyph-name="uni2075" unicode="&#x2075;" horiz-adv-x="742" 
d="M387 746q-117 0 -197 66.5t-97 172.5l90 31q19 -81 71.5 -133t139.5 -52q95 0 161 60t80 164q14 98 -37.5 155t-133.5 57q-55 0 -103 -17t-107 -79q-3 -2 -4.5 -2t-4.5 2l-81 22l105 477h505l-15 -87h-418l-67 -314q48 46 103 65t117 19q75 0 135.5 -33.5t91.5 -99
t17 -162.5q-20 -141 -116 -226.5t-235 -85.5z" />
    <glyph glyph-name="uni2076" unicode="&#x2076;" horiz-adv-x="720" 
d="M381 756q-147 0 -217 120.5t-40 335.5q30 218 133 349t265 131q69 0 123.5 -27t87 -78.5t31.5 -123.5h-90q-8 65 -50 105t-113 40q-118 0 -193 -106t-93 -315q34 77 102.5 123.5t148.5 46.5q126 0 192.5 -76.5t47.5 -213.5q-12 -91 -57.5 -161.5t-116.5 -110t-161 -39.5z
M392 840q83 0 144.5 61.5t75.5 160.5q15 99 -26 155.5t-134 56.5q-50 0 -98.5 -24.5t-82.5 -66.5t-41 -93q-17 -108 28 -179t134 -71z" />
    <glyph glyph-name="uni2077" unicode="&#x2077;" horiz-adv-x="665" 
d="M203 760q27 86 87.5 221.5t151 293t209.5 308.5h-484l13 87h591l-14 -87q-70 -88 -142 -200.5t-135 -229t-109 -220t-65 -173.5h-103z" />
    <glyph glyph-name="uni2078" unicode="&#x2078;" horiz-adv-x="774" 
d="M392 754q-146 0 -224 71t-62 188q8 53 40 102t77 83t90 43q-56 26 -88 76.5t-21 126.5q17 118 108 182t212 64q122 0 194 -64t56 -182q-11 -76 -56 -126.5t-110 -76.5q44 -9 79 -43t54 -83t11 -102q-16 -117 -114 -188t-246 -71zM404 836q100 0 166.5 48t78.5 129
q11 79 -41.5 130t-153.5 51q-99 0 -166.5 -51t-79.5 -130q-11 -81 43 -129t153 -48zM466 1285q84 0 141.5 43t67.5 119q11 77 -34.5 121.5t-128.5 44.5q-81 0 -139.5 -45t-68.5 -121q-11 -76 34.5 -119t127.5 -43z" />
    <glyph glyph-name="uni2079" unicode="&#x2079;" horiz-adv-x="709" 
d="M341 756q-69 0 -125 27.5t-89 79t-34 122.5h94q6 -65 49.5 -105t114.5 -40q118 0 198 102.5t101 321.5q-32 -79 -101 -127.5t-152 -48.5q-127 0 -194.5 77.5t-49.5 215.5q13 92 57.5 162t115.5 109.5t162 39.5q145 0 215.5 -120t38.5 -335q-31 -225 -135 -353t-266 -128z
M416 1174q51 0 99 25t82 67t41 93q16 108 -28 179t-134 71q-83 0 -143.5 -61.5t-74.5 -161.5q-13 -97 26 -154.5t132 -57.5z" />
    <glyph glyph-name="colonmonetary" unicode="&#x20a1;" horiz-adv-x="1310" 
d="M614 -20q-176 0 -289.5 82t-160 240t-22.5 386q18 178 70 321.5t137 245.5t202 156.5t264 54.5q141 0 241.5 -61.5t153 -165.5t50.5 -229h-163q-4 87 -38.5 159t-100.5 115t-166 43q-108 0 -191 -45t-143 -129t-97 -202.5t-53 -266.5q-32 -288 49.5 -426t272.5 -138
q101 0 178.5 44.5t131.5 118t81 160.5h163q-22 -89 -70 -172.5t-120 -149t-167 -103.5t-213 -38zM409 -122l320 1682h94l-320 -1682h-94zM623 -122l320 1682h94l-320 -1682h-94z" />
    <glyph glyph-name="franc" unicode="&#x20a3;" horiz-adv-x="1146" 
d="M96 0l206 1446h870l-22 -138h-696l-76 -533h599l-21 -136h-597l-92 -639h-171zM-41 274l15 105l660 1l-15 -105z" />
    <glyph glyph-name="lira" unicode="&#x20a4;" horiz-adv-x="1145" 
d="M-45 0l20 137h72q68 -1 127 66.5t83 211.5q3 16 5 34.5t5 42.5q-1 12 -15 12h-200l15 104h201l-2 189h-173l15 105h157l1 56q0 187 62.5 298.5t164.5 160.5t220 49q81 0 152 -29.5t121 -80t66 -114.5l-142 -52q-20 63 -65.5 100.5t-133.5 37.5q-99 0 -176.5 -62
t-95.5 -175q-2 -25 -2 -70v-101q0 -18 17 -18l304 2l-15 -105l-306 -2l1 -189l279 2l-17 -105h-272q-7 -61 -27 -128.5t-53 -130t-80 -107.5h345q95 0 161.5 36t109.5 127l125 -38q-61 -131 -167 -197.5t-242 -66.5h-645z" />
    <glyph glyph-name="uni20A6" unicode="&#x20a6;" horiz-adv-x="1442" 
d="M66 0l403 1446h138l370 -1169l321 1169h147l-403 -1446h-129l-374 1180l-327 -1180h-146zM14 521l14 99l1414 2l-14 -100zM64 872l15 99l1414 2l-15 -100z" />
    <glyph glyph-name="uni20A9" unicode="&#x20a9;" horiz-adv-x="1934" 
d="M343 0l37 1446h150l-42 -1205l628 1205h116l-35 -1205l628 1205h147l-773 -1446h-140l35 1169l-614 -1169h-137zM43 623l15 104l1877 2l-14 -105zM89 930l15 105l1877 1l-15 -104z" />
    <glyph glyph-name="dong" unicode="&#x20ab;" horiz-adv-x="951" 
d="M381 247q-94 0 -163 47.5t-100.5 142.5t-10.5 236q19 136 79 238t147.5 159t189.5 57q79 0 123 -27.5t76 -63.5q12 -12 17 -9t7 19l58 399h131l-170 -1182h-127l18 120q-22 -22 -57.5 -54t-89 -57t-128.5 -25zM53 0l12 95h683l-14 -95h-681zM439 352q60 0 110 28.5t82 71
t38 85.5l54 381q-36 48 -80 73.5t-103 25.5q-105 0 -185.5 -86t-103.5 -253q-16 -114 5.5 -186t70 -106t112.5 -34zM514 1227l14 90h503l-13 -90h-504z" />
    <glyph glyph-name="Euro" unicode="&#x20ac;" horiz-adv-x="1107" 
d="M620 -20q-176 0 -290 89.5t-158.5 256.5t-11.5 398q33 232 125 398.5t229.5 255t309.5 88.5q97 0 178.5 -35.5t138.5 -99.5l-119 -104q-40 43 -89 72t-117 29q-189 0 -311.5 -150.5t-167.5 -454.5q-28 -198 0 -331.5t109 -201t213 -67.5q44 0 88.5 12.5t84.5 33.5t73 48
l68 -105q-73 -58 -164 -95t-189 -37zM-25 515l15 105l732 2l-15 -105zM21 832l15 105l732 1l-15 -104z" />
    <glyph glyph-name="uni20B9" unicode="&#x20b9;" horiz-adv-x="1077" 
d="M598 0l-135 684h-423l18 126h353q171 0 262.5 64.5t113.5 215.5q19 126 -45 188t-211 62h-397l14 106h416q215 0 322 -91.5t82 -266.5q-16 -112 -67 -186.5t-119 -118.5t-137 -67q-13 -4 -8 -19l148 -697h-187zM93 1039l14 100l1020 1l-16 -99zM137 1347l14 99l1018 2
l-14 -100z" />
    <glyph glyph-name="uni20BA" unicode="&#x20ba;" horiz-adv-x="1029" 
d="M141 0l207 1446h172l-186 -1307h95q129 1 235 83.5t195 265.5l137 -34q-48 -106 -111 -189.5t-142 -143t-173 -90.5t-202 -31h-227zM57 392l-20 110l651 237l23 -109zM94 714l-21 110l652 237l24 -109z" />
    <glyph glyph-name="uni2113" unicode="&#x2113;" horiz-adv-x="935" 
d="M429 -14q-142 0 -204.5 94t-51.5 279l-107 -75l-37 101l162 113l74 520q33 232 140.5 340t241.5 108q90 0 143.5 -41.5t72.5 -113.5t6 -163q-15 -107 -67 -204.5t-127.5 -185.5t-163 -168.5t-172.5 -155.5q-27 -180 2 -252.5t116 -72.5q69 0 130.5 36t135.5 133l60 -62
q-30 -50 -66 -92t-78.5 -73t-95 -48t-114.5 -17zM356 595q57 47 121 109.5t124 139t103 163t56 179.5q12 80 -16 122t-93 42q-87 0 -148 -83t-91 -297z" />
    <glyph glyph-name="uni2116" unicode="&#x2116;" horiz-adv-x="2200" 
d="M126 0l208 1446h141l575 -1169l166 1169h152l-209 -1446h-133l-580 1180l-169 -1180h-151zM1855 795q-135 0 -195.5 93.5t-40.5 238.5q14 101 60 177t116 118.5t156 42.5q131 0 194.5 -94t42.5 -244q-13 -97 -57.5 -172t-114.5 -117.5t-161 -42.5zM1868 882q85 0 139 67
t70 183q15 112 -19.5 178t-119.5 66t-138 -66t-69 -178q-17 -116 17.5 -183t119.5 -67z" />
    <glyph glyph-name="uni2117" unicode="&#x2117;" horiz-adv-x="1534" 
d="M688 -20q-145 0 -263.5 57.5t-199.5 159.5t-116 237t-12 290q21 153 94.5 287.5t184 236.5t245.5 160t279 58t262 -58t199.5 -160t116.5 -236.5t13 -287.5q-23 -155 -96.5 -290t-184 -237t-245 -159.5t-277.5 -57.5zM705 94q119 0 230 44.5t203.5 127t155 198.5t82.5 260
q21 142 -8 258t-98 199.5t-168 128.5t-218 45q-121 0 -233.5 -45t-204 -128.5t-153 -199.5t-82.5 -258q-27 -192 31 -333.5t179 -219t284 -77.5zM494 331l111 777h281q77 0 135.5 -22.5t87 -70.5t17.5 -123q-18 -124 -100 -186.5t-197 -62.5h-179l-44 -312h-112zM664 737
h171q65 0 114.5 34.5t60.5 106.5q11 79 -31.5 107.5t-111.5 28.5h-163z" />
    <glyph glyph-name="uni2120" unicode="&#x2120;" horiz-adv-x="1907" 
d="M919 0l129 904h129l158 -774l385 774h126l-129 -904h-98l106 741l-362 -741h-93l-149 734l-105 -734h-97zM336 -13q-80 0 -147.5 28t-108 83t-41.5 137h102q5 -81 64 -122.5t142 -41.5q95 0 163 43t77 114q8 65 -24.5 104.5t-103.5 58.5l-166 43q-92 23 -137.5 78
t-33.5 143q10 77 56.5 135.5t118.5 91.5t160 33q98 0 160.5 -38t91 -97t21.5 -124h-100q3 65 -22 103t-68 54.5t-95 16.5q-49 0 -97 -18t-82.5 -55t-41.5 -93q-6 -52 22.5 -84t111.5 -55l161 -44q59 -14 94.5 -41t53 -61.5t21 -72.5t-1.5 -76q-9 -67 -54 -122t-120 -88
t-176 -33z" />
    <glyph glyph-name="trademark" unicode="&#x2122;" horiz-adv-x="1756" 
d="M768 0l129 904h129l159 -774l384 774h126l-128 -904h-98l105 741l-361 -741h-94l-148 734l-105 -734h-98zM236 0l116 813h-277l13 91h632l-12 -91h-262l-116 -813h-94z" />
    <glyph glyph-name="uni2126" unicode="&#x2126;" horiz-adv-x="1455" 
d="M102 0l22 145h301q-16 16 -52.5 51.5t-79 91.5t-78 133t-51.5 177t1 223q20 132 77 254.5t148.5 219t212.5 153t267 56.5q149 0 253 -57.5t166 -155t83.5 -219t2.5 -249.5q-15 -106 -47.5 -193t-86 -165t-133.5 -155t-191 -165h307l-22 -145h-481l20 138q54 37 123.5 94
t138 137.5t121 188t71.5 244.5q17 112 4 213t-55 179.5t-115 123.5t-180 45q-105 0 -192 -45t-152 -123t-107 -179.5t-58 -215.5q-20 -141 3 -255t88.5 -213.5t173.5 -193.5l-21 -138h-482z" />
    <glyph glyph-name="uni2153" unicode="&#x2153;" horiz-adv-x="1611" 
d="M218 552l105 735h-168l9 69q116 0 159.5 26t53.5 80h69l-131 -910h-97zM216 -8l-105 1l1127 1469h103zM1149 -20q-128 2 -200.5 74.5t-59.5 195.5h97q0 -86 48 -134.5t131 -48.5q99 0 165 49t77 127q13 89 -47 135t-155 47l-77 1l13 86l73 1q60 1 109.5 24.5t82.5 62
t40 81.5q8 59 -35.5 105t-137.5 46q-47 0 -94 -20.5t-81.5 -62t-44.5 -107.5h-96q12 86 60 147.5t118.5 94t149.5 32.5q88 0 151 -27.5t93 -79t20 -125.5q-10 -68 -59 -122.5t-136 -86.5q56 -17 94 -49t54.5 -78t8.5 -105q-12 -81 -62 -140.5t-127.5 -91.5t-172.5 -31z" />
    <glyph glyph-name="uni2154" unicode="&#x2154;" horiz-adv-x="1893" 
d="M71 558l10 66l5 34q12 83 52.5 139t98 96.5t120.5 74.5t120 69t96 80t48 109q10 74 -32 119.5t-124 45.5q-89 0 -149 -53t-78 -138h-96q19 114 106.5 197t233.5 83q126 0 191 -70t49 -184q-12 -82 -52.5 -138t-97.5 -95.5t-119 -72t-118 -66t-94.5 -78t-48.5 -108.5
l-2 -21h457l-14 -89h-562zM498 -8l-105 1l1127 1469h103zM1431 -20q-128 2 -200.5 74.5t-59.5 195.5h97q0 -86 48 -134.5t131 -48.5q99 0 165 49t77 127q13 89 -47 135t-155 47l-77 1l13 86l73 1q60 1 109.5 24.5t82.5 62t40 81.5q8 59 -35.5 105t-137.5 46q-47 0 -94 -20.5
t-81.5 -62t-44.5 -107.5h-96q12 86 60 147.5t118.5 94t149.5 32.5q88 0 151 -27.5t93 -79t20 -125.5q-10 -68 -59 -122.5t-136 -86.5q56 -17 94 -49t54.5 -78t8.5 -105q-12 -81 -62 -140.5t-127.5 -91.5t-172.5 -31z" />
    <glyph glyph-name="oneeighth" unicode="&#x215b;" horiz-adv-x="1634" 
d="M218 552l105 735h-168l9 69q116 0 159.5 26t53.5 80h69l-131 -910h-97zM216 -8l-105 1l1127 1469h103zM1173 -22q-147 0 -225 71t-61 188q7 53 39.5 102t77.5 83.5t90 42.5q-57 26 -88.5 76.5t-20.5 126.5q17 118 108 182t212 64t193.5 -64t55.5 -182q-10 -76 -55 -126.5
t-110 -76.5q43 -8 78.5 -42.5t54.5 -83.5t11 -102q-16 -117 -114.5 -188t-245.5 -71zM1184 60q101 0 167.5 48t77.5 129q12 79 -40.5 130t-154.5 51q-99 0 -166 -51t-79 -130q-11 -81 42.5 -129t152.5 -48zM1247 509q84 0 141 43t68 119q11 77 -34.5 121.5t-128.5 44.5
q-81 0 -139.5 -45t-68.5 -121q-11 -76 34.5 -119t127.5 -43z" />
    <glyph glyph-name="threeeighths" unicode="&#x215c;" horiz-adv-x="1868" 
d="M368 544q-128 2 -200.5 74.5t-59.5 195.5h97q0 -86 48 -134.5t131 -48.5q99 0 165 49t77 127q13 89 -47 135t-155 47l-77 1l13 86l73 1q60 1 109.5 24.5t82.5 62t40 81.5q8 59 -35.5 105t-137.5 46q-47 0 -94 -20.5t-81.5 -62t-44.5 -107.5h-96q12 86 60 147.5t118.5 94
t149.5 32.5q88 0 151 -27.5t93 -79t20 -125.5q-10 -68 -59 -122.5t-136 -86.5q56 -17 94 -49t54.5 -78t8.5 -105q-12 -81 -62 -140.5t-127.5 -91.5t-172.5 -31zM450 -8l-105 1l1127 1469h103zM1407 -22q-147 0 -225 71t-61 188q7 53 39.5 102t77.5 83.5t90 42.5
q-57 26 -88.5 76.5t-20.5 126.5q17 118 108 182t212 64t193.5 -64t55.5 -182q-10 -76 -55 -126.5t-110 -76.5q43 -8 78.5 -42.5t54.5 -83.5t11 -102q-16 -117 -114.5 -188t-245.5 -71zM1418 60q101 0 167.5 48t77.5 129q12 79 -40.5 130t-154.5 51q-99 0 -166 -51t-79 -130
q-11 -81 42.5 -129t152.5 -48zM1481 509q84 0 141 43t68 119q11 77 -34.5 121.5t-128.5 44.5q-81 0 -139.5 -45t-68.5 -121q-11 -76 34.5 -119t127.5 -43z" />
    <glyph glyph-name="fiveeighths" unicode="&#x215d;" horiz-adv-x="1860" 
d="M387 538q-117 0 -197 66.5t-97 172.5l90 31q19 -81 71.5 -133t139.5 -52q95 0 161 60t80 164q14 98 -37.5 155t-133.5 57q-55 0 -103 -17t-107 -79q-3 -2 -4.5 -2t-4.5 2l-81 22l105 477h505l-15 -87h-418l-67 -314q48 46 103 65t117 19q75 0 135.5 -33.5t91.5 -99
t17 -162.5q-20 -141 -116 -226.5t-235 -85.5zM441 -8l-105 1l1127 1469h103zM1399 -22q-147 0 -225 71t-61 188q7 53 39.5 102t77.5 83.5t90 42.5q-57 26 -88.5 76.5t-20.5 126.5q17 118 108 182t212 64t193.5 -64t55.5 -182q-10 -76 -55 -126.5t-110 -76.5
q43 -8 78.5 -42.5t54.5 -83.5t11 -102q-16 -117 -114.5 -188t-245.5 -71zM1410 60q101 0 167.5 48t77.5 129q12 79 -40.5 130t-154.5 51q-99 0 -166 -51t-79 -130q-11 -81 42.5 -129t152.5 -48zM1473 509q84 0 141 43t68 119q11 77 -34.5 121.5t-128.5 44.5
q-81 0 -139.5 -45t-68.5 -121q-11 -76 34.5 -119t127.5 -43z" />
    <glyph glyph-name="seveneighths" unicode="&#x215e;" horiz-adv-x="1684" 
d="M203 550q27 86 87.5 221.5t151 293t209.5 308.5h-484l13 87h591l-14 -87q-70 -88 -142 -200.5t-135 -229t-109 -220t-65 -173.5h-103zM265 -8l-105 1l1127 1469h103zM1223 -22q-147 0 -225 71t-61 188q7 53 39.5 102t77.5 83.5t90 42.5q-57 26 -88.5 76.5t-20.5 126.5
q17 118 108 182t212 64t193.5 -64t55.5 -182q-10 -76 -55 -126.5t-110 -76.5q43 -8 78.5 -42.5t54.5 -83.5t11 -102q-16 -117 -114.5 -188t-245.5 -71zM1234 60q101 0 167.5 48t77.5 129q12 79 -40.5 130t-154.5 51q-99 0 -166 -51t-79 -130q-11 -81 42.5 -129t152.5 -48z
M1297 509q84 0 141 43t68 119q11 77 -34.5 121.5t-128.5 44.5q-81 0 -139.5 -45t-68.5 -121q-11 -76 34.5 -119t127.5 -43z" />
    <glyph glyph-name="partialdiff" unicode="&#x2202;" horiz-adv-x="1115" 
d="M459 -20q-131 0 -220.5 61t-128.5 165.5t-21 235.5q19 129 86.5 227t175.5 152.5t249 54.5q101 0 156.5 -27t113.5 -71q16 -10 20.5 -6.5t5.5 12.5q19 130 9 232t-48 173t-104.5 107.5t-161.5 36.5q-94 0 -158 -30t-122 -68l-33 100q36 36 96 65.5t131.5 47.5t144.5 18
q152 0 252.5 -81.5t137.5 -245.5t2 -411q-34 -236 -113.5 -403.5t-198 -256t-271.5 -88.5zM463 110h2q85 0 163 55t137.5 153.5t90.5 230.5q6 31 6 45t-8 25q-33 54 -110 93t-163 39t-157.5 -41.5t-119.5 -113t-61 -163.5q-13 -91 12.5 -164t80 -116t127.5 -43z" />
    <glyph glyph-name="emptyset" unicode="&#x2205;" horiz-adv-x="1097" 
d="M146 288l-56 72l912 781l53 -71zM518 317q-107 0 -187 55.5t-118.5 149t-22.5 206.5q12 85 53 159t102.5 130.5t136 88.5t153.5 32q107 0 187 -56t119 -148.5t22 -205.5q-16 -113 -82 -206.5t-161.5 -149t-201.5 -55.5zM532 410q82 0 155.5 43t124 115t63.5 160
q12 86 -18 158t-91.5 115t-143.5 43q-83 0 -156.5 -43t-123 -115t-61.5 -158q-13 -88 16.5 -160t90.5 -115t144 -43z" />
    <glyph glyph-name="uni2206" unicode="&#x2206;" horiz-adv-x="1296" 
d="M-35 0l821 1446l399 -1446h-1220zM209 143h775l-249 958z" />
    <glyph glyph-name="product" unicode="&#x220f;" horiz-adv-x="1219" 
d="M147 0l187 1308h-189l19 138h1147l-20 -138h-191l-187 -1308h-160l187 1308h-446l-187 -1308h-160z" />
    <glyph glyph-name="summation" unicode="&#x2211;" horiz-adv-x="982" 
d="M-19 0l15 107l493 615l-293 608l17 116h818l-20 -135h-609l279 -576l-477 -595h674l-20 -140h-877z" />
    <glyph glyph-name="minus" unicode="&#x2212;" horiz-adv-x="1044" 
d="M146 664l18 124l793 2l-18 -125z" />
    <glyph glyph-name="uni2215" unicode="&#x2215;" horiz-adv-x="1129" 
d="M133 -8l-108 1l1034 1469h104z" />
    <glyph glyph-name="uni2219" unicode="&#x2219;" horiz-adv-x="604" 
d="M311 619q-43 0 -70.5 34t-19.5 82q6 48 43 81.5t82 33.5t71.5 -33.5t19.5 -81.5q-6 -48 -43 -82t-83 -34z" />
    <glyph glyph-name="radical" unicode="&#x221a;" horiz-adv-x="1169" 
d="M403 -322l-184 916l-150 -59l-21 106l288 107l169 -899l695 1802h133l-766 -1973h-164z" />
    <glyph glyph-name="infinity" unicode="&#x221e;" horiz-adv-x="1363" 
d="M337 220q-76 0 -134.5 39t-87 110t-14.5 167q13 96 62.5 167t123.5 110.5t162 39.5q65 0 107.5 -21.5t74 -57.5t63.5 -81q13 -14 20 -14t22 14q34 35 76.5 72t96.5 62.5t123 25.5q79 0 136 -37.5t83.5 -106t13.5 -162.5l-1 -2q-15 -103 -65.5 -175.5t-122.5 -111
t-151 -38.5q-65 0 -108.5 23.5t-76 63.5t-63.5 87q-7 12 -13 13.5t-18 -13.5q-14 -13 -41 -41t-66 -59t-90 -52.5t-112 -21.5zM362 343h5q44 0 88 23.5t81 57.5t62 66q23 27 24 40t-14 44q-36 76 -80.5 119t-110.5 43q-76 0 -131 -54t-68 -140q-12 -88 30.5 -143.5
t113.5 -55.5zM959 343q52 0 91.5 29.5t64 74.5t31.5 93q11 78 -25 137t-111 59h-2q-69 0 -128.5 -50.5t-109.5 -103.5q-22 -24 -21.5 -44.5t9.5 -35.5q37 -70 75 -104t70.5 -44.5t55.5 -10.5z" />
    <glyph glyph-name="integral" unicode="&#x222b;" horiz-adv-x="821" 
d="M106 -342q-75 0 -117 12t-87 43l60 143q40 -25 73 -37t78 -12q64 0 117.5 51t70.5 169q22 156 33 316.5t18 320.5t17.5 315.5t31.5 302.5q28 193 123 291t226 98q76 0 119 -12.5t86 -43.5l-60 -143q-39 25 -72.5 37t-79.5 12q-67 0 -121 -51t-71 -167
q-22 -156 -33.5 -316.5t-18.5 -320.5t-17.5 -315.5t-30.5 -300.5q-19 -130 -68.5 -217.5t-121 -131t-155.5 -43.5z" />
    <glyph glyph-name="approxequal" unicode="&#x2248;" horiz-adv-x="1074" 
d="M208 780l-31 94q56 50 117.5 87.5t144.5 37.5q52 0 93 -15.5t78 -35t75.5 -35t86.5 -15.5q71 0 118.5 32.5t81.5 71.5l31 -98q-37 -47 -100.5 -82t-146.5 -35q-53 0 -93.5 14.5t-76 34t-74 34.5t-88.5 15q-71 0 -123.5 -33t-92.5 -72zM152 389l-31 95q56 50 117.5 87
t144.5 37q52 0 93 -15.5t78 -35t75.5 -35t86.5 -15.5q70 0 118 33t82 71l31 -96q-36 -48 -100 -83.5t-147 -35.5q-56 0 -97 15t-76.5 34.5t-72.5 34.5t-86 15q-71 0 -123.5 -33t-92.5 -73z" />
    <glyph glyph-name="notequal" unicode="&#x2260;" horiz-adv-x="1046" 
d="M244 132l512 1119h98l-507 -1119h-103zM175 858l18 124l793 2l-18 -125zM112 418l18 124l793 2l-18 -125z" />
    <glyph glyph-name="lessequal" unicode="&#x2264;" horiz-adv-x="1045" 
d="M905 470l-727 324l21 148l822 326l-21 -152l-627 -248l553 -248zM71 127l18 124l793 -1l-20 -124z" />
    <glyph glyph-name="greaterequal" unicode="&#x2265;" horiz-adv-x="1046" 
d="M127 470l21 150l626 248l-556 248l23 152l727 -326l-20 -148zM71 126l18 124l793 1l-18 -124z" />
    <glyph glyph-name="lozenge" unicode="&#x25ca;" horiz-adv-x="896" 
d="M311 0l-194 723l412 723h126l196 -719l-414 -727h-126zM400 128l314 595l-145 595l-313 -587z" />
    <glyph glyph-name="i.loclTRK" horiz-adv-x="475" 
d="M88 0l148 1034h152l-149 -1034h-151zM271 1283l23 163h155l-23 -163h-155z" />
    </font>
</defs>
</svg>
