<?xml version="1.0" standalone="no"?>
<!DOCTYPE svg PUBLIC "-//W3C//DTD SVG 1.1//EN" "http://www.w3.org/Graphics/SVG/1.1/DTD/svg11.dtd" >
<svg xmlns="http://www.w3.org/2000/svg" xmlns:xlink="http://www.w3.org/1999/xlink" version="1.1">
<metadata>
Created by FontForge 20190801 at Fri Apr 29 23:32:16 2022
 By www-data
Copyright 2015 The Public Sans Project Authors (https://github.com/uswds/public-sans)
</metadata>
<defs>
<font id="PublicSansExtraLight" horiz-adv-x="0" >
  <font-face 
    font-family="PublicSansExtraLight"
    font-weight="250"
    font-stretch="normal"
    units-per-em="2000"
    panose-1="0 0 0 0 0 0 0 0 0 0"
    ascent="1600"
    descent="-400"
    x-height="1034"
    cap-height="1446"
    bbox="-302 -480 2438 2083"
    underline-thickness="140"
    underline-position="-440"
    unicode-range="U+000D-FB02"
  />
<missing-glyph horiz-adv-x="1405" 
d="M245 1652h918q35 0 35 -42v-1876q0 -56 -65 -56h-872q-31 0 -42.5 12t-11.5 36v1880q0 46 38 46zM1097 -114v1634q0 34 -30 34h-687zM309 1433v-1617q0 -19 9.5 -29.5t34.5 -10.5h670z" />
    <glyph glyph-name="fi" unicode="fi" horiz-adv-x="1264" 
d="M318 0v937h-234v97h234v167q0 121 56.5 183t177.5 62h171v-96h-164q-69 0 -93 -37.5t-24 -109.5v-169h271v-97h-270v-937h-125zM967 0v1034h122v-1034h-122zM959 1293v151h136v-151h-136z" />
    <glyph glyph-name="fl" unicode="fl" horiz-adv-x="1368" 
d="M318 0v937h-234v97h234v167q0 121 56.5 183t177.5 62h171v-96h-164q-69 0 -93 -37.5t-24 -109.5v-169h271v-97h-270v-937h-125zM1181 -10q-65 0 -108.5 20.5t-68.5 57t-35 84t-10 101.5v1233h123v-1226q0 -90 34 -131t83 -42l59 -1v-84q-19 -6 -40.5 -9t-36.5 -3z" />
    <glyph glyph-name=".notdef" horiz-adv-x="1405" 
d="M245 1652h918q35 0 35 -42v-1876q0 -56 -65 -56h-872q-31 0 -42.5 12t-11.5 36v1880q0 46 38 46zM1097 -114v1634q0 34 -30 34h-687zM309 1433v-1617q0 -19 9.5 -29.5t34.5 -10.5h670z" />
    <glyph glyph-name="uni0000" horiz-adv-x="54" 
 />
    <glyph glyph-name="uni0000" horiz-adv-x="54" 
 />
    <glyph glyph-name="nonmarkingreturn" horiz-adv-x="666" 
 />
    <glyph glyph-name="CR" unicode="&#xd;" horiz-adv-x="462" 
 />
    <glyph glyph-name="space" unicode=" " horiz-adv-x="505" 
 />
    <glyph glyph-name="exclam" unicode="!" horiz-adv-x="467" 
d="M187 323l-32 1123h154l-32 -1123h-90zM149 0v189h164v-189h-164z" />
    <glyph glyph-name="quotedbl" unicode="&#x22;" horiz-adv-x="789" 
d="M505 1031l-48 415h183l-51 -415h-84zM197 1031l-48 415h183l-51 -415h-84z" />
    <glyph glyph-name="numbersign" unicode="#" horiz-adv-x="1191" 
d="M741 -3l-91 14l220 1437l91 -11zM82 480v91h960v-91h-960zM339 -3l-91 14l220 1437l91 -11zM146 890v91h960v-91h-960z" />
    <glyph glyph-name="dollar" unicode="$" horiz-adv-x="1292" 
d="M661 -20q-212 0 -355.5 95.5t-174.5 274.5l132 15q36 -136 141.5 -202.5t256.5 -66.5q90 0 174 32t137.5 91t53.5 140q0 104 -60.5 171t-191.5 105l-257 74q-158 44 -249 126t-92 220q0 118 61.5 210.5t173.5 145.5t261 53q140 0 240.5 -55.5t157 -145t63.5 -194.5
l-127 -13q-26 147 -111 220t-225 73q-63 0 -126.5 -17t-116 -52.5t-84 -89t-31.5 -126.5q0 -87 61.5 -137.5t218.5 -101.5l245 -74q176 -54 250 -157t74 -232q0 -110 -63.5 -196t-176.5 -136t-260 -50zM595 -220v258h125v-258h-125zM610 1409v259h126v-259h-126z" />
    <glyph glyph-name="percent" unicode="%" horiz-adv-x="1769" 
d="M336 -8l977 1470h94l-972 -1470h-99zM444 640q-95 0 -169.5 50.5t-117.5 143t-43 220.5q0 129 43 221.5t117.5 142.5t169.5 50t169 -50t115.5 -142.5t41.5 -221.5q0 -128 -41.5 -220.5t-115 -143t-169.5 -50.5zM442 718q107 0 168.5 86t61.5 250q0 165 -61.5 250.5
t-168.5 85.5q-106 0 -168 -86t-62 -250q0 -162 61.5 -249t168.5 -87zM1325 -20q-95 0 -170 48.5t-117.5 141.5t-42.5 226q0 131 42.5 223t117.5 141.5t170 49.5t169 -49.5t116 -141.5t42 -223q0 -133 -42 -226t-115.5 -141.5t-169.5 -48.5zM1323 58q107 0 168.5 86.5
t61.5 249.5q0 164 -61.5 250t-168.5 86q-106 0 -167.5 -86.5t-61.5 -249.5q0 -162 61 -249t168 -87z" />
    <glyph glyph-name="ampersand" unicode="&#x26;" horiz-adv-x="1332" 
d="M502 -10q-131 0 -225 47t-144 131t-50 196q0 92 36 168.5t110 141.5t185 125q-59 61 -100 120t-62 118.5t-21 123.5q0 86 43.5 155.5t120.5 110.5t178 41q97 0 181.5 -37t136.5 -105.5t52 -162.5q0 -32 -12.5 -75t-48.5 -94.5t-106.5 -108.5t-187.5 -117l369 -430
q22 25 54 82t58.5 141.5t30.5 193.5h117q-8 -111 -35 -198.5t-68 -159.5t-91 -138l220 -259h-148l-150 172q-106 -94 -217 -138t-226 -44zM524 96q99 0 192 44t164 113l-399 464q-118 -64 -191.5 -154t-71.5 -202q2 -80 43.5 -139t110 -92.5t152.5 -33.5zM528 847
q122 69 185.5 123t86.5 101t23 93q0 76 -37 121t-93.5 65t-116.5 20q-107 -1 -162.5 -62t-55.5 -141q0 -59 25.5 -115.5t58 -101t53.5 -67.5z" />
    <glyph glyph-name="quotesingle" unicode="'" horiz-adv-x="481" 
d="M197 1031l-48 415h183l-51 -415h-84z" />
    <glyph glyph-name="parenleft" unicode="(" horiz-adv-x="571" 
d="M417 -225q-82 140 -141.5 277.5t-92 284t-32.5 316.5q0 247 80.5 476t205.5 414h82q-101 -194 -168.5 -425t-67.5 -467q0 -224 55 -438.5t161 -437.5h-82z" />
    <glyph glyph-name="parenright" unicode=")" horiz-adv-x="588" 
d="M68 -225q106 223 161 437.5t55 438.5q0 236 -67.5 467t-169.5 425h83q126 -185 206 -414t80 -476q0 -170 -32.5 -316.5t-92 -284t-141.5 -277.5h-82z" />
    <glyph glyph-name="asterisk" unicode="*" horiz-adv-x="699" 
d="M202 830l-84 56l179 228l-245 71l30 87l236 -91l-16 265h106l-14 -265l239 101l27 -86l-241 -81l174 -217l-84 -61l-150 241z" />
    <glyph glyph-name="plus" unicode="+" horiz-adv-x="1071" 
d="M485 319l-1 817h104l2 -817h-105zM127 673v105l817 1v-104z" />
    <glyph glyph-name="comma" unicode="," horiz-adv-x="443" 
d="M83 -235l110 233l-79 2v187h194v-161l-151 -261h-74z" />
    <glyph glyph-name="hyphen" unicode="-" horiz-adv-x="738" 
d="M125 463v107l487 2v-108z" />
    <glyph glyph-name="period" unicode="." horiz-adv-x="400" 
d="M115 0v190h165v-190h-165z" />
    <glyph glyph-name="slash" unicode="/" horiz-adv-x="667" 
d="M28 -100l499 1546h110l-498 -1546h-111z" />
    <glyph glyph-name="zero" unicode="0" horiz-adv-x="1187" 
d="M592 -22q-224 0 -357.5 183.5t-133.5 555.5q0 250 62 416.5t172.5 249.5t258.5 83q222 0 356.5 -186t134.5 -560q0 -372 -134.5 -557t-358.5 -185zM595 94q169 0 259.5 148t90.5 478q0 334 -92 483t-260 149q-167 0 -261 -150t-94 -482q0 -329 94 -477.5t263 -148.5z" />
    <glyph glyph-name="one" unicode="1" horiz-adv-x="790" 
d="M388 0v1189h-291v96q133 0 202.5 17t95.5 52t28 92h97v-1446h-132z" />
    <glyph glyph-name="two" unicode="2" horiz-adv-x="1149" 
d="M131 0v96v50q0 112 41.5 193.5t110.5 142.5t151 110.5t163.5 96.5t150.5 99.5t110.5 120.5t41.5 161q0 124 -87.5 200.5t-234.5 76.5q-160 0 -252 -89t-99 -227h-130q3 118 60 216.5t164.5 158.5t263.5 60q136 0 236.5 -49.5t156 -139t55.5 -208.5q0 -112 -41.5 -193
t-109.5 -141t-149 -108.5t-163 -94t-150 -97.5t-109.5 -119.5t-41.5 -160.5v-37h777v-118h-915z" />
    <glyph glyph-name="three" unicode="3" horiz-adv-x="1221" 
d="M588 -22q-135 2 -243 54t-173 145.5t-71 220.5h131q20 -141 117.5 -222.5t247.5 -81.5q116 0 203 37t135 104t48 155q0 102 -55.5 170.5t-149 103.5t-207.5 35l-126 1v115l123 1q105 1 189.5 41t134.5 104t50 138q0 64 -39 122.5t-115.5 94.5t-189.5 36q-82 0 -160.5 -34
t-129.5 -103.5t-52 -176.5h-130q0 131 64.5 227t171.5 148.5t234 52.5q144 0 252.5 -44.5t169 -126t60.5 -194.5q0 -107 -71.5 -196t-211.5 -139q104 -28 176.5 -81t110.5 -127t38 -165q0 -94 -38.5 -171.5t-109 -132.5t-168.5 -83.5t-216 -27.5z" />
    <glyph glyph-name="four" unicode="4" horiz-adv-x="1225" 
d="M786 0v397h-689v129l682 920h133v-932h248v-117h-248v-397h-126zM222 514h558v751z" />
    <glyph glyph-name="five" unicode="5" horiz-adv-x="1242" 
d="M636 -22q-128 0 -237.5 49t-187 136.5t-110.5 202.5l122 30q33 -91 91 -160t138.5 -107.5t180.5 -38.5q168 0 270 100.5t102 279.5q0 111 -49.5 191.5t-130 124.5t-175.5 44q-67 0 -125 -12t-113 -47.5t-113 -108.5q-3 -1 -4 -1t-5 1l-123 22l64 762h827l-3 -115h-708
l-41 -534q67 79 160 112t200 33q123 0 231.5 -52.5t176 -156.5t67.5 -259q0 -149 -63 -260.5t-176.5 -173.5t-265.5 -62z" />
    <glyph glyph-name="six" unicode="6" horiz-adv-x="1203" 
d="M625 -22q-158 0 -276 86t-183 248t-65 392q0 229 61 400.5t181.5 266.5t299.5 95q111 0 205.5 -42t158.5 -121t84 -191h-121q-31 109 -115.5 176t-209.5 67q-142 0 -236.5 -79.5t-139 -238.5t-33.5 -396q24 87 81.5 154.5t138.5 105t176 37.5q141 0 246.5 -55.5
t164.5 -159.5t59 -251t-57 -258t-164 -173.5t-256 -62.5zM628 91q99 0 175.5 47t119 131.5t42.5 196.5q0 109 -37.5 190t-113 125.5t-189.5 44.5q-90 0 -170.5 -42.5t-131 -114.5t-50.5 -161q-2 -119 42 -213.5t124.5 -149t188.5 -54.5z" />
    <glyph glyph-name="seven" unicode="7" horiz-adv-x="1172" 
d="M356 0q21 105 67.5 257t118.5 331.5t169 370t218 372.5h-832v115h978v-115q-82 -117 -160.5 -260t-148.5 -294.5t-126.5 -297t-94 -269.5t-51.5 -210h-138z" />
    <glyph glyph-name="eight" unicode="8" horiz-adv-x="1269" 
d="M633 -22q-161 0 -280.5 51t-185.5 142.5t-66 214.5q0 85 43.5 163.5t112.5 134t145 69.5q-105 42 -171 123t-66 203q0 123 62 209.5t168 132t238 45.5q134 0 240 -45.5t167.5 -132t61.5 -209.5q0 -122 -64.5 -203t-171.5 -123q77 -14 146 -69.5t112.5 -134t43.5 -163.5
q0 -123 -66 -214.5t-186 -142.5t-283 -51zM633 87q181 0 289.5 81t108.5 215q0 89 -49 158.5t-138.5 109t-210.5 39.5q-119 0 -207.5 -39.5t-138 -109t-49.5 -158.5q0 -134 108.5 -215t286.5 -81zM633 812q152 0 244 71t92 200q0 128 -93 202.5t-243 74.5q-149 0 -242 -74.5
t-93 -202.5q0 -129 93 -200t242 -71z" />
    <glyph glyph-name="nine" unicode="9" horiz-adv-x="1210" 
d="M560 -22q-111 0 -208 42t-163 120.5t-87 188.5h125q29 -107 117.5 -173.5t212.5 -66.5q141 0 240 77t147 235.5t38 403.5q-23 -89 -80 -157t-139 -106.5t-179 -38.5q-141 0 -247 55.5t-165 160t-59 252.5q0 147 56.5 258.5t162.5 174t255 62.5q158 0 275.5 -86
t182 -248.5t64.5 -391.5q0 -234 -62.5 -405t-185 -264t-301.5 -93zM587 617q91 0 171 42.5t130.5 114.5t50.5 162q2 119 -42 213.5t-124.5 149.5t-188.5 55q-99 0 -174.5 -47.5t-117.5 -132.5t-42 -197q0 -163 83 -261.5t254 -98.5z" />
    <glyph glyph-name="colon" unicode=":" horiz-adv-x="401" 
d="M115 793v190h166v-190h-166zM115 6v189h166v-189h-166z" />
    <glyph glyph-name="semicolon" unicode=";" horiz-adv-x="437" 
d="M115 -272l106 272h-69v189h165v-167l-143 -294h-59zM144 791v191h165v-191h-165z" />
    <glyph glyph-name="less" unicode="&#x3c;" horiz-adv-x="1056" 
d="M927 317l-800 314v127l802 321v-132l-638 -252l636 -252v-126z" />
    <glyph glyph-name="equal" unicode="=" horiz-adv-x="1071" 
d="M127 868v104l817 2v-104zM127 432v104l817 2v-104z" />
    <glyph glyph-name="greater" unicode="&#x3e;" horiz-adv-x="1054" 
d="M129 317v126l636 252l-638 252v132l800 -321v-127z" />
    <glyph glyph-name="question" unicode="?" horiz-adv-x="1026" 
d="M420 327q0 115 39.5 201t97 155.5t115.5 133.5t97 134.5t39 160.5q0 114 -80 180t-212 66q-72 0 -141 -27.5t-122 -73t-75 -101.5l-119 43q64 124 186.5 195.5t270.5 71.5q130 0 225.5 -44t148 -123t52.5 -184q0 -104 -41 -182t-101.5 -144t-121 -132.5t-101.5 -145.5
t-41 -184h-116zM397 0v189h164v-189h-164z" />
    <glyph glyph-name="at" unicode="@" horiz-adv-x="1667" 
d="M854 -220q-177 0 -316 57t-236.5 157t-148.5 232t-51 282q0 158 56 299t160 249t247 170t316 62q125 0 246.5 -36.5t220.5 -112t157.5 -193.5t58.5 -283q0 -149 -49 -263t-134.5 -178t-190.5 -64q-74 0 -115.5 25t-55.5 83q-4 13 -8.5 13.5t-14.5 -10.5
q-43 -59 -109.5 -99t-164.5 -40q-70 0 -132 42.5t-99.5 120t-37.5 181.5q0 126 48 228.5t132 163t192 60.5q80 0 138 -35.5t91 -95.5q3 -4 7.5 -2.5t5.5 8.5l20 75h101l-76 -452q-15 -93 7 -128.5t76 -35.5q70 0 127.5 47.5t92.5 136t35 207.5q0 145 -50.5 247.5t-134 166.5
t-184.5 94t-201 30q-156 0 -279.5 -54t-209 -148.5t-131 -218t-45.5 -262.5q0 -128 42.5 -241t126 -200t208 -136t288.5 -49q89 0 151.5 17.5t113 47t101.5 64.5l61 -79q-92 -69 -207.5 -109.5t-245.5 -40.5zM741 236q67 0 125 39.5t97.5 104.5t51.5 143q14 101 -10.5 167
t-72 98t-101.5 32q-77 0 -134.5 -46t-89.5 -123t-32 -171q0 -113 43.5 -178.5t122.5 -65.5z" />
    <glyph glyph-name="A" unicode="A" horiz-adv-x="1402" 
d="M98 0l526 1446h155l525 -1446h-131l-156 430h-633l-156 -430h-130zM423 553h554l-277 768z" />
    <glyph glyph-name="B" unicode="B" horiz-adv-x="1324" 
d="M207 0v1446h432q252 0 387 -96.5t135 -278.5q0 -120 -62.5 -203.5t-215.5 -131.5q82 -16 142 -47.5t98 -75.5t56 -101t18 -125q0 -194 -141 -290.5t-407 -96.5h-442zM332 114h311q209 0 318.5 63.5t109.5 206.5q0 106 -54.5 169.5t-146 92t-202.5 28.5h-336v-560z
M332 789h336q63 0 128 11.5t120 41t89 81.5t34 132q0 145 -111 212t-289 67h-307v-545z" />
    <glyph glyph-name="C" unicode="C" horiz-adv-x="1344" 
d="M706 -20q-190 0 -322 86t-200.5 251.5t-68.5 405.5q0 241 68.5 406.5t200.5 251t322 85.5q148 0 261 -62.5t181 -164.5t81 -220h-136q-17 90 -66.5 165t-129.5 120t-192 45q-149 0 -249.5 -68t-151 -207t-50.5 -352q0 -319 113.5 -472t337.5 -153q112 0 192 45.5
t129.5 121.5t66.5 166h136q-10 -86 -49 -167t-105.5 -144.5t-159 -101t-209.5 -37.5z" />
    <glyph glyph-name="D" unicode="D" horiz-adv-x="1357" 
d="M207 0v1446q4 0 31 -0.5t68.5 -0.5t89.5 -0.5t93 -0.5q267 -2 433 -81.5t243 -236.5t77 -393q0 -248 -84 -410.5t-256 -242.5t-437 -80h-258zM339 116h123q210 0 354.5 59t219 193.5t74.5 358.5q0 232 -75 363t-217.5 185.5t-345.5 54.5h-133v-1214z" />
    <glyph glyph-name="E" unicode="E" horiz-adv-x="1225" 
d="M207 0v1446h866v-116h-741v-541h680v-117h-680v-552l765 -2v-118h-890z" />
    <glyph glyph-name="F" unicode="F" horiz-adv-x="1165" 
d="M207 0v1446h855l-1 -116h-722v-542h662v-116h-662v-672h-132z" />
    <glyph glyph-name="G" unicode="G" horiz-adv-x="1437" 
d="M708 -20q-186 0 -319 85.5t-203.5 250t-70.5 404.5q0 238 71.5 405t205.5 254t319 87q99 0 189 -36.5t161.5 -99t116 -142.5t51.5 -169h-136q-15 86 -68 161.5t-134.5 121.5t-180.5 46q-140 0 -244 -68.5t-161 -207t-57 -350.5q0 -162 33.5 -280t95 -194.5t147 -113.5
t188.5 -37q105 0 182 37.5t128 97.5t76.5 128.5t27.5 130.5l2 151h-381v99l509 -1v-740h-105v238q-38 -70 -99 -128.5t-146 -94t-198 -35.5z" />
    <glyph glyph-name="H" unicode="H" horiz-adv-x="1527" 
d="M207 0v1446h125v-636h864v636h124v-1446h-124v692h-864v-692h-125z" />
    <glyph glyph-name="I" unicode="I" horiz-adv-x="539" 
d="M207 0v1446h125v-1446h-125z" />
    <glyph glyph-name="J" unicode="J" horiz-adv-x="762" 
d="M324 -20q-81 0 -145.5 21.5t-80.5 30.5l17 126q32 -13 74.5 -33.5t111.5 -20.5q96 0 133 54.5t37 187.5v1100h125v-1139q0 -102 -24 -175.5t-83 -112.5t-165 -39z" />
    <glyph glyph-name="K" unicode="K" horiz-adv-x="1325" 
d="M207 0v1446h131v-796l715 796h157l-509 -573l544 -873h-147l-489 782l-271 -303v-479h-131z" />
    <glyph glyph-name="L" unicode="L" horiz-adv-x="1154" 
d="M207 0l2 1446h130v-1325h714v-121h-846z" />
    <glyph glyph-name="M" unicode="M" horiz-adv-x="1734" 
d="M207 0v1446h162l496 -1287l502 1287h160v-1446h-132v1204l-460 -1204h-141l-455 1191v-1191h-132z" />
    <glyph glyph-name="N" unicode="N" horiz-adv-x="1476" 
d="M207 0v1446h113l825 -1217v1217h124v-1446h-110l-827 1222v-1222h-125z" />
    <glyph glyph-name="O" unicode="O" horiz-adv-x="1437" 
d="M722 -20q-187 0 -323.5 85.5t-210 250.5t-73.5 404q0 240 74 406.5t210 253t323 86.5q186 0 321 -86t207.5 -252.5t72.5 -407.5q0 -238 -72.5 -403t-207.5 -251t-321 -86zM722 97q149 0 252.5 67t157 205.5t53.5 349.5q0 215 -54.5 354t-157.5 207.5t-251 68.5
t-253 -68.5t-160.5 -208.5t-55.5 -353q0 -212 55.5 -350t160.5 -205t253 -67z" />
    <glyph glyph-name="P" unicode="P" horiz-adv-x="1255" 
d="M207 0v1446h465q153 0 272.5 -50.5t187 -150.5t67.5 -247q0 -144 -65 -245.5t-179.5 -154t-264.5 -52.5h-351v-546h-132zM338 662h350q171 0 277 90.5t106 254.5t-108.5 244t-286.5 80h-338v-669z" />
    <glyph glyph-name="Q" unicode="Q" horiz-adv-x="1466" 
d="M1308 -240q-58 0 -133.5 18.5t-150 70t-131.5 151.5q-48 -9 -90 -14.5t-83 -5.5q-185 0 -320.5 83.5t-210 248t-74.5 408.5q0 242 73.5 408.5t209 252t322.5 85.5t322.5 -85.5t208 -252t72.5 -408.5q0 -238 -71 -404.5t-234 -260.5q43 -93 120 -135t170 -46v-114zM720 97
q223 0 344.5 151.5t121.5 470.5q0 314 -119.5 472t-346.5 158q-226 0 -346 -158.5t-120 -474.5q0 -317 121.5 -468t344.5 -151z" />
    <glyph glyph-name="R" unicode="R" horiz-adv-x="1331" 
d="M207 0v1446h532q147 0 249 -43.5t154.5 -126.5t52.5 -204q0 -120 -45.5 -198t-113.5 -123t-137 -67l293 -684h-137l-279 659h-444v-659h-125zM332 773h343q189 0 289.5 68.5t100.5 217.5q0 143 -87 209.5t-247 66.5h-399v-562z" />
    <glyph glyph-name="S" unicode="S" horiz-adv-x="1315" 
d="M667 -20q-103 0 -194.5 25t-164.5 74t-120.5 121t-62.5 167h134q21 -91 80 -152.5t146 -92.5t186 -31q106 0 192 34.5t137 98t51 150.5q0 93 -57.5 154.5t-187.5 97.5l-312 87q-94 25 -167 68.5t-115.5 114t-42.5 177.5q0 116 63.5 204t174 137.5t249.5 49.5
q165 0 276 -59.5t168 -153t57 -195.5h-133q-10 112 -65 176.5t-135.5 92.5t-171.5 28q-170 0 -260 -80t-90 -193q0 -102 63.5 -158.5t180.5 -88.5l312 -86q122 -32 193 -88t100.5 -127.5t29.5 -150.5q0 -114 -62.5 -205t-177.5 -143.5t-274 -52.5z" />
    <glyph glyph-name="T" unicode="T" horiz-adv-x="1161" 
d="M534 0v1327h-483v119h1059v-119h-450v-1327h-126z" />
    <glyph glyph-name="U" unicode="U" horiz-adv-x="1375" 
d="M707 -20q-174 0 -284.5 57t-163 172t-52.5 287v950h132v-981q0 -183 92.5 -277t275.5 -94q123 0 207 41t126.5 123.5t42.5 206.5v981h126v-975q0 -162 -54 -271t-165 -164.5t-283 -55.5z" />
    <glyph glyph-name="V" unicode="V" horiz-adv-x="1309" 
d="M573 0l-522 1446h128l476 -1309l475 1309h128l-522 -1446h-163z" />
    <glyph glyph-name="W" unicode="W" horiz-adv-x="1890" 
d="M462 0l-411 1446h131l349 -1262l357 1262h108l354 -1262l359 1262h130l-419 -1446h-136l-343 1219l-349 -1219h-130z" />
    <glyph glyph-name="X" unicode="X" horiz-adv-x="1344" 
d="M98 0l496 740l-476 706h153l400 -599l397 599h143l-471 -697l506 -749h-154l-428 638l-423 -638h-143z" />
    <glyph glyph-name="Y" unicode="Y" horiz-adv-x="1147" 
d="M515 0v621l-489 825h138l413 -709l407 709h136l-481 -827v-619h-124z" />
    <glyph glyph-name="Z" unicode="Z" horiz-adv-x="1237" 
d="M138 0v79l825 1253h-800v114h970v-77l-829 -1254h827v-115h-993z" />
    <glyph glyph-name="bracketleft" unicode="[" horiz-adv-x="568" 
d="M198 -322l-2 1768h326v-92h-206l-2 -1584h206v-92h-322z" />
    <glyph glyph-name="backslash" unicode="\" horiz-adv-x="667" 
d="M525 -100l-497 1546h111l498 -1546h-112z" />
    <glyph glyph-name="bracketright" unicode="]" horiz-adv-x="568" 
d="M48 -322v92h205l-1 1584h-206v92h325l-1 -1768h-322z" />
    <glyph glyph-name="asciicircum" unicode="^" horiz-adv-x="934" 
d="M710 263l-247 626l-249 -623h-113l290 716q17 45 43.5 61.5t54 2t46.5 -63.5l293 -719h-118z" />
    <glyph glyph-name="underscore" unicode="_" horiz-adv-x="995" 
d="M127 -215v107l739 2v-107z" />
    <glyph glyph-name="grave" unicode="`" horiz-adv-x="386" 
d="M271 1155l-261 291h160l206 -291h-105z" />
    <glyph glyph-name="a" unicode="a" horiz-adv-x="1091" 
d="M448 -20q-101 0 -176.5 35t-117 100t-41.5 156q0 173 115.5 254.5t376.5 89.5l215 7v91q0 109 -66 174t-203 65q-103 -1 -176.5 -49t-92.5 -152h-118q6 94 52 162t132.5 104.5t208.5 36.5t207.5 -37t131 -112t45.5 -187v-718h-109l-8 203q-64 -125 -163.5 -174
t-212.5 -49zM480 80q60 0 119.5 21.5t109.5 58.5t80.5 82.5t30.5 93.5v192l-180 -4q-145 -2 -233.5 -27.5t-129 -78t-40.5 -136.5q0 -95 67 -148.5t176 -53.5z" />
    <glyph glyph-name="b" unicode="b" horiz-adv-x="1180" 
d="M643 -20q-99 0 -165.5 26.5t-106.5 66t-60.5 78t-28.5 61.5l-12 -212h-102v1486h127v-629q9 21 34 54t67.5 65.5t105 55t147.5 22.5q195 0 312 -132.5t117 -400.5q0 -163 -48 -284.5t-144.5 -189t-242.5 -67.5zM628 84q143 0 231.5 108.5t88.5 339.5q0 191 -81 303.5
t-245 112.5q-119 0 -190 -50t-103.5 -143.5t-33.5 -222.5q0 -236 75 -342t258 -106z" />
    <glyph glyph-name="c" unicode="c" horiz-adv-x="1082" 
d="M565 -20q-137 0 -241.5 59t-163 177.5t-58.5 297.5q0 161 52 283t155 189.5t256 67.5q101 0 186 -37t143 -108t76 -175h-120q-11 63 -49 110.5t-98.5 74.5t-137.5 27q-149 0 -243.5 -106t-94.5 -326q0 -194 84.5 -312.5t255.5 -118.5q77 0 137 27.5t98 75.5t49 109h118
q-17 -102 -75.5 -172.5t-143.5 -106.5t-185 -36z" />
    <glyph glyph-name="d" unicode="d" horiz-adv-x="1180" 
d="M537 -20q-198 0 -316.5 135t-118.5 406q0 160 47.5 280t142.5 186.5t239 66.5q85 0 147.5 -22.5t105 -55t67.5 -65.5t35 -54v629h126v-1486h-102l-12 212q-8 -23 -28.5 -61.5t-60.5 -78t-106.5 -66t-165.5 -26.5zM553 84q182 0 257.5 106t75.5 342q-2 129 -34 222.5
t-103 143.5t-191 50q-146 0 -236 -101t-90 -315q0 -206 79.5 -327t241.5 -121z" />
    <glyph glyph-name="e" unicode="e" horiz-adv-x="1122" 
d="M585 -20q-140 0 -246 62t-166 180t-60 285q0 168 54 291t157 189.5t248 66.5q140 0 237 -60.5t148.5 -173.5t51.5 -271v-62h-767q0 -108 36 -199.5t112 -147t194 -55.5q112 0 192.5 53.5t99.5 148.5h123q-19 -102 -81 -170.5t-149.5 -102.5t-183.5 -34zM244 585h641
q0 103 -34 186t-103.5 131t-176.5 48q-114 0 -186.5 -54.5t-107 -138.5t-33.5 -172z" />
    <glyph glyph-name="f" unicode="f" horiz-adv-x="791" 
d="M318 0v937h-234v97h234v167q0 121 56.5 183t177.5 62h171v-96h-164q-69 0 -93 -37.5t-24 -109.5v-169h271v-97h-270v-937h-125z" />
    <glyph glyph-name="g" unicode="g" horiz-adv-x="1238" 
d="M582 -342q-225 0 -356.5 71t-131.5 211q0 58 25 99.5t60 70t66 46t41 25.5q-18 12 -40.5 25.5t-38.5 35.5t-16 57q0 45 42.5 82.5t124.5 58.5q-85 45 -135 118t-50 163q0 100 49 174t144 114.5t234 40.5q99 0 167.5 -23.5t128.5 -70.5q13 6 45.5 19.5t73 30.5t74 31
t48.5 20v-140l-183 -37q19 -35 30 -77t11 -81q0 -93 -44.5 -165t-136 -113t-229.5 -41h-20t-20 1q-133 -3 -182 -29t-49 -55q0 -32 45 -45t161 -22q43 -2 100.5 -5t129.5 -8q147 -9 232 -77.5t85 -193.5q0 -138 -119 -224.5t-366 -86.5zM607 -248q155 0 245 50.5t90 154.5
q0 70 -50.5 115.5t-155.5 52.5l-321 20q-34 2 -80 -22t-80.5 -68t-34.5 -101q0 -92 94.5 -147t292.5 -55zM588 496q129 0 207.5 56t78.5 170q0 119 -78.5 178t-207.5 59q-130 0 -210 -59.5t-80 -177.5q0 -108 75.5 -167t214.5 -59z" />
    <glyph glyph-name="h" unicode="h" horiz-adv-x="1136" 
d="M168 0v1486h120v-605q26 46 73.5 85t114 62t149.5 23q102 0 183.5 -37t129.5 -104t48 -156v-754h-125v721q0 105 -70.5 163t-189.5 58q-82 0 -152.5 -25.5t-113 -77.5t-42.5 -132v-707h-125z" />
    <glyph glyph-name="i" unicode="i" horiz-adv-x="472" 
d="M176 0v1034h122v-1034h-122zM168 1293v151h136v-151h-136z" />
    <glyph glyph-name="j" unicode="j" horiz-adv-x="496" 
d="M74 -332q-87 0 -107.5 10l-20.5 10v84l115 3q73 3 104 38t31 119v1102h125v-1111q0 -130 -51.5 -192.5t-195.5 -62.5zM188 1293v151h140v-151h-140z" />
    <glyph glyph-name="k" unicode="k" horiz-adv-x="1103" 
d="M168 0v1486h124v-1019l546 567h154l-371 -384l404 -650h-142l-349 560l-242 -248v-312h-124z" />
    <glyph glyph-name="l" unicode="l" horiz-adv-x="577" 
d="M390 -10q-65 0 -108.5 20.5t-68.5 57t-35 84t-10 101.5v1233h123v-1226q0 -90 34 -131t83 -42l59 -1v-84q-19 -6 -40.5 -9t-36.5 -3z" />
    <glyph glyph-name="m" unicode="m" horiz-adv-x="1695" 
d="M168 0v1034h119v-152q40 69 112 120.5t192 51.5q58 0 118.5 -19.5t109.5 -57.5t74 -94q47 79 129.5 125t186.5 46q53 0 112 -15t109.5 -55.5t82.5 -115.5t32 -195v-673h-124v665q0 111 -34 171t-88 83.5t-116 23.5q-55 0 -116.5 -21t-105 -72t-43.5 -143v-707h-125v734
q0 70 -36.5 116t-91 69.5t-108.5 23.5q-59 0 -120 -24t-102.5 -76t-41.5 -136v-707h-125z" />
    <glyph glyph-name="n" unicode="n" horiz-adv-x="1136" 
d="M168 0v1034h119v-152q26 46 73.5 85t114 62t149.5 23q100 0 182.5 -40.5t131 -124t48.5 -214.5v-673h-124v665q0 142 -71 209.5t-190 67.5q-81 0 -152 -25.5t-113.5 -77.5t-42.5 -132v-707h-125z" />
    <glyph glyph-name="o" unicode="o" horiz-adv-x="1119" 
d="M562 -20q-138 0 -241.5 59.5t-161 178t-57.5 295.5q0 163 51.5 284.5t154 189t254.5 67.5q138 0 239.5 -60.5t158.5 -180.5t57 -300q0 -159 -50.5 -279t-151.5 -187t-253 -67zM562 85q102 0 175.5 49t113.5 145t40 237q0 126 -35 223.5t-107.5 153t-186.5 55.5
q-103 0 -177.5 -48.5t-115 -145t-40.5 -238.5q0 -126 35 -223t109 -152.5t189 -55.5z" />
    <glyph glyph-name="p" unicode="p" horiz-adv-x="1178" 
d="M168 -322v1356h123l4 -198q13 30 39 67t68 71.5t102 57t141 22.5q128 0 225 -56t151.5 -171.5t54.5 -292.5q0 -172 -49.5 -296t-147 -191t-241.5 -67q-80 0 -139 23t-99.5 58.5t-66 74t-39.5 69.5v-527h-126zM623 85q147 0 237 108t90 334q0 191 -81.5 306t-245.5 115
q-162 0 -246.5 -115t-84.5 -306q0 -126 37.5 -226t111.5 -158t182 -58z" />
    <glyph glyph-name="q" unicode="q" horiz-adv-x="1178" 
d="M884 -322v527q-14 -31 -39.5 -69.5t-66 -74t-99.5 -58.5t-139 -23q-129 0 -227.5 59t-154.5 181.5t-56 313.5q0 160 48 276.5t144.5 180t238.5 63.5q82 0 141.5 -22.5t101.5 -57t68 -71.5t39 -67l4 198h123v-1356h-126zM555 85q108 0 182 58t111.5 158t37.5 226
q0 191 -84 306t-247 115q-145 0 -236 -103.5t-91 -317.5q0 -202 82 -322t245 -120z" />
    <glyph glyph-name="r" unicode="r" horiz-adv-x="758" 
d="M168 0v1034h118v-174q26 72 74 114.5t106 61t114 18.5q27 0 54 -4t43 -13v-123q-18 8 -47.5 11.5t-49.5 3.5q-48 2 -98 -9t-93 -38.5t-69.5 -75.5t-26.5 -120v-686h-125z" />
    <glyph glyph-name="s" unicode="s" horiz-adv-x="988" 
d="M516 -20q-108 0 -196.5 33t-144.5 101t-70 173h120q14 -64 51.5 -109.5t98.5 -70t141 -24.5q116 0 187 46t71 142q0 65 -35.5 104.5t-106.5 58.5l-232 61q-118 31 -188 91.5t-70 169.5q0 88 40.5 155t123.5 105t207 38q156 0 253.5 -71t103.5 -213h-119q-10 82 -70 132
t-168 50q-112 0 -181.5 -46.5t-69.5 -144.5q0 -64 46.5 -100t133.5 -58l229 -62q63 -17 105.5 -45.5t68 -63.5t37 -75t11.5 -79q0 -91 -42.5 -157.5t-126.5 -103.5t-208 -37z" />
    <glyph glyph-name="t" unicode="t" horiz-adv-x="748" 
d="M510 -2q-91 0 -141 26t-70 79.5t-20 136.5v697h-168v97h170l28 295h95v-295h235v-97h-235v-694q0 -65 12 -94.5t43.5 -37.5t89.5 -8h99v-92q-19 -7 -55.5 -10t-82.5 -3z" />
    <glyph glyph-name="u" unicode="u" horiz-adv-x="1145" 
d="M548 -20q-86 1 -158.5 23.5t-126.5 67t-84 112t-30 157.5v694h125v-686q0 -117 71 -189.5t218 -72.5q130 0 210 68t80 208v672h124v-1034h-105l-12 193q-18 -70 -61 -117.5t-106.5 -72t-144.5 -23.5z" />
    <glyph glyph-name="v" unicode="v" horiz-adv-x="991" 
d="M424 0l-365 1034h123l302 -883h22l307 883h119l-363 -1034h-145z" />
    <glyph glyph-name="w" unicode="w" horiz-adv-x="1550" 
d="M376 0l-311 1034h122l259 -881h21l257 881h101l270 -878h21l247 878h122l-299 -1034h-153l-259 840l-243 -840h-155z" />
    <glyph glyph-name="x" unicode="x" horiz-adv-x="1102" 
d="M78 0l399 537l-368 497h143l299 -404l300 404h143l-369 -497l399 -537h-142l-331 444l-329 -444h-144z" />
    <glyph glyph-name="y" unicode="y" horiz-adv-x="1038" 
d="M239 -330q-83 0 -111.5 10l-28.5 10v83l108 -1q52 -1 88.5 9t60 27.5t38 39.5t24.5 46l45 120l-404 1020h129l338 -868l332 868h122l-445 -1152q-32 -80 -76 -126.5t-99 -66t-121 -19.5z" />
    <glyph glyph-name="z" unicode="z" horiz-adv-x="944" 
d="M84 0v89l625 847h-601v98h745v-89l-623 -847h630v-98h-776z" />
    <glyph glyph-name="braceleft" unicode="{" horiz-adv-x="592" 
d="M473 -322q-78 0 -130 24.5t-78 68t-26 100.5v447q0 47 -24.5 93t-75 76.5t-126.5 30.5v92q115 1 170.5 61.5t55.5 148.5v438q0 57 27.5 99t79 65.5t124.5 23.5h76v-92h-63q-48 0 -75 -11.5t-38 -34t-11 -57.5v-441q-1 -77 -27 -128.5t-69.5 -78t-93.5 -31.5
q-12 -1 -12.5 -6.5t12.5 -7.5q49 -4 92.5 -28.5t70 -75t27.5 -131.5v-445q0 -55 26 -81.5t99 -26.5h62v-92h-73z" />
    <glyph glyph-name="bar" unicode="|" horiz-adv-x="521" 
d="M209 -322l-2 1974h106v-1974h-104z" />
    <glyph glyph-name="braceright" unicode="}" horiz-adv-x="605" 
d="M44 -322v92h61q74 0 100 26.5t26 81.5v445q0 81 27 131.5t70 75t92 28.5q14 2 13 7.5t-13 6.5q-50 5 -93 31.5t-69.5 78t-26.5 128.5v441q0 35 -11 57.5t-38.5 34t-74.5 11.5h-63v92h75q73 0 124.5 -23.5t79 -65.5t27.5 -99v-438q0 -88 55.5 -148.5t170.5 -61.5v-92
q-76 0 -125.5 -30.5t-75 -76.5t-25.5 -93v-447q0 -57 -26 -100.5t-78 -68t-129 -24.5h-73z" />
    <glyph glyph-name="asciitilde" unicode="~" horiz-adv-x="1086" 
d="M155 632l-37 82q47 44 103 78.5t142 34.5q54 0 100 -14.5t88.5 -33t86.5 -33t95 -14.5q76 0 120 30t73 64l39 -84q-27 -41 -85 -73t-148 -32q-58 0 -104 14t-86 32.5t-81.5 33t-93.5 14.5q-76 0 -126 -31t-86 -68z" />
    <glyph glyph-name="uni00A0" unicode="&#xa0;" horiz-adv-x="505" 
 />
    <glyph glyph-name="exclamdown" unicode="&#xa1;" horiz-adv-x="467" 
d="M155 -322l32 1031h90l33 -1031h-155zM149 845v189h164v-189h-164z" />
    <glyph glyph-name="cent" unicode="&#xa2;" horiz-adv-x="1064" 
d="M571 202q-137 0 -241.5 59t-163 177.5t-58.5 297.5q0 161 52 283t155 189.5t256 67.5q101 0 186 -37t143 -108t76 -175h-120q-11 63 -49 110.5t-98 74.5t-138 27q-149 0 -243.5 -106t-94.5 -326q0 -194 84.5 -312.5t255.5 -118.5q77 0 137 27.5t98 75.5t49 109h118
q-17 -102 -75.5 -172.5t-143.5 -106.5t-185 -36zM512 0v258h105v-258h-105zM512 1188v258h105v-258h-105z" />
    <glyph glyph-name="sterling" unicode="&#xa3;" horiz-adv-x="1187" 
d="M25 0v112h79q76 0 130.5 75t54.5 238q0 52 -5 115.5t-20 152.5h-200v94h185l-35 156q-28 122 -7 218t78 164.5t139 104.5t176 36q88 0 164.5 -29.5t132 -77t78.5 -103.5l-113 -46q-35 68 -93 104t-156 36q-77 0 -140 -30t-100.5 -86.5t-37.5 -136.5q0 -65 14.5 -149
t39.5 -160h339v-93h-327q13 -72 18 -127.5t3 -112.5q-1 -101 -22.5 -169.5t-48 -110t-45.5 -61.5h392q106 0 172.5 36.5t101.5 128.5l111 -35q-46 -123 -142.5 -183.5t-237.5 -60.5h-678z" />
    <glyph glyph-name="currency" unicode="&#xa4;" horiz-adv-x="1036" 
d="M188 329l-70 76l112 110q-34 47 -50.5 100t-16.5 113q0 111 60 196q8 15 -3 26l-100 102l72 72l112 -116q43 34 98 51.5t111 17.5q112 0 196 -61q14 -8 25 2l106 106l70 -73l-116 -115q33 -45 51 -97.5t18 -110.5q0 -54 -15 -104.5t-45 -90.5q-9 -15 2 -25l107 -102
l-71 -72l-115 114q-46 -34 -99.5 -53.5t-111.5 -19.5q-111 0 -200 61q-15 11 -25 -3zM517 485q69 0 124 33.5t86.5 89t31.5 120.5q0 64 -31.5 119.5t-86.5 89.5t-124 34q-70 0 -125 -34t-86.5 -89.5t-31.5 -119.5q0 -65 31.5 -120.5t86.5 -89t125 -33.5z" />
    <glyph glyph-name="yen" unicode="&#xa5;" horiz-adv-x="1169" 
d="M519 0v605l-498 841h162l413 -708l415 708h137l-487 -808v-638h-142zM210 290v92l760 2v-93zM210 572v93l760 1v-92z" />
    <glyph glyph-name="brokenbar" unicode="&#xa6;" horiz-adv-x="521" 
d="M209 858l-2 794h106v-794h-104zM209 -322l-2 794h106v-794h-104z" />
    <glyph glyph-name="section" unicode="&#xa7;" horiz-adv-x="956" 
d="M497 -137q-88 0 -169.5 29t-145.5 80.5t-100 120.5l90 51q48 -78 133.5 -129.5t195.5 -51.5q105 0 174.5 42.5t69.5 120.5q0 55 -44.5 105.5t-169.5 100.5l-182 70q-129 50 -184.5 119.5t-55.5 158.5q0 93 59.5 159t147.5 100q-84 43 -128.5 86t-60 87t-15.5 90
q0 75 44.5 135t125.5 94.5t189 34.5q84 0 155 -27t125 -71.5t88 -96.5l-91 -52q-48 62 -114.5 104.5t-153.5 42.5q-116 0 -181 -42.5t-65 -112.5q0 -48 37 -94t143 -89l171 -70q152 -62 216.5 -139.5t64.5 -175.5q0 -101 -57 -159t-130 -95q90 -51 140 -111.5t50 -143.5
q0 -78 -46.5 -139.5t-130 -96.5t-195.5 -35zM542 450q54 -4 100.5 19.5t75 65t27.5 90.5q-1 68 -35 118t-145 95l-120 46q-59 -4 -108.5 -32t-80 -70t-30.5 -88q0 -59 36.5 -100t149.5 -88z" />
    <glyph glyph-name="dieresis" unicode="&#xa8;" horiz-adv-x="495" 
d="M356 1300v146h129l-1 -146h-128zM10 1300l1 146h128v-146h-129z" />
    <glyph glyph-name="copyright" unicode="&#xa9;" horiz-adv-x="1618" 
d="M808 -20q-154 0 -289 57.5t-237 159.5t-159.5 237t-57.5 290q0 153 57.5 287.5t159.5 236.5t237 160t289 58q153 0 287.5 -58t237 -160t160.5 -236.5t58 -287.5q0 -155 -58 -290t-160.5 -237t-237 -159.5t-287.5 -57.5zM813 311q-112 0 -196.5 52t-131.5 146t-47 218
t48 219t132.5 148.5t194.5 53.5q76 0 135.5 -27.5t105 -73.5t79.5 -101l-101 -38q-41 71 -94 109t-119 38q-115 0 -189 -88t-74 -236q0 -149 74.5 -238.5t189.5 -89.5q78 0 139 44.5t98 114.5l80 -38q-24 -44 -57.5 -82.5t-74 -68t-88.5 -46t-104 -16.5zM808 83
q128 0 242.5 45t203 129t139 202.5t50.5 264.5q0 144 -50.5 262t-139 203t-203 130.5t-242.5 45.5q-131 0 -246 -45.5t-203 -130.5t-137.5 -203t-49.5 -262q0 -146 49.5 -264.5t137.5 -202.5t203 -129t246 -45z" />
    <glyph glyph-name="ordfeminine" unicode="&#xaa;" horiz-adv-x="821" 
d="M331 791q-103 0 -160.5 47.5t-57.5 131.5q0 94 81 148t235 67l128 11v49q0 72 -43 105t-121 33q-58 0 -100.5 -21t-79.5 -80l-84 28q35 72 104 111.5t168 39.5q125 0 187.5 -59t62.5 -161v-136v-91q0 -18 1 -40t2.5 -45.5t4.5 -47.5l12 -78h-99l-17 93
q-53 -54 -105.5 -79.5t-118.5 -25.5zM358 865q85 0 145 57q26 23 40 45t14 47v112l-106 -9q-121 -8 -179.5 -45.5t-58.5 -97.5q0 -49 40 -79t105 -30z" />
    <glyph glyph-name="guillemotleft" unicode="&#xab;" horiz-adv-x="859" 
d="M682 147l-275 355l277 371h78l-224 -371l220 -355h-76zM344 147l-275 355l277 371h78l-224 -371l220 -355h-76z" />
    <glyph glyph-name="logicalnot" unicode="&#xac;" horiz-adv-x="1071" 
d="M127 673v105l817 1v-104zM836 396l-1 356h109v-356h-108z" />
    <glyph glyph-name="uni00AD" unicode="&#xad;" horiz-adv-x="738" 
d="M125 463v107l487 2v-108z" />
    <glyph glyph-name="registered" unicode="&#xae;" horiz-adv-x="1062" 
d="M531 536q-130 0 -235.5 62t-168 167.5t-62.5 234.5t62.5 235t168 168.5t235.5 62.5q128 0 233.5 -62.5t168 -168.5t62.5 -235t-62.5 -234.5t-168 -167.5t-233.5 -62zM530 615q113 0 199 47t134.5 133.5t48.5 204.5q0 117 -48.5 204t-134.5 135t-199 48t-200 -48
t-135 -135t-48 -204q0 -118 48 -204.5t135 -133.5t200 -47zM357 766v462h203q72 0 111.5 -29t39.5 -85t-31.5 -84t-66.5 -40l88 -224h-76l-81 218h-117v-218h-70zM427 1045h121q36 0 63 12.5t27 48.5q0 25 -19 43.5t-77 18.5h-115v-123z" />
    <glyph glyph-name="macron" unicode="&#xaf;" horiz-adv-x="583" 
d="M22 1252v99h536v-99h-536z" />
    <glyph glyph-name="degree" unicode="&#xb0;" horiz-adv-x="914" 
d="M455 1069q-87 0 -155 38.5t-107 107t-39 155.5q0 89 39 157.5t107 107.5t155 39t155 -39t107.5 -107.5t39.5 -157.5q0 -87 -39.5 -155.5t-107.5 -107t-155 -38.5zM453 1160q93 0 146 58t53 150q0 93 -53.5 151t-147.5 58q-91 0 -145.5 -58t-53.5 -151q2 -92 55.5 -150
t145.5 -58z" />
    <glyph glyph-name="plusminus" unicode="&#xb1;" horiz-adv-x="1071" 
d="M127 142v104l817 2v-104zM588 922l356 1v-105h-356v-356h-103v356l-358 -1v104l358 1l-1 358h104v-358z" />
    <glyph glyph-name="uni00B2" unicode="&#xb2;" horiz-adv-x="705" 
d="M68 746v64v31q0 83 35 139.5t89.5 98t116 75t116 69.5t89.5 82.5t35 112.5q0 76 -53.5 122t-143.5 46q-94 0 -153 -52.5t-63 -144.5h-89q1 75 37 138.5t104.5 102t168.5 38.5q129 0 205.5 -69t76.5 -181q0 -83 -34 -139.5t-88.5 -97t-115.5 -73.5t-115 -68t-88 -80.5
t-34 -112.5v-19h484v-82h-580z" />
    <glyph glyph-name="uni00B3" unicode="&#xb3;" horiz-adv-x="777" 
d="M374 736q-133 2 -218.5 76.5t-88.5 191.5h90q11 -88 71.5 -137.5t150.5 -49.5q107 0 172 49t65 129q0 86 -68.5 137t-184.5 52h-81v80l79 1q63 0 114.5 24t83 62.5t31.5 84.5q0 59 -53 106t-157 47q-50 0 -98.5 -21t-79.5 -64t-31 -110h-89q-1 81 38 143t106.5 96.5
t152.5 34.5q91 0 159 -28t106.5 -79.5t38.5 -122.5q0 -68 -43 -122t-124 -86q90 -27 142 -86.5t52 -146.5q0 -81 -43.5 -140t-118.5 -90.5t-174 -30.5z" />
    <glyph glyph-name="acute" unicode="&#xb4;" horiz-adv-x="386" 
d="M10 1155l206 291h159l-260 -291h-105z" />
    <glyph glyph-name="uni00B5" unicode="&#xb5;" horiz-adv-x="1150" 
d="M149 -330v1390h128v-758q0 -54 31 -100t83.5 -74t115.5 -28q91 0 177.5 53.5t168.5 143.5v763h129l-1 -1060h-122v164q-108 -89 -184 -128t-163 -41q-68 -2 -126 15.5t-109 62.5v-403h-128z" />
    <glyph glyph-name="paragraph" unicode="&#xb6;" horiz-adv-x="1074" 
d="M528 -166v759q-134 2 -229.5 59.5t-146 151t-50.5 201.5q0 111 50.5 212t152 165t252.5 64h367v-85h-119v-1527h-92v1527h-92v-1527h-93z" />
    <glyph glyph-name="periodcentered" unicode="&#xb7;" horiz-adv-x="426" 
d="M115 637v183h191v-183h-191z" />
    <glyph glyph-name="cedilla" unicode="&#xb8;" horiz-adv-x="415" 
d="M186 -404q-48 0 -89.5 12t-77.5 36l26 65q23 -19 53 -32t74 -13q59 0 86 21t27 58q0 45 -37 67t-117 24q-9 0 -10.5 3t0.5 8l72 165h80l-49 -122q64 -5 100.5 -26.5t51 -53t14.5 -62.5q0 -50 -28 -83.5t-74 -50t-102 -16.5z" />
    <glyph glyph-name="uni00B9" unicode="&#xb9;" horiz-adv-x="461" 
d="M229 744v741h-182v69q121 -1 162 20.5t42 79.5h69v-910h-91z" />
    <glyph glyph-name="ordmasculine" unicode="&#xba;" horiz-adv-x="815" 
d="M407 794q-97 0 -165 42.5t-104 117.5t-36 172q0 101 37.5 177t106 118.5t161.5 42.5q95 0 163.5 -42.5t105.5 -118.5t37 -177q0 -97 -36 -172t-104.5 -117.5t-165.5 -42.5zM407 872q100 0 151 70.5t51 189.5q0 114 -51 183t-151 69q-99 0 -149.5 -69t-50.5 -183
q0 -119 50.5 -189.5t149.5 -70.5z" />
    <glyph glyph-name="guillemotright" unicode="&#xbb;" horiz-adv-x="921" 
d="M465 147l220 355l-223 371h76l277 -371l-275 -355h-75zM128 147l219 355l-223 371h76l277 -371l-274 -355h-75z" />
    <glyph glyph-name="onequarter" unicode="&#xbc;" horiz-adv-x="1539" 
d="M229 536v741h-182v69q121 -1 162 20.5t42 79.5h69v-910h-91zM299 -8l-99 1l977 1469h94zM1250 1v247h-429v86l427 577h89v-582h155v-81h-155v-247h-87zM911 329h336v452z" />
    <glyph glyph-name="onehalf" unicode="&#xbd;" horiz-adv-x="1693" 
d="M229 536v741h-182v69q121 -1 162 20.5t42 79.5h69v-910h-91zM299 -8l-99 1l977 1469h94zM1056 -2v64v31q0 83 35 139.5t89.5 98t116 75t116 69.5t89.5 82.5t35 112.5q0 76 -53.5 122t-143.5 46q-94 0 -153 -52.5t-63 -144.5h-89q1 75 37 138.5t104.5 102t168.5 38.5
q129 0 205.5 -69t76.5 -181q0 -83 -34 -139.5t-88.5 -97t-115.5 -73.5t-115 -68t-88 -80.5t-34 -112.5v-19h484v-82h-580z" />
    <glyph glyph-name="threequarters" unicode="&#xbe;" horiz-adv-x="1791" 
d="M374 526q-133 2 -218.5 76.5t-88.5 191.5h90q11 -88 71.5 -137.5t150.5 -49.5q107 0 172 49t65 129q0 86 -68.5 137t-184.5 52h-81v80l79 1q63 0 114.5 24t83 62.5t31.5 84.5q0 59 -53 106t-157 47q-50 0 -98.5 -21t-79.5 -64t-31 -110h-89q-1 81 38 143t106.5 96.5
t152.5 34.5q91 0 159 -28t106.5 -79.5t38.5 -122.5q0 -68 -43 -122t-124 -86q90 -27 142 -86.5t52 -146.5q0 -81 -43.5 -140t-118.5 -90.5t-174 -30.5zM551 -8l-99 1l977 1469h94zM1501 1v247h-429v86l427 577h89v-582h155v-81h-155v-247h-87zM1162 329h336v452z" />
    <glyph glyph-name="questiondown" unicode="&#xbf;" horiz-adv-x="1007" 
d="M487 -342q-132 0 -227.5 44.5t-146.5 124t-51 184.5q0 83 29.5 142.5t75 106.5t98 90t98 92.5t75 113.5t29.5 154h116q0 -99 -28 -170t-72 -123.5t-94 -96.5t-94 -87.5t-72 -95.5t-28 -123q0 -113 80 -180t213 -67q71 0 140.5 27.5t122.5 73.5t75 102l118 -45
q-63 -123 -184.5 -195t-272.5 -72zM443 845v189h165v-189h-165z" />
    <glyph glyph-name="Agrave" unicode="&#xc0;" horiz-adv-x="1402" 
d="M98 0l526 1446h155l525 -1446h-131l-156 430h-633l-156 -430h-130zM423 553h554l-277 768zM658 1567l-261 291h160l206 -291h-105z" />
    <glyph glyph-name="Aacute" unicode="&#xc1;" horiz-adv-x="1402" 
d="M98 0l526 1446h155l525 -1446h-131l-156 430h-633l-156 -430h-130zM423 553h554l-277 768zM636 1567l206 291h159l-260 -291h-105z" />
    <glyph glyph-name="Acircumflex" unicode="&#xc2;" horiz-adv-x="1402" 
d="M98 0l526 1446h155l525 -1446h-131l-156 430h-633l-156 -430h-130zM423 553h554l-277 768zM412 1567l244 205h94l239 -205h-144l-144 124l-154 -124h-135z" />
    <glyph glyph-name="Atilde" unicode="&#xc3;" horiz-adv-x="1402" 
d="M98 0l526 1446h155l525 -1446h-131l-156 430h-633l-156 -430h-130zM423 553h554l-277 768zM456 1648l-29 84q31 27 66 46.5t86 19.5q45 0 84.5 -13t78.5 -26.5t82 -13.5q41 0 69 13.5t57 34.5l30 -92q-24 -16 -60 -34t-97 -18q-52 0 -89 12.5t-71 25t-76 12.5
q-49 0 -77 -16.5t-54 -34.5z" />
    <glyph glyph-name="Adieresis" unicode="&#xc4;" horiz-adv-x="1402" 
d="M98 0l526 1446h155l525 -1446h-131l-156 430h-633l-156 -430h-130zM423 553h554l-277 768zM810 1712v146h129l-1 -146h-128zM464 1712l1 146h128v-146h-129z" />
    <glyph glyph-name="Aring" unicode="&#xc5;" horiz-adv-x="1402" 
d="M98 0l526 1446h155l525 -1446h-131l-156 430h-633l-156 -430h-130zM423 553h554l-277 768zM701 1576q-84 0 -141.5 58.5t-57.5 144.5q0 80 58.5 136t140.5 56q56 0 101.5 -26t72.5 -70.5t27 -99.5q0 -84 -58 -141.5t-143 -57.5zM699 1661q46 0 78 34.5t32 78.5
q0 50 -32 80.5t-78 30.5q-44 0 -78 -30.5t-34 -80.5q0 -44 34 -78.5t78 -34.5z" />
    <glyph glyph-name="AE" unicode="&#xc6;" horiz-adv-x="1874" 
d="M0 0l815 1446h905l-1 -114h-691v-545h631v-113h-631v-560h718v-114h-860v436h-510l-246 -436h-130zM430 553h456v792z" />
    <glyph glyph-name="Ccedilla" unicode="&#xc7;" horiz-adv-x="1344" 
d="M669 -404q-49 0 -90 12t-78 36l26 65q24 -19 53.5 -32t74.5 -13q59 0 85.5 21t26.5 58q0 45 -36.5 67t-117.5 24q-8 0 -10 3t0 8l73 165h79l-48 -122q64 -5 100 -26.5t51 -53t15 -62.5q0 -50 -28 -83.5t-74.5 -50t-101.5 -16.5zM706 -20q-190 0 -322 86t-200.5 251.5
t-68.5 405.5q0 241 68.5 406.5t200.5 251t322 85.5q148 0 261 -62.5t181 -164.5t81 -220h-136q-17 90 -66.5 165t-129.5 120t-192 45q-149 0 -249.5 -68t-151 -207t-50.5 -352q0 -319 113.5 -472t337.5 -153q112 0 192 45.5t129.5 121.5t66.5 166h136q-10 -86 -49 -167
t-105.5 -144.5t-159 -101t-209.5 -37.5z" />
    <glyph glyph-name="Egrave" unicode="&#xc8;" horiz-adv-x="1225" 
d="M207 0v1446h866v-116h-741v-541h680v-117h-680v-552l765 -2v-118h-890zM601 1567l-261 291h160l206 -291h-105z" />
    <glyph glyph-name="Eacute" unicode="&#xc9;" horiz-adv-x="1225" 
d="M207 0v1446h866v-116h-741v-541h680v-117h-680v-552l765 -2v-118h-890zM579 1567l206 291h159l-260 -291h-105z" />
    <glyph glyph-name="Ecircumflex" unicode="&#xca;" horiz-adv-x="1225" 
d="M207 0v1446h866v-116h-741v-541h680v-117h-680v-552l765 -2v-118h-890zM355 1567l244 205h94l239 -205h-144l-144 124l-154 -124h-135z" />
    <glyph glyph-name="Edieresis" unicode="&#xcb;" horiz-adv-x="1225" 
d="M207 0v1446h866v-116h-741v-541h680v-117h-680v-552l765 -2v-118h-890zM753 1712v146h129l-1 -146h-128zM407 1712l1 146h128v-146h-129z" />
    <glyph glyph-name="Igrave" unicode="&#xcc;" horiz-adv-x="539" 
d="M207 0v1446h125v-1446h-125zM227 1567l-261 291h160l206 -291h-105z" />
    <glyph glyph-name="Iacute" unicode="&#xcd;" horiz-adv-x="539" 
d="M207 0v1446h125v-1446h-125zM205 1567l206 291h159l-260 -291h-105z" />
    <glyph glyph-name="Icircumflex" unicode="&#xce;" horiz-adv-x="539" 
d="M207 0v1446h125v-1446h-125zM-19 1567l244 205h94l239 -205h-144l-144 124l-154 -124h-135z" />
    <glyph glyph-name="Idieresis" unicode="&#xcf;" horiz-adv-x="539" 
d="M207 0v1446h125v-1446h-125zM379 1712v146h129l-1 -146h-128zM33 1712l1 146h128v-146h-129z" />
    <glyph glyph-name="Eth" unicode="&#xd0;" horiz-adv-x="1367" 
d="M70 671v110h628v-110h-628zM217 0v1446q4 0 31 -0.5t68 -0.5t89 -0.5t94 -0.5q267 -2 433 -81.5t243 -236.5t77 -393q0 -248 -84 -410.5t-256.5 -242.5t-436.5 -80h-258zM348 116h123q210 0 354.5 59t219.5 193.5t75 358.5q0 232 -75.5 363t-218 185.5t-344.5 54.5h-134
v-1214z" />
    <glyph glyph-name="Ntilde" unicode="&#xd1;" horiz-adv-x="1476" 
d="M207 0v1446h113l825 -1217v1217h124v-1446h-110l-827 1222v-1222h-125zM493 1648l-29 84q31 27 66 46.5t86 19.5q45 0 84.5 -13t78.5 -26.5t82 -13.5q41 0 69 13.5t57 34.5l30 -92q-24 -16 -60 -34t-97 -18q-52 0 -89 12.5t-71 25t-76 12.5q-49 0 -77 -16.5t-54 -34.5z
" />
    <glyph glyph-name="Ograve" unicode="&#xd2;" horiz-adv-x="1437" 
d="M722 -20q-187 0 -323.5 85.5t-210 250.5t-73.5 404q0 240 74 406.5t210 253t323 86.5q186 0 321 -86t207.5 -252.5t72.5 -407.5q0 -238 -72.5 -403t-207.5 -251t-321 -86zM722 97q149 0 252.5 67t157 205.5t53.5 349.5q0 215 -54.5 354t-157.5 207.5t-251 68.5
t-253 -68.5t-160.5 -208.5t-55.5 -353q0 -212 55.5 -350t160.5 -205t253 -67zM680 1567l-261 291h160l206 -291h-105z" />
    <glyph glyph-name="Oacute" unicode="&#xd3;" horiz-adv-x="1437" 
d="M722 -20q-187 0 -323.5 85.5t-210 250.5t-73.5 404q0 240 74 406.5t210 253t323 86.5q186 0 321 -86t207.5 -252.5t72.5 -407.5q0 -238 -72.5 -403t-207.5 -251t-321 -86zM722 97q149 0 252.5 67t157 205.5t53.5 349.5q0 215 -54.5 354t-157.5 207.5t-251 68.5
t-253 -68.5t-160.5 -208.5t-55.5 -353q0 -212 55.5 -350t160.5 -205t253 -67zM658 1567l206 291h159l-260 -291h-105z" />
    <glyph glyph-name="Ocircumflex" unicode="&#xd4;" horiz-adv-x="1437" 
d="M722 -20q-187 0 -323.5 85.5t-210 250.5t-73.5 404q0 240 74 406.5t210 253t323 86.5q186 0 321 -86t207.5 -252.5t72.5 -407.5q0 -238 -72.5 -403t-207.5 -251t-321 -86zM722 97q149 0 252.5 67t157 205.5t53.5 349.5q0 215 -54.5 354t-157.5 207.5t-251 68.5
t-253 -68.5t-160.5 -208.5t-55.5 -353q0 -212 55.5 -350t160.5 -205t253 -67zM434 1567l244 205h94l239 -205h-144l-144 124l-154 -124h-135z" />
    <glyph glyph-name="Otilde" unicode="&#xd5;" horiz-adv-x="1437" 
d="M722 -20q-187 0 -323.5 85.5t-210 250.5t-73.5 404q0 240 74 406.5t210 253t323 86.5q186 0 321 -86t207.5 -252.5t72.5 -407.5q0 -238 -72.5 -403t-207.5 -251t-321 -86zM722 97q149 0 252.5 67t157 205.5t53.5 349.5q0 215 -54.5 354t-157.5 207.5t-251 68.5
t-253 -68.5t-160.5 -208.5t-55.5 -353q0 -212 55.5 -350t160.5 -205t253 -67zM478 1648l-29 84q31 27 66 46.5t86 19.5q45 0 84.5 -13t78.5 -26.5t82 -13.5q41 0 69 13.5t57 34.5l30 -92q-24 -16 -60 -34t-97 -18q-52 0 -89 12.5t-71 25t-76 12.5q-49 0 -77 -16.5t-54 -34.5
z" />
    <glyph glyph-name="Odieresis" unicode="&#xd6;" horiz-adv-x="1437" 
d="M722 -20q-187 0 -323.5 85.5t-210 250.5t-73.5 404q0 240 74 406.5t210 253t323 86.5q186 0 321 -86t207.5 -252.5t72.5 -407.5q0 -238 -72.5 -403t-207.5 -251t-321 -86zM722 97q149 0 252.5 67t157 205.5t53.5 349.5q0 215 -54.5 354t-157.5 207.5t-251 68.5
t-253 -68.5t-160.5 -208.5t-55.5 -353q0 -212 55.5 -350t160.5 -205t253 -67zM832 1712v146h129l-1 -146h-128zM486 1712l1 146h128v-146h-129z" />
    <glyph glyph-name="multiply" unicode="&#xd7;" horiz-adv-x="1038" 
d="M204 335l-75 76l705 708l75 -73zM835 335l-708 707l75 74l709 -705z" />
    <glyph glyph-name="Oslash" unicode="&#xd8;" horiz-adv-x="1472" 
d="M147 -26l-83 78l172 196q-51 89 -78.5 206.5t-27.5 262.5q0 241 73.5 408t209 254t323.5 87q134 0 241 -44.5t185 -131.5l161 180l84 -76l-176 -200q53 -90 80 -209t27 -265q0 -238 -72.5 -403.5t-208.5 -251t-323 -85.5q-135 0 -242.5 44t-183.5 129zM737 97
q219 0 329.5 145t113.5 445q2 117 -12.5 215t-44.5 179l-726 -830q114 -154 340 -154zM345 363l726 830q-56 80 -140 118.5t-195 38.5q-219 0 -333 -149.5t-117 -454.5q-2 -115 13 -210.5t46 -172.5z" />
    <glyph glyph-name="Ugrave" unicode="&#xd9;" horiz-adv-x="1375" 
d="M707 -20q-174 0 -284.5 57t-163 172t-52.5 287v950h132v-981q0 -183 92.5 -277t275.5 -94q123 0 207 41t126.5 123.5t42.5 206.5v981h126v-975q0 -162 -54 -271t-165 -164.5t-283 -55.5zM667 1567l-261 291h160l206 -291h-105z" />
    <glyph glyph-name="Uacute" unicode="&#xda;" horiz-adv-x="1375" 
d="M707 -20q-174 0 -284.5 57t-163 172t-52.5 287v950h132v-981q0 -183 92.5 -277t275.5 -94q123 0 207 41t126.5 123.5t42.5 206.5v981h126v-975q0 -162 -54 -271t-165 -164.5t-283 -55.5zM645 1567l206 291h159l-260 -291h-105z" />
    <glyph glyph-name="Ucircumflex" unicode="&#xdb;" horiz-adv-x="1375" 
d="M707 -20q-174 0 -284.5 57t-163 172t-52.5 287v950h132v-981q0 -183 92.5 -277t275.5 -94q123 0 207 41t126.5 123.5t42.5 206.5v981h126v-975q0 -162 -54 -271t-165 -164.5t-283 -55.5zM421 1567l244 205h94l239 -205h-144l-144 124l-154 -124h-135z" />
    <glyph glyph-name="Udieresis" unicode="&#xdc;" horiz-adv-x="1375" 
d="M707 -20q-174 0 -284.5 57t-163 172t-52.5 287v950h132v-981q0 -183 92.5 -277t275.5 -94q123 0 207 41t126.5 123.5t42.5 206.5v981h126v-975q0 -162 -54 -271t-165 -164.5t-283 -55.5zM819 1712v146h129l-1 -146h-128zM473 1712l1 146h128v-146h-129z" />
    <glyph glyph-name="Yacute" unicode="&#xdd;" horiz-adv-x="1147" 
d="M515 0v621l-489 825h138l413 -709l407 709h136l-481 -827v-619h-124zM516 1570l206 291h159l-260 -291h-105z" />
    <glyph glyph-name="Thorn" unicode="&#xde;" horiz-adv-x="1267" 
d="M207 0v1446h132v-308h345q155 0 274 -40t186.5 -125t67.5 -218q0 -146 -67 -237t-184 -133.5t-266 -42.5h-356v-342h-132zM339 459h353q114 0 202 28.5t137.5 93.5t49.5 174q0 100 -50 158.5t-140 83.5t-211 25h-341v-563z" />
    <glyph glyph-name="germandbls" unicode="&#xdf;" horiz-adv-x="1136" 
d="M662 -20q-70 0 -147.5 19t-129.5 52l54 91q46 -26 93 -44.5t117 -18.5q124 0 197 59t73 165q0 81 -39.5 128.5t-101.5 75.5t-131 50q-50 17 -99 38.5t-81.5 61t-32.5 109.5q0 74 44.5 122t139.5 98q41 23 80 46.5t65 58t26 90.5q0 76 -56 121t-159 45q-123 0 -202 -75
t-79 -228v-1044h-123l-2 1024q0 96 29 173t84 133t133 86t177 30q119 0 189 -39t100.5 -100.5t30.5 -126.5q0 -78 -32 -125.5t-84.5 -78.5t-112.5 -61q-75 -41 -106 -65t-31 -68q0 -42 29 -60.5t103 -42.5q52 -18 114.5 -42.5t119 -64t93 -101.5t36.5 -157
q0 -109 -51 -183.5t-137 -112.5t-190 -38z" />
    <glyph glyph-name="agrave" unicode="&#xe0;" horiz-adv-x="1091" 
d="M448 -20q-101 0 -176.5 35t-117 100t-41.5 156q0 173 115.5 254.5t376.5 89.5l215 7v91q0 109 -66 174t-203 65q-103 -1 -176.5 -49t-92.5 -152h-118q6 94 52 162t132.5 104.5t208.5 36.5t207.5 -37t131 -112t45.5 -187v-718h-109l-8 203q-64 -125 -163.5 -174
t-212.5 -49zM480 80q60 0 119.5 21.5t109.5 58.5t80.5 82.5t30.5 93.5v192l-180 -4q-145 -2 -233.5 -27.5t-129 -78t-40.5 -136.5q0 -95 67 -148.5t176 -53.5zM514 1155l-261 291h160l206 -291h-105z" />
    <glyph glyph-name="aacute" unicode="&#xe1;" horiz-adv-x="1091" 
d="M448 -20q-101 0 -176.5 35t-117 100t-41.5 156q0 173 115.5 254.5t376.5 89.5l215 7v91q0 109 -66 174t-203 65q-103 -1 -176.5 -49t-92.5 -152h-118q6 94 52 162t132.5 104.5t208.5 36.5t207.5 -37t131 -112t45.5 -187v-718h-109l-8 203q-64 -125 -163.5 -174
t-212.5 -49zM480 80q60 0 119.5 21.5t109.5 58.5t80.5 82.5t30.5 93.5v192l-180 -4q-145 -2 -233.5 -27.5t-129 -78t-40.5 -136.5q0 -95 67 -148.5t176 -53.5zM492 1155l206 291h159l-260 -291h-105z" />
    <glyph glyph-name="acircumflex" unicode="&#xe2;" horiz-adv-x="1091" 
d="M448 -20q-101 0 -176.5 35t-117 100t-41.5 156q0 173 115.5 254.5t376.5 89.5l215 7v91q0 109 -66 174t-203 65q-103 -1 -176.5 -49t-92.5 -152h-118q6 94 52 162t132.5 104.5t208.5 36.5t207.5 -37t131 -112t45.5 -187v-718h-109l-8 203q-64 -125 -163.5 -174
t-212.5 -49zM480 80q60 0 119.5 21.5t109.5 58.5t80.5 82.5t30.5 93.5v192l-180 -4q-145 -2 -233.5 -27.5t-129 -78t-40.5 -136.5q0 -95 67 -148.5t176 -53.5zM268 1155l244 205h94l239 -205h-144l-144 124l-154 -124h-135z" />
    <glyph glyph-name="atilde" unicode="&#xe3;" horiz-adv-x="1091" 
d="M448 -20q-101 0 -176.5 35t-117 100t-41.5 156q0 173 115.5 254.5t376.5 89.5l215 7v91q0 109 -66 174t-203 65q-103 -1 -176.5 -49t-92.5 -152h-118q6 94 52 162t132.5 104.5t208.5 36.5t207.5 -37t131 -112t45.5 -187v-718h-109l-8 203q-64 -125 -163.5 -174
t-212.5 -49zM480 80q60 0 119.5 21.5t109.5 58.5t80.5 82.5t30.5 93.5v192l-180 -4q-145 -2 -233.5 -27.5t-129 -78t-40.5 -136.5q0 -95 67 -148.5t176 -53.5zM312 1236l-29 84q31 27 66 46.5t86 19.5q45 0 84.5 -13t78.5 -26.5t82 -13.5q41 0 69 13.5t57 34.5l30 -92
q-24 -16 -60 -34t-97 -18q-52 0 -89 12.5t-71 25t-76 12.5q-49 0 -77 -16.5t-54 -34.5z" />
    <glyph glyph-name="adieresis" unicode="&#xe4;" horiz-adv-x="1091" 
d="M448 -20q-101 0 -176.5 35t-117 100t-41.5 156q0 173 115.5 254.5t376.5 89.5l215 7v91q0 109 -66 174t-203 65q-103 -1 -176.5 -49t-92.5 -152h-118q6 94 52 162t132.5 104.5t208.5 36.5t207.5 -37t131 -112t45.5 -187v-718h-109l-8 203q-64 -125 -163.5 -174
t-212.5 -49zM480 80q60 0 119.5 21.5t109.5 58.5t80.5 82.5t30.5 93.5v192l-180 -4q-145 -2 -233.5 -27.5t-129 -78t-40.5 -136.5q0 -95 67 -148.5t176 -53.5zM666 1300v146h129l-1 -146h-128zM320 1300l1 146h128v-146h-129z" />
    <glyph glyph-name="aring" unicode="&#xe5;" horiz-adv-x="1091" 
d="M448 -20q-101 0 -176.5 35t-117 100t-41.5 156q0 173 115.5 254.5t376.5 89.5l215 7v91q0 109 -66 174t-203 65q-103 -1 -176.5 -49t-92.5 -152h-118q6 94 52 162t132.5 104.5t208.5 36.5t207.5 -37t131 -112t45.5 -187v-718h-109l-8 203q-64 -125 -163.5 -174
t-212.5 -49zM480 80q60 0 119.5 21.5t109.5 58.5t80.5 82.5t30.5 93.5v192l-180 -4q-145 -2 -233.5 -27.5t-129 -78t-40.5 -136.5q0 -95 67 -148.5t176 -53.5zM558 1164q-84 0 -141.5 58.5t-57.5 144.5q0 80 58.5 136t140.5 56q56 0 101.5 -26t72.5 -70.5t27 -99.5
q0 -84 -58 -141.5t-143 -57.5zM556 1249q46 0 78 34.5t32 78.5q0 50 -32 80.5t-78 30.5q-44 0 -78 -30.5t-34 -80.5q0 -44 34 -78.5t78 -34.5z" />
    <glyph glyph-name="ae" unicode="&#xe6;" horiz-adv-x="1829" 
d="M448 -20q-101 0 -176.5 35t-117 100t-41.5 156q0 173 115.5 255t376.5 89l215 7v91q0 114 -74.5 176.5t-194.5 62.5q-102 -1 -176.5 -51.5t-92.5 -149.5h-118q5 80 51.5 149.5t133 111.5t208.5 42q132 0 224 -53.5t129 -149.5q56 98 149.5 150.5t219.5 52.5
q139 0 236 -60.5t148.5 -173.5t51.5 -271v-62h-767q0 -108 36.5 -199.5t112 -147t193.5 -55.5q112 0 192.5 53.5t99.5 148.5h124q-20 -102 -82 -170.5t-149.5 -102.5t-183.5 -34q-144 0 -253 67t-164 192q-22 -79 -86.5 -137t-153 -90t-186.5 -32zM480 80q104 0 179 47.5
t116 117t41 133.5l-1 150l-175 -4q-145 -2 -233.5 -27.5t-129 -78t-40.5 -136.5q0 -95 67 -148.5t176 -53.5zM950 585h641q0 103 -34 186t-103.5 131t-176.5 48q-114 0 -186.5 -54.5t-107 -138.5t-33.5 -172z" />
    <glyph glyph-name="ccedilla" unicode="&#xe7;" horiz-adv-x="1082" 
d="M524 -404q-49 0 -90.5 12t-77.5 36l26 65q23 -19 53 -32t75 -13q58 0 85 21t27 58q0 45 -37 67t-117 24q-8 0 -10 3t0 8l72 165h80l-49 -122q64 -5 100.5 -26.5t51 -53t14.5 -62.5q0 -50 -28 -83.5t-74 -50t-101 -16.5zM565 -20q-137 0 -241.5 59t-163 177.5t-58.5 297.5
q0 161 52 283t155 189.5t256 67.5q101 0 186 -37t143 -108t76 -175h-120q-11 63 -49 110.5t-98.5 74.5t-137.5 27q-149 0 -243.5 -106t-94.5 -326q0 -194 84.5 -312.5t255.5 -118.5q77 0 137 27.5t98 75.5t49 109h118q-17 -102 -75.5 -172.5t-143.5 -106.5t-185 -36z" />
    <glyph glyph-name="egrave" unicode="&#xe8;" horiz-adv-x="1122" 
d="M585 -20q-140 0 -246 62t-166 180t-60 285q0 168 54 291t157 189.5t248 66.5q140 0 237 -60.5t148.5 -173.5t51.5 -271v-62h-767q0 -108 36 -199.5t112 -147t194 -55.5q112 0 192.5 53.5t99.5 148.5h123q-19 -102 -81 -170.5t-149.5 -102.5t-183.5 -34zM244 585h641
q0 103 -34 186t-103.5 131t-176.5 48q-114 0 -186.5 -54.5t-107 -138.5t-33.5 -172zM530 1155l-261 291h160l206 -291h-105z" />
    <glyph glyph-name="eacute" unicode="&#xe9;" horiz-adv-x="1122" 
d="M585 -20q-140 0 -246 62t-166 180t-60 285q0 168 54 291t157 189.5t248 66.5q140 0 237 -60.5t148.5 -173.5t51.5 -271v-62h-767q0 -108 36 -199.5t112 -147t194 -55.5q112 0 192.5 53.5t99.5 148.5h123q-19 -102 -81 -170.5t-149.5 -102.5t-183.5 -34zM244 585h641
q0 103 -34 186t-103.5 131t-176.5 48q-114 0 -186.5 -54.5t-107 -138.5t-33.5 -172zM507 1155l206 291h159l-260 -291h-105z" />
    <glyph glyph-name="ecircumflex" unicode="&#xea;" horiz-adv-x="1122" 
d="M585 -20q-140 0 -246 62t-166 180t-60 285q0 168 54 291t157 189.5t248 66.5q140 0 237 -60.5t148.5 -173.5t51.5 -271v-62h-767q0 -108 36 -199.5t112 -147t194 -55.5q112 0 192.5 53.5t99.5 148.5h123q-19 -102 -81 -170.5t-149.5 -102.5t-183.5 -34zM244 585h641
q0 103 -34 186t-103.5 131t-176.5 48q-114 0 -186.5 -54.5t-107 -138.5t-33.5 -172zM283 1155l244 205h94l239 -205h-144l-144 124l-154 -124h-135z" />
    <glyph glyph-name="edieresis" unicode="&#xeb;" horiz-adv-x="1122" 
d="M585 -20q-140 0 -246 62t-166 180t-60 285q0 168 54 291t157 189.5t248 66.5q140 0 237 -60.5t148.5 -173.5t51.5 -271v-62h-767q0 -108 36 -199.5t112 -147t194 -55.5q112 0 192.5 53.5t99.5 148.5h123q-19 -102 -81 -170.5t-149.5 -102.5t-183.5 -34zM244 585h641
q0 103 -34 186t-103.5 131t-176.5 48q-114 0 -186.5 -54.5t-107 -138.5t-33.5 -172zM681 1300v146h129l-1 -146h-128zM335 1300l1 146h128v-146h-129z" />
    <glyph glyph-name="igrave" unicode="&#xec;" horiz-adv-x="458" 
d="M168 0v1034h122v-1034h-122zM181 1155l-196 291h156l137 -291h-97z" />
    <glyph glyph-name="iacute" unicode="&#xed;" horiz-adv-x="458" 
d="M168 0v1034h122v-1034h-122zM276 1155h-96l137 291h156z" />
    <glyph glyph-name="icircumflex" unicode="&#xee;" horiz-adv-x="458" 
d="M168 0v1034h122v-1034h-122zM-60 1155l244 205h94l239 -205h-144l-144 124l-154 -124h-135z" />
    <glyph glyph-name="idieresis" unicode="&#xef;" horiz-adv-x="510" 
d="M192 0v1034h122v-1034h-122zM363 1299v146h129l-1 -146h-128zM17 1299l1 146h128v-146h-129z" />
    <glyph glyph-name="eth" unicode="&#xf0;" horiz-adv-x="1120" 
d="M561 -20q-157 0 -259 70.5t-151 190.5t-49 270q0 121 30.5 219.5t88.5 169.5t143.5 109.5t195.5 38.5q167 0 265 -84.5t129 -213.5l-119 122q-26 109 -77 202t-113.5 170t-127 136t-117.5 100h135q89 -68 175.5 -160.5t156 -211.5t110.5 -265t41 -322
q0 -154 -48.5 -276.5t-149 -193.5t-259.5 -71zM563 85q116 0 188.5 56.5t106.5 154t34 217.5q0 209 -84.5 319.5t-241.5 110.5q-170 0 -253.5 -118.5t-83.5 -311.5q0 -114 32 -212t105.5 -157t196.5 -59zM374 1160l-25 78l588 181l23 -80z" />
    <glyph glyph-name="ntilde" unicode="&#xf1;" horiz-adv-x="1136" 
d="M168 0v1034h119v-152q26 46 73.5 85t114 62t149.5 23q100 0 182.5 -40.5t131 -124t48.5 -214.5v-673h-124v665q0 142 -71 209.5t-190 67.5q-81 0 -152 -25.5t-113.5 -77.5t-42.5 -132v-707h-125zM349 1236l-29 84q31 27 66 46.5t86 19.5q45 0 84.5 -13t78.5 -26.5
t82 -13.5q41 0 69 13.5t57 34.5l30 -92q-24 -16 -60 -34t-97 -18q-52 0 -89 12.5t-71 25t-76 12.5q-49 0 -77 -16.5t-54 -34.5z" />
    <glyph glyph-name="ograve" unicode="&#xf2;" horiz-adv-x="1119" 
d="M562 -20q-138 0 -241.5 59.5t-161 178t-57.5 295.5q0 163 51.5 284.5t154 189t254.5 67.5q138 0 239.5 -60.5t158.5 -180.5t57 -300q0 -159 -50.5 -279t-151.5 -187t-253 -67zM562 85q102 0 175.5 49t113.5 145t40 237q0 126 -35 223.5t-107.5 153t-186.5 55.5
q-103 0 -177.5 -48.5t-115 -145t-40.5 -238.5q0 -126 35 -223t109 -152.5t189 -55.5zM517 1155l-261 291h160l206 -291h-105z" />
    <glyph glyph-name="oacute" unicode="&#xf3;" horiz-adv-x="1119" 
d="M562 -20q-138 0 -241.5 59.5t-161 178t-57.5 295.5q0 163 51.5 284.5t154 189t254.5 67.5q138 0 239.5 -60.5t158.5 -180.5t57 -300q0 -159 -50.5 -279t-151.5 -187t-253 -67zM562 85q102 0 175.5 49t113.5 145t40 237q0 126 -35 223.5t-107.5 153t-186.5 55.5
q-103 0 -177.5 -48.5t-115 -145t-40.5 -238.5q0 -126 35 -223t109 -152.5t189 -55.5zM495 1155l206 291h159l-260 -291h-105z" />
    <glyph glyph-name="ocircumflex" unicode="&#xf4;" horiz-adv-x="1119" 
d="M562 -20q-138 0 -241.5 59.5t-161 178t-57.5 295.5q0 163 51.5 284.5t154 189t254.5 67.5q138 0 239.5 -60.5t158.5 -180.5t57 -300q0 -159 -50.5 -279t-151.5 -187t-253 -67zM562 85q102 0 175.5 49t113.5 145t40 237q0 126 -35 223.5t-107.5 153t-186.5 55.5
q-103 0 -177.5 -48.5t-115 -145t-40.5 -238.5q0 -126 35 -223t109 -152.5t189 -55.5zM271 1155l244 205h94l239 -205h-144l-144 124l-154 -124h-135z" />
    <glyph glyph-name="otilde" unicode="&#xf5;" horiz-adv-x="1119" 
d="M562 -20q-138 0 -241.5 59.5t-161 178t-57.5 295.5q0 163 51.5 284.5t154 189t254.5 67.5q138 0 239.5 -60.5t158.5 -180.5t57 -300q0 -159 -50.5 -279t-151.5 -187t-253 -67zM562 85q102 0 175.5 49t113.5 145t40 237q0 126 -35 223.5t-107.5 153t-186.5 55.5
q-103 0 -177.5 -48.5t-115 -145t-40.5 -238.5q0 -126 35 -223t109 -152.5t189 -55.5zM315 1236l-29 84q31 27 66 46.5t86 19.5q45 0 84.5 -13t78.5 -26.5t82 -13.5q41 0 69 13.5t57 34.5l30 -92q-24 -16 -60 -34t-97 -18q-52 0 -89 12.5t-71 25t-76 12.5q-49 0 -77 -16.5
t-54 -34.5z" />
    <glyph glyph-name="odieresis" unicode="&#xf6;" horiz-adv-x="1119" 
d="M562 -20q-138 0 -241.5 59.5t-161 178t-57.5 295.5q0 163 51.5 284.5t154 189t254.5 67.5q138 0 239.5 -60.5t158.5 -180.5t57 -300q0 -159 -50.5 -279t-151.5 -187t-253 -67zM562 85q102 0 175.5 49t113.5 145t40 237q0 126 -35 223.5t-107.5 153t-186.5 55.5
q-103 0 -177.5 -48.5t-115 -145t-40.5 -238.5q0 -126 35 -223t109 -152.5t189 -55.5zM669 1300v146h129l-1 -146h-128zM323 1300l1 146h128v-146h-129z" />
    <glyph glyph-name="divide" unicode="&#xf7;" horiz-adv-x="1071" 
d="M127 673v105l817 1v-104zM441 307v184h192v-184h-192zM441 963v185h192v-185h-192z" />
    <glyph glyph-name="oslash" unicode="&#xf8;" horiz-adv-x="1143" 
d="M98 -10l-63 67l1007 983l63 -66zM565 -20q-138 0 -241.5 59.5t-161 178t-57.5 295.5q0 163 51.5 284.5t154 189t254.5 67.5q137 0 239 -60.5t158.5 -180.5t56.5 -300q0 -159 -50.5 -279t-151 -187t-252.5 -67zM565 85q102 0 175.5 49t113.5 145t40 237q0 126 -35 223.5
t-107.5 153t-186.5 55.5q-103 0 -178 -48.5t-115 -145t-40 -238.5q0 -126 35 -223t109 -152.5t189 -55.5z" />
    <glyph glyph-name="ugrave" unicode="&#xf9;" horiz-adv-x="1145" 
d="M548 -20q-86 1 -158.5 23.5t-126.5 67t-84 112t-30 157.5v694h125v-686q0 -117 71 -189.5t218 -72.5q130 0 210 68t80 208v672h124v-1034h-105l-12 193q-18 -70 -61 -117.5t-106.5 -72t-144.5 -23.5zM524 1155l-261 291h160l206 -291h-105z" />
    <glyph glyph-name="uacute" unicode="&#xfa;" horiz-adv-x="1145" 
d="M548 -20q-86 1 -158.5 23.5t-126.5 67t-84 112t-30 157.5v694h125v-686q0 -117 71 -189.5t218 -72.5q130 0 210 68t80 208v672h124v-1034h-105l-12 193q-18 -70 -61 -117.5t-106.5 -72t-144.5 -23.5zM502 1155l206 291h159l-260 -291h-105z" />
    <glyph glyph-name="ucircumflex" unicode="&#xfb;" horiz-adv-x="1145" 
d="M548 -20q-86 1 -158.5 23.5t-126.5 67t-84 112t-30 157.5v694h125v-686q0 -117 71 -189.5t218 -72.5q130 0 210 68t80 208v672h124v-1034h-105l-12 193q-18 -70 -61 -117.5t-106.5 -72t-144.5 -23.5zM278 1155l244 205h94l239 -205h-144l-144 124l-154 -124h-135z" />
    <glyph glyph-name="udieresis" unicode="&#xfc;" horiz-adv-x="1145" 
d="M548 -20q-86 1 -158.5 23.5t-126.5 67t-84 112t-30 157.5v694h125v-686q0 -117 71 -189.5t218 -72.5q130 0 210 68t80 208v672h124v-1034h-105l-12 193q-18 -70 -61 -117.5t-106.5 -72t-144.5 -23.5zM676 1300v146h129l-1 -146h-128zM330 1300l1 146h128v-146h-129z" />
    <glyph glyph-name="yacute" unicode="&#xfd;" horiz-adv-x="1038" 
d="M239 -330q-83 0 -111.5 10l-28.5 10v83l108 -1q52 -1 88.5 9t60 27.5t38 39.5t24.5 46l45 120l-404 1020h129l338 -868l332 868h122l-445 -1152q-32 -80 -76 -126.5t-99 -66t-121 -19.5zM460 1155l206 291h159l-260 -291h-105z" />
    <glyph glyph-name="thorn" unicode="&#xfe;" horiz-adv-x="1163" 
d="M168 -322v1768h122v-561q19 23 58.5 63.5t106 73t169.5 32.5q122 0 221 -57.5t157 -173t58 -289.5q0 -171 -57 -295t-160 -191.5t-241 -67.5q-95 0 -165 30.5t-116 67.5q-17 15 -22.5 11.5t-5.5 -24.5v-387h-125zM577 78q104 0 183.5 52.5t125 153t45.5 245.5
q0 148 -47.5 242t-125 138.5t-168.5 44.5q-88 0 -155 -38.5t-104.5 -95t-37.5 -110.5v-494q63 -62 132.5 -100t151.5 -38z" />
    <glyph glyph-name="ydieresis" unicode="&#xff;" horiz-adv-x="1038" 
d="M239 -330q-83 0 -111.5 10l-28.5 10v83l108 -1q52 -1 88.5 9t60 27.5t38 39.5t24.5 46l45 120l-404 1020h129l338 -868l332 868h122l-445 -1152q-32 -80 -76 -126.5t-99 -66t-121 -19.5zM634 1300v146h129l-1 -146h-128zM288 1300l1 146h128v-146h-129z" />
    <glyph glyph-name="Amacron" unicode="&#x100;" horiz-adv-x="1402" 
d="M98 0l526 1446h155l525 -1446h-131l-156 430h-633l-156 -430h-130zM423 553h554l-277 768zM432 1664v99h536v-99h-536z" />
    <glyph glyph-name="amacron" unicode="&#x101;" horiz-adv-x="1091" 
d="M448 -20q-101 0 -176.5 35t-117 100t-41.5 156q0 173 115.5 254.5t376.5 89.5l215 7v91q0 109 -66 174t-203 65q-103 -1 -176.5 -49t-92.5 -152h-118q6 94 52 162t132.5 104.5t208.5 36.5t207.5 -37t131 -112t45.5 -187v-718h-109l-8 203q-64 -125 -163.5 -174
t-212.5 -49zM480 80q60 0 119.5 21.5t109.5 58.5t80.5 82.5t30.5 93.5v192l-180 -4q-145 -2 -233.5 -27.5t-129 -78t-40.5 -136.5q0 -95 67 -148.5t176 -53.5zM289 1252v99h536v-99h-536z" />
    <glyph glyph-name="Abreve" unicode="&#x102;" horiz-adv-x="1402" 
d="M98 0l526 1446h155l525 -1446h-131l-156 430h-633l-156 -430h-130zM423 553h554l-277 768zM699 1564q-68 0 -125.5 22.5t-96 66.5t-52.5 106h105q18 -47 62 -77t107 -30q62 0 108.5 30t64.5 77h105q-14 -60 -52 -103.5t-96 -67.5t-130 -24z" />
    <glyph glyph-name="abreve" unicode="&#x103;" horiz-adv-x="1091" 
d="M448 -20q-101 0 -176.5 35t-117 100t-41.5 156q0 173 115.5 254.5t376.5 89.5l215 7v91q0 109 -66 174t-203 65q-103 -1 -176.5 -49t-92.5 -152h-118q6 94 52 162t132.5 104.5t208.5 36.5t207.5 -37t131 -112t45.5 -187v-718h-109l-8 203q-64 -125 -163.5 -174
t-212.5 -49zM480 80q60 0 119.5 21.5t109.5 58.5t80.5 82.5t30.5 93.5v192l-180 -4q-145 -2 -233.5 -27.5t-129 -78t-40.5 -136.5q0 -95 67 -148.5t176 -53.5zM555 1152q-68 0 -125.5 22.5t-96 66.5t-52.5 106h105q18 -47 62 -77t107 -30q62 0 108.5 30t64.5 77h105
q-14 -60 -52 -103.5t-96 -67.5t-130 -24z" />
    <glyph glyph-name="Aogonek" unicode="&#x104;" horiz-adv-x="1402" 
d="M98 0l526 1446h155l525 -1446h-131l-156 430h-633l-156 -430h-130zM423 553h554l-277 768zM1188 -332q-95 0 -140.5 43t-45.5 112q0 63 44.5 111t165.5 84l97 -15q-99 -43 -146.5 -82.5t-47.5 -92.5q0 -39 24 -58.5t79 -19.5q49 0 87.5 11.5t55.5 21.5v-78
q-23 -13 -70.5 -25t-102.5 -12z" />
    <glyph glyph-name="aogonek" unicode="&#x105;" horiz-adv-x="1091" 
d="M448 -20q-101 0 -176.5 35t-117 100t-41.5 156q0 173 115.5 254.5t376.5 89.5l215 7v91q0 109 -66 174t-203 65q-103 -1 -176.5 -49t-92.5 -152h-118q6 94 52 162t132.5 104.5t208.5 36.5t207.5 -37t131 -112t45.5 -187v-718h-109l-8 203q-64 -125 -163.5 -174
t-212.5 -49zM480 80q60 0 119.5 21.5t109.5 58.5t80.5 82.5t30.5 93.5v192l-180 -4q-145 -2 -233.5 -27.5t-129 -78t-40.5 -136.5q0 -95 67 -148.5t176 -53.5zM817 -327q-95 0 -140.5 43t-45.5 112q0 63 44.5 111t165.5 84l97 -15q-99 -43 -146.5 -82.5t-47.5 -92.5
q0 -39 24 -58.5t79 -19.5q49 0 87.5 11.5t55.5 21.5v-78q-23 -13 -70.5 -25t-102.5 -12z" />
    <glyph glyph-name="Cacute" unicode="&#x106;" horiz-adv-x="1344" 
d="M706 -20q-190 0 -322 86t-200.5 251.5t-68.5 405.5q0 241 68.5 406.5t200.5 251t322 85.5q148 0 261 -62.5t181 -164.5t81 -220h-136q-17 90 -66.5 165t-129.5 120t-192 45q-149 0 -249.5 -68t-151 -207t-50.5 -352q0 -319 113.5 -472t337.5 -153q112 0 192 45.5
t129.5 121.5t66.5 166h136q-10 -86 -49 -167t-105.5 -144.5t-159 -101t-209.5 -37.5zM634 1567l206 291h159l-260 -291h-105z" />
    <glyph glyph-name="cacute" unicode="&#x107;" horiz-adv-x="1082" 
d="M565 -20q-137 0 -241.5 59t-163 177.5t-58.5 297.5q0 161 52 283t155 189.5t256 67.5q101 0 186 -37t143 -108t76 -175h-120q-11 63 -49 110.5t-98.5 74.5t-137.5 27q-149 0 -243.5 -106t-94.5 -326q0 -194 84.5 -312.5t255.5 -118.5q77 0 137 27.5t98 75.5t49 109h118
q-17 -102 -75.5 -172.5t-143.5 -106.5t-185 -36zM502 1155l206 291h159l-260 -291h-105z" />
    <glyph glyph-name="Ccircumflex" unicode="&#x108;" horiz-adv-x="1344" 
d="M706 -20q-190 0 -322 86t-200.5 251.5t-68.5 405.5q0 241 68.5 406.5t200.5 251t322 85.5q148 0 261 -62.5t181 -164.5t81 -220h-136q-17 90 -66.5 165t-129.5 120t-192 45q-149 0 -249.5 -68t-151 -207t-50.5 -352q0 -319 113.5 -472t337.5 -153q112 0 192 45.5
t129.5 121.5t66.5 166h136q-10 -86 -49 -167t-105.5 -144.5t-159 -101t-209.5 -37.5zM410 1567l244 205h94l239 -205h-144l-144 124l-154 -124h-135z" />
    <glyph glyph-name="ccircumflex" unicode="&#x109;" horiz-adv-x="1082" 
d="M565 -20q-137 0 -241.5 59t-163 177.5t-58.5 297.5q0 161 52 283t155 189.5t256 67.5q101 0 186 -37t143 -108t76 -175h-120q-11 63 -49 110.5t-98.5 74.5t-137.5 27q-149 0 -243.5 -106t-94.5 -326q0 -194 84.5 -312.5t255.5 -118.5q77 0 137 27.5t98 75.5t49 109h118
q-17 -102 -75.5 -172.5t-143.5 -106.5t-185 -36zM278 1155l244 205h94l239 -205h-144l-144 124l-154 -124h-135z" />
    <glyph glyph-name="Cdotaccent" unicode="&#x10a;" horiz-adv-x="1344" 
d="M706 -20q-190 0 -322 86t-200.5 251.5t-68.5 405.5q0 241 68.5 406.5t200.5 251t322 85.5q148 0 261 -62.5t181 -164.5t81 -220h-136q-17 90 -66.5 165t-129.5 120t-192 45q-149 0 -249.5 -68t-151 -207t-50.5 -352q0 -319 113.5 -472t337.5 -153q112 0 192 45.5
t129.5 121.5t66.5 166h136q-10 -86 -49 -167t-105.5 -144.5t-159 -101t-209.5 -37.5zM632 1712v146h136v-146h-136z" />
    <glyph glyph-name="cdotaccent" unicode="&#x10b;" horiz-adv-x="1082" 
d="M565 -20q-137 0 -241.5 59t-163 177.5t-58.5 297.5q0 161 52 283t155 189.5t256 67.5q101 0 186 -37t143 -108t76 -175h-120q-11 63 -49 110.5t-98.5 74.5t-137.5 27q-149 0 -243.5 -106t-94.5 -326q0 -194 84.5 -312.5t255.5 -118.5q77 0 137 27.5t98 75.5t49 109h118
q-17 -102 -75.5 -172.5t-143.5 -106.5t-185 -36zM499 1300v146h136v-146h-136z" />
    <glyph glyph-name="Ccaron" unicode="&#x10c;" horiz-adv-x="1344" 
d="M706 -20q-190 0 -322 86t-200.5 251.5t-68.5 405.5q0 241 68.5 406.5t200.5 251t322 85.5q148 0 261 -62.5t181 -164.5t81 -220h-136q-17 90 -66.5 165t-129.5 120t-192 45q-149 0 -249.5 -68t-151 -207t-50.5 -352q0 -319 113.5 -472t337.5 -153q112 0 192 45.5
t129.5 121.5t66.5 166h136q-10 -86 -49 -167t-105.5 -144.5t-159 -101t-209.5 -37.5zM654 1567l-245 205h136l154 -126l144 126h144l-239 -205h-94z" />
    <glyph glyph-name="ccaron" unicode="&#x10d;" horiz-adv-x="1082" 
d="M565 -20q-137 0 -241.5 59t-163 177.5t-58.5 297.5q0 161 52 283t155 189.5t256 67.5q101 0 186 -37t143 -108t76 -175h-120q-11 63 -49 110.5t-98.5 74.5t-137.5 27q-149 0 -243.5 -106t-94.5 -326q0 -194 84.5 -312.5t255.5 -118.5q77 0 137 27.5t98 75.5t49 109h118
q-17 -102 -75.5 -172.5t-143.5 -106.5t-185 -36zM522 1155l-245 205h136l154 -126l144 126h144l-239 -205h-94z" />
    <glyph glyph-name="Dcaron" unicode="&#x10e;" horiz-adv-x="1357" 
d="M207 0v1446q4 0 31 -0.5t68.5 -0.5t89.5 -0.5t93 -0.5q267 -2 433 -81.5t243 -236.5t77 -393q0 -248 -84 -410.5t-256 -242.5t-437 -80h-258zM339 116h123q210 0 354.5 59t219 193.5t74.5 358.5q0 232 -75 363t-217.5 185.5t-345.5 54.5h-133v-1214zM619 1567l-245 205
h136l154 -126l144 126h144l-239 -205h-94z" />
    <glyph glyph-name="dcaron" unicode="&#x10f;" horiz-adv-x="1162" 
d="M537 -20q-198 0 -316.5 135t-118.5 406q0 160 47.5 280t142.5 186.5t239 66.5q85 0 147.5 -22.5t105 -55t67.5 -65.5t35 -54v629h126v-1486h-102l-12 212q-8 -23 -28.5 -61.5t-60.5 -78t-106.5 -66t-165.5 -26.5zM553 84q182 0 257.5 106t75.5 342q-2 129 -34 222.5
t-103 143.5t-191 50q-146 0 -236 -101t-90 -315q0 -206 79.5 -327t241.5 -121zM1120 1125l73 174l-45 9v178h126v-187l-75 -174h-79z" />
    <glyph glyph-name="Dcroat" unicode="&#x110;" horiz-adv-x="1367" 
d="M70 671v110h628v-110h-628zM217 0v1446q4 0 31 -0.5t68 -0.5t89 -0.5t94 -0.5q267 -2 433 -81.5t243 -236.5t77 -393q0 -248 -84 -410.5t-256.5 -242.5t-436.5 -80h-258zM348 116h123q210 0 354.5 59t219.5 193.5t75 358.5q0 232 -75.5 363t-218 185.5t-344.5 54.5h-134
v-1214z" />
    <glyph glyph-name="dcroat" unicode="&#x111;" horiz-adv-x="1209" 
d="M563 1208v90h586v-90h-586zM537 -20q-198 0 -316.5 135t-118.5 406q0 160 47.5 280t142.5 186.5t239 66.5q85 0 147.5 -22.5t105 -55t67.5 -65.5t35 -54v629h126v-1486h-102l-12 212q-8 -23 -28.5 -61.5t-60.5 -78t-106.5 -66t-165.5 -26.5zM553 84q182 0 257.5 106
t75.5 342q-2 129 -34 222.5t-103 143.5t-191 50q-146 0 -236 -101t-90 -315q0 -206 79.5 -327t241.5 -121z" />
    <glyph glyph-name="Emacron" unicode="&#x112;" horiz-adv-x="1225" 
d="M207 0v1446h866v-116h-741v-541h680v-117h-680v-552l765 -2v-118h-890zM376 1664v99h536v-99h-536z" />
    <glyph glyph-name="emacron" unicode="&#x113;" horiz-adv-x="1122" 
d="M585 -20q-140 0 -246 62t-166 180t-60 285q0 168 54 291t157 189.5t248 66.5q140 0 237 -60.5t148.5 -173.5t51.5 -271v-62h-767q0 -108 36 -199.5t112 -147t194 -55.5q112 0 192.5 53.5t99.5 148.5h123q-19 -102 -81 -170.5t-149.5 -102.5t-183.5 -34zM244 585h641
q0 103 -34 186t-103.5 131t-176.5 48q-114 0 -186.5 -54.5t-107 -138.5t-33.5 -172zM304 1252v99h536v-99h-536z" />
    <glyph glyph-name="Ebreve" unicode="&#x114;" horiz-adv-x="1225" 
d="M207 0v1446h866v-116h-741v-541h680v-117h-680v-552l765 -2v-118h-890zM642 1564q-68 0 -125.5 22.5t-96 66.5t-52.5 106h105q18 -47 62 -77t107 -30q62 0 108.5 30t64.5 77h105q-14 -60 -52 -103.5t-96 -67.5t-130 -24z" />
    <glyph glyph-name="ebreve" unicode="&#x115;" horiz-adv-x="1122" 
d="M585 -20q-140 0 -246 62t-166 180t-60 285q0 168 54 291t157 189.5t248 66.5q140 0 237 -60.5t148.5 -173.5t51.5 -271v-62h-767q0 -108 36 -199.5t112 -147t194 -55.5q112 0 192.5 53.5t99.5 148.5h123q-19 -102 -81 -170.5t-149.5 -102.5t-183.5 -34zM244 585h641
q0 103 -34 186t-103.5 131t-176.5 48q-114 0 -186.5 -54.5t-107 -138.5t-33.5 -172zM571 1152q-68 0 -125.5 22.5t-96 66.5t-52.5 106h105q18 -47 62 -77t107 -30q62 0 108.5 30t64.5 77h105q-14 -60 -52 -103.5t-96 -67.5t-130 -24z" />
    <glyph glyph-name="Edotaccent" unicode="&#x116;" horiz-adv-x="1225" 
d="M207 0v1446h866v-116h-741v-541h680v-117h-680v-552l765 -2v-118h-890zM576 1712v146h136v-146h-136z" />
    <glyph glyph-name="edotaccent" unicode="&#x117;" horiz-adv-x="1122" 
d="M585 -20q-140 0 -246 62t-166 180t-60 285q0 168 54 291t157 189.5t248 66.5q140 0 237 -60.5t148.5 -173.5t51.5 -271v-62h-767q0 -108 36 -199.5t112 -147t194 -55.5q112 0 192.5 53.5t99.5 148.5h123q-19 -102 -81 -170.5t-149.5 -102.5t-183.5 -34zM244 585h641
q0 103 -34 186t-103.5 131t-176.5 48q-114 0 -186.5 -54.5t-107 -138.5t-33.5 -172zM505 1300v146h136v-146h-136z" />
    <glyph glyph-name="Eogonek" unicode="&#x118;" horiz-adv-x="1225" 
d="M207 0v1446h866v-116h-741v-541h680v-117h-680v-552l765 -2v-118h-890zM983 -333q-95 0 -140.5 43t-45.5 112q0 63 44.5 111t165.5 84l97 -15q-99 -43 -146.5 -82.5t-47.5 -92.5q0 -39 24 -58.5t79 -19.5q49 0 87.5 11.5t55.5 21.5v-78q-23 -13 -70.5 -25t-102.5 -12z
" />
    <glyph glyph-name="eogonek" unicode="&#x119;" horiz-adv-x="1122" 
d="M664 -315q-95 0 -141 42.5t-46 112.5q0 41 19 76.5t66 64.5q-134 5 -235 68t-157.5 179.5t-56.5 278.5q0 168 54 291t157 189.5t248 66.5q140 0 237 -60.5t148.5 -173.5t51.5 -271v-62h-767q0 -108 36 -199.5t112 -147t194 -55.5q112 0 192.5 53.5t99.5 148.5h123
q-19 -103 -81.5 -167.5t-152.5 -106.5q-89 -40 -131.5 -78.5t-42.5 -90.5q0 -38 24 -58t79 -20q49 0 87.5 12t55.5 21v-77q-24 -13 -71 -25t-102 -12zM244 585h641q0 103 -34 186t-103.5 131t-176.5 48q-114 0 -186.5 -54.5t-107 -138.5t-33.5 -172z" />
    <glyph glyph-name="Ecaron" unicode="&#x11a;" horiz-adv-x="1225" 
d="M207 0v1446h866v-116h-741v-541h680v-117h-680v-552l765 -2v-118h-890zM599 1567l-245 205h136l154 -126l144 126h144l-239 -205h-94z" />
    <glyph glyph-name="ecaron" unicode="&#x11b;" horiz-adv-x="1119" 
d="M585 -20q-140 0 -246 62t-166 180t-60 285q0 168 54 291t157 189.5t248 66.5q140 0 237 -60.5t148.5 -173.5t51.5 -271v-62h-767q0 -108 36 -199.5t112 -147t194 -55.5q112 0 192.5 53.5t99.5 148.5h123q-19 -102 -81 -170.5t-149.5 -102.5t-183.5 -34zM244 585h641
q0 103 -34 186t-103.5 131t-176.5 48q-114 0 -186.5 -54.5t-107 -138.5t-33.5 -172zM525 1155l-245 205h136l154 -126l144 126h144l-239 -205h-94z" />
    <glyph glyph-name="Gcircumflex" unicode="&#x11c;" horiz-adv-x="1437" 
d="M708 -20q-186 0 -319 85.5t-203.5 250t-70.5 404.5q0 238 71.5 405t205.5 254t319 87q99 0 189 -36.5t161.5 -99t116 -142.5t51.5 -169h-136q-15 86 -68 161.5t-134.5 121.5t-180.5 46q-140 0 -244 -68.5t-161 -207t-57 -350.5q0 -162 33.5 -280t95 -194.5t147 -113.5
t188.5 -37q105 0 182 37.5t128 97.5t76.5 128.5t27.5 130.5l2 151h-381v99l509 -1v-740h-105v238q-38 -70 -99 -128.5t-146 -94t-198 -35.5zM421 1567l244 205h94l239 -205h-144l-144 124l-154 -124h-135z" />
    <glyph glyph-name="gcircumflex" unicode="&#x11d;" horiz-adv-x="1238" 
d="M582 -342q-225 0 -356.5 71t-131.5 211q0 58 25 99.5t60 70t66 46t41 25.5q-18 12 -40.5 25.5t-38.5 35.5t-16 57q0 45 42.5 82.5t124.5 58.5q-85 45 -135 118t-50 163q0 100 49 174t144 114.5t234 40.5q99 0 167.5 -23.5t128.5 -70.5q13 6 45.5 19.5t73 30.5t74 31
t48.5 20v-140l-183 -37q19 -35 30 -77t11 -81q0 -93 -44.5 -165t-136 -113t-229.5 -41h-20t-20 1q-133 -3 -182 -29t-49 -55q0 -32 45 -45t161 -22q43 -2 100.5 -5t129.5 -8q147 -9 232 -77.5t85 -193.5q0 -138 -119 -224.5t-366 -86.5zM607 -248q155 0 245 50.5t90 154.5
q0 70 -50.5 115.5t-155.5 52.5l-321 20q-34 2 -80 -22t-80.5 -68t-34.5 -101q0 -92 94.5 -147t292.5 -55zM588 496q129 0 207.5 56t78.5 170q0 119 -78.5 178t-207.5 59q-130 0 -210 -59.5t-80 -177.5q0 -108 75.5 -167t214.5 -59zM306 1155l244 205h94l239 -205h-144
l-144 124l-154 -124h-135z" />
    <glyph glyph-name="Gbreve" unicode="&#x11e;" horiz-adv-x="1437" 
d="M708 -20q-186 0 -319 85.5t-203.5 250t-70.5 404.5q0 238 71.5 405t205.5 254t319 87q99 0 189 -36.5t161.5 -99t116 -142.5t51.5 -169h-136q-15 86 -68 161.5t-134.5 121.5t-180.5 46q-140 0 -244 -68.5t-161 -207t-57 -350.5q0 -162 33.5 -280t95 -194.5t147 -113.5
t188.5 -37q105 0 182 37.5t128 97.5t76.5 128.5t27.5 130.5l2 151h-381v99l509 -1v-740h-105v238q-38 -70 -99 -128.5t-146 -94t-198 -35.5zM708 1564q-68 0 -125.5 22.5t-96 66.5t-52.5 106h105q18 -47 62 -77t107 -30q62 0 108.5 30t64.5 77h105q-14 -60 -52 -103.5
t-96 -67.5t-130 -24z" />
    <glyph glyph-name="gbreve" unicode="&#x11f;" horiz-adv-x="1238" 
d="M582 -342q-225 0 -356.5 71t-131.5 211q0 58 25 99.5t60 70t66 46t41 25.5q-18 12 -40.5 25.5t-38.5 35.5t-16 57q0 45 42.5 82.5t124.5 58.5q-85 45 -135 118t-50 163q0 100 49 174t144 114.5t234 40.5q99 0 167.5 -23.5t128.5 -70.5q13 6 45.5 19.5t73 30.5t74 31
t48.5 20v-140l-183 -37q19 -35 30 -77t11 -81q0 -93 -44.5 -165t-136 -113t-229.5 -41h-20t-20 1q-133 -3 -182 -29t-49 -55q0 -32 45 -45t161 -22q43 -2 100.5 -5t129.5 -8q147 -9 232 -77.5t85 -193.5q0 -138 -119 -224.5t-366 -86.5zM607 -248q155 0 245 50.5t90 154.5
q0 70 -50.5 115.5t-155.5 52.5l-321 20q-34 2 -80 -22t-80.5 -68t-34.5 -101q0 -92 94.5 -147t292.5 -55zM588 496q129 0 207.5 56t78.5 170q0 119 -78.5 178t-207.5 59q-130 0 -210 -59.5t-80 -177.5q0 -108 75.5 -167t214.5 -59zM593 1152q-68 0 -125.5 22.5t-96 66.5
t-52.5 106h105q18 -47 62 -77t107 -30q62 0 108.5 30t64.5 77h105q-14 -60 -52 -103.5t-96 -67.5t-130 -24z" />
    <glyph glyph-name="Gdotaccent" unicode="&#x120;" horiz-adv-x="1437" 
d="M708 -20q-186 0 -319 85.5t-203.5 250t-70.5 404.5q0 238 71.5 405t205.5 254t319 87q99 0 189 -36.5t161.5 -99t116 -142.5t51.5 -169h-136q-15 86 -68 161.5t-134.5 121.5t-180.5 46q-140 0 -244 -68.5t-161 -207t-57 -350.5q0 -162 33.5 -280t95 -194.5t147 -113.5
t188.5 -37q105 0 182 37.5t128 97.5t76.5 128.5t27.5 130.5l2 151h-381v99l509 -1v-740h-105v238q-38 -70 -99 -128.5t-146 -94t-198 -35.5zM642 1712v146h136v-146h-136z" />
    <glyph glyph-name="gdotaccent" unicode="&#x121;" horiz-adv-x="1238" 
d="M582 -342q-225 0 -356.5 71t-131.5 211q0 58 25 99.5t60 70t66 46t41 25.5q-18 12 -40.5 25.5t-38.5 35.5t-16 57q0 45 42.5 82.5t124.5 58.5q-85 45 -135 118t-50 163q0 100 49 174t144 114.5t234 40.5q99 0 167.5 -23.5t128.5 -70.5q13 6 45.5 19.5t73 30.5t74 31
t48.5 20v-140l-183 -37q19 -35 30 -77t11 -81q0 -93 -44.5 -165t-136 -113t-229.5 -41h-20t-20 1q-133 -3 -182 -29t-49 -55q0 -32 45 -45t161 -22q43 -2 100.5 -5t129.5 -8q147 -9 232 -77.5t85 -193.5q0 -138 -119 -224.5t-366 -86.5zM607 -248q155 0 245 50.5t90 154.5
q0 70 -50.5 115.5t-155.5 52.5l-321 20q-34 2 -80 -22t-80.5 -68t-34.5 -101q0 -92 94.5 -147t292.5 -55zM588 496q129 0 207.5 56t78.5 170q0 119 -78.5 178t-207.5 59q-130 0 -210 -59.5t-80 -177.5q0 -108 75.5 -167t214.5 -59zM527 1300v146h136v-146h-136z" />
    <glyph glyph-name="uni0122" unicode="&#x122;" horiz-adv-x="1437" 
d="M708 -20q-186 0 -319 85.5t-203.5 250t-70.5 404.5q0 238 71.5 405t205.5 254t319 87q99 0 189 -36.5t161.5 -99t116 -142.5t51.5 -169h-136q-15 86 -68 161.5t-134.5 121.5t-180.5 46q-140 0 -244 -68.5t-161 -207t-57 -350.5q0 -162 33.5 -280t95 -194.5t147 -113.5
t188.5 -37q105 0 182 37.5t128 97.5t76.5 128.5t27.5 130.5l2 151h-381v99l509 -1v-740h-105v238q-38 -70 -99 -128.5t-146 -94t-198 -35.5zM611 -346l76 110l-52 2v135h153v-114l-116 -133h-61z" />
    <glyph glyph-name="uni0123" unicode="&#x123;" horiz-adv-x="1238" 
d="M582 -342q-225 0 -356.5 71t-131.5 211q0 58 25 99.5t60 70t66 46t41 25.5q-18 12 -40.5 25.5t-38.5 35.5t-16 57q0 45 42.5 82.5t124.5 58.5q-85 45 -135 118t-50 163q0 100 49 174t144 114.5t234 40.5q99 0 167.5 -23.5t128.5 -70.5q13 6 45.5 19.5t73 30.5t74 31
t48.5 20v-140l-183 -37q19 -35 30 -77t11 -81q0 -93 -44.5 -165t-136 -113t-229.5 -41h-20t-20 1q-133 -3 -182 -29t-49 -55q0 -32 45 -45t161 -22q43 -2 100.5 -5t129.5 -8q147 -9 232 -77.5t85 -193.5q0 -138 -119 -224.5t-366 -86.5zM607 -248q155 0 245 50.5t90 154.5
q0 70 -50.5 115.5t-155.5 52.5l-321 20q-34 2 -80 -22t-80.5 -68t-34.5 -101q0 -92 94.5 -147t292.5 -55zM588 496q129 0 207.5 56t78.5 170q0 119 -78.5 178t-207.5 59q-130 0 -210 -59.5t-80 -177.5q0 -108 75.5 -167t214.5 -59zM523 1155v172l85 144h72l-69 -143l53 -3
v-170h-141z" />
    <glyph glyph-name="Hcircumflex" unicode="&#x124;" horiz-adv-x="1527" 
d="M207 0v1446h125v-636h864v636h124v-1446h-124v692h-864v-692h-125zM471 1577l244 205h94l239 -205h-144l-144 124l-154 -124h-135z" />
    <glyph glyph-name="hcircumflex" unicode="&#x125;" horiz-adv-x="1136" 
d="M168 0v1486h120v-605q26 46 73.5 85t114 62t149.5 23q102 0 183.5 -37t129.5 -104t48 -156v-754h-125v721q0 105 -70.5 163t-189.5 58q-82 0 -152.5 -25.5t-113 -77.5t-42.5 -132v-707h-125zM-62 1567l244 205h94l239 -205h-144l-144 124l-154 -124h-135z" />
    <glyph glyph-name="Hbar" unicode="&#x126;" horiz-adv-x="1547" 
d="M23 1121v97h1501v-97h-1501zM222 0v1446h125v-636h864v636h124v-1446h-124v692h-864v-692h-125z" />
    <glyph glyph-name="hbar" unicode="&#x127;" horiz-adv-x="1144" 
d="M40 1208v90h588v-90h-588zM176 0v1486h120v-605q26 46 73.5 85t114 62t149.5 23q103 0 184.5 -37t129 -104t47.5 -156v-754h-124v721q0 105 -71 163t-190 58q-81 0 -152 -25.5t-113.5 -77.5t-42.5 -132v-707h-125z" />
    <glyph glyph-name="Itilde" unicode="&#x128;" horiz-adv-x="539" 
d="M207 0v1446h125v-1446h-125zM25 1648l-29 84q31 27 66 46.5t86 19.5q45 0 84.5 -13t78.5 -26.5t82 -13.5q41 0 69 13.5t57 34.5l30 -92q-24 -16 -60 -34t-97 -18q-52 0 -89 12.5t-71 25t-76 12.5q-49 0 -77 -16.5t-54 -34.5z" />
    <glyph glyph-name="itilde" unicode="&#x129;" horiz-adv-x="491" 
d="M182 0v1034h122v-1034h-122zM-2 1236l-29 84q31 27 66 46.5t86 19.5q45 0 84.5 -13t78.5 -26.5t82 -13.5q41 0 69 13.5t57 34.5l30 -92q-24 -16 -60 -34t-97 -18q-52 0 -89 12.5t-71 25t-76 12.5q-49 0 -77 -16.5t-54 -34.5z" />
    <glyph glyph-name="Imacron" unicode="&#x12a;" horiz-adv-x="539" 
d="M207 0v1446h125v-1446h-125zM2 1664v99h536v-99h-536z" />
    <glyph glyph-name="imacron" unicode="&#x12b;" horiz-adv-x="495" 
d="M186 0v1034h122v-1034h-122zM-22 1252v99h536v-99h-536z" />
    <glyph glyph-name="Ibreve" unicode="&#x12c;" horiz-adv-x="539" 
d="M207 0v1446h125v-1446h-125zM268 1564q-68 0 -125.5 22.5t-96 66.5t-52.5 106h105q18 -47 62 -77t107 -30q62 0 108.5 30t64.5 77h105q-14 -60 -52 -103.5t-96 -67.5t-130 -24z" />
    <glyph glyph-name="ibreve" unicode="&#x12d;" horiz-adv-x="458" 
d="M168 0v1034h122v-1034h-122zM227 1152q-68 0 -125.5 22.5t-96 66.5t-52.5 106h105q18 -47 62 -77t107 -30q62 0 108.5 30t64.5 77h105q-14 -60 -52 -103.5t-96 -67.5t-130 -24z" />
    <glyph glyph-name="Iogonek" unicode="&#x12e;" horiz-adv-x="539" 
d="M207 0v1446h125v-1446h-125zM211 -335q-95 0 -140.5 43t-45.5 112q0 63 44.5 111t165.5 84l97 -15q-99 -43 -146.5 -82.5t-47.5 -92.5q0 -39 24 -58.5t79 -19.5q49 0 87.5 11.5t55.5 21.5v-78q-23 -13 -70.5 -25t-102.5 -12z" />
    <glyph glyph-name="iogonek" unicode="&#x12f;" horiz-adv-x="458" 
d="M168 0v1034h122v-1034h-122zM161 1300v146h136v-146h-136zM166 -329q-95 0 -140.5 43t-45.5 112q0 63 44.5 111t165.5 84l97 -15q-99 -43 -146.5 -82.5t-47.5 -92.5q0 -39 24 -58.5t79 -19.5q49 0 87.5 11.5t55.5 21.5v-78q-23 -13 -70.5 -25t-102.5 -12z" />
    <glyph glyph-name="Idotaccent" unicode="&#x130;" horiz-adv-x="539" 
d="M207 0v1446h125v-1446h-125zM203 1712v146h136v-146h-136z" />
    <glyph glyph-name="dotlessi" unicode="&#x131;" horiz-adv-x="458" 
d="M168 0v1034h122v-1034h-122z" />
    <glyph glyph-name="Jcircumflex" unicode="&#x134;" horiz-adv-x="762" 
d="M324 -20q-81 0 -145.5 21.5t-80.5 30.5l17 126q32 -13 74.5 -33.5t111.5 -20.5q96 0 133 54.5t37 187.5v1100h125v-1139q0 -102 -24 -175.5t-83 -112.5t-165 -39zM242 1567l244 205h94l239 -205h-144l-144 124l-154 -124h-135z" />
    <glyph glyph-name="jcircumflex" unicode="&#x135;" horiz-adv-x="491" 
d="M75 -332q-86 0 -107.5 5t-21.5 15v84l116 3q73 3 104.5 38t31.5 119v1102h125v-1111q0 -130 -53 -192.5t-195 -62.5zM-30 1155l244 205h94l239 -205h-144l-144 124l-154 -124h-135z" />
    <glyph glyph-name="uni0136" unicode="&#x136;" horiz-adv-x="1325" 
d="M207 0v1446h131v-796l715 796h157l-509 -573l544 -873h-147l-489 782l-271 -303v-479h-131zM576 -346l76 110l-52 2v135h153v-114l-116 -133h-61z" />
    <glyph glyph-name="uni0137" unicode="&#x137;" horiz-adv-x="1103" 
d="M168 0v1486h124v-1019l546 567h154l-371 -384l404 -650h-142l-349 560l-242 -248v-312h-124zM448 -346l76 110l-52 2v135h153v-114l-116 -133h-61z" />
    <glyph glyph-name="kgreenlandic" unicode="&#x138;" horiz-adv-x="1112" 
d="M168 0v1034h124v-574l555 574h151l-365 -370l401 -664h-151l-339 566l-252 -254v-312h-124z" />
    <glyph glyph-name="Lacute" unicode="&#x139;" horiz-adv-x="1154" 
d="M207 0l2 1446h130v-1325h714v-121h-846zM209 1567l206 291h159l-260 -291h-105z" />
    <glyph glyph-name="lacute" unicode="&#x13a;" horiz-adv-x="577" 
d="M390 -10q-65 0 -108.5 20.5t-68.5 57t-35 84t-10 101.5v1233h123v-1226q0 -90 34 -131t83 -42l59 -1v-84q-19 -6 -40.5 -9t-36.5 -3zM159 1646l206 291h159l-260 -291h-105z" />
    <glyph glyph-name="uni013B" unicode="&#x13b;" horiz-adv-x="1154" 
d="M207 0l2 1446h130v-1325h714v-121h-846zM523 -346l76 110l-52 2v135h153v-114l-116 -133h-61z" />
    <glyph glyph-name="uni013C" unicode="&#x13c;" horiz-adv-x="577" 
d="M390 -10q-65 0 -108.5 20.5t-68.5 57t-35 84t-10 101.5v1233h123v-1226q0 -90 34 -131t83 -42l59 -1v-84q-19 -6 -40.5 -9t-36.5 -3zM165 -344l76 110l-52 2v135h153v-114l-116 -133h-61z" />
    <glyph glyph-name="Lcaron" unicode="&#x13d;" horiz-adv-x="1154" 
d="M207 0l2 1446h130v-1325h714v-121h-846zM749 1085l73 174l-45 9v178h126v-187l-75 -174h-79z" />
    <glyph glyph-name="lcaron" unicode="&#x13e;" horiz-adv-x="577" 
d="M390 -10q-65 0 -108.5 20.5t-68.5 57t-35 84t-10 101.5v1233h123v-1226q0 -90 34 -131t83 -42l59 -1v-84q-19 -6 -40.5 -9t-36.5 -3zM399 1125l73 174l-45 9v178h126v-187l-75 -174h-79z" />
    <glyph glyph-name="Ldot" unicode="&#x13f;" horiz-adv-x="1154" 
d="M207 0l2 1446h130v-1325h714v-121h-846zM759 689v183h191v-183h-191z" />
    <glyph glyph-name="ldot" unicode="&#x140;" horiz-adv-x="618" 
d="M390 -10q-65 0 -108.5 20.5t-68.5 57t-35 84t-10 101.5v1233h123v-1226q0 -90 34 -131t83 -42l59 -1v-84q-19 -6 -40.5 -9t-36.5 -3zM443 683v183h191v-183h-191z" />
    <glyph glyph-name="Lslash" unicode="&#x141;" horiz-adv-x="1152" 
d="M25 620v112l620 159v-107zM205 0l1 1446h130v-1325h714v-121h-845z" />
    <glyph glyph-name="lslash" unicode="&#x142;" horiz-adv-x="685" 
d="M70 332v125l488 426v-119zM467 -10q-66 0 -109 20.5t-68 57t-35 84t-10 101.5v1233h123v-1226q0 -90 34 -131t82 -42l60 -1v-84q-19 -6 -40.5 -9t-36.5 -3z" />
    <glyph glyph-name="Nacute" unicode="&#x143;" horiz-adv-x="1476" 
d="M207 0v1446h113l825 -1217v1217h124v-1446h-110l-827 1222v-1222h-125zM673 1567l206 291h159l-260 -291h-105z" />
    <glyph glyph-name="nacute" unicode="&#x144;" horiz-adv-x="1136" 
d="M168 0v1034h119v-152q26 46 73.5 85t114 62t149.5 23q100 0 182.5 -40.5t131 -124t48.5 -214.5v-673h-124v665q0 142 -71 209.5t-190 67.5q-81 0 -152 -25.5t-113.5 -77.5t-42.5 -132v-707h-125zM530 1155l206 291h159l-260 -291h-105z" />
    <glyph glyph-name="uni0145" unicode="&#x145;" horiz-adv-x="1476" 
d="M207 0v1446h113l825 -1217v1217h124v-1446h-110l-827 1222v-1222h-125zM601 -346l76 110l-52 2v135h153v-114l-116 -133h-61z" />
    <glyph glyph-name="uni0146" unicode="&#x146;" horiz-adv-x="1136" 
d="M168 0v1034h119v-152q26 46 73.5 85t114 62t149.5 23q100 0 182.5 -40.5t131 -124t48.5 -214.5v-673h-124v665q0 142 -71 209.5t-190 67.5q-81 0 -152 -25.5t-113.5 -77.5t-42.5 -132v-707h-125zM483 -346l76 110l-52 2v135h153v-114l-116 -133h-61z" />
    <glyph glyph-name="Ncaron" unicode="&#x147;" horiz-adv-x="1476" 
d="M207 0v1446h113l825 -1217v1217h124v-1446h-110l-827 1222v-1222h-125zM693 1567l-245 205h136l154 -126l144 126h144l-239 -205h-94z" />
    <glyph glyph-name="ncaron" unicode="&#x148;" horiz-adv-x="1136" 
d="M168 0v1034h119v-152q26 46 73.5 85t114 62t149.5 23q100 0 182.5 -40.5t131 -124t48.5 -214.5v-673h-124v665q0 142 -71 209.5t-190 67.5q-81 0 -152 -25.5t-113.5 -77.5t-42.5 -132v-707h-125zM550 1155l-245 205h136l154 -126l144 126h144l-239 -205h-94z" />
    <glyph glyph-name="Eng" unicode="&#x14a;" horiz-adv-x="1476" 
d="M997 -480q-81 0 -145.5 21.5t-80.5 30.5l17 126q32 -13 74.5 -33.5t111.5 -20.5q94 0 133 52t39 179v144l-814 1203v-1222h-125v1446h113l825 -1217v1217h124v-1599q0 -105 -24.5 -178t-83.5 -111t-164 -38z" />
    <glyph glyph-name="eng" unicode="&#x14b;" horiz-adv-x="1155" 
d="M738 -332q-76 0 -95 4.5t-19 14.5v82l100 2q74 3 106 39t32 121v787q0 103 -51.5 167.5t-174.5 64.5q-86 0 -172 -46.5t-171 -124.5v-779h-125l1 1034h118v-157q82 67 144 105.5t119 55t121 16.5q149 0 232.5 -81t83.5 -211v-822q0 -86 -27 -147t-82.5 -93t-139.5 -32z
" />
    <glyph glyph-name="Omacron" unicode="&#x14c;" horiz-adv-x="1437" 
d="M722 -20q-187 0 -323.5 85.5t-210 250.5t-73.5 404q0 240 74 406.5t210 253t323 86.5q186 0 321 -86t207.5 -252.5t72.5 -407.5q0 -238 -72.5 -403t-207.5 -251t-321 -86zM722 97q149 0 252.5 67t157 205.5t53.5 349.5q0 215 -54.5 354t-157.5 207.5t-251 68.5
t-253 -68.5t-160.5 -208.5t-55.5 -353q0 -212 55.5 -350t160.5 -205t253 -67zM454 1664v99h536v-99h-536z" />
    <glyph glyph-name="omacron" unicode="&#x14d;" horiz-adv-x="1119" 
d="M562 -20q-138 0 -241.5 59.5t-161 178t-57.5 295.5q0 163 51.5 284.5t154 189t254.5 67.5q138 0 239.5 -60.5t158.5 -180.5t57 -300q0 -159 -50.5 -279t-151.5 -187t-253 -67zM562 85q102 0 175.5 49t113.5 145t40 237q0 126 -35 223.5t-107.5 153t-186.5 55.5
q-103 0 -177.5 -48.5t-115 -145t-40.5 -238.5q0 -126 35 -223t109 -152.5t189 -55.5zM292 1252v99h536v-99h-536z" />
    <glyph glyph-name="Obreve" unicode="&#x14e;" horiz-adv-x="1437" 
d="M722 -20q-187 0 -323.5 85.5t-210 250.5t-73.5 404q0 240 74 406.5t210 253t323 86.5q186 0 321 -86t207.5 -252.5t72.5 -407.5q0 -238 -72.5 -403t-207.5 -251t-321 -86zM722 97q149 0 252.5 67t157 205.5t53.5 349.5q0 215 -54.5 354t-157.5 207.5t-251 68.5
t-253 -68.5t-160.5 -208.5t-55.5 -353q0 -212 55.5 -350t160.5 -205t253 -67zM721 1564q-68 0 -125.5 22.5t-96 66.5t-52.5 106h105q18 -47 62 -77t107 -30q62 0 108.5 30t64.5 77h105q-14 -60 -52 -103.5t-96 -67.5t-130 -24z" />
    <glyph glyph-name="obreve" unicode="&#x14f;" horiz-adv-x="1119" 
d="M562 -20q-138 0 -241.5 59.5t-161 178t-57.5 295.5q0 163 51.5 284.5t154 189t254.5 67.5q138 0 239.5 -60.5t158.5 -180.5t57 -300q0 -159 -50.5 -279t-151.5 -187t-253 -67zM562 85q102 0 175.5 49t113.5 145t40 237q0 126 -35 223.5t-107.5 153t-186.5 55.5
q-103 0 -177.5 -48.5t-115 -145t-40.5 -238.5q0 -126 35 -223t109 -152.5t189 -55.5zM558 1152q-68 0 -125.5 22.5t-96 66.5t-52.5 106h105q18 -47 62 -77t107 -30q62 0 108.5 30t64.5 77h105q-14 -60 -52 -103.5t-96 -67.5t-130 -24z" />
    <glyph glyph-name="Ohungarumlaut" unicode="&#x150;" horiz-adv-x="1437" 
d="M722 -20q-187 0 -323.5 85.5t-210 250.5t-73.5 404q0 240 74 406.5t210 253t323 86.5q186 0 321 -86t207.5 -252.5t72.5 -407.5q0 -238 -72.5 -403t-207.5 -251t-321 -86zM722 97q149 0 252.5 67t157 205.5t53.5 349.5q0 215 -54.5 354t-157.5 207.5t-251 68.5
t-253 -68.5t-160.5 -208.5t-55.5 -353q0 -212 55.5 -350t160.5 -205t253 -67zM796 1567l231 291h154l-280 -291h-105zM559 1567l193 291h152l-241 -291h-104z" />
    <glyph glyph-name="ohungarumlaut" unicode="&#x151;" horiz-adv-x="1119" 
d="M562 -20q-138 0 -241.5 59.5t-161 178t-57.5 295.5q0 163 51.5 284.5t154 189t254.5 67.5q138 0 239.5 -60.5t158.5 -180.5t57 -300q0 -159 -50.5 -279t-151.5 -187t-253 -67zM562 85q102 0 175.5 49t113.5 145t40 237q0 126 -35 223.5t-107.5 153t-186.5 55.5
q-103 0 -177.5 -48.5t-115 -145t-40.5 -238.5q0 -126 35 -223t109 -152.5t189 -55.5zM633 1155l231 291h154l-280 -291h-105zM396 1155l193 291h152l-241 -291h-104z" />
    <glyph glyph-name="OE" unicode="&#x152;" horiz-adv-x="2226" 
d="M1332 672v-552l766 -2v-118h-890v277q-69 -146 -193 -221.5t-293 -75.5q-187 0 -323.5 85.5t-210 250.5t-73.5 404q0 240 74 406.5t210 253t323 86.5q169 0 293 -75.5t193 -223.5v279h865v-116h-740v-541h679v-117h-680zM722 97q149 0 252.5 67t157 205.5t53.5 349.5
q0 215 -54.5 354t-157.5 207.5t-251 68.5t-253 -68.5t-160.5 -208.5t-55.5 -353q0 -212 55.5 -350t160.5 -205t253 -67z" />
    <glyph glyph-name="oe" unicode="&#x153;" horiz-adv-x="1911" 
d="M1798 549v-62h-767q0 -108 36 -199.5t111.5 -147t193.5 -55.5q113 0 193 53.5t99 148.5h124q-19 -102 -81.5 -170.5t-149.5 -102.5t-183 -34q-145 0 -252.5 69t-160.5 198q-47 -125 -146 -196t-253 -71q-138 0 -241.5 59.5t-161 178t-57.5 295.5q0 163 51.5 284.5
t154 189t254.5 67.5q142 0 245.5 -66.5t153.5 -201.5q50 128 152 198t248 70q139 0 236.5 -60.5t149 -173.5t51.5 -271zM562 85q102 0 175.5 49t113.5 145t40 237q0 126 -35 223.5t-107.5 153t-186.5 55.5q-103 0 -177.5 -48.5t-115 -145t-40.5 -238.5q0 -126 35 -223
t109 -152.5t189 -55.5zM1032 585h641q0 103 -34 186t-103.5 131t-176.5 48q-114 0 -186.5 -54.5t-107 -138.5t-33.5 -172z" />
    <glyph glyph-name="Racute" unicode="&#x154;" horiz-adv-x="1331" 
d="M207 0v1446h532q147 0 249 -43.5t154.5 -126.5t52.5 -204q0 -120 -45.5 -198t-113.5 -123t-137 -67l293 -684h-137l-279 659h-444v-659h-125zM332 773h343q189 0 289.5 68.5t100.5 217.5q0 143 -87 209.5t-247 66.5h-399v-562zM582 1567l206 291h159l-260 -291h-105z" />
    <glyph glyph-name="racute" unicode="&#x155;" horiz-adv-x="758" 
d="M168 0v1034h118v-174q26 72 74 114.5t106 61t114 18.5q27 0 54 -4t43 -13v-123q-18 8 -47.5 11.5t-49.5 3.5q-48 2 -98 -9t-93 -38.5t-69.5 -75.5t-26.5 -120v-686h-125zM343 1155l206 291h159l-260 -291h-105z" />
    <glyph glyph-name="uni0156" unicode="&#x156;" horiz-adv-x="1331" 
d="M207 0v1446h532q147 0 249 -43.5t154.5 -126.5t52.5 -204q0 -120 -45.5 -198t-113.5 -123t-137 -67l293 -684h-137l-279 659h-444v-659h-125zM332 773h343q189 0 289.5 68.5t100.5 217.5q0 143 -87 209.5t-247 66.5h-399v-562zM566 -346l76 110l-52 2v135h153v-114
l-116 -133h-61z" />
    <glyph glyph-name="uni0157" unicode="&#x157;" horiz-adv-x="758" 
d="M168 0v1034h118v-174q26 72 74 114.5t106 61t114 18.5q27 0 54 -4t43 -13v-123q-18 8 -47.5 11.5t-49.5 3.5q-48 2 -98 -9t-93 -38.5t-69.5 -75.5t-26.5 -120v-686h-125zM133 -346l76 110l-52 2v135h153v-114l-116 -133h-61z" />
    <glyph glyph-name="Rcaron" unicode="&#x158;" horiz-adv-x="1331" 
d="M207 0v1446h532q147 0 249 -43.5t154.5 -126.5t52.5 -204q0 -120 -45.5 -198t-113.5 -123t-137 -67l293 -684h-137l-279 659h-444v-659h-125zM332 773h343q189 0 289.5 68.5t100.5 217.5q0 143 -87 209.5t-247 66.5h-399v-562zM602 1567l-245 205h136l154 -126l144 126
h144l-239 -205h-94z" />
    <glyph glyph-name="rcaron" unicode="&#x159;" horiz-adv-x="758" 
d="M168 0v1034h118v-174q26 72 74 114.5t106 61t114 18.5q27 0 54 -4t43 -13v-123q-18 8 -47.5 11.5t-49.5 3.5q-48 2 -98 -9t-93 -38.5t-69.5 -75.5t-26.5 -120v-686h-125zM363 1155l-245 205h136l154 -126l144 126h144l-239 -205h-94z" />
    <glyph glyph-name="Sacute" unicode="&#x15a;" horiz-adv-x="1315" 
d="M667 -20q-103 0 -194.5 25t-164.5 74t-120.5 121t-62.5 167h134q21 -91 80 -152.5t146 -92.5t186 -31q106 0 192 34.5t137 98t51 150.5q0 93 -57.5 154.5t-187.5 97.5l-312 87q-94 25 -167 68.5t-115.5 114t-42.5 177.5q0 116 63.5 204t174 137.5t249.5 49.5
q165 0 276 -59.5t168 -153t57 -195.5h-133q-10 112 -65 176.5t-135.5 92.5t-171.5 28q-170 0 -260 -80t-90 -193q0 -102 63.5 -158.5t180.5 -88.5l312 -86q122 -32 193 -88t100.5 -127.5t29.5 -150.5q0 -114 -62.5 -205t-177.5 -143.5t-274 -52.5zM585 1567l206 291h159
l-260 -291h-105z" />
    <glyph glyph-name="sacute" unicode="&#x15b;" horiz-adv-x="988" 
d="M516 -20q-108 0 -196.5 33t-144.5 101t-70 173h120q14 -64 51.5 -109.5t98.5 -70t141 -24.5q116 0 187 46t71 142q0 65 -35.5 104.5t-106.5 58.5l-232 61q-118 31 -188 91.5t-70 169.5q0 88 40.5 155t123.5 105t207 38q156 0 253.5 -71t103.5 -213h-119q-10 82 -70 132
t-168 50q-112 0 -181.5 -46.5t-69.5 -144.5q0 -64 46.5 -100t133.5 -58l229 -62q63 -17 105.5 -45.5t68 -63.5t37 -75t11.5 -79q0 -91 -42.5 -157.5t-126.5 -103.5t-208 -37zM451 1155l206 291h159l-260 -291h-105z" />
    <glyph glyph-name="Scircumflex" unicode="&#x15c;" horiz-adv-x="1315" 
d="M667 -20q-103 0 -194.5 25t-164.5 74t-120.5 121t-62.5 167h134q21 -91 80 -152.5t146 -92.5t186 -31q106 0 192 34.5t137 98t51 150.5q0 93 -57.5 154.5t-187.5 97.5l-312 87q-94 25 -167 68.5t-115.5 114t-42.5 177.5q0 116 63.5 204t174 137.5t249.5 49.5
q165 0 276 -59.5t168 -153t57 -195.5h-133q-10 112 -65 176.5t-135.5 92.5t-171.5 28q-170 0 -260 -80t-90 -193q0 -102 63.5 -158.5t180.5 -88.5l312 -86q122 -32 193 -88t100.5 -127.5t29.5 -150.5q0 -114 -62.5 -205t-177.5 -143.5t-274 -52.5zM361 1567l244 205h94
l239 -205h-144l-144 124l-154 -124h-135z" />
    <glyph glyph-name="scircumflex" unicode="&#x15d;" horiz-adv-x="988" 
d="M516 -20q-108 0 -196.5 33t-144.5 101t-70 173h120q14 -64 51.5 -109.5t98.5 -70t141 -24.5q116 0 187 46t71 142q0 65 -35.5 104.5t-106.5 58.5l-232 61q-118 31 -188 91.5t-70 169.5q0 88 40.5 155t123.5 105t207 38q156 0 253.5 -71t103.5 -213h-119q-10 82 -70 132
t-168 50q-112 0 -181.5 -46.5t-69.5 -144.5q0 -64 46.5 -100t133.5 -58l229 -62q63 -17 105.5 -45.5t68 -63.5t37 -75t11.5 -79q0 -91 -42.5 -157.5t-126.5 -103.5t-208 -37zM227 1155l244 205h94l239 -205h-144l-144 124l-154 -124h-135z" />
    <glyph glyph-name="Scedilla" unicode="&#x15e;" horiz-adv-x="1315" 
d="M597 -404q-49 0 -90.5 12t-77.5 36l26 65q23 -19 53 -32t75 -13q58 0 85 21t27 58q0 45 -37 67t-117 24q-8 0 -10 3t0 8l72 165h80l-49 -122q64 -5 100.5 -26.5t51 -53t14.5 -62.5q0 -50 -28 -83.5t-74 -50t-101 -16.5zM667 -20q-103 0 -194.5 25t-164.5 74t-120.5 121
t-62.5 167h134q21 -91 80 -152.5t146 -92.5t186 -31q106 0 192 34.5t137 98t51 150.5q0 93 -57.5 154.5t-187.5 97.5l-312 87q-94 25 -167 68.5t-115.5 114t-42.5 177.5q0 116 63.5 204t174 137.5t249.5 49.5q165 0 276 -59.5t168 -153t57 -195.5h-133q-10 112 -65 176.5
t-135.5 92.5t-171.5 28q-170 0 -260 -80t-90 -193q0 -102 63.5 -158.5t180.5 -88.5l312 -86q122 -32 193 -88t100.5 -127.5t29.5 -150.5q0 -114 -62.5 -205t-177.5 -143.5t-274 -52.5z" />
    <glyph glyph-name="scedilla" unicode="&#x15f;" horiz-adv-x="988" 
d="M452 -404q-49 0 -90.5 12t-77.5 36l26 65q23 -19 53 -32t75 -13q58 0 85 21t27 58q0 45 -37 67t-117 24q-8 0 -10 3t0 8l72 165h80l-49 -122q64 -5 100.5 -26.5t51 -53t14.5 -62.5q0 -50 -28 -83.5t-74 -50t-101 -16.5zM516 -20q-108 0 -196.5 33t-144.5 101t-70 173h120
q14 -64 51.5 -109.5t98.5 -70t141 -24.5q116 0 187 46t71 142q0 65 -35.5 104.5t-106.5 58.5l-232 61q-118 31 -188 91.5t-70 169.5q0 88 40.5 155t123.5 105t207 38q156 0 253.5 -71t103.5 -213h-119q-10 82 -70 132t-168 50q-112 0 -181.5 -46.5t-69.5 -144.5
q0 -64 46.5 -100t133.5 -58l229 -62q63 -17 105.5 -45.5t68 -63.5t37 -75t11.5 -79q0 -91 -42.5 -157.5t-126.5 -103.5t-208 -37z" />
    <glyph glyph-name="Scaron" unicode="&#x160;" horiz-adv-x="1315" 
d="M667 -20q-103 0 -194.5 25t-164.5 74t-120.5 121t-62.5 167h134q21 -91 80 -152.5t146 -92.5t186 -31q106 0 192 34.5t137 98t51 150.5q0 93 -57.5 154.5t-187.5 97.5l-312 87q-94 25 -167 68.5t-115.5 114t-42.5 177.5q0 116 63.5 204t174 137.5t249.5 49.5
q165 0 276 -59.5t168 -153t57 -195.5h-133q-10 112 -65 176.5t-135.5 92.5t-171.5 28q-170 0 -260 -80t-90 -193q0 -102 63.5 -158.5t180.5 -88.5l312 -86q122 -32 193 -88t100.5 -127.5t29.5 -150.5q0 -114 -62.5 -205t-177.5 -143.5t-274 -52.5zM605 1567l-245 205h136
l154 -126l144 126h144l-239 -205h-94z" />
    <glyph glyph-name="scaron" unicode="&#x161;" horiz-adv-x="988" 
d="M516 -20q-108 0 -196.5 33t-144.5 101t-70 173h120q14 -64 51.5 -109.5t98.5 -70t141 -24.5q116 0 187 46t71 142q0 65 -35.5 104.5t-106.5 58.5l-232 61q-118 31 -188 91.5t-70 169.5q0 88 40.5 155t123.5 105t207 38q156 0 253.5 -71t103.5 -213h-119q-10 82 -70 132
t-168 50q-112 0 -181.5 -46.5t-69.5 -144.5q0 -64 46.5 -100t133.5 -58l229 -62q63 -17 105.5 -45.5t68 -63.5t37 -75t11.5 -79q0 -91 -42.5 -157.5t-126.5 -103.5t-208 -37zM471 1155l-245 205h136l154 -126l144 126h144l-239 -205h-94z" />
    <glyph glyph-name="uni0162" unicode="&#x162;" horiz-adv-x="1161" 
d="M559 -401q-48 0 -89.5 12t-77.5 36l26 66q23 -19 53 -32.5t74 -13.5q59 0 86 21t27 58q0 46 -37 67.5t-117 24.5q-9 0 -10.5 2.5t0.5 7.5l72 165h80l-49 -122q64 -4 100.5 -26t51 -53t14.5 -63q0 -49 -28 -82.5t-74 -50.5t-102 -17zM534 0v1327h-483v119h1059v-119h-450
v-1327h-126z" />
    <glyph glyph-name="uni0163" unicode="&#x163;" horiz-adv-x="748" 
d="M410 -401q-49 0 -90.5 12t-77.5 35l26 66q24 -19 53.5 -32t74.5 -13q59 0 85.5 20.5t26.5 58.5q0 45 -36.5 67t-117.5 24q-8 0 -10 3t0 8l72 165h80l-49 -123q65 -4 101 -25.5t51 -53t15 -63.5q0 -49 -28 -82.5t-74.5 -50t-101.5 -16.5zM510 -2q-91 0 -141 26t-70 79.5
t-20 136.5v697h-168v97h170l28 295h95v-295h235v-97h-235v-694q0 -65 12 -94.5t43.5 -37.5t89.5 -8h99v-92q-19 -7 -55.5 -10t-82.5 -3z" />
    <glyph glyph-name="Tcaron" unicode="&#x164;" horiz-adv-x="1161" 
d="M534 0v1327h-483v119h1059v-119h-450v-1327h-126zM557 1567l-245 205h136l154 -126l144 126h144l-239 -205h-94z" />
    <glyph glyph-name="tcaron" unicode="&#x165;" horiz-adv-x="814" 
d="M510 -2q-91 0 -141 26t-70 79.5t-20 136.5v697h-168v97h170l28 295h95v-295h235v-97h-235v-694q0 -65 12 -94.5t43.5 -37.5t89.5 -8h99v-92q-19 -7 -55.5 -10t-82.5 -3zM496 1140l73 174l-45 9v178h126v-187l-75 -174h-79z" />
    <glyph glyph-name="Tbar" unicode="&#x166;" horiz-adv-x="1161" 
d="M213 679v111h735v-111h-735zM534 0v1327h-483v119h1059v-119h-450v-1327h-126z" />
    <glyph glyph-name="tbar" unicode="&#x167;" horiz-adv-x="748" 
d="M115 566v89h519v-89h-519zM510 -2q-91 0 -141 26t-70 79.5t-20 136.5v697h-168v97h170l28 295h95v-295h235v-97h-235v-694q0 -65 12 -94.5t43.5 -37.5t89.5 -8h99v-92q-19 -7 -55.5 -10t-82.5 -3z" />
    <glyph glyph-name="Utilde" unicode="&#x168;" horiz-adv-x="1375" 
d="M707 -20q-174 0 -284.5 57t-163 172t-52.5 287v950h132v-981q0 -183 92.5 -277t275.5 -94q123 0 207 41t126.5 123.5t42.5 206.5v981h126v-975q0 -162 -54 -271t-165 -164.5t-283 -55.5zM465 1648l-29 84q31 27 66 46.5t86 19.5q45 0 84.5 -13t78.5 -26.5t82 -13.5
q41 0 69 13.5t57 34.5l30 -92q-24 -16 -60 -34t-97 -18q-52 0 -89 12.5t-71 25t-76 12.5q-49 0 -77 -16.5t-54 -34.5z" />
    <glyph glyph-name="utilde" unicode="&#x169;" horiz-adv-x="1145" 
d="M548 -20q-86 1 -158.5 23.5t-126.5 67t-84 112t-30 157.5v694h125v-686q0 -117 71 -189.5t218 -72.5q130 0 210 68t80 208v672h124v-1034h-105l-12 193q-18 -70 -61 -117.5t-106.5 -72t-144.5 -23.5zM321 1236l-29 84q31 27 66 46.5t86 19.5q45 0 84.5 -13t78.5 -26.5
t82 -13.5q41 0 69 13.5t57 34.5l30 -92q-24 -16 -60 -34t-97 -18q-52 0 -89 12.5t-71 25t-76 12.5q-49 0 -77 -16.5t-54 -34.5z" />
    <glyph glyph-name="Umacron" unicode="&#x16a;" horiz-adv-x="1375" 
d="M707 -20q-174 0 -284.5 57t-163 172t-52.5 287v950h132v-981q0 -183 92.5 -277t275.5 -94q123 0 207 41t126.5 123.5t42.5 206.5v981h126v-975q0 -162 -54 -271t-165 -164.5t-283 -55.5zM442 1664v99h536v-99h-536z" />
    <glyph glyph-name="umacron" unicode="&#x16b;" horiz-adv-x="1145" 
d="M548 -20q-86 1 -158.5 23.5t-126.5 67t-84 112t-30 157.5v694h125v-686q0 -117 71 -189.5t218 -72.5q130 0 210 68t80 208v672h124v-1034h-105l-12 193q-18 -70 -61 -117.5t-106.5 -72t-144.5 -23.5zM298 1252v99h536v-99h-536z" />
    <glyph glyph-name="Ubreve" unicode="&#x16c;" horiz-adv-x="1375" 
d="M707 -20q-174 0 -284.5 57t-163 172t-52.5 287v950h132v-981q0 -183 92.5 -277t275.5 -94q123 0 207 41t126.5 123.5t42.5 206.5v981h126v-975q0 -162 -54 -271t-165 -164.5t-283 -55.5zM708 1564q-68 0 -125.5 22.5t-96 66.5t-52.5 106h105q18 -47 62 -77t107 -30
q62 0 108.5 30t64.5 77h105q-14 -60 -52 -103.5t-96 -67.5t-130 -24z" />
    <glyph glyph-name="ubreve" unicode="&#x16d;" horiz-adv-x="1145" 
d="M548 -20q-86 1 -158.5 23.5t-126.5 67t-84 112t-30 157.5v694h125v-686q0 -117 71 -189.5t218 -72.5q130 0 210 68t80 208v672h124v-1034h-105l-12 193q-18 -70 -61 -117.5t-106.5 -72t-144.5 -23.5zM565 1152q-68 0 -125.5 22.5t-96 66.5t-52.5 106h105q18 -47 62 -77
t107 -30q62 0 108.5 30t64.5 77h105q-14 -60 -52 -103.5t-96 -67.5t-130 -24z" />
    <glyph glyph-name="Uring" unicode="&#x16e;" horiz-adv-x="1375" 
d="M707 -20q-174 0 -284.5 57t-163 172t-52.5 287v950h132v-981q0 -183 92.5 -277t275.5 -94q123 0 207 41t126.5 123.5t42.5 206.5v981h126v-975q0 -162 -54 -271t-165 -164.5t-283 -55.5zM711 1576q-84 0 -141.5 58.5t-57.5 144.5q0 80 58.5 136t140.5 56q56 0 101.5 -26
t72.5 -70.5t27 -99.5q0 -84 -58 -141.5t-143 -57.5zM709 1661q46 0 78 34.5t32 78.5q0 50 -32 80.5t-78 30.5q-44 0 -78 -30.5t-34 -80.5q0 -44 34 -78.5t78 -34.5z" />
    <glyph glyph-name="uring" unicode="&#x16f;" horiz-adv-x="1145" 
d="M548 -20q-86 1 -158.5 23.5t-126.5 67t-84 112t-30 157.5v694h125v-686q0 -117 71 -189.5t218 -72.5q130 0 210 68t80 208v672h124v-1034h-105l-12 193q-18 -70 -61 -117.5t-106.5 -72t-144.5 -23.5zM567 1164q-84 0 -141.5 58.5t-57.5 144.5q0 80 58.5 136t140.5 56
q56 0 101.5 -26t72.5 -70.5t27 -99.5q0 -84 -58 -141.5t-143 -57.5zM565 1249q46 0 78 34.5t32 78.5q0 50 -32 80.5t-78 30.5q-44 0 -78 -30.5t-34 -80.5q0 -44 34 -78.5t78 -34.5z" />
    <glyph glyph-name="Uhungarumlaut" unicode="&#x170;" horiz-adv-x="1375" 
d="M707 -20q-174 0 -284.5 57t-163 172t-52.5 287v950h132v-981q0 -183 92.5 -277t275.5 -94q123 0 207 41t126.5 123.5t42.5 206.5v981h126v-975q0 -162 -54 -271t-165 -164.5t-283 -55.5zM783 1567l231 291h154l-280 -291h-105zM546 1567l193 291h152l-241 -291h-104z" />
    <glyph glyph-name="uhungarumlaut" unicode="&#x171;" horiz-adv-x="1145" 
d="M548 -20q-86 1 -158.5 23.5t-126.5 67t-84 112t-30 157.5v694h125v-686q0 -117 71 -189.5t218 -72.5q130 0 210 68t80 208v672h124v-1034h-105l-12 193q-18 -70 -61 -117.5t-106.5 -72t-144.5 -23.5zM640 1155l231 291h154l-280 -291h-105zM403 1155l193 291h152
l-241 -291h-104z" />
    <glyph glyph-name="Uogonek" unicode="&#x172;" horiz-adv-x="1375" 
d="M745 -334q-95 0 -141 42.5t-46 111.5q0 63 44.5 111t166.5 85l96 -15q-99 -44 -146.5 -83t-47.5 -93q0 -38 24.5 -58t79.5 -20q49 0 87.5 12t54.5 21v-77q-23 -13 -70.5 -25t-101.5 -12zM707 -20q-174 0 -284.5 57t-163 172t-52.5 287v950h132v-981q0 -183 92.5 -277
t275.5 -94q123 0 207 41t126.5 123.5t42.5 206.5v981h126v-975q0 -162 -54 -271t-165 -164.5t-283 -55.5z" />
    <glyph glyph-name="uogonek" unicode="&#x173;" horiz-adv-x="1145" 
d="M548 -20q-86 1 -158.5 23.5t-126.5 67t-84 112t-30 157.5v694h125v-686q0 -117 71 -189.5t218 -72.5q130 0 210 68t80 208v672h124v-1034h-105l-12 193q-18 -70 -61 -117.5t-106.5 -72t-144.5 -23.5zM848 -332q-95 0 -140.5 43t-45.5 112q0 63 44.5 111t165.5 84l97 -15
q-99 -43 -146.5 -82.5t-47.5 -92.5q0 -39 24 -58.5t79 -19.5q49 0 87.5 11.5t55.5 21.5v-78q-23 -13 -70.5 -25t-102.5 -12z" />
    <glyph glyph-name="Wcircumflex" unicode="&#x174;" horiz-adv-x="1890" 
d="M462 0l-411 1446h131l349 -1262l357 1262h108l354 -1262l359 1262h130l-419 -1446h-136l-343 1219l-349 -1219h-130zM654 1567l244 205h94l239 -205h-144l-144 124l-154 -124h-135z" />
    <glyph glyph-name="wcircumflex" unicode="&#x175;" horiz-adv-x="1550" 
d="M376 0l-311 1034h122l259 -881h21l257 881h101l270 -878h21l247 878h122l-299 -1034h-153l-259 840l-243 -840h-155zM494 1155l244 205h94l239 -205h-144l-144 124l-154 -124h-135z" />
    <glyph glyph-name="Ycircumflex" unicode="&#x176;" horiz-adv-x="1147" 
d="M515 0v621l-489 825h138l413 -709l407 709h136l-481 -827v-619h-124zM292 1570l244 205h94l239 -205h-144l-144 124l-154 -124h-135z" />
    <glyph glyph-name="ycircumflex" unicode="&#x177;" horiz-adv-x="1038" 
d="M239 -330q-83 0 -111.5 10l-28.5 10v83l108 -1q52 -1 88.5 9t60 27.5t38 39.5t24.5 46l45 120l-404 1020h129l338 -868l332 868h122l-445 -1152q-32 -80 -76 -126.5t-99 -66t-121 -19.5zM238 1155l244 205h94l239 -205h-144l-144 124l-154 -124h-135z" />
    <glyph glyph-name="Ydieresis" unicode="&#x178;" horiz-adv-x="1147" 
d="M515 0v621l-489 825h138l413 -709l407 709h136l-481 -827v-619h-124zM690 1715v146h129l-1 -146h-128zM344 1715l1 146h128v-146h-129z" />
    <glyph glyph-name="Zacute" unicode="&#x179;" horiz-adv-x="1237" 
d="M138 0v79l825 1253h-800v114h970v-77l-829 -1254h827v-115h-993zM587 1567l206 291h159l-260 -291h-105z" />
    <glyph glyph-name="zacute" unicode="&#x17a;" horiz-adv-x="944" 
d="M84 0v89l625 847h-601v98h745v-89l-623 -847h630v-98h-776zM418 1155l206 291h159l-260 -291h-105z" />
    <glyph glyph-name="Zdotaccent" unicode="&#x17b;" horiz-adv-x="1237" 
d="M138 0v79l825 1253h-800v114h970v-77l-829 -1254h827v-115h-993zM584 1712v146h136v-146h-136z" />
    <glyph glyph-name="zdotaccent" unicode="&#x17c;" horiz-adv-x="944" 
d="M84 0v89l625 847h-601v98h745v-89l-623 -847h630v-98h-776zM416 1300v146h136v-146h-136z" />
    <glyph glyph-name="Zcaron" unicode="&#x17d;" horiz-adv-x="1237" 
d="M138 0v79l825 1253h-800v114h970v-77l-829 -1254h827v-115h-993zM607 1567l-245 205h136l154 -126l144 126h144l-239 -205h-94z" />
    <glyph glyph-name="zcaron" unicode="&#x17e;" horiz-adv-x="944" 
d="M84 0v89l625 847h-601v98h745v-89l-623 -847h630v-98h-776zM438 1155l-245 205h136l154 -126l144 126h144l-239 -205h-94z" />
    <glyph glyph-name="uni018F" unicode="&#x18f;" horiz-adv-x="1436" 
d="M721 -20q-185 0 -320.5 85.5t-209.5 257.5t-74 432h1059q0 278 -116 432t-340 154q-112 0 -197.5 -35t-144 -91.5t-88 -122t-29.5 -126.5h-146q0 81 42 168.5t121 162.5t191 122t252 47q188 0 322.5 -88.5t206 -255t71.5 -399.5q0 -243 -73 -408.5t-207 -250t-320 -84.5z
M721 102q150 0 250 71t151 193.5t54 277.5h-908q0 -155 51.5 -278t152.5 -193.5t249 -70.5z" />
    <glyph glyph-name="florin" unicode="&#x192;" horiz-adv-x="841" 
d="M-184 -333l14 95l114 1q74 2 111 39t53 128l176 1007h-167l18 97h166l29 167q21 121 92.5 183t185.5 62h169l-15 -96h-154q-59 0 -100.5 -42t-54.5 -112l-29 -162h273l-17 -97h-271l-177 -1014q-21 -121 -90 -188.5t-190 -67.5h-136z" />
    <glyph glyph-name="Ohorn" unicode="&#x1a0;" horiz-adv-x="1515" 
d="M722 -20q-187 0 -323.5 85.5t-210 250.5t-73.5 404q0 240 74 406.5t210 253t323 86.5q137 0 247 -47t188 -139q36 1 61.5 11t41.5 31.5t25 58.5t10 92h122q0 -88 -21 -148.5t-65 -93.5t-114 -39q52 -89 79 -207.5t27 -264.5q0 -238 -72.5 -403t-207.5 -251t-321 -86z
M722 97q149 0 252.5 67t157 205.5t53.5 349.5q0 215 -54.5 354t-157.5 207.5t-251 68.5t-253 -68.5t-160.5 -208.5t-55.5 -353q0 -212 55.5 -350t160.5 -205t253 -67z" />
    <glyph glyph-name="ohorn" unicode="&#x1a1;" horiz-adv-x="1159" 
d="M562 -20q-138 0 -241.5 59.5t-161 178t-57.5 295.5q0 163 51.5 284.5t154 189t254.5 67.5q102 0 185 -33t142 -99q42 5 66.5 23.5t37 59t14.5 109.5h122q0 -85 -19 -144t-59.5 -92.5t-103.5 -42.5q70 -125 70 -322q0 -159 -50.5 -279t-151.5 -187t-253 -67zM562 85
q102 0 175.5 49t113.5 145t40 237q0 126 -35 223.5t-107.5 153t-186.5 55.5q-103 0 -177.5 -48.5t-115 -145t-40.5 -238.5q0 -126 35 -223t109 -152.5t189 -55.5z" />
    <glyph glyph-name="Uhorn" unicode="&#x1af;" horiz-adv-x="1564" 
d="M707 -20q-174 0 -284.5 57t-163 172t-52.5 287v950h132v-981q0 -183 92.5 -277t275.5 -94q123 0 207 41t126.5 123.5t42.5 206.5v981h126v-167q45 4 71.5 22.5t39.5 60t16 111.5h122q0 -98 -26.5 -162t-81 -93t-141.5 -26v-721q0 -162 -54 -271t-165 -164.5t-283 -55.5z
" />
    <glyph glyph-name="uhorn" unicode="&#x1b0;" horiz-adv-x="1239" 
d="M548 -20q-86 1 -158.5 23.5t-126.5 67t-84 112t-30 157.5v694h125v-686q0 -117 71 -189.5t218 -72.5q130 0 210 68t80 208v672h124v-115q49 2 78 20t43 60t17 115h122q-1 -101 -28 -165.5t-84 -93t-148 -23.5v-832h-105l-12 193q-18 -70 -61 -117.5t-106.5 -72
t-144.5 -23.5z" />
    <glyph glyph-name="uni01D4" unicode="&#x1d4;" horiz-adv-x="1145" 
d="M548 -20q-86 1 -158.5 23.5t-126.5 67t-84 112t-30 157.5v694h125v-686q0 -117 71 -189.5t218 -72.5q130 0 210 68t80 208v672h124v-1034h-105l-12 193q-18 -70 -61 -117.5t-106.5 -72t-144.5 -23.5zM522 1155l-245 205h136l154 -126l144 126h144l-239 -205h-94z" />
    <glyph glyph-name="uni01EA" unicode="&#x1ea;" horiz-adv-x="1437" 
d="M761 -335q-95 0 -141 43t-46 112q0 63 44.5 111t166.5 84l96 -15q-99 -44 -146 -83t-47 -92q0 -39 24 -59t79 -20q49 0 87.5 12t54.5 21v-77q-23 -13 -70 -25t-102 -12zM722 -20q-187 0 -323.5 85.5t-210 250.5t-73.5 404q0 240 74 406.5t210 253t323 86.5q186 0 321 -86
t207.5 -252.5t72.5 -407.5q0 -238 -72.5 -403t-207.5 -251t-321 -86zM722 97q149 0 252.5 67t157 205.5t53.5 349.5q0 215 -54.5 354t-157.5 207.5t-251 68.5t-253 -68.5t-160.5 -208.5t-55.5 -353q0 -212 55.5 -350t160.5 -205t253 -67z" />
    <glyph glyph-name="uni01EB" unicode="&#x1eb;" horiz-adv-x="1119" 
d="M610 -328q-95 0 -141 42.5t-46 112.5q0 62 44.5 110.5t166.5 84.5l96 -15q-99 -44 -146 -83t-47 -93q0 -38 24 -58t79 -20q49 0 87.5 12t54.5 21v-77q-23 -13 -70 -25t-102 -12zM562 -20q-138 0 -241.5 59.5t-161 178t-57.5 295.5q0 163 51.5 284.5t154 189t254.5 67.5
q138 0 239.5 -60.5t158.5 -180.5t57 -300q0 -159 -50.5 -279t-151.5 -187t-253 -67zM562 85q102 0 175.5 49t113.5 145t40 237q0 126 -35 223.5t-107.5 153t-186.5 55.5q-103 0 -177.5 -48.5t-115 -145t-40.5 -238.5q0 -126 35 -223t109 -152.5t189 -55.5z" />
    <glyph glyph-name="Aringacute" unicode="&#x1fa;" horiz-adv-x="1402" 
d="M823 1880l-57 -135q58 -20 95 -69t37 -114q0 -85 -57.5 -140.5t-140.5 -55.5q-84 0 -140.5 57t-56.5 143q0 73 49 125.5t121 61.5l30 127h120zM698 1447q46 0 78.5 34.5t32.5 78.5q0 49 -32.5 81t-78.5 32q-44 0 -78 -32t-34 -81q0 -44 34 -78.5t78 -34.5zM98 0l526 1446
h155l525 -1446h-131l-156 430h-633l-156 -430h-130zM423 553h554l-277 768z" />
    <glyph glyph-name="aringacute" unicode="&#x1fb;" horiz-adv-x="1091" 
d="M674 1493l-58 -135q58 -20 95.5 -69t37.5 -114q0 -85 -57.5 -141t-141.5 -56q-83 0 -140 57.5t-57 143.5q0 73 49.5 125.5t120.5 61.5l31 127h120zM548 1060q47 0 79 34.5t32 78.5q0 49 -32 80.5t-79 31.5q-44 0 -77.5 -31.5t-33.5 -80.5q0 -44 33.5 -78.5t77.5 -34.5z
M448 -20q-101 0 -176.5 35t-117 100t-41.5 156q0 173 115.5 254.5t376.5 89.5l215 7v91q0 109 -66 174t-203 65q-103 -1 -176.5 -49t-92.5 -152h-118q6 94 52 162t132.5 104.5t208.5 36.5t207.5 -37t131 -112t45.5 -187v-718h-109l-8 203q-64 -125 -163.5 -174t-212.5 -49z
M480 80q60 0 119.5 21.5t109.5 58.5t80.5 82.5t30.5 93.5v192l-180 -4q-145 -2 -233.5 -27.5t-129 -78t-40.5 -136.5q0 -95 67 -148.5t176 -53.5z" />
    <glyph glyph-name="AEacute" unicode="&#x1fc;" horiz-adv-x="1874" 
d="M0 0l815 1446h905l-1 -114h-691v-545h631v-113h-631v-560h718v-114h-860v436h-510l-246 -436h-130zM430 553h456v792zM1191 1567l206 291h159l-260 -291h-105z" />
    <glyph glyph-name="aeacute" unicode="&#x1fd;" horiz-adv-x="1829" 
d="M448 -20q-101 0 -176.5 35t-117 100t-41.5 156q0 173 115.5 255t376.5 89l215 7v91q0 114 -74.5 176.5t-194.5 62.5q-102 -1 -176.5 -51.5t-92.5 -149.5h-118q5 80 51.5 149.5t133 111.5t208.5 42q132 0 224 -53.5t129 -149.5q56 98 149.5 150.5t219.5 52.5
q139 0 236 -60.5t148.5 -173.5t51.5 -271v-62h-767q0 -108 36.5 -199.5t112 -147t193.5 -55.5q112 0 192.5 53.5t99.5 148.5h124q-20 -102 -82 -170.5t-149.5 -102.5t-183.5 -34q-144 0 -253 67t-164 192q-22 -79 -86.5 -137t-153 -90t-186.5 -32zM480 80q104 0 179 47.5
t116 117t41 133.5l-1 150l-175 -4q-145 -2 -233.5 -27.5t-129 -78t-40.5 -136.5q0 -95 67 -148.5t176 -53.5zM950 585h641q0 103 -34 186t-103.5 131t-176.5 48q-114 0 -186.5 -54.5t-107 -138.5t-33.5 -172zM831 1155l206 291h159l-260 -291h-105z" />
    <glyph glyph-name="Oslashacute" unicode="&#x1fe;" horiz-adv-x="1472" 
d="M147 -26l-83 78l172 196q-51 89 -78.5 206.5t-27.5 262.5q0 241 73.5 408t209 254t323.5 87q134 0 241 -44.5t185 -131.5l161 180l84 -76l-176 -200q53 -90 80 -209t27 -265q0 -238 -72.5 -403.5t-208.5 -251t-323 -85.5q-135 0 -242.5 44t-183.5 129zM737 97
q219 0 329.5 145t113.5 445q2 117 -12.5 215t-44.5 179l-726 -830q114 -154 340 -154zM345 363l726 830q-56 80 -140 118.5t-195 38.5q-219 0 -333 -149.5t-117 -454.5q-2 -115 13 -210.5t46 -172.5zM670 1567l206 291h159l-260 -291h-105z" />
    <glyph glyph-name="oslashacute" unicode="&#x1ff;" horiz-adv-x="1143" 
d="M98 -10l-63 67l1007 983l63 -66zM565 -20q-138 0 -241.5 59.5t-161 178t-57.5 295.5q0 163 51.5 284.5t154 189t254.5 67.5q137 0 239 -60.5t158.5 -180.5t56.5 -300q0 -159 -50.5 -279t-151 -187t-252.5 -67zM565 85q102 0 175.5 49t113.5 145t40 237q0 126 -35 223.5
t-107.5 153t-186.5 55.5q-103 0 -178 -48.5t-115 -145t-40 -238.5q0 -126 35 -223t109 -152.5t189 -55.5zM506 1155l206 291h159l-260 -291h-105z" />
    <glyph glyph-name="uni0200" unicode="&#x200;" horiz-adv-x="1402" 
d="M98 0l526 1446h155l525 -1446h-131l-156 430h-633l-156 -430h-130zM423 553h554l-277 768zM530 1567l-280 291h154l230 -291h-104zM767 1567l-241 291h152l194 -291h-105z" />
    <glyph glyph-name="uni0201" unicode="&#x201;" horiz-adv-x="1091" 
d="M448 -20q-101 0 -176.5 35t-117 100t-41.5 156q0 173 115.5 254.5t376.5 89.5l215 7v91q0 109 -66 174t-203 65q-103 -1 -176.5 -49t-92.5 -152h-118q6 94 52 162t132.5 104.5t208.5 36.5t207.5 -37t131 -112t45.5 -187v-718h-109l-8 203q-64 -125 -163.5 -174
t-212.5 -49zM480 80q60 0 119.5 21.5t109.5 58.5t80.5 82.5t30.5 93.5v192l-180 -4q-145 -2 -233.5 -27.5t-129 -78t-40.5 -136.5q0 -95 67 -148.5t176 -53.5zM386 1155l-280 291h154l230 -291h-104zM623 1155l-241 291h152l194 -291h-105z" />
    <glyph glyph-name="uni0202" unicode="&#x202;" horiz-adv-x="1402" 
d="M98 0l526 1446h155l525 -1446h-131l-156 430h-633l-156 -430h-130zM423 553h554l-277 768zM420 1635q14 63 53 106.5t96 66t125 22.5q73 0 130.5 -24t96 -67.5t51.5 -103.5h-105q-18 47 -64.5 77t-108.5 30q-63 0 -107 -30t-61 -77h-106z" />
    <glyph glyph-name="uni0203" unicode="&#x203;" horiz-adv-x="1091" 
d="M448 -20q-101 0 -176.5 35t-117 100t-41.5 156q0 173 115.5 254.5t376.5 89.5l215 7v91q0 109 -66 174t-203 65q-103 -1 -176.5 -49t-92.5 -152h-118q6 94 52 162t132.5 104.5t208.5 36.5t207.5 -37t131 -112t45.5 -187v-718h-109l-8 203q-64 -125 -163.5 -174
t-212.5 -49zM480 80q60 0 119.5 21.5t109.5 58.5t80.5 82.5t30.5 93.5v192l-180 -4q-145 -2 -233.5 -27.5t-129 -78t-40.5 -136.5q0 -95 67 -148.5t176 -53.5zM276 1223q14 63 53 106.5t96 66t125 22.5q73 0 130.5 -24t96 -67.5t51.5 -103.5h-105q-18 47 -64.5 77t-108.5 30
q-63 0 -107 -30t-61 -77h-106z" />
    <glyph glyph-name="uni0204" unicode="&#x204;" horiz-adv-x="1225" 
d="M207 0v1446h866v-116h-741v-541h680v-117h-680v-552l765 -2v-118h-890zM473 1567l-280 291h154l230 -291h-104zM710 1567l-241 291h152l194 -291h-105z" />
    <glyph glyph-name="uni0205" unicode="&#x205;" horiz-adv-x="1122" 
d="M585 -20q-140 0 -246 62t-166 180t-60 285q0 168 54 291t157 189.5t248 66.5q140 0 237 -60.5t148.5 -173.5t51.5 -271v-62h-767q0 -108 36 -199.5t112 -147t194 -55.5q112 0 192.5 53.5t99.5 148.5h123q-19 -102 -81 -170.5t-149.5 -102.5t-183.5 -34zM244 585h641
q0 103 -34 186t-103.5 131t-176.5 48q-114 0 -186.5 -54.5t-107 -138.5t-33.5 -172zM401 1155l-280 291h154l230 -291h-104zM638 1155l-241 291h152l194 -291h-105z" />
    <glyph glyph-name="uni0206" unicode="&#x206;" horiz-adv-x="1225" 
d="M207 0v1446h866v-116h-741v-541h680v-117h-680v-552l765 -2v-118h-890zM363 1635q14 63 53 106.5t96 66t125 22.5q73 0 130.5 -24t96 -67.5t51.5 -103.5h-105q-18 47 -64.5 77t-108.5 30q-63 0 -107 -30t-61 -77h-106z" />
    <glyph glyph-name="uni0207" unicode="&#x207;" horiz-adv-x="1122" 
d="M585 -20q-140 0 -246 62t-166 180t-60 285q0 168 54 291t157 189.5t248 66.5q140 0 237 -60.5t148.5 -173.5t51.5 -271v-62h-767q0 -108 36 -199.5t112 -147t194 -55.5q112 0 192.5 53.5t99.5 148.5h123q-19 -102 -81 -170.5t-149.5 -102.5t-183.5 -34zM244 585h641
q0 103 -34 186t-103.5 131t-176.5 48q-114 0 -186.5 -54.5t-107 -138.5t-33.5 -172zM291 1223q14 63 53 106.5t96 66t125 22.5q73 0 130.5 -24t96 -67.5t51.5 -103.5h-105q-18 47 -64.5 77t-108.5 30q-63 0 -107 -30t-61 -77h-106z" />
    <glyph glyph-name="uni0208" unicode="&#x208;" horiz-adv-x="539" 
d="M207 0v1446h125v-1446h-125zM99 1567l-280 291h154l230 -291h-104zM336 1567l-241 291h152l194 -291h-105z" />
    <glyph glyph-name="uni0209" unicode="&#x209;" horiz-adv-x="458" 
d="M168 0v1034h122v-1034h-122zM58 1155l-280 291h154l230 -291h-104zM295 1155l-241 291h152l194 -291h-105z" />
    <glyph glyph-name="uni020A" unicode="&#x20a;" horiz-adv-x="539" 
d="M207 0v1446h125v-1446h-125zM-11 1635q14 63 53 106.5t96 66t125 22.5q73 0 130.5 -24t96 -67.5t51.5 -103.5h-105q-18 47 -64.5 77t-108.5 30q-63 0 -107 -30t-61 -77h-106z" />
    <glyph glyph-name="uni020B" unicode="&#x20b;" horiz-adv-x="494" 
d="M185 0v1034h122v-1034h-122zM-36 1223q14 63 53 106.5t96 66t125 22.5q73 0 130.5 -24t96 -67.5t51.5 -103.5h-105q-18 47 -64.5 77t-108.5 30q-63 0 -107 -30t-61 -77h-106z" />
    <glyph glyph-name="uni020C" unicode="&#x20c;" horiz-adv-x="1437" 
d="M722 -20q-187 0 -323.5 85.5t-210 250.5t-73.5 404q0 240 74 406.5t210 253t323 86.5q186 0 321 -86t207.5 -252.5t72.5 -407.5q0 -238 -72.5 -403t-207.5 -251t-321 -86zM722 97q149 0 252.5 67t157 205.5t53.5 349.5q0 215 -54.5 354t-157.5 207.5t-251 68.5
t-253 -68.5t-160.5 -208.5t-55.5 -353q0 -212 55.5 -350t160.5 -205t253 -67zM551 1567l-280 291h154l230 -291h-104zM788 1567l-241 291h152l194 -291h-105z" />
    <glyph glyph-name="uni020D" unicode="&#x20d;" horiz-adv-x="1119" 
d="M562 -20q-138 0 -241.5 59.5t-161 178t-57.5 295.5q0 163 51.5 284.5t154 189t254.5 67.5q138 0 239.5 -60.5t158.5 -180.5t57 -300q0 -159 -50.5 -279t-151.5 -187t-253 -67zM562 85q102 0 175.5 49t113.5 145t40 237q0 126 -35 223.5t-107.5 153t-186.5 55.5
q-103 0 -177.5 -48.5t-115 -145t-40.5 -238.5q0 -126 35 -223t109 -152.5t189 -55.5zM389 1155l-280 291h154l230 -291h-104zM626 1155l-241 291h152l194 -291h-105z" />
    <glyph glyph-name="uni020E" unicode="&#x20e;" horiz-adv-x="1437" 
d="M722 -20q-187 0 -323.5 85.5t-210 250.5t-73.5 404q0 240 74 406.5t210 253t323 86.5q186 0 321 -86t207.5 -252.5t72.5 -407.5q0 -238 -72.5 -403t-207.5 -251t-321 -86zM722 97q149 0 252.5 67t157 205.5t53.5 349.5q0 215 -54.5 354t-157.5 207.5t-251 68.5
t-253 -68.5t-160.5 -208.5t-55.5 -353q0 -212 55.5 -350t160.5 -205t253 -67zM441 1635q14 63 53 106.5t96 66t125 22.5q73 0 130.5 -24t96 -67.5t51.5 -103.5h-105q-18 47 -64.5 77t-108.5 30q-63 0 -107 -30t-61 -77h-106z" />
    <glyph glyph-name="uni020F" unicode="&#x20f;" horiz-adv-x="1119" 
d="M562 -20q-138 0 -241.5 59.5t-161 178t-57.5 295.5q0 163 51.5 284.5t154 189t254.5 67.5q138 0 239.5 -60.5t158.5 -180.5t57 -300q0 -159 -50.5 -279t-151.5 -187t-253 -67zM562 85q102 0 175.5 49t113.5 145t40 237q0 126 -35 223.5t-107.5 153t-186.5 55.5
q-103 0 -177.5 -48.5t-115 -145t-40.5 -238.5q0 -126 35 -223t109 -152.5t189 -55.5zM279 1223q14 63 53 106.5t96 66t125 22.5q73 0 130.5 -24t96 -67.5t51.5 -103.5h-105q-18 47 -64.5 77t-108.5 30q-63 0 -107 -30t-61 -77h-106z" />
    <glyph glyph-name="uni0210" unicode="&#x210;" horiz-adv-x="1331" 
d="M207 0v1446h532q147 0 249 -43.5t154.5 -126.5t52.5 -204q0 -120 -45.5 -198t-113.5 -123t-137 -67l293 -684h-137l-279 659h-444v-659h-125zM332 773h343q189 0 289.5 68.5t100.5 217.5q0 143 -87 209.5t-247 66.5h-399v-562zM476 1567l-280 291h154l230 -291h-104z
M713 1567l-241 291h152l194 -291h-105z" />
    <glyph glyph-name="uni0211" unicode="&#x211;" horiz-adv-x="758" 
d="M168 0v1034h118v-174q26 72 74 114.5t106 61t114 18.5q27 0 54 -4t43 -13v-123q-18 8 -47.5 11.5t-49.5 3.5q-48 2 -98 -9t-93 -38.5t-69.5 -75.5t-26.5 -120v-686h-125zM237 1155l-280 291h154l230 -291h-104zM474 1155l-241 291h152l194 -291h-105z" />
    <glyph glyph-name="uni0212" unicode="&#x212;" horiz-adv-x="1331" 
d="M207 0v1446h532q147 0 249 -43.5t154.5 -126.5t52.5 -204q0 -120 -45.5 -198t-113.5 -123t-137 -67l293 -684h-137l-279 659h-444v-659h-125zM332 773h343q189 0 289.5 68.5t100.5 217.5q0 143 -87 209.5t-247 66.5h-399v-562zM366 1635q14 63 53 106.5t96 66t125 22.5
q73 0 130.5 -24t96 -67.5t51.5 -103.5h-105q-18 47 -64.5 77t-108.5 30q-63 0 -107 -30t-61 -77h-106z" />
    <glyph glyph-name="uni0213" unicode="&#x213;" horiz-adv-x="758" 
d="M168 0v1034h118v-174q26 72 74 114.5t106 61t114 18.5q27 0 54 -4t43 -13v-123q-18 8 -47.5 11.5t-49.5 3.5q-48 2 -98 -9t-93 -38.5t-69.5 -75.5t-26.5 -120v-686h-125zM127 1217q14 63 53 106.5t96 66t125 22.5q73 0 130.5 -24t96 -67.5t51.5 -103.5h-105
q-18 47 -64.5 77t-108.5 30q-63 0 -107 -30t-61 -77h-106z" />
    <glyph glyph-name="uni0214" unicode="&#x214;" horiz-adv-x="1375" 
d="M707 -20q-174 0 -284.5 57t-163 172t-52.5 287v950h132v-981q0 -183 92.5 -277t275.5 -94q123 0 207 41t126.5 123.5t42.5 206.5v981h126v-975q0 -162 -54 -271t-165 -164.5t-283 -55.5zM539 1567l-280 291h154l230 -291h-104zM776 1567l-241 291h152l194 -291h-105z" />
    <glyph glyph-name="uni0215" unicode="&#x215;" horiz-adv-x="1145" 
d="M548 -20q-86 1 -158.5 23.5t-126.5 67t-84 112t-30 157.5v694h125v-686q0 -117 71 -189.5t218 -72.5q130 0 210 68t80 208v672h124v-1034h-105l-12 193q-18 -70 -61 -117.5t-106.5 -72t-144.5 -23.5zM395 1155l-280 291h154l230 -291h-104zM632 1155l-241 291h152
l194 -291h-105z" />
    <glyph glyph-name="uni0216" unicode="&#x216;" horiz-adv-x="1375" 
d="M707 -20q-174 0 -284.5 57t-163 172t-52.5 287v950h132v-981q0 -183 92.5 -277t275.5 -94q123 0 207 41t126.5 123.5t42.5 206.5v981h126v-975q0 -162 -54 -271t-165 -164.5t-283 -55.5zM429 1635q14 63 53 106.5t96 66t125 22.5q73 0 130.5 -24t96 -67.5t51.5 -103.5
h-105q-18 47 -64.5 77t-108.5 30q-63 0 -107 -30t-61 -77h-106z" />
    <glyph glyph-name="uni0217" unicode="&#x217;" horiz-adv-x="1145" 
d="M548 -20q-86 1 -158.5 23.5t-126.5 67t-84 112t-30 157.5v694h125v-686q0 -117 71 -189.5t218 -72.5q130 0 210 68t80 208v672h124v-1034h-105l-12 193q-18 -70 -61 -117.5t-106.5 -72t-144.5 -23.5zM285 1223q14 63 53 106.5t96 66t125 22.5q73 0 130.5 -24t96 -67.5
t51.5 -103.5h-105q-18 47 -64.5 77t-108.5 30q-63 0 -107 -30t-61 -77h-106z" />
    <glyph glyph-name="uni0218" unicode="&#x218;" horiz-adv-x="1315" 
d="M667 -20q-103 0 -194.5 25t-164.5 74t-120.5 121t-62.5 167h134q21 -91 80 -152.5t146 -92.5t186 -31q106 0 192 34.5t137 98t51 150.5q0 93 -57.5 154.5t-187.5 97.5l-312 87q-94 25 -167 68.5t-115.5 114t-42.5 177.5q0 116 63.5 204t174 137.5t249.5 49.5
q165 0 276 -59.5t168 -153t57 -195.5h-133q-10 112 -65 176.5t-135.5 92.5t-171.5 28q-170 0 -260 -80t-90 -193q0 -102 63.5 -158.5t180.5 -88.5l312 -86q122 -32 193 -88t100.5 -127.5t29.5 -150.5q0 -114 -62.5 -205t-177.5 -143.5t-274 -52.5zM543 -346l76 110l-52 2
v135h153v-114l-116 -133h-61z" />
    <glyph glyph-name="uni0219" unicode="&#x219;" horiz-adv-x="988" 
d="M516 -20q-108 0 -196.5 33t-144.5 101t-70 173h120q14 -64 51.5 -109.5t98.5 -70t141 -24.5q116 0 187 46t71 142q0 65 -35.5 104.5t-106.5 58.5l-232 61q-118 31 -188 91.5t-70 169.5q0 88 40.5 155t123.5 105t207 38q156 0 253.5 -71t103.5 -213h-119q-10 82 -70 132
t-168 50q-112 0 -181.5 -46.5t-69.5 -144.5q0 -64 46.5 -100t133.5 -58l229 -62q63 -17 105.5 -45.5t68 -63.5t37 -75t11.5 -79q0 -91 -42.5 -157.5t-126.5 -103.5t-208 -37zM398 -346l76 110l-52 2v135h153v-114l-116 -133h-61z" />
    <glyph glyph-name="uni021A" unicode="&#x21a;" horiz-adv-x="1161" 
d="M534 0v1327h-483v119h1059v-119h-450v-1327h-126zM506 -343l76 110l-52 2v135h153v-114l-116 -133h-61z" />
    <glyph glyph-name="uni021B" unicode="&#x21b;" horiz-adv-x="748" 
d="M510 -2q-91 0 -141 26t-70 79.5t-20 136.5v697h-168v97h170l28 295h95v-295h235v-97h-235v-694q0 -65 12 -94.5t43.5 -37.5t89.5 -8h99v-92q-19 -7 -55.5 -10t-82.5 -3zM356 -343l76 110l-52 2v135h153v-114l-116 -133h-61z" />
    <glyph glyph-name="uni0237" unicode="&#x237;" horiz-adv-x="491" 
d="M75 -332q-86 0 -107.5 5t-21.5 15v84l116 3q73 3 104.5 38t31.5 119v1102h125v-1111q0 -130 -53 -192.5t-195 -62.5z" />
    <glyph glyph-name="uni0259" unicode="&#x259;" horiz-adv-x="1122" 
d="M550 -20q-138 0 -236 60.5t-149.5 173.5t-51.5 271v62h767q0 108 -36 200t-112 147t-193 55q-113 0 -193 -53.5t-99 -148.5h-124q20 103 82 171t149 102t183 34q140 0 246.5 -62t166.5 -180t60 -285q0 -168 -54 -291t-157 -189.5t-249 -66.5zM552 84q114 0 186.5 54.5
t107 138.5t33.5 172h-641q0 -103 34 -186t103.5 -131t176.5 -48z" />
    <glyph glyph-name="uni02BB" unicode="&#x2bb;" horiz-adv-x="397" 
d="M100 1033v162q0 69 30 124t75 83.5t89 18.5v-61h-12q-36 -1 -64.5 -42.5t-28.5 -88.5v-10l105 -3v-183h-194z" />
    <glyph glyph-name="uni02BC" unicode="&#x2bc;" horiz-adv-x="397" 
d="M100 1035v61l13 1q37 1 64.5 42.5t27.5 88.5v10l-105 3v183h194v-162q0 -70 -30 -125t-75 -83t-89 -19z" />
    <glyph glyph-name="circumflex" unicode="&#x2c6;" horiz-adv-x="587" 
d="M5 1155l244 205h94l239 -205h-144l-144 124l-154 -124h-135z" />
    <glyph glyph-name="caron" unicode="&#x2c7;" horiz-adv-x="593" 
d="M249 1155l-245 205h136l154 -126l144 126h144l-239 -205h-94z" />
    <glyph glyph-name="breve" unicode="&#x2d8;" horiz-adv-x="581" 
d="M289 1155q-68 0 -125.5 22.5t-96 66.5t-52.5 106h105q18 -47 62 -77t107 -30q62 0 108.5 30t64.5 77h105q-14 -60 -52 -103.5t-96 -67.5t-130 -24z" />
    <glyph glyph-name="dotaccent" unicode="&#x2d9;" horiz-adv-x="156" 
d="M10 1300v146h136v-146h-136z" />
    <glyph glyph-name="ring" unicode="&#x2da;" horiz-adv-x="444" 
d="M221 1161q-84 0 -141.5 58.5t-57.5 144.5q0 80 58.5 136t140.5 56q56 0 101.5 -26t72.5 -70.5t27 -99.5q0 -84 -58 -141.5t-143 -57.5zM219 1246q46 0 78 34.5t32 78.5q0 50 -32 80.5t-78 30.5q-44 0 -78 -30.5t-34 -80.5q0 -44 34 -78.5t78 -34.5z" />
    <glyph glyph-name="ogonek" unicode="&#x2db;" horiz-adv-x="405" 
d="M208 -330q-95 0 -140.5 43t-45.5 112q0 63 44.5 111t165.5 84l97 -15q-99 -43 -146.5 -82.5t-47.5 -92.5q0 -39 24 -58.5t79 -19.5q49 0 87.5 11.5t55.5 21.5v-78q-23 -13 -70.5 -25t-102.5 -12z" />
    <glyph glyph-name="tilde" unicode="&#x2dc;" horiz-adv-x="608" 
d="M56 1236l-29 84q31 27 66 46.5t86 19.5q45 0 84.5 -13t78.5 -26.5t82 -13.5q41 0 69 13.5t57 34.5l30 -92q-24 -16 -60 -34t-97 -18q-52 0 -89 12.5t-71 25t-76 12.5q-49 0 -77 -16.5t-54 -34.5z" />
    <glyph glyph-name="hungarumlaut" unicode="&#x2dd;" horiz-adv-x="643" 
d="M248 1155l231 291h154l-280 -291h-105zM11 1155l193 291h152l-241 -291h-104z" />
    <glyph glyph-name="gravecomb" unicode="&#x300;" 
d="M271 1155l-261 291h160l206 -291h-105z" />
    <glyph glyph-name="acutecomb" unicode="&#x301;" 
d="M10 1155l206 291h159l-260 -291h-105z" />
    <glyph glyph-name="uni0302" unicode="&#x302;" 
d="M5 1155l244 205h94l239 -205h-144l-144 124l-154 -124h-135z" />
    <glyph glyph-name="tildecomb" unicode="&#x303;" 
d="M56 1236l-29 84q31 27 66 46.5t86 19.5q45 0 84.5 -13t78.5 -26.5t82 -13.5q41 0 69 13.5t57 34.5l30 -92q-24 -16 -60 -34t-97 -18q-52 0 -89 12.5t-71 25t-76 12.5q-49 0 -77 -16.5t-54 -34.5z" />
    <glyph glyph-name="uni0304" unicode="&#x304;" 
d="M22 1252v99h536v-99h-536z" />
    <glyph glyph-name="uni0306" unicode="&#x306;" 
d="M289 1155q-68 0 -125.5 22.5t-96 66.5t-52.5 106h105q18 -47 62 -77t107 -30q62 0 108.5 30t64.5 77h105q-14 -60 -52 -103.5t-96 -67.5t-130 -24z" />
    <glyph glyph-name="uni0307" unicode="&#x307;" 
d="M10 1300v146h136v-146h-136z" />
    <glyph glyph-name="uni0308" unicode="&#x308;" 
d="M356 1300v146h129l-1 -146h-128zM10 1300l1 146h128v-146h-129z" />
    <glyph glyph-name="hookabovecomb" unicode="&#x309;" 
d="M663 1173l-46 70q45 29 64.5 67.5t-1.5 71.5q-21 34 -65 32.5t-88 -30.5l-46 71q81 52 156.5 43.5t114.5 -67.5q47 -70 20 -138.5t-109 -119.5z" />
    <glyph glyph-name="uni030A" unicode="&#x30a;" 
d="M221 1161q-84 0 -141.5 58.5t-57.5 144.5q0 80 58.5 136t140.5 56q56 0 101.5 -26t72.5 -70.5t27 -99.5q0 -84 -58 -141.5t-143 -57.5zM219 1246q46 0 78 34.5t32 78.5q0 50 -32 80.5t-78 30.5q-44 0 -78 -30.5t-34 -80.5q0 -44 34 -78.5t78 -34.5z" />
    <glyph glyph-name="uni030B" unicode="&#x30b;" 
d="M248 1155l231 291h154l-280 -291h-105zM11 1155l193 291h152l-241 -291h-104z" />
    <glyph glyph-name="uni030C" unicode="&#x30c;" 
d="M249 1155l-245 205h136l154 -126l144 126h144l-239 -205h-94z" />
    <glyph glyph-name="uni030F" unicode="&#x30f;" 
d="M290 1155l-280 291h154l230 -291h-104zM527 1155l-241 291h152l194 -291h-105z" />
    <glyph glyph-name="uni0311" unicode="&#x311;" 
d="M3 1223q14 63 53 106.5t96 66t125 22.5q73 0 130.5 -24t96 -67.5t51.5 -103.5h-105q-18 47 -64.5 77t-108.5 30q-63 0 -107 -30t-61 -77h-106z" />
    <glyph glyph-name="uni0312" unicode="&#x312;" 
d="M126 1155v172l85 144h72l-69 -143l53 -3v-170h-141z" />
    <glyph glyph-name="uni031B" unicode="&#x31b;" 
d="M0 965v96q44 -1 74 5.5t49 25.5t28.5 55.5t11.5 96.5h122q0 -105 -29.5 -170.5t-92.5 -92.5t-163 -16z" />
    <glyph glyph-name="dotbelowcomb" unicode="&#x323;" 
d="M10 -337v146h136v-146h-136z" />
    <glyph glyph-name="uni0326" unicode="&#x326;" 
d="M-3 -346l76 110l-52 2v135h153v-114l-116 -133h-61z" />
    <glyph glyph-name="uni0327" unicode="&#x327;" 
d="M186 -404q-48 0 -89.5 12t-77.5 36l26 65q23 -19 53 -32t74 -13q59 0 86 21t27 58q0 45 -37 67t-117 24q-9 0 -10.5 3t0.5 8l72 165h80l-49 -122q64 -5 100.5 -26.5t51 -53t14.5 -62.5q0 -50 -28 -83.5t-74 -50t-102 -16.5z" />
    <glyph glyph-name="uni0328" unicode="&#x328;" 
d="M208 -330q-95 0 -140.5 43t-45.5 112q0 63 44.5 111t165.5 84l97 -15q-99 -43 -146.5 -82.5t-47.5 -92.5q0 -39 24 -58.5t79 -19.5q49 0 87.5 11.5t55.5 21.5v-78q-23 -13 -70.5 -25t-102.5 -12z" />
    <glyph glyph-name="pi" unicode="&#x3c0;" horiz-adv-x="1300" 
d="M155 0q22 83 41.5 186.5t35.5 223t25 248t9 259.5q0 20 -16 20h-193v97h1183v-97h-246v-937h-122l-2 937h-486q0 -138 -9.5 -274.5t-25.5 -261t-37.5 -227.5t-45.5 -174h-111z" />
    <glyph glyph-name="uni1E0C" unicode="&#x1e0c;" horiz-adv-x="1357" 
d="M207 0v1446q4 0 31 -0.5t68.5 -0.5t89.5 -0.5t93 -0.5q267 -2 433 -81.5t243 -236.5t77 -393q0 -248 -84 -410.5t-256 -242.5t-437 -80h-258zM339 116h123q210 0 354.5 59t219 193.5t74.5 358.5q0 232 -75 363t-217.5 185.5t-345.5 54.5h-133v-1214zM645 -337v146h136
v-146h-136z" />
    <glyph glyph-name="uni1E0D" unicode="&#x1e0d;" horiz-adv-x="1180" 
d="M537 -20q-198 0 -316.5 135t-118.5 406q0 160 47.5 280t142.5 186.5t239 66.5q85 0 147.5 -22.5t105 -55t67.5 -65.5t35 -54v629h126v-1486h-102l-12 212q-8 -23 -28.5 -61.5t-60.5 -78t-106.5 -66t-165.5 -26.5zM553 84q182 0 257.5 106t75.5 342q-2 129 -34 222.5
t-103 143.5t-191 50q-146 0 -236 -101t-90 -315q0 -206 79.5 -327t241.5 -121zM477 -337v146h136v-146h-136z" />
    <glyph glyph-name="uni1E24" unicode="&#x1e24;" horiz-adv-x="1527" 
d="M207 0v1446h125v-636h864v636h124v-1446h-124v692h-864v-692h-125zM716 -337v146h136v-146h-136z" />
    <glyph glyph-name="uni1E25" unicode="&#x1e25;" horiz-adv-x="1136" 
d="M168 0v1486h120v-605q26 46 73.5 85t114 62t149.5 23q102 0 183.5 -37t129.5 -104t48 -156v-754h-125v721q0 105 -70.5 163t-189.5 58q-82 0 -152.5 -25.5t-113 -77.5t-42.5 -132v-707h-125zM527 -337v146h136v-146h-136z" />
    <glyph glyph-name="uni1E44" unicode="&#x1e44;" horiz-adv-x="1476" 
d="M207 0v1446h113l825 -1217v1217h124v-1446h-110l-827 1222v-1222h-125zM670 1712v146h136v-146h-136z" />
    <glyph glyph-name="uni1E45" unicode="&#x1e45;" horiz-adv-x="1136" 
d="M168 0v1034h119v-152q26 46 73.5 85t114 62t149.5 23q100 0 182.5 -40.5t131 -124t48.5 -214.5v-673h-124v665q0 142 -71 209.5t-190 67.5q-81 0 -152 -25.5t-113.5 -77.5t-42.5 -132v-707h-125zM527 1300v146h136v-146h-136z" />
    <glyph glyph-name="uni1E5A" unicode="&#x1e5a;" horiz-adv-x="1331" 
d="M207 0v1446h532q147 0 249 -43.5t154.5 -126.5t52.5 -204q0 -120 -45.5 -198t-113.5 -123t-137 -67l293 -684h-137l-279 659h-444v-659h-125zM332 773h343q189 0 289.5 68.5t100.5 217.5q0 143 -87 209.5t-247 66.5h-399v-562zM594 -337v146h136v-146h-136z" />
    <glyph glyph-name="uni1E5B" unicode="&#x1e5b;" horiz-adv-x="758" 
d="M168 0v1034h118v-174q26 72 74 114.5t106 61t114 18.5q27 0 54 -4t43 -13v-123q-18 8 -47.5 11.5t-49.5 3.5q-48 2 -98 -9t-93 -38.5t-69.5 -75.5t-26.5 -120v-686h-125zM161 -337v146h136v-146h-136z" />
    <glyph glyph-name="uni1E62" unicode="&#x1e62;" horiz-adv-x="1315" 
d="M667 -20q-103 0 -194.5 25t-164.5 74t-120.5 121t-62.5 167h134q21 -91 80 -152.5t146 -92.5t186 -31q106 0 192 34.5t137 98t51 150.5q0 93 -57.5 154.5t-187.5 97.5l-312 87q-94 25 -167 68.5t-115.5 114t-42.5 177.5q0 116 63.5 204t174 137.5t249.5 49.5
q165 0 276 -59.5t168 -153t57 -195.5h-133q-10 112 -65 176.5t-135.5 92.5t-171.5 28q-170 0 -260 -80t-90 -193q0 -102 63.5 -158.5t180.5 -88.5l312 -86q122 -32 193 -88t100.5 -127.5t29.5 -150.5q0 -114 -62.5 -205t-177.5 -143.5t-274 -52.5zM571 -337v146h136v-146
h-136z" />
    <glyph glyph-name="uni1E63" unicode="&#x1e63;" horiz-adv-x="988" 
d="M516 -20q-108 0 -196.5 33t-144.5 101t-70 173h120q14 -64 51.5 -109.5t98.5 -70t141 -24.5q116 0 187 46t71 142q0 65 -35.5 104.5t-106.5 58.5l-232 61q-118 31 -188 91.5t-70 169.5q0 88 40.5 155t123.5 105t207 38q156 0 253.5 -71t103.5 -213h-119q-10 82 -70 132
t-168 50q-112 0 -181.5 -46.5t-69.5 -144.5q0 -64 46.5 -100t133.5 -58l229 -62q63 -17 105.5 -45.5t68 -63.5t37 -75t11.5 -79q0 -91 -42.5 -157.5t-126.5 -103.5t-208 -37zM426 -337v146h136v-146h-136z" />
    <glyph glyph-name="uni1E6C" unicode="&#x1e6c;" horiz-adv-x="1161" 
d="M534 0v1327h-483v119h1059v-119h-450v-1327h-126zM534 -334v146h136v-146h-136z" />
    <glyph glyph-name="uni1E6D" unicode="&#x1e6d;" horiz-adv-x="748" 
d="M510 -2q-91 0 -141 26t-70 79.5t-20 136.5v697h-168v97h170l28 295h95v-295h235v-97h-235v-694q0 -65 12 -94.5t43.5 -37.5t89.5 -8h99v-92q-19 -7 -55.5 -10t-82.5 -3zM385 -334v146h136v-146h-136z" />
    <glyph glyph-name="Wgrave" unicode="&#x1e80;" horiz-adv-x="1890" 
d="M462 0l-411 1446h131l349 -1262l357 1262h108l354 -1262l359 1262h130l-419 -1446h-136l-343 1219l-349 -1219h-130zM900 1567l-261 291h160l206 -291h-105z" />
    <glyph glyph-name="wgrave" unicode="&#x1e81;" horiz-adv-x="1550" 
d="M376 0l-311 1034h122l259 -881h21l257 881h101l270 -878h21l247 878h122l-299 -1034h-153l-259 840l-243 -840h-155zM740 1155l-261 291h160l206 -291h-105z" />
    <glyph glyph-name="Wacute" unicode="&#x1e82;" horiz-adv-x="1890" 
d="M462 0l-411 1446h131l349 -1262l357 1262h108l354 -1262l359 1262h130l-419 -1446h-136l-343 1219l-349 -1219h-130zM878 1567l206 291h159l-260 -291h-105z" />
    <glyph glyph-name="wacute" unicode="&#x1e83;" horiz-adv-x="1550" 
d="M376 0l-311 1034h122l259 -881h21l257 881h101l270 -878h21l247 878h122l-299 -1034h-153l-259 840l-243 -840h-155zM718 1155l206 291h159l-260 -291h-105z" />
    <glyph glyph-name="Wdieresis" unicode="&#x1e84;" horiz-adv-x="1890" 
d="M462 0l-411 1446h131l349 -1262l357 1262h108l354 -1262l359 1262h130l-419 -1446h-136l-343 1219l-349 -1219h-130zM1052 1712v146h129l-1 -146h-128zM706 1712l1 146h128v-146h-129z" />
    <glyph glyph-name="wdieresis" unicode="&#x1e85;" horiz-adv-x="1550" 
d="M376 0l-311 1034h122l259 -881h21l257 881h101l270 -878h21l247 878h122l-299 -1034h-153l-259 840l-243 -840h-155zM892 1300v146h129l-1 -146h-128zM546 1300l1 146h128v-146h-129z" />
    <glyph glyph-name="uni1E92" unicode="&#x1e92;" horiz-adv-x="1237" 
d="M138 0v79l825 1253h-800v114h970v-77l-829 -1254h827v-115h-993zM590 -337v146h136v-146h-136z" />
    <glyph glyph-name="uni1E93" unicode="&#x1e93;" horiz-adv-x="944" 
d="M84 0v89l625 847h-601v98h745v-89l-623 -847h630v-98h-776zM416 -337v146h136v-146h-136z" />
    <glyph glyph-name="uni1EA0" unicode="&#x1ea0;" horiz-adv-x="1402" 
d="M98 0l526 1446h155l525 -1446h-131l-156 430h-633l-156 -430h-130zM423 553h554l-277 768zM633 -337v146h136v-146h-136z" />
    <glyph glyph-name="uni1EA1" unicode="&#x1ea1;" horiz-adv-x="1091" 
d="M448 -20q-101 0 -176.5 35t-117 100t-41.5 156q0 173 115.5 254.5t376.5 89.5l215 7v91q0 109 -66 174t-203 65q-103 -1 -176.5 -49t-92.5 -152h-118q6 94 52 162t132.5 104.5t208.5 36.5t207.5 -37t131 -112t45.5 -187v-718h-109l-8 203q-64 -125 -163.5 -174
t-212.5 -49zM480 80q60 0 119.5 21.5t109.5 58.5t80.5 82.5t30.5 93.5v192l-180 -4q-145 -2 -233.5 -27.5t-129 -78t-40.5 -136.5q0 -95 67 -148.5t176 -53.5zM488 -337v146h136v-146h-136z" />
    <glyph glyph-name="uni1EA2" unicode="&#x1ea2;" horiz-adv-x="1402" 
d="M98 0l526 1446h155l525 -1446h-131l-156 430h-633l-156 -430h-130zM423 553h554l-277 768zM748 1563l-46 70q45 29 64.5 67.5t-1.5 71.5q-21 34 -65 32.5t-88 -30.5l-46 71q81 52 156.5 43.5t114.5 -67.5q47 -70 20 -138.5t-109 -119.5z" />
    <glyph glyph-name="uni1EA3" unicode="&#x1ea3;" horiz-adv-x="1091" 
d="M448 -20q-101 0 -176.5 35t-117 100t-41.5 156q0 173 115.5 254.5t376.5 89.5l215 7v91q0 109 -66 174t-203 65q-103 -1 -176.5 -49t-92.5 -152h-118q6 94 52 162t132.5 104.5t208.5 36.5t207.5 -37t131 -112t45.5 -187v-718h-109l-8 203q-64 -125 -163.5 -174
t-212.5 -49zM480 80q60 0 119.5 21.5t109.5 58.5t80.5 82.5t30.5 93.5v192l-180 -4q-145 -2 -233.5 -27.5t-129 -78t-40.5 -136.5q0 -95 67 -148.5t176 -53.5zM604 1151l-46 70q45 29 64.5 67.5t-1.5 71.5q-21 34 -65 32.5t-88 -30.5l-46 71q81 52 156.5 43.5t114.5 -67.5
q47 -70 20 -138.5t-109 -119.5z" />
    <glyph glyph-name="uni1EA4" unicode="&#x1ea4;" horiz-adv-x="1402" 
d="M98 0l526 1446h155l525 -1446h-131l-156 430h-633l-156 -430h-130zM423 553h554l-277 768zM412 1567l244 205h94l239 -205h-144l-144 124l-154 -124h-135zM860 1775l143 232h143l-186 -232h-100z" />
    <glyph glyph-name="uni1EA5" unicode="&#x1ea5;" horiz-adv-x="1091" 
d="M448 -20q-101 0 -176.5 35t-117 100t-41.5 156q0 173 115.5 254.5t376.5 89.5l215 7v91q0 109 -66 174t-203 65q-103 -1 -176.5 -49t-92.5 -152h-118q6 94 52 162t132.5 104.5t208.5 36.5t207.5 -37t131 -112t45.5 -187v-718h-109l-8 203q-64 -125 -163.5 -174
t-212.5 -49zM480 80q60 0 119.5 21.5t109.5 58.5t80.5 82.5t30.5 93.5v192l-180 -4q-145 -2 -233.5 -27.5t-129 -78t-40.5 -136.5q0 -95 67 -148.5t176 -53.5zM268 1155l244 205h94l239 -205h-144l-144 124l-154 -124h-135zM716 1363l143 232h143l-186 -232h-100z" />
    <glyph glyph-name="uni1EA6" unicode="&#x1ea6;" horiz-adv-x="1402" 
d="M98 0l526 1446h155l525 -1446h-131l-156 430h-633l-156 -430h-130zM423 553h554l-277 768zM412 1567l244 205h94l239 -205h-144l-144 124l-154 -124h-135zM964 1776l-201 232h143l159 -232h-101z" />
    <glyph glyph-name="uni1EA7" unicode="&#x1ea7;" horiz-adv-x="1091" 
d="M448 -20q-101 0 -176.5 35t-117 100t-41.5 156q0 173 115.5 254.5t376.5 89.5l215 7v91q0 109 -66 174t-203 65q-103 -1 -176.5 -49t-92.5 -152h-118q6 94 52 162t132.5 104.5t208.5 36.5t207.5 -37t131 -112t45.5 -187v-718h-109l-8 203q-64 -125 -163.5 -174
t-212.5 -49zM480 80q60 0 119.5 21.5t109.5 58.5t80.5 82.5t30.5 93.5v192l-180 -4q-145 -2 -233.5 -27.5t-129 -78t-40.5 -136.5q0 -95 67 -148.5t176 -53.5zM268 1155l244 205h94l239 -205h-144l-144 124l-154 -124h-135zM820 1364l-201 232h143l159 -232h-101z" />
    <glyph glyph-name="uni1EA8" unicode="&#x1ea8;" horiz-adv-x="1402" 
d="M98 0l526 1446h155l525 -1446h-131l-156 430h-633l-156 -430h-130zM423 553h554l-277 768zM415 1567l244 205h94l239 -205h-144l-144 124l-154 -124h-135zM902 1728l-46 71q45 29 64.5 67t-1.5 71q-21 35 -65 33t-87 -31l-46 72q81 52 156.5 43.5t113.5 -68.5
q47 -70 20.5 -138.5t-109.5 -119.5z" />
    <glyph glyph-name="uni1EA9" unicode="&#x1ea9;" horiz-adv-x="1091" 
d="M448 -20q-101 0 -176.5 35t-117 100t-41.5 156q0 173 115.5 254.5t376.5 89.5l215 7v91q0 109 -66 174t-203 65q-103 -1 -176.5 -49t-92.5 -152h-118q6 94 52 162t132.5 104.5t208.5 36.5t207.5 -37t131 -112t45.5 -187v-718h-109l-8 203q-64 -125 -163.5 -174
t-212.5 -49zM480 80q60 0 119.5 21.5t109.5 58.5t80.5 82.5t30.5 93.5v192l-180 -4q-145 -2 -233.5 -27.5t-129 -78t-40.5 -136.5q0 -95 67 -148.5t176 -53.5zM271 1155l244 205h94l239 -205h-144l-144 124l-154 -124h-135zM758 1316l-46 71q45 29 64.5 67t-1.5 71
q-21 35 -65 33t-87 -31l-46 72q81 52 156.5 43.5t113.5 -68.5q47 -70 20.5 -138.5t-109.5 -119.5z" />
    <glyph glyph-name="uni1EAA" unicode="&#x1eaa;" horiz-adv-x="1402" 
d="M98 0l526 1446h155l525 -1446h-131l-156 430h-633l-156 -430h-130zM423 553h554l-277 768zM412 1567l244 205h94l239 -205h-144l-144 124l-154 -124h-135zM455 1890l-28 85q31 27 65.5 46t85.5 19q46 0 85.5 -13t78 -26t82.5 -13q41 0 68.5 13.5t56.5 34.5l30 -93
q-23 -16 -59.5 -33.5t-97.5 -17.5q-52 0 -89 12.5t-70.5 25t-76.5 12.5q-48 0 -76 -17t-55 -35z" />
    <glyph glyph-name="uni1EAB" unicode="&#x1eab;" horiz-adv-x="1091" 
d="M448 -20q-101 0 -176.5 35t-117 100t-41.5 156q0 173 115.5 254.5t376.5 89.5l215 7v91q0 109 -66 174t-203 65q-103 -1 -176.5 -49t-92.5 -152h-118q6 94 52 162t132.5 104.5t208.5 36.5t207.5 -37t131 -112t45.5 -187v-718h-109l-8 203q-64 -125 -163.5 -174
t-212.5 -49zM480 80q60 0 119.5 21.5t109.5 58.5t80.5 82.5t30.5 93.5v192l-180 -4q-145 -2 -233.5 -27.5t-129 -78t-40.5 -136.5q0 -95 67 -148.5t176 -53.5zM269 1155l244 205h94l239 -205h-144l-144 124l-154 -124h-135zM312 1478l-28 85q31 27 65.5 46t85.5 19
q46 0 85.5 -13t78 -26t82.5 -13q41 0 68.5 13.5t56.5 34.5l30 -93q-23 -16 -59.5 -33.5t-97.5 -17.5q-52 0 -89 12.5t-70.5 25t-76.5 12.5q-48 0 -76 -17t-55 -35z" />
    <glyph glyph-name="uni1EAC" unicode="&#x1eac;" horiz-adv-x="1402" 
d="M98 0l526 1446h155l525 -1446h-131l-156 430h-633l-156 -430h-130zM423 553h554l-277 768zM633 -337v146h136v-146h-136zM412 1567l244 205h94l239 -205h-144l-144 124l-154 -124h-135z" />
    <glyph glyph-name="uni1EAD" unicode="&#x1ead;" horiz-adv-x="1091" 
d="M448 -20q-101 0 -176.5 35t-117 100t-41.5 156q0 173 115.5 254.5t376.5 89.5l215 7v91q0 109 -66 174t-203 65q-103 -1 -176.5 -49t-92.5 -152h-118q6 94 52 162t132.5 104.5t208.5 36.5t207.5 -37t131 -112t45.5 -187v-718h-109l-8 203q-64 -125 -163.5 -174
t-212.5 -49zM480 80q60 0 119.5 21.5t109.5 58.5t80.5 82.5t30.5 93.5v192l-180 -4q-145 -2 -233.5 -27.5t-129 -78t-40.5 -136.5q0 -95 67 -148.5t176 -53.5zM488 -337v146h136v-146h-136zM268 1155l244 205h94l239 -205h-144l-144 124l-154 -124h-135z" />
    <glyph glyph-name="uni1EAE" unicode="&#x1eae;" horiz-adv-x="1402" 
d="M98 0l526 1446h155l525 -1446h-131l-156 430h-633l-156 -430h-130zM423 553h554l-277 768zM704 1564q-68 0 -125.5 22.5t-96 66.5t-52.5 106h105q18 -47 62 -77t107 -30q62 0 108.5 30t64.5 77h105q-14 -60 -52 -103.5t-96 -67.5t-130 -24zM652 1772l143 232h143
l-186 -232h-100z" />
    <glyph glyph-name="uni1EAF" unicode="&#x1eaf;" horiz-adv-x="1091" 
d="M448 -20q-101 0 -176.5 35t-117 100t-41.5 156q0 173 115.5 254.5t376.5 89.5l215 7v91q0 109 -66 174t-203 65q-103 -1 -176.5 -49t-92.5 -152h-118q6 94 52 162t132.5 104.5t208.5 36.5t207.5 -37t131 -112t45.5 -187v-718h-109l-8 203q-64 -125 -163.5 -174
t-212.5 -49zM480 80q60 0 119.5 21.5t109.5 58.5t80.5 82.5t30.5 93.5v192l-180 -4q-145 -2 -233.5 -27.5t-129 -78t-40.5 -136.5q0 -95 67 -148.5t176 -53.5zM560 1152q-68 0 -125.5 22.5t-96 66.5t-52.5 106h105q18 -47 62 -77t107 -30q62 0 108.5 30t64.5 77h105
q-14 -60 -52 -103.5t-96 -67.5t-130 -24zM508 1360l143 232h143l-186 -232h-100z" />
    <glyph glyph-name="uni1EB0" unicode="&#x1eb0;" horiz-adv-x="1402" 
d="M98 0l526 1446h155l525 -1446h-131l-156 430h-633l-156 -430h-130zM423 553h554l-277 768zM704 1564q-68 0 -125.5 22.5t-96 66.5t-52.5 106h105q18 -47 62 -77t107 -30q62 0 108.5 30t64.5 77h105q-14 -60 -52 -103.5t-96 -67.5t-130 -24zM668 1770l-202 232h143
l160 -232h-101z" />
    <glyph glyph-name="uni1EB1" unicode="&#x1eb1;" horiz-adv-x="1091" 
d="M448 -20q-101 0 -176.5 35t-117 100t-41.5 156q0 173 115.5 254.5t376.5 89.5l215 7v91q0 109 -66 174t-203 65q-103 -1 -176.5 -49t-92.5 -152h-118q6 94 52 162t132.5 104.5t208.5 36.5t207.5 -37t131 -112t45.5 -187v-718h-109l-8 203q-64 -125 -163.5 -174
t-212.5 -49zM480 80q60 0 119.5 21.5t109.5 58.5t80.5 82.5t30.5 93.5v192l-180 -4q-145 -2 -233.5 -27.5t-129 -78t-40.5 -136.5q0 -95 67 -148.5t176 -53.5zM560 1152q-68 0 -125.5 22.5t-96 66.5t-52.5 106h105q18 -47 62 -77t107 -30q62 0 108.5 30t64.5 77h105
q-14 -60 -52 -103.5t-96 -67.5t-130 -24zM524 1358l-202 232h143l160 -232h-101z" />
    <glyph glyph-name="uni1EB2" unicode="&#x1eb2;" horiz-adv-x="1402" 
d="M98 0l526 1446h155l525 -1446h-131l-156 430h-633l-156 -430h-130zM423 553h554l-277 768zM704 1564q-68 0 -125.5 22.5t-96 66.5t-52.5 106h105q18 -47 62 -77t107 -30q62 0 108.5 30t64.5 77h105q-14 -60 -52 -103.5t-96 -67.5t-130 -24zM714 1757l-46 70
q45 29 64.5 67.5t-1.5 71.5q-21 34 -65 32t-87 -30l-46 71q69 44 137 44q87 0 133 -68q47 -70 20.5 -139t-109.5 -119z" />
    <glyph glyph-name="uni1EB3" unicode="&#x1eb3;" horiz-adv-x="1091" 
d="M448 -20q-101 0 -176.5 35t-117 100t-41.5 156q0 173 115.5 254.5t376.5 89.5l215 7v91q0 109 -66 174t-203 65q-103 -1 -176.5 -49t-92.5 -152h-118q6 94 52 162t132.5 104.5t208.5 36.5t207.5 -37t131 -112t45.5 -187v-718h-109l-8 203q-64 -125 -163.5 -174
t-212.5 -49zM480 80q60 0 119.5 21.5t109.5 58.5t80.5 82.5t30.5 93.5v192l-180 -4q-145 -2 -233.5 -27.5t-129 -78t-40.5 -136.5q0 -95 67 -148.5t176 -53.5zM560 1152q-68 0 -125.5 22.5t-96 66.5t-52.5 106h105q18 -47 62 -77t107 -30q62 0 108.5 30t64.5 77h105
q-14 -60 -52 -103.5t-96 -67.5t-130 -24zM570 1345l-46 70q45 29 64.5 67.5t-1.5 71.5q-21 34 -65 32t-87 -30l-46 71q69 44 137 44q87 0 133 -68q47 -70 20.5 -139t-109.5 -119z" />
    <glyph glyph-name="uni1EB4" unicode="&#x1eb4;" horiz-adv-x="1402" 
d="M98 0l526 1446h155l525 -1446h-131l-156 430h-633l-156 -430h-130zM423 553h554l-277 768zM704 1564q-68 0 -125.5 22.5t-96 66.5t-52.5 106h105q18 -47 62 -77t107 -30q62 0 108.5 30t64.5 77h105q-14 -60 -52 -103.5t-96 -67.5t-130 -24zM463 1887l-28 85
q31 27 65.5 46t85.5 19q46 0 85.5 -13t78 -26t82.5 -13q41 0 68.5 13.5t56.5 34.5l30 -93q-23 -16 -59.5 -33.5t-97.5 -17.5q-52 0 -89 12.5t-70.5 25t-76.5 12.5q-48 0 -76 -17t-55 -35z" />
    <glyph glyph-name="uni1EB5" unicode="&#x1eb5;" horiz-adv-x="1091" 
d="M448 -20q-101 0 -176.5 35t-117 100t-41.5 156q0 173 115.5 254.5t376.5 89.5l215 7v91q0 109 -66 174t-203 65q-103 -1 -176.5 -49t-92.5 -152h-118q6 94 52 162t132.5 104.5t208.5 36.5t207.5 -37t131 -112t45.5 -187v-718h-109l-8 203q-64 -125 -163.5 -174
t-212.5 -49zM480 80q60 0 119.5 21.5t109.5 58.5t80.5 82.5t30.5 93.5v192l-180 -4q-145 -2 -233.5 -27.5t-129 -78t-40.5 -136.5q0 -95 67 -148.5t176 -53.5zM560 1152q-68 0 -125.5 22.5t-96 66.5t-52.5 106h105q18 -47 62 -77t107 -30q62 0 108.5 30t64.5 77h105
q-14 -60 -52 -103.5t-96 -67.5t-130 -24zM319 1475l-28 85q31 27 65.5 46t85.5 19q46 0 85.5 -13t78 -26t82.5 -13q41 0 68.5 13.5t56.5 34.5l30 -93q-23 -16 -59.5 -33.5t-97.5 -17.5q-52 0 -89 12.5t-70.5 25t-76.5 12.5q-48 0 -76 -17t-55 -35z" />
    <glyph glyph-name="uni1EB6" unicode="&#x1eb6;" horiz-adv-x="1402" 
d="M98 0l526 1446h155l525 -1446h-131l-156 430h-633l-156 -430h-130zM423 553h554l-277 768zM633 -337v146h136v-146h-136zM699 1564q-68 0 -125.5 22.5t-96 66.5t-52.5 106h105q18 -47 62 -77t107 -30q62 0 108.5 30t64.5 77h105q-14 -60 -52 -103.5t-96 -67.5t-130 -24z
" />
    <glyph glyph-name="uni1EB7" unicode="&#x1eb7;" horiz-adv-x="1091" 
d="M448 -20q-101 0 -176.5 35t-117 100t-41.5 156q0 173 115.5 254.5t376.5 89.5l215 7v91q0 109 -66 174t-203 65q-103 -1 -176.5 -49t-92.5 -152h-118q6 94 52 162t132.5 104.5t208.5 36.5t207.5 -37t131 -112t45.5 -187v-718h-109l-8 203q-64 -125 -163.5 -174
t-212.5 -49zM480 80q60 0 119.5 21.5t109.5 58.5t80.5 82.5t30.5 93.5v192l-180 -4q-145 -2 -233.5 -27.5t-129 -78t-40.5 -136.5q0 -95 67 -148.5t176 -53.5zM488 -337v146h136v-146h-136zM555 1152q-68 0 -125.5 22.5t-96 66.5t-52.5 106h105q18 -47 62 -77t107 -30
q62 0 108.5 30t64.5 77h105q-14 -60 -52 -103.5t-96 -67.5t-130 -24z" />
    <glyph glyph-name="uni1EB8" unicode="&#x1eb8;" horiz-adv-x="1225" 
d="M207 0v1446h866v-116h-741v-541h680v-117h-680v-552l765 -2v-118h-890zM622 -337v146h136v-146h-136z" />
    <glyph glyph-name="uni1EB9" unicode="&#x1eb9;" horiz-adv-x="1122" 
d="M585 -20q-140 0 -246 62t-166 180t-60 285q0 168 54 291t157 189.5t248 66.5q140 0 237 -60.5t148.5 -173.5t51.5 -271v-62h-767q0 -108 36 -199.5t112 -147t194 -55.5q112 0 192.5 53.5t99.5 148.5h123q-19 -102 -81 -170.5t-149.5 -102.5t-183.5 -34zM244 585h641
q0 103 -34 186t-103.5 131t-176.5 48q-114 0 -186.5 -54.5t-107 -138.5t-33.5 -172zM504 -337v146h136v-146h-136z" />
    <glyph glyph-name="uni1EBA" unicode="&#x1eba;" horiz-adv-x="1225" 
d="M207 0v1446h866v-116h-741v-541h680v-117h-680v-552l765 -2v-118h-890zM691 1563l-46 70q45 29 64.5 67.5t-1.5 71.5q-21 34 -65 32.5t-88 -30.5l-46 71q81 52 156.5 43.5t114.5 -67.5q47 -70 20 -138.5t-109 -119.5z" />
    <glyph glyph-name="uni1EBB" unicode="&#x1ebb;" horiz-adv-x="1122" 
d="M585 -20q-140 0 -246 62t-166 180t-60 285q0 168 54 291t157 189.5t248 66.5q140 0 237 -60.5t148.5 -173.5t51.5 -271v-62h-767q0 -108 36 -199.5t112 -147t194 -55.5q112 0 192.5 53.5t99.5 148.5h123q-19 -102 -81 -170.5t-149.5 -102.5t-183.5 -34zM244 585h641
q0 103 -34 186t-103.5 131t-176.5 48q-114 0 -186.5 -54.5t-107 -138.5t-33.5 -172zM619 1151l-46 70q45 29 64.5 67.5t-1.5 71.5q-21 34 -65 32.5t-88 -30.5l-46 71q81 52 156.5 43.5t114.5 -67.5q47 -70 20 -138.5t-109 -119.5z" />
    <glyph glyph-name="uni1EBC" unicode="&#x1ebc;" horiz-adv-x="1225" 
d="M207 0v1446h866v-116h-741v-541h680v-117h-680v-552l765 -2v-118h-890zM399 1648l-29 84q31 27 66 46.5t86 19.5q45 0 84.5 -13t78.5 -26.5t82 -13.5q41 0 69 13.5t57 34.5l30 -92q-24 -16 -60 -34t-97 -18q-52 0 -89 12.5t-71 25t-76 12.5q-49 0 -77 -16.5t-54 -34.5z
" />
    <glyph glyph-name="uni1EBD" unicode="&#x1ebd;" horiz-adv-x="1122" 
d="M585 -20q-140 0 -246 62t-166 180t-60 285q0 168 54 291t157 189.5t248 66.5q140 0 237 -60.5t148.5 -173.5t51.5 -271v-62h-767q0 -108 36 -199.5t112 -147t194 -55.5q112 0 192.5 53.5t99.5 148.5h123q-19 -102 -81 -170.5t-149.5 -102.5t-183.5 -34zM244 585h641
q0 103 -34 186t-103.5 131t-176.5 48q-114 0 -186.5 -54.5t-107 -138.5t-33.5 -172zM327 1236l-29 84q31 27 66 46.5t86 19.5q45 0 84.5 -13t78.5 -26.5t82 -13.5q41 0 69 13.5t57 34.5l30 -92q-24 -16 -60 -34t-97 -18q-52 0 -89 12.5t-71 25t-76 12.5q-49 0 -77 -16.5
t-54 -34.5z" />
    <glyph glyph-name="uni1EBE" unicode="&#x1ebe;" horiz-adv-x="1225" 
d="M207 0v1446h866v-116h-741v-541h680v-117h-680v-552l765 -2v-118h-890zM355 1567l244 205h94l239 -205h-144l-144 124l-154 -124h-135zM803 1775l143 232h143l-186 -232h-100z" />
    <glyph glyph-name="uni1EBF" unicode="&#x1ebf;" horiz-adv-x="1122" 
d="M585 -20q-140 0 -246 62t-166 180t-60 285q0 168 54 291t157 189.5t248 66.5q140 0 237 -60.5t148.5 -173.5t51.5 -271v-62h-767q0 -108 36 -199.5t112 -147t194 -55.5q112 0 192.5 53.5t99.5 148.5h123q-19 -102 -81 -170.5t-149.5 -102.5t-183.5 -34zM244 585h641
q0 103 -34 186t-103.5 131t-176.5 48q-114 0 -186.5 -54.5t-107 -138.5t-33.5 -172zM283 1155l244 205h94l239 -205h-144l-144 124l-154 -124h-135zM731 1363l143 232h143l-186 -232h-100z" />
    <glyph glyph-name="uni1EC0" unicode="&#x1ec0;" horiz-adv-x="1225" 
d="M207 0v1446h866v-116h-741v-541h680v-117h-680v-552l765 -2v-118h-890zM355 1567l244 205h94l239 -205h-144l-144 124l-154 -124h-135zM907 1776l-201 232h143l159 -232h-101z" />
    <glyph glyph-name="uni1EC1" unicode="&#x1ec1;" horiz-adv-x="1122" 
d="M585 -20q-140 0 -246 62t-166 180t-60 285q0 168 54 291t157 189.5t248 66.5q140 0 237 -60.5t148.5 -173.5t51.5 -271v-62h-767q0 -108 36 -199.5t112 -147t194 -55.5q112 0 192.5 53.5t99.5 148.5h123q-19 -102 -81 -170.5t-149.5 -102.5t-183.5 -34zM244 585h641
q0 103 -34 186t-103.5 131t-176.5 48q-114 0 -186.5 -54.5t-107 -138.5t-33.5 -172zM283 1155l244 205h94l239 -205h-144l-144 124l-154 -124h-135zM835 1364l-201 232h143l159 -232h-101z" />
    <glyph glyph-name="uni1EC2" unicode="&#x1ec2;" horiz-adv-x="1225" 
d="M207 0v1446h866v-116h-741v-541h680v-117h-680v-552l765 -2v-118h-890zM358 1567l244 205h94l239 -205h-144l-144 124l-154 -124h-135zM845 1728l-46 71q45 29 64.5 67t-1.5 71q-21 35 -65 33t-87 -31l-46 72q81 52 156.5 43.5t113.5 -68.5q47 -70 20.5 -138.5
t-109.5 -119.5z" />
    <glyph glyph-name="uni1EC3" unicode="&#x1ec3;" horiz-adv-x="1122" 
d="M585 -20q-140 0 -246 62t-166 180t-60 285q0 168 54 291t157 189.5t248 66.5q140 0 237 -60.5t148.5 -173.5t51.5 -271v-62h-767q0 -108 36 -199.5t112 -147t194 -55.5q112 0 192.5 53.5t99.5 148.5h123q-19 -102 -81 -170.5t-149.5 -102.5t-183.5 -34zM244 585h641
q0 103 -34 186t-103.5 131t-176.5 48q-114 0 -186.5 -54.5t-107 -138.5t-33.5 -172zM286 1155l244 205h94l239 -205h-144l-144 124l-154 -124h-135zM773 1316l-46 71q45 29 64.5 67t-1.5 71q-21 35 -65 33t-87 -31l-46 72q81 52 156.5 43.5t113.5 -68.5q47 -70 20.5 -138.5
t-109.5 -119.5z" />
    <glyph glyph-name="uni1EC4" unicode="&#x1ec4;" horiz-adv-x="1225" 
d="M207 0v1446h866v-116h-741v-541h680v-117h-680v-552l765 -2v-118h-890zM356 1567l244 205h94l239 -205h-144l-144 124l-154 -124h-135zM399 1890l-28 85q31 27 65.5 46t85.5 19q46 0 85.5 -13t78 -26t82.5 -13q41 0 68.5 13.5t56.5 34.5l30 -93q-23 -16 -59.5 -33.5
t-97.5 -17.5q-52 0 -89 12.5t-70.5 25t-76.5 12.5q-48 0 -76 -17t-55 -35z" />
    <glyph glyph-name="uni1EC5" unicode="&#x1ec5;" horiz-adv-x="1122" 
d="M585 -20q-140 0 -246 62t-166 180t-60 285q0 168 54 291t157 189.5t248 66.5q140 0 237 -60.5t148.5 -173.5t51.5 -271v-62h-767q0 -108 36 -199.5t112 -147t194 -55.5q112 0 192.5 53.5t99.5 148.5h123q-19 -102 -81 -170.5t-149.5 -102.5t-183.5 -34zM244 585h641
q0 103 -34 186t-103.5 131t-176.5 48q-114 0 -186.5 -54.5t-107 -138.5t-33.5 -172zM284 1155l244 205h94l239 -205h-144l-144 124l-154 -124h-135zM327 1478l-28 85q31 27 65.5 46t85.5 19q46 0 85.5 -13t78 -26t82.5 -13q41 0 68.5 13.5t56.5 34.5l30 -93
q-23 -16 -59.5 -33.5t-97.5 -17.5q-52 0 -89 12.5t-70.5 25t-76.5 12.5q-48 0 -76 -17t-55 -35z" />
    <glyph glyph-name="uni1EC6" unicode="&#x1ec6;" horiz-adv-x="1225" 
d="M207 0v1446h866v-116h-741v-541h680v-117h-680v-552l765 -2v-118h-890zM622 -337v146h136v-146h-136zM355 1567l244 205h94l239 -205h-144l-144 124l-154 -124h-135z" />
    <glyph glyph-name="uni1EC7" unicode="&#x1ec7;" horiz-adv-x="1122" 
d="M585 -20q-140 0 -246 62t-166 180t-60 285q0 168 54 291t157 189.5t248 66.5q140 0 237 -60.5t148.5 -173.5t51.5 -271v-62h-767q0 -108 36 -199.5t112 -147t194 -55.5q112 0 192.5 53.5t99.5 148.5h123q-19 -102 -81 -170.5t-149.5 -102.5t-183.5 -34zM244 585h641
q0 103 -34 186t-103.5 131t-176.5 48q-114 0 -186.5 -54.5t-107 -138.5t-33.5 -172zM504 -337v146h136v-146h-136zM283 1155l244 205h94l239 -205h-144l-144 124l-154 -124h-135z" />
    <glyph glyph-name="uni1EC8" unicode="&#x1ec8;" horiz-adv-x="539" 
d="M207 0v1446h125v-1446h-125zM317 1563l-46 70q45 29 64.5 67.5t-1.5 71.5q-21 34 -65 32.5t-88 -30.5l-46 71q81 52 156.5 43.5t114.5 -67.5q47 -70 20 -138.5t-109 -119.5z" />
    <glyph glyph-name="uni1EC9" unicode="&#x1ec9;" horiz-adv-x="458" 
d="M168 0v1034h122v-1034h-122zM275 1151l-46 70q45 29 64.5 67.5t-1.5 71.5q-21 34 -65 32.5t-88 -30.5l-46 71q81 52 156.5 43.5t114.5 -67.5q47 -70 20 -138.5t-109 -119.5z" />
    <glyph glyph-name="uni1ECA" unicode="&#x1eca;" horiz-adv-x="539" 
d="M207 0v1446h125v-1446h-125zM208 -337v146h136v-146h-136z" />
    <glyph glyph-name="uni1ECB" unicode="&#x1ecb;" horiz-adv-x="472" 
d="M176 0v1034h122v-1034h-122zM168 1293v151h136v-151h-136zM169 -337v146h136v-146h-136z" />
    <glyph glyph-name="uni1ECC" unicode="&#x1ecc;" horiz-adv-x="1437" 
d="M722 -20q-187 0 -323.5 85.5t-210 250.5t-73.5 404q0 240 74 406.5t210 253t323 86.5q186 0 321 -86t207.5 -252.5t72.5 -407.5q0 -238 -72.5 -403t-207.5 -251t-321 -86zM722 97q149 0 252.5 67t157 205.5t53.5 349.5q0 215 -54.5 354t-157.5 207.5t-251 68.5
t-253 -68.5t-160.5 -208.5t-55.5 -353q0 -212 55.5 -350t160.5 -205t253 -67zM656 -337v146h136v-146h-136z" />
    <glyph glyph-name="uni1ECD" unicode="&#x1ecd;" horiz-adv-x="1119" 
d="M562 -20q-138 0 -241.5 59.5t-161 178t-57.5 295.5q0 163 51.5 284.5t154 189t254.5 67.5q138 0 239.5 -60.5t158.5 -180.5t57 -300q0 -159 -50.5 -279t-151.5 -187t-253 -67zM562 85q102 0 175.5 49t113.5 145t40 237q0 126 -35 223.5t-107.5 153t-186.5 55.5
q-103 0 -177.5 -48.5t-115 -145t-40.5 -238.5q0 -126 35 -223t109 -152.5t189 -55.5zM495 -337v146h136v-146h-136z" />
    <glyph glyph-name="uni1ECE" unicode="&#x1ece;" horiz-adv-x="1437" 
d="M722 -20q-187 0 -323.5 85.5t-210 250.5t-73.5 404q0 240 74 406.5t210 253t323 86.5q186 0 321 -86t207.5 -252.5t72.5 -407.5q0 -238 -72.5 -403t-207.5 -251t-321 -86zM722 97q149 0 252.5 67t157 205.5t53.5 349.5q0 215 -54.5 354t-157.5 207.5t-251 68.5
t-253 -68.5t-160.5 -208.5t-55.5 -353q0 -212 55.5 -350t160.5 -205t253 -67zM769 1563l-46 70q45 29 64.5 67.5t-1.5 71.5q-21 34 -65 32.5t-88 -30.5l-46 71q81 52 156.5 43.5t114.5 -67.5q47 -70 20 -138.5t-109 -119.5z" />
    <glyph glyph-name="uni1ECF" unicode="&#x1ecf;" horiz-adv-x="1119" 
d="M562 -20q-138 0 -241.5 59.5t-161 178t-57.5 295.5q0 163 51.5 284.5t154 189t254.5 67.5q138 0 239.5 -60.5t158.5 -180.5t57 -300q0 -159 -50.5 -279t-151.5 -187t-253 -67zM562 85q102 0 175.5 49t113.5 145t40 237q0 126 -35 223.5t-107.5 153t-186.5 55.5
q-103 0 -177.5 -48.5t-115 -145t-40.5 -238.5q0 -126 35 -223t109 -152.5t189 -55.5zM607 1151l-46 70q45 29 64.5 67.5t-1.5 71.5q-21 34 -65 32.5t-88 -30.5l-46 71q81 52 156.5 43.5t114.5 -67.5q47 -70 20 -138.5t-109 -119.5z" />
    <glyph glyph-name="uni1ED0" unicode="&#x1ed0;" horiz-adv-x="1437" 
d="M722 -20q-187 0 -323.5 85.5t-210 250.5t-73.5 404q0 240 74 406.5t210 253t323 86.5q186 0 321 -86t207.5 -252.5t72.5 -407.5q0 -238 -72.5 -403t-207.5 -251t-321 -86zM722 97q149 0 252.5 67t157 205.5t53.5 349.5q0 215 -54.5 354t-157.5 207.5t-251 68.5
t-253 -68.5t-160.5 -208.5t-55.5 -353q0 -212 55.5 -350t160.5 -205t253 -67zM434 1567l244 205h94l239 -205h-144l-144 124l-154 -124h-135zM882 1775l143 232h143l-186 -232h-100z" />
    <glyph glyph-name="uni1ED1" unicode="&#x1ed1;" horiz-adv-x="1119" 
d="M562 -20q-138 0 -241.5 59.5t-161 178t-57.5 295.5q0 163 51.5 284.5t154 189t254.5 67.5q138 0 239.5 -60.5t158.5 -180.5t57 -300q0 -159 -50.5 -279t-151.5 -187t-253 -67zM562 85q102 0 175.5 49t113.5 145t40 237q0 126 -35 223.5t-107.5 153t-186.5 55.5
q-103 0 -177.5 -48.5t-115 -145t-40.5 -238.5q0 -126 35 -223t109 -152.5t189 -55.5zM271 1155l244 205h94l239 -205h-144l-144 124l-154 -124h-135zM719 1363l143 232h143l-186 -232h-100z" />
    <glyph glyph-name="uni1ED2" unicode="&#x1ed2;" horiz-adv-x="1437" 
d="M722 -20q-187 0 -323.5 85.5t-210 250.5t-73.5 404q0 240 74 406.5t210 253t323 86.5q186 0 321 -86t207.5 -252.5t72.5 -407.5q0 -238 -72.5 -403t-207.5 -251t-321 -86zM722 97q149 0 252.5 67t157 205.5t53.5 349.5q0 215 -54.5 354t-157.5 207.5t-251 68.5
t-253 -68.5t-160.5 -208.5t-55.5 -353q0 -212 55.5 -350t160.5 -205t253 -67zM434 1567l244 205h94l239 -205h-144l-144 124l-154 -124h-135zM986 1776l-201 232h143l159 -232h-101z" />
    <glyph glyph-name="uni1ED3" unicode="&#x1ed3;" horiz-adv-x="1119" 
d="M562 -20q-138 0 -241.5 59.5t-161 178t-57.5 295.5q0 163 51.5 284.5t154 189t254.5 67.5q138 0 239.5 -60.5t158.5 -180.5t57 -300q0 -159 -50.5 -279t-151.5 -187t-253 -67zM562 85q102 0 175.5 49t113.5 145t40 237q0 126 -35 223.5t-107.5 153t-186.5 55.5
q-103 0 -177.5 -48.5t-115 -145t-40.5 -238.5q0 -126 35 -223t109 -152.5t189 -55.5zM271 1155l244 205h94l239 -205h-144l-144 124l-154 -124h-135zM823 1364l-201 232h143l159 -232h-101z" />
    <glyph glyph-name="uni1ED4" unicode="&#x1ed4;" horiz-adv-x="1437" 
d="M722 -20q-187 0 -323.5 85.5t-210 250.5t-73.5 404q0 240 74 406.5t210 253t323 86.5q186 0 321 -86t207.5 -252.5t72.5 -407.5q0 -238 -72.5 -403t-207.5 -251t-321 -86zM722 97q149 0 252.5 67t157 205.5t53.5 349.5q0 215 -54.5 354t-157.5 207.5t-251 68.5
t-253 -68.5t-160.5 -208.5t-55.5 -353q0 -212 55.5 -350t160.5 -205t253 -67zM437 1567l244 205h94l239 -205h-144l-144 124l-154 -124h-135zM924 1728l-46 71q45 29 64.5 67t-1.5 71q-21 35 -65 33t-87 -31l-46 72q81 52 156.5 43.5t113.5 -68.5q47 -70 20.5 -138.5
t-109.5 -119.5z" />
    <glyph glyph-name="uni1ED5" unicode="&#x1ed5;" horiz-adv-x="1119" 
d="M562 -20q-138 0 -241.5 59.5t-161 178t-57.5 295.5q0 163 51.5 284.5t154 189t254.5 67.5q138 0 239.5 -60.5t158.5 -180.5t57 -300q0 -159 -50.5 -279t-151.5 -187t-253 -67zM562 85q102 0 175.5 49t113.5 145t40 237q0 126 -35 223.5t-107.5 153t-186.5 55.5
q-103 0 -177.5 -48.5t-115 -145t-40.5 -238.5q0 -126 35 -223t109 -152.5t189 -55.5zM274 1155l244 205h94l239 -205h-144l-144 124l-154 -124h-135zM761 1316l-46 71q45 29 64.5 67t-1.5 71q-21 35 -65 33t-87 -31l-46 72q81 52 156.5 43.5t113.5 -68.5q47 -70 20.5 -138.5
t-109.5 -119.5z" />
    <glyph glyph-name="uni1ED6" unicode="&#x1ed6;" horiz-adv-x="1437" 
d="M722 -20q-187 0 -323.5 85.5t-210 250.5t-73.5 404q0 240 74 406.5t210 253t323 86.5q186 0 321 -86t207.5 -252.5t72.5 -407.5q0 -238 -72.5 -403t-207.5 -251t-321 -86zM722 97q149 0 252.5 67t157 205.5t53.5 349.5q0 215 -54.5 354t-157.5 207.5t-251 68.5
t-253 -68.5t-160.5 -208.5t-55.5 -353q0 -212 55.5 -350t160.5 -205t253 -67zM434 1567l244 205h94l239 -205h-144l-144 124l-154 -124h-135zM477 1890l-28 85q31 27 65.5 46t85.5 19q46 0 85.5 -13t78 -26t82.5 -13q41 0 68.5 13.5t56.5 34.5l30 -93q-23 -16 -59.5 -33.5
t-97.5 -17.5q-52 0 -89 12.5t-70.5 25t-76.5 12.5q-48 0 -76 -17t-55 -35z" />
    <glyph glyph-name="uni1ED7" unicode="&#x1ed7;" horiz-adv-x="1119" 
d="M562 -20q-138 0 -241.5 59.5t-161 178t-57.5 295.5q0 163 51.5 284.5t154 189t254.5 67.5q138 0 239.5 -60.5t158.5 -180.5t57 -300q0 -159 -50.5 -279t-151.5 -187t-253 -67zM562 85q102 0 175.5 49t113.5 145t40 237q0 126 -35 223.5t-107.5 153t-186.5 55.5
q-103 0 -177.5 -48.5t-115 -145t-40.5 -238.5q0 -126 35 -223t109 -152.5t189 -55.5zM272 1155l244 205h94l239 -205h-144l-144 124l-154 -124h-135zM315 1478l-28 85q31 27 65.5 46t85.5 19q46 0 85.5 -13t78 -26t82.5 -13q41 0 68.5 13.5t56.5 34.5l30 -93
q-23 -16 -59.5 -33.5t-97.5 -17.5q-52 0 -89 12.5t-70.5 25t-76.5 12.5q-48 0 -76 -17t-55 -35z" />
    <glyph glyph-name="uni1ED8" unicode="&#x1ed8;" horiz-adv-x="1437" 
d="M722 -20q-187 0 -323.5 85.5t-210 250.5t-73.5 404q0 240 74 406.5t210 253t323 86.5q186 0 321 -86t207.5 -252.5t72.5 -407.5q0 -238 -72.5 -403t-207.5 -251t-321 -86zM722 97q149 0 252.5 67t157 205.5t53.5 349.5q0 215 -54.5 354t-157.5 207.5t-251 68.5
t-253 -68.5t-160.5 -208.5t-55.5 -353q0 -212 55.5 -350t160.5 -205t253 -67zM656 -337v146h136v-146h-136zM434 1567l244 205h94l239 -205h-144l-144 124l-154 -124h-135z" />
    <glyph glyph-name="uni1ED9" unicode="&#x1ed9;" horiz-adv-x="1119" 
d="M562 -20q-138 0 -241.5 59.5t-161 178t-57.5 295.5q0 163 51.5 284.5t154 189t254.5 67.5q138 0 239.5 -60.5t158.5 -180.5t57 -300q0 -159 -50.5 -279t-151.5 -187t-253 -67zM562 85q102 0 175.5 49t113.5 145t40 237q0 126 -35 223.5t-107.5 153t-186.5 55.5
q-103 0 -177.5 -48.5t-115 -145t-40.5 -238.5q0 -126 35 -223t109 -152.5t189 -55.5zM495 -337v146h136v-146h-136zM271 1155l244 205h94l239 -205h-144l-144 124l-154 -124h-135z" />
    <glyph glyph-name="uni1EDA" unicode="&#x1eda;" horiz-adv-x="1515" 
d="M722 -20q-187 0 -323.5 85.5t-210 250.5t-73.5 404q0 240 74 406.5t210 253t323 86.5q137 0 247 -47t188 -139q36 1 61.5 11t41.5 31.5t25 58.5t10 92h122q0 -88 -21 -148.5t-65 -93.5t-114 -39q52 -89 79 -207.5t27 -264.5q0 -238 -72.5 -403t-207.5 -251t-321 -86z
M722 97q149 0 252.5 67t157 205.5t53.5 349.5q0 215 -54.5 354t-157.5 207.5t-251 68.5t-253 -68.5t-160.5 -208.5t-55.5 -353q0 -212 55.5 -350t160.5 -205t253 -67zM658 1567l206 291h159l-260 -291h-105z" />
    <glyph glyph-name="uni1EDB" unicode="&#x1edb;" horiz-adv-x="1159" 
d="M509 1155l206 291h159l-260 -291h-105zM562 -20q-138 0 -241.5 59.5t-161 178t-57.5 295.5q0 163 51.5 284.5t154 189t254.5 67.5q102 0 185 -33t142 -99q42 5 66.5 23.5t37 59t14.5 109.5h122q0 -85 -19 -144t-59.5 -92.5t-103.5 -42.5q70 -125 70 -322
q0 -159 -50.5 -279t-151.5 -187t-253 -67zM562 85q102 0 175.5 49t113.5 145t40 237q0 126 -35 223.5t-107.5 153t-186.5 55.5q-103 0 -177.5 -48.5t-115 -145t-40.5 -238.5q0 -126 35 -223t109 -152.5t189 -55.5z" />
    <glyph glyph-name="uni1EDC" unicode="&#x1edc;" horiz-adv-x="1515" 
d="M722 -20q-187 0 -323.5 85.5t-210 250.5t-73.5 404q0 240 74 406.5t210 253t323 86.5q137 0 247 -47t188 -139q36 1 61.5 11t41.5 31.5t25 58.5t10 92h122q0 -88 -21 -148.5t-65 -93.5t-114 -39q52 -89 79 -207.5t27 -264.5q0 -238 -72.5 -403t-207.5 -251t-321 -86z
M722 97q149 0 252.5 67t157 205.5t53.5 349.5q0 215 -54.5 354t-157.5 207.5t-251 68.5t-253 -68.5t-160.5 -208.5t-55.5 -353q0 -212 55.5 -350t160.5 -205t253 -67zM680 1567l-261 291h160l206 -291h-105z" />
    <glyph glyph-name="uni1EDD" unicode="&#x1edd;" horiz-adv-x="1159" 
d="M507 1155l-261 291h160l206 -291h-105zM562 -20q-138 0 -241.5 59.5t-161 178t-57.5 295.5q0 163 51.5 284.5t154 189t254.5 67.5q102 0 185 -33t142 -99q42 5 66.5 23.5t37 59t14.5 109.5h122q0 -85 -19 -144t-59.5 -92.5t-103.5 -42.5q70 -125 70 -322
q0 -159 -50.5 -279t-151.5 -187t-253 -67zM562 85q102 0 175.5 49t113.5 145t40 237q0 126 -35 223.5t-107.5 153t-186.5 55.5q-103 0 -177.5 -48.5t-115 -145t-40.5 -238.5q0 -126 35 -223t109 -152.5t189 -55.5z" />
    <glyph glyph-name="uni1EDE" unicode="&#x1ede;" horiz-adv-x="1515" 
d="M722 -20q-187 0 -323.5 85.5t-210 250.5t-73.5 404q0 240 74 406.5t210 253t323 86.5q137 0 247 -47t188 -139q36 1 61.5 11t41.5 31.5t25 58.5t10 92h122q0 -88 -21 -148.5t-65 -93.5t-114 -39q52 -89 79 -207.5t27 -264.5q0 -238 -72.5 -403t-207.5 -251t-321 -86z
M722 97q149 0 252.5 67t157 205.5t53.5 349.5q0 215 -54.5 354t-157.5 207.5t-251 68.5t-253 -68.5t-160.5 -208.5t-55.5 -353q0 -212 55.5 -350t160.5 -205t253 -67zM769 1563l-46 70q45 29 64.5 67.5t-1.5 71.5q-21 34 -65 32.5t-88 -30.5l-46 71q81 52 156.5 43.5
t114.5 -67.5q47 -70 20 -138.5t-109 -119.5z" />
    <glyph glyph-name="uni1EDF" unicode="&#x1edf;" horiz-adv-x="1159" 
d="M607 1151l-46 70q45 29 64.5 67.5t-1.5 71.5q-21 34 -65 32.5t-88 -30.5l-46 71q81 52 156.5 43.5t114.5 -67.5q47 -70 20 -138.5t-109 -119.5zM562 -20q-138 0 -241.5 59.5t-161 178t-57.5 295.5q0 163 51.5 284.5t154 189t254.5 67.5q102 0 185 -33t142 -99
q42 5 66.5 23.5t37 59t14.5 109.5h122q0 -85 -19 -144t-59.5 -92.5t-103.5 -42.5q70 -125 70 -322q0 -159 -50.5 -279t-151.5 -187t-253 -67zM562 85q102 0 175.5 49t113.5 145t40 237q0 126 -35 223.5t-107.5 153t-186.5 55.5q-103 0 -177.5 -48.5t-115 -145t-40.5 -238.5
q0 -126 35 -223t109 -152.5t189 -55.5z" />
    <glyph glyph-name="uni1EE0" unicode="&#x1ee0;" horiz-adv-x="1515" 
d="M722 -20q-187 0 -323.5 85.5t-210 250.5t-73.5 404q0 240 74 406.5t210 253t323 86.5q137 0 247 -47t188 -139q36 1 61.5 11t41.5 31.5t25 58.5t10 92h122q0 -88 -21 -148.5t-65 -93.5t-114 -39q52 -89 79 -207.5t27 -264.5q0 -238 -72.5 -403t-207.5 -251t-321 -86z
M722 97q149 0 252.5 67t157 205.5t53.5 349.5q0 215 -54.5 354t-157.5 207.5t-251 68.5t-253 -68.5t-160.5 -208.5t-55.5 -353q0 -212 55.5 -350t160.5 -205t253 -67zM478 1648l-29 84q31 27 66 46.5t86 19.5q45 0 84.5 -13t78.5 -26.5t82 -13.5q41 0 69 13.5t57 34.5
l30 -92q-24 -16 -60 -34t-97 -18q-52 0 -89 12.5t-71 25t-76 12.5q-49 0 -77 -16.5t-54 -34.5z" />
    <glyph glyph-name="uni1EE1" unicode="&#x1ee1;" horiz-adv-x="1159" 
d="M315 1236l-29 84q31 27 66 46.5t86 19.5q45 0 84.5 -13t78.5 -26.5t82 -13.5q41 0 69 13.5t57 34.5l30 -92q-24 -16 -60 -34t-97 -18q-52 0 -89 12.5t-71 25t-76 12.5q-49 0 -77 -16.5t-54 -34.5zM562 -20q-138 0 -241.5 59.5t-161 178t-57.5 295.5q0 163 51.5 284.5
t154 189t254.5 67.5q102 0 185 -33t142 -99q42 5 66.5 23.5t37 59t14.5 109.5h122q0 -85 -19 -144t-59.5 -92.5t-103.5 -42.5q70 -125 70 -322q0 -159 -50.5 -279t-151.5 -187t-253 -67zM562 85q102 0 175.5 49t113.5 145t40 237q0 126 -35 223.5t-107.5 153t-186.5 55.5
q-103 0 -177.5 -48.5t-115 -145t-40.5 -238.5q0 -126 35 -223t109 -152.5t189 -55.5z" />
    <glyph glyph-name="uni1EE2" unicode="&#x1ee2;" horiz-adv-x="1515" 
d="M722 -20q-187 0 -323.5 85.5t-210 250.5t-73.5 404q0 240 74 406.5t210 253t323 86.5q137 0 247 -47t188 -139q36 1 61.5 11t41.5 31.5t25 58.5t10 92h122q0 -88 -21 -148.5t-65 -93.5t-114 -39q52 -89 79 -207.5t27 -264.5q0 -238 -72.5 -403t-207.5 -251t-321 -86z
M722 97q149 0 252.5 67t157 205.5t53.5 349.5q0 215 -54.5 354t-157.5 207.5t-251 68.5t-253 -68.5t-160.5 -208.5t-55.5 -353q0 -212 55.5 -350t160.5 -205t253 -67zM656 -337v146h136v-146h-136z" />
    <glyph glyph-name="uni1EE3" unicode="&#x1ee3;" horiz-adv-x="1159" 
d="M482 -337v146h136v-146h-136zM562 -20q-138 0 -241.5 59.5t-161 178t-57.5 295.5q0 163 51.5 284.5t154 189t254.5 67.5q102 0 185 -33t142 -99q42 5 66.5 23.5t37 59t14.5 109.5h122q0 -85 -19 -144t-59.5 -92.5t-103.5 -42.5q70 -125 70 -322q0 -159 -50.5 -279
t-151.5 -187t-253 -67zM562 85q102 0 175.5 49t113.5 145t40 237q0 126 -35 223.5t-107.5 153t-186.5 55.5q-103 0 -177.5 -48.5t-115 -145t-40.5 -238.5q0 -126 35 -223t109 -152.5t189 -55.5z" />
    <glyph glyph-name="uni1EE4" unicode="&#x1ee4;" horiz-adv-x="1375" 
d="M707 -20q-174 0 -284.5 57t-163 172t-52.5 287v950h132v-981q0 -183 92.5 -277t275.5 -94q123 0 207 41t126.5 123.5t42.5 206.5v981h126v-975q0 -162 -54 -271t-165 -164.5t-283 -55.5zM638 -334v146h136v-146h-136z" />
    <glyph glyph-name="uni1EE5" unicode="&#x1ee5;" horiz-adv-x="1145" 
d="M548 -20q-86 1 -158.5 23.5t-126.5 67t-84 112t-30 157.5v694h125v-686q0 -117 71 -189.5t218 -72.5q130 0 210 68t80 208v672h124v-1034h-105l-12 193q-18 -70 -61 -117.5t-106.5 -72t-144.5 -23.5zM498 -337v146h136v-146h-136z" />
    <glyph glyph-name="uni1EE6" unicode="&#x1ee6;" horiz-adv-x="1375" 
d="M707 -20q-174 0 -284.5 57t-163 172t-52.5 287v950h132v-981q0 -183 92.5 -277t275.5 -94q123 0 207 41t126.5 123.5t42.5 206.5v981h126v-975q0 -162 -54 -271t-165 -164.5t-283 -55.5zM757 1563l-46 70q45 29 64.5 67.5t-1.5 71.5q-21 34 -65 32.5t-88 -30.5l-46 71
q81 52 156.5 43.5t114.5 -67.5q47 -70 20 -138.5t-109 -119.5z" />
    <glyph glyph-name="uni1EE7" unicode="&#x1ee7;" horiz-adv-x="1145" 
d="M548 -20q-86 1 -158.5 23.5t-126.5 67t-84 112t-30 157.5v694h125v-686q0 -117 71 -189.5t218 -72.5q130 0 210 68t80 208v672h124v-1034h-105l-12 193q-18 -70 -61 -117.5t-106.5 -72t-144.5 -23.5zM613 1151l-46 70q45 29 64.5 67.5t-1.5 71.5q-21 34 -65 32.5
t-88 -30.5l-46 71q81 52 156.5 43.5t114.5 -67.5q47 -70 20 -138.5t-109 -119.5z" />
    <glyph glyph-name="uni1EE8" unicode="&#x1ee8;" horiz-adv-x="1564" 
d="M707 -20q-174 0 -284.5 57t-163 172t-52.5 287v950h132v-981q0 -183 92.5 -277t275.5 -94q123 0 207 41t126.5 123.5t42.5 206.5v981h126v-167q45 4 71.5 22.5t39.5 60t16 111.5h122q0 -98 -26.5 -162t-81 -93t-141.5 -26v-721q0 -162 -54 -271t-165 -164.5t-283 -55.5z
M645 1567l206 291h159l-260 -291h-105z" />
    <glyph glyph-name="uni1EE9" unicode="&#x1ee9;" horiz-adv-x="1239" 
d="M524 1155l206 291h159l-260 -291h-105zM548 -20q-86 1 -158.5 23.5t-126.5 67t-84 112t-30 157.5v694h125v-686q0 -117 71 -189.5t218 -72.5q130 0 210 68t80 208v672h124v-115q49 2 78 20t43 60t17 115h122q-1 -101 -28 -165.5t-84 -93t-148 -23.5v-832h-105l-12 193
q-18 -70 -61 -117.5t-106.5 -72t-144.5 -23.5z" />
    <glyph glyph-name="uni1EEA" unicode="&#x1eea;" horiz-adv-x="1564" 
d="M707 -20q-174 0 -284.5 57t-163 172t-52.5 287v950h132v-981q0 -183 92.5 -277t275.5 -94q123 0 207 41t126.5 123.5t42.5 206.5v981h126v-167q45 4 71.5 22.5t39.5 60t16 111.5h122q0 -98 -26.5 -162t-81 -93t-141.5 -26v-721q0 -162 -54 -271t-165 -164.5t-283 -55.5z
M667 1567l-261 291h160l206 -291h-105z" />
    <glyph glyph-name="uni1EEB" unicode="&#x1eeb;" horiz-adv-x="1239" 
d="M522 1155l-261 291h160l206 -291h-105zM548 -20q-86 1 -158.5 23.5t-126.5 67t-84 112t-30 157.5v694h125v-686q0 -117 71 -189.5t218 -72.5q130 0 210 68t80 208v672h124v-115q49 2 78 20t43 60t17 115h122q-1 -101 -28 -165.5t-84 -93t-148 -23.5v-832h-105l-12 193
q-18 -70 -61 -117.5t-106.5 -72t-144.5 -23.5z" />
    <glyph glyph-name="uni1EEC" unicode="&#x1eec;" horiz-adv-x="1564" 
d="M707 -20q-174 0 -284.5 57t-163 172t-52.5 287v950h132v-981q0 -183 92.5 -277t275.5 -94q123 0 207 41t126.5 123.5t42.5 206.5v981h126v-167q45 4 71.5 22.5t39.5 60t16 111.5h122q0 -98 -26.5 -162t-81 -93t-141.5 -26v-721q0 -162 -54 -271t-165 -164.5t-283 -55.5z
M757 1563l-46 70q45 29 64.5 67.5t-1.5 71.5q-21 34 -65 32.5t-88 -30.5l-46 71q81 52 156.5 43.5t114.5 -67.5q47 -70 20 -138.5t-109 -119.5z" />
    <glyph glyph-name="uni1EED" unicode="&#x1eed;" horiz-adv-x="1239" 
d="M623 1151l-46 70q45 29 64.5 67.5t-1.5 71.5q-21 34 -65 32.5t-88 -30.5l-46 71q81 52 156.5 43.5t114.5 -67.5q47 -70 20 -138.5t-109 -119.5zM548 -20q-86 1 -158.5 23.5t-126.5 67t-84 112t-30 157.5v694h125v-686q0 -117 71 -189.5t218 -72.5q130 0 210 68t80 208
v672h124v-115q49 2 78 20t43 60t17 115h122q-1 -101 -28 -165.5t-84 -93t-148 -23.5v-832h-105l-12 193q-18 -70 -61 -117.5t-106.5 -72t-144.5 -23.5z" />
    <glyph glyph-name="uni1EEE" unicode="&#x1eee;" horiz-adv-x="1562" 
d="M707 -20q-174 0 -284.5 57t-163 172t-52.5 287v950h132v-981q0 -183 92.5 -277t275.5 -94q123 0 207 41t126.5 123.5t42.5 206.5v981h126v-167q45 4 71.5 22.5t39.5 60t16 111.5h122q0 -98 -26.5 -162t-81 -93t-141.5 -26v-721q0 -162 -54 -271t-165 -164.5t-283 -55.5z
M465 1648l-29 84q31 27 66 46.5t86 19.5q45 0 84.5 -13t78.5 -26.5t82 -13.5q41 0 69 13.5t57 34.5l30 -92q-24 -16 -60 -34t-97 -18q-52 0 -89 12.5t-71 25t-76 12.5q-49 0 -77 -16.5t-54 -34.5z" />
    <glyph glyph-name="uni1EEF" unicode="&#x1eef;" horiz-adv-x="1239" 
d="M331 1236l-29 84q31 27 66 46.5t86 19.5q45 0 84.5 -13t78.5 -26.5t82 -13.5q41 0 69 13.5t57 34.5l30 -92q-24 -16 -60 -34t-97 -18q-52 0 -89 12.5t-71 25t-76 12.5q-49 0 -77 -16.5t-54 -34.5zM548 -20q-86 1 -158.5 23.5t-126.5 67t-84 112t-30 157.5v694h125v-686
q0 -117 71 -189.5t218 -72.5q130 0 210 68t80 208v672h124v-115q49 2 78 20t43 60t17 115h122q-1 -101 -28 -165.5t-84 -93t-148 -23.5v-832h-105l-12 193q-18 -70 -61 -117.5t-106.5 -72t-144.5 -23.5z" />
    <glyph glyph-name="uni1EF0" unicode="&#x1ef0;" horiz-adv-x="1564" 
d="M707 -20q-174 0 -284.5 57t-163 172t-52.5 287v950h132v-981q0 -183 92.5 -277t275.5 -94q123 0 207 41t126.5 123.5t42.5 206.5v981h126v-167q45 4 71.5 22.5t39.5 60t16 111.5h122q0 -98 -26.5 -162t-81 -93t-141.5 -26v-721q0 -162 -54 -271t-165 -164.5t-283 -55.5z
M638 -334v146h136v-146h-136z" />
    <glyph glyph-name="uni1EF1" unicode="&#x1ef1;" horiz-adv-x="1239" 
d="M496 -337v146h136v-146h-136zM548 -20q-86 1 -158.5 23.5t-126.5 67t-84 112t-30 157.5v694h125v-686q0 -117 71 -189.5t218 -72.5q130 0 210 68t80 208v672h124v-115q49 2 78 20t43 60t17 115h122q-1 -101 -28 -165.5t-84 -93t-148 -23.5v-832h-105l-12 193
q-18 -70 -61 -117.5t-106.5 -72t-144.5 -23.5z" />
    <glyph glyph-name="Ygrave" unicode="&#x1ef2;" horiz-adv-x="1147" 
d="M515 0v621l-489 825h138l413 -709l407 709h136l-481 -827v-619h-124zM538 1570l-261 291h160l206 -291h-105z" />
    <glyph glyph-name="ygrave" unicode="&#x1ef3;" horiz-adv-x="1038" 
d="M239 -330q-83 0 -111.5 10l-28.5 10v83l108 -1q52 -1 88.5 9t60 27.5t38 39.5t24.5 46l45 120l-404 1020h129l338 -868l332 868h122l-445 -1152q-32 -80 -76 -126.5t-99 -66t-121 -19.5zM482 1155l-261 291h160l206 -291h-105z" />
    <glyph glyph-name="uni1EF4" unicode="&#x1ef4;" horiz-adv-x="1147" 
d="M515 0v621l-489 825h138l413 -709l407 709h136l-481 -827v-619h-124zM510 -337v146h136v-146h-136z" />
    <glyph glyph-name="uni1EF5" unicode="&#x1ef5;" horiz-adv-x="1038" 
d="M239 -330q-83 0 -111.5 10l-28.5 10v83l108 -1q52 -1 88.5 9t60 27.5t38 39.5t24.5 46l45 120l-404 1020h129l338 -868l332 868h122l-445 -1152q-32 -80 -76 -126.5t-99 -66t-121 -19.5zM686 -341v146h136v-146h-136z" />
    <glyph glyph-name="uni1EF6" unicode="&#x1ef6;" horiz-adv-x="1147" 
d="M515 0v621l-489 825h138l413 -709l407 709h136l-481 -827v-619h-124zM628 1566l-46 70q45 29 64.5 67.5t-1.5 71.5q-21 34 -65 32.5t-88 -30.5l-46 71q81 52 156.5 43.5t114.5 -67.5q47 -70 20 -138.5t-109 -119.5z" />
    <glyph glyph-name="uni1EF7" unicode="&#x1ef7;" horiz-adv-x="1038" 
d="M239 -330q-83 0 -111.5 10l-28.5 10v83l108 -1q52 -1 88.5 9t60 27.5t38 39.5t24.5 46l45 120l-404 1020h129l338 -868l332 868h122l-445 -1152q-32 -80 -76 -126.5t-99 -66t-121 -19.5zM572 1151l-46 70q45 29 64.5 67.5t-1.5 71.5q-21 34 -65 32.5t-88 -30.5l-46 71
q81 52 156.5 43.5t114.5 -67.5q47 -70 20 -138.5t-109 -119.5z" />
    <glyph glyph-name="uni1EF8" unicode="&#x1ef8;" horiz-adv-x="1147" 
d="M515 0v621l-489 825h138l413 -709l407 709h136l-481 -827v-619h-124zM336 1651l-29 84q31 27 66 46.5t86 19.5q45 0 84.5 -13t78.5 -26.5t82 -13.5q41 0 69 13.5t57 34.5l30 -92q-24 -16 -60 -34t-97 -18q-52 0 -89 12.5t-71 25t-76 12.5q-49 0 -77 -16.5t-54 -34.5z" />
    <glyph glyph-name="uni1EF9" unicode="&#x1ef9;" horiz-adv-x="1038" 
d="M239 -330q-83 0 -111.5 10l-28.5 10v83l108 -1q52 -1 88.5 9t60 27.5t38 39.5t24.5 46l45 120l-404 1020h129l338 -868l332 868h122l-445 -1152q-32 -80 -76 -126.5t-99 -66t-121 -19.5zM280 1236l-29 84q31 27 66 46.5t86 19.5q45 0 84.5 -13t78.5 -26.5t82 -13.5
q41 0 69 13.5t57 34.5l30 -92q-24 -16 -60 -34t-97 -18q-52 0 -89 12.5t-71 25t-76 12.5q-49 0 -77 -16.5t-54 -34.5z" />
    <glyph glyph-name="endash" unicode="&#x2013;" horiz-adv-x="1068" 
d="M125 449v108l818 2v-108z" />
    <glyph glyph-name="emdash" unicode="&#x2014;" horiz-adv-x="2198" 
d="M376 449v108l1445 2v-108z" />
    <glyph glyph-name="quoteleft" unicode="&#x2018;" horiz-adv-x="452" 
d="M122 1089v161l152 261h74l-108 -235l76 -2v-185h-194z" />
    <glyph glyph-name="quoteright" unicode="&#x2019;" horiz-adv-x="428" 
d="M100 1025l108 234l-77 2v185h194v-160l-151 -261h-74z" />
    <glyph glyph-name="quotesinglbase" unicode="&#x201a;" horiz-adv-x="443" 
d="M83 -234l108 233l-77 2v187h194v-161l-151 -261h-74z" />
    <glyph glyph-name="quotedblleft" unicode="&#x201c;" horiz-adv-x="771" 
d="M122 1025v162l154 259h73l-109 -233l76 -2v-186h-194zM440 1025v162l152 259h74l-110 -233l79 -2v-186h-195z" />
    <glyph glyph-name="quotedblright" unicode="&#x201d;" horiz-adv-x="745" 
d="M416 1025l110 234l-77 2v185h193v-160l-152 -261h-74zM100 1025l108 234l-77 2v185h194v-160l-151 -261h-74z" />
    <glyph glyph-name="quotedblbase" unicode="&#x201e;" horiz-adv-x="768" 
d="M408 -234l108 233l-77 2v187h194v-161l-151 -261h-74zM83 -234l108 233l-77 2v187h194v-161l-151 -261h-74z" />
    <glyph glyph-name="dagger" unicode="&#x2020;" horiz-adv-x="843" 
d="M351 -322l25 1138l-362 -18v127l356 -16l-20 537h143l-21 -537l355 16v-127l-362 18l28 -1138h-142z" />
    <glyph glyph-name="daggerdbl" unicode="&#x2021;" horiz-adv-x="843" 
d="M350 -322l20 531l-356 -16v129l362 -20v508l-362 -18v127l356 -16l-20 543h143l-21 -543l355 16v-127l-361 18v-508l361 20v-129l-355 16l21 -531h-143z" />
    <glyph glyph-name="bullet" unicode="&#x2022;" horiz-adv-x="592" 
d="M294 570q-46 0 -83 22.5t-59.5 60t-22.5 83.5q0 45 22.5 82.5t59.5 59.5t83 22q45 0 82.5 -22t59.5 -59t22 -83t-22 -83.5t-59.5 -60t-82.5 -22.5z" />
    <glyph glyph-name="ellipsis" unicode="&#x2026;" horiz-adv-x="1392" 
d="M1107 0v190h165v-190h-165zM115 0v190h165v-190h-165zM611 0v190h165v-190h-165z" />
    <glyph glyph-name="perthousand" unicode="&#x2030;" horiz-adv-x="2555" 
d="M344 -8l977 1470h94l-972 -1470h-99zM444 640q-95 0 -169.5 50.5t-117.5 143t-43 220.5q0 129 43 221.5t117.5 142.5t169.5 50t169 -50t115.5 -142.5t41.5 -221.5q0 -128 -41.5 -220.5t-115 -143t-169.5 -50.5zM442 718q107 0 168.5 86t61.5 250q0 165 -61.5 250.5
t-168.5 85.5q-106 0 -168 -86t-62 -250q0 -162 61.5 -249t168.5 -87zM1325 -20q-95 0 -170 48.5t-117.5 141.5t-42.5 226q0 131 42.5 223t117.5 141.5t170 49.5t169 -49.5t116 -141.5t42 -223q0 -133 -42 -226t-115.5 -141.5t-169.5 -48.5zM1323 58q107 0 168.5 86.5
t61.5 249.5q0 164 -61.5 250t-168.5 86q-106 0 -167.5 -86.5t-61.5 -249.5q0 -162 61 -249t168 -87zM2112 -20q-96 0 -171 48.5t-117.5 141.5t-42.5 226q0 131 43 223t117.5 141.5t170.5 49.5q95 0 168.5 -49.5t115.5 -141.5t42 -223q0 -133 -41.5 -226t-115.5 -141.5
t-169 -48.5zM2110 58q107 0 168 86.5t61 249.5q0 164 -61.5 250t-167.5 86q-107 0 -168.5 -86.5t-61.5 -249.5q0 -162 61.5 -249t168.5 -87z" />
    <glyph glyph-name="guilsinglleft" unicode="&#x2039;" horiz-adv-x="521" 
d="M344 147l-275 355l277 371h78l-224 -371l220 -355h-76z" />
    <glyph glyph-name="guilsinglright" unicode="&#x203a;" horiz-adv-x="519" 
d="M101 147l220 355l-223 371h76l276 -371l-275 -355h-74z" />
    <glyph glyph-name="fraction" unicode="&#x2044;" horiz-adv-x="458" 
d="M-203 -8l-99 1l977 1469h94z" />
    <glyph glyph-name="uni2070" unicode="&#x2070;" horiz-adv-x="733" 
d="M366 731q-149 0 -229 120.5t-80 342.5q0 225 81 348.5t228 123.5q149 0 229.5 -123t80.5 -347q0 -222 -80.5 -343.5t-229.5 -121.5zM368 812q109 0 161 95t52 289q0 197 -53 293.5t-162 96.5q-108 0 -162 -97.5t-54 -292.5q0 -192 54 -288t164 -96z" />
    <glyph glyph-name="uni2074" unicode="&#x2074;" horiz-adv-x="765" 
d="M476 744v247h-429v86l427 577h89v-582h155v-81h-155v-247h-87zM137 1072h336v452z" />
    <glyph glyph-name="uni2075" unicode="&#x2075;" horiz-adv-x="770" 
d="M395 731q-124 0 -216.5 68.5t-121.5 181.5l83 18q31 -88 97 -139t156 -51q105 0 166.5 62.5t61.5 169.5q0 103 -65 161t-152 58q-64 0 -115 -18t-104 -89l-3 1.5l-3 1.5l-81 14l41 484h524l-2 -80h-443l-24 -316q41 41 95 61.5t125 20.5q77 0 145 -33.5t111 -99.5
t43 -163q0 -142 -87 -227.5t-231 -85.5z" />
    <glyph glyph-name="uni2076" unicode="&#x2076;" horiz-adv-x="744" 
d="M386 734q-154 0 -241.5 121.5t-87.5 332.5q0 228 89.5 354t251.5 126q73 0 133 -28t100 -79t51 -121h-84q-19 70 -72 109.5t-127 39.5q-130 0 -193.5 -104.5t-57.5 -306.5q28 73 94.5 117t147.5 44q138 0 218 -79t80 -216q0 -93 -37 -163.5t-104.5 -108.5t-160.5 -38z
M388 812q92 0 148.5 63t56.5 166q0 107 -54.5 163.5t-152.5 56.5q-57 0 -106 -27t-78 -71t-30 -96q-2 -113 59 -184t157 -71z" />
    <glyph glyph-name="uni2077" unicode="&#x2077;" horiz-adv-x="693" 
d="M209 746q17 88 61.5 224.5t118.5 295t174 311.5h-516v79h619v-77q-64 -92 -125 -207.5t-111 -234.5t-83.5 -222t-44.5 -169h-93z" />
    <glyph glyph-name="uni2078" unicode="&#x2078;" horiz-adv-x="811" 
d="M405 733q-153 0 -245.5 71t-92.5 189q0 51 25 99.5t66 84t88 48.5q-68 29 -104 78t-36 118q0 113 83.5 180t215.5 67q133 0 215.5 -67t82.5 -180q0 -69 -35 -118t-102 -78q47 -13 87.5 -48.5t66 -84t25.5 -99.5q0 -118 -93.5 -189t-246.5 -71zM405 810q112 0 178.5 49.5
t66.5 131.5q0 83 -68 136t-177 53t-176 -53t-67 -136q0 -82 66 -131.5t177 -49.5zM405 1265q97 0 151.5 42t54.5 117q0 78 -56 123.5t-150 45.5q-93 0 -149.5 -46t-56.5 -123q0 -75 54.5 -117t151.5 -42z" />
    <glyph glyph-name="uni2079" unicode="&#x2079;" horiz-adv-x="749" 
d="M346 733q-73 0 -134.5 28.5t-102 79.5t-52.5 119h86q18 -66 72.5 -107t128.5 -41q131 0 198.5 103.5t63.5 309.5q-28 -75 -93 -120t-151 -45q-136 0 -217 80t-81 217q0 95 37 164.5t104 108t158 38.5q154 0 242 -123t88 -333q0 -230 -91.5 -354.5t-255.5 -124.5z
M364 1140q58 0 106 26.5t77.5 71.5t30.5 97q2 112 -58.5 183t-157.5 71q-90 0 -146.5 -62.5t-56.5 -166.5q0 -108 53.5 -164t151.5 -56z" />
    <glyph glyph-name="colonmonetary" unicode="&#x20a1;" horiz-adv-x="1344" 
d="M706 -20q-190 0 -322 86t-200.5 251.5t-68.5 405.5q0 241 68.5 406.5t200.5 251t322 85.5q148 0 261 -62.5t181 -164.5t81 -220h-136q-17 90 -66.5 165t-129.5 120t-192 45q-149 0 -249.5 -68t-151 -207t-50.5 -352q0 -319 113.5 -472t337.5 -153q112 0 192 45.5
t129.5 121.5t66.5 166h136q-10 -86 -49 -167t-105.5 -144.5t-159 -101t-209.5 -37.5zM407 -122l320 1682h86l-320 -1682h-86zM617 -122l320 1682h86l-320 -1682h-86z" />
    <glyph glyph-name="franc" unicode="&#x20a3;" horiz-adv-x="1198" 
d="M190 0v1446h897v-114h-755v-569h670v-113h-670v-650h-142zM-1 282v92l675 2v-93z" />
    <glyph glyph-name="lira" unicode="&#x20a4;" horiz-adv-x="1187" 
d="M25 0v112h79q74 -1 128 73t56 231q1 16 0.5 35.5t-2.5 44.5q-2 11 -16 11h-216v92h218l-34 202h-184v92h168l-8 50q-30 195 16.5 309.5t145.5 164t224 49.5q84 0 161 -29t134 -76.5t81 -104.5l-114 -46q-33 65 -91.5 102.5t-157.5 37.5q-77 0 -140 -30t-100.5 -86.5
t-37.5 -136.5q0 -27 7 -76.5t17 -110.5q3 -17 21 -17l340 2v-93l-344 -1l34 -202l310 2v-92h-302q4 -66 -6 -138.5t-36 -140t-71 -116.5h393q104 0 172 36.5t102 128.5l111 -35q-45 -122 -143 -183t-237 -61h-678z" />
    <glyph glyph-name="uni20A6" unicode="&#x20a6;" horiz-adv-x="1440" 
d="M220 0v1446h113l824 -1217v1217h125v-1446h-111l-827 1222v-1222h-124zM12 534v89l1416 2v-89zM12 869v90l1416 1v-89z" />
    <glyph glyph-name="uni20A9" unicode="&#x20a9;" horiz-adv-x="1956" 
d="M486 0l-410 1446h130l349 -1262l358 1262h108l354 -1262l359 1262h129l-418 -1446h-136l-343 1219l-349 -1219h-131zM28 592v93l1897 1v-92zM28 904v93l1897 1v-92z" />
    <glyph glyph-name="dong" unicode="&#x20ab;" horiz-adv-x="986" 
d="M448 247q-100 0 -182 47t-130.5 141.5t-48.5 235.5q0 136 48 238t133.5 159.5t197.5 57.5q89 0 140.5 -29t89.5 -64q15 -11 19.5 -8t4.5 19v400h111v-1181h-107v123q-17 -20 -49.5 -53t-87.5 -59.5t-139 -26.5zM129 0v84h711v-84h-711zM482 340q68 0 121 30.5t82 75.5
t29 89v388q-49 51 -103.5 78t-121.5 27q-121 0 -199 -90.5t-78 -261.5q0 -116 37.5 -190.5t98.5 -110t134 -35.5zM433 1231v81h522v-81h-522z" />
    <glyph glyph-name="Euro" unicode="&#x20ac;" horiz-adv-x="1140" 
d="M734 -20q-141 0 -252 50t-188.5 146t-117.5 233.5t-40 312.5q0 233 71 400t202.5 255.5t315.5 88.5q92 0 179 -31.5t156 -88.5l-88 -93q-50 42 -108.5 69.5t-129.5 27.5q-146 0 -246 -70.5t-151.5 -210.5t-51.5 -348q0 -203 52 -341.5t155.5 -209.5t256.5 -71
q72 0 135 24.5t112 61.5l71 -90q-66 -52 -151.5 -83.5t-181.5 -31.5zM-31 523v92l761 2v-93zM-31 838v92l761 2v-93z" />
    <glyph glyph-name="uni20B9" unicode="&#x20b9;" horiz-adv-x="1103" 
d="M718 0l-253 695h-456v107h364q194 0 289.5 67t95.5 225q0 129 -82 193t-246 64h-421v95h432q221 0 344 -89.5t123 -263.5q0 -114 -44 -188.5t-111 -117.5t-135 -65q-13 -3 -8 -17l264 -705h-156zM12 1047v90l1057 1v-89zM12 1357v89l1057 2v-90z" />
    <glyph glyph-name="uni20BA" unicode="&#x20ba;" horiz-adv-x="1035" 
d="M217 0v1446h143v-1332h110q144 1 247.5 84.5t172.5 272.5l122 -29q-34 -106 -87.5 -188t-125 -138.5t-160.5 -86t-193 -29.5h-229zM70 395l-34 100l615 224l37 -100zM64 719l-34 99l616 224l37 -99z" />
    <glyph glyph-name="uni2113" unicode="&#x2113;" horiz-adv-x="938" 
d="M502 -13q-140 0 -214 94t-87 284l-105 -72l-48 87l155 111v532q0 152 44 250t117.5 145.5t162.5 47.5q87 0 145 -39t87.5 -108t29.5 -156q0 -109 -41.5 -208.5t-110 -190t-149.5 -171.5t-159 -154q0 -192 46.5 -271t140.5 -79q72 0 128 33t121 131l60 -44
q-27 -52 -58.5 -93t-71 -70t-87 -44t-106.5 -15zM329 570q53 47 115 112t117.5 144.5t90.5 170t35 187.5q0 87 -40 133.5t-116 46.5q-64 0 -109 -36.5t-69 -121.5t-24 -232v-404z" />
    <glyph glyph-name="uni2116" unicode="&#x2116;" horiz-adv-x="2292" 
d="M207 0v1446h113l825 -1217v1217h124v-1446h-110l-827 1222v-1222h-125zM1883 794q-97 0 -165 42.5t-104 117.5t-36 172q0 101 37.5 177t106 118.5t161.5 42.5q95 0 163.5 -42.5t105.5 -118.5t37 -177q0 -97 -36 -172t-104.5 -117.5t-165.5 -42.5zM1883 872
q100 0 151 70.5t51 189.5q0 114 -51 183t-151 69q-99 0 -149.5 -69t-50.5 -183q0 -119 50.5 -189.5t149.5 -70.5z" />
    <glyph glyph-name="uni2117" unicode="&#x2117;" horiz-adv-x="1618" 
d="M808 -20q-154 0 -289 57.5t-237 159.5t-159.5 237t-57.5 290q0 153 57.5 287.5t159.5 236.5t237 160t289 58q153 0 287.5 -58t237 -160t160.5 -236.5t58 -287.5q0 -155 -58 -290t-160.5 -237t-237 -159.5t-287.5 -57.5zM808 83q128 0 242.5 45t203 129t139 202.5
t50.5 264.5q0 144 -50.5 262t-139 203t-203 130.5t-242.5 45.5q-131 0 -246 -45.5t-203 -130.5t-137.5 -203t-49.5 -262q0 -146 49.5 -264.5t137.5 -202.5t203 -129t246 -45zM554 330v778h288q82 0 146.5 -22t101.5 -68.5t37 -119.5q0 -124 -78 -185.5t-198 -61.5h-195v-321
h-102zM656 735h190q73 0 124.5 35.5t51.5 111.5q0 83 -53 112t-131 29h-182v-288z" />
    <glyph glyph-name="uni2120" unicode="&#x2120;" horiz-adv-x="1933" 
d="M981 0v904h101l309 -804l314 804h100v-904h-82v753l-287 -753h-89l-285 744v-744h-81zM411 -13q-87 0 -159 27.5t-120 82t-60 132.5h84q18 -84 90.5 -128t166.5 -44q99 0 168.5 48t69.5 129q0 59 -36 97t-118 61l-195 53q-88 24 -145.5 74.5t-57.5 151.5q0 72 39.5 127
t109 86t155.5 31q103 0 173 -37.5t105.5 -95.5t34.5 -122h-83q-6 69 -40 110t-84.5 58t-107.5 17q-106 0 -162.5 -49.5t-56.5 -120.5q0 -64 39.5 -99t112.5 -55l196 -55q114 -29 158 -91.5t44 -136.5q0 -71 -39.5 -128t-111 -90t-170.5 -33z" />
    <glyph glyph-name="trademark" unicode="&#x2122;" horiz-adv-x="1779" 
d="M827 0v904h101l310 -804l314 804h100v-904h-82v753l-288 -753h-88l-285 744v-744h-82zM327 0v829h-302v75h662v-75h-281v-829h-79z" />
    <glyph glyph-name="uni2126" unicode="&#x2126;" horiz-adv-x="1530" 
d="M194 0v121h334q-18 14 -63.5 48.5t-102 91.5t-110 137t-88.5 185t-35 236q0 133 41.5 256t123 220t200 153t272.5 56q155 0 273 -57.5t198.5 -154t121.5 -218.5t41 -253q0 -110 -21.5 -199.5t-69.5 -169.5t-124.5 -160t-187.5 -171h338v-121h-494v119q54 38 124 96.5
t135 141.5t108 194t43 253q0 112 -30 216t-90 186.5t-151 130.5t-214 48t-214.5 -48t-152 -130.5t-90.5 -186.5t-30 -218q0 -143 44 -259.5t134.5 -219t230.5 -204.5v-119h-494z" />
    <glyph glyph-name="uni2153" unicode="&#x2153;" horiz-adv-x="1705" 
d="M229 536v741h-182v69q121 -1 162 20.5t42 79.5h69v-910h-91zM299 -8l-99 1l977 1469h94zM1303 -14q-133 2 -218.5 76.5t-88.5 191.5h90q11 -88 71.5 -137.5t150.5 -49.5q107 0 172 49t65 129q0 86 -68.5 137t-184.5 52h-81v80l79 1q63 0 114.5 24t83 62.5t31.5 84.5
q0 59 -53 106t-157 47q-50 0 -98.5 -21t-79.5 -64t-31 -110h-89q-1 81 38 143t106.5 96.5t152.5 34.5q91 0 159 -28t106.5 -79.5t38.5 -122.5q0 -68 -43 -122t-124 -86q90 -27 142 -86.5t52 -146.5q0 -81 -43.5 -140t-118.5 -90.5t-174 -30.5z" />
    <glyph glyph-name="uni2154" unicode="&#x2154;" horiz-adv-x="2000" 
d="M68 536v64v31q0 83 35 139.5t89.5 98t116 75t116 69.5t89.5 82.5t35 112.5q0 76 -53.5 122t-143.5 46q-94 0 -153 -52.5t-63 -144.5h-89q1 75 37 138.5t104.5 102t168.5 38.5q129 0 205.5 -69t76.5 -181q0 -83 -34 -139.5t-88.5 -97t-115.5 -73.5t-115 -68t-88 -80.5
t-34 -112.5v-19h484v-82h-580zM594 -8l-99 1l977 1469h94zM1597 -14q-133 2 -218.5 76.5t-88.5 191.5h90q11 -88 71.5 -137.5t150.5 -49.5q107 0 172 49t65 129q0 86 -68.5 137t-184.5 52h-81v80l79 1q63 0 114.5 24t83 62.5t31.5 84.5q0 59 -53 106t-157 47
q-50 0 -98.5 -21t-79.5 -64t-31 -110h-89q-1 81 38 143t106.5 96.5t152.5 34.5q91 0 159 -28t106.5 -79.5t38.5 -122.5q0 -68 -43 -122t-124 -86q90 -27 142 -86.5t52 -146.5q0 -81 -43.5 -140t-118.5 -90.5t-174 -30.5z" />
    <glyph glyph-name="oneeighth" unicode="&#x215b;" horiz-adv-x="1740" 
d="M229 536v741h-182v69q121 -1 162 20.5t42 79.5h69v-910h-91zM299 -8l-99 1l977 1469h94zM1334 -12q-153 0 -245.5 71t-92.5 189q0 51 25 99.5t66 84t88 48.5q-68 29 -104 78t-36 118q0 113 83.5 180t215.5 67q133 0 215.5 -67t82.5 -180q0 -69 -35 -118t-102 -78
q47 -13 87.5 -48.5t66 -84t25.5 -99.5q0 -118 -93.5 -189t-246.5 -71zM1334 65q112 0 178.5 49.5t66.5 131.5q0 83 -68 136t-177 53t-176 -53t-67 -136q0 -82 66 -131.5t177 -49.5zM1334 520q97 0 151.5 42t54.5 117q0 78 -56 123.5t-150 45.5q-93 0 -149.5 -46t-56.5 -123
q0 -75 54.5 -117t151.5 -42z" />
    <glyph glyph-name="threeeighths" unicode="&#x215c;" horiz-adv-x="1992" 
d="M374 526q-133 2 -218.5 76.5t-88.5 191.5h90q11 -88 71.5 -137.5t150.5 -49.5q107 0 172 49t65 129q0 86 -68.5 137t-184.5 52h-81v80l79 1q63 0 114.5 24t83 62.5t31.5 84.5q0 59 -53 106t-157 47q-50 0 -98.5 -21t-79.5 -64t-31 -110h-89q-1 81 38 143t106.5 96.5
t152.5 34.5q91 0 159 -28t106.5 -79.5t38.5 -122.5q0 -68 -43 -122t-124 -86q90 -27 142 -86.5t52 -146.5q0 -81 -43.5 -140t-118.5 -90.5t-174 -30.5zM551 -8l-99 1l977 1469h94zM1585 -12q-153 0 -245.5 71t-92.5 189q0 51 25 99.5t66 84t88 48.5q-68 29 -104 78t-36 118
q0 113 83.5 180t215.5 67q133 0 215.5 -67t82.5 -180q0 -69 -35 -118t-102 -78q47 -13 87.5 -48.5t66 -84t25.5 -99.5q0 -118 -93.5 -189t-246.5 -71zM1585 65q112 0 178.5 49.5t66.5 131.5q0 83 -68 136t-177 53t-176 -53t-67 -136q0 -82 66 -131.5t177 -49.5zM1585 520
q97 0 151.5 42t54.5 117q0 78 -56 123.5t-150 45.5q-93 0 -149.5 -46t-56.5 -123q0 -75 54.5 -117t151.5 -42z" />
    <glyph glyph-name="fiveeighths" unicode="&#x215d;" horiz-adv-x="1985" 
d="M395 523q-124 0 -216.5 68.5t-121.5 181.5l83 18q31 -88 97 -139t156 -51q105 0 166.5 62.5t61.5 169.5q0 103 -65 161t-152 58q-64 0 -115 -18t-104 -89l-3 1.5l-3 1.5l-81 14l41 484h524l-2 -80h-443l-24 -316q41 41 95 61.5t125 20.5q77 0 145 -33.5t111 -99.5
t43 -163q0 -142 -87 -227.5t-231 -85.5zM544 -8l-99 1l977 1469h94zM1578 -12q-153 0 -245.5 71t-92.5 189q0 51 25 99.5t66 84t88 48.5q-68 29 -104 78t-36 118q0 113 83.5 180t215.5 67q133 0 215.5 -67t82.5 -180q0 -69 -35 -118t-102 -78q47 -13 87.5 -48.5t66 -84
t25.5 -99.5q0 -118 -93.5 -189t-246.5 -71zM1578 65q112 0 178.5 49.5t66.5 131.5q0 83 -68 136t-177 53t-176 -53t-67 -136q0 -82 66 -131.5t177 -49.5zM1578 520q97 0 151.5 42t54.5 117q0 78 -56 123.5t-150 45.5q-93 0 -149.5 -46t-56.5 -123q0 -75 54.5 -117t151.5 -42
z" />
    <glyph glyph-name="seveneighths" unicode="&#x215e;" horiz-adv-x="1803" 
d="M209 536q17 88 61.5 224.5t118.5 295t174 311.5h-516v79h619v-77q-64 -92 -125 -207.5t-111 -234.5t-83.5 -222t-44.5 -169h-93zM362 -8l-99 1l977 1469h94zM1397 -12q-153 0 -245.5 71t-92.5 189q0 51 25 99.5t66 84t88 48.5q-68 29 -104 78t-36 118q0 113 83.5 180
t215.5 67q133 0 215.5 -67t82.5 -180q0 -69 -35 -118t-102 -78q47 -13 87.5 -48.5t66 -84t25.5 -99.5q0 -118 -93.5 -189t-246.5 -71zM1397 65q112 0 178.5 49.5t66.5 131.5q0 83 -68 136t-177 53t-176 -53t-67 -136q0 -82 66 -131.5t177 -49.5zM1397 520q97 0 151.5 42
t54.5 117q0 78 -56 123.5t-150 45.5q-93 0 -149.5 -46t-56.5 -123q0 -75 54.5 -117t151.5 -42z" />
    <glyph glyph-name="partialdiff" unicode="&#x2202;" horiz-adv-x="1163" 
d="M560 -20q-135 0 -238 60.5t-160.5 164t-57.5 234.5q0 129 57 225t165 148.5t259 52.5q72 0 123.5 -11.5t94.5 -34t93 -52.5q16 -9 20.5 -6.5t4.5 10.5q0 142 -27 251t-80 182.5t-131 110t-180 36.5q-99 0 -163.5 -30t-122.5 -69l-44 83q35 38 94 67.5t131 46.5t145 17
q159 0 274.5 -81.5t178 -245t62.5 -409.5q0 -238 -58.5 -406t-169.5 -256t-270 -88zM544 91h2q95 0 174.5 58t131.5 161.5t66 241.5q3 31 1 45t-13 25q-31 37 -85 68t-119 49t-130 18q-98 0 -173 -42t-118 -116t-43 -168t41 -171t110.5 -123t154.5 -46z" />
    <glyph glyph-name="emptyset" unicode="&#x2205;" horiz-adv-x="1138" 
d="M183 298l-64 65l835 766l60 -64zM569 326q-111 0 -202 54.5t-145 145.5t-54 202q0 110 54 200.5t145 145t202 54.5q110 0 201 -54.5t146 -145t55 -200.5q0 -111 -55 -202t-146 -145.5t-201 -54.5zM569 410q88 0 160 43t115 115t43 160q0 86 -43 158t-115 115t-160 43
t-159.5 -43t-114 -115t-42.5 -158q0 -88 42.5 -160t114 -115t159.5 -43z" />
    <glyph glyph-name="uni2206" unicode="&#x2206;" horiz-adv-x="1331" 
d="M38 0l629 1446l625 -1446h-1254zM227 119h877l-437 1025z" />
    <glyph glyph-name="product" unicode="&#x220f;" horiz-adv-x="1265" 
d="M239 0v1331h-207v115h1198v-115h-210v-1331h-134v1331h-510v-1331h-137z" />
    <glyph glyph-name="summation" unicode="&#x2211;" horiz-adv-x="1008" 
d="M52 0v90l436 632l-408 626v98h846v-112h-672l393 -603l-424 -616h739v-115h-910z" />
    <glyph glyph-name="minus" unicode="&#x2212;" horiz-adv-x="1071" 
d="M127 673v105l817 1v-104z" />
    <glyph glyph-name="uni2215" unicode="&#x2215;" horiz-adv-x="1173" 
d="M200 -8l-99 1l877 1469h94z" />
    <glyph glyph-name="uni2219" unicode="&#x2219;" horiz-adv-x="596" 
d="M296 628q-45 0 -75.5 31.5t-30.5 75.5q0 45 30.5 75.5t75.5 30.5q44 0 74.5 -30.5t30.5 -75.5q0 -44 -30.5 -75.5t-74.5 -31.5z" />
    <glyph glyph-name="radical" unicode="&#x221a;" horiz-adv-x="1206" 
d="M556 -322l-345 936l-147 -59l-34 93l266 100l324 -923l477 1825h116l-517 -1972h-140z" />
    <glyph glyph-name="infinity" unicode="&#x221e;" horiz-adv-x="1398" 
d="M389 229q-78 0 -144.5 38t-106.5 107t-40 162t40 162t110.5 107.5t161.5 38.5q67 0 114 -20.5t85 -56t78 -78.5q15 -14 23 -14t20 14q30 33 69 69t90.5 61t122.5 25q81 0 145.5 -36.5t102 -103t37.5 -157.5v-3q0 -100 -41.5 -170.5t-110 -107.5t-149.5 -37
q-67 0 -115.5 23t-88 61.5t-79.5 84.5q-9 11 -14.5 12.5t-16.5 -12.5q-12 -12 -36 -39.5t-60 -57.5t-85 -51t-112 -21zM394 338h6q48 0 92 24.5t79.5 59t58.5 66.5q20 28 19 41.5t-22 45.5q-51 77 -106.5 121.5t-128.5 44.5q-82 0 -134.5 -55t-52.5 -144q0 -91 55.5 -147.5
t133.5 -56.5zM1015 338q57 0 95.5 30t58 76.5t19.5 95.5q0 80 -48 140.5t-131 60.5h-2q-75 0 -132.5 -51.5t-103.5 -107.5q-20 -24 -16.5 -45t16.5 -36q51 -72 97.5 -106.5t84.5 -45.5t62 -11z" />
    <glyph glyph-name="integral" unicode="&#x222b;" horiz-adv-x="847" 
d="M240 -342q-55 0 -91.5 4.5t-67.5 17t-68 34.5l37 120q51 -27 88 -39t87 -12q70 0 123.5 52.5t53.5 170.5q0 162 -13.5 326.5t-32.5 329t-33 326t-14 318.5q0 120 38.5 201t105.5 122t151 41q55 0 92 -5t68 -17t67 -34l-36 -120q-50 27 -88 39t-88 12q-74 0 -128.5 -53
t-54.5 -169q0 -161 14 -326t32 -330t32 -326.5t14 -316.5q0 -121 -38.5 -202.5t-104 -122.5t-145.5 -41z" />
    <glyph glyph-name="approxequal" unicode="&#x2248;" horiz-adv-x="1100" 
d="M164 794l-37 82q47 44 103 78.5t141 34.5q55 0 100.5 -15t88.5 -33.5t86.5 -33t94.5 -14.5q77 0 121 30.5t73 64.5l38 -86q-27 -39 -85 -71.5t-147 -32.5q-56 0 -100.5 14t-85 32.5t-83.5 32.5t-97 14q-76 0 -126 -30t-85 -67zM164 410l-37 84q47 44 103 77.5t141 33.5
q55 0 100.5 -15t88.5 -33.5t86.5 -33t94.5 -14.5q77 0 121 30.5t73 64.5l38 -85q-27 -38 -85 -71.5t-147 -33.5q-59 0 -104.5 14t-86 33t-82 33t-93.5 14q-76 0 -126 -30.5t-85 -67.5z" />
    <glyph glyph-name="notequal" unicode="&#x2260;" horiz-adv-x="1071" 
d="M236 146l491 1094h84l-486 -1094h-89zM127 868v104l817 2v-104zM127 432v104l817 2v-104z" />
    <glyph glyph-name="lessequal" unicode="&#x2264;" horiz-adv-x="1071" 
d="M939 485l-798 316v126l800 319v-130l-636 -251l634 -253v-127zM127 142v104l817 -2v-104z" />
    <glyph glyph-name="greaterequal" unicode="&#x2265;" horiz-adv-x="1071" 
d="M132 485v127l636 253l-638 251v130l801 -319v-126zM127 140v104l817 2v-104z" />
    <glyph glyph-name="lozenge" unicode="&#x25ca;" horiz-adv-x="901" 
d="M389 0l-308 722l319 724h118l310 -720l-320 -726h-119zM455 109l248 613l-248 615l-249 -606z" />
    <glyph glyph-name="i.loclTRK" horiz-adv-x="458" 
d="M168 0v1034h122v-1034h-122zM161 1300v146h136v-146h-136z" />
    <glyph glyph-name="g.ss01" horiz-adv-x="1177" 
d="M580 -338q-79 0 -148 21t-123.5 60t-90.5 92.5t-49 116.5h125q27 -95 108.5 -141t176.5 -47q121 -2 194.5 39t107 105t34.5 134l2 148q-46 -90 -134.5 -130t-203.5 -40q-103 0 -188 36.5t-146 102.5t-95 156t-37 195q-4 109 25 206t88 173t145.5 119.5t197.5 43.5
q91 0 159.5 -32.5t112 -76t60.5 -75.5l3 164h115l8 -972q1 -130 -56.5 -218.5t-158.5 -134t-232 -45.5zM600 123q125 0 192 40t92 102t24 128l-4 292q-1 61 -43.5 122t-114 101.5t-158.5 40.5q-111 0 -188.5 -56.5t-118 -155t-40.5 -227.5q0 -113 45 -200t125.5 -137
t188.5 -50z" />
    <glyph glyph-name="l.ss01" horiz-adv-x="524" 
d="M199 0v1486h125v-1486h-125z" />
    <glyph glyph-name="zero.osf" horiz-adv-x="1187" 
d="M592 -22q-224 0 -357.5 183.5t-133.5 555.5q0 250 62 416.5t172.5 249.5t258.5 83q222 0 356.5 -186t134.5 -560q0 -372 -134.5 -557t-358.5 -185zM595 94q169 0 259.5 148t90.5 478q0 334 -92 483t-260 149q-167 0 -261 -150t-94 -482q0 -329 94 -477.5t263 -148.5z" />
    <glyph glyph-name="one.osf" horiz-adv-x="790" 
d="M388 0v1189h-291v96q133 0 202.5 17t95.5 52t28 92h97v-1446h-132z" />
    <glyph glyph-name="two.osf" horiz-adv-x="1149" 
d="M131 0v96v50q0 112 41.5 193.5t110.5 142.5t151 110.5t163.5 96.5t150.5 99.5t110.5 120.5t41.5 161q0 124 -87.5 200.5t-234.5 76.5q-160 0 -252 -89t-99 -227h-130q3 118 60 216.5t164.5 158.5t263.5 60q136 0 236.5 -49.5t156 -139t55.5 -208.5q0 -112 -41.5 -193
t-109.5 -141t-149 -108.5t-163 -94t-150 -97.5t-109.5 -119.5t-41.5 -160.5v-37h777v-118h-915z" />
    <glyph glyph-name="three.osf" horiz-adv-x="1221" 
d="M588 -14q-135 2 -243 54t-173 145.5t-71 220.5h131q20 -141 117.5 -222.5t247.5 -81.5q116 0 203 37t135 104t48 155q0 102 -55.5 170.5t-149 103.5t-207.5 35l-126 1v115l123 1q105 1 189.5 41t134.5 104t50 138q0 64 -39 122.5t-115.5 94.5t-189.5 36q-82 0 -160.5 -34
t-129.5 -103.5t-52 -176.5h-130q0 131 64.5 227t171.5 148.5t234 52.5q144 0 252.5 -44.5t169 -126t60.5 -194.5q0 -107 -71.5 -196t-211.5 -139q104 -28 176.5 -81t110.5 -127t38 -165q0 -94 -38.5 -171.5t-109 -132.5t-168.5 -83.5t-216 -27.5z" />
    <glyph glyph-name="four.osf" horiz-adv-x="1225" 
d="M786 0v397h-689v129l682 920h133v-932h248v-117h-248v-397h-126zM222 514h558v751z" />
    <glyph glyph-name="five.osf" horiz-adv-x="1242" 
d="M636 -22q-128 0 -237.5 49t-187 136.5t-110.5 202.5l122 30q33 -91 91 -160t138.5 -107.5t180.5 -38.5q168 0 270 100.5t102 279.5q0 111 -49.5 191.5t-130 124.5t-175.5 44q-67 0 -125 -12t-113 -47.5t-113 -108.5q-3 -1 -4 -1t-5 1l-123 22l64 762h827l-3 -115h-708
l-41 -534q67 79 160 112t200 33q123 0 231.5 -52.5t176 -156.5t67.5 -259q0 -149 -63 -260.5t-176.5 -173.5t-265.5 -62z" />
    <glyph glyph-name="six.osf" horiz-adv-x="1203" 
d="M625 -22q-158 0 -276 86t-183 248t-65 392q0 229 61 400.5t181.5 266.5t299.5 95q111 0 205.5 -42t158.5 -121t84 -191h-121q-31 109 -115.5 176t-209.5 67q-142 0 -236.5 -79.5t-139 -238.5t-33.5 -396q24 87 81.5 154.5t138.5 105t176 37.5q141 0 246.5 -55.5
t164.5 -159.5t59 -251t-57 -258t-164 -173.5t-256 -62.5zM628 91q99 0 175.5 47t119 131.5t42.5 196.5q0 109 -37.5 190t-113 125.5t-189.5 44.5q-90 0 -170.5 -42.5t-131 -114.5t-50.5 -161q-2 -119 42 -213.5t124.5 -149t188.5 -54.5z" />
    <glyph glyph-name="seven.osf" horiz-adv-x="1172" 
d="M356 0q21 105 67.5 257t118.5 331.5t169 370t218 372.5h-832v115h978v-115q-82 -117 -160.5 -260t-148.5 -294.5t-126.5 -297t-94 -269.5t-51.5 -210h-138z" />
    <glyph glyph-name="eight.osf" horiz-adv-x="1269" 
d="M633 -22q-161 0 -280.5 51t-185.5 142.5t-66 214.5q0 85 43.5 163.5t112.5 134t145 69.5q-105 42 -171 123t-66 203q0 123 62 209.5t168 132t238 45.5q134 0 240 -45.5t167.5 -132t61.5 -209.5q0 -122 -64.5 -203t-171.5 -123q77 -14 146 -69.5t112.5 -134t43.5 -163.5
q0 -123 -66 -214.5t-186 -142.5t-283 -51zM633 87q181 0 289.5 81t108.5 215q0 89 -49 158.5t-138.5 109t-210.5 39.5q-119 0 -207.5 -39.5t-138 -109t-49.5 -158.5q0 -134 108.5 -215t286.5 -81zM633 812q152 0 244 71t92 200q0 128 -93 202.5t-243 74.5q-149 0 -242 -74.5
t-93 -202.5q0 -129 93 -200t242 -71z" />
    <glyph glyph-name="nine.osf" horiz-adv-x="1210" 
d="M560 -22q-111 0 -208 42t-163 120.5t-87 188.5h125q29 -107 117.5 -173.5t212.5 -66.5q141 0 240 77t147 235.5t38 403.5q-23 -89 -80 -157t-139 -106.5t-179 -38.5q-141 0 -247 55.5t-165 160t-59 252.5q0 147 56.5 258.5t162.5 174t255 62.5q158 0 275.5 -86
t182 -248.5t64.5 -391.5q0 -234 -62.5 -405t-185 -264t-301.5 -93zM587 617q91 0 171 42.5t130.5 114.5t50.5 162q2 119 -42 213.5t-124.5 149.5t-188.5 55q-99 0 -174.5 -47.5t-117.5 -132.5t-42 -197q0 -163 83 -261.5t254 -98.5z" />
    <glyph glyph-name="zero.tf" horiz-adv-x="1400" 
d="M699 -22q-224 0 -357.5 183.5t-133.5 555.5q0 250 62 416.5t172.5 249.5t258.5 83q222 0 356.5 -186t134.5 -560q0 -372 -134.5 -557t-358.5 -185zM702 94q169 0 259.5 148t90.5 478q0 334 -92 483t-260 149q-167 0 -261 -150t-94 -482q0 -329 94 -477.5t263 -148.5z" />
    <glyph glyph-name="one.tf" horiz-adv-x="1400" 
d="M669 2v1307l-434 -178v126l471 191h92v-1446h-129zM212 0v118h1041v-118h-1041z" />
    <glyph glyph-name="two.tf" horiz-adv-x="1400" 
d="M273 0v96v50q0 112 41.5 193.5t110.5 142.5t151 110.5t163.5 96.5t150.5 99.5t110.5 120.5t41.5 161q0 124 -87.5 200.5t-234.5 76.5q-160 0 -252 -89t-99 -227h-130q3 118 60 216.5t164.5 158.5t263.5 60q136 0 236.5 -49.5t156 -139t55.5 -208.5q0 -112 -41.5 -193
t-109.5 -141t-149 -108.5t-163 -94t-150 -97.5t-109.5 -119.5t-41.5 -160.5v-37h777v-118h-915z" />
    <glyph glyph-name="three.tf" horiz-adv-x="1400" 
d="M686 -22q-135 2 -243 54t-173 145.5t-71 220.5h131q20 -141 117.5 -222.5t247.5 -81.5q116 0 203 37t135 104t48 155q0 102 -55.5 170.5t-149 103.5t-207.5 35l-126 1v115l123 1q105 1 189.5 41t134.5 104t50 138q0 64 -39 122.5t-115.5 94.5t-189.5 36q-82 0 -160.5 -34
t-129.5 -103.5t-52 -176.5h-130q0 131 64.5 227t171.5 148.5t234 52.5q144 0 252.5 -44.5t169 -126t60.5 -194.5q0 -107 -71.5 -196t-211.5 -139q104 -28 176.5 -81t110.5 -127t38 -165q0 -94 -38.5 -171.5t-109 -132.5t-168.5 -83.5t-216 -27.5z" />
    <glyph glyph-name="four.tf" horiz-adv-x="1400" 
d="M855 0v397h-689v129l682 920h133v-932h248v-117h-248v-397h-126zM291 514h558v751z" />
    <glyph glyph-name="five.tf" horiz-adv-x="1400" 
d="M732 -22q-128 0 -237.5 49t-187 136.5t-110.5 202.5l122 30q33 -91 91 -160t138.5 -107.5t180.5 -38.5q168 0 270 100.5t102 279.5q0 111 -49.5 191.5t-130 124.5t-175.5 44q-67 0 -125 -12t-113 -47.5t-113 -108.5q-3 -1 -4 -1t-5 1l-123 22l64 762h827l-3 -115h-708
l-41 -534q67 79 160 112t200 33q123 0 231.5 -52.5t176 -156.5t67.5 -259q0 -149 -63 -260.5t-176.5 -173.5t-265.5 -62z" />
    <glyph glyph-name="six.tf" horiz-adv-x="1400" 
d="M724 -22q-158 0 -276 86t-183 248t-65 392q0 229 61 400.5t181.5 266.5t299.5 95q111 0 205.5 -42t158.5 -121t84 -191h-121q-31 109 -115.5 176t-209.5 67q-142 0 -236.5 -79.5t-139 -238.5t-33.5 -396q24 87 81.5 154.5t138.5 105t176 37.5q141 0 246.5 -55.5
t164.5 -159.5t59 -251t-57 -258t-164 -173.5t-256 -62.5zM727 91q99 0 175.5 47t119 131.5t42.5 196.5q0 109 -37.5 190t-113 125.5t-189.5 44.5q-90 0 -170.5 -42.5t-131 -114.5t-50.5 -161q-2 -119 42 -213.5t124.5 -149t188.5 -54.5z" />
    </font>
</defs>
</svg>
